G04 #@! TF.GenerationSoftware,KiCad,Pcbnew,9.0.5*
G04 #@! TF.CreationDate,2025-10-14T13:45:57-04:00*
G04 #@! TF.ProjectId,Power Distribution 2024,506f7765-7220-4446-9973-747269627574,rev?*
G04 #@! TF.SameCoordinates,Original*
G04 #@! TF.FileFunction,Legend,Bot*
G04 #@! TF.FilePolarity,Positive*
%FSLAX46Y46*%
G04 Gerber Fmt 4.6, Leading zero omitted, Abs format (unit mm)*
G04 Created by KiCad (PCBNEW 9.0.5) date 2025-10-14 13:45:57*
%MOMM*%
%LPD*%
G01*
G04 APERTURE LIST*
%ADD10C,0.508000*%
%ADD11C,2.400000*%
%ADD12C,4.038600*%
%ADD13C,2.057400*%
G04 APERTURE END LIST*
D10*
X175805800Y-113000000D02*
G75*
G02*
X175043800Y-113000000I-381000J0D01*
G01*
X175043800Y-113000000D02*
G75*
G02*
X175805800Y-113000000I381000J0D01*
G01*
X71965605Y-113000000D02*
G75*
G02*
X71203605Y-113000000I-381000J0D01*
G01*
X71203605Y-113000000D02*
G75*
G02*
X71965605Y-113000000I381000J0D01*
G01*
%LPC*%
D11*
X143965000Y-69532000D03*
X143965000Y-66132000D03*
X153885000Y-69532000D03*
X153885000Y-66132000D03*
X119965000Y-69532000D03*
X119965000Y-66132000D03*
X129885000Y-69532000D03*
X129885000Y-66132000D03*
X95965000Y-69532000D03*
X95965000Y-66132000D03*
X105885000Y-69532000D03*
X105885000Y-66132000D03*
X143965000Y-81532000D03*
X143965000Y-78132000D03*
X153885000Y-81532000D03*
X153885000Y-78132000D03*
X215965000Y-81532000D03*
X215965000Y-78132000D03*
X225885000Y-81532000D03*
X225885000Y-78132000D03*
X167965000Y-69532000D03*
X167965000Y-66132000D03*
X177885000Y-69532000D03*
X177885000Y-66132000D03*
X191965000Y-81532000D03*
X191965000Y-78132000D03*
X201885000Y-81532000D03*
X201885000Y-78132000D03*
X191965000Y-69532000D03*
X191965000Y-66132000D03*
X201885000Y-69532000D03*
X201885000Y-66132000D03*
D12*
X186999999Y-115460001D03*
X211500001Y-115460001D03*
D13*
X194000000Y-113000000D03*
X197500001Y-113000000D03*
X201000001Y-113000000D03*
X204500002Y-113000000D03*
X194000000Y-116500002D03*
X197500001Y-116500002D03*
X201000001Y-116500002D03*
X204500002Y-116500002D03*
D11*
X215965000Y-69532000D03*
X215965000Y-66132000D03*
X225885000Y-69532000D03*
X225885000Y-66132000D03*
X167965000Y-81532000D03*
X167965000Y-78132000D03*
X177885000Y-81532000D03*
X177885000Y-78132000D03*
X119965000Y-81532000D03*
X119965000Y-78132000D03*
X129885000Y-81532000D03*
X129885000Y-78132000D03*
X95965000Y-81532000D03*
X95965000Y-78132000D03*
X105885000Y-81532000D03*
X105885000Y-78132000D03*
D12*
X83149999Y-115460001D03*
X128650010Y-115460001D03*
D13*
X90150000Y-113000000D03*
X93650001Y-113000000D03*
X97150002Y-113000000D03*
X100650005Y-113000000D03*
X104150005Y-113000000D03*
X107650006Y-113000000D03*
X111150007Y-113000000D03*
X114650007Y-113000000D03*
X118150008Y-113000000D03*
X121650009Y-113000000D03*
X90150000Y-116500002D03*
X93650001Y-116500002D03*
X97150002Y-116500002D03*
X100650005Y-116500002D03*
X104150005Y-116500002D03*
X107650006Y-116500002D03*
X111150007Y-116500002D03*
X114650007Y-116500002D03*
X118150008Y-116500002D03*
X121650009Y-116500002D03*
%LPD*%
M02*
