M48
; DRILL file {KiCad 9.0.5} date 2025-10-14T13:46:00-0400
; FORMAT={-:-/ absolute / metric / decimal}
; #@! TF.CreationDate,2025-10-14T13:46:00-04:00
; #@! TF.GenerationSoftware,Kicad,Pcbnew,9.0.5
; #@! TF.FileFunction,Plated,1,2,PTH
FMAT,2
METRIC
; #@! TA.AperFunction,Plated,PTH,ViaDrill
T1C0.300
; #@! TA.AperFunction,Plated,PTH,ViaDrill
T2C0.500
; #@! TA.AperFunction,Plated,PTH,ComponentDrill
T3C1.549
; #@! TA.AperFunction,Plated,PTH,ComponentDrill
T4C1.600
%
G90
G05
T1
X75.0Y-83.9
X75.95Y-79.0
X81.85Y-61.3
X88.505Y-99.845
X89.075Y-105.6
X90.237Y-56.275
X95.637Y-59.075
X99.3Y-104.1
X101.875Y-109.525
X109.35Y-58.55
X111.15Y-102.9
X116.8Y-106.25
X119.15Y-102.8
X131.6Y-100.8
X134.8Y-71.35
X135.6Y-92.645
X138.35Y-97.45
X139.4Y-94.6
X140.387Y-54.15
X140.7Y-97.0
X144.787Y-57.95
X155.075Y-41.825
X160.287Y-93.9
X165.65Y-50.05
X170.95Y-62.5
X171.775Y-101.505
X193.15Y-54.35
X199.1Y-91.45
X201.885Y-90.9
T2
X68.05Y-111.25
X92.95Y-123.95
T3
X90.15Y-113.0
X90.15Y-116.5
X93.65Y-113.0
X93.65Y-116.5
X97.15Y-113.0
X97.15Y-116.5
X100.65Y-113.0
X100.65Y-116.5
X104.15Y-113.0
X104.15Y-116.5
X107.65Y-113.0
X107.65Y-116.5
X111.15Y-113.0
X111.15Y-116.5
X114.65Y-113.0
X114.65Y-116.5
X118.15Y-113.0
X118.15Y-116.5
X121.65Y-113.0
X121.65Y-116.5
X194.0Y-113.0
X194.0Y-116.5
X197.5Y-113.0
X197.5Y-116.5
X201.0Y-113.0
X201.0Y-116.5
X204.5Y-113.0
X204.5Y-116.5
T4
X95.965Y-66.132
X95.965Y-69.532
X95.965Y-78.132
X95.965Y-81.532
X105.885Y-66.132
X105.885Y-69.532
X105.885Y-78.132
X105.885Y-81.532
X119.965Y-66.132
X119.965Y-69.532
X119.965Y-78.132
X119.965Y-81.532
X129.885Y-66.132
X129.885Y-69.532
X129.885Y-78.132
X129.885Y-81.532
X143.965Y-66.132
X143.965Y-69.532
X143.965Y-78.132
X143.965Y-81.532
X153.885Y-66.132
X153.885Y-69.532
X153.885Y-78.132
X153.885Y-81.532
X167.965Y-66.132
X167.965Y-69.532
X167.965Y-78.132
X167.965Y-81.532
X177.885Y-66.132
X177.885Y-69.532
X177.885Y-78.132
X177.885Y-81.532
X191.965Y-66.132
X191.965Y-69.532
X191.965Y-78.132
X191.965Y-81.532
X201.885Y-66.132
X201.885Y-69.532
X201.885Y-78.132
X201.885Y-81.532
X215.965Y-66.132
X215.965Y-69.532
X215.965Y-78.132
X215.965Y-81.532
X225.885Y-66.132
X225.885Y-69.532
X225.885Y-78.132
X225.885Y-81.532
M30
