G04 #@! TF.GenerationSoftware,KiCad,Pcbnew,9.0.5*
G04 #@! TF.CreationDate,2025-10-14T13:45:57-04:00*
G04 #@! TF.ProjectId,Power Distribution 2024,506f7765-7220-4446-9973-747269627574,rev?*
G04 #@! TF.SameCoordinates,Original*
G04 #@! TF.FileFunction,Soldermask,Top*
G04 #@! TF.FilePolarity,Negative*
%FSLAX46Y46*%
G04 Gerber Fmt 4.6, Leading zero omitted, Abs format (unit mm)*
G04 Created by KiCad (PCBNEW 9.0.5) date 2025-10-14 13:45:57*
%MOMM*%
%LPD*%
G01*
G04 APERTURE LIST*
G04 Aperture macros list*
%AMRoundRect*
0 Rectangle with rounded corners*
0 $1 Rounding radius*
0 $2 $3 $4 $5 $6 $7 $8 $9 X,Y pos of 4 corners*
0 Add a 4 corners polygon primitive as box body*
4,1,4,$2,$3,$4,$5,$6,$7,$8,$9,$2,$3,0*
0 Add four circle primitives for the rounded corners*
1,1,$1+$1,$2,$3*
1,1,$1+$1,$4,$5*
1,1,$1+$1,$6,$7*
1,1,$1+$1,$8,$9*
0 Add four rect primitives between the rounded corners*
20,1,$1+$1,$2,$3,$4,$5,0*
20,1,$1+$1,$4,$5,$6,$7,0*
20,1,$1+$1,$6,$7,$8,$9,0*
20,1,$1+$1,$8,$9,$2,$3,0*%
G04 Aperture macros list end*
%ADD10R,0.650000X1.750000*%
%ADD11C,2.400000*%
%ADD12RoundRect,0.200000X0.200000X0.275000X-0.200000X0.275000X-0.200000X-0.275000X0.200000X-0.275000X0*%
%ADD13R,1.150000X0.700000*%
%ADD14R,1.500000X4.700000*%
%ADD15R,3.100000X4.200000*%
%ADD16RoundRect,0.200000X-0.275000X0.200000X-0.275000X-0.200000X0.275000X-0.200000X0.275000X0.200000X0*%
%ADD17RoundRect,0.200000X0.275000X-0.200000X0.275000X0.200000X-0.275000X0.200000X-0.275000X-0.200000X0*%
%ADD18C,4.038600*%
%ADD19C,2.057400*%
G04 APERTURE END LIST*
D10*
X85767500Y-60050000D03*
X88307500Y-60050000D03*
X88307500Y-53900000D03*
X85767500Y-53900000D03*
D11*
X143965000Y-69532000D03*
X143965000Y-66132000D03*
X153885000Y-69532000D03*
X153885000Y-66132000D03*
X119965000Y-69532000D03*
X119965000Y-66132000D03*
X129885000Y-69532000D03*
X129885000Y-66132000D03*
D10*
X159380000Y-57125000D03*
X161920000Y-57125000D03*
X161920000Y-50975000D03*
X159380000Y-50975000D03*
D11*
X95965000Y-69532000D03*
X95965000Y-66132000D03*
X105885000Y-69532000D03*
X105885000Y-66132000D03*
D12*
X90725000Y-88370000D03*
X89075000Y-88370000D03*
X158312500Y-100800000D03*
X156662500Y-100800000D03*
X88037500Y-50475000D03*
X86387500Y-50475000D03*
X185125000Y-47730000D03*
X183475000Y-47730000D03*
D13*
X97337500Y-53895000D03*
X97337500Y-55165000D03*
X97337500Y-56435000D03*
X97337500Y-57705000D03*
D14*
X102812500Y-55800000D03*
D15*
X100512500Y-55800000D03*
D16*
X119150000Y-100075000D03*
X119150000Y-101725000D03*
D11*
X143965000Y-81532000D03*
X143965000Y-78132000D03*
X153885000Y-81532000D03*
X153885000Y-78132000D03*
D12*
X161475000Y-47550000D03*
X159825000Y-47550000D03*
D11*
X215965000Y-81532000D03*
X215965000Y-78132000D03*
X225885000Y-81532000D03*
X225885000Y-78132000D03*
D13*
X96750000Y-91890000D03*
X96750000Y-93160000D03*
X96750000Y-94430000D03*
X96750000Y-95700000D03*
D14*
X102225000Y-93795000D03*
D15*
X99925000Y-93795000D03*
D11*
X167965000Y-69532000D03*
X167965000Y-66132000D03*
X177885000Y-69532000D03*
X177885000Y-66132000D03*
X191965000Y-81532000D03*
X191965000Y-78132000D03*
X201885000Y-81532000D03*
X201885000Y-78132000D03*
X191965000Y-69532000D03*
X191965000Y-66132000D03*
X201885000Y-69532000D03*
X201885000Y-66132000D03*
D10*
X112180000Y-57965000D03*
X114720000Y-57965000D03*
X114720000Y-51815000D03*
X112180000Y-51815000D03*
X116605000Y-97580000D03*
X119145000Y-97580000D03*
X119145000Y-91430000D03*
X116605000Y-91430000D03*
D13*
X121850000Y-51810000D03*
X121850000Y-53080000D03*
X121850000Y-54350000D03*
X121850000Y-55620000D03*
D14*
X127325000Y-53715000D03*
D15*
X125025000Y-53715000D03*
D12*
X164612500Y-88400000D03*
X162962500Y-88400000D03*
D16*
X161925000Y-61225000D03*
X161925000Y-62875000D03*
D12*
X118625000Y-87905000D03*
X116975000Y-87905000D03*
D16*
X88300000Y-62375000D03*
X88300000Y-64025000D03*
D13*
X174625000Y-54955000D03*
X174625000Y-53685000D03*
X174625000Y-52415000D03*
X174625000Y-51145000D03*
D14*
X169150000Y-53050000D03*
D15*
X171450000Y-53050000D03*
D16*
X114750000Y-60375000D03*
X114750000Y-62025000D03*
D12*
X114225000Y-48365000D03*
X112575000Y-48365000D03*
D10*
X162517500Y-98475000D03*
X165057500Y-98475000D03*
X165057500Y-92325000D03*
X162517500Y-92325000D03*
D17*
X189425000Y-55180000D03*
X189425000Y-53530000D03*
D13*
X173775000Y-95695000D03*
X173775000Y-96965000D03*
X173775000Y-98235000D03*
X173775000Y-99505000D03*
D14*
X179250000Y-97600000D03*
D15*
X176950000Y-97600000D03*
D13*
X202425000Y-54855000D03*
X202425000Y-53585000D03*
X202425000Y-52315000D03*
X202425000Y-51045000D03*
D14*
X196950000Y-52950000D03*
D15*
X199250000Y-52950000D03*
D18*
X186999999Y-115460001D03*
X211500001Y-115460001D03*
D19*
X194000000Y-113000000D03*
X197500001Y-113000000D03*
X201000001Y-113000000D03*
X204500002Y-113000000D03*
X194000000Y-116500002D03*
X197500001Y-116500002D03*
X201000001Y-116500002D03*
X204500002Y-116500002D03*
D11*
X215965000Y-69532000D03*
X215965000Y-66132000D03*
X225885000Y-69532000D03*
X225885000Y-66132000D03*
D17*
X113400000Y-99225000D03*
X113400000Y-97575000D03*
D12*
X138462500Y-48200000D03*
X136812500Y-48200000D03*
X90725000Y-101995000D03*
X89075000Y-101995000D03*
D11*
X167965000Y-81532000D03*
X167965000Y-78132000D03*
X177885000Y-81532000D03*
X177885000Y-78132000D03*
X119965000Y-81532000D03*
X119965000Y-78132000D03*
X129885000Y-81532000D03*
X129885000Y-78132000D03*
X95965000Y-81532000D03*
X95965000Y-78132000D03*
X105885000Y-81532000D03*
X105885000Y-78132000D03*
D10*
X136317500Y-57925000D03*
X138857500Y-57925000D03*
X138857500Y-51775000D03*
X136317500Y-51775000D03*
D16*
X179425000Y-53530000D03*
X179425000Y-55180000D03*
X138850000Y-60375000D03*
X138850000Y-62025000D03*
D10*
X88505000Y-98145000D03*
X91045000Y-98145000D03*
X91045000Y-91995000D03*
X88505000Y-91995000D03*
D18*
X83149999Y-115460001D03*
X128650010Y-115460001D03*
D19*
X90150000Y-113000000D03*
X93650001Y-113000000D03*
X97150002Y-113000000D03*
X100650005Y-113000000D03*
X104150005Y-113000000D03*
X107650006Y-113000000D03*
X111150007Y-113000000D03*
X114650007Y-113000000D03*
X118150008Y-113000000D03*
X121650009Y-113000000D03*
X90150000Y-116500002D03*
X93650001Y-116500002D03*
X97150002Y-116500002D03*
X100650005Y-116500002D03*
X104150005Y-116500002D03*
X107650006Y-116500002D03*
X111150007Y-116500002D03*
X114650007Y-116500002D03*
X118150008Y-116500002D03*
X121650009Y-116500002D03*
D13*
X145437500Y-51795000D03*
X145437500Y-53065000D03*
X145437500Y-54335000D03*
X145437500Y-55605000D03*
D14*
X150912500Y-53700000D03*
D15*
X148612500Y-53700000D03*
D13*
X125375000Y-91195000D03*
X125375000Y-92465000D03*
X125375000Y-93735000D03*
X125375000Y-95005000D03*
D14*
X130850000Y-93100000D03*
D15*
X128550000Y-93100000D03*
D10*
X183155000Y-57430000D03*
X185695000Y-57430000D03*
X185695000Y-51280000D03*
X183155000Y-51280000D03*
M02*
