%TF.GenerationSoftware,KiCad,Pcbnew,10.0.5*%
%TF.CreationDate,2026-10-01T17:42:10-04:00*%
%TF.ProjectId,DigitalDashDisplay2027,44696769-7461-46c4-9461-736844697370,rev?*%
%TF.SameCoordinates,Original*%
%TF.FileFunction,Soldermask,Bot*%
%TF.FilePolarity,Negative*%
%FSLAX46Y46*%
G04 Gerber Fmt 4.6, Leading zero omitted, Abs format (unit mm)*
G04 Created by KiCad (PCBNEW 10.0.5) date 2026-10-01 17:42:10*
%MOMM*%
%LPD*%
G01*
G04 APERTURE LIST*
G04 Aperture macros list*
%AMRoundRect*
0 Rectangle with rounded corners*
0 $1 Rounding radius*
0 $2 $3 $4 $5 $6 $7 $8 $9 X,Y pos of 4 corners*
0 Add a 4 corners polygon primitive as box body*
4,1,4,$2,$3,$4,$5,$6,$7,$8,$9,$2,$3,0*
0 Add four circle primitives for the rounded corners*
1,1,$1+$1,$2,$3*
1,1,$1+$1,$4,$5*
1,1,$1+$1,$6,$7*
1,1,$1+$1,$8,$9*
0 Add four rect primitives between the rounded corners*
20,1,$1+$1,$2,$3,$4,$5,0*
20,1,$1+$1,$4,$5,$6,$7,0*
20,1,$1+$1,$6,$7,$8,$9,0*
20,1,$1+$1,$8,$9,$2,$3,0*%
G04 Aperture macros list end*
%ADD10RoundRect,0.050800X0.889000X0.889000X-0.889000X0.889000X-0.889000X-0.889000X0.889000X-0.889000X0*%
%ADD11C,1.879600*%
%ADD12C,1.500000*%
%ADD13O,1.500000X1.500000*%
%ADD14C,1.524000*%
%ADD15C,1.600200*%
%ADD16C,1.404000*%
%ADD17C,1.304000*%
%ADD18C,0.804000*%
%ADD19R,1.000000X0.700000*%
%ADD20R,1.460500X0.558800*%
%ADD21R,0.600000X1.250000*%
%ADD22RoundRect,0.250000X-0.650000X0.412500X-0.650000X-0.412500X0.650000X-0.412500X0.650000X0.412500X0*%
%ADD23RoundRect,0.200000X-0.275000X0.200000X-0.275000X-0.200000X0.275000X-0.200000X0.275000X0.200000X0*%
%ADD24RoundRect,0.250000X0.312500X0.625000X-0.312500X0.625000X-0.312500X-0.625000X0.312500X-0.625000X0*%
%ADD25RoundRect,0.237500X-0.237500X0.250000X-0.237500X-0.250000X0.237500X-0.250000X0.237500X0.250000X0*%
%ADD26RoundRect,0.200000X0.200000X0.275000X-0.200000X0.275000X-0.200000X-0.275000X0.200000X-0.275000X0*%
%ADD27RoundRect,0.250000X-1.100000X0.325000X-1.100000X-0.325000X1.100000X-0.325000X1.100000X0.325000X0*%
%ADD28RoundRect,0.225000X0.250000X-0.225000X0.250000X0.225000X-0.250000X0.225000X-0.250000X-0.225000X0*%
%ADD29RoundRect,0.237500X-0.250000X-0.237500X0.250000X-0.237500X0.250000X0.237500X-0.250000X0.237500X0*%
%ADD30RoundRect,0.135000X0.185000X-0.135000X0.185000X0.135000X-0.185000X0.135000X-0.185000X-0.135000X0*%
%ADD31R,2.650000X3.100000*%
%ADD32R,1.050000X0.600000*%
G04 APERTURE END LIST*
D10*
%TO.C,U3*%
X193590000Y-99051000D03*
D11*
X191050000Y-99051000D03*
X188510000Y-99051000D03*
X185970000Y-99051000D03*
X183430000Y-99051000D03*
X180890000Y-99051000D03*
X178350000Y-99051000D03*
X175810000Y-99051000D03*
%TD*%
D12*
%TO.C,ILI1*%
X114500000Y-79160000D03*
D13*
X114500000Y-81700000D03*
X114500000Y-84240000D03*
X114500000Y-86780000D03*
X114500000Y-89320000D03*
X114500000Y-91860000D03*
X114500000Y-94400000D03*
X114500000Y-96940000D03*
X114500000Y-99480000D03*
X114500000Y-102020000D03*
X114500000Y-104560000D03*
X114500000Y-107100000D03*
X114500000Y-109640000D03*
X114500000Y-112180000D03*
%TD*%
D14*
%TO.C,U4*%
X167750000Y-80300000D03*
X167750000Y-82840000D03*
X167750000Y-85380000D03*
X167750000Y-87920000D03*
X167750000Y-90460000D03*
X167750000Y-93000000D03*
X167750000Y-95540000D03*
X167750000Y-98080000D03*
X167750000Y-100620000D03*
X167750000Y-103160000D03*
X167750000Y-105700000D03*
X167750000Y-108240000D03*
X167750000Y-110780000D03*
X167750000Y-113320000D03*
X167750000Y-115860000D03*
X142350000Y-115860000D03*
X142350000Y-113320000D03*
X142350000Y-110780000D03*
X142350000Y-108240000D03*
X142350000Y-105700000D03*
X142350000Y-103160000D03*
X142350000Y-100620000D03*
X142350000Y-98080000D03*
X142350000Y-95540000D03*
X142350000Y-93000000D03*
X142350000Y-90460000D03*
X142350000Y-87920000D03*
X142350000Y-85380000D03*
X142350000Y-82840000D03*
X142350000Y-80300000D03*
%TD*%
D15*
%TO.C,U2*%
X178500000Y-117800000D03*
X181000000Y-117800000D03*
X183500000Y-117800000D03*
X186000000Y-117800000D03*
X188500000Y-117800000D03*
X191000000Y-117800000D03*
X193500000Y-117800000D03*
X196000000Y-117800000D03*
%TD*%
D16*
%TO.C,U1*%
X122500000Y-79150000D03*
X122500000Y-81690000D03*
X122500000Y-84230000D03*
X122500000Y-86770000D03*
X122500000Y-89310000D03*
X122500000Y-91850000D03*
X122500000Y-94390000D03*
X122500000Y-96930000D03*
X122500000Y-99470000D03*
X122500000Y-102010000D03*
X122500000Y-104550000D03*
X122500000Y-107090000D03*
X122500000Y-109630000D03*
X122500000Y-112170000D03*
X125040000Y-112170000D03*
X127580000Y-112170000D03*
X130120000Y-112170000D03*
X132660000Y-112170000D03*
X135200000Y-112170000D03*
X137740000Y-112170000D03*
X137740000Y-109630000D03*
X137740000Y-107090000D03*
X137740000Y-104550000D03*
X137740000Y-102010000D03*
X137740000Y-99470000D03*
X137740000Y-96930000D03*
X137740000Y-94390000D03*
X137740000Y-91850000D03*
X137740000Y-89310000D03*
X137740000Y-86770000D03*
X137740000Y-84230000D03*
X137740000Y-81690000D03*
X137740000Y-79150000D03*
X135200000Y-81690000D03*
D17*
X135200000Y-107090000D03*
X135200000Y-104550000D03*
X132660000Y-107090000D03*
X132660000Y-104550000D03*
X130120000Y-107090000D03*
X130120000Y-104550000D03*
X127580000Y-107090000D03*
X127580000Y-104550000D03*
X125040000Y-107090000D03*
X125040000Y-104550000D03*
D18*
X133620000Y-86288400D03*
X132620000Y-86288400D03*
X131620000Y-86288400D03*
X130620000Y-86288400D03*
X129620000Y-86288400D03*
X128620000Y-86288400D03*
X127620000Y-86288400D03*
X126620000Y-86288400D03*
D17*
X131390000Y-80420000D03*
X128850000Y-80420000D03*
%TD*%
D19*
%TO.C,T2*%
X184750000Y-107000000D03*
X184750000Y-107950000D03*
X184750000Y-108900000D03*
X182350000Y-108900000D03*
X182350000Y-107000000D03*
%TD*%
D20*
%TO.C,U5*%
X154325850Y-119805000D03*
X154325850Y-118535000D03*
X154325850Y-117265000D03*
X154325850Y-115995000D03*
X159774150Y-115995000D03*
X159774150Y-117265000D03*
X159774150Y-118535000D03*
X159774150Y-119805000D03*
%TD*%
D21*
%TO.C,IC2*%
X192200000Y-108600000D03*
X193150000Y-108600000D03*
X194100000Y-108600000D03*
X194100000Y-111100000D03*
X193150000Y-111100000D03*
X192200000Y-111100000D03*
%TD*%
D22*
%TO.C,C2*%
X173200000Y-114687500D03*
X173200000Y-117812500D03*
%TD*%
D23*
%TO.C,R2*%
X197800000Y-110325000D03*
X197800000Y-111975000D03*
%TD*%
D24*
%TO.C,R11*%
X187462500Y-113750000D03*
X184537500Y-113750000D03*
%TD*%
D25*
%TO.C,R10*%
X175800000Y-93937500D03*
X175800000Y-95762500D03*
%TD*%
D26*
%TO.C,R1*%
X198325000Y-108250000D03*
X196675000Y-108250000D03*
%TD*%
D27*
%TO.C,C4*%
X205700000Y-109075000D03*
X205700000Y-112025000D03*
%TD*%
%TO.C,C3*%
X201000000Y-109075000D03*
X201000000Y-112025000D03*
%TD*%
D28*
%TO.C,C1*%
X190200000Y-111775000D03*
X190200000Y-110225000D03*
%TD*%
D29*
%TO.C,R9*%
X117587500Y-112200000D03*
X119412500Y-112200000D03*
%TD*%
D30*
%TO.C,R6*%
X187000000Y-108710000D03*
X187000000Y-107690000D03*
%TD*%
D31*
%TO.C,L1*%
X199850000Y-103650000D03*
X205550000Y-103650000D03*
%TD*%
D23*
%TO.C,R3*%
X162250000Y-118825000D03*
X162250000Y-120475000D03*
%TD*%
D30*
%TO.C,R8*%
X182400000Y-111510000D03*
X182400000Y-110490000D03*
%TD*%
%TO.C,R5*%
X179550000Y-108910000D03*
X179550000Y-107890000D03*
%TD*%
D32*
%TO.C,T1*%
X168800000Y-121200000D03*
X168800000Y-120200000D03*
X171850000Y-120200000D03*
X171850000Y-121200000D03*
%TD*%
D30*
%TO.C,R7*%
X184750000Y-111560000D03*
X184750000Y-110540000D03*
%TD*%
D23*
%TO.C,R4*%
X162250000Y-115475000D03*
X162250000Y-117125000D03*
%TD*%
M02*
