%TF.GenerationSoftware,KiCad,Pcbnew,10.0.5*%
%TF.CreationDate,2026-10-01T17:42:11-04:00*%
%TF.ProjectId,DigitalDashDisplay2027,44696769-7461-46c4-9461-736844697370,rev?*%
%TF.SameCoordinates,Original*%
%TF.FileFunction,AssemblyDrawing,Bot*%
%FSLAX46Y46*%
G04 Gerber Fmt 4.6, Leading zero omitted, Abs format (unit mm)*
G04 Created by KiCad (PCBNEW 10.0.5) date 2026-10-01 17:42:11*
%MOMM*%
%LPD*%
G01*
G04 APERTURE LIST*
%ADD10C,0.150000*%
%ADD11C,0.254000*%
%ADD12C,0.120000*%
%ADD13C,0.060000*%
%ADD14C,0.040000*%
%ADD15C,0.025400*%
%ADD16C,0.100000*%
G04 APERTURE END LIST*
D10*
X183676133Y-109161904D02*
X183723752Y-109114285D01*
X183723752Y-109114285D02*
X183771371Y-109019047D01*
X183771371Y-109019047D02*
X183676133Y-108828571D01*
X183676133Y-108828571D02*
X183723752Y-108733333D01*
X183723752Y-108733333D02*
X183771371Y-108685714D01*
X182795180Y-109661904D02*
X182795180Y-109090476D01*
X181795180Y-109376190D02*
X182795180Y-109376190D01*
X182699942Y-108804761D02*
X182747561Y-108757142D01*
X182747561Y-108757142D02*
X182795180Y-108661904D01*
X182795180Y-108661904D02*
X182795180Y-108423809D01*
X182795180Y-108423809D02*
X182747561Y-108328571D01*
X182747561Y-108328571D02*
X182699942Y-108280952D01*
X182699942Y-108280952D02*
X182604704Y-108233333D01*
X182604704Y-108233333D02*
X182509466Y-108233333D01*
X182509466Y-108233333D02*
X182366609Y-108280952D01*
X182366609Y-108280952D02*
X181795180Y-108852380D01*
X181795180Y-108852380D02*
X181795180Y-108233333D01*
X150978571Y-118445180D02*
X151549999Y-118445180D01*
X151264285Y-117445180D02*
X151264285Y-118445180D01*
X152454761Y-117540419D02*
X152407142Y-117492800D01*
X152407142Y-117492800D02*
X152264285Y-117445180D01*
X152264285Y-117445180D02*
X152169047Y-117445180D01*
X152169047Y-117445180D02*
X152026190Y-117492800D01*
X152026190Y-117492800D02*
X151930952Y-117588038D01*
X151930952Y-117588038D02*
X151883333Y-117683276D01*
X151883333Y-117683276D02*
X151835714Y-117873752D01*
X151835714Y-117873752D02*
X151835714Y-118016609D01*
X151835714Y-118016609D02*
X151883333Y-118207085D01*
X151883333Y-118207085D02*
X151930952Y-118302323D01*
X151930952Y-118302323D02*
X152026190Y-118397561D01*
X152026190Y-118397561D02*
X152169047Y-118445180D01*
X152169047Y-118445180D02*
X152264285Y-118445180D01*
X152264285Y-118445180D02*
X152407142Y-118397561D01*
X152407142Y-118397561D02*
X152454761Y-118349942D01*
X152835714Y-117730895D02*
X153311904Y-117730895D01*
X152740476Y-117445180D02*
X153073809Y-118445180D01*
X153073809Y-118445180D02*
X153407142Y-117445180D01*
X153740476Y-117445180D02*
X153740476Y-118445180D01*
X153740476Y-118445180D02*
X154311904Y-117445180D01*
X154311904Y-117445180D02*
X154311904Y-118445180D01*
X155311904Y-117445180D02*
X154740476Y-117445180D01*
X155026190Y-117445180D02*
X155026190Y-118445180D01*
X155026190Y-118445180D02*
X154930952Y-118302323D01*
X154930952Y-118302323D02*
X154835714Y-118207085D01*
X154835714Y-118207085D02*
X154740476Y-118159466D01*
X155930952Y-118445180D02*
X156026190Y-118445180D01*
X156026190Y-118445180D02*
X156121428Y-118397561D01*
X156121428Y-118397561D02*
X156169047Y-118349942D01*
X156169047Y-118349942D02*
X156216666Y-118254704D01*
X156216666Y-118254704D02*
X156264285Y-118064228D01*
X156264285Y-118064228D02*
X156264285Y-117826133D01*
X156264285Y-117826133D02*
X156216666Y-117635657D01*
X156216666Y-117635657D02*
X156169047Y-117540419D01*
X156169047Y-117540419D02*
X156121428Y-117492800D01*
X156121428Y-117492800D02*
X156026190Y-117445180D01*
X156026190Y-117445180D02*
X155930952Y-117445180D01*
X155930952Y-117445180D02*
X155835714Y-117492800D01*
X155835714Y-117492800D02*
X155788095Y-117540419D01*
X155788095Y-117540419D02*
X155740476Y-117635657D01*
X155740476Y-117635657D02*
X155692857Y-117826133D01*
X155692857Y-117826133D02*
X155692857Y-118064228D01*
X155692857Y-118064228D02*
X155740476Y-118254704D01*
X155740476Y-118254704D02*
X155788095Y-118349942D01*
X155788095Y-118349942D02*
X155835714Y-118397561D01*
X155835714Y-118397561D02*
X155930952Y-118445180D01*
X157169047Y-118445180D02*
X156692857Y-118445180D01*
X156692857Y-118445180D02*
X156645238Y-117968990D01*
X156645238Y-117968990D02*
X156692857Y-118016609D01*
X156692857Y-118016609D02*
X156788095Y-118064228D01*
X156788095Y-118064228D02*
X157026190Y-118064228D01*
X157026190Y-118064228D02*
X157121428Y-118016609D01*
X157121428Y-118016609D02*
X157169047Y-117968990D01*
X157169047Y-117968990D02*
X157216666Y-117873752D01*
X157216666Y-117873752D02*
X157216666Y-117635657D01*
X157216666Y-117635657D02*
X157169047Y-117540419D01*
X157169047Y-117540419D02*
X157121428Y-117492800D01*
X157121428Y-117492800D02*
X157026190Y-117445180D01*
X157026190Y-117445180D02*
X156788095Y-117445180D01*
X156788095Y-117445180D02*
X156692857Y-117492800D01*
X156692857Y-117492800D02*
X156645238Y-117540419D01*
X158169047Y-117445180D02*
X157597619Y-117445180D01*
X157883333Y-117445180D02*
X157883333Y-118445180D01*
X157883333Y-118445180D02*
X157788095Y-118302323D01*
X157788095Y-118302323D02*
X157692857Y-118207085D01*
X157692857Y-118207085D02*
X157597619Y-118159466D01*
X158454762Y-118445180D02*
X158788095Y-117445180D01*
X158788095Y-117445180D02*
X159121428Y-118445180D01*
X159454762Y-117445180D02*
X159454762Y-118445180D01*
X159454762Y-118445180D02*
X159692857Y-118445180D01*
X159692857Y-118445180D02*
X159835714Y-118397561D01*
X159835714Y-118397561D02*
X159930952Y-118302323D01*
X159930952Y-118302323D02*
X159978571Y-118207085D01*
X159978571Y-118207085D02*
X160026190Y-118016609D01*
X160026190Y-118016609D02*
X160026190Y-117873752D01*
X160026190Y-117873752D02*
X159978571Y-117683276D01*
X159978571Y-117683276D02*
X159930952Y-117588038D01*
X159930952Y-117588038D02*
X159835714Y-117492800D01*
X159835714Y-117492800D02*
X159692857Y-117445180D01*
X159692857Y-117445180D02*
X159454762Y-117445180D01*
X161026190Y-117445180D02*
X160692857Y-117921371D01*
X160454762Y-117445180D02*
X160454762Y-118445180D01*
X160454762Y-118445180D02*
X160835714Y-118445180D01*
X160835714Y-118445180D02*
X160930952Y-118397561D01*
X160930952Y-118397561D02*
X160978571Y-118349942D01*
X160978571Y-118349942D02*
X161026190Y-118254704D01*
X161026190Y-118254704D02*
X161026190Y-118111847D01*
X161026190Y-118111847D02*
X160978571Y-118016609D01*
X160978571Y-118016609D02*
X160930952Y-117968990D01*
X160930952Y-117968990D02*
X160835714Y-117921371D01*
X160835714Y-117921371D02*
X160454762Y-117921371D01*
X162121428Y-117349942D02*
X162026190Y-117397561D01*
X162026190Y-117397561D02*
X161930952Y-117492800D01*
X161930952Y-117492800D02*
X161788095Y-117635657D01*
X161788095Y-117635657D02*
X161692857Y-117683276D01*
X161692857Y-117683276D02*
X161597619Y-117683276D01*
X161645238Y-117445180D02*
X161550000Y-117492800D01*
X161550000Y-117492800D02*
X161454762Y-117588038D01*
X161454762Y-117588038D02*
X161407143Y-117778514D01*
X161407143Y-117778514D02*
X161407143Y-118111847D01*
X161407143Y-118111847D02*
X161454762Y-118302323D01*
X161454762Y-118302323D02*
X161550000Y-118397561D01*
X161550000Y-118397561D02*
X161645238Y-118445180D01*
X161645238Y-118445180D02*
X161835714Y-118445180D01*
X161835714Y-118445180D02*
X161930952Y-118397561D01*
X161930952Y-118397561D02*
X162026190Y-118302323D01*
X162026190Y-118302323D02*
X162073809Y-118111847D01*
X162073809Y-118111847D02*
X162073809Y-117778514D01*
X162073809Y-117778514D02*
X162026190Y-117588038D01*
X162026190Y-117588038D02*
X161930952Y-117492800D01*
X161930952Y-117492800D02*
X161835714Y-117445180D01*
X161835714Y-117445180D02*
X161645238Y-117445180D01*
X163026190Y-117445180D02*
X162454762Y-117445180D01*
X162740476Y-117445180D02*
X162740476Y-118445180D01*
X162740476Y-118445180D02*
X162645238Y-118302323D01*
X162645238Y-118302323D02*
X162550000Y-118207085D01*
X162550000Y-118207085D02*
X162454762Y-118159466D01*
X155437100Y-120870880D02*
X155437100Y-120632785D01*
X155199005Y-120728023D02*
X155437100Y-120632785D01*
X155437100Y-120632785D02*
X155675195Y-120728023D01*
X155294243Y-120442309D02*
X155437100Y-120632785D01*
X155437100Y-120632785D02*
X155579957Y-120442309D01*
X155437099Y-119780519D02*
X155437099Y-120018614D01*
X155675194Y-119923376D02*
X155437099Y-120018614D01*
X155437099Y-120018614D02*
X155199004Y-119923376D01*
X155579956Y-120209090D02*
X155437099Y-120018614D01*
X155437099Y-120018614D02*
X155294242Y-120209090D01*
X156288095Y-118445180D02*
X156288095Y-117635657D01*
X156288095Y-117635657D02*
X156335714Y-117540419D01*
X156335714Y-117540419D02*
X156383333Y-117492800D01*
X156383333Y-117492800D02*
X156478571Y-117445180D01*
X156478571Y-117445180D02*
X156669047Y-117445180D01*
X156669047Y-117445180D02*
X156764285Y-117492800D01*
X156764285Y-117492800D02*
X156811904Y-117540419D01*
X156811904Y-117540419D02*
X156859523Y-117635657D01*
X156859523Y-117635657D02*
X156859523Y-118445180D01*
X157811904Y-118445180D02*
X157335714Y-118445180D01*
X157335714Y-118445180D02*
X157288095Y-117968990D01*
X157288095Y-117968990D02*
X157335714Y-118016609D01*
X157335714Y-118016609D02*
X157430952Y-118064228D01*
X157430952Y-118064228D02*
X157669047Y-118064228D01*
X157669047Y-118064228D02*
X157764285Y-118016609D01*
X157764285Y-118016609D02*
X157811904Y-117968990D01*
X157811904Y-117968990D02*
X157859523Y-117873752D01*
X157859523Y-117873752D02*
X157859523Y-117635657D01*
X157859523Y-117635657D02*
X157811904Y-117540419D01*
X157811904Y-117540419D02*
X157764285Y-117492800D01*
X157764285Y-117492800D02*
X157669047Y-117445180D01*
X157669047Y-117445180D02*
X157430952Y-117445180D01*
X157430952Y-117445180D02*
X157335714Y-117492800D01*
X157335714Y-117492800D02*
X157288095Y-117540419D01*
D11*
X193724318Y-108610237D02*
X192454318Y-108610237D01*
X193603365Y-109940714D02*
X193663842Y-109880238D01*
X193663842Y-109880238D02*
X193724318Y-109698809D01*
X193724318Y-109698809D02*
X193724318Y-109577857D01*
X193724318Y-109577857D02*
X193663842Y-109396428D01*
X193663842Y-109396428D02*
X193542889Y-109275476D01*
X193542889Y-109275476D02*
X193421937Y-109214999D01*
X193421937Y-109214999D02*
X193180032Y-109154523D01*
X193180032Y-109154523D02*
X192998603Y-109154523D01*
X192998603Y-109154523D02*
X192756699Y-109214999D01*
X192756699Y-109214999D02*
X192635746Y-109275476D01*
X192635746Y-109275476D02*
X192514794Y-109396428D01*
X192514794Y-109396428D02*
X192454318Y-109577857D01*
X192454318Y-109577857D02*
X192454318Y-109698809D01*
X192454318Y-109698809D02*
X192514794Y-109880238D01*
X192514794Y-109880238D02*
X192575270Y-109940714D01*
X192575270Y-110424523D02*
X192514794Y-110484999D01*
X192514794Y-110484999D02*
X192454318Y-110605952D01*
X192454318Y-110605952D02*
X192454318Y-110908333D01*
X192454318Y-110908333D02*
X192514794Y-111029285D01*
X192514794Y-111029285D02*
X192575270Y-111089761D01*
X192575270Y-111089761D02*
X192696222Y-111150238D01*
X192696222Y-111150238D02*
X192817175Y-111150238D01*
X192817175Y-111150238D02*
X192998603Y-111089761D01*
X192998603Y-111089761D02*
X193724318Y-110364047D01*
X193724318Y-110364047D02*
X193724318Y-111150238D01*
D10*
X175409580Y-107916666D02*
X175457200Y-107869047D01*
X175457200Y-107869047D02*
X175504819Y-107726190D01*
X175504819Y-107726190D02*
X175504819Y-107630952D01*
X175504819Y-107630952D02*
X175457200Y-107488095D01*
X175457200Y-107488095D02*
X175361961Y-107392857D01*
X175361961Y-107392857D02*
X175266723Y-107345238D01*
X175266723Y-107345238D02*
X175076247Y-107297619D01*
X175076247Y-107297619D02*
X174933390Y-107297619D01*
X174933390Y-107297619D02*
X174742914Y-107345238D01*
X174742914Y-107345238D02*
X174647676Y-107392857D01*
X174647676Y-107392857D02*
X174552438Y-107488095D01*
X174552438Y-107488095D02*
X174504819Y-107630952D01*
X174504819Y-107630952D02*
X174504819Y-107726190D01*
X174504819Y-107726190D02*
X174552438Y-107869047D01*
X174552438Y-107869047D02*
X174600057Y-107916666D01*
X174504819Y-108250000D02*
X174504819Y-108869047D01*
X174504819Y-108869047D02*
X174885771Y-108535714D01*
X174885771Y-108535714D02*
X174885771Y-108678571D01*
X174885771Y-108678571D02*
X174933390Y-108773809D01*
X174933390Y-108773809D02*
X174981009Y-108821428D01*
X174981009Y-108821428D02*
X175076247Y-108869047D01*
X175076247Y-108869047D02*
X175314342Y-108869047D01*
X175314342Y-108869047D02*
X175409580Y-108821428D01*
X175409580Y-108821428D02*
X175457200Y-108773809D01*
X175457200Y-108773809D02*
X175504819Y-108678571D01*
X175504819Y-108678571D02*
X175504819Y-108392857D01*
X175504819Y-108392857D02*
X175457200Y-108297619D01*
X175457200Y-108297619D02*
X175409580Y-108250000D01*
X174600057Y-109250000D02*
X174552438Y-109297619D01*
X174552438Y-109297619D02*
X174504819Y-109392857D01*
X174504819Y-109392857D02*
X174504819Y-109630952D01*
X174504819Y-109630952D02*
X174552438Y-109726190D01*
X174552438Y-109726190D02*
X174600057Y-109773809D01*
X174600057Y-109773809D02*
X174695295Y-109821428D01*
X174695295Y-109821428D02*
X174790533Y-109821428D01*
X174790533Y-109821428D02*
X174933390Y-109773809D01*
X174933390Y-109773809D02*
X175504819Y-109202381D01*
X175504819Y-109202381D02*
X175504819Y-109821428D01*
X175504819Y-110773809D02*
X175504819Y-110202381D01*
X175504819Y-110488095D02*
X174504819Y-110488095D01*
X174504819Y-110488095D02*
X174647676Y-110392857D01*
X174647676Y-110392857D02*
X174742914Y-110297619D01*
X174742914Y-110297619D02*
X174790533Y-110202381D01*
X174504819Y-111630952D02*
X174504819Y-111440476D01*
X174504819Y-111440476D02*
X174552438Y-111345238D01*
X174552438Y-111345238D02*
X174600057Y-111297619D01*
X174600057Y-111297619D02*
X174742914Y-111202381D01*
X174742914Y-111202381D02*
X174933390Y-111154762D01*
X174933390Y-111154762D02*
X175314342Y-111154762D01*
X175314342Y-111154762D02*
X175409580Y-111202381D01*
X175409580Y-111202381D02*
X175457200Y-111250000D01*
X175457200Y-111250000D02*
X175504819Y-111345238D01*
X175504819Y-111345238D02*
X175504819Y-111535714D01*
X175504819Y-111535714D02*
X175457200Y-111630952D01*
X175457200Y-111630952D02*
X175409580Y-111678571D01*
X175409580Y-111678571D02*
X175314342Y-111726190D01*
X175314342Y-111726190D02*
X175076247Y-111726190D01*
X175076247Y-111726190D02*
X174981009Y-111678571D01*
X174981009Y-111678571D02*
X174933390Y-111630952D01*
X174933390Y-111630952D02*
X174885771Y-111535714D01*
X174885771Y-111535714D02*
X174885771Y-111345238D01*
X174885771Y-111345238D02*
X174933390Y-111250000D01*
X174933390Y-111250000D02*
X174981009Y-111202381D01*
X174981009Y-111202381D02*
X175076247Y-111154762D01*
X174504819Y-112059524D02*
X175504819Y-112726190D01*
X174504819Y-112726190D02*
X175504819Y-112059524D01*
X174504819Y-113583333D02*
X174504819Y-113107143D01*
X174504819Y-113107143D02*
X174981009Y-113059524D01*
X174981009Y-113059524D02*
X174933390Y-113107143D01*
X174933390Y-113107143D02*
X174885771Y-113202381D01*
X174885771Y-113202381D02*
X174885771Y-113440476D01*
X174885771Y-113440476D02*
X174933390Y-113535714D01*
X174933390Y-113535714D02*
X174981009Y-113583333D01*
X174981009Y-113583333D02*
X175076247Y-113630952D01*
X175076247Y-113630952D02*
X175314342Y-113630952D01*
X175314342Y-113630952D02*
X175409580Y-113583333D01*
X175409580Y-113583333D02*
X175457200Y-113535714D01*
X175457200Y-113535714D02*
X175504819Y-113440476D01*
X175504819Y-113440476D02*
X175504819Y-113202381D01*
X175504819Y-113202381D02*
X175457200Y-113107143D01*
X175457200Y-113107143D02*
X175409580Y-113059524D01*
X175504819Y-114630952D02*
X175028628Y-114297619D01*
X175504819Y-114059524D02*
X174504819Y-114059524D01*
X174504819Y-114059524D02*
X174504819Y-114440476D01*
X174504819Y-114440476D02*
X174552438Y-114535714D01*
X174552438Y-114535714D02*
X174600057Y-114583333D01*
X174600057Y-114583333D02*
X174695295Y-114630952D01*
X174695295Y-114630952D02*
X174838152Y-114630952D01*
X174838152Y-114630952D02*
X174933390Y-114583333D01*
X174933390Y-114583333D02*
X174981009Y-114535714D01*
X174981009Y-114535714D02*
X175028628Y-114440476D01*
X175028628Y-114440476D02*
X175028628Y-114059524D01*
X175504819Y-115583333D02*
X175504819Y-115011905D01*
X175504819Y-115297619D02*
X174504819Y-115297619D01*
X174504819Y-115297619D02*
X174647676Y-115202381D01*
X174647676Y-115202381D02*
X174742914Y-115107143D01*
X174742914Y-115107143D02*
X174790533Y-115011905D01*
X174981009Y-116011905D02*
X174981009Y-116345238D01*
X175504819Y-116488095D02*
X175504819Y-116011905D01*
X175504819Y-116011905D02*
X174504819Y-116011905D01*
X174504819Y-116011905D02*
X174504819Y-116488095D01*
X174838152Y-117345238D02*
X175504819Y-117345238D01*
X174457200Y-117107143D02*
X175171485Y-116869048D01*
X175171485Y-116869048D02*
X175171485Y-117488095D01*
X174504819Y-117773810D02*
X174504819Y-118440476D01*
X174504819Y-118440476D02*
X175504819Y-118011905D01*
X174504819Y-119250000D02*
X174504819Y-119059524D01*
X174504819Y-119059524D02*
X174552438Y-118964286D01*
X174552438Y-118964286D02*
X174600057Y-118916667D01*
X174600057Y-118916667D02*
X174742914Y-118821429D01*
X174742914Y-118821429D02*
X174933390Y-118773810D01*
X174933390Y-118773810D02*
X175314342Y-118773810D01*
X175314342Y-118773810D02*
X175409580Y-118821429D01*
X175409580Y-118821429D02*
X175457200Y-118869048D01*
X175457200Y-118869048D02*
X175504819Y-118964286D01*
X175504819Y-118964286D02*
X175504819Y-119154762D01*
X175504819Y-119154762D02*
X175457200Y-119250000D01*
X175457200Y-119250000D02*
X175409580Y-119297619D01*
X175409580Y-119297619D02*
X175314342Y-119345238D01*
X175314342Y-119345238D02*
X175076247Y-119345238D01*
X175076247Y-119345238D02*
X174981009Y-119297619D01*
X174981009Y-119297619D02*
X174933390Y-119250000D01*
X174933390Y-119250000D02*
X174885771Y-119154762D01*
X174885771Y-119154762D02*
X174885771Y-118964286D01*
X174885771Y-118964286D02*
X174933390Y-118869048D01*
X174933390Y-118869048D02*
X174981009Y-118821429D01*
X174981009Y-118821429D02*
X175076247Y-118773810D01*
X175504819Y-119773810D02*
X174504819Y-119773810D01*
X174504819Y-119773810D02*
X175219104Y-120107143D01*
X175219104Y-120107143D02*
X174504819Y-120440476D01*
X174504819Y-120440476D02*
X175504819Y-120440476D01*
X175504819Y-121440476D02*
X175504819Y-120869048D01*
X175504819Y-121154762D02*
X174504819Y-121154762D01*
X174504819Y-121154762D02*
X174647676Y-121059524D01*
X174647676Y-121059524D02*
X174742914Y-120964286D01*
X174742914Y-120964286D02*
X174790533Y-120869048D01*
X174504819Y-122297619D02*
X174504819Y-122107143D01*
X174504819Y-122107143D02*
X174552438Y-122011905D01*
X174552438Y-122011905D02*
X174600057Y-121964286D01*
X174600057Y-121964286D02*
X174742914Y-121869048D01*
X174742914Y-121869048D02*
X174933390Y-121821429D01*
X174933390Y-121821429D02*
X175314342Y-121821429D01*
X175314342Y-121821429D02*
X175409580Y-121869048D01*
X175409580Y-121869048D02*
X175457200Y-121916667D01*
X175457200Y-121916667D02*
X175504819Y-122011905D01*
X175504819Y-122011905D02*
X175504819Y-122202381D01*
X175504819Y-122202381D02*
X175457200Y-122297619D01*
X175457200Y-122297619D02*
X175409580Y-122345238D01*
X175409580Y-122345238D02*
X175314342Y-122392857D01*
X175314342Y-122392857D02*
X175076247Y-122392857D01*
X175076247Y-122392857D02*
X174981009Y-122345238D01*
X174981009Y-122345238D02*
X174933390Y-122297619D01*
X174933390Y-122297619D02*
X174885771Y-122202381D01*
X174885771Y-122202381D02*
X174885771Y-122011905D01*
X174885771Y-122011905D02*
X174933390Y-121916667D01*
X174933390Y-121916667D02*
X174981009Y-121869048D01*
X174981009Y-121869048D02*
X175076247Y-121821429D01*
X174504819Y-123011905D02*
X174504819Y-123107143D01*
X174504819Y-123107143D02*
X174552438Y-123202381D01*
X174552438Y-123202381D02*
X174600057Y-123250000D01*
X174600057Y-123250000D02*
X174695295Y-123297619D01*
X174695295Y-123297619D02*
X174885771Y-123345238D01*
X174885771Y-123345238D02*
X175123866Y-123345238D01*
X175123866Y-123345238D02*
X175314342Y-123297619D01*
X175314342Y-123297619D02*
X175409580Y-123250000D01*
X175409580Y-123250000D02*
X175457200Y-123202381D01*
X175457200Y-123202381D02*
X175504819Y-123107143D01*
X175504819Y-123107143D02*
X175504819Y-123011905D01*
X175504819Y-123011905D02*
X175457200Y-122916667D01*
X175457200Y-122916667D02*
X175409580Y-122869048D01*
X175409580Y-122869048D02*
X175314342Y-122821429D01*
X175314342Y-122821429D02*
X175123866Y-122773810D01*
X175123866Y-122773810D02*
X174885771Y-122773810D01*
X174885771Y-122773810D02*
X174695295Y-122821429D01*
X174695295Y-122821429D02*
X174600057Y-122869048D01*
X174600057Y-122869048D02*
X174552438Y-122916667D01*
X174552438Y-122916667D02*
X174504819Y-123011905D01*
X175219104Y-123726191D02*
X175219104Y-124202381D01*
X175504819Y-123630953D02*
X174504819Y-123964286D01*
X174504819Y-123964286D02*
X175504819Y-124297619D01*
X175409580Y-125202381D02*
X175457200Y-125154762D01*
X175457200Y-125154762D02*
X175504819Y-125011905D01*
X175504819Y-125011905D02*
X175504819Y-124916667D01*
X175504819Y-124916667D02*
X175457200Y-124773810D01*
X175457200Y-124773810D02*
X175361961Y-124678572D01*
X175361961Y-124678572D02*
X175266723Y-124630953D01*
X175266723Y-124630953D02*
X175076247Y-124583334D01*
X175076247Y-124583334D02*
X174933390Y-124583334D01*
X174933390Y-124583334D02*
X174742914Y-124630953D01*
X174742914Y-124630953D02*
X174647676Y-124678572D01*
X174647676Y-124678572D02*
X174552438Y-124773810D01*
X174552438Y-124773810D02*
X174504819Y-124916667D01*
X174504819Y-124916667D02*
X174504819Y-125011905D01*
X174504819Y-125011905D02*
X174552438Y-125154762D01*
X174552438Y-125154762D02*
X174600057Y-125202381D01*
D12*
X173487664Y-116116667D02*
X173525760Y-116078571D01*
X173525760Y-116078571D02*
X173563855Y-115964286D01*
X173563855Y-115964286D02*
X173563855Y-115888095D01*
X173563855Y-115888095D02*
X173525760Y-115773809D01*
X173525760Y-115773809D02*
X173449569Y-115697619D01*
X173449569Y-115697619D02*
X173373379Y-115659524D01*
X173373379Y-115659524D02*
X173220998Y-115621428D01*
X173220998Y-115621428D02*
X173106712Y-115621428D01*
X173106712Y-115621428D02*
X172954331Y-115659524D01*
X172954331Y-115659524D02*
X172878140Y-115697619D01*
X172878140Y-115697619D02*
X172801950Y-115773809D01*
X172801950Y-115773809D02*
X172763855Y-115888095D01*
X172763855Y-115888095D02*
X172763855Y-115964286D01*
X172763855Y-115964286D02*
X172801950Y-116078571D01*
X172801950Y-116078571D02*
X172840045Y-116116667D01*
X172840045Y-116421428D02*
X172801950Y-116459524D01*
X172801950Y-116459524D02*
X172763855Y-116535714D01*
X172763855Y-116535714D02*
X172763855Y-116726190D01*
X172763855Y-116726190D02*
X172801950Y-116802381D01*
X172801950Y-116802381D02*
X172840045Y-116840476D01*
X172840045Y-116840476D02*
X172916236Y-116878571D01*
X172916236Y-116878571D02*
X172992426Y-116878571D01*
X172992426Y-116878571D02*
X173106712Y-116840476D01*
X173106712Y-116840476D02*
X173563855Y-116383333D01*
X173563855Y-116383333D02*
X173563855Y-116878571D01*
D10*
X199161009Y-105245238D02*
X199161009Y-105578571D01*
X199684819Y-105721428D02*
X199684819Y-105245238D01*
X199684819Y-105245238D02*
X198684819Y-105245238D01*
X198684819Y-105245238D02*
X198684819Y-105721428D01*
X199684819Y-106721428D02*
X199208628Y-106388095D01*
X199684819Y-106150000D02*
X198684819Y-106150000D01*
X198684819Y-106150000D02*
X198684819Y-106530952D01*
X198684819Y-106530952D02*
X198732438Y-106626190D01*
X198732438Y-106626190D02*
X198780057Y-106673809D01*
X198780057Y-106673809D02*
X198875295Y-106721428D01*
X198875295Y-106721428D02*
X199018152Y-106721428D01*
X199018152Y-106721428D02*
X199113390Y-106673809D01*
X199113390Y-106673809D02*
X199161009Y-106626190D01*
X199161009Y-106626190D02*
X199208628Y-106530952D01*
X199208628Y-106530952D02*
X199208628Y-106150000D01*
X198684819Y-107435714D02*
X199399104Y-107435714D01*
X199399104Y-107435714D02*
X199541961Y-107388095D01*
X199541961Y-107388095D02*
X199637200Y-107292857D01*
X199637200Y-107292857D02*
X199684819Y-107150000D01*
X199684819Y-107150000D02*
X199684819Y-107054762D01*
X199303866Y-107911905D02*
X199303866Y-108673810D01*
X198684819Y-109054762D02*
X198684819Y-109673809D01*
X198684819Y-109673809D02*
X199065771Y-109340476D01*
X199065771Y-109340476D02*
X199065771Y-109483333D01*
X199065771Y-109483333D02*
X199113390Y-109578571D01*
X199113390Y-109578571D02*
X199161009Y-109626190D01*
X199161009Y-109626190D02*
X199256247Y-109673809D01*
X199256247Y-109673809D02*
X199494342Y-109673809D01*
X199494342Y-109673809D02*
X199589580Y-109626190D01*
X199589580Y-109626190D02*
X199637200Y-109578571D01*
X199637200Y-109578571D02*
X199684819Y-109483333D01*
X199684819Y-109483333D02*
X199684819Y-109197619D01*
X199684819Y-109197619D02*
X199637200Y-109102381D01*
X199637200Y-109102381D02*
X199589580Y-109054762D01*
X199161009Y-110102381D02*
X199161009Y-110435714D01*
X199684819Y-110578571D02*
X199684819Y-110102381D01*
X199684819Y-110102381D02*
X198684819Y-110102381D01*
X198684819Y-110102381D02*
X198684819Y-110578571D01*
X199684819Y-111007143D02*
X198684819Y-111007143D01*
X199684819Y-111578571D02*
X199113390Y-111150000D01*
X198684819Y-111578571D02*
X199256247Y-111007143D01*
X199161009Y-112340476D02*
X199161009Y-112007143D01*
X199684819Y-112007143D02*
X198684819Y-112007143D01*
X198684819Y-112007143D02*
X198684819Y-112483333D01*
X199684819Y-113388095D02*
X199684819Y-112816667D01*
X199684819Y-113102381D02*
X198684819Y-113102381D01*
X198684819Y-113102381D02*
X198827676Y-113007143D01*
X198827676Y-113007143D02*
X198922914Y-112911905D01*
X198922914Y-112911905D02*
X198970533Y-112816667D01*
X198684819Y-113721429D02*
X198684819Y-114340476D01*
X198684819Y-114340476D02*
X199065771Y-114007143D01*
X199065771Y-114007143D02*
X199065771Y-114150000D01*
X199065771Y-114150000D02*
X199113390Y-114245238D01*
X199113390Y-114245238D02*
X199161009Y-114292857D01*
X199161009Y-114292857D02*
X199256247Y-114340476D01*
X199256247Y-114340476D02*
X199494342Y-114340476D01*
X199494342Y-114340476D02*
X199589580Y-114292857D01*
X199589580Y-114292857D02*
X199637200Y-114245238D01*
X199637200Y-114245238D02*
X199684819Y-114150000D01*
X199684819Y-114150000D02*
X199684819Y-113864286D01*
X199684819Y-113864286D02*
X199637200Y-113769048D01*
X199637200Y-113769048D02*
X199589580Y-113721429D01*
X198684819Y-114673810D02*
X198684819Y-115340476D01*
X198684819Y-115340476D02*
X199684819Y-114911905D01*
X198780057Y-115673810D02*
X198732438Y-115721429D01*
X198732438Y-115721429D02*
X198684819Y-115816667D01*
X198684819Y-115816667D02*
X198684819Y-116054762D01*
X198684819Y-116054762D02*
X198732438Y-116150000D01*
X198732438Y-116150000D02*
X198780057Y-116197619D01*
X198780057Y-116197619D02*
X198875295Y-116245238D01*
X198875295Y-116245238D02*
X198970533Y-116245238D01*
X198970533Y-116245238D02*
X199113390Y-116197619D01*
X199113390Y-116197619D02*
X199684819Y-115626191D01*
X199684819Y-115626191D02*
X199684819Y-116245238D01*
X198684819Y-116530953D02*
X199684819Y-116864286D01*
X199684819Y-116864286D02*
X198684819Y-117197619D01*
D13*
X197981927Y-111083333D02*
X197791451Y-110950000D01*
X197981927Y-110854762D02*
X197581927Y-110854762D01*
X197581927Y-110854762D02*
X197581927Y-111007143D01*
X197581927Y-111007143D02*
X197600975Y-111045238D01*
X197600975Y-111045238D02*
X197620022Y-111064285D01*
X197620022Y-111064285D02*
X197658118Y-111083333D01*
X197658118Y-111083333D02*
X197715260Y-111083333D01*
X197715260Y-111083333D02*
X197753356Y-111064285D01*
X197753356Y-111064285D02*
X197772403Y-111045238D01*
X197772403Y-111045238D02*
X197791451Y-111007143D01*
X197791451Y-111007143D02*
X197791451Y-110854762D01*
X197620022Y-111235714D02*
X197600975Y-111254762D01*
X197600975Y-111254762D02*
X197581927Y-111292857D01*
X197581927Y-111292857D02*
X197581927Y-111388095D01*
X197581927Y-111388095D02*
X197600975Y-111426190D01*
X197600975Y-111426190D02*
X197620022Y-111445238D01*
X197620022Y-111445238D02*
X197658118Y-111464285D01*
X197658118Y-111464285D02*
X197696213Y-111464285D01*
X197696213Y-111464285D02*
X197753356Y-111445238D01*
X197753356Y-111445238D02*
X197981927Y-111216666D01*
X197981927Y-111216666D02*
X197981927Y-111464285D01*
D10*
X191214286Y-115939580D02*
X191261905Y-115987200D01*
X191261905Y-115987200D02*
X191404762Y-116034819D01*
X191404762Y-116034819D02*
X191500000Y-116034819D01*
X191500000Y-116034819D02*
X191642857Y-115987200D01*
X191642857Y-115987200D02*
X191738095Y-115891961D01*
X191738095Y-115891961D02*
X191785714Y-115796723D01*
X191785714Y-115796723D02*
X191833333Y-115606247D01*
X191833333Y-115606247D02*
X191833333Y-115463390D01*
X191833333Y-115463390D02*
X191785714Y-115272914D01*
X191785714Y-115272914D02*
X191738095Y-115177676D01*
X191738095Y-115177676D02*
X191642857Y-115082438D01*
X191642857Y-115082438D02*
X191500000Y-115034819D01*
X191500000Y-115034819D02*
X191404762Y-115034819D01*
X191404762Y-115034819D02*
X191261905Y-115082438D01*
X191261905Y-115082438D02*
X191214286Y-115130057D01*
X190833333Y-115987200D02*
X190690476Y-116034819D01*
X190690476Y-116034819D02*
X190452381Y-116034819D01*
X190452381Y-116034819D02*
X190357143Y-115987200D01*
X190357143Y-115987200D02*
X190309524Y-115939580D01*
X190309524Y-115939580D02*
X190261905Y-115844342D01*
X190261905Y-115844342D02*
X190261905Y-115749104D01*
X190261905Y-115749104D02*
X190309524Y-115653866D01*
X190309524Y-115653866D02*
X190357143Y-115606247D01*
X190357143Y-115606247D02*
X190452381Y-115558628D01*
X190452381Y-115558628D02*
X190642857Y-115511009D01*
X190642857Y-115511009D02*
X190738095Y-115463390D01*
X190738095Y-115463390D02*
X190785714Y-115415771D01*
X190785714Y-115415771D02*
X190833333Y-115320533D01*
X190833333Y-115320533D02*
X190833333Y-115225295D01*
X190833333Y-115225295D02*
X190785714Y-115130057D01*
X190785714Y-115130057D02*
X190738095Y-115082438D01*
X190738095Y-115082438D02*
X190642857Y-115034819D01*
X190642857Y-115034819D02*
X190404762Y-115034819D01*
X190404762Y-115034819D02*
X190261905Y-115082438D01*
X189261905Y-116034819D02*
X189595238Y-115558628D01*
X189833333Y-116034819D02*
X189833333Y-115034819D01*
X189833333Y-115034819D02*
X189452381Y-115034819D01*
X189452381Y-115034819D02*
X189357143Y-115082438D01*
X189357143Y-115082438D02*
X189309524Y-115130057D01*
X189309524Y-115130057D02*
X189261905Y-115225295D01*
X189261905Y-115225295D02*
X189261905Y-115368152D01*
X189261905Y-115368152D02*
X189309524Y-115463390D01*
X189309524Y-115463390D02*
X189357143Y-115511009D01*
X189357143Y-115511009D02*
X189452381Y-115558628D01*
X189452381Y-115558628D02*
X189833333Y-115558628D01*
X188309524Y-116034819D02*
X188880952Y-116034819D01*
X188595238Y-116034819D02*
X188595238Y-115034819D01*
X188595238Y-115034819D02*
X188690476Y-115177676D01*
X188690476Y-115177676D02*
X188785714Y-115272914D01*
X188785714Y-115272914D02*
X188880952Y-115320533D01*
X187928571Y-115130057D02*
X187880952Y-115082438D01*
X187880952Y-115082438D02*
X187785714Y-115034819D01*
X187785714Y-115034819D02*
X187547619Y-115034819D01*
X187547619Y-115034819D02*
X187452381Y-115082438D01*
X187452381Y-115082438D02*
X187404762Y-115130057D01*
X187404762Y-115130057D02*
X187357143Y-115225295D01*
X187357143Y-115225295D02*
X187357143Y-115320533D01*
X187357143Y-115320533D02*
X187404762Y-115463390D01*
X187404762Y-115463390D02*
X187976190Y-116034819D01*
X187976190Y-116034819D02*
X187357143Y-116034819D01*
X186738095Y-115034819D02*
X186642857Y-115034819D01*
X186642857Y-115034819D02*
X186547619Y-115082438D01*
X186547619Y-115082438D02*
X186500000Y-115130057D01*
X186500000Y-115130057D02*
X186452381Y-115225295D01*
X186452381Y-115225295D02*
X186404762Y-115415771D01*
X186404762Y-115415771D02*
X186404762Y-115653866D01*
X186404762Y-115653866D02*
X186452381Y-115844342D01*
X186452381Y-115844342D02*
X186500000Y-115939580D01*
X186500000Y-115939580D02*
X186547619Y-115987200D01*
X186547619Y-115987200D02*
X186642857Y-116034819D01*
X186642857Y-116034819D02*
X186738095Y-116034819D01*
X186738095Y-116034819D02*
X186833333Y-115987200D01*
X186833333Y-115987200D02*
X186880952Y-115939580D01*
X186880952Y-115939580D02*
X186928571Y-115844342D01*
X186928571Y-115844342D02*
X186976190Y-115653866D01*
X186976190Y-115653866D02*
X186976190Y-115415771D01*
X186976190Y-115415771D02*
X186928571Y-115225295D01*
X186928571Y-115225295D02*
X186880952Y-115130057D01*
X186880952Y-115130057D02*
X186833333Y-115082438D01*
X186833333Y-115082438D02*
X186738095Y-115034819D01*
X185547619Y-115034819D02*
X185738095Y-115034819D01*
X185738095Y-115034819D02*
X185833333Y-115082438D01*
X185833333Y-115082438D02*
X185880952Y-115130057D01*
X185880952Y-115130057D02*
X185976190Y-115272914D01*
X185976190Y-115272914D02*
X186023809Y-115463390D01*
X186023809Y-115463390D02*
X186023809Y-115844342D01*
X186023809Y-115844342D02*
X185976190Y-115939580D01*
X185976190Y-115939580D02*
X185928571Y-115987200D01*
X185928571Y-115987200D02*
X185833333Y-116034819D01*
X185833333Y-116034819D02*
X185642857Y-116034819D01*
X185642857Y-116034819D02*
X185547619Y-115987200D01*
X185547619Y-115987200D02*
X185500000Y-115939580D01*
X185500000Y-115939580D02*
X185452381Y-115844342D01*
X185452381Y-115844342D02*
X185452381Y-115606247D01*
X185452381Y-115606247D02*
X185500000Y-115511009D01*
X185500000Y-115511009D02*
X185547619Y-115463390D01*
X185547619Y-115463390D02*
X185642857Y-115415771D01*
X185642857Y-115415771D02*
X185833333Y-115415771D01*
X185833333Y-115415771D02*
X185928571Y-115463390D01*
X185928571Y-115463390D02*
X185976190Y-115511009D01*
X185976190Y-115511009D02*
X186023809Y-115606247D01*
X184690476Y-115511009D02*
X185023809Y-115511009D01*
X185023809Y-116034819D02*
X185023809Y-115034819D01*
X185023809Y-115034819D02*
X184547619Y-115034819D01*
X184309523Y-115034819D02*
X183738095Y-115034819D01*
X184023809Y-116034819D02*
X184023809Y-115034819D01*
X182928571Y-115034819D02*
X183404761Y-115034819D01*
X183404761Y-115034819D02*
X183452380Y-115511009D01*
X183452380Y-115511009D02*
X183404761Y-115463390D01*
X183404761Y-115463390D02*
X183309523Y-115415771D01*
X183309523Y-115415771D02*
X183071428Y-115415771D01*
X183071428Y-115415771D02*
X182976190Y-115463390D01*
X182976190Y-115463390D02*
X182928571Y-115511009D01*
X182928571Y-115511009D02*
X182880952Y-115606247D01*
X182880952Y-115606247D02*
X182880952Y-115844342D01*
X182880952Y-115844342D02*
X182928571Y-115939580D01*
X182928571Y-115939580D02*
X182976190Y-115987200D01*
X182976190Y-115987200D02*
X183071428Y-116034819D01*
X183071428Y-116034819D02*
X183309523Y-116034819D01*
X183309523Y-116034819D02*
X183404761Y-115987200D01*
X183404761Y-115987200D02*
X183452380Y-115939580D01*
X182261904Y-115034819D02*
X182166666Y-115034819D01*
X182166666Y-115034819D02*
X182071428Y-115082438D01*
X182071428Y-115082438D02*
X182023809Y-115130057D01*
X182023809Y-115130057D02*
X181976190Y-115225295D01*
X181976190Y-115225295D02*
X181928571Y-115415771D01*
X181928571Y-115415771D02*
X181928571Y-115653866D01*
X181928571Y-115653866D02*
X181976190Y-115844342D01*
X181976190Y-115844342D02*
X182023809Y-115939580D01*
X182023809Y-115939580D02*
X182071428Y-115987200D01*
X182071428Y-115987200D02*
X182166666Y-116034819D01*
X182166666Y-116034819D02*
X182261904Y-116034819D01*
X182261904Y-116034819D02*
X182357142Y-115987200D01*
X182357142Y-115987200D02*
X182404761Y-115939580D01*
X182404761Y-115939580D02*
X182452380Y-115844342D01*
X182452380Y-115844342D02*
X182499999Y-115653866D01*
X182499999Y-115653866D02*
X182499999Y-115415771D01*
X182499999Y-115415771D02*
X182452380Y-115225295D01*
X182452380Y-115225295D02*
X182404761Y-115130057D01*
X182404761Y-115130057D02*
X182357142Y-115082438D01*
X182357142Y-115082438D02*
X182261904Y-115034819D01*
X181023809Y-116034819D02*
X181499999Y-116034819D01*
X181499999Y-116034819D02*
X181499999Y-115034819D01*
X180499999Y-115034819D02*
X180404761Y-115034819D01*
X180404761Y-115034819D02*
X180309523Y-115082438D01*
X180309523Y-115082438D02*
X180261904Y-115130057D01*
X180261904Y-115130057D02*
X180214285Y-115225295D01*
X180214285Y-115225295D02*
X180166666Y-115415771D01*
X180166666Y-115415771D02*
X180166666Y-115653866D01*
X180166666Y-115653866D02*
X180214285Y-115844342D01*
X180214285Y-115844342D02*
X180261904Y-115939580D01*
X180261904Y-115939580D02*
X180309523Y-115987200D01*
X180309523Y-115987200D02*
X180404761Y-116034819D01*
X180404761Y-116034819D02*
X180499999Y-116034819D01*
X180499999Y-116034819D02*
X180595237Y-115987200D01*
X180595237Y-115987200D02*
X180642856Y-115939580D01*
X180642856Y-115939580D02*
X180690475Y-115844342D01*
X180690475Y-115844342D02*
X180738094Y-115653866D01*
X180738094Y-115653866D02*
X180738094Y-115415771D01*
X180738094Y-115415771D02*
X180690475Y-115225295D01*
X180690475Y-115225295D02*
X180642856Y-115130057D01*
X180642856Y-115130057D02*
X180595237Y-115082438D01*
X180595237Y-115082438D02*
X180499999Y-115034819D01*
D12*
X186514285Y-114113855D02*
X186780952Y-113732902D01*
X186971428Y-114113855D02*
X186971428Y-113313855D01*
X186971428Y-113313855D02*
X186666666Y-113313855D01*
X186666666Y-113313855D02*
X186590476Y-113351950D01*
X186590476Y-113351950D02*
X186552381Y-113390045D01*
X186552381Y-113390045D02*
X186514285Y-113466236D01*
X186514285Y-113466236D02*
X186514285Y-113580521D01*
X186514285Y-113580521D02*
X186552381Y-113656712D01*
X186552381Y-113656712D02*
X186590476Y-113694807D01*
X186590476Y-113694807D02*
X186666666Y-113732902D01*
X186666666Y-113732902D02*
X186971428Y-113732902D01*
X185752381Y-114113855D02*
X186209524Y-114113855D01*
X185980952Y-114113855D02*
X185980952Y-113313855D01*
X185980952Y-113313855D02*
X186057143Y-113428140D01*
X186057143Y-113428140D02*
X186133333Y-113504331D01*
X186133333Y-113504331D02*
X186209524Y-113542426D01*
X184990476Y-114113855D02*
X185447619Y-114113855D01*
X185219047Y-114113855D02*
X185219047Y-113313855D01*
X185219047Y-113313855D02*
X185295238Y-113428140D01*
X185295238Y-113428140D02*
X185371428Y-113504331D01*
X185371428Y-113504331D02*
X185447619Y-113542426D01*
D10*
X177684819Y-94254761D02*
X177684819Y-93683333D01*
X177684819Y-93969047D02*
X176684819Y-93969047D01*
X176684819Y-93969047D02*
X176827676Y-93873809D01*
X176827676Y-93873809D02*
X176922914Y-93778571D01*
X176922914Y-93778571D02*
X176970533Y-93683333D01*
X176684819Y-94873809D02*
X176684819Y-94969047D01*
X176684819Y-94969047D02*
X176732438Y-95064285D01*
X176732438Y-95064285D02*
X176780057Y-95111904D01*
X176780057Y-95111904D02*
X176875295Y-95159523D01*
X176875295Y-95159523D02*
X177065771Y-95207142D01*
X177065771Y-95207142D02*
X177303866Y-95207142D01*
X177303866Y-95207142D02*
X177494342Y-95159523D01*
X177494342Y-95159523D02*
X177589580Y-95111904D01*
X177589580Y-95111904D02*
X177637200Y-95064285D01*
X177637200Y-95064285D02*
X177684819Y-94969047D01*
X177684819Y-94969047D02*
X177684819Y-94873809D01*
X177684819Y-94873809D02*
X177637200Y-94778571D01*
X177637200Y-94778571D02*
X177589580Y-94730952D01*
X177589580Y-94730952D02*
X177494342Y-94683333D01*
X177494342Y-94683333D02*
X177303866Y-94635714D01*
X177303866Y-94635714D02*
X177065771Y-94635714D01*
X177065771Y-94635714D02*
X176875295Y-94683333D01*
X176875295Y-94683333D02*
X176780057Y-94730952D01*
X176780057Y-94730952D02*
X176732438Y-94778571D01*
X176732438Y-94778571D02*
X176684819Y-94873809D01*
X177684819Y-95635714D02*
X176684819Y-95635714D01*
X177303866Y-95730952D02*
X177684819Y-96016666D01*
X177018152Y-96016666D02*
X177399104Y-95635714D01*
D13*
X175981927Y-94592857D02*
X175791451Y-94459524D01*
X175981927Y-94364286D02*
X175581927Y-94364286D01*
X175581927Y-94364286D02*
X175581927Y-94516667D01*
X175581927Y-94516667D02*
X175600975Y-94554762D01*
X175600975Y-94554762D02*
X175620022Y-94573809D01*
X175620022Y-94573809D02*
X175658118Y-94592857D01*
X175658118Y-94592857D02*
X175715260Y-94592857D01*
X175715260Y-94592857D02*
X175753356Y-94573809D01*
X175753356Y-94573809D02*
X175772403Y-94554762D01*
X175772403Y-94554762D02*
X175791451Y-94516667D01*
X175791451Y-94516667D02*
X175791451Y-94364286D01*
X175981927Y-94973809D02*
X175981927Y-94745238D01*
X175981927Y-94859524D02*
X175581927Y-94859524D01*
X175581927Y-94859524D02*
X175639070Y-94821428D01*
X175639070Y-94821428D02*
X175677165Y-94783333D01*
X175677165Y-94783333D02*
X175696213Y-94745238D01*
X175581927Y-95221428D02*
X175581927Y-95259523D01*
X175581927Y-95259523D02*
X175600975Y-95297619D01*
X175600975Y-95297619D02*
X175620022Y-95316666D01*
X175620022Y-95316666D02*
X175658118Y-95335714D01*
X175658118Y-95335714D02*
X175734308Y-95354761D01*
X175734308Y-95354761D02*
X175829546Y-95354761D01*
X175829546Y-95354761D02*
X175905737Y-95335714D01*
X175905737Y-95335714D02*
X175943832Y-95316666D01*
X175943832Y-95316666D02*
X175962880Y-95297619D01*
X175962880Y-95297619D02*
X175981927Y-95259523D01*
X175981927Y-95259523D02*
X175981927Y-95221428D01*
X175981927Y-95221428D02*
X175962880Y-95183333D01*
X175962880Y-95183333D02*
X175943832Y-95164285D01*
X175943832Y-95164285D02*
X175905737Y-95145238D01*
X175905737Y-95145238D02*
X175829546Y-95126190D01*
X175829546Y-95126190D02*
X175734308Y-95126190D01*
X175734308Y-95126190D02*
X175658118Y-95145238D01*
X175658118Y-95145238D02*
X175620022Y-95164285D01*
X175620022Y-95164285D02*
X175600975Y-95183333D01*
X175600975Y-95183333D02*
X175581927Y-95221428D01*
D10*
X202976190Y-109611009D02*
X202642857Y-109611009D01*
X202500000Y-110134819D02*
X202976190Y-110134819D01*
X202976190Y-110134819D02*
X202976190Y-109134819D01*
X202976190Y-109134819D02*
X202500000Y-109134819D01*
X201500000Y-110134819D02*
X201833333Y-109658628D01*
X202071428Y-110134819D02*
X202071428Y-109134819D01*
X202071428Y-109134819D02*
X201690476Y-109134819D01*
X201690476Y-109134819D02*
X201595238Y-109182438D01*
X201595238Y-109182438D02*
X201547619Y-109230057D01*
X201547619Y-109230057D02*
X201500000Y-109325295D01*
X201500000Y-109325295D02*
X201500000Y-109468152D01*
X201500000Y-109468152D02*
X201547619Y-109563390D01*
X201547619Y-109563390D02*
X201595238Y-109611009D01*
X201595238Y-109611009D02*
X201690476Y-109658628D01*
X201690476Y-109658628D02*
X202071428Y-109658628D01*
X201119047Y-109849104D02*
X200642857Y-109849104D01*
X201214285Y-110134819D02*
X200880952Y-109134819D01*
X200880952Y-109134819D02*
X200547619Y-110134819D01*
X200214285Y-109753866D02*
X199452381Y-109753866D01*
X199071428Y-109134819D02*
X198452381Y-109134819D01*
X198452381Y-109134819D02*
X198785714Y-109515771D01*
X198785714Y-109515771D02*
X198642857Y-109515771D01*
X198642857Y-109515771D02*
X198547619Y-109563390D01*
X198547619Y-109563390D02*
X198500000Y-109611009D01*
X198500000Y-109611009D02*
X198452381Y-109706247D01*
X198452381Y-109706247D02*
X198452381Y-109944342D01*
X198452381Y-109944342D02*
X198500000Y-110039580D01*
X198500000Y-110039580D02*
X198547619Y-110087200D01*
X198547619Y-110087200D02*
X198642857Y-110134819D01*
X198642857Y-110134819D02*
X198928571Y-110134819D01*
X198928571Y-110134819D02*
X199023809Y-110087200D01*
X199023809Y-110087200D02*
X199071428Y-110039580D01*
X198071428Y-109849104D02*
X197595238Y-109849104D01*
X198166666Y-110134819D02*
X197833333Y-109134819D01*
X197833333Y-109134819D02*
X197500000Y-110134819D01*
X197166666Y-109611009D02*
X196833333Y-109611009D01*
X196690476Y-110134819D02*
X197166666Y-110134819D01*
X197166666Y-110134819D02*
X197166666Y-109134819D01*
X197166666Y-109134819D02*
X196690476Y-109134819D01*
X196261904Y-110134819D02*
X196261904Y-109134819D01*
X196261904Y-109134819D02*
X196023809Y-109134819D01*
X196023809Y-109134819D02*
X195880952Y-109182438D01*
X195880952Y-109182438D02*
X195785714Y-109277676D01*
X195785714Y-109277676D02*
X195738095Y-109372914D01*
X195738095Y-109372914D02*
X195690476Y-109563390D01*
X195690476Y-109563390D02*
X195690476Y-109706247D01*
X195690476Y-109706247D02*
X195738095Y-109896723D01*
X195738095Y-109896723D02*
X195785714Y-109991961D01*
X195785714Y-109991961D02*
X195880952Y-110087200D01*
X195880952Y-110087200D02*
X196023809Y-110134819D01*
X196023809Y-110134819D02*
X196261904Y-110134819D01*
X194738095Y-110134819D02*
X195309523Y-110134819D01*
X195023809Y-110134819D02*
X195023809Y-109134819D01*
X195023809Y-109134819D02*
X195119047Y-109277676D01*
X195119047Y-109277676D02*
X195214285Y-109372914D01*
X195214285Y-109372914D02*
X195309523Y-109420533D01*
X194119047Y-109134819D02*
X194023809Y-109134819D01*
X194023809Y-109134819D02*
X193928571Y-109182438D01*
X193928571Y-109182438D02*
X193880952Y-109230057D01*
X193880952Y-109230057D02*
X193833333Y-109325295D01*
X193833333Y-109325295D02*
X193785714Y-109515771D01*
X193785714Y-109515771D02*
X193785714Y-109753866D01*
X193785714Y-109753866D02*
X193833333Y-109944342D01*
X193833333Y-109944342D02*
X193880952Y-110039580D01*
X193880952Y-110039580D02*
X193928571Y-110087200D01*
X193928571Y-110087200D02*
X194023809Y-110134819D01*
X194023809Y-110134819D02*
X194119047Y-110134819D01*
X194119047Y-110134819D02*
X194214285Y-110087200D01*
X194214285Y-110087200D02*
X194261904Y-110039580D01*
X194261904Y-110039580D02*
X194309523Y-109944342D01*
X194309523Y-109944342D02*
X194357142Y-109753866D01*
X194357142Y-109753866D02*
X194357142Y-109515771D01*
X194357142Y-109515771D02*
X194309523Y-109325295D01*
X194309523Y-109325295D02*
X194261904Y-109230057D01*
X194261904Y-109230057D02*
X194214285Y-109182438D01*
X194214285Y-109182438D02*
X194119047Y-109134819D01*
X192928571Y-109468152D02*
X192928571Y-110134819D01*
X193166666Y-109087200D02*
X193404761Y-109801485D01*
X193404761Y-109801485D02*
X192785714Y-109801485D01*
X192547618Y-109134819D02*
X192214285Y-110134819D01*
X192214285Y-110134819D02*
X191880952Y-109134819D01*
D13*
X197566666Y-108431927D02*
X197699999Y-108241451D01*
X197795237Y-108431927D02*
X197795237Y-108031927D01*
X197795237Y-108031927D02*
X197642856Y-108031927D01*
X197642856Y-108031927D02*
X197604761Y-108050975D01*
X197604761Y-108050975D02*
X197585714Y-108070022D01*
X197585714Y-108070022D02*
X197566666Y-108108118D01*
X197566666Y-108108118D02*
X197566666Y-108165260D01*
X197566666Y-108165260D02*
X197585714Y-108203356D01*
X197585714Y-108203356D02*
X197604761Y-108222403D01*
X197604761Y-108222403D02*
X197642856Y-108241451D01*
X197642856Y-108241451D02*
X197795237Y-108241451D01*
X197185714Y-108431927D02*
X197414285Y-108431927D01*
X197299999Y-108431927D02*
X197299999Y-108031927D01*
X197299999Y-108031927D02*
X197338095Y-108089070D01*
X197338095Y-108089070D02*
X197376190Y-108127165D01*
X197376190Y-108127165D02*
X197414285Y-108146213D01*
D10*
X208359580Y-104216666D02*
X208407200Y-104169047D01*
X208407200Y-104169047D02*
X208454819Y-104026190D01*
X208454819Y-104026190D02*
X208454819Y-103930952D01*
X208454819Y-103930952D02*
X208407200Y-103788095D01*
X208407200Y-103788095D02*
X208311961Y-103692857D01*
X208311961Y-103692857D02*
X208216723Y-103645238D01*
X208216723Y-103645238D02*
X208026247Y-103597619D01*
X208026247Y-103597619D02*
X207883390Y-103597619D01*
X207883390Y-103597619D02*
X207692914Y-103645238D01*
X207692914Y-103645238D02*
X207597676Y-103692857D01*
X207597676Y-103692857D02*
X207502438Y-103788095D01*
X207502438Y-103788095D02*
X207454819Y-103930952D01*
X207454819Y-103930952D02*
X207454819Y-104026190D01*
X207454819Y-104026190D02*
X207502438Y-104169047D01*
X207502438Y-104169047D02*
X207550057Y-104216666D01*
X208454819Y-105121428D02*
X208454819Y-104645238D01*
X208454819Y-104645238D02*
X207454819Y-104645238D01*
X207454819Y-105359524D02*
X207454819Y-105978571D01*
X207454819Y-105978571D02*
X207835771Y-105645238D01*
X207835771Y-105645238D02*
X207835771Y-105788095D01*
X207835771Y-105788095D02*
X207883390Y-105883333D01*
X207883390Y-105883333D02*
X207931009Y-105930952D01*
X207931009Y-105930952D02*
X208026247Y-105978571D01*
X208026247Y-105978571D02*
X208264342Y-105978571D01*
X208264342Y-105978571D02*
X208359580Y-105930952D01*
X208359580Y-105930952D02*
X208407200Y-105883333D01*
X208407200Y-105883333D02*
X208454819Y-105788095D01*
X208454819Y-105788095D02*
X208454819Y-105502381D01*
X208454819Y-105502381D02*
X208407200Y-105407143D01*
X208407200Y-105407143D02*
X208359580Y-105359524D01*
X207550057Y-106359524D02*
X207502438Y-106407143D01*
X207502438Y-106407143D02*
X207454819Y-106502381D01*
X207454819Y-106502381D02*
X207454819Y-106740476D01*
X207454819Y-106740476D02*
X207502438Y-106835714D01*
X207502438Y-106835714D02*
X207550057Y-106883333D01*
X207550057Y-106883333D02*
X207645295Y-106930952D01*
X207645295Y-106930952D02*
X207740533Y-106930952D01*
X207740533Y-106930952D02*
X207883390Y-106883333D01*
X207883390Y-106883333D02*
X208454819Y-106311905D01*
X208454819Y-106311905D02*
X208454819Y-106930952D01*
X208169104Y-107311905D02*
X208169104Y-107788095D01*
X208454819Y-107216667D02*
X207454819Y-107550000D01*
X207454819Y-107550000D02*
X208454819Y-107883333D01*
X207550057Y-108169048D02*
X207502438Y-108216667D01*
X207502438Y-108216667D02*
X207454819Y-108311905D01*
X207454819Y-108311905D02*
X207454819Y-108550000D01*
X207454819Y-108550000D02*
X207502438Y-108645238D01*
X207502438Y-108645238D02*
X207550057Y-108692857D01*
X207550057Y-108692857D02*
X207645295Y-108740476D01*
X207645295Y-108740476D02*
X207740533Y-108740476D01*
X207740533Y-108740476D02*
X207883390Y-108692857D01*
X207883390Y-108692857D02*
X208454819Y-108121429D01*
X208454819Y-108121429D02*
X208454819Y-108740476D01*
X207550057Y-109121429D02*
X207502438Y-109169048D01*
X207502438Y-109169048D02*
X207454819Y-109264286D01*
X207454819Y-109264286D02*
X207454819Y-109502381D01*
X207454819Y-109502381D02*
X207502438Y-109597619D01*
X207502438Y-109597619D02*
X207550057Y-109645238D01*
X207550057Y-109645238D02*
X207645295Y-109692857D01*
X207645295Y-109692857D02*
X207740533Y-109692857D01*
X207740533Y-109692857D02*
X207883390Y-109645238D01*
X207883390Y-109645238D02*
X208454819Y-109073810D01*
X208454819Y-109073810D02*
X208454819Y-109692857D01*
X207454819Y-110550000D02*
X207454819Y-110359524D01*
X207454819Y-110359524D02*
X207502438Y-110264286D01*
X207502438Y-110264286D02*
X207550057Y-110216667D01*
X207550057Y-110216667D02*
X207692914Y-110121429D01*
X207692914Y-110121429D02*
X207883390Y-110073810D01*
X207883390Y-110073810D02*
X208264342Y-110073810D01*
X208264342Y-110073810D02*
X208359580Y-110121429D01*
X208359580Y-110121429D02*
X208407200Y-110169048D01*
X208407200Y-110169048D02*
X208454819Y-110264286D01*
X208454819Y-110264286D02*
X208454819Y-110454762D01*
X208454819Y-110454762D02*
X208407200Y-110550000D01*
X208407200Y-110550000D02*
X208359580Y-110597619D01*
X208359580Y-110597619D02*
X208264342Y-110645238D01*
X208264342Y-110645238D02*
X208026247Y-110645238D01*
X208026247Y-110645238D02*
X207931009Y-110597619D01*
X207931009Y-110597619D02*
X207883390Y-110550000D01*
X207883390Y-110550000D02*
X207835771Y-110454762D01*
X207835771Y-110454762D02*
X207835771Y-110264286D01*
X207835771Y-110264286D02*
X207883390Y-110169048D01*
X207883390Y-110169048D02*
X207931009Y-110121429D01*
X207931009Y-110121429D02*
X208026247Y-110073810D01*
X208454819Y-111073810D02*
X207454819Y-111073810D01*
X208454819Y-111645238D02*
X207883390Y-111216667D01*
X207454819Y-111645238D02*
X208026247Y-111073810D01*
X207454819Y-112264286D02*
X207454819Y-112454762D01*
X207454819Y-112454762D02*
X207502438Y-112550000D01*
X207502438Y-112550000D02*
X207597676Y-112645238D01*
X207597676Y-112645238D02*
X207788152Y-112692857D01*
X207788152Y-112692857D02*
X208121485Y-112692857D01*
X208121485Y-112692857D02*
X208311961Y-112645238D01*
X208311961Y-112645238D02*
X208407200Y-112550000D01*
X208407200Y-112550000D02*
X208454819Y-112454762D01*
X208454819Y-112454762D02*
X208454819Y-112264286D01*
X208454819Y-112264286D02*
X208407200Y-112169048D01*
X208407200Y-112169048D02*
X208311961Y-112073810D01*
X208311961Y-112073810D02*
X208121485Y-112026191D01*
X208121485Y-112026191D02*
X207788152Y-112026191D01*
X207788152Y-112026191D02*
X207597676Y-112073810D01*
X207597676Y-112073810D02*
X207502438Y-112169048D01*
X207502438Y-112169048D02*
X207454819Y-112264286D01*
X207454819Y-113407143D02*
X208169104Y-113407143D01*
X208169104Y-113407143D02*
X208311961Y-113359524D01*
X208311961Y-113359524D02*
X208407200Y-113264286D01*
X208407200Y-113264286D02*
X208454819Y-113121429D01*
X208454819Y-113121429D02*
X208454819Y-113026191D01*
X208454819Y-113883334D02*
X207454819Y-113883334D01*
X207454819Y-113883334D02*
X208454819Y-114454762D01*
X208454819Y-114454762D02*
X207454819Y-114454762D01*
X208454819Y-114930953D02*
X207454819Y-114930953D01*
X207454819Y-114930953D02*
X208454819Y-115502381D01*
X208454819Y-115502381D02*
X207454819Y-115502381D01*
X208454819Y-115978572D02*
X207454819Y-115978572D01*
X207454819Y-115978572D02*
X208454819Y-116550000D01*
X208454819Y-116550000D02*
X207454819Y-116550000D01*
X207931009Y-117026191D02*
X207931009Y-117359524D01*
X208454819Y-117502381D02*
X208454819Y-117026191D01*
X208454819Y-117026191D02*
X207454819Y-117026191D01*
X207454819Y-117026191D02*
X207454819Y-117502381D01*
D12*
X205987664Y-110416667D02*
X206025760Y-110378571D01*
X206025760Y-110378571D02*
X206063855Y-110264286D01*
X206063855Y-110264286D02*
X206063855Y-110188095D01*
X206063855Y-110188095D02*
X206025760Y-110073809D01*
X206025760Y-110073809D02*
X205949569Y-109997619D01*
X205949569Y-109997619D02*
X205873379Y-109959524D01*
X205873379Y-109959524D02*
X205720998Y-109921428D01*
X205720998Y-109921428D02*
X205606712Y-109921428D01*
X205606712Y-109921428D02*
X205454331Y-109959524D01*
X205454331Y-109959524D02*
X205378140Y-109997619D01*
X205378140Y-109997619D02*
X205301950Y-110073809D01*
X205301950Y-110073809D02*
X205263855Y-110188095D01*
X205263855Y-110188095D02*
X205263855Y-110264286D01*
X205263855Y-110264286D02*
X205301950Y-110378571D01*
X205301950Y-110378571D02*
X205340045Y-110416667D01*
X205530521Y-111102381D02*
X206063855Y-111102381D01*
X205225760Y-110911905D02*
X205797188Y-110721428D01*
X205797188Y-110721428D02*
X205797188Y-111216667D01*
D10*
X203659580Y-104216666D02*
X203707200Y-104169047D01*
X203707200Y-104169047D02*
X203754819Y-104026190D01*
X203754819Y-104026190D02*
X203754819Y-103930952D01*
X203754819Y-103930952D02*
X203707200Y-103788095D01*
X203707200Y-103788095D02*
X203611961Y-103692857D01*
X203611961Y-103692857D02*
X203516723Y-103645238D01*
X203516723Y-103645238D02*
X203326247Y-103597619D01*
X203326247Y-103597619D02*
X203183390Y-103597619D01*
X203183390Y-103597619D02*
X202992914Y-103645238D01*
X202992914Y-103645238D02*
X202897676Y-103692857D01*
X202897676Y-103692857D02*
X202802438Y-103788095D01*
X202802438Y-103788095D02*
X202754819Y-103930952D01*
X202754819Y-103930952D02*
X202754819Y-104026190D01*
X202754819Y-104026190D02*
X202802438Y-104169047D01*
X202802438Y-104169047D02*
X202850057Y-104216666D01*
X203754819Y-105121428D02*
X203754819Y-104645238D01*
X203754819Y-104645238D02*
X202754819Y-104645238D01*
X202754819Y-105359524D02*
X202754819Y-105978571D01*
X202754819Y-105978571D02*
X203135771Y-105645238D01*
X203135771Y-105645238D02*
X203135771Y-105788095D01*
X203135771Y-105788095D02*
X203183390Y-105883333D01*
X203183390Y-105883333D02*
X203231009Y-105930952D01*
X203231009Y-105930952D02*
X203326247Y-105978571D01*
X203326247Y-105978571D02*
X203564342Y-105978571D01*
X203564342Y-105978571D02*
X203659580Y-105930952D01*
X203659580Y-105930952D02*
X203707200Y-105883333D01*
X203707200Y-105883333D02*
X203754819Y-105788095D01*
X203754819Y-105788095D02*
X203754819Y-105502381D01*
X203754819Y-105502381D02*
X203707200Y-105407143D01*
X203707200Y-105407143D02*
X203659580Y-105359524D01*
X202850057Y-106359524D02*
X202802438Y-106407143D01*
X202802438Y-106407143D02*
X202754819Y-106502381D01*
X202754819Y-106502381D02*
X202754819Y-106740476D01*
X202754819Y-106740476D02*
X202802438Y-106835714D01*
X202802438Y-106835714D02*
X202850057Y-106883333D01*
X202850057Y-106883333D02*
X202945295Y-106930952D01*
X202945295Y-106930952D02*
X203040533Y-106930952D01*
X203040533Y-106930952D02*
X203183390Y-106883333D01*
X203183390Y-106883333D02*
X203754819Y-106311905D01*
X203754819Y-106311905D02*
X203754819Y-106930952D01*
X203469104Y-107311905D02*
X203469104Y-107788095D01*
X203754819Y-107216667D02*
X202754819Y-107550000D01*
X202754819Y-107550000D02*
X203754819Y-107883333D01*
X202850057Y-108169048D02*
X202802438Y-108216667D01*
X202802438Y-108216667D02*
X202754819Y-108311905D01*
X202754819Y-108311905D02*
X202754819Y-108550000D01*
X202754819Y-108550000D02*
X202802438Y-108645238D01*
X202802438Y-108645238D02*
X202850057Y-108692857D01*
X202850057Y-108692857D02*
X202945295Y-108740476D01*
X202945295Y-108740476D02*
X203040533Y-108740476D01*
X203040533Y-108740476D02*
X203183390Y-108692857D01*
X203183390Y-108692857D02*
X203754819Y-108121429D01*
X203754819Y-108121429D02*
X203754819Y-108740476D01*
X202850057Y-109121429D02*
X202802438Y-109169048D01*
X202802438Y-109169048D02*
X202754819Y-109264286D01*
X202754819Y-109264286D02*
X202754819Y-109502381D01*
X202754819Y-109502381D02*
X202802438Y-109597619D01*
X202802438Y-109597619D02*
X202850057Y-109645238D01*
X202850057Y-109645238D02*
X202945295Y-109692857D01*
X202945295Y-109692857D02*
X203040533Y-109692857D01*
X203040533Y-109692857D02*
X203183390Y-109645238D01*
X203183390Y-109645238D02*
X203754819Y-109073810D01*
X203754819Y-109073810D02*
X203754819Y-109692857D01*
X202754819Y-110550000D02*
X202754819Y-110359524D01*
X202754819Y-110359524D02*
X202802438Y-110264286D01*
X202802438Y-110264286D02*
X202850057Y-110216667D01*
X202850057Y-110216667D02*
X202992914Y-110121429D01*
X202992914Y-110121429D02*
X203183390Y-110073810D01*
X203183390Y-110073810D02*
X203564342Y-110073810D01*
X203564342Y-110073810D02*
X203659580Y-110121429D01*
X203659580Y-110121429D02*
X203707200Y-110169048D01*
X203707200Y-110169048D02*
X203754819Y-110264286D01*
X203754819Y-110264286D02*
X203754819Y-110454762D01*
X203754819Y-110454762D02*
X203707200Y-110550000D01*
X203707200Y-110550000D02*
X203659580Y-110597619D01*
X203659580Y-110597619D02*
X203564342Y-110645238D01*
X203564342Y-110645238D02*
X203326247Y-110645238D01*
X203326247Y-110645238D02*
X203231009Y-110597619D01*
X203231009Y-110597619D02*
X203183390Y-110550000D01*
X203183390Y-110550000D02*
X203135771Y-110454762D01*
X203135771Y-110454762D02*
X203135771Y-110264286D01*
X203135771Y-110264286D02*
X203183390Y-110169048D01*
X203183390Y-110169048D02*
X203231009Y-110121429D01*
X203231009Y-110121429D02*
X203326247Y-110073810D01*
X203754819Y-111073810D02*
X202754819Y-111073810D01*
X203754819Y-111645238D02*
X203183390Y-111216667D01*
X202754819Y-111645238D02*
X203326247Y-111073810D01*
X202754819Y-112264286D02*
X202754819Y-112454762D01*
X202754819Y-112454762D02*
X202802438Y-112550000D01*
X202802438Y-112550000D02*
X202897676Y-112645238D01*
X202897676Y-112645238D02*
X203088152Y-112692857D01*
X203088152Y-112692857D02*
X203421485Y-112692857D01*
X203421485Y-112692857D02*
X203611961Y-112645238D01*
X203611961Y-112645238D02*
X203707200Y-112550000D01*
X203707200Y-112550000D02*
X203754819Y-112454762D01*
X203754819Y-112454762D02*
X203754819Y-112264286D01*
X203754819Y-112264286D02*
X203707200Y-112169048D01*
X203707200Y-112169048D02*
X203611961Y-112073810D01*
X203611961Y-112073810D02*
X203421485Y-112026191D01*
X203421485Y-112026191D02*
X203088152Y-112026191D01*
X203088152Y-112026191D02*
X202897676Y-112073810D01*
X202897676Y-112073810D02*
X202802438Y-112169048D01*
X202802438Y-112169048D02*
X202754819Y-112264286D01*
X202754819Y-113407143D02*
X203469104Y-113407143D01*
X203469104Y-113407143D02*
X203611961Y-113359524D01*
X203611961Y-113359524D02*
X203707200Y-113264286D01*
X203707200Y-113264286D02*
X203754819Y-113121429D01*
X203754819Y-113121429D02*
X203754819Y-113026191D01*
X203754819Y-113883334D02*
X202754819Y-113883334D01*
X202754819Y-113883334D02*
X203754819Y-114454762D01*
X203754819Y-114454762D02*
X202754819Y-114454762D01*
X203754819Y-114930953D02*
X202754819Y-114930953D01*
X202754819Y-114930953D02*
X203754819Y-115502381D01*
X203754819Y-115502381D02*
X202754819Y-115502381D01*
X203754819Y-115978572D02*
X202754819Y-115978572D01*
X202754819Y-115978572D02*
X203754819Y-116550000D01*
X203754819Y-116550000D02*
X202754819Y-116550000D01*
X203231009Y-117026191D02*
X203231009Y-117359524D01*
X203754819Y-117502381D02*
X203754819Y-117026191D01*
X203754819Y-117026191D02*
X202754819Y-117026191D01*
X202754819Y-117026191D02*
X202754819Y-117502381D01*
D12*
X201287664Y-110416667D02*
X201325760Y-110378571D01*
X201325760Y-110378571D02*
X201363855Y-110264286D01*
X201363855Y-110264286D02*
X201363855Y-110188095D01*
X201363855Y-110188095D02*
X201325760Y-110073809D01*
X201325760Y-110073809D02*
X201249569Y-109997619D01*
X201249569Y-109997619D02*
X201173379Y-109959524D01*
X201173379Y-109959524D02*
X201020998Y-109921428D01*
X201020998Y-109921428D02*
X200906712Y-109921428D01*
X200906712Y-109921428D02*
X200754331Y-109959524D01*
X200754331Y-109959524D02*
X200678140Y-109997619D01*
X200678140Y-109997619D02*
X200601950Y-110073809D01*
X200601950Y-110073809D02*
X200563855Y-110188095D01*
X200563855Y-110188095D02*
X200563855Y-110264286D01*
X200563855Y-110264286D02*
X200601950Y-110378571D01*
X200601950Y-110378571D02*
X200640045Y-110416667D01*
X200563855Y-110683333D02*
X200563855Y-111178571D01*
X200563855Y-111178571D02*
X200868617Y-110911905D01*
X200868617Y-110911905D02*
X200868617Y-111026190D01*
X200868617Y-111026190D02*
X200906712Y-111102381D01*
X200906712Y-111102381D02*
X200944807Y-111140476D01*
X200944807Y-111140476D02*
X201020998Y-111178571D01*
X201020998Y-111178571D02*
X201211474Y-111178571D01*
X201211474Y-111178571D02*
X201287664Y-111140476D01*
X201287664Y-111140476D02*
X201325760Y-111102381D01*
X201325760Y-111102381D02*
X201363855Y-111026190D01*
X201363855Y-111026190D02*
X201363855Y-110797619D01*
X201363855Y-110797619D02*
X201325760Y-110721428D01*
X201325760Y-110721428D02*
X201287664Y-110683333D01*
D10*
X189609580Y-103497618D02*
X189657200Y-103449999D01*
X189657200Y-103449999D02*
X189704819Y-103307142D01*
X189704819Y-103307142D02*
X189704819Y-103211904D01*
X189704819Y-103211904D02*
X189657200Y-103069047D01*
X189657200Y-103069047D02*
X189561961Y-102973809D01*
X189561961Y-102973809D02*
X189466723Y-102926190D01*
X189466723Y-102926190D02*
X189276247Y-102878571D01*
X189276247Y-102878571D02*
X189133390Y-102878571D01*
X189133390Y-102878571D02*
X188942914Y-102926190D01*
X188942914Y-102926190D02*
X188847676Y-102973809D01*
X188847676Y-102973809D02*
X188752438Y-103069047D01*
X188752438Y-103069047D02*
X188704819Y-103211904D01*
X188704819Y-103211904D02*
X188704819Y-103307142D01*
X188704819Y-103307142D02*
X188752438Y-103449999D01*
X188752438Y-103449999D02*
X188800057Y-103497618D01*
X189609580Y-104497618D02*
X189657200Y-104449999D01*
X189657200Y-104449999D02*
X189704819Y-104307142D01*
X189704819Y-104307142D02*
X189704819Y-104211904D01*
X189704819Y-104211904D02*
X189657200Y-104069047D01*
X189657200Y-104069047D02*
X189561961Y-103973809D01*
X189561961Y-103973809D02*
X189466723Y-103926190D01*
X189466723Y-103926190D02*
X189276247Y-103878571D01*
X189276247Y-103878571D02*
X189133390Y-103878571D01*
X189133390Y-103878571D02*
X188942914Y-103926190D01*
X188942914Y-103926190D02*
X188847676Y-103973809D01*
X188847676Y-103973809D02*
X188752438Y-104069047D01*
X188752438Y-104069047D02*
X188704819Y-104211904D01*
X188704819Y-104211904D02*
X188704819Y-104307142D01*
X188704819Y-104307142D02*
X188752438Y-104449999D01*
X188752438Y-104449999D02*
X188800057Y-104497618D01*
X188704819Y-105116666D02*
X188704819Y-105211904D01*
X188704819Y-105211904D02*
X188752438Y-105307142D01*
X188752438Y-105307142D02*
X188800057Y-105354761D01*
X188800057Y-105354761D02*
X188895295Y-105402380D01*
X188895295Y-105402380D02*
X189085771Y-105449999D01*
X189085771Y-105449999D02*
X189323866Y-105449999D01*
X189323866Y-105449999D02*
X189514342Y-105402380D01*
X189514342Y-105402380D02*
X189609580Y-105354761D01*
X189609580Y-105354761D02*
X189657200Y-105307142D01*
X189657200Y-105307142D02*
X189704819Y-105211904D01*
X189704819Y-105211904D02*
X189704819Y-105116666D01*
X189704819Y-105116666D02*
X189657200Y-105021428D01*
X189657200Y-105021428D02*
X189609580Y-104973809D01*
X189609580Y-104973809D02*
X189514342Y-104926190D01*
X189514342Y-104926190D02*
X189323866Y-104878571D01*
X189323866Y-104878571D02*
X189085771Y-104878571D01*
X189085771Y-104878571D02*
X188895295Y-104926190D01*
X188895295Y-104926190D02*
X188800057Y-104973809D01*
X188800057Y-104973809D02*
X188752438Y-105021428D01*
X188752438Y-105021428D02*
X188704819Y-105116666D01*
X188704819Y-106307142D02*
X188704819Y-106116666D01*
X188704819Y-106116666D02*
X188752438Y-106021428D01*
X188752438Y-106021428D02*
X188800057Y-105973809D01*
X188800057Y-105973809D02*
X188942914Y-105878571D01*
X188942914Y-105878571D02*
X189133390Y-105830952D01*
X189133390Y-105830952D02*
X189514342Y-105830952D01*
X189514342Y-105830952D02*
X189609580Y-105878571D01*
X189609580Y-105878571D02*
X189657200Y-105926190D01*
X189657200Y-105926190D02*
X189704819Y-106021428D01*
X189704819Y-106021428D02*
X189704819Y-106211904D01*
X189704819Y-106211904D02*
X189657200Y-106307142D01*
X189657200Y-106307142D02*
X189609580Y-106354761D01*
X189609580Y-106354761D02*
X189514342Y-106402380D01*
X189514342Y-106402380D02*
X189276247Y-106402380D01*
X189276247Y-106402380D02*
X189181009Y-106354761D01*
X189181009Y-106354761D02*
X189133390Y-106307142D01*
X189133390Y-106307142D02*
X189085771Y-106211904D01*
X189085771Y-106211904D02*
X189085771Y-106021428D01*
X189085771Y-106021428D02*
X189133390Y-105926190D01*
X189133390Y-105926190D02*
X189181009Y-105878571D01*
X189181009Y-105878571D02*
X189276247Y-105830952D01*
X188704819Y-107021428D02*
X188704819Y-107116666D01*
X188704819Y-107116666D02*
X188752438Y-107211904D01*
X188752438Y-107211904D02*
X188800057Y-107259523D01*
X188800057Y-107259523D02*
X188895295Y-107307142D01*
X188895295Y-107307142D02*
X189085771Y-107354761D01*
X189085771Y-107354761D02*
X189323866Y-107354761D01*
X189323866Y-107354761D02*
X189514342Y-107307142D01*
X189514342Y-107307142D02*
X189609580Y-107259523D01*
X189609580Y-107259523D02*
X189657200Y-107211904D01*
X189657200Y-107211904D02*
X189704819Y-107116666D01*
X189704819Y-107116666D02*
X189704819Y-107021428D01*
X189704819Y-107021428D02*
X189657200Y-106926190D01*
X189657200Y-106926190D02*
X189609580Y-106878571D01*
X189609580Y-106878571D02*
X189514342Y-106830952D01*
X189514342Y-106830952D02*
X189323866Y-106783333D01*
X189323866Y-106783333D02*
X189085771Y-106783333D01*
X189085771Y-106783333D02*
X188895295Y-106830952D01*
X188895295Y-106830952D02*
X188800057Y-106878571D01*
X188800057Y-106878571D02*
X188752438Y-106926190D01*
X188752438Y-106926190D02*
X188704819Y-107021428D01*
X188704819Y-107688095D02*
X188704819Y-108307142D01*
X188704819Y-108307142D02*
X189085771Y-107973809D01*
X189085771Y-107973809D02*
X189085771Y-108116666D01*
X189085771Y-108116666D02*
X189133390Y-108211904D01*
X189133390Y-108211904D02*
X189181009Y-108259523D01*
X189181009Y-108259523D02*
X189276247Y-108307142D01*
X189276247Y-108307142D02*
X189514342Y-108307142D01*
X189514342Y-108307142D02*
X189609580Y-108259523D01*
X189609580Y-108259523D02*
X189657200Y-108211904D01*
X189657200Y-108211904D02*
X189704819Y-108116666D01*
X189704819Y-108116666D02*
X189704819Y-107830952D01*
X189704819Y-107830952D02*
X189657200Y-107735714D01*
X189657200Y-107735714D02*
X189609580Y-107688095D01*
X189704819Y-108735714D02*
X188704819Y-108735714D01*
X189704819Y-109307142D02*
X189133390Y-108878571D01*
X188704819Y-109307142D02*
X189276247Y-108735714D01*
X189704819Y-110307142D02*
X189228628Y-109973809D01*
X189704819Y-109735714D02*
X188704819Y-109735714D01*
X188704819Y-109735714D02*
X188704819Y-110116666D01*
X188704819Y-110116666D02*
X188752438Y-110211904D01*
X188752438Y-110211904D02*
X188800057Y-110259523D01*
X188800057Y-110259523D02*
X188895295Y-110307142D01*
X188895295Y-110307142D02*
X189038152Y-110307142D01*
X189038152Y-110307142D02*
X189133390Y-110259523D01*
X189133390Y-110259523D02*
X189181009Y-110211904D01*
X189181009Y-110211904D02*
X189228628Y-110116666D01*
X189228628Y-110116666D02*
X189228628Y-109735714D01*
X188704819Y-110640476D02*
X189704819Y-111307142D01*
X188704819Y-111307142D02*
X189704819Y-110640476D01*
X188704819Y-111592857D02*
X188704819Y-112259523D01*
X188704819Y-112259523D02*
X189704819Y-111830952D01*
X189704819Y-113211904D02*
X189228628Y-112878571D01*
X189704819Y-112640476D02*
X188704819Y-112640476D01*
X188704819Y-112640476D02*
X188704819Y-113021428D01*
X188704819Y-113021428D02*
X188752438Y-113116666D01*
X188752438Y-113116666D02*
X188800057Y-113164285D01*
X188800057Y-113164285D02*
X188895295Y-113211904D01*
X188895295Y-113211904D02*
X189038152Y-113211904D01*
X189038152Y-113211904D02*
X189133390Y-113164285D01*
X189133390Y-113164285D02*
X189181009Y-113116666D01*
X189181009Y-113116666D02*
X189228628Y-113021428D01*
X189228628Y-113021428D02*
X189228628Y-112640476D01*
X188704819Y-113545238D02*
X188704819Y-114211904D01*
X188704819Y-114211904D02*
X189704819Y-113783333D01*
X189181009Y-114926190D02*
X189228628Y-115069047D01*
X189228628Y-115069047D02*
X189276247Y-115116666D01*
X189276247Y-115116666D02*
X189371485Y-115164285D01*
X189371485Y-115164285D02*
X189514342Y-115164285D01*
X189514342Y-115164285D02*
X189609580Y-115116666D01*
X189609580Y-115116666D02*
X189657200Y-115069047D01*
X189657200Y-115069047D02*
X189704819Y-114973809D01*
X189704819Y-114973809D02*
X189704819Y-114592857D01*
X189704819Y-114592857D02*
X188704819Y-114592857D01*
X188704819Y-114592857D02*
X188704819Y-114926190D01*
X188704819Y-114926190D02*
X188752438Y-115021428D01*
X188752438Y-115021428D02*
X188800057Y-115069047D01*
X188800057Y-115069047D02*
X188895295Y-115116666D01*
X188895295Y-115116666D02*
X188990533Y-115116666D01*
X188990533Y-115116666D02*
X189085771Y-115069047D01*
X189085771Y-115069047D02*
X189133390Y-115021428D01*
X189133390Y-115021428D02*
X189181009Y-114926190D01*
X189181009Y-114926190D02*
X189181009Y-114592857D01*
X189181009Y-115926190D02*
X189228628Y-116069047D01*
X189228628Y-116069047D02*
X189276247Y-116116666D01*
X189276247Y-116116666D02*
X189371485Y-116164285D01*
X189371485Y-116164285D02*
X189514342Y-116164285D01*
X189514342Y-116164285D02*
X189609580Y-116116666D01*
X189609580Y-116116666D02*
X189657200Y-116069047D01*
X189657200Y-116069047D02*
X189704819Y-115973809D01*
X189704819Y-115973809D02*
X189704819Y-115592857D01*
X189704819Y-115592857D02*
X188704819Y-115592857D01*
X188704819Y-115592857D02*
X188704819Y-115926190D01*
X188704819Y-115926190D02*
X188752438Y-116021428D01*
X188752438Y-116021428D02*
X188800057Y-116069047D01*
X188800057Y-116069047D02*
X188895295Y-116116666D01*
X188895295Y-116116666D02*
X188990533Y-116116666D01*
X188990533Y-116116666D02*
X189085771Y-116069047D01*
X189085771Y-116069047D02*
X189133390Y-116021428D01*
X189133390Y-116021428D02*
X189181009Y-115926190D01*
X189181009Y-115926190D02*
X189181009Y-115592857D01*
X189704819Y-117116666D02*
X189704819Y-116545238D01*
X189704819Y-116830952D02*
X188704819Y-116830952D01*
X188704819Y-116830952D02*
X188847676Y-116735714D01*
X188847676Y-116735714D02*
X188942914Y-116640476D01*
X188942914Y-116640476D02*
X188990533Y-116545238D01*
X188704819Y-117735714D02*
X188704819Y-117830952D01*
X188704819Y-117830952D02*
X188752438Y-117926190D01*
X188752438Y-117926190D02*
X188800057Y-117973809D01*
X188800057Y-117973809D02*
X188895295Y-118021428D01*
X188895295Y-118021428D02*
X189085771Y-118069047D01*
X189085771Y-118069047D02*
X189323866Y-118069047D01*
X189323866Y-118069047D02*
X189514342Y-118021428D01*
X189514342Y-118021428D02*
X189609580Y-117973809D01*
X189609580Y-117973809D02*
X189657200Y-117926190D01*
X189657200Y-117926190D02*
X189704819Y-117830952D01*
X189704819Y-117830952D02*
X189704819Y-117735714D01*
X189704819Y-117735714D02*
X189657200Y-117640476D01*
X189657200Y-117640476D02*
X189609580Y-117592857D01*
X189609580Y-117592857D02*
X189514342Y-117545238D01*
X189514342Y-117545238D02*
X189323866Y-117497619D01*
X189323866Y-117497619D02*
X189085771Y-117497619D01*
X189085771Y-117497619D02*
X188895295Y-117545238D01*
X188895295Y-117545238D02*
X188800057Y-117592857D01*
X188800057Y-117592857D02*
X188752438Y-117640476D01*
X188752438Y-117640476D02*
X188704819Y-117735714D01*
X189038152Y-118926190D02*
X189704819Y-118926190D01*
X188657200Y-118688095D02*
X189371485Y-118450000D01*
X189371485Y-118450000D02*
X189371485Y-119069047D01*
D13*
X190343832Y-110933333D02*
X190362880Y-110914285D01*
X190362880Y-110914285D02*
X190381927Y-110857143D01*
X190381927Y-110857143D02*
X190381927Y-110819047D01*
X190381927Y-110819047D02*
X190362880Y-110761904D01*
X190362880Y-110761904D02*
X190324784Y-110723809D01*
X190324784Y-110723809D02*
X190286689Y-110704762D01*
X190286689Y-110704762D02*
X190210499Y-110685714D01*
X190210499Y-110685714D02*
X190153356Y-110685714D01*
X190153356Y-110685714D02*
X190077165Y-110704762D01*
X190077165Y-110704762D02*
X190039070Y-110723809D01*
X190039070Y-110723809D02*
X190000975Y-110761904D01*
X190000975Y-110761904D02*
X189981927Y-110819047D01*
X189981927Y-110819047D02*
X189981927Y-110857143D01*
X189981927Y-110857143D02*
X190000975Y-110914285D01*
X190000975Y-110914285D02*
X190020022Y-110933333D01*
X190381927Y-111314285D02*
X190381927Y-111085714D01*
X190381927Y-111200000D02*
X189981927Y-111200000D01*
X189981927Y-111200000D02*
X190039070Y-111161904D01*
X190039070Y-111161904D02*
X190077165Y-111123809D01*
X190077165Y-111123809D02*
X190096213Y-111085714D01*
D10*
X119095238Y-111224819D02*
X119666666Y-111224819D01*
X119380952Y-111224819D02*
X119380952Y-110224819D01*
X119380952Y-110224819D02*
X119476190Y-110367676D01*
X119476190Y-110367676D02*
X119571428Y-110462914D01*
X119571428Y-110462914D02*
X119666666Y-110510533D01*
X118476190Y-110224819D02*
X118380952Y-110224819D01*
X118380952Y-110224819D02*
X118285714Y-110272438D01*
X118285714Y-110272438D02*
X118238095Y-110320057D01*
X118238095Y-110320057D02*
X118190476Y-110415295D01*
X118190476Y-110415295D02*
X118142857Y-110605771D01*
X118142857Y-110605771D02*
X118142857Y-110843866D01*
X118142857Y-110843866D02*
X118190476Y-111034342D01*
X118190476Y-111034342D02*
X118238095Y-111129580D01*
X118238095Y-111129580D02*
X118285714Y-111177200D01*
X118285714Y-111177200D02*
X118380952Y-111224819D01*
X118380952Y-111224819D02*
X118476190Y-111224819D01*
X118476190Y-111224819D02*
X118571428Y-111177200D01*
X118571428Y-111177200D02*
X118619047Y-111129580D01*
X118619047Y-111129580D02*
X118666666Y-111034342D01*
X118666666Y-111034342D02*
X118714285Y-110843866D01*
X118714285Y-110843866D02*
X118714285Y-110605771D01*
X118714285Y-110605771D02*
X118666666Y-110415295D01*
X118666666Y-110415295D02*
X118619047Y-110320057D01*
X118619047Y-110320057D02*
X118571428Y-110272438D01*
X118571428Y-110272438D02*
X118476190Y-110224819D01*
X117714285Y-111224819D02*
X117714285Y-110224819D01*
X117619047Y-110843866D02*
X117333333Y-111224819D01*
X117333333Y-110558152D02*
X117714285Y-110939104D01*
D13*
X118566666Y-112381927D02*
X118699999Y-112191451D01*
X118795237Y-112381927D02*
X118795237Y-111981927D01*
X118795237Y-111981927D02*
X118642856Y-111981927D01*
X118642856Y-111981927D02*
X118604761Y-112000975D01*
X118604761Y-112000975D02*
X118585714Y-112020022D01*
X118585714Y-112020022D02*
X118566666Y-112058118D01*
X118566666Y-112058118D02*
X118566666Y-112115260D01*
X118566666Y-112115260D02*
X118585714Y-112153356D01*
X118585714Y-112153356D02*
X118604761Y-112172403D01*
X118604761Y-112172403D02*
X118642856Y-112191451D01*
X118642856Y-112191451D02*
X118795237Y-112191451D01*
X118376190Y-112381927D02*
X118299999Y-112381927D01*
X118299999Y-112381927D02*
X118261904Y-112362880D01*
X118261904Y-112362880D02*
X118242856Y-112343832D01*
X118242856Y-112343832D02*
X118204761Y-112286689D01*
X118204761Y-112286689D02*
X118185714Y-112210499D01*
X118185714Y-112210499D02*
X118185714Y-112058118D01*
X118185714Y-112058118D02*
X118204761Y-112020022D01*
X118204761Y-112020022D02*
X118223809Y-112000975D01*
X118223809Y-112000975D02*
X118261904Y-111981927D01*
X118261904Y-111981927D02*
X118338095Y-111981927D01*
X118338095Y-111981927D02*
X118376190Y-112000975D01*
X118376190Y-112000975D02*
X118395237Y-112020022D01*
X118395237Y-112020022D02*
X118414285Y-112058118D01*
X118414285Y-112058118D02*
X118414285Y-112153356D01*
X118414285Y-112153356D02*
X118395237Y-112191451D01*
X118395237Y-112191451D02*
X118376190Y-112210499D01*
X118376190Y-112210499D02*
X118338095Y-112229546D01*
X118338095Y-112229546D02*
X118261904Y-112229546D01*
X118261904Y-112229546D02*
X118223809Y-112210499D01*
X118223809Y-112210499D02*
X118204761Y-112191451D01*
X118204761Y-112191451D02*
X118185714Y-112153356D01*
D10*
X161750951Y-107490057D02*
X161703332Y-107442438D01*
X161703332Y-107442438D02*
X161608094Y-107394819D01*
X161608094Y-107394819D02*
X161369999Y-107394819D01*
X161369999Y-107394819D02*
X161274761Y-107442438D01*
X161274761Y-107442438D02*
X161227142Y-107490057D01*
X161227142Y-107490057D02*
X161179523Y-107585295D01*
X161179523Y-107585295D02*
X161179523Y-107680533D01*
X161179523Y-107680533D02*
X161227142Y-107823390D01*
X161227142Y-107823390D02*
X161798570Y-108394819D01*
X161798570Y-108394819D02*
X161179523Y-108394819D01*
X160798570Y-107490057D02*
X160750951Y-107442438D01*
X160750951Y-107442438D02*
X160655713Y-107394819D01*
X160655713Y-107394819D02*
X160417618Y-107394819D01*
X160417618Y-107394819D02*
X160322380Y-107442438D01*
X160322380Y-107442438D02*
X160274761Y-107490057D01*
X160274761Y-107490057D02*
X160227142Y-107585295D01*
X160227142Y-107585295D02*
X160227142Y-107680533D01*
X160227142Y-107680533D02*
X160274761Y-107823390D01*
X160274761Y-107823390D02*
X160846189Y-108394819D01*
X160846189Y-108394819D02*
X160227142Y-108394819D01*
X159798570Y-108299580D02*
X159750951Y-108347200D01*
X159750951Y-108347200D02*
X159798570Y-108394819D01*
X159798570Y-108394819D02*
X159846189Y-108347200D01*
X159846189Y-108347200D02*
X159798570Y-108299580D01*
X159798570Y-108299580D02*
X159798570Y-108394819D01*
X158798571Y-108394819D02*
X159369999Y-108394819D01*
X159084285Y-108394819D02*
X159084285Y-107394819D01*
X159084285Y-107394819D02*
X159179523Y-107537676D01*
X159179523Y-107537676D02*
X159274761Y-107632914D01*
X159274761Y-107632914D02*
X159369999Y-107680533D01*
X158369999Y-108394819D02*
X158369999Y-107394819D01*
X158274761Y-108013866D02*
X157989047Y-108394819D01*
X157989047Y-107728152D02*
X158369999Y-108109104D01*
D14*
X187118200Y-108156667D02*
X186994391Y-108070000D01*
X187118200Y-108008095D02*
X186858200Y-108008095D01*
X186858200Y-108008095D02*
X186858200Y-108107143D01*
X186858200Y-108107143D02*
X186870581Y-108131905D01*
X186870581Y-108131905D02*
X186882962Y-108144286D01*
X186882962Y-108144286D02*
X186907724Y-108156667D01*
X186907724Y-108156667D02*
X186944867Y-108156667D01*
X186944867Y-108156667D02*
X186969629Y-108144286D01*
X186969629Y-108144286D02*
X186982010Y-108131905D01*
X186982010Y-108131905D02*
X186994391Y-108107143D01*
X186994391Y-108107143D02*
X186994391Y-108008095D01*
X186858200Y-108379524D02*
X186858200Y-108330000D01*
X186858200Y-108330000D02*
X186870581Y-108305238D01*
X186870581Y-108305238D02*
X186882962Y-108292857D01*
X186882962Y-108292857D02*
X186920105Y-108268095D01*
X186920105Y-108268095D02*
X186969629Y-108255714D01*
X186969629Y-108255714D02*
X187068677Y-108255714D01*
X187068677Y-108255714D02*
X187093439Y-108268095D01*
X187093439Y-108268095D02*
X187105820Y-108280476D01*
X187105820Y-108280476D02*
X187118200Y-108305238D01*
X187118200Y-108305238D02*
X187118200Y-108354762D01*
X187118200Y-108354762D02*
X187105820Y-108379524D01*
X187105820Y-108379524D02*
X187093439Y-108391905D01*
X187093439Y-108391905D02*
X187068677Y-108404286D01*
X187068677Y-108404286D02*
X187006772Y-108404286D01*
X187006772Y-108404286D02*
X186982010Y-108391905D01*
X186982010Y-108391905D02*
X186969629Y-108379524D01*
X186969629Y-108379524D02*
X186957248Y-108354762D01*
X186957248Y-108354762D02*
X186957248Y-108305238D01*
X186957248Y-108305238D02*
X186969629Y-108280476D01*
X186969629Y-108280476D02*
X186982010Y-108268095D01*
X186982010Y-108268095D02*
X187006772Y-108255714D01*
D11*
X202911666Y-104224318D02*
X203516428Y-104224318D01*
X203516428Y-104224318D02*
X203516428Y-102954318D01*
X201823094Y-104224318D02*
X202548809Y-104224318D01*
X202185952Y-104224318D02*
X202185952Y-102954318D01*
X202185952Y-102954318D02*
X202306904Y-103135746D01*
X202306904Y-103135746D02*
X202427856Y-103256699D01*
X202427856Y-103256699D02*
X202548809Y-103317175D01*
D10*
X163134819Y-119364285D02*
X163134819Y-119173809D01*
X163134819Y-119173809D02*
X163182438Y-119078571D01*
X163182438Y-119078571D02*
X163230057Y-119030952D01*
X163230057Y-119030952D02*
X163372914Y-118935714D01*
X163372914Y-118935714D02*
X163563390Y-118888095D01*
X163563390Y-118888095D02*
X163944342Y-118888095D01*
X163944342Y-118888095D02*
X164039580Y-118935714D01*
X164039580Y-118935714D02*
X164087200Y-118983333D01*
X164087200Y-118983333D02*
X164134819Y-119078571D01*
X164134819Y-119078571D02*
X164134819Y-119269047D01*
X164134819Y-119269047D02*
X164087200Y-119364285D01*
X164087200Y-119364285D02*
X164039580Y-119411904D01*
X164039580Y-119411904D02*
X163944342Y-119459523D01*
X163944342Y-119459523D02*
X163706247Y-119459523D01*
X163706247Y-119459523D02*
X163611009Y-119411904D01*
X163611009Y-119411904D02*
X163563390Y-119364285D01*
X163563390Y-119364285D02*
X163515771Y-119269047D01*
X163515771Y-119269047D02*
X163515771Y-119078571D01*
X163515771Y-119078571D02*
X163563390Y-118983333D01*
X163563390Y-118983333D02*
X163611009Y-118935714D01*
X163611009Y-118935714D02*
X163706247Y-118888095D01*
X163134819Y-120078571D02*
X163134819Y-120173809D01*
X163134819Y-120173809D02*
X163182438Y-120269047D01*
X163182438Y-120269047D02*
X163230057Y-120316666D01*
X163230057Y-120316666D02*
X163325295Y-120364285D01*
X163325295Y-120364285D02*
X163515771Y-120411904D01*
X163515771Y-120411904D02*
X163753866Y-120411904D01*
X163753866Y-120411904D02*
X163944342Y-120364285D01*
X163944342Y-120364285D02*
X164039580Y-120316666D01*
X164039580Y-120316666D02*
X164087200Y-120269047D01*
X164087200Y-120269047D02*
X164134819Y-120173809D01*
X164134819Y-120173809D02*
X164134819Y-120078571D01*
X164134819Y-120078571D02*
X164087200Y-119983333D01*
X164087200Y-119983333D02*
X164039580Y-119935714D01*
X164039580Y-119935714D02*
X163944342Y-119888095D01*
X163944342Y-119888095D02*
X163753866Y-119840476D01*
X163753866Y-119840476D02*
X163515771Y-119840476D01*
X163515771Y-119840476D02*
X163325295Y-119888095D01*
X163325295Y-119888095D02*
X163230057Y-119935714D01*
X163230057Y-119935714D02*
X163182438Y-119983333D01*
X163182438Y-119983333D02*
X163134819Y-120078571D01*
D13*
X162431927Y-119583333D02*
X162241451Y-119450000D01*
X162431927Y-119354762D02*
X162031927Y-119354762D01*
X162031927Y-119354762D02*
X162031927Y-119507143D01*
X162031927Y-119507143D02*
X162050975Y-119545238D01*
X162050975Y-119545238D02*
X162070022Y-119564285D01*
X162070022Y-119564285D02*
X162108118Y-119583333D01*
X162108118Y-119583333D02*
X162165260Y-119583333D01*
X162165260Y-119583333D02*
X162203356Y-119564285D01*
X162203356Y-119564285D02*
X162222403Y-119545238D01*
X162222403Y-119545238D02*
X162241451Y-119507143D01*
X162241451Y-119507143D02*
X162241451Y-119354762D01*
X162031927Y-119716666D02*
X162031927Y-119964285D01*
X162031927Y-119964285D02*
X162184308Y-119830952D01*
X162184308Y-119830952D02*
X162184308Y-119888095D01*
X162184308Y-119888095D02*
X162203356Y-119926190D01*
X162203356Y-119926190D02*
X162222403Y-119945238D01*
X162222403Y-119945238D02*
X162260499Y-119964285D01*
X162260499Y-119964285D02*
X162355737Y-119964285D01*
X162355737Y-119964285D02*
X162393832Y-119945238D01*
X162393832Y-119945238D02*
X162412880Y-119926190D01*
X162412880Y-119926190D02*
X162431927Y-119888095D01*
X162431927Y-119888095D02*
X162431927Y-119773809D01*
X162431927Y-119773809D02*
X162412880Y-119735714D01*
X162412880Y-119735714D02*
X162393832Y-119716666D01*
D10*
X181684819Y-109928571D02*
X181684819Y-109357143D01*
X181684819Y-109642857D02*
X180684819Y-109642857D01*
X180684819Y-109642857D02*
X180827676Y-109547619D01*
X180827676Y-109547619D02*
X180922914Y-109452381D01*
X180922914Y-109452381D02*
X180970533Y-109357143D01*
X180684819Y-110547619D02*
X180684819Y-110642857D01*
X180684819Y-110642857D02*
X180732438Y-110738095D01*
X180732438Y-110738095D02*
X180780057Y-110785714D01*
X180780057Y-110785714D02*
X180875295Y-110833333D01*
X180875295Y-110833333D02*
X181065771Y-110880952D01*
X181065771Y-110880952D02*
X181303866Y-110880952D01*
X181303866Y-110880952D02*
X181494342Y-110833333D01*
X181494342Y-110833333D02*
X181589580Y-110785714D01*
X181589580Y-110785714D02*
X181637200Y-110738095D01*
X181637200Y-110738095D02*
X181684819Y-110642857D01*
X181684819Y-110642857D02*
X181684819Y-110547619D01*
X181684819Y-110547619D02*
X181637200Y-110452381D01*
X181637200Y-110452381D02*
X181589580Y-110404762D01*
X181589580Y-110404762D02*
X181494342Y-110357143D01*
X181494342Y-110357143D02*
X181303866Y-110309524D01*
X181303866Y-110309524D02*
X181065771Y-110309524D01*
X181065771Y-110309524D02*
X180875295Y-110357143D01*
X180875295Y-110357143D02*
X180780057Y-110404762D01*
X180780057Y-110404762D02*
X180732438Y-110452381D01*
X180732438Y-110452381D02*
X180684819Y-110547619D01*
X180684819Y-111500000D02*
X180684819Y-111595238D01*
X180684819Y-111595238D02*
X180732438Y-111690476D01*
X180732438Y-111690476D02*
X180780057Y-111738095D01*
X180780057Y-111738095D02*
X180875295Y-111785714D01*
X180875295Y-111785714D02*
X181065771Y-111833333D01*
X181065771Y-111833333D02*
X181303866Y-111833333D01*
X181303866Y-111833333D02*
X181494342Y-111785714D01*
X181494342Y-111785714D02*
X181589580Y-111738095D01*
X181589580Y-111738095D02*
X181637200Y-111690476D01*
X181637200Y-111690476D02*
X181684819Y-111595238D01*
X181684819Y-111595238D02*
X181684819Y-111500000D01*
X181684819Y-111500000D02*
X181637200Y-111404762D01*
X181637200Y-111404762D02*
X181589580Y-111357143D01*
X181589580Y-111357143D02*
X181494342Y-111309524D01*
X181494342Y-111309524D02*
X181303866Y-111261905D01*
X181303866Y-111261905D02*
X181065771Y-111261905D01*
X181065771Y-111261905D02*
X180875295Y-111309524D01*
X180875295Y-111309524D02*
X180780057Y-111357143D01*
X180780057Y-111357143D02*
X180732438Y-111404762D01*
X180732438Y-111404762D02*
X180684819Y-111500000D01*
X181684819Y-112261905D02*
X180684819Y-112261905D01*
X181303866Y-112357143D02*
X181684819Y-112642857D01*
X181018152Y-112642857D02*
X181399104Y-112261905D01*
D14*
X182443332Y-111118200D02*
X182529999Y-110994391D01*
X182591904Y-111118200D02*
X182591904Y-110858200D01*
X182591904Y-110858200D02*
X182492856Y-110858200D01*
X182492856Y-110858200D02*
X182468094Y-110870581D01*
X182468094Y-110870581D02*
X182455713Y-110882962D01*
X182455713Y-110882962D02*
X182443332Y-110907724D01*
X182443332Y-110907724D02*
X182443332Y-110944867D01*
X182443332Y-110944867D02*
X182455713Y-110969629D01*
X182455713Y-110969629D02*
X182468094Y-110982010D01*
X182468094Y-110982010D02*
X182492856Y-110994391D01*
X182492856Y-110994391D02*
X182591904Y-110994391D01*
X182294761Y-110969629D02*
X182319523Y-110957248D01*
X182319523Y-110957248D02*
X182331904Y-110944867D01*
X182331904Y-110944867D02*
X182344285Y-110920105D01*
X182344285Y-110920105D02*
X182344285Y-110907724D01*
X182344285Y-110907724D02*
X182331904Y-110882962D01*
X182331904Y-110882962D02*
X182319523Y-110870581D01*
X182319523Y-110870581D02*
X182294761Y-110858200D01*
X182294761Y-110858200D02*
X182245237Y-110858200D01*
X182245237Y-110858200D02*
X182220475Y-110870581D01*
X182220475Y-110870581D02*
X182208094Y-110882962D01*
X182208094Y-110882962D02*
X182195713Y-110907724D01*
X182195713Y-110907724D02*
X182195713Y-110920105D01*
X182195713Y-110920105D02*
X182208094Y-110944867D01*
X182208094Y-110944867D02*
X182220475Y-110957248D01*
X182220475Y-110957248D02*
X182245237Y-110969629D01*
X182245237Y-110969629D02*
X182294761Y-110969629D01*
X182294761Y-110969629D02*
X182319523Y-110982010D01*
X182319523Y-110982010D02*
X182331904Y-110994391D01*
X182331904Y-110994391D02*
X182344285Y-111019153D01*
X182344285Y-111019153D02*
X182344285Y-111068677D01*
X182344285Y-111068677D02*
X182331904Y-111093439D01*
X182331904Y-111093439D02*
X182319523Y-111105820D01*
X182319523Y-111105820D02*
X182294761Y-111118200D01*
X182294761Y-111118200D02*
X182245237Y-111118200D01*
X182245237Y-111118200D02*
X182220475Y-111105820D01*
X182220475Y-111105820D02*
X182208094Y-111093439D01*
X182208094Y-111093439D02*
X182195713Y-111068677D01*
X182195713Y-111068677D02*
X182195713Y-111019153D01*
X182195713Y-111019153D02*
X182208094Y-110994391D01*
X182208094Y-110994391D02*
X182220475Y-110982010D01*
X182220475Y-110982010D02*
X182245237Y-110969629D01*
D10*
X177834819Y-107042857D02*
X177834819Y-106566667D01*
X177834819Y-106566667D02*
X178311009Y-106519048D01*
X178311009Y-106519048D02*
X178263390Y-106566667D01*
X178263390Y-106566667D02*
X178215771Y-106661905D01*
X178215771Y-106661905D02*
X178215771Y-106900000D01*
X178215771Y-106900000D02*
X178263390Y-106995238D01*
X178263390Y-106995238D02*
X178311009Y-107042857D01*
X178311009Y-107042857D02*
X178406247Y-107090476D01*
X178406247Y-107090476D02*
X178644342Y-107090476D01*
X178644342Y-107090476D02*
X178739580Y-107042857D01*
X178739580Y-107042857D02*
X178787200Y-106995238D01*
X178787200Y-106995238D02*
X178834819Y-106900000D01*
X178834819Y-106900000D02*
X178834819Y-106661905D01*
X178834819Y-106661905D02*
X178787200Y-106566667D01*
X178787200Y-106566667D02*
X178739580Y-106519048D01*
X177834819Y-107947619D02*
X177834819Y-107757143D01*
X177834819Y-107757143D02*
X177882438Y-107661905D01*
X177882438Y-107661905D02*
X177930057Y-107614286D01*
X177930057Y-107614286D02*
X178072914Y-107519048D01*
X178072914Y-107519048D02*
X178263390Y-107471429D01*
X178263390Y-107471429D02*
X178644342Y-107471429D01*
X178644342Y-107471429D02*
X178739580Y-107519048D01*
X178739580Y-107519048D02*
X178787200Y-107566667D01*
X178787200Y-107566667D02*
X178834819Y-107661905D01*
X178834819Y-107661905D02*
X178834819Y-107852381D01*
X178834819Y-107852381D02*
X178787200Y-107947619D01*
X178787200Y-107947619D02*
X178739580Y-107995238D01*
X178739580Y-107995238D02*
X178644342Y-108042857D01*
X178644342Y-108042857D02*
X178406247Y-108042857D01*
X178406247Y-108042857D02*
X178311009Y-107995238D01*
X178311009Y-107995238D02*
X178263390Y-107947619D01*
X178263390Y-107947619D02*
X178215771Y-107852381D01*
X178215771Y-107852381D02*
X178215771Y-107661905D01*
X178215771Y-107661905D02*
X178263390Y-107566667D01*
X178263390Y-107566667D02*
X178311009Y-107519048D01*
X178311009Y-107519048D02*
X178406247Y-107471429D01*
X178739580Y-108471429D02*
X178787200Y-108519048D01*
X178787200Y-108519048D02*
X178834819Y-108471429D01*
X178834819Y-108471429D02*
X178787200Y-108423810D01*
X178787200Y-108423810D02*
X178739580Y-108471429D01*
X178739580Y-108471429D02*
X178834819Y-108471429D01*
X177930057Y-108900000D02*
X177882438Y-108947619D01*
X177882438Y-108947619D02*
X177834819Y-109042857D01*
X177834819Y-109042857D02*
X177834819Y-109280952D01*
X177834819Y-109280952D02*
X177882438Y-109376190D01*
X177882438Y-109376190D02*
X177930057Y-109423809D01*
X177930057Y-109423809D02*
X178025295Y-109471428D01*
X178025295Y-109471428D02*
X178120533Y-109471428D01*
X178120533Y-109471428D02*
X178263390Y-109423809D01*
X178263390Y-109423809D02*
X178834819Y-108852381D01*
X178834819Y-108852381D02*
X178834819Y-109471428D01*
X178834819Y-109900000D02*
X177834819Y-109900000D01*
X178453866Y-109995238D02*
X178834819Y-110280952D01*
X178168152Y-110280952D02*
X178549104Y-109900000D01*
D14*
X179668200Y-108356667D02*
X179544391Y-108270000D01*
X179668200Y-108208095D02*
X179408200Y-108208095D01*
X179408200Y-108208095D02*
X179408200Y-108307143D01*
X179408200Y-108307143D02*
X179420581Y-108331905D01*
X179420581Y-108331905D02*
X179432962Y-108344286D01*
X179432962Y-108344286D02*
X179457724Y-108356667D01*
X179457724Y-108356667D02*
X179494867Y-108356667D01*
X179494867Y-108356667D02*
X179519629Y-108344286D01*
X179519629Y-108344286D02*
X179532010Y-108331905D01*
X179532010Y-108331905D02*
X179544391Y-108307143D01*
X179544391Y-108307143D02*
X179544391Y-108208095D01*
X179408200Y-108591905D02*
X179408200Y-108468095D01*
X179408200Y-108468095D02*
X179532010Y-108455714D01*
X179532010Y-108455714D02*
X179519629Y-108468095D01*
X179519629Y-108468095D02*
X179507248Y-108492857D01*
X179507248Y-108492857D02*
X179507248Y-108554762D01*
X179507248Y-108554762D02*
X179519629Y-108579524D01*
X179519629Y-108579524D02*
X179532010Y-108591905D01*
X179532010Y-108591905D02*
X179556772Y-108604286D01*
X179556772Y-108604286D02*
X179618677Y-108604286D01*
X179618677Y-108604286D02*
X179643439Y-108591905D01*
X179643439Y-108591905D02*
X179655820Y-108579524D01*
X179655820Y-108579524D02*
X179668200Y-108554762D01*
X179668200Y-108554762D02*
X179668200Y-108492857D01*
X179668200Y-108492857D02*
X179655820Y-108468095D01*
X179655820Y-108468095D02*
X179643439Y-108455714D01*
D10*
X170338095Y-118126133D02*
X170385714Y-118173752D01*
X170385714Y-118173752D02*
X170480952Y-118221371D01*
X170480952Y-118221371D02*
X170671428Y-118126133D01*
X170671428Y-118126133D02*
X170766666Y-118173752D01*
X170766666Y-118173752D02*
X170814285Y-118221371D01*
X169838095Y-117245180D02*
X170409523Y-117245180D01*
X170123809Y-116245180D02*
X170123809Y-117245180D01*
X171266666Y-116245180D02*
X170695238Y-116245180D01*
X170980952Y-116245180D02*
X170980952Y-117245180D01*
X170980952Y-117245180D02*
X170885714Y-117102323D01*
X170885714Y-117102323D02*
X170790476Y-117007085D01*
X170790476Y-117007085D02*
X170695238Y-116959466D01*
X171485957Y-116745180D02*
X169618804Y-116745180D01*
X184034819Y-109978571D02*
X184034819Y-109407143D01*
X184034819Y-109692857D02*
X183034819Y-109692857D01*
X183034819Y-109692857D02*
X183177676Y-109597619D01*
X183177676Y-109597619D02*
X183272914Y-109502381D01*
X183272914Y-109502381D02*
X183320533Y-109407143D01*
X183034819Y-110597619D02*
X183034819Y-110692857D01*
X183034819Y-110692857D02*
X183082438Y-110788095D01*
X183082438Y-110788095D02*
X183130057Y-110835714D01*
X183130057Y-110835714D02*
X183225295Y-110883333D01*
X183225295Y-110883333D02*
X183415771Y-110930952D01*
X183415771Y-110930952D02*
X183653866Y-110930952D01*
X183653866Y-110930952D02*
X183844342Y-110883333D01*
X183844342Y-110883333D02*
X183939580Y-110835714D01*
X183939580Y-110835714D02*
X183987200Y-110788095D01*
X183987200Y-110788095D02*
X184034819Y-110692857D01*
X184034819Y-110692857D02*
X184034819Y-110597619D01*
X184034819Y-110597619D02*
X183987200Y-110502381D01*
X183987200Y-110502381D02*
X183939580Y-110454762D01*
X183939580Y-110454762D02*
X183844342Y-110407143D01*
X183844342Y-110407143D02*
X183653866Y-110359524D01*
X183653866Y-110359524D02*
X183415771Y-110359524D01*
X183415771Y-110359524D02*
X183225295Y-110407143D01*
X183225295Y-110407143D02*
X183130057Y-110454762D01*
X183130057Y-110454762D02*
X183082438Y-110502381D01*
X183082438Y-110502381D02*
X183034819Y-110597619D01*
X183034819Y-111550000D02*
X183034819Y-111645238D01*
X183034819Y-111645238D02*
X183082438Y-111740476D01*
X183082438Y-111740476D02*
X183130057Y-111788095D01*
X183130057Y-111788095D02*
X183225295Y-111835714D01*
X183225295Y-111835714D02*
X183415771Y-111883333D01*
X183415771Y-111883333D02*
X183653866Y-111883333D01*
X183653866Y-111883333D02*
X183844342Y-111835714D01*
X183844342Y-111835714D02*
X183939580Y-111788095D01*
X183939580Y-111788095D02*
X183987200Y-111740476D01*
X183987200Y-111740476D02*
X184034819Y-111645238D01*
X184034819Y-111645238D02*
X184034819Y-111550000D01*
X184034819Y-111550000D02*
X183987200Y-111454762D01*
X183987200Y-111454762D02*
X183939580Y-111407143D01*
X183939580Y-111407143D02*
X183844342Y-111359524D01*
X183844342Y-111359524D02*
X183653866Y-111311905D01*
X183653866Y-111311905D02*
X183415771Y-111311905D01*
X183415771Y-111311905D02*
X183225295Y-111359524D01*
X183225295Y-111359524D02*
X183130057Y-111407143D01*
X183130057Y-111407143D02*
X183082438Y-111454762D01*
X183082438Y-111454762D02*
X183034819Y-111550000D01*
X184034819Y-112311905D02*
X183034819Y-112311905D01*
X183653866Y-112407143D02*
X184034819Y-112692857D01*
X183368152Y-112692857D02*
X183749104Y-112311905D01*
D14*
X184868200Y-111006667D02*
X184744391Y-110920000D01*
X184868200Y-110858095D02*
X184608200Y-110858095D01*
X184608200Y-110858095D02*
X184608200Y-110957143D01*
X184608200Y-110957143D02*
X184620581Y-110981905D01*
X184620581Y-110981905D02*
X184632962Y-110994286D01*
X184632962Y-110994286D02*
X184657724Y-111006667D01*
X184657724Y-111006667D02*
X184694867Y-111006667D01*
X184694867Y-111006667D02*
X184719629Y-110994286D01*
X184719629Y-110994286D02*
X184732010Y-110981905D01*
X184732010Y-110981905D02*
X184744391Y-110957143D01*
X184744391Y-110957143D02*
X184744391Y-110858095D01*
X184608200Y-111093333D02*
X184608200Y-111266667D01*
X184608200Y-111266667D02*
X184868200Y-111155238D01*
D10*
X163134819Y-116014285D02*
X163134819Y-115823809D01*
X163134819Y-115823809D02*
X163182438Y-115728571D01*
X163182438Y-115728571D02*
X163230057Y-115680952D01*
X163230057Y-115680952D02*
X163372914Y-115585714D01*
X163372914Y-115585714D02*
X163563390Y-115538095D01*
X163563390Y-115538095D02*
X163944342Y-115538095D01*
X163944342Y-115538095D02*
X164039580Y-115585714D01*
X164039580Y-115585714D02*
X164087200Y-115633333D01*
X164087200Y-115633333D02*
X164134819Y-115728571D01*
X164134819Y-115728571D02*
X164134819Y-115919047D01*
X164134819Y-115919047D02*
X164087200Y-116014285D01*
X164087200Y-116014285D02*
X164039580Y-116061904D01*
X164039580Y-116061904D02*
X163944342Y-116109523D01*
X163944342Y-116109523D02*
X163706247Y-116109523D01*
X163706247Y-116109523D02*
X163611009Y-116061904D01*
X163611009Y-116061904D02*
X163563390Y-116014285D01*
X163563390Y-116014285D02*
X163515771Y-115919047D01*
X163515771Y-115919047D02*
X163515771Y-115728571D01*
X163515771Y-115728571D02*
X163563390Y-115633333D01*
X163563390Y-115633333D02*
X163611009Y-115585714D01*
X163611009Y-115585714D02*
X163706247Y-115538095D01*
X163134819Y-116728571D02*
X163134819Y-116823809D01*
X163134819Y-116823809D02*
X163182438Y-116919047D01*
X163182438Y-116919047D02*
X163230057Y-116966666D01*
X163230057Y-116966666D02*
X163325295Y-117014285D01*
X163325295Y-117014285D02*
X163515771Y-117061904D01*
X163515771Y-117061904D02*
X163753866Y-117061904D01*
X163753866Y-117061904D02*
X163944342Y-117014285D01*
X163944342Y-117014285D02*
X164039580Y-116966666D01*
X164039580Y-116966666D02*
X164087200Y-116919047D01*
X164087200Y-116919047D02*
X164134819Y-116823809D01*
X164134819Y-116823809D02*
X164134819Y-116728571D01*
X164134819Y-116728571D02*
X164087200Y-116633333D01*
X164087200Y-116633333D02*
X164039580Y-116585714D01*
X164039580Y-116585714D02*
X163944342Y-116538095D01*
X163944342Y-116538095D02*
X163753866Y-116490476D01*
X163753866Y-116490476D02*
X163515771Y-116490476D01*
X163515771Y-116490476D02*
X163325295Y-116538095D01*
X163325295Y-116538095D02*
X163230057Y-116585714D01*
X163230057Y-116585714D02*
X163182438Y-116633333D01*
X163182438Y-116633333D02*
X163134819Y-116728571D01*
D13*
X162431927Y-116233333D02*
X162241451Y-116100000D01*
X162431927Y-116004762D02*
X162031927Y-116004762D01*
X162031927Y-116004762D02*
X162031927Y-116157143D01*
X162031927Y-116157143D02*
X162050975Y-116195238D01*
X162050975Y-116195238D02*
X162070022Y-116214285D01*
X162070022Y-116214285D02*
X162108118Y-116233333D01*
X162108118Y-116233333D02*
X162165260Y-116233333D01*
X162165260Y-116233333D02*
X162203356Y-116214285D01*
X162203356Y-116214285D02*
X162222403Y-116195238D01*
X162222403Y-116195238D02*
X162241451Y-116157143D01*
X162241451Y-116157143D02*
X162241451Y-116004762D01*
X162165260Y-116576190D02*
X162431927Y-116576190D01*
X162012880Y-116480952D02*
X162298594Y-116385714D01*
X162298594Y-116385714D02*
X162298594Y-116633333D01*
%TO.C,U5*%
D15*
X153951200Y-115741000D02*
X155056100Y-115741000D01*
X153951200Y-116249000D02*
X153951200Y-115741000D01*
X153951200Y-117011000D02*
X155056100Y-117011000D01*
X153951200Y-117519000D02*
X153951200Y-117011000D01*
X153951200Y-118281000D02*
X155056100Y-118281000D01*
X153951200Y-118789000D02*
X153951200Y-118281000D01*
X153951200Y-119551000D02*
X155056100Y-119551000D01*
X153951200Y-120059000D02*
X153951200Y-119551000D01*
X155056100Y-115398100D02*
X159043900Y-115398100D01*
X155056100Y-115741000D02*
X155056100Y-116249000D01*
X155056100Y-116249000D02*
X153951200Y-116249000D01*
X155056100Y-117011000D02*
X155056100Y-117519000D01*
X155056100Y-117519000D02*
X153951200Y-117519000D01*
X155056100Y-118281000D02*
X155056100Y-118789000D01*
X155056100Y-118789000D02*
X153951200Y-118789000D01*
X155056100Y-119551000D02*
X155056100Y-120059000D01*
X155056100Y-120059000D02*
X153951200Y-120059000D01*
X155056100Y-120401900D02*
X155056100Y-115398100D01*
X159043900Y-115398100D02*
X159043900Y-120401900D01*
X159043900Y-115741000D02*
X160148800Y-115741000D01*
X159043900Y-116249000D02*
X159043900Y-115741000D01*
X159043900Y-117011000D02*
X160148800Y-117011000D01*
X159043900Y-117519000D02*
X159043900Y-117011000D01*
X159043900Y-118281000D02*
X160148800Y-118281000D01*
X159043900Y-118789000D02*
X159043900Y-118281000D01*
X159043900Y-119551000D02*
X160148800Y-119551000D01*
X159043900Y-120059000D02*
X159043900Y-119551000D01*
X159043900Y-120401900D02*
X155056100Y-120401900D01*
X160148800Y-115741000D02*
X160148800Y-116249000D01*
X160148800Y-116249000D02*
X159043900Y-116249000D01*
X160148800Y-117011000D02*
X160148800Y-117519000D01*
X160148800Y-117519000D02*
X159043900Y-117519000D01*
X160148800Y-118281000D02*
X160148800Y-118789000D01*
X160148800Y-118789000D02*
X159043900Y-118789000D01*
X160148800Y-119551000D02*
X160148800Y-120059000D01*
X160148800Y-120059000D02*
X159043900Y-120059000D01*
X156745200Y-120401900D02*
G75*
G02*
X157354800Y-120401900I304800J0D01*
G01*
%TO.C,IC2*%
D16*
X191700000Y-109050000D02*
X191700000Y-110650000D01*
X191700000Y-110650000D02*
X194600000Y-110650000D01*
X192650000Y-109050000D02*
X191700000Y-110000000D01*
X194600000Y-109050000D02*
X191700000Y-109050000D01*
X194600000Y-110650000D02*
X194600000Y-109050000D01*
%TO.C,C2*%
X172400000Y-114650000D02*
X174000000Y-114650000D01*
X174000000Y-117850000D01*
X172400000Y-117850000D01*
X172400000Y-114650000D01*
%TO.C,R2*%
X197387500Y-110350000D02*
X198212500Y-110350000D01*
X198212500Y-111950000D01*
X197387500Y-111950000D01*
X197387500Y-110350000D01*
%TO.C,R11*%
X184400000Y-112950000D02*
X187600000Y-112950000D01*
X187600000Y-114550000D01*
X184400000Y-114550000D01*
X184400000Y-112950000D01*
%TO.C,R10*%
X175387500Y-94050000D02*
X176212500Y-94050000D01*
X176212500Y-95650000D01*
X175387500Y-95650000D01*
X175387500Y-94050000D01*
%TO.C,R1*%
X196700000Y-107837500D02*
X198300000Y-107837500D01*
X198300000Y-108662500D01*
X196700000Y-108662500D01*
X196700000Y-107837500D01*
%TO.C,C4*%
X204450000Y-108950000D02*
X206950000Y-108950000D01*
X206950000Y-112150000D01*
X204450000Y-112150000D01*
X204450000Y-108950000D01*
%TO.C,C3*%
X199750000Y-108950000D02*
X202250000Y-108950000D01*
X202250000Y-112150000D01*
X199750000Y-112150000D01*
X199750000Y-108950000D01*
%TO.C,C1*%
X189800000Y-110200000D02*
X190600000Y-110200000D01*
X190600000Y-111800000D01*
X189800000Y-111800000D01*
X189800000Y-110200000D01*
%TO.C,R9*%
X117700000Y-111787500D02*
X119300000Y-111787500D01*
X119300000Y-112612500D01*
X117700000Y-112612500D01*
X117700000Y-111787500D01*
%TO.C,R6*%
X186730000Y-107675000D02*
X187270000Y-107675000D01*
X187270000Y-108725000D01*
X186730000Y-108725000D01*
X186730000Y-107675000D01*
%TO.C,L1*%
X199150000Y-100350000D02*
X199150000Y-106950000D01*
X199150000Y-106950000D02*
X206250000Y-106950000D01*
X206250000Y-100350000D02*
X199150000Y-100350000D01*
X206250000Y-106950000D02*
X206250000Y-100350000D01*
%TO.C,R3*%
X161837500Y-118850000D02*
X162662500Y-118850000D01*
X162662500Y-120450000D01*
X161837500Y-120450000D01*
X161837500Y-118850000D01*
%TO.C,R8*%
X182130000Y-110475000D02*
X182670000Y-110475000D01*
X182670000Y-111525000D01*
X182130000Y-111525000D01*
X182130000Y-110475000D01*
%TO.C,R5*%
X179280000Y-107875000D02*
X179820000Y-107875000D01*
X179820000Y-108925000D01*
X179280000Y-108925000D01*
X179280000Y-107875000D01*
%TO.C,R7*%
X184480000Y-110525000D02*
X185020000Y-110525000D01*
X185020000Y-111575000D01*
X184480000Y-111575000D01*
X184480000Y-110525000D01*
%TO.C,R4*%
X161837500Y-115500000D02*
X162662500Y-115500000D01*
X162662500Y-117100000D01*
X161837500Y-117100000D01*
X161837500Y-115500000D01*
%TD*%
X168205000Y-119355000D02*
X172445000Y-122045000D01*
X172445000Y-119355000D02*
X168205000Y-122045000D01*
M02*
