%TF.GenerationSoftware,KiCad,Pcbnew,10.0.5*%
%TF.CreationDate,2026-10-01T17:42:10-04:00*%
%TF.ProjectId,DigitalDashDisplay2027,44696769-7461-46c4-9461-736844697370,rev?*%
%TF.SameCoordinates,Original*%
%TF.FileFunction,Legend,Bot*%
%TF.FilePolarity,Positive*%
%FSLAX46Y46*%
G04 Gerber Fmt 4.6, Leading zero omitted, Abs format (unit mm)*
G04 Created by KiCad (PCBNEW 10.0.5) date 2026-10-01 17:42:10*
%MOMM*%
%LPD*%
G01*
G04 APERTURE LIST*
G04 Aperture macros list*
%AMRoundRect*
0 Rectangle with rounded corners*
0 $1 Rounding radius*
0 $2 $3 $4 $5 $6 $7 $8 $9 X,Y pos of 4 corners*
0 Add a 4 corners polygon primitive as box body*
4,1,4,$2,$3,$4,$5,$6,$7,$8,$9,$2,$3,0*
0 Add four circle primitives for the rounded corners*
1,1,$1+$1,$2,$3*
1,1,$1+$1,$4,$5*
1,1,$1+$1,$6,$7*
1,1,$1+$1,$8,$9*
0 Add four rect primitives between the rounded corners*
20,1,$1+$1,$2,$3,$4,$5,0*
20,1,$1+$1,$4,$5,$6,$7,0*
20,1,$1+$1,$6,$7,$8,$9,0*
20,1,$1+$1,$8,$9,$2,$3,0*%
G04 Aperture macros list end*
%ADD10C,0.100000*%
%ADD11C,0.125000*%
%ADD12C,0.150000*%
%ADD13C,0.254000*%
%ADD14C,0.508000*%
%ADD15C,0.152400*%
%ADD16C,0.200000*%
%ADD17C,0.120000*%
%ADD18RoundRect,0.050800X0.889000X0.889000X-0.889000X0.889000X-0.889000X-0.889000X0.889000X-0.889000X0*%
%ADD19C,1.879600*%
%ADD20C,1.500000*%
%ADD21O,1.500000X1.500000*%
%ADD22C,1.524000*%
%ADD23C,1.600200*%
%ADD24C,1.404000*%
%ADD25C,1.304000*%
%ADD26C,0.804000*%
%ADD27R,1.000000X0.700000*%
%ADD28R,1.460500X0.558800*%
%ADD29R,0.600000X1.250000*%
%ADD30RoundRect,0.250000X-0.650000X0.412500X-0.650000X-0.412500X0.650000X-0.412500X0.650000X0.412500X0*%
%ADD31RoundRect,0.200000X-0.275000X0.200000X-0.275000X-0.200000X0.275000X-0.200000X0.275000X0.200000X0*%
%ADD32RoundRect,0.250000X0.312500X0.625000X-0.312500X0.625000X-0.312500X-0.625000X0.312500X-0.625000X0*%
%ADD33RoundRect,0.237500X-0.237500X0.250000X-0.237500X-0.250000X0.237500X-0.250000X0.237500X0.250000X0*%
%ADD34RoundRect,0.200000X0.200000X0.275000X-0.200000X0.275000X-0.200000X-0.275000X0.200000X-0.275000X0*%
%ADD35RoundRect,0.250000X-1.100000X0.325000X-1.100000X-0.325000X1.100000X-0.325000X1.100000X0.325000X0*%
%ADD36RoundRect,0.225000X0.250000X-0.225000X0.250000X0.225000X-0.250000X0.225000X-0.250000X-0.225000X0*%
%ADD37RoundRect,0.237500X-0.250000X-0.237500X0.250000X-0.237500X0.250000X0.237500X-0.250000X0.237500X0*%
%ADD38RoundRect,0.135000X0.185000X-0.135000X0.185000X0.135000X-0.185000X0.135000X-0.185000X-0.135000X0*%
%ADD39R,2.650000X3.100000*%
%ADD40R,1.050000X0.600000*%
G04 APERTURE END LIST*
D10*
X152200000Y-122650000D02*
X152200000Y-113100000D01*
X152200000Y-122650000D02*
X172950000Y-122650000D01*
X165500000Y-113100000D02*
X152200000Y-113100000D01*
X165500000Y-118800000D02*
X165500000Y-113100000D01*
X165500000Y-118800000D02*
X172950000Y-118800000D01*
X172950000Y-122650000D02*
X172950000Y-118800000D01*
X178100000Y-105800000D02*
X188900000Y-105800000D01*
X188900000Y-115925000D01*
X178100000Y-115925000D01*
X178100000Y-105800000D01*
X189200000Y-99300000D02*
X208900000Y-99300000D01*
X208900000Y-113150000D01*
X189200000Y-113150000D01*
X189200000Y-99300000D01*
D11*
X159958240Y-112425880D02*
X160005859Y-112473500D01*
X160005859Y-112473500D02*
X160148716Y-112521119D01*
X160148716Y-112521119D02*
X160243954Y-112521119D01*
X160243954Y-112521119D02*
X160386811Y-112473500D01*
X160386811Y-112473500D02*
X160482049Y-112378261D01*
X160482049Y-112378261D02*
X160529668Y-112283023D01*
X160529668Y-112283023D02*
X160577287Y-112092547D01*
X160577287Y-112092547D02*
X160577287Y-111949690D01*
X160577287Y-111949690D02*
X160529668Y-111759214D01*
X160529668Y-111759214D02*
X160482049Y-111663976D01*
X160482049Y-111663976D02*
X160386811Y-111568738D01*
X160386811Y-111568738D02*
X160243954Y-111521119D01*
X160243954Y-111521119D02*
X160148716Y-111521119D01*
X160148716Y-111521119D02*
X160005859Y-111568738D01*
X160005859Y-111568738D02*
X159958240Y-111616357D01*
X159577287Y-112235404D02*
X159101097Y-112235404D01*
X159672525Y-112521119D02*
X159339192Y-111521119D01*
X159339192Y-111521119D02*
X159005859Y-112521119D01*
X158672525Y-112521119D02*
X158672525Y-111521119D01*
X158672525Y-111521119D02*
X158101097Y-112521119D01*
X158101097Y-112521119D02*
X158101097Y-111521119D01*
X187808240Y-105275880D02*
X187855859Y-105323500D01*
X187855859Y-105323500D02*
X187998716Y-105371119D01*
X187998716Y-105371119D02*
X188093954Y-105371119D01*
X188093954Y-105371119D02*
X188236811Y-105323500D01*
X188236811Y-105323500D02*
X188332049Y-105228261D01*
X188332049Y-105228261D02*
X188379668Y-105133023D01*
X188379668Y-105133023D02*
X188427287Y-104942547D01*
X188427287Y-104942547D02*
X188427287Y-104799690D01*
X188427287Y-104799690D02*
X188379668Y-104609214D01*
X188379668Y-104609214D02*
X188332049Y-104513976D01*
X188332049Y-104513976D02*
X188236811Y-104418738D01*
X188236811Y-104418738D02*
X188093954Y-104371119D01*
X188093954Y-104371119D02*
X187998716Y-104371119D01*
X187998716Y-104371119D02*
X187855859Y-104418738D01*
X187855859Y-104418738D02*
X187808240Y-104466357D01*
X186951097Y-104704452D02*
X186951097Y-105371119D01*
X187379668Y-104704452D02*
X187379668Y-105228261D01*
X187379668Y-105228261D02*
X187332049Y-105323500D01*
X187332049Y-105323500D02*
X187236811Y-105371119D01*
X187236811Y-105371119D02*
X187093954Y-105371119D01*
X187093954Y-105371119D02*
X186998716Y-105323500D01*
X186998716Y-105323500D02*
X186951097Y-105275880D01*
X186474906Y-105371119D02*
X186474906Y-104704452D01*
X186474906Y-104894928D02*
X186427287Y-104799690D01*
X186427287Y-104799690D02*
X186379668Y-104752071D01*
X186379668Y-104752071D02*
X186284430Y-104704452D01*
X186284430Y-104704452D02*
X186189192Y-104704452D01*
X185855858Y-105371119D02*
X185855858Y-104704452D01*
X185855858Y-104894928D02*
X185808239Y-104799690D01*
X185808239Y-104799690D02*
X185760620Y-104752071D01*
X185760620Y-104752071D02*
X185665382Y-104704452D01*
X185665382Y-104704452D02*
X185570144Y-104704452D01*
X184855858Y-105323500D02*
X184951096Y-105371119D01*
X184951096Y-105371119D02*
X185141572Y-105371119D01*
X185141572Y-105371119D02*
X185236810Y-105323500D01*
X185236810Y-105323500D02*
X185284429Y-105228261D01*
X185284429Y-105228261D02*
X185284429Y-104847309D01*
X185284429Y-104847309D02*
X185236810Y-104752071D01*
X185236810Y-104752071D02*
X185141572Y-104704452D01*
X185141572Y-104704452D02*
X184951096Y-104704452D01*
X184951096Y-104704452D02*
X184855858Y-104752071D01*
X184855858Y-104752071D02*
X184808239Y-104847309D01*
X184808239Y-104847309D02*
X184808239Y-104942547D01*
X184808239Y-104942547D02*
X185284429Y-105037785D01*
X184379667Y-104704452D02*
X184379667Y-105371119D01*
X184379667Y-104799690D02*
X184332048Y-104752071D01*
X184332048Y-104752071D02*
X184236810Y-104704452D01*
X184236810Y-104704452D02*
X184093953Y-104704452D01*
X184093953Y-104704452D02*
X183998715Y-104752071D01*
X183998715Y-104752071D02*
X183951096Y-104847309D01*
X183951096Y-104847309D02*
X183951096Y-105371119D01*
X183617762Y-104704452D02*
X183236810Y-104704452D01*
X183474905Y-104371119D02*
X183474905Y-105228261D01*
X183474905Y-105228261D02*
X183427286Y-105323500D01*
X183427286Y-105323500D02*
X183332048Y-105371119D01*
X183332048Y-105371119D02*
X183236810Y-105371119D01*
X182189190Y-105323500D02*
X182046333Y-105371119D01*
X182046333Y-105371119D02*
X181808238Y-105371119D01*
X181808238Y-105371119D02*
X181713000Y-105323500D01*
X181713000Y-105323500D02*
X181665381Y-105275880D01*
X181665381Y-105275880D02*
X181617762Y-105180642D01*
X181617762Y-105180642D02*
X181617762Y-105085404D01*
X181617762Y-105085404D02*
X181665381Y-104990166D01*
X181665381Y-104990166D02*
X181713000Y-104942547D01*
X181713000Y-104942547D02*
X181808238Y-104894928D01*
X181808238Y-104894928D02*
X181998714Y-104847309D01*
X181998714Y-104847309D02*
X182093952Y-104799690D01*
X182093952Y-104799690D02*
X182141571Y-104752071D01*
X182141571Y-104752071D02*
X182189190Y-104656833D01*
X182189190Y-104656833D02*
X182189190Y-104561595D01*
X182189190Y-104561595D02*
X182141571Y-104466357D01*
X182141571Y-104466357D02*
X182093952Y-104418738D01*
X182093952Y-104418738D02*
X181998714Y-104371119D01*
X181998714Y-104371119D02*
X181760619Y-104371119D01*
X181760619Y-104371119D02*
X181617762Y-104418738D01*
X180808238Y-105323500D02*
X180903476Y-105371119D01*
X180903476Y-105371119D02*
X181093952Y-105371119D01*
X181093952Y-105371119D02*
X181189190Y-105323500D01*
X181189190Y-105323500D02*
X181236809Y-105228261D01*
X181236809Y-105228261D02*
X181236809Y-104847309D01*
X181236809Y-104847309D02*
X181189190Y-104752071D01*
X181189190Y-104752071D02*
X181093952Y-104704452D01*
X181093952Y-104704452D02*
X180903476Y-104704452D01*
X180903476Y-104704452D02*
X180808238Y-104752071D01*
X180808238Y-104752071D02*
X180760619Y-104847309D01*
X180760619Y-104847309D02*
X180760619Y-104942547D01*
X180760619Y-104942547D02*
X181236809Y-105037785D01*
X180332047Y-104704452D02*
X180332047Y-105371119D01*
X180332047Y-104799690D02*
X180284428Y-104752071D01*
X180284428Y-104752071D02*
X180189190Y-104704452D01*
X180189190Y-104704452D02*
X180046333Y-104704452D01*
X180046333Y-104704452D02*
X179951095Y-104752071D01*
X179951095Y-104752071D02*
X179903476Y-104847309D01*
X179903476Y-104847309D02*
X179903476Y-105371119D01*
X179474904Y-105323500D02*
X179379666Y-105371119D01*
X179379666Y-105371119D02*
X179189190Y-105371119D01*
X179189190Y-105371119D02*
X179093952Y-105323500D01*
X179093952Y-105323500D02*
X179046333Y-105228261D01*
X179046333Y-105228261D02*
X179046333Y-105180642D01*
X179046333Y-105180642D02*
X179093952Y-105085404D01*
X179093952Y-105085404D02*
X179189190Y-105037785D01*
X179189190Y-105037785D02*
X179332047Y-105037785D01*
X179332047Y-105037785D02*
X179427285Y-104990166D01*
X179427285Y-104990166D02*
X179474904Y-104894928D01*
X179474904Y-104894928D02*
X179474904Y-104847309D01*
X179474904Y-104847309D02*
X179427285Y-104752071D01*
X179427285Y-104752071D02*
X179332047Y-104704452D01*
X179332047Y-104704452D02*
X179189190Y-104704452D01*
X179189190Y-104704452D02*
X179093952Y-104752071D01*
X178236809Y-105323500D02*
X178332047Y-105371119D01*
X178332047Y-105371119D02*
X178522523Y-105371119D01*
X178522523Y-105371119D02*
X178617761Y-105323500D01*
X178617761Y-105323500D02*
X178665380Y-105228261D01*
X178665380Y-105228261D02*
X178665380Y-104847309D01*
X178665380Y-104847309D02*
X178617761Y-104752071D01*
X178617761Y-104752071D02*
X178522523Y-104704452D01*
X178522523Y-104704452D02*
X178332047Y-104704452D01*
X178332047Y-104704452D02*
X178236809Y-104752071D01*
X178236809Y-104752071D02*
X178189190Y-104847309D01*
X178189190Y-104847309D02*
X178189190Y-104942547D01*
X178189190Y-104942547D02*
X178665380Y-105037785D01*
X208396335Y-113947309D02*
X208253478Y-113994928D01*
X208253478Y-113994928D02*
X208205859Y-114042547D01*
X208205859Y-114042547D02*
X208158240Y-114137785D01*
X208158240Y-114137785D02*
X208158240Y-114280642D01*
X208158240Y-114280642D02*
X208205859Y-114375880D01*
X208205859Y-114375880D02*
X208253478Y-114423500D01*
X208253478Y-114423500D02*
X208348716Y-114471119D01*
X208348716Y-114471119D02*
X208729668Y-114471119D01*
X208729668Y-114471119D02*
X208729668Y-113471119D01*
X208729668Y-113471119D02*
X208396335Y-113471119D01*
X208396335Y-113471119D02*
X208301097Y-113518738D01*
X208301097Y-113518738D02*
X208253478Y-113566357D01*
X208253478Y-113566357D02*
X208205859Y-113661595D01*
X208205859Y-113661595D02*
X208205859Y-113756833D01*
X208205859Y-113756833D02*
X208253478Y-113852071D01*
X208253478Y-113852071D02*
X208301097Y-113899690D01*
X208301097Y-113899690D02*
X208396335Y-113947309D01*
X208396335Y-113947309D02*
X208729668Y-113947309D01*
X207729668Y-113471119D02*
X207729668Y-114280642D01*
X207729668Y-114280642D02*
X207682049Y-114375880D01*
X207682049Y-114375880D02*
X207634430Y-114423500D01*
X207634430Y-114423500D02*
X207539192Y-114471119D01*
X207539192Y-114471119D02*
X207348716Y-114471119D01*
X207348716Y-114471119D02*
X207253478Y-114423500D01*
X207253478Y-114423500D02*
X207205859Y-114375880D01*
X207205859Y-114375880D02*
X207158240Y-114280642D01*
X207158240Y-114280642D02*
X207158240Y-113471119D01*
X206110621Y-114375880D02*
X206158240Y-114423500D01*
X206158240Y-114423500D02*
X206301097Y-114471119D01*
X206301097Y-114471119D02*
X206396335Y-114471119D01*
X206396335Y-114471119D02*
X206539192Y-114423500D01*
X206539192Y-114423500D02*
X206634430Y-114328261D01*
X206634430Y-114328261D02*
X206682049Y-114233023D01*
X206682049Y-114233023D02*
X206729668Y-114042547D01*
X206729668Y-114042547D02*
X206729668Y-113899690D01*
X206729668Y-113899690D02*
X206682049Y-113709214D01*
X206682049Y-113709214D02*
X206634430Y-113613976D01*
X206634430Y-113613976D02*
X206539192Y-113518738D01*
X206539192Y-113518738D02*
X206396335Y-113471119D01*
X206396335Y-113471119D02*
X206301097Y-113471119D01*
X206301097Y-113471119D02*
X206158240Y-113518738D01*
X206158240Y-113518738D02*
X206110621Y-113566357D01*
X205682049Y-114471119D02*
X205682049Y-113471119D01*
X205110621Y-114471119D02*
X205539192Y-113899690D01*
X205110621Y-113471119D02*
X205682049Y-114042547D01*
X203396335Y-114471119D02*
X203967763Y-114471119D01*
X203682049Y-114471119D02*
X203682049Y-113471119D01*
X203682049Y-113471119D02*
X203777287Y-113613976D01*
X203777287Y-113613976D02*
X203872525Y-113709214D01*
X203872525Y-113709214D02*
X203967763Y-113756833D01*
X203015382Y-113566357D02*
X202967763Y-113518738D01*
X202967763Y-113518738D02*
X202872525Y-113471119D01*
X202872525Y-113471119D02*
X202634430Y-113471119D01*
X202634430Y-113471119D02*
X202539192Y-113518738D01*
X202539192Y-113518738D02*
X202491573Y-113566357D01*
X202491573Y-113566357D02*
X202443954Y-113661595D01*
X202443954Y-113661595D02*
X202443954Y-113756833D01*
X202443954Y-113756833D02*
X202491573Y-113899690D01*
X202491573Y-113899690D02*
X203063001Y-114471119D01*
X203063001Y-114471119D02*
X202443954Y-114471119D01*
X202158239Y-113471119D02*
X201824906Y-114471119D01*
X201824906Y-114471119D02*
X201491573Y-113471119D01*
X201158239Y-114090166D02*
X200396335Y-114090166D01*
X199920144Y-113804452D02*
X199158240Y-114090166D01*
X199158240Y-114090166D02*
X199920144Y-114375880D01*
X198205859Y-113471119D02*
X198682049Y-113471119D01*
X198682049Y-113471119D02*
X198729668Y-113947309D01*
X198729668Y-113947309D02*
X198682049Y-113899690D01*
X198682049Y-113899690D02*
X198586811Y-113852071D01*
X198586811Y-113852071D02*
X198348716Y-113852071D01*
X198348716Y-113852071D02*
X198253478Y-113899690D01*
X198253478Y-113899690D02*
X198205859Y-113947309D01*
X198205859Y-113947309D02*
X198158240Y-114042547D01*
X198158240Y-114042547D02*
X198158240Y-114280642D01*
X198158240Y-114280642D02*
X198205859Y-114375880D01*
X198205859Y-114375880D02*
X198253478Y-114423500D01*
X198253478Y-114423500D02*
X198348716Y-114471119D01*
X198348716Y-114471119D02*
X198586811Y-114471119D01*
X198586811Y-114471119D02*
X198682049Y-114423500D01*
X198682049Y-114423500D02*
X198729668Y-114375880D01*
X197872525Y-113471119D02*
X197539192Y-114471119D01*
X197539192Y-114471119D02*
X197205859Y-113471119D01*
D10*
X186892580Y-109661904D02*
X186892580Y-109090476D01*
X185892580Y-109376190D02*
X186892580Y-109376190D01*
X186797342Y-108804761D02*
X186844961Y-108757142D01*
X186844961Y-108757142D02*
X186892580Y-108661904D01*
X186892580Y-108661904D02*
X186892580Y-108423809D01*
X186892580Y-108423809D02*
X186844961Y-108328571D01*
X186844961Y-108328571D02*
X186797342Y-108280952D01*
X186797342Y-108280952D02*
X186702104Y-108233333D01*
X186702104Y-108233333D02*
X186606866Y-108233333D01*
X186606866Y-108233333D02*
X186464009Y-108280952D01*
X186464009Y-108280952D02*
X185892580Y-108852380D01*
X185892580Y-108852380D02*
X185892580Y-108233333D01*
X185677580Y-106253258D02*
X185439485Y-106253258D01*
X185534723Y-106491353D02*
X185439485Y-106253258D01*
X185439485Y-106253258D02*
X185534723Y-106015163D01*
X185249009Y-106396115D02*
X185439485Y-106253258D01*
X185439485Y-106253258D02*
X185249009Y-106110401D01*
D12*
X156288095Y-118445180D02*
X156288095Y-117635657D01*
X156288095Y-117635657D02*
X156335714Y-117540419D01*
X156335714Y-117540419D02*
X156383333Y-117492800D01*
X156383333Y-117492800D02*
X156478571Y-117445180D01*
X156478571Y-117445180D02*
X156669047Y-117445180D01*
X156669047Y-117445180D02*
X156764285Y-117492800D01*
X156764285Y-117492800D02*
X156811904Y-117540419D01*
X156811904Y-117540419D02*
X156859523Y-117635657D01*
X156859523Y-117635657D02*
X156859523Y-118445180D01*
X157811904Y-118445180D02*
X157335714Y-118445180D01*
X157335714Y-118445180D02*
X157288095Y-117968990D01*
X157288095Y-117968990D02*
X157335714Y-118016609D01*
X157335714Y-118016609D02*
X157430952Y-118064228D01*
X157430952Y-118064228D02*
X157669047Y-118064228D01*
X157669047Y-118064228D02*
X157764285Y-118016609D01*
X157764285Y-118016609D02*
X157811904Y-117968990D01*
X157811904Y-117968990D02*
X157859523Y-117873752D01*
X157859523Y-117873752D02*
X157859523Y-117635657D01*
X157859523Y-117635657D02*
X157811904Y-117540419D01*
X157811904Y-117540419D02*
X157764285Y-117492800D01*
X157764285Y-117492800D02*
X157669047Y-117445180D01*
X157669047Y-117445180D02*
X157430952Y-117445180D01*
X157430952Y-117445180D02*
X157335714Y-117492800D01*
X157335714Y-117492800D02*
X157288095Y-117540419D01*
X154071850Y-122051980D02*
X154071850Y-121813885D01*
X153833755Y-121909123D02*
X154071850Y-121813885D01*
X154071850Y-121813885D02*
X154309945Y-121909123D01*
X153928993Y-121623409D02*
X154071850Y-121813885D01*
X154071850Y-121813885D02*
X154214707Y-121623409D01*
X154071849Y-120961619D02*
X154071849Y-121199714D01*
X154309944Y-121104476D02*
X154071849Y-121199714D01*
X154071849Y-121199714D02*
X153833754Y-121104476D01*
X154214706Y-121390190D02*
X154071849Y-121199714D01*
X154071849Y-121199714D02*
X153928992Y-121390190D01*
D13*
X193724318Y-108610237D02*
X192454318Y-108610237D01*
X193603365Y-109940714D02*
X193663842Y-109880238D01*
X193663842Y-109880238D02*
X193724318Y-109698809D01*
X193724318Y-109698809D02*
X193724318Y-109577857D01*
X193724318Y-109577857D02*
X193663842Y-109396428D01*
X193663842Y-109396428D02*
X193542889Y-109275476D01*
X193542889Y-109275476D02*
X193421937Y-109214999D01*
X193421937Y-109214999D02*
X193180032Y-109154523D01*
X193180032Y-109154523D02*
X192998603Y-109154523D01*
X192998603Y-109154523D02*
X192756699Y-109214999D01*
X192756699Y-109214999D02*
X192635746Y-109275476D01*
X192635746Y-109275476D02*
X192514794Y-109396428D01*
X192514794Y-109396428D02*
X192454318Y-109577857D01*
X192454318Y-109577857D02*
X192454318Y-109698809D01*
X192454318Y-109698809D02*
X192514794Y-109880238D01*
X192514794Y-109880238D02*
X192575270Y-109940714D01*
X192575270Y-110424523D02*
X192514794Y-110484999D01*
X192514794Y-110484999D02*
X192454318Y-110605952D01*
X192454318Y-110605952D02*
X192454318Y-110908333D01*
X192454318Y-110908333D02*
X192514794Y-111029285D01*
X192514794Y-111029285D02*
X192575270Y-111089761D01*
X192575270Y-111089761D02*
X192696222Y-111150238D01*
X192696222Y-111150238D02*
X192817175Y-111150238D01*
X192817175Y-111150238D02*
X192998603Y-111089761D01*
X192998603Y-111089761D02*
X193724318Y-110364047D01*
X193724318Y-110364047D02*
X193724318Y-111150238D01*
D12*
X171709580Y-116083333D02*
X171757200Y-116035714D01*
X171757200Y-116035714D02*
X171804819Y-115892857D01*
X171804819Y-115892857D02*
X171804819Y-115797619D01*
X171804819Y-115797619D02*
X171757200Y-115654762D01*
X171757200Y-115654762D02*
X171661961Y-115559524D01*
X171661961Y-115559524D02*
X171566723Y-115511905D01*
X171566723Y-115511905D02*
X171376247Y-115464286D01*
X171376247Y-115464286D02*
X171233390Y-115464286D01*
X171233390Y-115464286D02*
X171042914Y-115511905D01*
X171042914Y-115511905D02*
X170947676Y-115559524D01*
X170947676Y-115559524D02*
X170852438Y-115654762D01*
X170852438Y-115654762D02*
X170804819Y-115797619D01*
X170804819Y-115797619D02*
X170804819Y-115892857D01*
X170804819Y-115892857D02*
X170852438Y-116035714D01*
X170852438Y-116035714D02*
X170900057Y-116083333D01*
X170900057Y-116464286D02*
X170852438Y-116511905D01*
X170852438Y-116511905D02*
X170804819Y-116607143D01*
X170804819Y-116607143D02*
X170804819Y-116845238D01*
X170804819Y-116845238D02*
X170852438Y-116940476D01*
X170852438Y-116940476D02*
X170900057Y-116988095D01*
X170900057Y-116988095D02*
X170995295Y-117035714D01*
X170995295Y-117035714D02*
X171090533Y-117035714D01*
X171090533Y-117035714D02*
X171233390Y-116988095D01*
X171233390Y-116988095D02*
X171804819Y-116416667D01*
X171804819Y-116416667D02*
X171804819Y-117035714D01*
X196824819Y-110983333D02*
X196348628Y-110650000D01*
X196824819Y-110411905D02*
X195824819Y-110411905D01*
X195824819Y-110411905D02*
X195824819Y-110792857D01*
X195824819Y-110792857D02*
X195872438Y-110888095D01*
X195872438Y-110888095D02*
X195920057Y-110935714D01*
X195920057Y-110935714D02*
X196015295Y-110983333D01*
X196015295Y-110983333D02*
X196158152Y-110983333D01*
X196158152Y-110983333D02*
X196253390Y-110935714D01*
X196253390Y-110935714D02*
X196301009Y-110888095D01*
X196301009Y-110888095D02*
X196348628Y-110792857D01*
X196348628Y-110792857D02*
X196348628Y-110411905D01*
X195920057Y-111364286D02*
X195872438Y-111411905D01*
X195872438Y-111411905D02*
X195824819Y-111507143D01*
X195824819Y-111507143D02*
X195824819Y-111745238D01*
X195824819Y-111745238D02*
X195872438Y-111840476D01*
X195872438Y-111840476D02*
X195920057Y-111888095D01*
X195920057Y-111888095D02*
X196015295Y-111935714D01*
X196015295Y-111935714D02*
X196110533Y-111935714D01*
X196110533Y-111935714D02*
X196253390Y-111888095D01*
X196253390Y-111888095D02*
X196824819Y-111316667D01*
X196824819Y-111316667D02*
X196824819Y-111935714D01*
X186592857Y-115804819D02*
X186926190Y-115328628D01*
X187164285Y-115804819D02*
X187164285Y-114804819D01*
X187164285Y-114804819D02*
X186783333Y-114804819D01*
X186783333Y-114804819D02*
X186688095Y-114852438D01*
X186688095Y-114852438D02*
X186640476Y-114900057D01*
X186640476Y-114900057D02*
X186592857Y-114995295D01*
X186592857Y-114995295D02*
X186592857Y-115138152D01*
X186592857Y-115138152D02*
X186640476Y-115233390D01*
X186640476Y-115233390D02*
X186688095Y-115281009D01*
X186688095Y-115281009D02*
X186783333Y-115328628D01*
X186783333Y-115328628D02*
X187164285Y-115328628D01*
X185640476Y-115804819D02*
X186211904Y-115804819D01*
X185926190Y-115804819D02*
X185926190Y-114804819D01*
X185926190Y-114804819D02*
X186021428Y-114947676D01*
X186021428Y-114947676D02*
X186116666Y-115042914D01*
X186116666Y-115042914D02*
X186211904Y-115090533D01*
X184688095Y-115804819D02*
X185259523Y-115804819D01*
X184973809Y-115804819D02*
X184973809Y-114804819D01*
X184973809Y-114804819D02*
X185069047Y-114947676D01*
X185069047Y-114947676D02*
X185164285Y-115042914D01*
X185164285Y-115042914D02*
X185259523Y-115090533D01*
X174824819Y-94207142D02*
X174348628Y-93873809D01*
X174824819Y-93635714D02*
X173824819Y-93635714D01*
X173824819Y-93635714D02*
X173824819Y-94016666D01*
X173824819Y-94016666D02*
X173872438Y-94111904D01*
X173872438Y-94111904D02*
X173920057Y-94159523D01*
X173920057Y-94159523D02*
X174015295Y-94207142D01*
X174015295Y-94207142D02*
X174158152Y-94207142D01*
X174158152Y-94207142D02*
X174253390Y-94159523D01*
X174253390Y-94159523D02*
X174301009Y-94111904D01*
X174301009Y-94111904D02*
X174348628Y-94016666D01*
X174348628Y-94016666D02*
X174348628Y-93635714D01*
X174824819Y-95159523D02*
X174824819Y-94588095D01*
X174824819Y-94873809D02*
X173824819Y-94873809D01*
X173824819Y-94873809D02*
X173967676Y-94778571D01*
X173967676Y-94778571D02*
X174062914Y-94683333D01*
X174062914Y-94683333D02*
X174110533Y-94588095D01*
X173824819Y-95778571D02*
X173824819Y-95873809D01*
X173824819Y-95873809D02*
X173872438Y-95969047D01*
X173872438Y-95969047D02*
X173920057Y-96016666D01*
X173920057Y-96016666D02*
X174015295Y-96064285D01*
X174015295Y-96064285D02*
X174205771Y-96111904D01*
X174205771Y-96111904D02*
X174443866Y-96111904D01*
X174443866Y-96111904D02*
X174634342Y-96064285D01*
X174634342Y-96064285D02*
X174729580Y-96016666D01*
X174729580Y-96016666D02*
X174777200Y-95969047D01*
X174777200Y-95969047D02*
X174824819Y-95873809D01*
X174824819Y-95873809D02*
X174824819Y-95778571D01*
X174824819Y-95778571D02*
X174777200Y-95683333D01*
X174777200Y-95683333D02*
X174729580Y-95635714D01*
X174729580Y-95635714D02*
X174634342Y-95588095D01*
X174634342Y-95588095D02*
X174443866Y-95540476D01*
X174443866Y-95540476D02*
X174205771Y-95540476D01*
X174205771Y-95540476D02*
X174015295Y-95588095D01*
X174015295Y-95588095D02*
X173920057Y-95635714D01*
X173920057Y-95635714D02*
X173872438Y-95683333D01*
X173872438Y-95683333D02*
X173824819Y-95778571D01*
X197366666Y-107254819D02*
X197699999Y-106778628D01*
X197938094Y-107254819D02*
X197938094Y-106254819D01*
X197938094Y-106254819D02*
X197557142Y-106254819D01*
X197557142Y-106254819D02*
X197461904Y-106302438D01*
X197461904Y-106302438D02*
X197414285Y-106350057D01*
X197414285Y-106350057D02*
X197366666Y-106445295D01*
X197366666Y-106445295D02*
X197366666Y-106588152D01*
X197366666Y-106588152D02*
X197414285Y-106683390D01*
X197414285Y-106683390D02*
X197461904Y-106731009D01*
X197461904Y-106731009D02*
X197557142Y-106778628D01*
X197557142Y-106778628D02*
X197938094Y-106778628D01*
X196414285Y-107254819D02*
X196985713Y-107254819D01*
X196699999Y-107254819D02*
X196699999Y-106254819D01*
X196699999Y-106254819D02*
X196795237Y-106397676D01*
X196795237Y-106397676D02*
X196890475Y-106492914D01*
X196890475Y-106492914D02*
X196985713Y-106540533D01*
X208559580Y-110483333D02*
X208607200Y-110435714D01*
X208607200Y-110435714D02*
X208654819Y-110292857D01*
X208654819Y-110292857D02*
X208654819Y-110197619D01*
X208654819Y-110197619D02*
X208607200Y-110054762D01*
X208607200Y-110054762D02*
X208511961Y-109959524D01*
X208511961Y-109959524D02*
X208416723Y-109911905D01*
X208416723Y-109911905D02*
X208226247Y-109864286D01*
X208226247Y-109864286D02*
X208083390Y-109864286D01*
X208083390Y-109864286D02*
X207892914Y-109911905D01*
X207892914Y-109911905D02*
X207797676Y-109959524D01*
X207797676Y-109959524D02*
X207702438Y-110054762D01*
X207702438Y-110054762D02*
X207654819Y-110197619D01*
X207654819Y-110197619D02*
X207654819Y-110292857D01*
X207654819Y-110292857D02*
X207702438Y-110435714D01*
X207702438Y-110435714D02*
X207750057Y-110483333D01*
X207988152Y-111340476D02*
X208654819Y-111340476D01*
X207607200Y-111102381D02*
X208321485Y-110864286D01*
X208321485Y-110864286D02*
X208321485Y-111483333D01*
X203859580Y-110483333D02*
X203907200Y-110435714D01*
X203907200Y-110435714D02*
X203954819Y-110292857D01*
X203954819Y-110292857D02*
X203954819Y-110197619D01*
X203954819Y-110197619D02*
X203907200Y-110054762D01*
X203907200Y-110054762D02*
X203811961Y-109959524D01*
X203811961Y-109959524D02*
X203716723Y-109911905D01*
X203716723Y-109911905D02*
X203526247Y-109864286D01*
X203526247Y-109864286D02*
X203383390Y-109864286D01*
X203383390Y-109864286D02*
X203192914Y-109911905D01*
X203192914Y-109911905D02*
X203097676Y-109959524D01*
X203097676Y-109959524D02*
X203002438Y-110054762D01*
X203002438Y-110054762D02*
X202954819Y-110197619D01*
X202954819Y-110197619D02*
X202954819Y-110292857D01*
X202954819Y-110292857D02*
X203002438Y-110435714D01*
X203002438Y-110435714D02*
X203050057Y-110483333D01*
X202954819Y-110816667D02*
X202954819Y-111435714D01*
X202954819Y-111435714D02*
X203335771Y-111102381D01*
X203335771Y-111102381D02*
X203335771Y-111245238D01*
X203335771Y-111245238D02*
X203383390Y-111340476D01*
X203383390Y-111340476D02*
X203431009Y-111388095D01*
X203431009Y-111388095D02*
X203526247Y-111435714D01*
X203526247Y-111435714D02*
X203764342Y-111435714D01*
X203764342Y-111435714D02*
X203859580Y-111388095D01*
X203859580Y-111388095D02*
X203907200Y-111340476D01*
X203907200Y-111340476D02*
X203954819Y-111245238D01*
X203954819Y-111245238D02*
X203954819Y-110959524D01*
X203954819Y-110959524D02*
X203907200Y-110864286D01*
X203907200Y-110864286D02*
X203859580Y-110816667D01*
X190559580Y-108433333D02*
X190607200Y-108385714D01*
X190607200Y-108385714D02*
X190654819Y-108242857D01*
X190654819Y-108242857D02*
X190654819Y-108147619D01*
X190654819Y-108147619D02*
X190607200Y-108004762D01*
X190607200Y-108004762D02*
X190511961Y-107909524D01*
X190511961Y-107909524D02*
X190416723Y-107861905D01*
X190416723Y-107861905D02*
X190226247Y-107814286D01*
X190226247Y-107814286D02*
X190083390Y-107814286D01*
X190083390Y-107814286D02*
X189892914Y-107861905D01*
X189892914Y-107861905D02*
X189797676Y-107909524D01*
X189797676Y-107909524D02*
X189702438Y-108004762D01*
X189702438Y-108004762D02*
X189654819Y-108147619D01*
X189654819Y-108147619D02*
X189654819Y-108242857D01*
X189654819Y-108242857D02*
X189702438Y-108385714D01*
X189702438Y-108385714D02*
X189750057Y-108433333D01*
X190654819Y-109385714D02*
X190654819Y-108814286D01*
X190654819Y-109100000D02*
X189654819Y-109100000D01*
X189654819Y-109100000D02*
X189797676Y-109004762D01*
X189797676Y-109004762D02*
X189892914Y-108909524D01*
X189892914Y-108909524D02*
X189940533Y-108814286D01*
X118666666Y-114084819D02*
X118999999Y-113608628D01*
X119238094Y-114084819D02*
X119238094Y-113084819D01*
X119238094Y-113084819D02*
X118857142Y-113084819D01*
X118857142Y-113084819D02*
X118761904Y-113132438D01*
X118761904Y-113132438D02*
X118714285Y-113180057D01*
X118714285Y-113180057D02*
X118666666Y-113275295D01*
X118666666Y-113275295D02*
X118666666Y-113418152D01*
X118666666Y-113418152D02*
X118714285Y-113513390D01*
X118714285Y-113513390D02*
X118761904Y-113561009D01*
X118761904Y-113561009D02*
X118857142Y-113608628D01*
X118857142Y-113608628D02*
X119238094Y-113608628D01*
X118190475Y-114084819D02*
X117999999Y-114084819D01*
X117999999Y-114084819D02*
X117904761Y-114037200D01*
X117904761Y-114037200D02*
X117857142Y-113989580D01*
X117857142Y-113989580D02*
X117761904Y-113846723D01*
X117761904Y-113846723D02*
X117714285Y-113656247D01*
X117714285Y-113656247D02*
X117714285Y-113275295D01*
X117714285Y-113275295D02*
X117761904Y-113180057D01*
X117761904Y-113180057D02*
X117809523Y-113132438D01*
X117809523Y-113132438D02*
X117904761Y-113084819D01*
X117904761Y-113084819D02*
X118095237Y-113084819D01*
X118095237Y-113084819D02*
X118190475Y-113132438D01*
X118190475Y-113132438D02*
X118238094Y-113180057D01*
X118238094Y-113180057D02*
X118285713Y-113275295D01*
X118285713Y-113275295D02*
X118285713Y-113513390D01*
X118285713Y-113513390D02*
X118238094Y-113608628D01*
X118238094Y-113608628D02*
X118190475Y-113656247D01*
X118190475Y-113656247D02*
X118095237Y-113703866D01*
X118095237Y-113703866D02*
X117904761Y-113703866D01*
X117904761Y-113703866D02*
X117809523Y-113656247D01*
X117809523Y-113656247D02*
X117761904Y-113608628D01*
X117761904Y-113608628D02*
X117714285Y-113513390D01*
X188624819Y-108033333D02*
X188148628Y-107700000D01*
X188624819Y-107461905D02*
X187624819Y-107461905D01*
X187624819Y-107461905D02*
X187624819Y-107842857D01*
X187624819Y-107842857D02*
X187672438Y-107938095D01*
X187672438Y-107938095D02*
X187720057Y-107985714D01*
X187720057Y-107985714D02*
X187815295Y-108033333D01*
X187815295Y-108033333D02*
X187958152Y-108033333D01*
X187958152Y-108033333D02*
X188053390Y-107985714D01*
X188053390Y-107985714D02*
X188101009Y-107938095D01*
X188101009Y-107938095D02*
X188148628Y-107842857D01*
X188148628Y-107842857D02*
X188148628Y-107461905D01*
X187624819Y-108890476D02*
X187624819Y-108700000D01*
X187624819Y-108700000D02*
X187672438Y-108604762D01*
X187672438Y-108604762D02*
X187720057Y-108557143D01*
X187720057Y-108557143D02*
X187862914Y-108461905D01*
X187862914Y-108461905D02*
X188053390Y-108414286D01*
X188053390Y-108414286D02*
X188434342Y-108414286D01*
X188434342Y-108414286D02*
X188529580Y-108461905D01*
X188529580Y-108461905D02*
X188577200Y-108509524D01*
X188577200Y-108509524D02*
X188624819Y-108604762D01*
X188624819Y-108604762D02*
X188624819Y-108795238D01*
X188624819Y-108795238D02*
X188577200Y-108890476D01*
X188577200Y-108890476D02*
X188529580Y-108938095D01*
X188529580Y-108938095D02*
X188434342Y-108985714D01*
X188434342Y-108985714D02*
X188196247Y-108985714D01*
X188196247Y-108985714D02*
X188101009Y-108938095D01*
X188101009Y-108938095D02*
X188053390Y-108890476D01*
X188053390Y-108890476D02*
X188005771Y-108795238D01*
X188005771Y-108795238D02*
X188005771Y-108604762D01*
X188005771Y-108604762D02*
X188053390Y-108509524D01*
X188053390Y-108509524D02*
X188101009Y-108461905D01*
X188101009Y-108461905D02*
X188196247Y-108414286D01*
D13*
X202911666Y-104224318D02*
X203516428Y-104224318D01*
X203516428Y-104224318D02*
X203516428Y-102954318D01*
X201823094Y-104224318D02*
X202548809Y-104224318D01*
X202185952Y-104224318D02*
X202185952Y-102954318D01*
X202185952Y-102954318D02*
X202306904Y-103135746D01*
X202306904Y-103135746D02*
X202427856Y-103256699D01*
X202427856Y-103256699D02*
X202548809Y-103317175D01*
D12*
X164304819Y-119483333D02*
X163828628Y-119150000D01*
X164304819Y-118911905D02*
X163304819Y-118911905D01*
X163304819Y-118911905D02*
X163304819Y-119292857D01*
X163304819Y-119292857D02*
X163352438Y-119388095D01*
X163352438Y-119388095D02*
X163400057Y-119435714D01*
X163400057Y-119435714D02*
X163495295Y-119483333D01*
X163495295Y-119483333D02*
X163638152Y-119483333D01*
X163638152Y-119483333D02*
X163733390Y-119435714D01*
X163733390Y-119435714D02*
X163781009Y-119388095D01*
X163781009Y-119388095D02*
X163828628Y-119292857D01*
X163828628Y-119292857D02*
X163828628Y-118911905D01*
X163304819Y-119816667D02*
X163304819Y-120435714D01*
X163304819Y-120435714D02*
X163685771Y-120102381D01*
X163685771Y-120102381D02*
X163685771Y-120245238D01*
X163685771Y-120245238D02*
X163733390Y-120340476D01*
X163733390Y-120340476D02*
X163781009Y-120388095D01*
X163781009Y-120388095D02*
X163876247Y-120435714D01*
X163876247Y-120435714D02*
X164114342Y-120435714D01*
X164114342Y-120435714D02*
X164209580Y-120388095D01*
X164209580Y-120388095D02*
X164257200Y-120340476D01*
X164257200Y-120340476D02*
X164304819Y-120245238D01*
X164304819Y-120245238D02*
X164304819Y-119959524D01*
X164304819Y-119959524D02*
X164257200Y-119864286D01*
X164257200Y-119864286D02*
X164209580Y-119816667D01*
X184024819Y-110833333D02*
X183548628Y-110500000D01*
X184024819Y-110261905D02*
X183024819Y-110261905D01*
X183024819Y-110261905D02*
X183024819Y-110642857D01*
X183024819Y-110642857D02*
X183072438Y-110738095D01*
X183072438Y-110738095D02*
X183120057Y-110785714D01*
X183120057Y-110785714D02*
X183215295Y-110833333D01*
X183215295Y-110833333D02*
X183358152Y-110833333D01*
X183358152Y-110833333D02*
X183453390Y-110785714D01*
X183453390Y-110785714D02*
X183501009Y-110738095D01*
X183501009Y-110738095D02*
X183548628Y-110642857D01*
X183548628Y-110642857D02*
X183548628Y-110261905D01*
X183453390Y-111404762D02*
X183405771Y-111309524D01*
X183405771Y-111309524D02*
X183358152Y-111261905D01*
X183358152Y-111261905D02*
X183262914Y-111214286D01*
X183262914Y-111214286D02*
X183215295Y-111214286D01*
X183215295Y-111214286D02*
X183120057Y-111261905D01*
X183120057Y-111261905D02*
X183072438Y-111309524D01*
X183072438Y-111309524D02*
X183024819Y-111404762D01*
X183024819Y-111404762D02*
X183024819Y-111595238D01*
X183024819Y-111595238D02*
X183072438Y-111690476D01*
X183072438Y-111690476D02*
X183120057Y-111738095D01*
X183120057Y-111738095D02*
X183215295Y-111785714D01*
X183215295Y-111785714D02*
X183262914Y-111785714D01*
X183262914Y-111785714D02*
X183358152Y-111738095D01*
X183358152Y-111738095D02*
X183405771Y-111690476D01*
X183405771Y-111690476D02*
X183453390Y-111595238D01*
X183453390Y-111595238D02*
X183453390Y-111404762D01*
X183453390Y-111404762D02*
X183501009Y-111309524D01*
X183501009Y-111309524D02*
X183548628Y-111261905D01*
X183548628Y-111261905D02*
X183643866Y-111214286D01*
X183643866Y-111214286D02*
X183834342Y-111214286D01*
X183834342Y-111214286D02*
X183929580Y-111261905D01*
X183929580Y-111261905D02*
X183977200Y-111309524D01*
X183977200Y-111309524D02*
X184024819Y-111404762D01*
X184024819Y-111404762D02*
X184024819Y-111595238D01*
X184024819Y-111595238D02*
X183977200Y-111690476D01*
X183977200Y-111690476D02*
X183929580Y-111738095D01*
X183929580Y-111738095D02*
X183834342Y-111785714D01*
X183834342Y-111785714D02*
X183643866Y-111785714D01*
X183643866Y-111785714D02*
X183548628Y-111738095D01*
X183548628Y-111738095D02*
X183501009Y-111690476D01*
X183501009Y-111690476D02*
X183453390Y-111595238D01*
X181174819Y-108233333D02*
X180698628Y-107900000D01*
X181174819Y-107661905D02*
X180174819Y-107661905D01*
X180174819Y-107661905D02*
X180174819Y-108042857D01*
X180174819Y-108042857D02*
X180222438Y-108138095D01*
X180222438Y-108138095D02*
X180270057Y-108185714D01*
X180270057Y-108185714D02*
X180365295Y-108233333D01*
X180365295Y-108233333D02*
X180508152Y-108233333D01*
X180508152Y-108233333D02*
X180603390Y-108185714D01*
X180603390Y-108185714D02*
X180651009Y-108138095D01*
X180651009Y-108138095D02*
X180698628Y-108042857D01*
X180698628Y-108042857D02*
X180698628Y-107661905D01*
X180174819Y-109138095D02*
X180174819Y-108661905D01*
X180174819Y-108661905D02*
X180651009Y-108614286D01*
X180651009Y-108614286D02*
X180603390Y-108661905D01*
X180603390Y-108661905D02*
X180555771Y-108757143D01*
X180555771Y-108757143D02*
X180555771Y-108995238D01*
X180555771Y-108995238D02*
X180603390Y-109090476D01*
X180603390Y-109090476D02*
X180651009Y-109138095D01*
X180651009Y-109138095D02*
X180746247Y-109185714D01*
X180746247Y-109185714D02*
X180984342Y-109185714D01*
X180984342Y-109185714D02*
X181079580Y-109138095D01*
X181079580Y-109138095D02*
X181127200Y-109090476D01*
X181127200Y-109090476D02*
X181174819Y-108995238D01*
X181174819Y-108995238D02*
X181174819Y-108757143D01*
X181174819Y-108757143D02*
X181127200Y-108661905D01*
X181127200Y-108661905D02*
X181079580Y-108614286D01*
D10*
X169563095Y-121242580D02*
X170134523Y-121242580D01*
X169848809Y-120242580D02*
X169848809Y-121242580D01*
X170991666Y-120242580D02*
X170420238Y-120242580D01*
X170705952Y-120242580D02*
X170705952Y-121242580D01*
X170705952Y-121242580D02*
X170610714Y-121099723D01*
X170610714Y-121099723D02*
X170515476Y-121004485D01*
X170515476Y-121004485D02*
X170420238Y-120956866D01*
D12*
X186374819Y-110883333D02*
X185898628Y-110550000D01*
X186374819Y-110311905D02*
X185374819Y-110311905D01*
X185374819Y-110311905D02*
X185374819Y-110692857D01*
X185374819Y-110692857D02*
X185422438Y-110788095D01*
X185422438Y-110788095D02*
X185470057Y-110835714D01*
X185470057Y-110835714D02*
X185565295Y-110883333D01*
X185565295Y-110883333D02*
X185708152Y-110883333D01*
X185708152Y-110883333D02*
X185803390Y-110835714D01*
X185803390Y-110835714D02*
X185851009Y-110788095D01*
X185851009Y-110788095D02*
X185898628Y-110692857D01*
X185898628Y-110692857D02*
X185898628Y-110311905D01*
X185374819Y-111216667D02*
X185374819Y-111883333D01*
X185374819Y-111883333D02*
X186374819Y-111454762D01*
X164304819Y-116133333D02*
X163828628Y-115800000D01*
X164304819Y-115561905D02*
X163304819Y-115561905D01*
X163304819Y-115561905D02*
X163304819Y-115942857D01*
X163304819Y-115942857D02*
X163352438Y-116038095D01*
X163352438Y-116038095D02*
X163400057Y-116085714D01*
X163400057Y-116085714D02*
X163495295Y-116133333D01*
X163495295Y-116133333D02*
X163638152Y-116133333D01*
X163638152Y-116133333D02*
X163733390Y-116085714D01*
X163733390Y-116085714D02*
X163781009Y-116038095D01*
X163781009Y-116038095D02*
X163828628Y-115942857D01*
X163828628Y-115942857D02*
X163828628Y-115561905D01*
X163638152Y-116990476D02*
X164304819Y-116990476D01*
X163257200Y-116752381D02*
X163971485Y-116514286D01*
X163971485Y-116514286D02*
X163971485Y-117133333D01*
%TO.C,U2*%
D14*
X175413600Y-117800000D02*
G75*
G02*
X174651600Y-117800000I-381000J0D01*
G01*
X174651600Y-117800000D02*
G75*
G02*
X175413600Y-117800000I381000J0D01*
G01*
%TO.C,T2*%
D10*
X181750000Y-106500000D02*
X185350000Y-106500000D01*
X185350000Y-109500000D01*
X181750000Y-109500000D01*
X181750000Y-106500000D01*
%TO.C,U5*%
D15*
X154929100Y-115271100D02*
X159170900Y-115271100D01*
X159170900Y-120528900D02*
X154929100Y-120528900D01*
%TO.C,IC2*%
D16*
X191550000Y-107975000D02*
X191550000Y-109225000D01*
X191700000Y-109575000D02*
X191700000Y-110125000D01*
X191700000Y-110125000D02*
X194600000Y-110125000D01*
X194600000Y-109575000D02*
X191700000Y-109575000D01*
X194600000Y-110125000D02*
X194600000Y-109575000D01*
%TO.C,C2*%
D17*
X172290000Y-115538748D02*
X172290000Y-116961252D01*
X174110000Y-115538748D02*
X174110000Y-116961252D01*
%TO.C,R2*%
X197277500Y-110912742D02*
X197277500Y-111387258D01*
X198322500Y-110912742D02*
X198322500Y-111387258D01*
%TO.C,R11*%
X186727064Y-112840000D02*
X185272936Y-112840000D01*
X186727064Y-114660000D02*
X185272936Y-114660000D01*
%TO.C,R10*%
X175277500Y-94595276D02*
X175277500Y-95104724D01*
X176322500Y-94595276D02*
X176322500Y-95104724D01*
%TO.C,R1*%
X197737258Y-107727500D02*
X197262742Y-107727500D01*
X197737258Y-108772500D02*
X197262742Y-108772500D01*
%TO.C,C4*%
X204340000Y-109838748D02*
X204340000Y-111261252D01*
X207060000Y-109838748D02*
X207060000Y-111261252D01*
%TO.C,C3*%
X199640000Y-109838748D02*
X199640000Y-111261252D01*
X202360000Y-109838748D02*
X202360000Y-111261252D01*
%TO.C,C1*%
X189690000Y-111140580D02*
X189690000Y-110859420D01*
X190710000Y-111140580D02*
X190710000Y-110859420D01*
%TO.C,R9*%
X118245276Y-111677500D02*
X118754724Y-111677500D01*
X118245276Y-112722500D02*
X118754724Y-112722500D01*
%TO.C,R6*%
X186620000Y-108353641D02*
X186620000Y-108046359D01*
X187380000Y-108353641D02*
X187380000Y-108046359D01*
%TO.C,L1*%
D16*
X199150000Y-100350000D02*
X206250000Y-100350000D01*
X206250000Y-106950000D02*
X199150000Y-106950000D01*
%TO.C,R3*%
D17*
X161727500Y-119412742D02*
X161727500Y-119887258D01*
X162772500Y-119412742D02*
X162772500Y-119887258D01*
%TO.C,R8*%
X182020000Y-111153641D02*
X182020000Y-110846359D01*
X182780000Y-111153641D02*
X182780000Y-110846359D01*
%TO.C,R5*%
X179170000Y-108553641D02*
X179170000Y-108246359D01*
X179930000Y-108553641D02*
X179930000Y-108246359D01*
%TO.C,T1*%
D10*
X168725000Y-119450000D02*
X171925000Y-119450000D01*
X171925000Y-121950000D01*
X168725000Y-121950000D01*
X168725000Y-119450000D01*
%TO.C,R7*%
D17*
X184370000Y-111203641D02*
X184370000Y-110896359D01*
X185130000Y-111203641D02*
X185130000Y-110896359D01*
%TO.C,R4*%
X161727500Y-116062742D02*
X161727500Y-116537258D01*
X162772500Y-116062742D02*
X162772500Y-116537258D01*
%TD*%
%LPC*%
D18*
%TO.C,U3*%
X193590000Y-99051000D03*
D19*
X191050000Y-99051000D03*
X188510000Y-99051000D03*
X185970000Y-99051000D03*
X183430000Y-99051000D03*
X180890000Y-99051000D03*
X178350000Y-99051000D03*
X175810000Y-99051000D03*
%TD*%
D20*
%TO.C,ILI1*%
X114500000Y-79160000D03*
D21*
X114500000Y-81700000D03*
X114500000Y-84240000D03*
X114500000Y-86780000D03*
X114500000Y-89320000D03*
X114500000Y-91860000D03*
X114500000Y-94400000D03*
X114500000Y-96940000D03*
X114500000Y-99480000D03*
X114500000Y-102020000D03*
X114500000Y-104560000D03*
X114500000Y-107100000D03*
X114500000Y-109640000D03*
X114500000Y-112180000D03*
%TD*%
D22*
%TO.C,U4*%
X167750000Y-80300000D03*
X167750000Y-82840000D03*
X167750000Y-85380000D03*
X167750000Y-87920000D03*
X167750000Y-90460000D03*
X167750000Y-93000000D03*
X167750000Y-95540000D03*
X167750000Y-98080000D03*
X167750000Y-100620000D03*
X167750000Y-103160000D03*
X167750000Y-105700000D03*
X167750000Y-108240000D03*
X167750000Y-110780000D03*
X167750000Y-113320000D03*
X167750000Y-115860000D03*
X142350000Y-115860000D03*
X142350000Y-113320000D03*
X142350000Y-110780000D03*
X142350000Y-108240000D03*
X142350000Y-105700000D03*
X142350000Y-103160000D03*
X142350000Y-100620000D03*
X142350000Y-98080000D03*
X142350000Y-95540000D03*
X142350000Y-93000000D03*
X142350000Y-90460000D03*
X142350000Y-87920000D03*
X142350000Y-85380000D03*
X142350000Y-82840000D03*
X142350000Y-80300000D03*
%TD*%
D23*
%TO.C,U2*%
X178500000Y-117800000D03*
X181000000Y-117800000D03*
X183500000Y-117800000D03*
X186000000Y-117800000D03*
X188500000Y-117800000D03*
X191000000Y-117800000D03*
X193500000Y-117800000D03*
X196000000Y-117800000D03*
%TD*%
D24*
%TO.C,U1*%
X122500000Y-79150000D03*
X122500000Y-81690000D03*
X122500000Y-84230000D03*
X122500000Y-86770000D03*
X122500000Y-89310000D03*
X122500000Y-91850000D03*
X122500000Y-94390000D03*
X122500000Y-96930000D03*
X122500000Y-99470000D03*
X122500000Y-102010000D03*
X122500000Y-104550000D03*
X122500000Y-107090000D03*
X122500000Y-109630000D03*
X122500000Y-112170000D03*
X125040000Y-112170000D03*
X127580000Y-112170000D03*
X130120000Y-112170000D03*
X132660000Y-112170000D03*
X135200000Y-112170000D03*
X137740000Y-112170000D03*
X137740000Y-109630000D03*
X137740000Y-107090000D03*
X137740000Y-104550000D03*
X137740000Y-102010000D03*
X137740000Y-99470000D03*
X137740000Y-96930000D03*
X137740000Y-94390000D03*
X137740000Y-91850000D03*
X137740000Y-89310000D03*
X137740000Y-86770000D03*
X137740000Y-84230000D03*
X137740000Y-81690000D03*
X137740000Y-79150000D03*
X135200000Y-81690000D03*
D25*
X135200000Y-107090000D03*
X135200000Y-104550000D03*
X132660000Y-107090000D03*
X132660000Y-104550000D03*
X130120000Y-107090000D03*
X130120000Y-104550000D03*
X127580000Y-107090000D03*
X127580000Y-104550000D03*
X125040000Y-107090000D03*
X125040000Y-104550000D03*
D26*
X133620000Y-86288400D03*
X132620000Y-86288400D03*
X131620000Y-86288400D03*
X130620000Y-86288400D03*
X129620000Y-86288400D03*
X128620000Y-86288400D03*
X127620000Y-86288400D03*
X126620000Y-86288400D03*
D25*
X131390000Y-80420000D03*
X128850000Y-80420000D03*
%TD*%
D27*
%TO.C,T2*%
X184750000Y-107000000D03*
X184750000Y-107950000D03*
X184750000Y-108900000D03*
X182350000Y-108900000D03*
X182350000Y-107000000D03*
%TD*%
D28*
%TO.C,U5*%
X154325850Y-119805000D03*
X154325850Y-118535000D03*
X154325850Y-117265000D03*
X154325850Y-115995000D03*
X159774150Y-115995000D03*
X159774150Y-117265000D03*
X159774150Y-118535000D03*
X159774150Y-119805000D03*
%TD*%
D29*
%TO.C,IC2*%
X192200000Y-108600000D03*
X193150000Y-108600000D03*
X194100000Y-108600000D03*
X194100000Y-111100000D03*
X193150000Y-111100000D03*
X192200000Y-111100000D03*
%TD*%
D30*
%TO.C,C2*%
X173200000Y-114687500D03*
X173200000Y-117812500D03*
%TD*%
D31*
%TO.C,R2*%
X197800000Y-110325000D03*
X197800000Y-111975000D03*
%TD*%
D32*
%TO.C,R11*%
X187462500Y-113750000D03*
X184537500Y-113750000D03*
%TD*%
D33*
%TO.C,R10*%
X175800000Y-93937500D03*
X175800000Y-95762500D03*
%TD*%
D34*
%TO.C,R1*%
X198325000Y-108250000D03*
X196675000Y-108250000D03*
%TD*%
D35*
%TO.C,C4*%
X205700000Y-109075000D03*
X205700000Y-112025000D03*
%TD*%
%TO.C,C3*%
X201000000Y-109075000D03*
X201000000Y-112025000D03*
%TD*%
D36*
%TO.C,C1*%
X190200000Y-111775000D03*
X190200000Y-110225000D03*
%TD*%
D37*
%TO.C,R9*%
X117587500Y-112200000D03*
X119412500Y-112200000D03*
%TD*%
D38*
%TO.C,R6*%
X187000000Y-108710000D03*
X187000000Y-107690000D03*
%TD*%
D39*
%TO.C,L1*%
X199850000Y-103650000D03*
X205550000Y-103650000D03*
%TD*%
D31*
%TO.C,R3*%
X162250000Y-118825000D03*
X162250000Y-120475000D03*
%TD*%
D38*
%TO.C,R8*%
X182400000Y-111510000D03*
X182400000Y-110490000D03*
%TD*%
%TO.C,R5*%
X179550000Y-108910000D03*
X179550000Y-107890000D03*
%TD*%
D40*
%TO.C,T1*%
X168800000Y-121200000D03*
X168800000Y-120200000D03*
X171850000Y-120200000D03*
X171850000Y-121200000D03*
%TD*%
D38*
%TO.C,R7*%
X184750000Y-111560000D03*
X184750000Y-110540000D03*
%TD*%
D31*
%TO.C,R4*%
X162250000Y-115475000D03*
X162250000Y-117125000D03*
%TD*%
%LPD*%
M02*
