%TF.GenerationSoftware,KiCad,Pcbnew,10.0.5*%
%TF.CreationDate,2026-10-01T17:42:10-04:00*%
%TF.ProjectId,DigitalDashDisplay2027,44696769-7461-46c4-9461-736844697370,rev?*%
%TF.SameCoordinates,Original*%
%TF.FileFunction,Legend,Top*%
%TF.FilePolarity,Positive*%
%FSLAX46Y46*%
G04 Gerber Fmt 4.6, Leading zero omitted, Abs format (unit mm)*
G04 Created by KiCad (PCBNEW 10.0.5) date 2026-10-01 17:42:10*
%MOMM*%
%LPD*%
G01*
G04 APERTURE LIST*
G04 Aperture macros list*
%AMRoundRect*
0 Rectangle with rounded corners*
0 $1 Rounding radius*
0 $2 $3 $4 $5 $6 $7 $8 $9 X,Y pos of 4 corners*
0 Add a 4 corners polygon primitive as box body*
4,1,4,$2,$3,$4,$5,$6,$7,$8,$9,$2,$3,0*
0 Add four circle primitives for the rounded corners*
1,1,$1+$1,$2,$3*
1,1,$1+$1,$4,$5*
1,1,$1+$1,$6,$7*
1,1,$1+$1,$8,$9*
0 Add four rect primitives between the rounded corners*
20,1,$1+$1,$2,$3,$4,$5,0*
20,1,$1+$1,$4,$5,$6,$7,0*
20,1,$1+$1,$6,$7,$8,$9,0*
20,1,$1+$1,$8,$9,$2,$3,0*%
G04 Aperture macros list end*
%ADD10C,0.100000*%
%ADD11C,0.375000*%
%ADD12C,0.150000*%
%ADD13C,0.152400*%
%ADD14C,0.508000*%
%ADD15RoundRect,0.050800X0.889000X0.889000X-0.889000X0.889000X-0.889000X-0.889000X0.889000X-0.889000X0*%
%ADD16C,1.879600*%
%ADD17C,1.500000*%
%ADD18O,1.500000X1.500000*%
%ADD19C,1.524000*%
%ADD20C,1.600200*%
%ADD21C,1.404000*%
%ADD22C,1.304000*%
%ADD23C,0.804000*%
G04 APERTURE END LIST*
D10*
X125911027Y-113822419D02*
X126482455Y-113822419D01*
X126196741Y-114822419D02*
X126196741Y-113822419D01*
X127196741Y-114774800D02*
X127101503Y-114822419D01*
X127101503Y-114822419D02*
X126911027Y-114822419D01*
X126911027Y-114822419D02*
X126815789Y-114774800D01*
X126815789Y-114774800D02*
X126768170Y-114679561D01*
X126768170Y-114679561D02*
X126768170Y-114298609D01*
X126768170Y-114298609D02*
X126815789Y-114203371D01*
X126815789Y-114203371D02*
X126911027Y-114155752D01*
X126911027Y-114155752D02*
X127101503Y-114155752D01*
X127101503Y-114155752D02*
X127196741Y-114203371D01*
X127196741Y-114203371D02*
X127244360Y-114298609D01*
X127244360Y-114298609D02*
X127244360Y-114393847D01*
X127244360Y-114393847D02*
X126768170Y-114489085D01*
X128053884Y-114774800D02*
X127958646Y-114822419D01*
X127958646Y-114822419D02*
X127768170Y-114822419D01*
X127768170Y-114822419D02*
X127672932Y-114774800D01*
X127672932Y-114774800D02*
X127625313Y-114679561D01*
X127625313Y-114679561D02*
X127625313Y-114298609D01*
X127625313Y-114298609D02*
X127672932Y-114203371D01*
X127672932Y-114203371D02*
X127768170Y-114155752D01*
X127768170Y-114155752D02*
X127958646Y-114155752D01*
X127958646Y-114155752D02*
X128053884Y-114203371D01*
X128053884Y-114203371D02*
X128101503Y-114298609D01*
X128101503Y-114298609D02*
X128101503Y-114393847D01*
X128101503Y-114393847D02*
X127625313Y-114489085D01*
X128530075Y-114155752D02*
X128530075Y-114822419D01*
X128530075Y-114250990D02*
X128577694Y-114203371D01*
X128577694Y-114203371D02*
X128672932Y-114155752D01*
X128672932Y-114155752D02*
X128815789Y-114155752D01*
X128815789Y-114155752D02*
X128911027Y-114203371D01*
X128911027Y-114203371D02*
X128958646Y-114298609D01*
X128958646Y-114298609D02*
X128958646Y-114822419D01*
X129387218Y-114774800D02*
X129482456Y-114822419D01*
X129482456Y-114822419D02*
X129672932Y-114822419D01*
X129672932Y-114822419D02*
X129768170Y-114774800D01*
X129768170Y-114774800D02*
X129815789Y-114679561D01*
X129815789Y-114679561D02*
X129815789Y-114631942D01*
X129815789Y-114631942D02*
X129768170Y-114536704D01*
X129768170Y-114536704D02*
X129672932Y-114489085D01*
X129672932Y-114489085D02*
X129530075Y-114489085D01*
X129530075Y-114489085D02*
X129434837Y-114441466D01*
X129434837Y-114441466D02*
X129387218Y-114346228D01*
X129387218Y-114346228D02*
X129387218Y-114298609D01*
X129387218Y-114298609D02*
X129434837Y-114203371D01*
X129434837Y-114203371D02*
X129530075Y-114155752D01*
X129530075Y-114155752D02*
X129672932Y-114155752D01*
X129672932Y-114155752D02*
X129768170Y-114203371D01*
X130149123Y-114155752D02*
X130387218Y-114822419D01*
X130625313Y-114155752D02*
X130387218Y-114822419D01*
X130387218Y-114822419D02*
X130291980Y-115060514D01*
X130291980Y-115060514D02*
X130244361Y-115108133D01*
X130244361Y-115108133D02*
X130149123Y-115155752D01*
X131434837Y-114155752D02*
X131434837Y-114822419D01*
X131196742Y-113774800D02*
X130958647Y-114489085D01*
X130958647Y-114489085D02*
X131577694Y-114489085D01*
X131958647Y-114727180D02*
X132006266Y-114774800D01*
X132006266Y-114774800D02*
X131958647Y-114822419D01*
X131958647Y-114822419D02*
X131911028Y-114774800D01*
X131911028Y-114774800D02*
X131958647Y-114727180D01*
X131958647Y-114727180D02*
X131958647Y-114822419D01*
X132625313Y-113822419D02*
X132720551Y-113822419D01*
X132720551Y-113822419D02*
X132815789Y-113870038D01*
X132815789Y-113870038D02*
X132863408Y-113917657D01*
X132863408Y-113917657D02*
X132911027Y-114012895D01*
X132911027Y-114012895D02*
X132958646Y-114203371D01*
X132958646Y-114203371D02*
X132958646Y-114441466D01*
X132958646Y-114441466D02*
X132911027Y-114631942D01*
X132911027Y-114631942D02*
X132863408Y-114727180D01*
X132863408Y-114727180D02*
X132815789Y-114774800D01*
X132815789Y-114774800D02*
X132720551Y-114822419D01*
X132720551Y-114822419D02*
X132625313Y-114822419D01*
X132625313Y-114822419D02*
X132530075Y-114774800D01*
X132530075Y-114774800D02*
X132482456Y-114727180D01*
X132482456Y-114727180D02*
X132434837Y-114631942D01*
X132434837Y-114631942D02*
X132387218Y-114441466D01*
X132387218Y-114441466D02*
X132387218Y-114203371D01*
X132387218Y-114203371D02*
X132434837Y-114012895D01*
X132434837Y-114012895D02*
X132482456Y-113917657D01*
X132482456Y-113917657D02*
X132530075Y-113870038D01*
X132530075Y-113870038D02*
X132625313Y-113822419D01*
X129603884Y-70648609D02*
X129937217Y-70648609D01*
X130080074Y-71172419D02*
X129603884Y-71172419D01*
X129603884Y-71172419D02*
X129603884Y-70172419D01*
X129603884Y-70172419D02*
X130080074Y-70172419D01*
X130461027Y-71124800D02*
X130603884Y-71172419D01*
X130603884Y-71172419D02*
X130841979Y-71172419D01*
X130841979Y-71172419D02*
X130937217Y-71124800D01*
X130937217Y-71124800D02*
X130984836Y-71077180D01*
X130984836Y-71077180D02*
X131032455Y-70981942D01*
X131032455Y-70981942D02*
X131032455Y-70886704D01*
X131032455Y-70886704D02*
X130984836Y-70791466D01*
X130984836Y-70791466D02*
X130937217Y-70743847D01*
X130937217Y-70743847D02*
X130841979Y-70696228D01*
X130841979Y-70696228D02*
X130651503Y-70648609D01*
X130651503Y-70648609D02*
X130556265Y-70600990D01*
X130556265Y-70600990D02*
X130508646Y-70553371D01*
X130508646Y-70553371D02*
X130461027Y-70458133D01*
X130461027Y-70458133D02*
X130461027Y-70362895D01*
X130461027Y-70362895D02*
X130508646Y-70267657D01*
X130508646Y-70267657D02*
X130556265Y-70220038D01*
X130556265Y-70220038D02*
X130651503Y-70172419D01*
X130651503Y-70172419D02*
X130889598Y-70172419D01*
X130889598Y-70172419D02*
X131032455Y-70220038D01*
X131461027Y-71172419D02*
X131461027Y-70172419D01*
X131461027Y-70172419D02*
X131841979Y-70172419D01*
X131841979Y-70172419D02*
X131937217Y-70220038D01*
X131937217Y-70220038D02*
X131984836Y-70267657D01*
X131984836Y-70267657D02*
X132032455Y-70362895D01*
X132032455Y-70362895D02*
X132032455Y-70505752D01*
X132032455Y-70505752D02*
X131984836Y-70600990D01*
X131984836Y-70600990D02*
X131937217Y-70648609D01*
X131937217Y-70648609D02*
X131841979Y-70696228D01*
X131841979Y-70696228D02*
X131461027Y-70696228D01*
X132365789Y-70172419D02*
X132984836Y-70172419D01*
X132984836Y-70172419D02*
X132651503Y-70553371D01*
X132651503Y-70553371D02*
X132794360Y-70553371D01*
X132794360Y-70553371D02*
X132889598Y-70600990D01*
X132889598Y-70600990D02*
X132937217Y-70648609D01*
X132937217Y-70648609D02*
X132984836Y-70743847D01*
X132984836Y-70743847D02*
X132984836Y-70981942D01*
X132984836Y-70981942D02*
X132937217Y-71077180D01*
X132937217Y-71077180D02*
X132889598Y-71124800D01*
X132889598Y-71124800D02*
X132794360Y-71172419D01*
X132794360Y-71172419D02*
X132508646Y-71172419D01*
X132508646Y-71172419D02*
X132413408Y-71124800D01*
X132413408Y-71124800D02*
X132365789Y-71077180D01*
X133365789Y-70267657D02*
X133413408Y-70220038D01*
X133413408Y-70220038D02*
X133508646Y-70172419D01*
X133508646Y-70172419D02*
X133746741Y-70172419D01*
X133746741Y-70172419D02*
X133841979Y-70220038D01*
X133841979Y-70220038D02*
X133889598Y-70267657D01*
X133889598Y-70267657D02*
X133937217Y-70362895D01*
X133937217Y-70362895D02*
X133937217Y-70458133D01*
X133937217Y-70458133D02*
X133889598Y-70600990D01*
X133889598Y-70600990D02*
X133318170Y-71172419D01*
X133318170Y-71172419D02*
X133937217Y-71172419D01*
X134365789Y-70791466D02*
X135127694Y-70791466D01*
X135508646Y-70172419D02*
X135746741Y-71172419D01*
X135746741Y-71172419D02*
X135937217Y-70458133D01*
X135937217Y-70458133D02*
X136127693Y-71172419D01*
X136127693Y-71172419D02*
X136365789Y-70172419D01*
X137318169Y-71172419D02*
X136984836Y-70696228D01*
X136746741Y-71172419D02*
X136746741Y-70172419D01*
X136746741Y-70172419D02*
X137127693Y-70172419D01*
X137127693Y-70172419D02*
X137222931Y-70220038D01*
X137222931Y-70220038D02*
X137270550Y-70267657D01*
X137270550Y-70267657D02*
X137318169Y-70362895D01*
X137318169Y-70362895D02*
X137318169Y-70505752D01*
X137318169Y-70505752D02*
X137270550Y-70600990D01*
X137270550Y-70600990D02*
X137222931Y-70648609D01*
X137222931Y-70648609D02*
X137127693Y-70696228D01*
X137127693Y-70696228D02*
X136746741Y-70696228D01*
X137937217Y-70172419D02*
X138127693Y-70172419D01*
X138127693Y-70172419D02*
X138222931Y-70220038D01*
X138222931Y-70220038D02*
X138318169Y-70315276D01*
X138318169Y-70315276D02*
X138365788Y-70505752D01*
X138365788Y-70505752D02*
X138365788Y-70839085D01*
X138365788Y-70839085D02*
X138318169Y-71029561D01*
X138318169Y-71029561D02*
X138222931Y-71124800D01*
X138222931Y-71124800D02*
X138127693Y-71172419D01*
X138127693Y-71172419D02*
X137937217Y-71172419D01*
X137937217Y-71172419D02*
X137841979Y-71124800D01*
X137841979Y-71124800D02*
X137746741Y-71029561D01*
X137746741Y-71029561D02*
X137699122Y-70839085D01*
X137699122Y-70839085D02*
X137699122Y-70505752D01*
X137699122Y-70505752D02*
X137746741Y-70315276D01*
X137746741Y-70315276D02*
X137841979Y-70220038D01*
X137841979Y-70220038D02*
X137937217Y-70172419D01*
X138984836Y-70172419D02*
X139175312Y-70172419D01*
X139175312Y-70172419D02*
X139270550Y-70220038D01*
X139270550Y-70220038D02*
X139365788Y-70315276D01*
X139365788Y-70315276D02*
X139413407Y-70505752D01*
X139413407Y-70505752D02*
X139413407Y-70839085D01*
X139413407Y-70839085D02*
X139365788Y-71029561D01*
X139365788Y-71029561D02*
X139270550Y-71124800D01*
X139270550Y-71124800D02*
X139175312Y-71172419D01*
X139175312Y-71172419D02*
X138984836Y-71172419D01*
X138984836Y-71172419D02*
X138889598Y-71124800D01*
X138889598Y-71124800D02*
X138794360Y-71029561D01*
X138794360Y-71029561D02*
X138746741Y-70839085D01*
X138746741Y-70839085D02*
X138746741Y-70505752D01*
X138746741Y-70505752D02*
X138794360Y-70315276D01*
X138794360Y-70315276D02*
X138889598Y-70220038D01*
X138889598Y-70220038D02*
X138984836Y-70172419D01*
X139841979Y-71172419D02*
X139841979Y-70172419D01*
X139841979Y-70172419D02*
X140175312Y-70886704D01*
X140175312Y-70886704D02*
X140508645Y-70172419D01*
X140508645Y-70172419D02*
X140508645Y-71172419D01*
X181956265Y-101874800D02*
X182099122Y-101922419D01*
X182099122Y-101922419D02*
X182337217Y-101922419D01*
X182337217Y-101922419D02*
X182432455Y-101874800D01*
X182432455Y-101874800D02*
X182480074Y-101827180D01*
X182480074Y-101827180D02*
X182527693Y-101731942D01*
X182527693Y-101731942D02*
X182527693Y-101636704D01*
X182527693Y-101636704D02*
X182480074Y-101541466D01*
X182480074Y-101541466D02*
X182432455Y-101493847D01*
X182432455Y-101493847D02*
X182337217Y-101446228D01*
X182337217Y-101446228D02*
X182146741Y-101398609D01*
X182146741Y-101398609D02*
X182051503Y-101350990D01*
X182051503Y-101350990D02*
X182003884Y-101303371D01*
X182003884Y-101303371D02*
X181956265Y-101208133D01*
X181956265Y-101208133D02*
X181956265Y-101112895D01*
X181956265Y-101112895D02*
X182003884Y-101017657D01*
X182003884Y-101017657D02*
X182051503Y-100970038D01*
X182051503Y-100970038D02*
X182146741Y-100922419D01*
X182146741Y-100922419D02*
X182384836Y-100922419D01*
X182384836Y-100922419D02*
X182527693Y-100970038D01*
X182956265Y-101922419D02*
X182956265Y-100922419D01*
X182956265Y-100922419D02*
X183194360Y-100922419D01*
X183194360Y-100922419D02*
X183337217Y-100970038D01*
X183337217Y-100970038D02*
X183432455Y-101065276D01*
X183432455Y-101065276D02*
X183480074Y-101160514D01*
X183480074Y-101160514D02*
X183527693Y-101350990D01*
X183527693Y-101350990D02*
X183527693Y-101493847D01*
X183527693Y-101493847D02*
X183480074Y-101684323D01*
X183480074Y-101684323D02*
X183432455Y-101779561D01*
X183432455Y-101779561D02*
X183337217Y-101874800D01*
X183337217Y-101874800D02*
X183194360Y-101922419D01*
X183194360Y-101922419D02*
X182956265Y-101922419D01*
X185289598Y-101827180D02*
X185241979Y-101874800D01*
X185241979Y-101874800D02*
X185099122Y-101922419D01*
X185099122Y-101922419D02*
X185003884Y-101922419D01*
X185003884Y-101922419D02*
X184861027Y-101874800D01*
X184861027Y-101874800D02*
X184765789Y-101779561D01*
X184765789Y-101779561D02*
X184718170Y-101684323D01*
X184718170Y-101684323D02*
X184670551Y-101493847D01*
X184670551Y-101493847D02*
X184670551Y-101350990D01*
X184670551Y-101350990D02*
X184718170Y-101160514D01*
X184718170Y-101160514D02*
X184765789Y-101065276D01*
X184765789Y-101065276D02*
X184861027Y-100970038D01*
X184861027Y-100970038D02*
X185003884Y-100922419D01*
X185003884Y-100922419D02*
X185099122Y-100922419D01*
X185099122Y-100922419D02*
X185241979Y-100970038D01*
X185241979Y-100970038D02*
X185289598Y-101017657D01*
X186146741Y-101922419D02*
X186146741Y-101398609D01*
X186146741Y-101398609D02*
X186099122Y-101303371D01*
X186099122Y-101303371D02*
X186003884Y-101255752D01*
X186003884Y-101255752D02*
X185813408Y-101255752D01*
X185813408Y-101255752D02*
X185718170Y-101303371D01*
X186146741Y-101874800D02*
X186051503Y-101922419D01*
X186051503Y-101922419D02*
X185813408Y-101922419D01*
X185813408Y-101922419D02*
X185718170Y-101874800D01*
X185718170Y-101874800D02*
X185670551Y-101779561D01*
X185670551Y-101779561D02*
X185670551Y-101684323D01*
X185670551Y-101684323D02*
X185718170Y-101589085D01*
X185718170Y-101589085D02*
X185813408Y-101541466D01*
X185813408Y-101541466D02*
X186051503Y-101541466D01*
X186051503Y-101541466D02*
X186146741Y-101493847D01*
X186622932Y-101922419D02*
X186622932Y-101255752D01*
X186622932Y-101446228D02*
X186670551Y-101350990D01*
X186670551Y-101350990D02*
X186718170Y-101303371D01*
X186718170Y-101303371D02*
X186813408Y-101255752D01*
X186813408Y-101255752D02*
X186908646Y-101255752D01*
X187670551Y-101922419D02*
X187670551Y-100922419D01*
X187670551Y-101874800D02*
X187575313Y-101922419D01*
X187575313Y-101922419D02*
X187384837Y-101922419D01*
X187384837Y-101922419D02*
X187289599Y-101874800D01*
X187289599Y-101874800D02*
X187241980Y-101827180D01*
X187241980Y-101827180D02*
X187194361Y-101731942D01*
X187194361Y-101731942D02*
X187194361Y-101446228D01*
X187194361Y-101446228D02*
X187241980Y-101350990D01*
X187241980Y-101350990D02*
X187289599Y-101303371D01*
X187289599Y-101303371D02*
X187384837Y-101255752D01*
X187384837Y-101255752D02*
X187575313Y-101255752D01*
X187575313Y-101255752D02*
X187670551Y-101303371D01*
D11*
X122518138Y-119346928D02*
X123375281Y-119346928D01*
X122759210Y-120846928D02*
X122946710Y-119346928D01*
X124455638Y-119846928D02*
X124330638Y-120846928D01*
X124169924Y-119275500D02*
X123678852Y-120346928D01*
X123678852Y-120346928D02*
X124607424Y-120346928D01*
X125134209Y-120704071D02*
X125196709Y-120775500D01*
X125196709Y-120775500D02*
X125116352Y-120846928D01*
X125116352Y-120846928D02*
X125053852Y-120775500D01*
X125053852Y-120775500D02*
X125134209Y-120704071D01*
X125134209Y-120704071D02*
X125116352Y-120846928D01*
X126303852Y-119346928D02*
X126446709Y-119346928D01*
X126446709Y-119346928D02*
X126580638Y-119418357D01*
X126580638Y-119418357D02*
X126643138Y-119489785D01*
X126643138Y-119489785D02*
X126696709Y-119632642D01*
X126696709Y-119632642D02*
X126732424Y-119918357D01*
X126732424Y-119918357D02*
X126687781Y-120275500D01*
X126687781Y-120275500D02*
X126580638Y-120561214D01*
X126580638Y-120561214D02*
X126491352Y-120704071D01*
X126491352Y-120704071D02*
X126410995Y-120775500D01*
X126410995Y-120775500D02*
X126259209Y-120846928D01*
X126259209Y-120846928D02*
X126116352Y-120846928D01*
X126116352Y-120846928D02*
X125982424Y-120775500D01*
X125982424Y-120775500D02*
X125919924Y-120704071D01*
X125919924Y-120704071D02*
X125866352Y-120561214D01*
X125866352Y-120561214D02*
X125830638Y-120275500D01*
X125830638Y-120275500D02*
X125875281Y-119918357D01*
X125875281Y-119918357D02*
X125982424Y-119632642D01*
X125982424Y-119632642D02*
X126071709Y-119489785D01*
X126071709Y-119489785D02*
X126152066Y-119418357D01*
X126152066Y-119418357D02*
X126303852Y-119346928D01*
X128375280Y-119346928D02*
X129232423Y-119346928D01*
X128616352Y-120846928D02*
X128803852Y-119346928D01*
X130143137Y-120061214D02*
X129643137Y-120061214D01*
X129544923Y-120846928D02*
X129732423Y-119346928D01*
X129732423Y-119346928D02*
X130446709Y-119346928D01*
X130803851Y-119346928D02*
X131660994Y-119346928D01*
X131044923Y-120846928D02*
X131232423Y-119346928D01*
X133884208Y-119846928D02*
X133759208Y-120846928D01*
X133598494Y-119275500D02*
X133107422Y-120346928D01*
X133107422Y-120346928D02*
X134035994Y-120346928D01*
X134866350Y-119989785D02*
X134732422Y-119918357D01*
X134732422Y-119918357D02*
X134669922Y-119846928D01*
X134669922Y-119846928D02*
X134616350Y-119704071D01*
X134616350Y-119704071D02*
X134625279Y-119632642D01*
X134625279Y-119632642D02*
X134714565Y-119489785D01*
X134714565Y-119489785D02*
X134794922Y-119418357D01*
X134794922Y-119418357D02*
X134946708Y-119346928D01*
X134946708Y-119346928D02*
X135232422Y-119346928D01*
X135232422Y-119346928D02*
X135366350Y-119418357D01*
X135366350Y-119418357D02*
X135428850Y-119489785D01*
X135428850Y-119489785D02*
X135482422Y-119632642D01*
X135482422Y-119632642D02*
X135473493Y-119704071D01*
X135473493Y-119704071D02*
X135384208Y-119846928D01*
X135384208Y-119846928D02*
X135303850Y-119918357D01*
X135303850Y-119918357D02*
X135152065Y-119989785D01*
X135152065Y-119989785D02*
X134866350Y-119989785D01*
X134866350Y-119989785D02*
X134714565Y-120061214D01*
X134714565Y-120061214D02*
X134634208Y-120132642D01*
X134634208Y-120132642D02*
X134544922Y-120275500D01*
X134544922Y-120275500D02*
X134509208Y-120561214D01*
X134509208Y-120561214D02*
X134562779Y-120704071D01*
X134562779Y-120704071D02*
X134625279Y-120775500D01*
X134625279Y-120775500D02*
X134759208Y-120846928D01*
X134759208Y-120846928D02*
X135044922Y-120846928D01*
X135044922Y-120846928D02*
X135196708Y-120775500D01*
X135196708Y-120775500D02*
X135277065Y-120704071D01*
X135277065Y-120704071D02*
X135366350Y-120561214D01*
X135366350Y-120561214D02*
X135402065Y-120275500D01*
X135402065Y-120275500D02*
X135348493Y-120132642D01*
X135348493Y-120132642D02*
X135285993Y-120061214D01*
X135285993Y-120061214D02*
X135152065Y-119989785D01*
X136446707Y-119346928D02*
X136589564Y-119346928D01*
X136589564Y-119346928D02*
X136723493Y-119418357D01*
X136723493Y-119418357D02*
X136785993Y-119489785D01*
X136785993Y-119489785D02*
X136839564Y-119632642D01*
X136839564Y-119632642D02*
X136875279Y-119918357D01*
X136875279Y-119918357D02*
X136830636Y-120275500D01*
X136830636Y-120275500D02*
X136723493Y-120561214D01*
X136723493Y-120561214D02*
X136634207Y-120704071D01*
X136634207Y-120704071D02*
X136553850Y-120775500D01*
X136553850Y-120775500D02*
X136402064Y-120846928D01*
X136402064Y-120846928D02*
X136259207Y-120846928D01*
X136259207Y-120846928D02*
X136125279Y-120775500D01*
X136125279Y-120775500D02*
X136062779Y-120704071D01*
X136062779Y-120704071D02*
X136009207Y-120561214D01*
X136009207Y-120561214D02*
X135973493Y-120275500D01*
X135973493Y-120275500D02*
X136018136Y-119918357D01*
X136018136Y-119918357D02*
X136125279Y-119632642D01*
X136125279Y-119632642D02*
X136214564Y-119489785D01*
X136214564Y-119489785D02*
X136294921Y-119418357D01*
X136294921Y-119418357D02*
X136446707Y-119346928D01*
X137259207Y-120846928D02*
X138169921Y-119846928D01*
X137384207Y-119846928D02*
X138044921Y-120846928D01*
X138660993Y-119346928D02*
X139589564Y-119346928D01*
X139589564Y-119346928D02*
X139018136Y-119918357D01*
X139018136Y-119918357D02*
X139232421Y-119918357D01*
X139232421Y-119918357D02*
X139366350Y-119989785D01*
X139366350Y-119989785D02*
X139428850Y-120061214D01*
X139428850Y-120061214D02*
X139482421Y-120204071D01*
X139482421Y-120204071D02*
X139437778Y-120561214D01*
X139437778Y-120561214D02*
X139348493Y-120704071D01*
X139348493Y-120704071D02*
X139268136Y-120775500D01*
X139268136Y-120775500D02*
X139116350Y-120846928D01*
X139116350Y-120846928D02*
X138687778Y-120846928D01*
X138687778Y-120846928D02*
X138553850Y-120775500D01*
X138553850Y-120775500D02*
X138491350Y-120704071D01*
X140143135Y-119489785D02*
X140223492Y-119418357D01*
X140223492Y-119418357D02*
X140375278Y-119346928D01*
X140375278Y-119346928D02*
X140732421Y-119346928D01*
X140732421Y-119346928D02*
X140866349Y-119418357D01*
X140866349Y-119418357D02*
X140928849Y-119489785D01*
X140928849Y-119489785D02*
X140982421Y-119632642D01*
X140982421Y-119632642D02*
X140964564Y-119775500D01*
X140964564Y-119775500D02*
X140866349Y-119989785D01*
X140866349Y-119989785D02*
X139902064Y-120846928D01*
X139902064Y-120846928D02*
X140830635Y-120846928D01*
X141946706Y-119346928D02*
X142089563Y-119346928D01*
X142089563Y-119346928D02*
X142223492Y-119418357D01*
X142223492Y-119418357D02*
X142285992Y-119489785D01*
X142285992Y-119489785D02*
X142339563Y-119632642D01*
X142339563Y-119632642D02*
X142375278Y-119918357D01*
X142375278Y-119918357D02*
X142330635Y-120275500D01*
X142330635Y-120275500D02*
X142223492Y-120561214D01*
X142223492Y-120561214D02*
X142134206Y-120704071D01*
X142134206Y-120704071D02*
X142053849Y-120775500D01*
X142053849Y-120775500D02*
X141902063Y-120846928D01*
X141902063Y-120846928D02*
X141759206Y-120846928D01*
X141759206Y-120846928D02*
X141625278Y-120775500D01*
X141625278Y-120775500D02*
X141562778Y-120704071D01*
X141562778Y-120704071D02*
X141509206Y-120561214D01*
X141509206Y-120561214D02*
X141473492Y-120275500D01*
X141473492Y-120275500D02*
X141518135Y-119918357D01*
X141518135Y-119918357D02*
X141625278Y-119632642D01*
X141625278Y-119632642D02*
X141714563Y-119489785D01*
X141714563Y-119489785D02*
X141794920Y-119418357D01*
X141794920Y-119418357D02*
X141946706Y-119346928D01*
D10*
X181157419Y-85461904D02*
X181966942Y-85461904D01*
X181966942Y-85461904D02*
X182062180Y-85414285D01*
X182062180Y-85414285D02*
X182109800Y-85366666D01*
X182109800Y-85366666D02*
X182157419Y-85271428D01*
X182157419Y-85271428D02*
X182157419Y-85080952D01*
X182157419Y-85080952D02*
X182109800Y-84985714D01*
X182109800Y-84985714D02*
X182062180Y-84938095D01*
X182062180Y-84938095D02*
X181966942Y-84890476D01*
X181966942Y-84890476D02*
X181157419Y-84890476D01*
X181157419Y-84509523D02*
X181157419Y-83890476D01*
X181157419Y-83890476D02*
X181538371Y-84223809D01*
X181538371Y-84223809D02*
X181538371Y-84080952D01*
X181538371Y-84080952D02*
X181585990Y-83985714D01*
X181585990Y-83985714D02*
X181633609Y-83938095D01*
X181633609Y-83938095D02*
X181728847Y-83890476D01*
X181728847Y-83890476D02*
X181966942Y-83890476D01*
X181966942Y-83890476D02*
X182062180Y-83938095D01*
X182062180Y-83938095D02*
X182109800Y-83985714D01*
X182109800Y-83985714D02*
X182157419Y-84080952D01*
X182157419Y-84080952D02*
X182157419Y-84366666D01*
X182157419Y-84366666D02*
X182109800Y-84461904D01*
X182109800Y-84461904D02*
X182062180Y-84509523D01*
X319116666Y72942580D02*
X318783333Y73418771D01*
X318545238Y72942580D02*
X318545238Y73942580D01*
X318545238Y73942580D02*
X318926190Y73942580D01*
X318926190Y73942580D02*
X319021428Y73894961D01*
X319021428Y73894961D02*
X319069047Y73847342D01*
X319069047Y73847342D02*
X319116666Y73752104D01*
X319116666Y73752104D02*
X319116666Y73609247D01*
X319116666Y73609247D02*
X319069047Y73514009D01*
X319069047Y73514009D02*
X319021428Y73466390D01*
X319021428Y73466390D02*
X318926190Y73418771D01*
X318926190Y73418771D02*
X318545238Y73418771D01*
X319545238Y73466390D02*
X319878571Y73466390D01*
X320021428Y72942580D02*
X319545238Y72942580D01*
X319545238Y72942580D02*
X319545238Y73942580D01*
X319545238Y73942580D02*
X320021428Y73942580D01*
X320783333Y73466390D02*
X320450000Y73466390D01*
X320450000Y72942580D02*
X320450000Y73942580D01*
X320450000Y73942580D02*
X320926190Y73942580D01*
X321450000Y73942580D02*
X321450000Y73704485D01*
X321211905Y73799723D02*
X321450000Y73704485D01*
X321450000Y73704485D02*
X321688095Y73799723D01*
X321307143Y73514009D02*
X321450000Y73704485D01*
X321450000Y73704485D02*
X321592857Y73514009D01*
X322211905Y73942580D02*
X322211905Y73704485D01*
X321973810Y73799723D02*
X322211905Y73704485D01*
X322211905Y73704485D02*
X322450000Y73799723D01*
X322069048Y73514009D02*
X322211905Y73704485D01*
X322211905Y73704485D02*
X322354762Y73514009D01*
D12*
X113380953Y-76614819D02*
X113380953Y-75614819D01*
X114333333Y-76614819D02*
X113857143Y-76614819D01*
X113857143Y-76614819D02*
X113857143Y-75614819D01*
X114666667Y-76614819D02*
X114666667Y-75614819D01*
X115666666Y-76614819D02*
X115095238Y-76614819D01*
X115380952Y-76614819D02*
X115380952Y-75614819D01*
X115380952Y-75614819D02*
X115285714Y-75757676D01*
X115285714Y-75757676D02*
X115190476Y-75852914D01*
X115190476Y-75852914D02*
X115095238Y-75900533D01*
D10*
X147788095Y-72757419D02*
X147788095Y-73566942D01*
X147788095Y-73566942D02*
X147835714Y-73662180D01*
X147835714Y-73662180D02*
X147883333Y-73709800D01*
X147883333Y-73709800D02*
X147978571Y-73757419D01*
X147978571Y-73757419D02*
X148169047Y-73757419D01*
X148169047Y-73757419D02*
X148264285Y-73709800D01*
X148264285Y-73709800D02*
X148311904Y-73662180D01*
X148311904Y-73662180D02*
X148359523Y-73566942D01*
X148359523Y-73566942D02*
X148359523Y-72757419D01*
X149264285Y-73090752D02*
X149264285Y-73757419D01*
X149026190Y-72709800D02*
X148788095Y-73424085D01*
X148788095Y-73424085D02*
X149407142Y-73424085D01*
D12*
X188011904Y-118345180D02*
X188011904Y-117535657D01*
X188011904Y-117535657D02*
X187964285Y-117440419D01*
X187964285Y-117440419D02*
X187916666Y-117392800D01*
X187916666Y-117392800D02*
X187821428Y-117345180D01*
X187821428Y-117345180D02*
X187630952Y-117345180D01*
X187630952Y-117345180D02*
X187535714Y-117392800D01*
X187535714Y-117392800D02*
X187488095Y-117440419D01*
X187488095Y-117440419D02*
X187440476Y-117535657D01*
X187440476Y-117535657D02*
X187440476Y-118345180D01*
X187011904Y-118249942D02*
X186964285Y-118297561D01*
X186964285Y-118297561D02*
X186869047Y-118345180D01*
X186869047Y-118345180D02*
X186630952Y-118345180D01*
X186630952Y-118345180D02*
X186535714Y-118297561D01*
X186535714Y-118297561D02*
X186488095Y-118249942D01*
X186488095Y-118249942D02*
X186440476Y-118154704D01*
X186440476Y-118154704D02*
X186440476Y-118059466D01*
X186440476Y-118059466D02*
X186488095Y-117916609D01*
X186488095Y-117916609D02*
X187059523Y-117345180D01*
X187059523Y-117345180D02*
X186440476Y-117345180D01*
X139734819Y-96421904D02*
X140544342Y-96421904D01*
X140544342Y-96421904D02*
X140639580Y-96374285D01*
X140639580Y-96374285D02*
X140687200Y-96326666D01*
X140687200Y-96326666D02*
X140734819Y-96231428D01*
X140734819Y-96231428D02*
X140734819Y-96040952D01*
X140734819Y-96040952D02*
X140687200Y-95945714D01*
X140687200Y-95945714D02*
X140639580Y-95898095D01*
X140639580Y-95898095D02*
X140544342Y-95850476D01*
X140544342Y-95850476D02*
X139734819Y-95850476D01*
X140734819Y-94850476D02*
X140734819Y-95421904D01*
X140734819Y-95136190D02*
X139734819Y-95136190D01*
X139734819Y-95136190D02*
X139877676Y-95231428D01*
X139877676Y-95231428D02*
X139972914Y-95326666D01*
X139972914Y-95326666D02*
X140020533Y-95421904D01*
%TO.C,U3*%
D10*
X172000000Y-68825000D02*
X197400000Y-68825000D01*
X197400000Y-100575000D01*
X172000000Y-100575000D01*
X172000000Y-68825000D01*
X174410000Y-97651000D02*
X195010000Y-97651000D01*
X195010000Y-100451000D01*
X174410000Y-100451000D01*
X174410000Y-97651000D01*
%TO.C,U4*%
X141050000Y-70140000D02*
X169050000Y-70140000D01*
X169050000Y-121920000D01*
X141050000Y-121920000D01*
X141050000Y-70140000D01*
X151350000Y-70018750D02*
X159350000Y-70018750D01*
X159350000Y-72900000D01*
X151350000Y-72900000D01*
X151350000Y-70018750D01*
%TO.C,U2*%
D13*
X175921600Y-114265801D02*
X175921600Y-121327001D01*
X175921600Y-121327001D02*
X198578400Y-121327001D01*
X198578400Y-114265801D02*
X175921600Y-114265801D01*
X198578400Y-121327001D02*
X198578400Y-114265801D01*
D14*
X175413600Y-117800000D02*
G75*
G02*
X174651600Y-117800000I-381000J0D01*
G01*
X174651600Y-117800000D02*
G75*
G02*
X175413600Y-117800000I381000J0D01*
G01*
%TO.C,U1*%
D12*
X121230000Y-77880000D02*
X121230000Y-113440000D01*
X121230000Y-113440000D02*
X139010000Y-113440000D01*
X126310000Y-76610000D02*
X126310000Y-77880000D01*
X133930000Y-76610000D02*
X126310000Y-76610000D01*
X133930000Y-77880000D02*
X133930000Y-76610000D01*
X139010000Y-77880000D02*
X121230000Y-77880000D01*
X139010000Y-113440000D02*
X139010000Y-77880000D01*
%TD*%
%LPC*%
D15*
%TO.C,U3*%
X193590000Y-99051000D03*
D16*
X191050000Y-99051000D03*
X188510000Y-99051000D03*
X185970000Y-99051000D03*
X183430000Y-99051000D03*
X180890000Y-99051000D03*
X178350000Y-99051000D03*
X175810000Y-99051000D03*
%TD*%
D17*
%TO.C,ILI1*%
X114500000Y-79160000D03*
D18*
X114500000Y-81700000D03*
X114500000Y-84240000D03*
X114500000Y-86780000D03*
X114500000Y-89320000D03*
X114500000Y-91860000D03*
X114500000Y-94400000D03*
X114500000Y-96940000D03*
X114500000Y-99480000D03*
X114500000Y-102020000D03*
X114500000Y-104560000D03*
X114500000Y-107100000D03*
X114500000Y-109640000D03*
X114500000Y-112180000D03*
%TD*%
D19*
%TO.C,U4*%
X167750000Y-80300000D03*
X167750000Y-82840000D03*
X167750000Y-85380000D03*
X167750000Y-87920000D03*
X167750000Y-90460000D03*
X167750000Y-93000000D03*
X167750000Y-95540000D03*
X167750000Y-98080000D03*
X167750000Y-100620000D03*
X167750000Y-103160000D03*
X167750000Y-105700000D03*
X167750000Y-108240000D03*
X167750000Y-110780000D03*
X167750000Y-113320000D03*
X167750000Y-115860000D03*
X142350000Y-115860000D03*
X142350000Y-113320000D03*
X142350000Y-110780000D03*
X142350000Y-108240000D03*
X142350000Y-105700000D03*
X142350000Y-103160000D03*
X142350000Y-100620000D03*
X142350000Y-98080000D03*
X142350000Y-95540000D03*
X142350000Y-93000000D03*
X142350000Y-90460000D03*
X142350000Y-87920000D03*
X142350000Y-85380000D03*
X142350000Y-82840000D03*
X142350000Y-80300000D03*
%TD*%
D20*
%TO.C,U2*%
X178500000Y-117800000D03*
X181000000Y-117800000D03*
X183500000Y-117800000D03*
X186000000Y-117800000D03*
X188500000Y-117800000D03*
X191000000Y-117800000D03*
X193500000Y-117800000D03*
X196000000Y-117800000D03*
%TD*%
D21*
%TO.C,U1*%
X122500000Y-79150000D03*
X122500000Y-81690000D03*
X122500000Y-84230000D03*
X122500000Y-86770000D03*
X122500000Y-89310000D03*
X122500000Y-91850000D03*
X122500000Y-94390000D03*
X122500000Y-96930000D03*
X122500000Y-99470000D03*
X122500000Y-102010000D03*
X122500000Y-104550000D03*
X122500000Y-107090000D03*
X122500000Y-109630000D03*
X122500000Y-112170000D03*
X125040000Y-112170000D03*
X127580000Y-112170000D03*
X130120000Y-112170000D03*
X132660000Y-112170000D03*
X135200000Y-112170000D03*
X137740000Y-112170000D03*
X137740000Y-109630000D03*
X137740000Y-107090000D03*
X137740000Y-104550000D03*
X137740000Y-102010000D03*
X137740000Y-99470000D03*
X137740000Y-96930000D03*
X137740000Y-94390000D03*
X137740000Y-91850000D03*
X137740000Y-89310000D03*
X137740000Y-86770000D03*
X137740000Y-84230000D03*
X137740000Y-81690000D03*
X137740000Y-79150000D03*
X135200000Y-81690000D03*
D22*
X135200000Y-107090000D03*
X135200000Y-104550000D03*
X132660000Y-107090000D03*
X132660000Y-104550000D03*
X130120000Y-107090000D03*
X130120000Y-104550000D03*
X127580000Y-107090000D03*
X127580000Y-104550000D03*
X125040000Y-107090000D03*
X125040000Y-104550000D03*
D23*
X133620000Y-86288400D03*
X132620000Y-86288400D03*
X131620000Y-86288400D03*
X130620000Y-86288400D03*
X129620000Y-86288400D03*
X128620000Y-86288400D03*
X127620000Y-86288400D03*
X126620000Y-86288400D03*
D22*
X131390000Y-80420000D03*
X128850000Y-80420000D03*
%TD*%
%LPD*%
M02*
