M48
; DRILL file KiCad 10.0.5 date 2026-10-01T17:42:17
; FORMAT={-:-/ absolute / metric / decimal}
; #@! TF.CreationDate,2026-10-01T17:42:17-04:00
; #@! TF.GenerationSoftware,Kicad,Pcbnew,10.0.5
; #@! TF.FileFunction,Plated,1,2,PTH
FMAT,2
METRIC
; #@! TA.AperFunction,Plated,PTH,ViaDrill
T1C0.300
; #@! TA.AperFunction,Plated,PTH,ComponentDrill
T2C0.500
; #@! TA.AperFunction,Plated,PTH,ComponentDrill
T3C0.762
; #@! TA.AperFunction,Plated,PTH,ComponentDrill
T4C0.800
; #@! TA.AperFunction,Plated,PTH,ComponentDrill
T5C1.000
; #@! TA.AperFunction,Plated,PTH,ComponentDrill
T6C1.092
; #@! TA.AperFunction,Plated,PTH,ComponentDrill
T7C1.100
%
G90
G05
T1
X118.4Y-109.7
X125.2Y-79.0
X125.2Y-81.45
X125.2Y-83.95
X125.65Y-101.25
X126.05Y-96.15
X129.2Y-101.25
X134.25Y-96.1
X135.15Y-79.2
X144.85Y-93.05
X146.45Y-87.65
X147.1Y-106.15
X149.15Y-104.2
X152.2Y-87.7
X154.45Y-100.9
X158.65Y-92.4
X161.35Y-100.85
X162.3Y-113.25
X164.65Y-120.5
X172.7Y-107.55
X177.9Y-111.7
X180.35Y-102.9
X182.35Y-107.0
X182.35Y-108.9
X184.75Y-107.95
X184.75Y-110.54
X184.75Y-111.56
X186.0Y-119.75
X186.25Y-96.6
X186.9Y-119.75
X189.5Y-108.25
X191.05Y-94.35
X191.1Y-102.35
X191.1Y-106.45
X194.1Y-111.1
X197.8Y-110.325
X203.05Y-97.5
T2
X126.62Y-86.288
X127.62Y-86.288
X128.62Y-86.288
X129.62Y-86.288
X130.62Y-86.288
X131.62Y-86.288
X132.62Y-86.288
X133.62Y-86.288
T3
X142.35Y-80.3
X142.35Y-82.84
X142.35Y-85.38
X142.35Y-87.92
X142.35Y-90.46
X142.35Y-93.0
X142.35Y-95.54
X142.35Y-98.08
X142.35Y-100.62
X142.35Y-103.16
X142.35Y-105.7
X142.35Y-108.24
X142.35Y-110.78
X142.35Y-113.32
X142.35Y-115.86
X167.75Y-80.3
X167.75Y-82.84
X167.75Y-85.38
X167.75Y-87.92
X167.75Y-90.46
X167.75Y-93.0
X167.75Y-95.54
X167.75Y-98.08
X167.75Y-100.62
X167.75Y-103.16
X167.75Y-105.7
X167.75Y-108.24
X167.75Y-110.78
X167.75Y-113.32
X167.75Y-115.86
T4
X114.5Y-79.16
X114.5Y-81.7
X114.5Y-84.24
X114.5Y-86.78
X114.5Y-89.32
X114.5Y-91.86
X114.5Y-94.4
X114.5Y-96.94
X114.5Y-99.48
X114.5Y-102.02
X114.5Y-104.56
X114.5Y-107.1
X114.5Y-109.64
X114.5Y-112.18
T5
X125.04Y-104.55
X125.04Y-107.09
X127.58Y-104.55
X127.58Y-107.09
X128.85Y-80.42
X130.12Y-104.55
X130.12Y-107.09
X131.39Y-80.42
X132.66Y-104.55
X132.66Y-107.09
X135.2Y-104.55
X135.2Y-107.09
X175.81Y-99.051
X178.35Y-99.051
X180.89Y-99.051
X183.43Y-99.051
X185.97Y-99.051
X188.51Y-99.051
X191.05Y-99.051
X193.59Y-99.051
T6
X178.5Y-117.8
X181.0Y-117.8
X183.5Y-117.8
X186.0Y-117.8
X188.5Y-117.8
X191.0Y-117.8
X193.5Y-117.8
X196.0Y-117.8
T7
X122.5Y-79.15
X122.5Y-81.69
X122.5Y-84.23
X122.5Y-86.77
X122.5Y-89.31
X122.5Y-91.85
X122.5Y-94.39
X122.5Y-96.93
X122.5Y-99.47
X122.5Y-102.01
X122.5Y-104.55
X122.5Y-107.09
X122.5Y-109.63
X122.5Y-112.17
X125.04Y-112.17
X127.58Y-112.17
X130.12Y-112.17
X132.66Y-112.17
X135.2Y-81.69
X135.2Y-112.17
X137.74Y-79.15
X137.74Y-81.69
X137.74Y-84.23
X137.74Y-86.77
X137.74Y-89.31
X137.74Y-91.85
X137.74Y-94.39
X137.74Y-96.93
X137.74Y-99.47
X137.74Y-102.01
X137.74Y-104.55
X137.74Y-107.09
X137.74Y-109.63
X137.74Y-112.17
M30
