%TF.GenerationSoftware,KiCad,Pcbnew,10.0.5*%
%TF.CreationDate,2026-10-01T17:42:10-04:00*%
%TF.ProjectId,DigitalDashDisplay2027,44696769-7461-46c4-9461-736844697370,rev?*%
%TF.SameCoordinates,Original*%
%TF.FileFunction,Other,User*%
%FSLAX46Y46*%
G04 Gerber Fmt 4.6, Leading zero omitted, Abs format (unit mm)*
G04 Created by KiCad (PCBNEW 10.0.5) date 2026-10-01 17:42:10*
%MOMM*%
%LPD*%
G01*
G04 APERTURE LIST*
%ADD10C,0.050000*%
%ADD11C,0.152400*%
G04 APERTURE END LIST*
%TO.C,T2*%
D10*
X181750000Y-106500000D02*
X185350000Y-106500000D01*
X185350000Y-109500000D01*
X181750000Y-109500000D01*
X181750000Y-106500000D01*
%TO.C,U5*%
D11*
X153341600Y-115461600D02*
X153341600Y-120338400D01*
X153341600Y-115461600D02*
X154802100Y-115461600D01*
X153341600Y-120338400D02*
X154802100Y-120338400D01*
X154802100Y-115144100D02*
X154802100Y-115461600D01*
X154802100Y-120338400D02*
X154802100Y-120655900D01*
X154802100Y-120655900D02*
X159297900Y-120655900D01*
X159297900Y-115144100D02*
X154802100Y-115144100D01*
X159297900Y-115461600D02*
X159297900Y-115144100D01*
X159297900Y-120655900D02*
X159297900Y-120338400D01*
X160758400Y-115461600D02*
X159297900Y-115461600D01*
X160758400Y-120338400D02*
X159297900Y-120338400D01*
X160758400Y-120338400D02*
X160758400Y-115461600D01*
%TO.C,IC2*%
D10*
X191375000Y-107725000D02*
X191375000Y-111975000D01*
X191375000Y-111975000D02*
X194925000Y-111975000D01*
X194925000Y-107725000D02*
X191375000Y-107725000D01*
X194925000Y-111975000D02*
X194925000Y-107725000D01*
%TO.C,C2*%
X172050000Y-113770000D02*
X174350000Y-113770000D01*
X174350000Y-118730000D01*
X172050000Y-118730000D01*
X172050000Y-113770000D01*
%TO.C,R2*%
X197070000Y-109670000D02*
X198530000Y-109670000D01*
X198530000Y-112630000D01*
X197070000Y-112630000D01*
X197070000Y-109670000D01*
%TO.C,R11*%
X183720000Y-112620000D02*
X188280000Y-112620000D01*
X188280000Y-114880000D01*
X183720000Y-114880000D01*
X183720000Y-112620000D01*
%TO.C,R10*%
X175070000Y-93200000D02*
X176530000Y-93200000D01*
X176530000Y-96500000D01*
X175070000Y-96500000D01*
X175070000Y-93200000D01*
%TO.C,R1*%
X196020000Y-107520000D02*
X198980000Y-107520000D01*
X198980000Y-108980000D01*
X196020000Y-108980000D01*
X196020000Y-107520000D01*
%TO.C,C4*%
X204100000Y-108250000D02*
X207300000Y-108250000D01*
X207300000Y-112850000D01*
X204100000Y-112850000D01*
X204100000Y-108250000D01*
%TO.C,C3*%
X199400000Y-108250000D02*
X202600000Y-108250000D01*
X202600000Y-112850000D01*
X199400000Y-112850000D01*
X199400000Y-108250000D01*
%TO.C,C1*%
X189470000Y-109520000D02*
X190930000Y-109520000D01*
X190930000Y-112480000D01*
X189470000Y-112480000D01*
X189470000Y-109520000D01*
%TO.C,R9*%
X116850000Y-111470000D02*
X120150000Y-111470000D01*
X120150000Y-112930000D01*
X116850000Y-112930000D01*
X116850000Y-111470000D01*
%TO.C,R6*%
X186530000Y-107270000D02*
X187470000Y-107270000D01*
X187470000Y-109130000D01*
X186530000Y-109130000D01*
X186530000Y-107270000D01*
%TO.C,L1*%
X198275000Y-100000000D02*
X198275000Y-107300000D01*
X198275000Y-107300000D02*
X207125000Y-107300000D01*
X207125000Y-100000000D02*
X198275000Y-100000000D01*
X207125000Y-107300000D02*
X207125000Y-100000000D01*
%TO.C,R3*%
X161520000Y-118170000D02*
X162980000Y-118170000D01*
X162980000Y-121130000D01*
X161520000Y-121130000D01*
X161520000Y-118170000D01*
%TO.C,R8*%
X181930000Y-110070000D02*
X182870000Y-110070000D01*
X182870000Y-111930000D01*
X181930000Y-111930000D01*
X181930000Y-110070000D01*
%TO.C,R5*%
X179080000Y-107470000D02*
X180020000Y-107470000D01*
X180020000Y-109330000D01*
X179080000Y-109330000D01*
X179080000Y-107470000D01*
%TO.C,T1*%
X168250000Y-119400000D02*
X172400000Y-119400000D01*
X172400000Y-122000000D01*
X168250000Y-122000000D01*
X168250000Y-119400000D01*
%TO.C,R7*%
X184280000Y-110120000D02*
X185220000Y-110120000D01*
X185220000Y-111980000D01*
X184280000Y-111980000D01*
X184280000Y-110120000D01*
%TO.C,R4*%
X161520000Y-114820000D02*
X162980000Y-114820000D01*
X162980000Y-117780000D01*
X161520000Y-117780000D01*
X161520000Y-114820000D01*
%TD*%
M02*
