%TF.GenerationSoftware,KiCad,Pcbnew,10.0.5*%
%TF.CreationDate,2026-08-04T20:24:02-04:00*%
%TF.ProjectId,DAQBoardFront,44415142-6f61-4726-9446-726f6e742e6b,rev?*%
%TF.SameCoordinates,Original*%
%TF.FileFunction,Copper,L1,Top*%
%TF.FilePolarity,Positive*%
%FSLAX46Y46*%
G04 Gerber Fmt 4.6, Leading zero omitted, Abs format (unit mm)*
G04 Created by KiCad (PCBNEW 10.0.5) date 2026-08-04 20:24:02*
%MOMM*%
%LPD*%
G01*
G04 APERTURE LIST*
%TA.AperFunction,ComponentPad*%
%ADD10C,1.524000*%
%TD*%
%TA.AperFunction,ComponentPad*%
%ADD11C,1.778000*%
%TD*%
%TA.AperFunction,ComponentPad*%
%ADD12C,1.600200*%
%TD*%
%TA.AperFunction,ComponentPad*%
%ADD13R,1.508000X1.508000*%
%TD*%
%TA.AperFunction,ComponentPad*%
%ADD14C,1.508000*%
%TD*%
%TA.AperFunction,ComponentPad*%
%ADD15C,3.516000*%
%TD*%
%TA.AperFunction,ComponentPad*%
%ADD16C,1.650000*%
%TD*%
%TA.AperFunction,ViaPad*%
%ADD17C,0.600000*%
%TD*%
%TA.AperFunction,Conductor*%
%ADD18C,0.200000*%
%TD*%
G04 APERTURE END LIST*
D10*
%TO.P,U3,1,B12_1*%
%TO.N,unconnected-(U3-B12-Pad1)*%
X134010000Y-66400000D03*
%TO.P,U3,2,B13_2*%
%TO.N,unconnected-(U3-B13-Pad2)*%
X134010000Y-68940000D03*
%TO.P,U3,3,B14_3*%
%TO.N,unconnected-(U3-B14-Pad3)*%
X134010000Y-71480000D03*
%TO.P,U3,4,B15_4*%
%TO.N,unconnected-(U3-B15-Pad4)*%
X134010000Y-74020000D03*
%TO.P,U3,5,A8_5*%
%TO.N,unconnected-(U3-A8-Pad5)*%
X134010000Y-76560000D03*
%TO.P,U3,6,A9_6*%
%TO.N,unconnected-(U3-A9-Pad6)*%
X134010000Y-79100000D03*
%TO.P,U3,7,A10_7*%
%TO.N,unconnected-(U3-A10-Pad7)*%
X134010000Y-81640000D03*
%TO.P,U3,8,A11_8*%
%TO.N,/CANRx*%
X134010000Y-84180000D03*
%TO.P,U3,9,A12_9*%
%TO.N,/CANTx*%
X134010000Y-86720000D03*
%TO.P,U3,10,A15_10*%
%TO.N,unconnected-(U3-A15-Pad10)*%
X134010000Y-89260000D03*
%TO.P,U3,11,B3_11*%
%TO.N,unconnected-(U3-B3-Pad11)*%
X134010000Y-91800000D03*
%TO.P,U3,12,B4_12*%
%TO.N,unconnected-(U3-B4-Pad12)*%
X134010000Y-94340000D03*
%TO.P,U3,13,1B5_13*%
%TO.N,unconnected-(U3-1B5-Pad13)*%
X134010000Y-96880000D03*
%TO.P,U3,14,B6_14*%
%TO.N,/Acc SCL*%
X134010000Y-99420000D03*
%TO.P,U3,15,B7_15*%
%TO.N,/Acc SDA*%
X134010000Y-101960000D03*
%TO.P,U3,16,B8_16*%
%TO.N,unconnected-(U3-B8-Pad16)*%
X134010000Y-104500000D03*
%TO.P,U3,17,B9_17*%
%TO.N,unconnected-(U3-B9-Pad17)*%
X134010000Y-107040000D03*
%TO.P,U3,18,5V_18*%
%TO.N,unconnected-(U3-5V-Pad18)*%
X134010000Y-109580000D03*
%TO.P,U3,19,G_19*%
%TO.N,unconnected-(U3-G-Pad19)*%
X134010000Y-112120000D03*
%TO.P,U3,20,3V3_20*%
%TO.N,unconnected-(U3-3V3-Pad20)*%
X134010000Y-114660000D03*
%TO.P,U3,21,VB_21*%
%TO.N,unconnected-(U3-VB-Pad21)*%
X149250000Y-114660000D03*
%TO.P,U3,22,C13_22*%
%TO.N,unconnected-(U3-C13-Pad22)*%
X149250000Y-112120000D03*
%TO.P,U3,23,C14_23*%
%TO.N,unconnected-(U3-C14-Pad23)*%
X149250000Y-109580000D03*
%TO.P,U3,24,C15_24*%
%TO.N,unconnected-(U3-C15-Pad24)*%
X149250000Y-107040000D03*
%TO.P,U3,25,A0_25*%
%TO.N,Net-(U3-A0)*%
X149250000Y-104500000D03*
%TO.P,U3,26,A1_26*%
%TO.N,Net-(U3-A1)*%
X149250000Y-101960000D03*
%TO.P,U3,27,A2_27*%
%TO.N,Net-(U3-A2)*%
X149250000Y-99420000D03*
%TO.P,U3,28,A3_28*%
%TO.N,Net-(U3-A3)*%
X149250000Y-96880000D03*
%TO.P,U3,29,A4_29*%
%TO.N,unconnected-(U3-A4-Pad29)*%
X149250000Y-94340000D03*
%TO.P,U3,30,A5_30*%
%TO.N,unconnected-(U3-A5-Pad30)*%
X149250000Y-91800000D03*
%TO.P,U3,31,A6_31*%
%TO.N,unconnected-(U3-A6-Pad31)*%
X149250000Y-89260000D03*
%TO.P,U3,32,A7_32*%
%TO.N,/ExtraDigital*%
X149250000Y-86720000D03*
%TO.P,U3,33,B0_33*%
%TO.N,/FRHallEffect*%
X149250000Y-84180000D03*
%TO.P,U3,34,B1_34*%
%TO.N,/FLHallEffect*%
X149250000Y-81640000D03*
%TO.P,U3,35,B10_35*%
%TO.N,Net-(D2-A)*%
X149250000Y-79100000D03*
%TO.P,U3,36,B11_36*%
%TO.N,unconnected-(U3-B11-Pad36)*%
X149250000Y-76560000D03*
%TO.P,U3,37,R_37*%
%TO.N,unconnected-(U3-R-Pad37)*%
X149250000Y-74020000D03*
%TO.P,U3,38,3V3_38*%
%TO.N,/+3.3V*%
X149250000Y-71480000D03*
%TO.P,U3,39,G_39*%
%TO.N,/GND*%
X149250000Y-68940000D03*
%TO.P,U3,40,G_40*%
X149250000Y-66400000D03*
%TD*%
D11*
%TO.P,U2,1,Vcc_1*%
%TO.N,/+3.3V*%
X104000000Y-67800000D03*
%TO.P,U2,2,GND_2*%
%TO.N,/GND*%
X104000000Y-70340000D03*
%TO.P,U2,3,RX_3*%
%TO.N,/CANTx*%
X104000000Y-72880000D03*
%TO.P,U2,4,TX_4*%
%TO.N,/CANRx*%
X104000000Y-75420000D03*
%TO.P,U2,5,SLNT_5*%
%TO.N,unconnected-(U2-SLNT-Pad5)*%
X104000000Y-77960000D03*
%TO.P,U2,6,CANHi_6*%
%TO.N,/CAN Hi*%
X104000000Y-80500000D03*
%TO.P,U2,7,CANLo_7*%
%TO.N,/CAN Lo*%
X104000000Y-83040000D03*
%TD*%
D12*
%TO.P,U4,1,1_1*%
%TO.N,/ExtraAnalog*%
X104000000Y-122250000D03*
%TO.P,U4,2,2_2*%
%TO.N,/SteeringAngle*%
X104000000Y-119750000D03*
%TO.P,U4,3,3_3*%
%TO.N,/FLSus*%
X104000000Y-117250000D03*
%TO.P,U4,4,4_4*%
%TO.N,/FRSus*%
X104000000Y-114750000D03*
%TO.P,U4,5,1_5*%
%TO.N,/ExtraDigital*%
X104000000Y-112250000D03*
%TO.P,U4,6,2_6*%
%TO.N,/FRHallEffect*%
X104000000Y-109750000D03*
%TO.P,U4,7,3_7*%
%TO.N,/FLHallEffect*%
X104000000Y-107250000D03*
%TO.P,U4,8,4_8*%
%TO.N,/Brake P Input*%
X104000000Y-104750000D03*
%TD*%
D13*
%TO.P,U1,1,Vin_1*%
%TO.N,/+3.3V*%
X110860000Y-110400000D03*
D14*
%TO.P,U1,2,GND_2*%
%TO.N,/GND*%
X113400000Y-110400000D03*
%TO.P,U1,3,3Vo_3*%
%TO.N,unconnected-(U1-3Vo-Pad3)*%
X115940000Y-110400000D03*
%TO.P,U1,4,I2_4*%
%TO.N,unconnected-(U1-I2-Pad4)*%
X118480000Y-110400000D03*
%TO.P,U1,5,I1_5*%
%TO.N,unconnected-(U1-I1-Pad5)*%
X121020000Y-110400000D03*
%TO.P,U1,6,SCL_6*%
%TO.N,/Acc SCL*%
X123560000Y-110400000D03*
%TO.P,U1,7,SDA_7*%
%TO.N,/Acc SDA*%
X126100000Y-110400000D03*
%TO.P,U1,8,A_8*%
%TO.N,unconnected-(U1-A-Pad8)*%
X128640000Y-110400000D03*
D15*
%TO.P,U1,P1*%
%TO.N,N/C*%
X127370000Y-123100000D03*
%TO.P,U1,P2*%
X112130000Y-123100000D03*
%TD*%
D16*
%TO.P,J2,1,1_1*%
%TO.N,/CAN Lo*%
X104000000Y-90000000D03*
%TO.P,J2,2,2_2*%
%TO.N,/CAN Hi*%
X104000000Y-92500000D03*
%TO.P,J2,3,3_3*%
%TO.N,/GND*%
X104000000Y-95000000D03*
%TO.P,J2,4,4_4*%
%TO.N,/+3.3V*%
X104000000Y-97500000D03*
%TD*%
D17*
%TO.N,/Brake P Input*%
X151550000Y-80350000D03*
%TD*%
%TO.N,/CANTx*%
D18*
X104000000Y-72880000D02*
X120170000Y-72880000D01*
X120170000Y-72880000D02*
X134010000Y-86720000D01*
%TO.N,/Acc SCL*%
X131830000Y-99420000D02*
X134010000Y-99420000D01*
X123560000Y-110400000D02*
X123560000Y-107690000D01*
X123560000Y-107690000D02*
X131830000Y-99420000D01*
%TO.N,/Acc SDA*%
X131540000Y-101960000D02*
X134010000Y-101960000D01*
X126100000Y-110400000D02*
X126100000Y-107400000D01*
X126100000Y-107400000D02*
X131540000Y-101960000D01*
%TO.N,/ExtraDigital*%
X149250000Y-86720000D02*
X140370000Y-95600000D01*
X120650000Y-95600000D02*
X104000000Y-112250000D01*
X140370000Y-95600000D02*
X120650000Y-95600000D01*
%TO.N,/FRHallEffect*%
X120650000Y-93100000D02*
X140330000Y-93100000D01*
X140330000Y-93100000D02*
X149250000Y-84180000D01*
X104000000Y-109750000D02*
X120650000Y-93100000D01*
%TO.N,/FLHallEffect*%
X140390000Y-90500000D02*
X149250000Y-81640000D01*
X120750000Y-90500000D02*
X140390000Y-90500000D01*
X104000000Y-107250000D02*
X120750000Y-90500000D01*
%TO.N,/Brake P Input*%
X151550000Y-80350000D02*
X147600000Y-80350000D01*
X140168000Y-87782000D02*
X120968000Y-87782000D01*
X120968000Y-87782000D02*
X104000000Y-104750000D01*
X147600000Y-80350000D02*
X140168000Y-87782000D01*
%TD*%
%TA.AperFunction,Conductor*%
%TO.N,/+3.3V*%
G36*
X167692539Y-64020185D02*
G01*
X167738294Y-64072989D01*
X167749500Y-64124500D01*
X167749500Y-127125500D01*
X167729815Y-127192539D01*
X167677011Y-127238294D01*
X167625500Y-127249500D01*
X99124500Y-127249500D01*
X99057461Y-127229815D01*
X99011706Y-127177011D01*
X99000500Y-127125500D01*
X99000500Y-123764032D01*
X100927306Y-123764032D01*
X100927306Y-123935967D01*
X100960845Y-124104578D01*
X100960847Y-124104586D01*
X101026641Y-124263427D01*
X101026641Y-124263428D01*
X101122154Y-124406373D01*
X101122160Y-124406381D01*
X101243724Y-124527945D01*
X101243732Y-124527951D01*
X101386677Y-124623464D01*
X101433201Y-124642735D01*
X101545520Y-124689259D01*
X101714138Y-124722799D01*
X101714142Y-124722800D01*
X101714143Y-124722800D01*
X101886070Y-124722800D01*
X101886071Y-124722799D01*
X102054692Y-124689259D01*
X102213532Y-124623465D01*
X102213533Y-124623464D01*
X102213534Y-124623464D01*
X102284528Y-124576026D01*
X102356484Y-124527948D01*
X102478054Y-124406378D01*
X102573571Y-124263426D01*
X102639365Y-124104586D01*
X102672906Y-123935963D01*
X102672906Y-123764037D01*
X102639365Y-123595414D01*
X102573571Y-123436574D01*
X102573570Y-123436572D01*
X102573570Y-123436571D01*
X102478057Y-123293626D01*
X102478051Y-123293618D01*
X102356487Y-123172054D01*
X102356479Y-123172048D01*
X102213534Y-123076535D01*
X102054692Y-123010741D01*
X102054684Y-123010739D01*
X101886073Y-122977200D01*
X101886069Y-122977200D01*
X101714143Y-122977200D01*
X101714138Y-122977200D01*
X101545527Y-123010739D01*
X101545519Y-123010741D01*
X101386678Y-123076535D01*
X101386677Y-123076535D01*
X101243732Y-123172048D01*
X101243724Y-123172054D01*
X101122160Y-123293618D01*
X101122154Y-123293626D01*
X101026641Y-123436571D01*
X101026641Y-123436572D01*
X100960847Y-123595413D01*
X100960845Y-123595421D01*
X100927306Y-123764032D01*
X99000500Y-123764032D01*
X99000500Y-89895675D01*
X102674500Y-89895675D01*
X102674500Y-90104324D01*
X102707137Y-90310389D01*
X102771612Y-90508820D01*
X102833354Y-90629995D01*
X102866330Y-90694714D01*
X102988965Y-90863505D01*
X103136495Y-91011035D01*
X103305286Y-91133670D01*
X103314380Y-91138303D01*
X103316759Y-91139516D01*
X103367554Y-91187492D01*
X103384348Y-91255313D01*
X103361809Y-91321447D01*
X103316759Y-91360484D01*
X103305286Y-91366330D01*
X103136493Y-91488966D01*
X102988966Y-91636493D01*
X102866330Y-91805285D01*
X102771612Y-91991179D01*
X102707137Y-92189610D01*
X102674500Y-92395675D01*
X102674500Y-92604324D01*
X102707137Y-92810389D01*
X102771612Y-93008820D01*
X102839189Y-93141446D01*
X102866330Y-93194714D01*
X102988965Y-93363505D01*
X103136495Y-93511035D01*
X103305286Y-93633670D01*
X103314380Y-93638303D01*
X103316759Y-93639516D01*
X103367554Y-93687492D01*
X103384348Y-93755313D01*
X103361809Y-93821447D01*
X103316759Y-93860484D01*
X103305286Y-93866330D01*
X103136493Y-93988966D01*
X102988966Y-94136493D01*
X102866330Y-94305285D01*
X102771612Y-94491179D01*
X102707137Y-94689610D01*
X102674500Y-94895675D01*
X102674500Y-95104324D01*
X102707137Y-95310389D01*
X102771612Y-95508820D01*
X102859570Y-95681446D01*
X102866330Y-95694714D01*
X102988965Y-95863505D01*
X103136495Y-96011035D01*
X103305286Y-96133670D01*
X103317309Y-96139796D01*
X103368105Y-96187769D01*
X103384901Y-96255589D01*
X103362365Y-96321725D01*
X103317313Y-96360764D01*
X103305556Y-96366754D01*
X103305555Y-96366755D01*
X103256180Y-96402627D01*
X103829766Y-96976212D01*
X103787708Y-96987482D01*
X103662292Y-97059890D01*
X103559890Y-97162292D01*
X103487482Y-97287708D01*
X103476212Y-97329765D01*
X102902627Y-96756180D01*
X102866757Y-96805552D01*
X102772075Y-96991372D01*
X102707626Y-97189727D01*
X102675000Y-97395720D01*
X102675000Y-97604279D01*
X102707626Y-97810272D01*
X102772075Y-98008627D01*
X102866759Y-98194451D01*
X102902627Y-98243818D01*
X102902627Y-98243819D01*
X103476212Y-97670234D01*
X103487482Y-97712292D01*
X103559890Y-97837708D01*
X103662292Y-97940110D01*
X103787708Y-98012518D01*
X103829765Y-98023787D01*
X103256179Y-98597371D01*
X103256180Y-98597372D01*
X103305543Y-98633236D01*
X103305556Y-98633244D01*
X103491372Y-98727924D01*
X103689727Y-98792373D01*
X103895721Y-98825000D01*
X104104279Y-98825000D01*
X104310272Y-98792373D01*
X104508627Y-98727924D01*
X104694451Y-98633240D01*
X104743818Y-98597372D01*
X104743818Y-98597371D01*
X104170234Y-98023787D01*
X104212292Y-98012518D01*
X104337708Y-97940110D01*
X104440110Y-97837708D01*
X104512518Y-97712292D01*
X104523787Y-97670234D01*
X105097371Y-98243818D01*
X105097372Y-98243818D01*
X105133240Y-98194451D01*
X105227924Y-98008627D01*
X105292373Y-97810272D01*
X105325000Y-97604279D01*
X105325000Y-97395720D01*
X105292373Y-97189727D01*
X105227924Y-96991372D01*
X105133244Y-96805556D01*
X105133236Y-96805543D01*
X105097372Y-96756180D01*
X105097371Y-96756179D01*
X104523787Y-97329764D01*
X104512518Y-97287708D01*
X104440110Y-97162292D01*
X104337708Y-97059890D01*
X104212292Y-96987482D01*
X104170233Y-96976212D01*
X104743819Y-96402627D01*
X104694446Y-96366755D01*
X104682689Y-96360765D01*
X104631893Y-96312791D01*
X104615098Y-96244970D01*
X104637636Y-96178835D01*
X104682692Y-96139795D01*
X104694714Y-96133670D01*
X104863505Y-96011035D01*
X105011035Y-95863505D01*
X105133670Y-95694714D01*
X105228389Y-95508816D01*
X105292862Y-95310389D01*
X105305391Y-95231284D01*
X105325500Y-95104324D01*
X105325500Y-94895675D01*
X105292862Y-94689610D01*
X105228387Y-94491179D01*
X105133669Y-94305285D01*
X105011035Y-94136495D01*
X104863505Y-93988965D01*
X104807241Y-93948086D01*
X104694712Y-93866328D01*
X104683243Y-93860485D01*
X104632447Y-93812511D01*
X104615651Y-93744690D01*
X104638188Y-93678555D01*
X104683243Y-93639515D01*
X104694712Y-93633671D01*
X104694711Y-93633671D01*
X104694714Y-93633670D01*
X104863505Y-93511035D01*
X105011035Y-93363505D01*
X105133670Y-93194714D01*
X105228389Y-93008816D01*
X105292862Y-92810389D01*
X105305391Y-92731284D01*
X105325500Y-92604324D01*
X105325500Y-92395675D01*
X105292862Y-92189610D01*
X105228387Y-91991179D01*
X105133669Y-91805285D01*
X105011035Y-91636495D01*
X104863505Y-91488965D01*
X104807241Y-91448086D01*
X104694712Y-91366328D01*
X104683243Y-91360485D01*
X104632447Y-91312511D01*
X104615651Y-91244690D01*
X104638188Y-91178555D01*
X104683243Y-91139515D01*
X104694712Y-91133671D01*
X104694711Y-91133671D01*
X104694714Y-91133670D01*
X104863505Y-91011035D01*
X105011035Y-90863505D01*
X105133670Y-90694714D01*
X105228389Y-90508816D01*
X105292862Y-90310389D01*
X105306706Y-90222981D01*
X105325500Y-90104324D01*
X105325500Y-89895675D01*
X105292862Y-89689610D01*
X105228387Y-89491179D01*
X105133669Y-89305285D01*
X105087584Y-89241855D01*
X105011035Y-89136495D01*
X104863505Y-88988965D01*
X104694714Y-88866330D01*
X104508820Y-88771612D01*
X104310389Y-88707137D01*
X104104324Y-88674500D01*
X104104319Y-88674500D01*
X103895681Y-88674500D01*
X103895676Y-88674500D01*
X103689610Y-88707137D01*
X103491179Y-88771612D01*
X103305285Y-88866330D01*
X103136493Y-88988966D01*
X102988966Y-89136493D01*
X102866330Y-89305285D01*
X102771612Y-89491179D01*
X102707137Y-89689610D01*
X102674500Y-89895675D01*
X99000500Y-89895675D01*
X99000500Y-88313766D01*
X105324500Y-88313766D01*
X105324500Y-88486233D01*
X105358143Y-88655366D01*
X105358146Y-88655378D01*
X105424138Y-88814698D01*
X105424145Y-88814711D01*
X105519954Y-88958098D01*
X105519957Y-88958102D01*
X105641897Y-89080042D01*
X105641901Y-89080045D01*
X105785288Y-89175854D01*
X105785301Y-89175861D01*
X105944621Y-89241853D01*
X105944626Y-89241855D01*
X106113766Y-89275499D01*
X106113769Y-89275500D01*
X106113771Y-89275500D01*
X106286231Y-89275500D01*
X106286232Y-89275499D01*
X106455374Y-89241855D01*
X106614705Y-89175858D01*
X106758099Y-89080045D01*
X106880045Y-88958099D01*
X106975858Y-88814705D01*
X107041855Y-88655374D01*
X107075500Y-88486229D01*
X107075500Y-88313771D01*
X107075500Y-88313768D01*
X107075499Y-88313766D01*
X107072168Y-88297019D01*
X107041855Y-88144626D01*
X107019226Y-88089995D01*
X106975861Y-87985301D01*
X106975854Y-87985288D01*
X106880045Y-87841901D01*
X106880042Y-87841897D01*
X106758102Y-87719957D01*
X106758098Y-87719954D01*
X106614711Y-87624145D01*
X106614698Y-87624138D01*
X106455378Y-87558146D01*
X106455366Y-87558143D01*
X106286232Y-87524500D01*
X106286229Y-87524500D01*
X106113771Y-87524500D01*
X106113768Y-87524500D01*
X105944633Y-87558143D01*
X105944621Y-87558146D01*
X105785301Y-87624138D01*
X105785288Y-87624145D01*
X105641901Y-87719954D01*
X105641897Y-87719957D01*
X105519957Y-87841897D01*
X105519954Y-87841901D01*
X105424145Y-87985288D01*
X105424138Y-87985301D01*
X105358146Y-88144621D01*
X105358143Y-88144633D01*
X105324500Y-88313766D01*
X99000500Y-88313766D01*
X99000500Y-70230638D01*
X102610500Y-70230638D01*
X102610500Y-70449361D01*
X102644714Y-70665376D01*
X102712297Y-70873380D01*
X102712298Y-70873383D01*
X102811595Y-71068260D01*
X102940142Y-71245193D01*
X103094806Y-71399857D01*
X103245969Y-71509682D01*
X103288635Y-71565011D01*
X103294614Y-71634625D01*
X103262009Y-71696420D01*
X103245969Y-71710318D01*
X103094806Y-71820142D01*
X102940142Y-71974806D01*
X102811595Y-72151739D01*
X102712298Y-72346616D01*
X102712297Y-72346619D01*
X102644714Y-72554623D01*
X102610500Y-72770638D01*
X102610500Y-72989361D01*
X102644714Y-73205376D01*
X102712297Y-73413380D01*
X102712298Y-73413383D01*
X102811595Y-73608260D01*
X102940142Y-73785193D01*
X103094806Y-73939857D01*
X103245969Y-74049682D01*
X103288635Y-74105011D01*
X103294614Y-74174625D01*
X103262009Y-74236420D01*
X103245969Y-74250318D01*
X103094806Y-74360142D01*
X102940142Y-74514806D01*
X102811595Y-74691739D01*
X102712298Y-74886616D01*
X102712297Y-74886619D01*
X102644714Y-75094623D01*
X102610500Y-75310638D01*
X102610500Y-75529361D01*
X102644714Y-75745376D01*
X102712297Y-75953380D01*
X102712298Y-75953383D01*
X102811595Y-76148260D01*
X102940142Y-76325193D01*
X103094806Y-76479857D01*
X103245969Y-76589682D01*
X103288635Y-76645011D01*
X103294614Y-76714625D01*
X103262009Y-76776420D01*
X103245969Y-76790318D01*
X103094806Y-76900142D01*
X102940142Y-77054806D01*
X102811595Y-77231739D01*
X102712298Y-77426616D01*
X102712297Y-77426619D01*
X102644714Y-77634623D01*
X102610500Y-77850638D01*
X102610500Y-78069361D01*
X102644714Y-78285376D01*
X102712297Y-78493380D01*
X102712298Y-78493383D01*
X102811595Y-78688260D01*
X102940142Y-78865193D01*
X103094806Y-79019857D01*
X103245969Y-79129682D01*
X103288635Y-79185011D01*
X103294614Y-79254625D01*
X103262009Y-79316420D01*
X103245969Y-79330318D01*
X103094806Y-79440142D01*
X102940142Y-79594806D01*
X102811595Y-79771739D01*
X102712298Y-79966616D01*
X102712297Y-79966619D01*
X102644714Y-80174623D01*
X102610500Y-80390638D01*
X102610500Y-80609361D01*
X102644714Y-80825376D01*
X102712297Y-81033380D01*
X102712298Y-81033383D01*
X102811595Y-81228260D01*
X102940142Y-81405193D01*
X103094806Y-81559857D01*
X103245969Y-81669682D01*
X103288635Y-81725011D01*
X103294614Y-81794625D01*
X103262009Y-81856420D01*
X103245969Y-81870318D01*
X103094806Y-81980142D01*
X102940142Y-82134806D01*
X102811595Y-82311739D01*
X102712298Y-82506616D01*
X102712297Y-82506619D01*
X102644714Y-82714623D01*
X102610500Y-82930638D01*
X102610500Y-83149361D01*
X102644714Y-83365376D01*
X102712297Y-83573380D01*
X102712298Y-83573383D01*
X102811595Y-83768260D01*
X102940142Y-83945193D01*
X103094806Y-84099857D01*
X103260374Y-84220147D01*
X103271743Y-84228407D01*
X103398962Y-84293229D01*
X103466616Y-84327701D01*
X103466619Y-84327702D01*
X103570621Y-84361493D01*
X103674625Y-84395286D01*
X103774672Y-84411132D01*
X103890639Y-84429500D01*
X103890644Y-84429500D01*
X104109361Y-84429500D01*
X104214082Y-84412912D01*
X104325375Y-84395286D01*
X104533383Y-84327701D01*
X104728257Y-84228407D01*
X104827601Y-84156229D01*
X104905193Y-84099857D01*
X104905195Y-84099854D01*
X104905199Y-84099852D01*
X105059852Y-83945199D01*
X105059854Y-83945195D01*
X105059857Y-83945193D01*
X105116229Y-83867601D01*
X105188407Y-83768257D01*
X105287701Y-83573383D01*
X105355286Y-83365375D01*
X105378783Y-83217021D01*
X105389500Y-83149361D01*
X105389500Y-82930638D01*
X105368731Y-82799515D01*
X105355286Y-82714625D01*
X105287701Y-82506617D01*
X105287701Y-82506616D01*
X105253315Y-82439132D01*
X105188407Y-82311743D01*
X105180147Y-82300374D01*
X105059857Y-82134806D01*
X104905199Y-81980148D01*
X104905191Y-81980142D01*
X104754028Y-81870316D01*
X104711364Y-81814989D01*
X104705385Y-81745376D01*
X104737990Y-81683580D01*
X104754023Y-81669686D01*
X104905199Y-81559852D01*
X105059852Y-81405199D01*
X105059854Y-81405195D01*
X105059857Y-81405193D01*
X105116229Y-81327601D01*
X105188407Y-81228257D01*
X105287701Y-81033383D01*
X105355286Y-80825375D01*
X105378783Y-80677021D01*
X105389500Y-80609361D01*
X105389500Y-80390638D01*
X105368731Y-80259515D01*
X105355286Y-80174625D01*
X105287701Y-79966617D01*
X105287701Y-79966616D01*
X105238206Y-79869479D01*
X105188407Y-79771743D01*
X105157945Y-79729815D01*
X105059857Y-79594806D01*
X104905199Y-79440148D01*
X104843933Y-79395636D01*
X104754028Y-79330316D01*
X104711364Y-79274989D01*
X104705385Y-79205376D01*
X104737990Y-79143580D01*
X104754023Y-79129686D01*
X104905199Y-79019852D01*
X105059852Y-78865199D01*
X105059854Y-78865195D01*
X105059857Y-78865193D01*
X105116229Y-78787601D01*
X105188407Y-78688257D01*
X105287701Y-78493383D01*
X105355286Y-78285375D01*
X105378783Y-78137021D01*
X105389500Y-78069361D01*
X105389500Y-77850638D01*
X105368731Y-77719515D01*
X105355286Y-77634625D01*
X105287701Y-77426617D01*
X105287701Y-77426616D01*
X105253315Y-77359132D01*
X105188407Y-77231743D01*
X105180147Y-77220374D01*
X105059857Y-77054806D01*
X104905199Y-76900148D01*
X104843933Y-76855636D01*
X104754028Y-76790316D01*
X104711364Y-76734989D01*
X104705385Y-76665376D01*
X104737990Y-76603580D01*
X104754023Y-76589686D01*
X104905199Y-76479852D01*
X105059852Y-76325199D01*
X105059854Y-76325195D01*
X105059857Y-76325193D01*
X105116229Y-76247601D01*
X105188407Y-76148257D01*
X105287701Y-75953383D01*
X105355286Y-75745375D01*
X105378783Y-75597021D01*
X105389500Y-75529361D01*
X105389500Y-75310638D01*
X105368731Y-75179515D01*
X105355286Y-75094625D01*
X105287701Y-74886617D01*
X105287701Y-74886616D01*
X105253315Y-74819132D01*
X105188407Y-74691743D01*
X105180147Y-74680374D01*
X105059857Y-74514806D01*
X104905199Y-74360148D01*
X104843933Y-74315636D01*
X104754028Y-74250316D01*
X104711364Y-74194989D01*
X104705385Y-74125376D01*
X104737990Y-74063580D01*
X104754023Y-74049686D01*
X104905199Y-73939852D01*
X105059852Y-73785199D01*
X105059854Y-73785195D01*
X105059857Y-73785193D01*
X105116229Y-73707601D01*
X105188407Y-73608257D01*
X105219005Y-73548204D01*
X105266980Y-73497409D01*
X105329490Y-73480500D01*
X119869903Y-73480500D01*
X119936942Y-73500185D01*
X119957584Y-73516819D01*
X132746237Y-86305473D01*
X132779722Y-86366796D01*
X132779160Y-86419523D01*
X132779349Y-86419553D01*
X132779146Y-86420832D01*
X132779133Y-86422088D01*
X132778587Y-86424361D01*
X132747500Y-86620639D01*
X132747500Y-86819360D01*
X132778587Y-87015638D01*
X132779738Y-87019180D01*
X132781735Y-87089021D01*
X132745655Y-87148854D01*
X132682955Y-87179684D01*
X132661808Y-87181500D01*
X121054670Y-87181500D01*
X121054654Y-87181499D01*
X121047058Y-87181499D01*
X120888943Y-87181499D01*
X120812579Y-87201961D01*
X120736214Y-87222423D01*
X120736209Y-87222426D01*
X120599290Y-87301475D01*
X120599282Y-87301481D01*
X104444921Y-103455842D01*
X104383598Y-103489327D01*
X104318922Y-103486092D01*
X104312225Y-103483916D01*
X104304556Y-103481424D01*
X104102364Y-103449400D01*
X104102359Y-103449400D01*
X103897641Y-103449400D01*
X103897636Y-103449400D01*
X103695440Y-103481425D01*
X103500745Y-103544684D01*
X103500742Y-103544685D01*
X103318336Y-103637627D01*
X103263411Y-103677533D01*
X103152716Y-103757958D01*
X103152714Y-103757960D01*
X103152713Y-103757960D01*
X103007960Y-103902713D01*
X103007960Y-103902714D01*
X103007958Y-103902716D01*
X102956280Y-103973843D01*
X102887627Y-104068336D01*
X102794685Y-104250742D01*
X102794684Y-104250745D01*
X102731425Y-104445440D01*
X102699400Y-104647635D01*
X102699400Y-104852364D01*
X102731425Y-105054559D01*
X102794684Y-105249254D01*
X102794685Y-105249257D01*
X102887627Y-105431663D01*
X103007958Y-105597284D01*
X103152716Y-105742042D01*
X103318337Y-105862373D01*
X103318339Y-105862374D01*
X103371606Y-105889516D01*
X103422401Y-105937491D01*
X103439196Y-106005312D01*
X103416658Y-106071446D01*
X103371606Y-106110484D01*
X103318339Y-106137625D01*
X103235526Y-106197792D01*
X103152716Y-106257958D01*
X103152714Y-106257960D01*
X103152713Y-106257960D01*
X103007960Y-106402713D01*
X103007960Y-106402714D01*
X103007958Y-106402716D01*
X102956280Y-106473843D01*
X102887627Y-106568336D01*
X102794685Y-106750742D01*
X102794684Y-106750745D01*
X102731425Y-106945440D01*
X102699400Y-107147635D01*
X102699400Y-107352364D01*
X102731425Y-107554559D01*
X102794684Y-107749254D01*
X102794685Y-107749257D01*
X102887627Y-107931663D01*
X103007958Y-108097284D01*
X103152716Y-108242042D01*
X103318337Y-108362373D01*
X103318339Y-108362374D01*
X103371606Y-108389516D01*
X103422401Y-108437491D01*
X103439196Y-108505312D01*
X103416658Y-108571446D01*
X103371606Y-108610484D01*
X103318339Y-108637625D01*
X103235526Y-108697792D01*
X103152716Y-108757958D01*
X103152714Y-108757960D01*
X103152713Y-108757960D01*
X103007960Y-108902713D01*
X103007960Y-108902714D01*
X103007958Y-108902716D01*
X102956280Y-108973843D01*
X102887627Y-109068336D01*
X102794685Y-109250742D01*
X102794684Y-109250745D01*
X102731425Y-109445440D01*
X102699400Y-109647635D01*
X102699400Y-109852364D01*
X102731425Y-110054559D01*
X102794684Y-110249254D01*
X102794685Y-110249257D01*
X102872749Y-110402464D01*
X102887627Y-110431663D01*
X103007958Y-110597284D01*
X103152716Y-110742042D01*
X103318337Y-110862373D01*
X103318339Y-110862374D01*
X103371606Y-110889516D01*
X103422401Y-110937491D01*
X103439196Y-111005312D01*
X103416658Y-111071446D01*
X103371606Y-111110484D01*
X103318339Y-111137625D01*
X103235526Y-111197792D01*
X103152716Y-111257958D01*
X103152714Y-111257960D01*
X103152713Y-111257960D01*
X103007960Y-111402713D01*
X103007960Y-111402714D01*
X103007958Y-111402716D01*
X102956936Y-111472941D01*
X102887627Y-111568336D01*
X102794685Y-111750742D01*
X102794684Y-111750745D01*
X102731425Y-111945440D01*
X102699400Y-112147635D01*
X102699400Y-112352364D01*
X102731425Y-112554559D01*
X102794684Y-112749254D01*
X102794685Y-112749257D01*
X102887627Y-112931663D01*
X103007958Y-113097284D01*
X103152716Y-113242042D01*
X103318337Y-113362373D01*
X103318339Y-113362374D01*
X103371606Y-113389516D01*
X103422401Y-113437491D01*
X103439196Y-113505312D01*
X103416658Y-113571446D01*
X103371606Y-113610484D01*
X103318339Y-113637625D01*
X103236591Y-113697019D01*
X103152716Y-113757958D01*
X103152714Y-113757960D01*
X103152713Y-113757960D01*
X103007960Y-113902713D01*
X103007960Y-113902714D01*
X103007958Y-113902716D01*
X102956280Y-113973843D01*
X102887627Y-114068336D01*
X102794685Y-114250742D01*
X102794684Y-114250745D01*
X102731425Y-114445440D01*
X102699400Y-114647635D01*
X102699400Y-114852364D01*
X102731425Y-115054559D01*
X102794684Y-115249254D01*
X102794685Y-115249257D01*
X102887627Y-115431663D01*
X103007958Y-115597284D01*
X103152716Y-115742042D01*
X103318337Y-115862373D01*
X103318339Y-115862374D01*
X103371606Y-115889516D01*
X103422401Y-115937491D01*
X103439196Y-116005312D01*
X103416658Y-116071446D01*
X103371606Y-116110484D01*
X103318339Y-116137625D01*
X103235526Y-116197792D01*
X103152716Y-116257958D01*
X103152714Y-116257960D01*
X103152713Y-116257960D01*
X103007960Y-116402713D01*
X103007960Y-116402714D01*
X103007958Y-116402716D01*
X102956280Y-116473843D01*
X102887627Y-116568336D01*
X102794685Y-116750742D01*
X102794684Y-116750745D01*
X102731425Y-116945440D01*
X102699400Y-117147635D01*
X102699400Y-117352364D01*
X102731425Y-117554559D01*
X102794684Y-117749254D01*
X102794685Y-117749257D01*
X102887627Y-117931663D01*
X103007958Y-118097284D01*
X103152716Y-118242042D01*
X103318337Y-118362373D01*
X103318339Y-118362374D01*
X103371606Y-118389516D01*
X103422401Y-118437491D01*
X103439196Y-118505312D01*
X103416658Y-118571446D01*
X103371606Y-118610484D01*
X103318339Y-118637625D01*
X103235526Y-118697792D01*
X103152716Y-118757958D01*
X103152714Y-118757960D01*
X103152713Y-118757960D01*
X103007960Y-118902713D01*
X103007960Y-118902714D01*
X103007958Y-118902716D01*
X102956280Y-118973843D01*
X102887627Y-119068336D01*
X102794685Y-119250742D01*
X102794684Y-119250745D01*
X102731425Y-119445440D01*
X102699400Y-119647635D01*
X102699400Y-119852364D01*
X102731425Y-120054559D01*
X102794684Y-120249254D01*
X102794685Y-120249257D01*
X102887627Y-120431663D01*
X103007958Y-120597284D01*
X103152716Y-120742042D01*
X103318337Y-120862373D01*
X103318339Y-120862374D01*
X103371606Y-120889516D01*
X103422401Y-120937491D01*
X103439196Y-121005312D01*
X103416658Y-121071446D01*
X103371606Y-121110484D01*
X103318339Y-121137625D01*
X103235526Y-121197792D01*
X103152716Y-121257958D01*
X103152714Y-121257960D01*
X103152713Y-121257960D01*
X103007960Y-121402713D01*
X103007960Y-121402714D01*
X103007958Y-121402716D01*
X102956280Y-121473843D01*
X102887627Y-121568336D01*
X102794685Y-121750742D01*
X102794684Y-121750745D01*
X102731425Y-121945440D01*
X102699400Y-122147635D01*
X102699400Y-122352364D01*
X102731425Y-122554559D01*
X102794684Y-122749254D01*
X102794685Y-122749257D01*
X102867222Y-122891616D01*
X102887627Y-122931663D01*
X103007958Y-123097284D01*
X103152716Y-123242042D01*
X103318337Y-123362373D01*
X103407801Y-123407957D01*
X103500742Y-123455314D01*
X103500745Y-123455315D01*
X103598092Y-123486944D01*
X103695442Y-123518575D01*
X103789089Y-123533407D01*
X103897636Y-123550600D01*
X103897641Y-123550600D01*
X104102364Y-123550600D01*
X104200385Y-123535074D01*
X104304558Y-123518575D01*
X104499257Y-123455314D01*
X104681663Y-123362373D01*
X104847284Y-123242042D01*
X104992042Y-123097284D01*
X105097625Y-122951962D01*
X109871500Y-122951962D01*
X109871500Y-123248037D01*
X109898790Y-123455314D01*
X109910144Y-123541557D01*
X109986769Y-123827529D01*
X110031685Y-123935964D01*
X110100070Y-124101059D01*
X110100071Y-124101060D01*
X110248096Y-124357447D01*
X110428324Y-124592326D01*
X110428330Y-124592333D01*
X110637666Y-124801669D01*
X110637673Y-124801675D01*
X110872552Y-124981903D01*
X111128939Y-125129928D01*
X111128940Y-125129929D01*
X111128943Y-125129930D01*
X111128948Y-125129933D01*
X111402471Y-125243231D01*
X111688443Y-125319856D01*
X111981970Y-125358500D01*
X111981977Y-125358500D01*
X112278023Y-125358500D01*
X112278030Y-125358500D01*
X112571557Y-125319856D01*
X112857529Y-125243231D01*
X113131052Y-125129933D01*
X113387448Y-124981903D01*
X113622328Y-124801674D01*
X113831674Y-124592328D01*
X114011903Y-124357448D01*
X114159933Y-124101052D01*
X114273231Y-123827529D01*
X114349856Y-123541557D01*
X114388500Y-123248030D01*
X114388500Y-122951970D01*
X114388499Y-122951962D01*
X125111500Y-122951962D01*
X125111500Y-123248037D01*
X125138790Y-123455314D01*
X125150144Y-123541557D01*
X125226769Y-123827529D01*
X125271685Y-123935964D01*
X125340070Y-124101059D01*
X125340071Y-124101060D01*
X125488096Y-124357447D01*
X125668324Y-124592326D01*
X125668330Y-124592333D01*
X125877666Y-124801669D01*
X125877673Y-124801675D01*
X126112552Y-124981903D01*
X126368939Y-125129928D01*
X126368940Y-125129929D01*
X126368943Y-125129930D01*
X126368948Y-125129933D01*
X126642471Y-125243231D01*
X126928443Y-125319856D01*
X127221970Y-125358500D01*
X127221977Y-125358500D01*
X127518023Y-125358500D01*
X127518030Y-125358500D01*
X127811557Y-125319856D01*
X128097529Y-125243231D01*
X128371052Y-125129933D01*
X128627448Y-124981903D01*
X128862328Y-124801674D01*
X129071674Y-124592328D01*
X129251903Y-124357448D01*
X129399933Y-124101052D01*
X129513231Y-123827529D01*
X129589856Y-123541557D01*
X129628500Y-123248030D01*
X129628500Y-122951970D01*
X129589856Y-122658443D01*
X129513231Y-122372471D01*
X129399933Y-122098948D01*
X129399930Y-122098943D01*
X129399929Y-122098940D01*
X129399928Y-122098939D01*
X129251903Y-121842552D01*
X129071675Y-121607673D01*
X129071669Y-121607666D01*
X128862333Y-121398330D01*
X128862326Y-121398324D01*
X128627447Y-121218096D01*
X128371060Y-121070071D01*
X128371059Y-121070070D01*
X128309777Y-121044686D01*
X128097529Y-120956769D01*
X127811557Y-120880144D01*
X127762503Y-120873685D01*
X127518037Y-120841500D01*
X127518030Y-120841500D01*
X127221970Y-120841500D01*
X127221962Y-120841500D01*
X126942571Y-120878283D01*
X126928443Y-120880144D01*
X126893470Y-120889515D01*
X126642477Y-120956767D01*
X126642473Y-120956768D01*
X126642471Y-120956769D01*
X126642464Y-120956772D01*
X126368940Y-121070070D01*
X126368939Y-121070071D01*
X126112552Y-121218096D01*
X125877673Y-121398324D01*
X125877666Y-121398330D01*
X125668330Y-121607666D01*
X125668324Y-121607673D01*
X125488096Y-121842552D01*
X125340071Y-122098939D01*
X125340070Y-122098940D01*
X125226772Y-122372464D01*
X125226767Y-122372477D01*
X125150145Y-122658440D01*
X125150143Y-122658451D01*
X125111500Y-122951962D01*
X114388499Y-122951962D01*
X114349856Y-122658443D01*
X114273231Y-122372471D01*
X114159933Y-122098948D01*
X114159930Y-122098943D01*
X114159929Y-122098940D01*
X114159928Y-122098939D01*
X114011903Y-121842552D01*
X113831675Y-121607673D01*
X113831669Y-121607666D01*
X113622333Y-121398330D01*
X113622326Y-121398324D01*
X113387447Y-121218096D01*
X113131060Y-121070071D01*
X113131059Y-121070070D01*
X113069777Y-121044686D01*
X112857529Y-120956769D01*
X112571557Y-120880144D01*
X112522503Y-120873685D01*
X112278037Y-120841500D01*
X112278030Y-120841500D01*
X111981970Y-120841500D01*
X111981962Y-120841500D01*
X111702571Y-120878283D01*
X111688443Y-120880144D01*
X111653470Y-120889515D01*
X111402477Y-120956767D01*
X111402473Y-120956768D01*
X111402471Y-120956769D01*
X111402464Y-120956772D01*
X111128940Y-121070070D01*
X111128939Y-121070071D01*
X110872552Y-121218096D01*
X110637673Y-121398324D01*
X110637666Y-121398330D01*
X110428330Y-121607666D01*
X110428324Y-121607673D01*
X110248096Y-121842552D01*
X110100071Y-122098939D01*
X110100070Y-122098940D01*
X109986772Y-122372464D01*
X109986767Y-122372477D01*
X109910145Y-122658440D01*
X109910143Y-122658451D01*
X109871500Y-122951962D01*
X105097625Y-122951962D01*
X105112373Y-122931663D01*
X105205314Y-122749257D01*
X105268575Y-122554558D01*
X105297416Y-122372464D01*
X105300600Y-122352364D01*
X105300600Y-122147635D01*
X105281969Y-122030008D01*
X105268575Y-121945442D01*
X105205314Y-121750743D01*
X105205314Y-121750742D01*
X105112372Y-121568336D01*
X104992042Y-121402716D01*
X104847284Y-121257958D01*
X104681663Y-121137627D01*
X104628393Y-121110484D01*
X104577598Y-121062510D01*
X104560803Y-120994689D01*
X104583341Y-120928554D01*
X104628394Y-120889515D01*
X104681663Y-120862373D01*
X104847284Y-120742042D01*
X104992042Y-120597284D01*
X105112373Y-120431663D01*
X105205314Y-120249257D01*
X105268575Y-120054558D01*
X105285074Y-119950385D01*
X105300600Y-119852364D01*
X105300600Y-119647635D01*
X105281969Y-119530008D01*
X105268575Y-119445442D01*
X105205314Y-119250743D01*
X105205314Y-119250742D01*
X105112372Y-119068336D01*
X104992042Y-118902716D01*
X104847284Y-118757958D01*
X104681663Y-118637627D01*
X104628393Y-118610484D01*
X104577598Y-118562510D01*
X104560803Y-118494689D01*
X104583341Y-118428554D01*
X104628394Y-118389515D01*
X104681663Y-118362373D01*
X104847284Y-118242042D01*
X104992042Y-118097284D01*
X105112373Y-117931663D01*
X105205314Y-117749257D01*
X105268575Y-117554558D01*
X105285074Y-117450385D01*
X105300600Y-117352364D01*
X105300600Y-117147635D01*
X105281969Y-117030008D01*
X105268575Y-116945442D01*
X105205314Y-116750743D01*
X105205314Y-116750742D01*
X105112372Y-116568336D01*
X104992042Y-116402716D01*
X104847284Y-116257958D01*
X104681663Y-116137627D01*
X104628393Y-116110484D01*
X104577598Y-116062510D01*
X104560803Y-115994689D01*
X104583341Y-115928554D01*
X104628394Y-115889515D01*
X104681663Y-115862373D01*
X104847284Y-115742042D01*
X104992042Y-115597284D01*
X105112373Y-115431663D01*
X105205314Y-115249257D01*
X105268575Y-115054558D01*
X105285074Y-114950385D01*
X105300600Y-114852364D01*
X105300600Y-114647635D01*
X105281969Y-114530008D01*
X105268575Y-114445442D01*
X105205314Y-114250743D01*
X105205314Y-114250742D01*
X105112372Y-114068336D01*
X105061492Y-113998306D01*
X104992042Y-113902716D01*
X104847284Y-113757958D01*
X104681663Y-113637627D01*
X104628393Y-113610484D01*
X104577598Y-113562510D01*
X104560803Y-113494689D01*
X104583341Y-113428554D01*
X104628394Y-113389515D01*
X104681663Y-113362373D01*
X104847284Y-113242042D01*
X104992042Y-113097284D01*
X105112373Y-112931663D01*
X105205314Y-112749257D01*
X105268575Y-112554558D01*
X105290578Y-112415636D01*
X105300600Y-112352364D01*
X105300600Y-112147635D01*
X105268575Y-111945443D01*
X105263907Y-111931076D01*
X105261911Y-111861235D01*
X105294155Y-111805078D01*
X120862416Y-96236819D01*
X120923739Y-96203334D01*
X120950097Y-96200500D01*
X132736935Y-96200500D01*
X132803974Y-96220185D01*
X132849729Y-96272989D01*
X132859673Y-96342147D01*
X132847420Y-96380794D01*
X132839997Y-96395361D01*
X132839993Y-96395370D01*
X132778587Y-96584362D01*
X132778587Y-96584364D01*
X132747500Y-96780639D01*
X132747500Y-96979361D01*
X132760255Y-97059890D01*
X132778587Y-97175637D01*
X132839993Y-97364629D01*
X132839994Y-97364632D01*
X132872074Y-97427591D01*
X132930213Y-97541694D01*
X133047019Y-97702464D01*
X133187536Y-97842981D01*
X133348306Y-97959787D01*
X133451796Y-98012518D01*
X133504780Y-98039515D01*
X133555576Y-98087490D01*
X133572371Y-98155311D01*
X133549833Y-98221446D01*
X133504780Y-98260485D01*
X133348305Y-98340213D01*
X133187533Y-98457021D01*
X133047021Y-98597533D01*
X132930210Y-98758309D01*
X132929000Y-98760285D01*
X132928343Y-98760878D01*
X132927349Y-98762248D01*
X132927061Y-98762039D01*
X132877190Y-98807163D01*
X132823270Y-98819500D01*
X131909057Y-98819500D01*
X131750943Y-98819500D01*
X131598215Y-98860423D01*
X131598214Y-98860423D01*
X131598212Y-98860424D01*
X131598209Y-98860425D01*
X131548096Y-98889359D01*
X131548095Y-98889360D01*
X131504689Y-98914420D01*
X131461285Y-98939479D01*
X131461282Y-98939481D01*
X123079481Y-107321282D01*
X123079479Y-107321285D01*
X123029361Y-107408094D01*
X123029359Y-107408096D01*
X123000425Y-107458209D01*
X123000424Y-107458210D01*
X122992162Y-107489046D01*
X122959499Y-107610943D01*
X122959499Y-107610945D01*
X122959499Y-107779046D01*
X122959500Y-107779059D01*
X122959500Y-109222682D01*
X122939815Y-109289721D01*
X122905675Y-109323139D01*
X122906440Y-109324192D01*
X122742753Y-109443115D01*
X122603115Y-109582753D01*
X122487058Y-109742495D01*
X122487056Y-109742499D01*
X122406805Y-109900000D01*
X122400485Y-109912403D01*
X122352510Y-109963199D01*
X122284689Y-109979994D01*
X122218554Y-109957456D01*
X122179515Y-109912403D01*
X122092944Y-109742499D01*
X122081681Y-109726997D01*
X121976884Y-109582753D01*
X121837246Y-109443115D01*
X121677504Y-109327058D01*
X121677503Y-109327057D01*
X121677501Y-109327056D01*
X121501561Y-109237409D01*
X121501558Y-109237408D01*
X121313763Y-109176389D01*
X121118736Y-109145500D01*
X121118731Y-109145500D01*
X120921269Y-109145500D01*
X120921264Y-109145500D01*
X120726236Y-109176389D01*
X120538441Y-109237408D01*
X120362495Y-109327058D01*
X120202753Y-109443115D01*
X120063115Y-109582753D01*
X119947058Y-109742495D01*
X119947056Y-109742499D01*
X119866805Y-109900000D01*
X119860485Y-109912403D01*
X119812510Y-109963199D01*
X119744689Y-109979994D01*
X119678554Y-109957456D01*
X119639515Y-109912403D01*
X119552944Y-109742499D01*
X119541681Y-109726997D01*
X119436884Y-109582753D01*
X119297246Y-109443115D01*
X119137504Y-109327058D01*
X119137503Y-109327057D01*
X119137501Y-109327056D01*
X118961561Y-109237409D01*
X118961558Y-109237408D01*
X118773763Y-109176389D01*
X118578736Y-109145500D01*
X118578731Y-109145500D01*
X118381269Y-109145500D01*
X118381264Y-109145500D01*
X118186236Y-109176389D01*
X117998441Y-109237408D01*
X117822495Y-109327058D01*
X117662753Y-109443115D01*
X117523115Y-109582753D01*
X117407058Y-109742495D01*
X117407056Y-109742499D01*
X117326805Y-109900000D01*
X117320485Y-109912403D01*
X117272510Y-109963199D01*
X117204689Y-109979994D01*
X117138554Y-109957456D01*
X117099515Y-109912403D01*
X117012944Y-109742499D01*
X117001681Y-109726997D01*
X116896884Y-109582753D01*
X116757246Y-109443115D01*
X116597504Y-109327058D01*
X116597503Y-109327057D01*
X116597501Y-109327056D01*
X116421561Y-109237409D01*
X116421558Y-109237408D01*
X116233763Y-109176389D01*
X116038736Y-109145500D01*
X116038731Y-109145500D01*
X115841269Y-109145500D01*
X115841264Y-109145500D01*
X115646236Y-109176389D01*
X115458441Y-109237408D01*
X115282495Y-109327058D01*
X115122753Y-109443115D01*
X114983115Y-109582753D01*
X114867058Y-109742495D01*
X114867056Y-109742499D01*
X114786805Y-109900000D01*
X114780485Y-109912403D01*
X114732510Y-109963199D01*
X114664689Y-109979994D01*
X114598554Y-109957456D01*
X114559515Y-109912403D01*
X114472944Y-109742499D01*
X114461681Y-109726997D01*
X114356884Y-109582753D01*
X114217246Y-109443115D01*
X114057504Y-109327058D01*
X114057503Y-109327057D01*
X114057501Y-109327056D01*
X113881561Y-109237409D01*
X113881558Y-109237408D01*
X113693763Y-109176389D01*
X113498736Y-109145500D01*
X113498731Y-109145500D01*
X113301269Y-109145500D01*
X113301264Y-109145500D01*
X113106236Y-109176389D01*
X112918441Y-109237408D01*
X112742495Y-109327058D01*
X112582753Y-109443115D01*
X112443115Y-109582753D01*
X112338318Y-109726997D01*
X112282989Y-109769663D01*
X112213375Y-109775642D01*
X112151580Y-109743037D01*
X112117223Y-109682198D01*
X112114000Y-109654112D01*
X112114000Y-109598172D01*
X112113999Y-109598155D01*
X112107598Y-109538627D01*
X112107596Y-109538620D01*
X112057354Y-109403913D01*
X112057350Y-109403906D01*
X111971190Y-109288812D01*
X111971187Y-109288809D01*
X111856093Y-109202649D01*
X111856086Y-109202645D01*
X111721379Y-109152403D01*
X111721372Y-109152401D01*
X111661844Y-109146000D01*
X111110000Y-109146000D01*
X111110000Y-109966988D01*
X111052993Y-109934075D01*
X110925826Y-109900000D01*
X110794174Y-109900000D01*
X110667007Y-109934075D01*
X110610000Y-109966988D01*
X110610000Y-109146000D01*
X110058155Y-109146000D01*
X109998627Y-109152401D01*
X109998620Y-109152403D01*
X109863913Y-109202645D01*
X109863906Y-109202649D01*
X109748812Y-109288809D01*
X109748809Y-109288812D01*
X109662649Y-109403906D01*
X109662645Y-109403913D01*
X109612403Y-109538620D01*
X109612401Y-109538627D01*
X109606000Y-109598155D01*
X109606000Y-110150000D01*
X110426988Y-110150000D01*
X110394075Y-110207007D01*
X110360000Y-110334174D01*
X110360000Y-110465826D01*
X110394075Y-110592993D01*
X110426988Y-110650000D01*
X109606000Y-110650000D01*
X109606000Y-111201844D01*
X109612401Y-111261372D01*
X109612403Y-111261379D01*
X109662645Y-111396086D01*
X109662649Y-111396093D01*
X109748809Y-111511187D01*
X109748812Y-111511190D01*
X109863906Y-111597350D01*
X109863913Y-111597354D01*
X109998620Y-111647596D01*
X109998627Y-111647598D01*
X110058155Y-111653999D01*
X110058172Y-111654000D01*
X110610000Y-111654000D01*
X110610000Y-110833012D01*
X110667007Y-110865925D01*
X110794174Y-110900000D01*
X110925826Y-110900000D01*
X111052993Y-110865925D01*
X111110000Y-110833012D01*
X111110000Y-111654000D01*
X111661828Y-111654000D01*
X111661844Y-111653999D01*
X111721372Y-111647598D01*
X111721379Y-111647596D01*
X111856086Y-111597354D01*
X111856093Y-111597350D01*
X111971187Y-111511190D01*
X111971190Y-111511187D01*
X112057350Y-111396093D01*
X112057354Y-111396086D01*
X112107596Y-111261379D01*
X112107598Y-111261372D01*
X112113999Y-111201844D01*
X112114000Y-111201827D01*
X112114000Y-111145887D01*
X112133685Y-111078848D01*
X112186489Y-111033093D01*
X112255647Y-111023149D01*
X112319203Y-111052174D01*
X112338314Y-111072997D01*
X112391272Y-111145887D01*
X112443121Y-111217252D01*
X112582753Y-111356884D01*
X112722350Y-111458305D01*
X112742499Y-111472944D01*
X112918439Y-111562591D01*
X113025417Y-111597350D01*
X113106236Y-111623610D01*
X113301264Y-111654500D01*
X113301269Y-111654500D01*
X113498736Y-111654500D01*
X113693763Y-111623610D01*
X113881561Y-111562591D01*
X114057501Y-111472944D01*
X114154165Y-111402714D01*
X114217246Y-111356884D01*
X114217248Y-111356881D01*
X114217252Y-111356879D01*
X114356879Y-111217252D01*
X114356881Y-111217248D01*
X114356884Y-111217246D01*
X114472941Y-111057505D01*
X114472942Y-111057504D01*
X114472944Y-111057501D01*
X114559517Y-110887593D01*
X114607490Y-110836800D01*
X114675311Y-110820005D01*
X114741446Y-110842542D01*
X114780482Y-110887593D01*
X114840464Y-111005312D01*
X114867058Y-111057505D01*
X114983115Y-111217246D01*
X115122753Y-111356884D01*
X115262350Y-111458305D01*
X115282499Y-111472944D01*
X115458439Y-111562591D01*
X115565417Y-111597350D01*
X115646236Y-111623610D01*
X115841264Y-111654500D01*
X115841269Y-111654500D01*
X116038736Y-111654500D01*
X116233763Y-111623610D01*
X116421561Y-111562591D01*
X116597501Y-111472944D01*
X116694165Y-111402714D01*
X116757246Y-111356884D01*
X116757248Y-111356881D01*
X116757252Y-111356879D01*
X116896879Y-111217252D01*
X116896881Y-111217248D01*
X116896884Y-111217246D01*
X117012941Y-111057505D01*
X117012942Y-111057504D01*
X117012944Y-111057501D01*
X117099517Y-110887593D01*
X117147490Y-110836800D01*
X117215311Y-110820005D01*
X117281446Y-110842542D01*
X117320482Y-110887593D01*
X117380464Y-111005312D01*
X117407058Y-111057505D01*
X117523115Y-111217246D01*
X117662753Y-111356884D01*
X117802350Y-111458305D01*
X117822499Y-111472944D01*
X117998439Y-111562591D01*
X118105417Y-111597350D01*
X118186236Y-111623610D01*
X118381264Y-111654500D01*
X118381269Y-111654500D01*
X118578736Y-111654500D01*
X118773763Y-111623610D01*
X118961561Y-111562591D01*
X119137501Y-111472944D01*
X119234165Y-111402714D01*
X119297246Y-111356884D01*
X119297248Y-111356881D01*
X119297252Y-111356879D01*
X119436879Y-111217252D01*
X119436881Y-111217248D01*
X119436884Y-111217246D01*
X119552941Y-111057505D01*
X119552942Y-111057504D01*
X119552944Y-111057501D01*
X119639517Y-110887593D01*
X119687490Y-110836800D01*
X119755311Y-110820005D01*
X119821446Y-110842542D01*
X119860482Y-110887593D01*
X119920464Y-111005312D01*
X119947058Y-111057505D01*
X120063115Y-111217246D01*
X120202753Y-111356884D01*
X120342350Y-111458305D01*
X120362499Y-111472944D01*
X120538439Y-111562591D01*
X120645417Y-111597350D01*
X120726236Y-111623610D01*
X120921264Y-111654500D01*
X120921269Y-111654500D01*
X121118736Y-111654500D01*
X121313763Y-111623610D01*
X121501561Y-111562591D01*
X121677501Y-111472944D01*
X121774165Y-111402714D01*
X121837246Y-111356884D01*
X121837248Y-111356881D01*
X121837252Y-111356879D01*
X121976879Y-111217252D01*
X121976881Y-111217248D01*
X121976884Y-111217246D01*
X122092941Y-111057505D01*
X122092942Y-111057504D01*
X122092944Y-111057501D01*
X122179517Y-110887593D01*
X122227490Y-110836800D01*
X122295311Y-110820005D01*
X122361446Y-110842542D01*
X122400482Y-110887593D01*
X122460464Y-111005312D01*
X122487058Y-111057505D01*
X122603115Y-111217246D01*
X122742753Y-111356884D01*
X122882350Y-111458305D01*
X122902499Y-111472944D01*
X123078439Y-111562591D01*
X123185417Y-111597350D01*
X123266236Y-111623610D01*
X123461264Y-111654500D01*
X123461269Y-111654500D01*
X123658736Y-111654500D01*
X123853763Y-111623610D01*
X124041561Y-111562591D01*
X124217501Y-111472944D01*
X124314165Y-111402714D01*
X124377246Y-111356884D01*
X124377248Y-111356881D01*
X124377252Y-111356879D01*
X124516879Y-111217252D01*
X124516881Y-111217248D01*
X124516884Y-111217246D01*
X124632941Y-111057505D01*
X124632942Y-111057504D01*
X124632944Y-111057501D01*
X124719517Y-110887593D01*
X124767490Y-110836800D01*
X124835311Y-110820005D01*
X124901446Y-110842542D01*
X124940482Y-110887593D01*
X125000464Y-111005312D01*
X125027058Y-111057505D01*
X125143115Y-111217246D01*
X125282753Y-111356884D01*
X125422350Y-111458305D01*
X125442499Y-111472944D01*
X125618439Y-111562591D01*
X125725417Y-111597350D01*
X125806236Y-111623610D01*
X126001264Y-111654500D01*
X126001269Y-111654500D01*
X126198736Y-111654500D01*
X126393763Y-111623610D01*
X126581561Y-111562591D01*
X126757501Y-111472944D01*
X126854165Y-111402714D01*
X126917246Y-111356884D01*
X126917248Y-111356881D01*
X126917252Y-111356879D01*
X127056879Y-111217252D01*
X127056881Y-111217248D01*
X127056884Y-111217246D01*
X127172941Y-111057505D01*
X127172942Y-111057504D01*
X127172944Y-111057501D01*
X127259517Y-110887593D01*
X127307490Y-110836800D01*
X127375311Y-110820005D01*
X127441446Y-110842542D01*
X127480482Y-110887593D01*
X127540464Y-111005312D01*
X127567058Y-111057505D01*
X127683115Y-111217246D01*
X127822753Y-111356884D01*
X127962350Y-111458305D01*
X127982499Y-111472944D01*
X128158439Y-111562591D01*
X128265417Y-111597350D01*
X128346236Y-111623610D01*
X128541264Y-111654500D01*
X128541269Y-111654500D01*
X128738736Y-111654500D01*
X128933763Y-111623610D01*
X129121561Y-111562591D01*
X129297501Y-111472944D01*
X129394165Y-111402714D01*
X129457246Y-111356884D01*
X129457248Y-111356881D01*
X129457252Y-111356879D01*
X129596879Y-111217252D01*
X129596881Y-111217248D01*
X129596884Y-111217246D01*
X129648728Y-111145887D01*
X129712944Y-111057501D01*
X129802591Y-110881561D01*
X129863610Y-110693763D01*
X129868991Y-110659787D01*
X129894500Y-110498736D01*
X129894500Y-110301263D01*
X129863610Y-110106236D01*
X129807671Y-109934075D01*
X129802591Y-109918439D01*
X129712944Y-109742499D01*
X129701681Y-109726997D01*
X129596884Y-109582753D01*
X129457246Y-109443115D01*
X129297504Y-109327058D01*
X129297503Y-109327057D01*
X129297501Y-109327056D01*
X129121561Y-109237409D01*
X129121558Y-109237408D01*
X128933763Y-109176389D01*
X128738736Y-109145500D01*
X128738731Y-109145500D01*
X128541269Y-109145500D01*
X128541264Y-109145500D01*
X128346236Y-109176389D01*
X128158441Y-109237408D01*
X127982495Y-109327058D01*
X127822753Y-109443115D01*
X127683115Y-109582753D01*
X127567058Y-109742495D01*
X127567056Y-109742499D01*
X127486805Y-109900000D01*
X127480485Y-109912403D01*
X127432510Y-109963199D01*
X127364689Y-109979994D01*
X127298554Y-109957456D01*
X127259515Y-109912403D01*
X127172944Y-109742499D01*
X127161681Y-109726997D01*
X127056884Y-109582753D01*
X126917246Y-109443115D01*
X126753560Y-109324192D01*
X126754599Y-109322761D01*
X126712833Y-109276593D01*
X126700500Y-109222682D01*
X126700500Y-107700097D01*
X126720185Y-107633058D01*
X126736819Y-107612416D01*
X131752417Y-102596819D01*
X131813740Y-102563334D01*
X131840098Y-102560500D01*
X132823270Y-102560500D01*
X132890309Y-102580185D01*
X132927191Y-102617866D01*
X132927349Y-102617752D01*
X132928127Y-102618823D01*
X132929000Y-102619715D01*
X132930210Y-102621690D01*
X132930213Y-102621694D01*
X133047019Y-102782464D01*
X133187536Y-102922981D01*
X133348306Y-103039787D01*
X133466832Y-103100179D01*
X133504780Y-103119515D01*
X133555576Y-103167490D01*
X133572371Y-103235311D01*
X133549833Y-103301446D01*
X133504780Y-103340485D01*
X133348305Y-103420213D01*
X133187533Y-103537021D01*
X133047021Y-103677533D01*
X132930213Y-103838305D01*
X132839994Y-104015367D01*
X132839993Y-104015370D01*
X132778587Y-104204362D01*
X132747500Y-104400639D01*
X132747500Y-104599360D01*
X132778587Y-104795637D01*
X132839993Y-104984629D01*
X132839994Y-104984632D01*
X132930213Y-105161694D01*
X133047019Y-105322464D01*
X133187536Y-105462981D01*
X133348306Y-105579787D01*
X133382646Y-105597284D01*
X133504780Y-105659515D01*
X133555576Y-105707490D01*
X133572371Y-105775311D01*
X133549833Y-105841446D01*
X133504780Y-105880485D01*
X133348305Y-105960213D01*
X133187533Y-106077021D01*
X133047021Y-106217533D01*
X132930213Y-106378305D01*
X132839994Y-106555367D01*
X132839993Y-106555370D01*
X132778587Y-106744362D01*
X132777576Y-106750745D01*
X132747500Y-106940639D01*
X132747500Y-107139361D01*
X132758606Y-107209480D01*
X132778587Y-107335637D01*
X132839993Y-107524629D01*
X132839994Y-107524632D01*
X132884723Y-107612416D01*
X132930213Y-107701694D01*
X133047019Y-107862464D01*
X133187536Y-108002981D01*
X133348306Y-108119787D01*
X133466832Y-108180179D01*
X133504780Y-108199515D01*
X133555576Y-108247490D01*
X133572371Y-108315311D01*
X133549833Y-108381446D01*
X133504780Y-108420485D01*
X133348305Y-108500213D01*
X133187533Y-108617021D01*
X133047021Y-108757533D01*
X132930213Y-108918305D01*
X132839994Y-109095367D01*
X132839993Y-109095370D01*
X132778587Y-109284362D01*
X132747500Y-109480639D01*
X132747500Y-109679361D01*
X132757500Y-109742499D01*
X132778587Y-109875637D01*
X132839993Y-110064629D01*
X132839994Y-110064632D01*
X132912539Y-110207007D01*
X132930213Y-110241694D01*
X133047019Y-110402464D01*
X133187536Y-110542981D01*
X133348306Y-110659787D01*
X133440980Y-110707007D01*
X133504780Y-110739515D01*
X133555576Y-110787490D01*
X133572371Y-110855311D01*
X133549833Y-110921446D01*
X133504780Y-110960485D01*
X133348305Y-111040213D01*
X133187533Y-111157021D01*
X133047021Y-111297533D01*
X132930213Y-111458305D01*
X132839994Y-111635367D01*
X132839993Y-111635370D01*
X132778587Y-111824362D01*
X132747500Y-112020639D01*
X132747500Y-112219360D01*
X132778587Y-112415637D01*
X132839993Y-112604629D01*
X132839994Y-112604632D01*
X132913684Y-112749254D01*
X132930213Y-112781694D01*
X133047019Y-112942464D01*
X133187536Y-113082981D01*
X133348306Y-113199787D01*
X133431230Y-113242039D01*
X133504780Y-113279515D01*
X133555576Y-113327490D01*
X133572371Y-113395311D01*
X133549833Y-113461446D01*
X133504780Y-113500485D01*
X133348305Y-113580213D01*
X133187533Y-113697021D01*
X133047021Y-113837533D01*
X132930213Y-113998305D01*
X132839994Y-114175367D01*
X132839993Y-114175370D01*
X132778587Y-114364362D01*
X132747500Y-114560639D01*
X132747500Y-114759360D01*
X132778587Y-114955637D01*
X132839993Y-115144629D01*
X132839994Y-115144632D01*
X132893304Y-115249257D01*
X132930213Y-115321694D01*
X133047019Y-115482464D01*
X133187536Y-115622981D01*
X133348306Y-115739787D01*
X133435149Y-115784035D01*
X133525367Y-115830005D01*
X133525370Y-115830006D01*
X133619866Y-115860709D01*
X133714364Y-115891413D01*
X133910639Y-115922500D01*
X133910640Y-115922500D01*
X134109360Y-115922500D01*
X134109361Y-115922500D01*
X134305636Y-115891413D01*
X134494632Y-115830005D01*
X134671694Y-115739787D01*
X134832464Y-115622981D01*
X134972981Y-115482464D01*
X135089787Y-115321694D01*
X135180005Y-115144632D01*
X135241413Y-114955636D01*
X135272500Y-114759361D01*
X135272500Y-114560639D01*
X135241413Y-114364364D01*
X135180005Y-114175368D01*
X135180005Y-114175367D01*
X135089786Y-113998305D01*
X134972981Y-113837536D01*
X134832464Y-113697019D01*
X134671694Y-113580213D01*
X134515218Y-113500484D01*
X134464423Y-113452510D01*
X134447628Y-113384689D01*
X134470165Y-113318554D01*
X134515218Y-113279515D01*
X134671694Y-113199787D01*
X134832464Y-113082981D01*
X134972981Y-112942464D01*
X135089787Y-112781694D01*
X135180005Y-112604632D01*
X135241413Y-112415636D01*
X135272500Y-112219361D01*
X135272500Y-112020639D01*
X135241413Y-111824364D01*
X135210709Y-111729866D01*
X135180006Y-111635370D01*
X135180005Y-111635367D01*
X135089786Y-111458305D01*
X134972981Y-111297536D01*
X134832464Y-111157019D01*
X134671694Y-111040213D01*
X134515218Y-110960484D01*
X134464423Y-110912510D01*
X134447628Y-110844689D01*
X134470165Y-110778554D01*
X134515218Y-110739515D01*
X134671694Y-110659787D01*
X134832464Y-110542981D01*
X134972981Y-110402464D01*
X135089787Y-110241694D01*
X135180005Y-110064632D01*
X135241413Y-109875636D01*
X135272500Y-109679361D01*
X135272500Y-109480639D01*
X135241413Y-109284364D01*
X135180005Y-109095368D01*
X135180005Y-109095367D01*
X135089786Y-108918305D01*
X135078460Y-108902716D01*
X134972981Y-108757536D01*
X134832464Y-108617019D01*
X134671694Y-108500213D01*
X134515218Y-108420484D01*
X134464423Y-108372510D01*
X134447628Y-108304689D01*
X134470165Y-108238554D01*
X134515218Y-108199515D01*
X134671694Y-108119787D01*
X134832464Y-108002981D01*
X134972981Y-107862464D01*
X135089787Y-107701694D01*
X135180005Y-107524632D01*
X135241413Y-107335636D01*
X135272500Y-107139361D01*
X135272500Y-106940639D01*
X135241413Y-106744364D01*
X135180005Y-106555368D01*
X135180005Y-106555367D01*
X135134035Y-106465149D01*
X135089787Y-106378306D01*
X134972981Y-106217536D01*
X134832464Y-106077019D01*
X134671694Y-105960213D01*
X134515218Y-105880484D01*
X134464423Y-105832510D01*
X134447628Y-105764689D01*
X134470165Y-105698554D01*
X134515218Y-105659515D01*
X134671694Y-105579787D01*
X134832464Y-105462981D01*
X134972981Y-105322464D01*
X135089787Y-105161694D01*
X135180005Y-104984632D01*
X135241413Y-104795636D01*
X135272500Y-104599361D01*
X135272500Y-104400639D01*
X135241413Y-104204364D01*
X135180005Y-104015368D01*
X135180005Y-104015367D01*
X135089786Y-103838305D01*
X135031412Y-103757960D01*
X134972981Y-103677536D01*
X134832464Y-103537019D01*
X134671694Y-103420213D01*
X134515218Y-103340484D01*
X134464423Y-103292510D01*
X134447628Y-103224689D01*
X134470165Y-103158554D01*
X134515218Y-103119515D01*
X134671694Y-103039787D01*
X134832464Y-102922981D01*
X134972981Y-102782464D01*
X135089787Y-102621694D01*
X135180005Y-102444632D01*
X135241413Y-102255636D01*
X135272500Y-102059361D01*
X135272500Y-101860639D01*
X135241413Y-101664364D01*
X135210709Y-101569866D01*
X135180006Y-101475370D01*
X135180005Y-101475367D01*
X135120967Y-101359500D01*
X135089787Y-101298306D01*
X134972981Y-101137536D01*
X134832464Y-100997019D01*
X134671694Y-100880213D01*
X134515218Y-100800484D01*
X134464423Y-100752510D01*
X134447628Y-100684689D01*
X134470165Y-100618554D01*
X134515218Y-100579515D01*
X134671694Y-100499787D01*
X134832464Y-100382981D01*
X134972981Y-100242464D01*
X135089787Y-100081694D01*
X135180005Y-99904632D01*
X135241413Y-99715636D01*
X135272500Y-99519361D01*
X135272500Y-99320639D01*
X135241413Y-99124364D01*
X135210709Y-99029866D01*
X135180006Y-98935370D01*
X135180005Y-98935367D01*
X135107145Y-98792373D01*
X135089787Y-98758306D01*
X134972981Y-98597536D01*
X134832464Y-98457019D01*
X134671694Y-98340213D01*
X134515218Y-98260484D01*
X134464423Y-98212510D01*
X134447628Y-98144689D01*
X134470165Y-98078554D01*
X134515218Y-98039515D01*
X134671694Y-97959787D01*
X134832464Y-97842981D01*
X134972981Y-97702464D01*
X135089787Y-97541694D01*
X135180005Y-97364632D01*
X135241413Y-97175636D01*
X135272500Y-96979361D01*
X135272500Y-96780639D01*
X135241413Y-96584364D01*
X135180005Y-96395368D01*
X135180002Y-96395361D01*
X135172580Y-96380794D01*
X135159684Y-96312125D01*
X135185961Y-96247385D01*
X135243068Y-96207128D01*
X135283065Y-96200500D01*
X140283331Y-96200500D01*
X140283347Y-96200501D01*
X140290943Y-96200501D01*
X140449054Y-96200501D01*
X140449057Y-96200501D01*
X140601785Y-96159577D01*
X140651904Y-96130639D01*
X140738716Y-96080520D01*
X140850520Y-95968716D01*
X140850520Y-95968714D01*
X140860728Y-95958507D01*
X140860730Y-95958504D01*
X147779544Y-89039689D01*
X147840865Y-89006206D01*
X147910557Y-89011190D01*
X147966490Y-89053062D01*
X147990907Y-89118526D01*
X147989697Y-89146765D01*
X147987500Y-89160639D01*
X147987500Y-89359360D01*
X148018587Y-89555637D01*
X148079993Y-89744629D01*
X148079994Y-89744632D01*
X148170213Y-89921694D01*
X148287019Y-90082464D01*
X148427536Y-90222981D01*
X148588306Y-90339787D01*
X148706832Y-90400179D01*
X148744780Y-90419515D01*
X148795576Y-90467490D01*
X148812371Y-90535311D01*
X148789833Y-90601446D01*
X148744780Y-90640485D01*
X148588305Y-90720213D01*
X148427533Y-90837021D01*
X148287021Y-90977533D01*
X148170213Y-91138305D01*
X148079994Y-91315367D01*
X148079993Y-91315370D01*
X148018587Y-91504362D01*
X147987500Y-91700639D01*
X147987500Y-91899360D01*
X148018587Y-92095637D01*
X148079993Y-92284629D01*
X148079994Y-92284632D01*
X148152541Y-92427011D01*
X148170213Y-92461694D01*
X148287019Y-92622464D01*
X148427536Y-92762981D01*
X148588306Y-92879787D01*
X148706832Y-92940179D01*
X148744780Y-92959515D01*
X148795576Y-93007490D01*
X148812371Y-93075311D01*
X148789833Y-93141446D01*
X148744780Y-93180485D01*
X148588305Y-93260213D01*
X148427533Y-93377021D01*
X148287021Y-93517533D01*
X148170213Y-93678305D01*
X148079994Y-93855367D01*
X148079993Y-93855370D01*
X148018587Y-94044362D01*
X147987500Y-94240639D01*
X147987500Y-94439360D01*
X148018587Y-94635637D01*
X148079993Y-94824629D01*
X148079994Y-94824632D01*
X148159065Y-94979815D01*
X148170213Y-95001694D01*
X148287019Y-95162464D01*
X148427536Y-95302981D01*
X148588306Y-95419787D01*
X148706832Y-95480179D01*
X148744780Y-95499515D01*
X148795576Y-95547490D01*
X148812371Y-95615311D01*
X148789833Y-95681446D01*
X148744780Y-95720485D01*
X148588305Y-95800213D01*
X148427533Y-95917021D01*
X148287021Y-96057533D01*
X148170213Y-96218305D01*
X148079994Y-96395367D01*
X148079993Y-96395370D01*
X148018587Y-96584362D01*
X148018587Y-96584364D01*
X147987500Y-96780639D01*
X147987500Y-96979361D01*
X148000255Y-97059890D01*
X148018587Y-97175637D01*
X148079993Y-97364629D01*
X148079994Y-97364632D01*
X148112074Y-97427591D01*
X148170213Y-97541694D01*
X148287019Y-97702464D01*
X148427536Y-97842981D01*
X148588306Y-97959787D01*
X148691796Y-98012518D01*
X148744780Y-98039515D01*
X148795576Y-98087490D01*
X148812371Y-98155311D01*
X148789833Y-98221446D01*
X148744780Y-98260485D01*
X148588305Y-98340213D01*
X148427533Y-98457021D01*
X148287021Y-98597533D01*
X148170213Y-98758305D01*
X148079994Y-98935367D01*
X148079993Y-98935370D01*
X148018587Y-99124362D01*
X147987500Y-99320639D01*
X147987500Y-99519360D01*
X148018587Y-99715637D01*
X148079993Y-99904629D01*
X148079994Y-99904632D01*
X148139033Y-100020500D01*
X148170213Y-100081694D01*
X148287019Y-100242464D01*
X148427536Y-100382981D01*
X148588306Y-100499787D01*
X148706832Y-100560179D01*
X148744780Y-100579515D01*
X148795576Y-100627490D01*
X148812371Y-100695311D01*
X148789833Y-100761446D01*
X148744780Y-100800485D01*
X148588305Y-100880213D01*
X148427533Y-100997021D01*
X148287021Y-101137533D01*
X148170213Y-101298305D01*
X148079994Y-101475367D01*
X148079993Y-101475370D01*
X148018587Y-101664362D01*
X147987500Y-101860639D01*
X147987500Y-102059360D01*
X148018587Y-102255637D01*
X148079993Y-102444629D01*
X148079994Y-102444632D01*
X148139033Y-102560500D01*
X148170213Y-102621694D01*
X148287019Y-102782464D01*
X148427536Y-102922981D01*
X148588306Y-103039787D01*
X148706832Y-103100179D01*
X148744780Y-103119515D01*
X148795576Y-103167490D01*
X148812371Y-103235311D01*
X148789833Y-103301446D01*
X148744780Y-103340485D01*
X148588305Y-103420213D01*
X148427533Y-103537021D01*
X148287021Y-103677533D01*
X148170213Y-103838305D01*
X148079994Y-104015367D01*
X148079993Y-104015370D01*
X148018587Y-104204362D01*
X147987500Y-104400639D01*
X147987500Y-104599360D01*
X148018587Y-104795637D01*
X148079993Y-104984629D01*
X148079994Y-104984632D01*
X148170213Y-105161694D01*
X148287019Y-105322464D01*
X148427536Y-105462981D01*
X148588306Y-105579787D01*
X148622646Y-105597284D01*
X148744780Y-105659515D01*
X148795576Y-105707490D01*
X148812371Y-105775311D01*
X148789833Y-105841446D01*
X148744780Y-105880485D01*
X148588305Y-105960213D01*
X148427533Y-106077021D01*
X148287021Y-106217533D01*
X148170213Y-106378305D01*
X148079994Y-106555367D01*
X148079993Y-106555370D01*
X148018587Y-106744362D01*
X148017576Y-106750745D01*
X147987500Y-106940639D01*
X147987500Y-107139361D01*
X147998606Y-107209480D01*
X148018587Y-107335637D01*
X148079993Y-107524629D01*
X148079994Y-107524632D01*
X148124723Y-107612416D01*
X148170213Y-107701694D01*
X148287019Y-107862464D01*
X148427536Y-108002981D01*
X148588306Y-108119787D01*
X148706832Y-108180179D01*
X148744780Y-108199515D01*
X148795576Y-108247490D01*
X148812371Y-108315311D01*
X148789833Y-108381446D01*
X148744780Y-108420485D01*
X148588305Y-108500213D01*
X148427533Y-108617021D01*
X148287021Y-108757533D01*
X148170213Y-108918305D01*
X148079994Y-109095367D01*
X148079993Y-109095370D01*
X148018587Y-109284362D01*
X147987500Y-109480639D01*
X147987500Y-109679361D01*
X147997500Y-109742499D01*
X148018587Y-109875637D01*
X148079993Y-110064629D01*
X148079994Y-110064632D01*
X148152539Y-110207007D01*
X148170213Y-110241694D01*
X148287019Y-110402464D01*
X148427536Y-110542981D01*
X148588306Y-110659787D01*
X148680980Y-110707007D01*
X148744780Y-110739515D01*
X148795576Y-110787490D01*
X148812371Y-110855311D01*
X148789833Y-110921446D01*
X148744780Y-110960485D01*
X148588305Y-111040213D01*
X148427533Y-111157021D01*
X148287021Y-111297533D01*
X148170213Y-111458305D01*
X148079994Y-111635367D01*
X148079993Y-111635370D01*
X148018587Y-111824362D01*
X147987500Y-112020639D01*
X147987500Y-112219360D01*
X148018587Y-112415637D01*
X148079993Y-112604629D01*
X148079994Y-112604632D01*
X148153684Y-112749254D01*
X148170213Y-112781694D01*
X148287019Y-112942464D01*
X148427536Y-113082981D01*
X148588306Y-113199787D01*
X148671230Y-113242039D01*
X148744780Y-113279515D01*
X148795576Y-113327490D01*
X148812371Y-113395311D01*
X148789833Y-113461446D01*
X148744780Y-113500485D01*
X148588305Y-113580213D01*
X148427533Y-113697021D01*
X148287021Y-113837533D01*
X148170213Y-113998305D01*
X148079994Y-114175367D01*
X148079993Y-114175370D01*
X148018587Y-114364362D01*
X147987500Y-114560639D01*
X147987500Y-114759360D01*
X148018587Y-114955637D01*
X148079993Y-115144629D01*
X148079994Y-115144632D01*
X148133304Y-115249257D01*
X148170213Y-115321694D01*
X148287019Y-115482464D01*
X148427536Y-115622981D01*
X148588306Y-115739787D01*
X148675149Y-115784035D01*
X148765367Y-115830005D01*
X148765370Y-115830006D01*
X148859866Y-115860709D01*
X148954364Y-115891413D01*
X149150639Y-115922500D01*
X149150640Y-115922500D01*
X149349360Y-115922500D01*
X149349361Y-115922500D01*
X149545636Y-115891413D01*
X149734632Y-115830005D01*
X149911694Y-115739787D01*
X150072464Y-115622981D01*
X150212981Y-115482464D01*
X150329787Y-115321694D01*
X150420005Y-115144632D01*
X150481413Y-114955636D01*
X150512500Y-114759361D01*
X150512500Y-114560639D01*
X150481413Y-114364364D01*
X150420005Y-114175368D01*
X150420005Y-114175367D01*
X150329786Y-113998305D01*
X150212981Y-113837536D01*
X150072464Y-113697019D01*
X149911694Y-113580213D01*
X149755218Y-113500484D01*
X149704423Y-113452510D01*
X149687628Y-113384689D01*
X149710165Y-113318554D01*
X149755218Y-113279515D01*
X149911694Y-113199787D01*
X150072464Y-113082981D01*
X150212981Y-112942464D01*
X150329787Y-112781694D01*
X150420005Y-112604632D01*
X150481413Y-112415636D01*
X150512500Y-112219361D01*
X150512500Y-112020639D01*
X150481413Y-111824364D01*
X150450709Y-111729866D01*
X150420006Y-111635370D01*
X150420005Y-111635367D01*
X150329786Y-111458305D01*
X150212981Y-111297536D01*
X150072464Y-111157019D01*
X149911694Y-111040213D01*
X149755218Y-110960484D01*
X149704423Y-110912510D01*
X149687628Y-110844689D01*
X149710165Y-110778554D01*
X149755218Y-110739515D01*
X149911694Y-110659787D01*
X150072464Y-110542981D01*
X150212981Y-110402464D01*
X150329787Y-110241694D01*
X150420005Y-110064632D01*
X150481413Y-109875636D01*
X150512500Y-109679361D01*
X150512500Y-109480639D01*
X150481413Y-109284364D01*
X150420005Y-109095368D01*
X150420005Y-109095367D01*
X150329786Y-108918305D01*
X150318460Y-108902716D01*
X150212981Y-108757536D01*
X150072464Y-108617019D01*
X149911694Y-108500213D01*
X149755218Y-108420484D01*
X149704423Y-108372510D01*
X149687628Y-108304689D01*
X149710165Y-108238554D01*
X149755218Y-108199515D01*
X149911694Y-108119787D01*
X150072464Y-108002981D01*
X150212981Y-107862464D01*
X150329787Y-107701694D01*
X150420005Y-107524632D01*
X150481413Y-107335636D01*
X150512500Y-107139361D01*
X150512500Y-106940639D01*
X150481413Y-106744364D01*
X150420005Y-106555368D01*
X150420005Y-106555367D01*
X150374035Y-106465149D01*
X150329787Y-106378306D01*
X150212981Y-106217536D01*
X150072464Y-106077019D01*
X149911694Y-105960213D01*
X149755218Y-105880484D01*
X149704423Y-105832510D01*
X149687628Y-105764689D01*
X149710165Y-105698554D01*
X149755218Y-105659515D01*
X149911694Y-105579787D01*
X150072464Y-105462981D01*
X150212981Y-105322464D01*
X150329787Y-105161694D01*
X150420005Y-104984632D01*
X150481413Y-104795636D01*
X150512500Y-104599361D01*
X150512500Y-104400639D01*
X150481413Y-104204364D01*
X150420005Y-104015368D01*
X150420005Y-104015367D01*
X150329786Y-103838305D01*
X150271412Y-103757960D01*
X150212981Y-103677536D01*
X150072464Y-103537019D01*
X149911694Y-103420213D01*
X149755218Y-103340484D01*
X149704423Y-103292510D01*
X149687628Y-103224689D01*
X149710165Y-103158554D01*
X149755218Y-103119515D01*
X149911694Y-103039787D01*
X150072464Y-102922981D01*
X150212981Y-102782464D01*
X150329787Y-102621694D01*
X150420005Y-102444632D01*
X150481413Y-102255636D01*
X150512500Y-102059361D01*
X150512500Y-101860639D01*
X150481413Y-101664364D01*
X150450709Y-101569866D01*
X150420006Y-101475370D01*
X150420005Y-101475367D01*
X150360967Y-101359500D01*
X150329787Y-101298306D01*
X150212981Y-101137536D01*
X150072464Y-100997019D01*
X149911694Y-100880213D01*
X149755218Y-100800484D01*
X149704423Y-100752510D01*
X149687628Y-100684689D01*
X149710165Y-100618554D01*
X149755218Y-100579515D01*
X149911694Y-100499787D01*
X150072464Y-100382981D01*
X150212981Y-100242464D01*
X150329787Y-100081694D01*
X150420005Y-99904632D01*
X150481413Y-99715636D01*
X150512500Y-99519361D01*
X150512500Y-99320639D01*
X150481413Y-99124364D01*
X150450709Y-99029866D01*
X150420006Y-98935370D01*
X150420005Y-98935367D01*
X150347145Y-98792373D01*
X150329787Y-98758306D01*
X150212981Y-98597536D01*
X150072464Y-98457019D01*
X149911694Y-98340213D01*
X149755218Y-98260484D01*
X149704423Y-98212510D01*
X149687628Y-98144689D01*
X149710165Y-98078554D01*
X149755218Y-98039515D01*
X149911694Y-97959787D01*
X150072464Y-97842981D01*
X150212981Y-97702464D01*
X150329787Y-97541694D01*
X150420005Y-97364632D01*
X150481413Y-97175636D01*
X150512500Y-96979361D01*
X150512500Y-96780639D01*
X150481413Y-96584364D01*
X150420005Y-96395368D01*
X150420005Y-96395367D01*
X150367775Y-96292862D01*
X150329787Y-96218306D01*
X150212981Y-96057536D01*
X150072464Y-95917019D01*
X149911694Y-95800213D01*
X149755218Y-95720484D01*
X149704423Y-95672510D01*
X149687628Y-95604689D01*
X149710165Y-95538554D01*
X149755218Y-95499515D01*
X149911694Y-95419787D01*
X150072464Y-95302981D01*
X150212981Y-95162464D01*
X150329787Y-95001694D01*
X150420005Y-94824632D01*
X150481413Y-94635636D01*
X150512500Y-94439361D01*
X150512500Y-94240639D01*
X150481413Y-94044364D01*
X150421668Y-93860485D01*
X150420006Y-93855370D01*
X150420005Y-93855367D01*
X150357728Y-93733144D01*
X150329787Y-93678306D01*
X150212981Y-93517536D01*
X150072464Y-93377019D01*
X149911694Y-93260213D01*
X149755218Y-93180484D01*
X149704423Y-93132510D01*
X149687628Y-93064689D01*
X149710165Y-92998554D01*
X149755218Y-92959515D01*
X149911694Y-92879787D01*
X150072464Y-92762981D01*
X150212981Y-92622464D01*
X150329787Y-92461694D01*
X150420005Y-92284632D01*
X150481413Y-92095636D01*
X150512500Y-91899361D01*
X150512500Y-91700639D01*
X150481413Y-91504364D01*
X150450709Y-91409866D01*
X150420006Y-91315370D01*
X150420005Y-91315367D01*
X150367400Y-91212126D01*
X150329787Y-91138306D01*
X150212981Y-90977536D01*
X150072464Y-90837019D01*
X149911694Y-90720213D01*
X149755218Y-90640484D01*
X149704423Y-90592510D01*
X149687628Y-90524689D01*
X149710165Y-90458554D01*
X149755218Y-90419515D01*
X149911694Y-90339787D01*
X150072464Y-90222981D01*
X150212981Y-90082464D01*
X150329787Y-89921694D01*
X150420005Y-89744632D01*
X150481413Y-89555636D01*
X150512500Y-89359361D01*
X150512500Y-89160639D01*
X150481413Y-88964364D01*
X150420005Y-88775368D01*
X150420005Y-88775367D01*
X150358865Y-88655374D01*
X150329787Y-88598306D01*
X150212981Y-88437536D01*
X150072464Y-88297019D01*
X149911694Y-88180213D01*
X149755218Y-88100484D01*
X149704423Y-88052510D01*
X149687628Y-87984689D01*
X149710165Y-87918554D01*
X149755218Y-87879515D01*
X149911694Y-87799787D01*
X150072464Y-87682981D01*
X150212981Y-87542464D01*
X150329787Y-87381694D01*
X150420005Y-87204632D01*
X150481413Y-87015636D01*
X150512500Y-86819361D01*
X150512500Y-86620639D01*
X150481413Y-86424364D01*
X150420005Y-86235368D01*
X150420005Y-86235367D01*
X150329786Y-86058305D01*
X150212981Y-85897536D01*
X150072464Y-85757019D01*
X149911694Y-85640213D01*
X149755218Y-85560484D01*
X149704423Y-85512510D01*
X149687628Y-85444689D01*
X149710165Y-85378554D01*
X149755218Y-85339515D01*
X149911694Y-85259787D01*
X150072464Y-85142981D01*
X150212981Y-85002464D01*
X150329787Y-84841694D01*
X150420005Y-84664632D01*
X150481413Y-84475636D01*
X150512500Y-84279361D01*
X150512500Y-84080639D01*
X150481413Y-83884364D01*
X150420005Y-83695368D01*
X150420005Y-83695367D01*
X150329786Y-83518305D01*
X150212981Y-83357536D01*
X150072464Y-83217019D01*
X149911694Y-83100213D01*
X149755218Y-83020484D01*
X149704423Y-82972510D01*
X149687628Y-82904689D01*
X149710165Y-82838554D01*
X149755218Y-82799515D01*
X149911694Y-82719787D01*
X150072464Y-82602981D01*
X150212981Y-82462464D01*
X150329787Y-82301694D01*
X150420005Y-82124632D01*
X150481413Y-81935636D01*
X150512500Y-81739361D01*
X150512500Y-81540639D01*
X150481413Y-81344364D01*
X150420005Y-81155368D01*
X150407484Y-81130795D01*
X150394588Y-81062128D01*
X150420863Y-80997387D01*
X150477969Y-80957129D01*
X150517969Y-80950500D01*
X150970234Y-80950500D01*
X151037273Y-80970185D01*
X151039125Y-80971398D01*
X151170814Y-81059390D01*
X151170827Y-81059397D01*
X151249894Y-81092147D01*
X151316503Y-81119737D01*
X151471153Y-81150499D01*
X151471156Y-81150500D01*
X151471158Y-81150500D01*
X151628844Y-81150500D01*
X151628845Y-81150499D01*
X151783497Y-81119737D01*
X151896166Y-81073067D01*
X151929172Y-81059397D01*
X151929172Y-81059396D01*
X151929179Y-81059394D01*
X152060289Y-80971789D01*
X152171789Y-80860289D01*
X152259394Y-80729179D01*
X152319737Y-80583497D01*
X152350500Y-80428842D01*
X152350500Y-80271158D01*
X152350500Y-80271155D01*
X152350499Y-80271153D01*
X152319738Y-80116510D01*
X152319737Y-80116503D01*
X152297568Y-80062981D01*
X152259397Y-79970827D01*
X152259390Y-79970814D01*
X152171789Y-79839711D01*
X152171786Y-79839707D01*
X152060292Y-79728213D01*
X152060288Y-79728210D01*
X151929185Y-79640609D01*
X151929172Y-79640602D01*
X151783501Y-79580264D01*
X151783489Y-79580261D01*
X151628845Y-79549500D01*
X151628842Y-79549500D01*
X151471158Y-79549500D01*
X151471155Y-79549500D01*
X151316510Y-79580261D01*
X151316498Y-79580264D01*
X151170827Y-79640602D01*
X151170814Y-79640609D01*
X151039125Y-79728602D01*
X150972447Y-79749480D01*
X150970234Y-79749500D01*
X150537108Y-79749500D01*
X150470069Y-79729815D01*
X150424314Y-79677011D01*
X150414370Y-79607853D01*
X150419177Y-79587182D01*
X150466952Y-79440142D01*
X150481413Y-79395636D01*
X150512500Y-79199361D01*
X150512500Y-79000639D01*
X150481413Y-78804364D01*
X150420005Y-78615368D01*
X150420005Y-78615367D01*
X150329786Y-78438305D01*
X150212981Y-78277536D01*
X150072464Y-78137019D01*
X149911694Y-78020213D01*
X149755218Y-77940484D01*
X149704423Y-77892510D01*
X149687628Y-77824689D01*
X149710165Y-77758554D01*
X149755218Y-77719515D01*
X149911694Y-77639787D01*
X150072464Y-77522981D01*
X150212981Y-77382464D01*
X150329787Y-77221694D01*
X150420005Y-77044632D01*
X150481413Y-76855636D01*
X150512500Y-76659361D01*
X150512500Y-76460639D01*
X150481413Y-76264364D01*
X150420005Y-76075368D01*
X150420005Y-76075367D01*
X150329786Y-75898305D01*
X150212981Y-75737536D01*
X150072464Y-75597019D01*
X149911694Y-75480213D01*
X149755218Y-75400484D01*
X149704423Y-75352510D01*
X149687628Y-75284689D01*
X149710165Y-75218554D01*
X149755218Y-75179515D01*
X149911694Y-75099787D01*
X150072464Y-74982981D01*
X150212981Y-74842464D01*
X150329787Y-74681694D01*
X150420005Y-74504632D01*
X150481413Y-74315636D01*
X150512500Y-74119361D01*
X150512500Y-73920639D01*
X150481413Y-73724364D01*
X150420005Y-73535368D01*
X150420005Y-73535367D01*
X150329786Y-73358305D01*
X150212981Y-73197536D01*
X150072464Y-73057019D01*
X149911694Y-72940213D01*
X149754667Y-72860203D01*
X149703872Y-72812229D01*
X149687077Y-72744408D01*
X149709614Y-72678273D01*
X149754669Y-72639234D01*
X149911422Y-72559364D01*
X149948716Y-72532268D01*
X149277448Y-71861000D01*
X149300160Y-71861000D01*
X149397061Y-71835036D01*
X149483940Y-71784876D01*
X149554876Y-71713940D01*
X149605036Y-71627061D01*
X149631000Y-71530160D01*
X149631000Y-71507447D01*
X150302268Y-72178715D01*
X150329362Y-72141425D01*
X150419542Y-71964437D01*
X150480924Y-71775523D01*
X150480924Y-71775520D01*
X150512000Y-71579321D01*
X150512000Y-71380678D01*
X150480924Y-71184479D01*
X150480924Y-71184476D01*
X150419542Y-70995562D01*
X150329358Y-70818567D01*
X150302268Y-70781283D01*
X149631000Y-71452551D01*
X149631000Y-71429840D01*
X149605036Y-71332939D01*
X149554876Y-71246060D01*
X149483940Y-71175124D01*
X149397061Y-71124964D01*
X149300160Y-71099000D01*
X149277447Y-71099000D01*
X149948716Y-70427731D01*
X149948715Y-70427730D01*
X149911432Y-70400641D01*
X149754668Y-70320765D01*
X149703872Y-70272790D01*
X149687077Y-70204969D01*
X149709615Y-70138834D01*
X149754667Y-70099796D01*
X149911694Y-70019787D01*
X150072464Y-69902981D01*
X150212981Y-69762464D01*
X150329787Y-69601694D01*
X150420005Y-69424632D01*
X150481413Y-69235636D01*
X150512500Y-69039361D01*
X150512500Y-68840639D01*
X150481413Y-68644364D01*
X150420005Y-68455368D01*
X150420005Y-68455367D01*
X150357751Y-68333188D01*
X150329787Y-68278306D01*
X150212981Y-68117536D01*
X150072464Y-67977019D01*
X149911694Y-67860213D01*
X149755218Y-67780484D01*
X149704423Y-67732510D01*
X149687628Y-67664689D01*
X149710165Y-67598554D01*
X149755218Y-67559515D01*
X149911694Y-67479787D01*
X150072464Y-67362981D01*
X150212981Y-67222464D01*
X150329787Y-67061694D01*
X150420005Y-66884632D01*
X150481413Y-66695636D01*
X150512500Y-66499361D01*
X150512500Y-66300639D01*
X150481413Y-66104364D01*
X150420005Y-65915368D01*
X150420005Y-65915367D01*
X150329786Y-65738305D01*
X150212981Y-65577536D01*
X150072464Y-65437019D01*
X149911694Y-65320213D01*
X149734632Y-65229994D01*
X149734629Y-65229993D01*
X149545637Y-65168587D01*
X149447498Y-65153043D01*
X149349361Y-65137500D01*
X149150639Y-65137500D01*
X149085214Y-65147862D01*
X148954362Y-65168587D01*
X148765370Y-65229993D01*
X148765367Y-65229994D01*
X148588305Y-65320213D01*
X148427533Y-65437021D01*
X148287021Y-65577533D01*
X148170213Y-65738305D01*
X148079994Y-65915367D01*
X148079993Y-65915370D01*
X148018587Y-66104362D01*
X147987500Y-66300639D01*
X147987500Y-66499360D01*
X148018587Y-66695637D01*
X148079993Y-66884629D01*
X148079994Y-66884632D01*
X148170213Y-67061694D01*
X148287019Y-67222464D01*
X148427536Y-67362981D01*
X148588306Y-67479787D01*
X148706832Y-67540179D01*
X148744780Y-67559515D01*
X148795576Y-67607490D01*
X148812371Y-67675311D01*
X148789833Y-67741446D01*
X148744780Y-67780485D01*
X148588305Y-67860213D01*
X148427533Y-67977021D01*
X148287021Y-68117533D01*
X148170213Y-68278305D01*
X148079994Y-68455367D01*
X148079993Y-68455370D01*
X148018587Y-68644362D01*
X147987500Y-68840639D01*
X147987500Y-69039361D01*
X147989549Y-69052299D01*
X148018587Y-69235637D01*
X148079993Y-69424629D01*
X148079994Y-69424632D01*
X148170213Y-69601694D01*
X148287019Y-69762464D01*
X148427536Y-69902981D01*
X148588306Y-70019787D01*
X148745332Y-70099796D01*
X148796127Y-70147769D01*
X148812922Y-70215590D01*
X148790385Y-70281725D01*
X148745332Y-70320764D01*
X148588566Y-70400641D01*
X148551283Y-70427729D01*
X148551282Y-70427730D01*
X149222554Y-71099000D01*
X149199840Y-71099000D01*
X149102939Y-71124964D01*
X149016060Y-71175124D01*
X148945124Y-71246060D01*
X148894964Y-71332939D01*
X148869000Y-71429840D01*
X148869000Y-71452552D01*
X148197730Y-70781282D01*
X148197729Y-70781283D01*
X148170643Y-70818564D01*
X148080457Y-70995562D01*
X148019075Y-71184476D01*
X148019075Y-71184479D01*
X147988000Y-71380678D01*
X147988000Y-71579321D01*
X148019075Y-71775520D01*
X148019075Y-71775523D01*
X148080457Y-71964437D01*
X148170641Y-72141432D01*
X148197730Y-72178715D01*
X148197731Y-72178716D01*
X148869000Y-71507447D01*
X148869000Y-71530160D01*
X148894964Y-71627061D01*
X148945124Y-71713940D01*
X149016060Y-71784876D01*
X149102939Y-71835036D01*
X149199840Y-71861000D01*
X149222553Y-71861000D01*
X148551283Y-72532268D01*
X148551283Y-72532269D01*
X148588567Y-72559358D01*
X148745331Y-72639234D01*
X148796127Y-72687209D01*
X148812922Y-72755030D01*
X148790384Y-72821165D01*
X148745331Y-72860204D01*
X148588305Y-72940213D01*
X148427533Y-73057021D01*
X148287021Y-73197533D01*
X148170213Y-73358305D01*
X148079994Y-73535367D01*
X148079993Y-73535370D01*
X148018587Y-73724362D01*
X147987500Y-73920639D01*
X147987500Y-74119360D01*
X148018587Y-74315637D01*
X148079993Y-74504629D01*
X148079994Y-74504632D01*
X148170213Y-74681694D01*
X148287019Y-74842464D01*
X148427536Y-74982981D01*
X148588306Y-75099787D01*
X148706832Y-75160179D01*
X148744780Y-75179515D01*
X148795576Y-75227490D01*
X148812371Y-75295311D01*
X148789833Y-75361446D01*
X148744780Y-75400485D01*
X148588305Y-75480213D01*
X148427533Y-75597021D01*
X148287021Y-75737533D01*
X148170213Y-75898305D01*
X148079994Y-76075367D01*
X148079993Y-76075370D01*
X148018587Y-76264362D01*
X147987500Y-76460639D01*
X147987500Y-76659360D01*
X148018587Y-76855637D01*
X148079993Y-77044629D01*
X148079994Y-77044632D01*
X148170213Y-77221694D01*
X148287019Y-77382464D01*
X148427536Y-77522981D01*
X148588306Y-77639787D01*
X148706832Y-77700179D01*
X148744780Y-77719515D01*
X148795576Y-77767490D01*
X148812371Y-77835311D01*
X148789833Y-77901446D01*
X148744780Y-77940485D01*
X148588305Y-78020213D01*
X148427533Y-78137021D01*
X148287021Y-78277533D01*
X148170213Y-78438305D01*
X148079994Y-78615367D01*
X148079993Y-78615370D01*
X148018587Y-78804362D01*
X147987500Y-79000639D01*
X147987500Y-79199360D01*
X148018587Y-79395637D01*
X148080823Y-79587182D01*
X148082818Y-79657023D01*
X148046737Y-79716856D01*
X147984036Y-79747684D01*
X147962892Y-79749500D01*
X147679057Y-79749500D01*
X147520942Y-79749500D01*
X147368215Y-79790423D01*
X147368214Y-79790423D01*
X147368212Y-79790424D01*
X147368209Y-79790425D01*
X147318096Y-79819359D01*
X147318095Y-79819360D01*
X147282853Y-79839707D01*
X147231285Y-79869479D01*
X147231282Y-79869481D01*
X147134148Y-79966616D01*
X147119480Y-79981284D01*
X147119478Y-79981286D01*
X143527382Y-83573383D01*
X139955584Y-87145181D01*
X139894261Y-87178666D01*
X139867903Y-87181500D01*
X135358192Y-87181500D01*
X135291153Y-87161815D01*
X135245398Y-87109011D01*
X135235454Y-87039853D01*
X135240262Y-87019180D01*
X135241412Y-87015638D01*
X135241413Y-87015636D01*
X135272500Y-86819361D01*
X135272500Y-86620639D01*
X135241413Y-86424364D01*
X135180005Y-86235368D01*
X135180005Y-86235367D01*
X135089786Y-86058305D01*
X134972981Y-85897536D01*
X134832464Y-85757019D01*
X134671694Y-85640213D01*
X134515218Y-85560484D01*
X134464423Y-85512510D01*
X134447628Y-85444689D01*
X134470165Y-85378554D01*
X134515218Y-85339515D01*
X134671694Y-85259787D01*
X134832464Y-85142981D01*
X134972981Y-85002464D01*
X135089787Y-84841694D01*
X135180005Y-84664632D01*
X135241413Y-84475636D01*
X135272500Y-84279361D01*
X135272500Y-84080639D01*
X135241413Y-83884364D01*
X135180005Y-83695368D01*
X135180005Y-83695367D01*
X135089786Y-83518305D01*
X134972981Y-83357536D01*
X134832464Y-83217019D01*
X134671694Y-83100213D01*
X134515218Y-83020484D01*
X134464423Y-82972510D01*
X134447628Y-82904689D01*
X134470165Y-82838554D01*
X134515218Y-82799515D01*
X134671694Y-82719787D01*
X134832464Y-82602981D01*
X134972981Y-82462464D01*
X135089787Y-82301694D01*
X135180005Y-82124632D01*
X135241413Y-81935636D01*
X135272500Y-81739361D01*
X135272500Y-81540639D01*
X135241413Y-81344364D01*
X135180005Y-81155368D01*
X135180005Y-81155367D01*
X135099509Y-80997387D01*
X135089787Y-80978306D01*
X134972981Y-80817536D01*
X134832464Y-80677019D01*
X134671694Y-80560213D01*
X134515218Y-80480484D01*
X134464423Y-80432510D01*
X134447628Y-80364689D01*
X134470165Y-80298554D01*
X134515218Y-80259515D01*
X134671694Y-80179787D01*
X134832464Y-80062981D01*
X134972981Y-79922464D01*
X135089787Y-79761694D01*
X135180005Y-79584632D01*
X135241413Y-79395636D01*
X135272500Y-79199361D01*
X135272500Y-79000639D01*
X135241413Y-78804364D01*
X135180005Y-78615368D01*
X135180005Y-78615367D01*
X135089786Y-78438305D01*
X134972981Y-78277536D01*
X134832464Y-78137019D01*
X134671694Y-78020213D01*
X134515218Y-77940484D01*
X134464423Y-77892510D01*
X134447628Y-77824689D01*
X134470165Y-77758554D01*
X134515218Y-77719515D01*
X134671694Y-77639787D01*
X134832464Y-77522981D01*
X134972981Y-77382464D01*
X135089787Y-77221694D01*
X135180005Y-77044632D01*
X135241413Y-76855636D01*
X135272500Y-76659361D01*
X135272500Y-76460639D01*
X135241413Y-76264364D01*
X135180005Y-76075368D01*
X135180005Y-76075367D01*
X135089786Y-75898305D01*
X134972981Y-75737536D01*
X134832464Y-75597019D01*
X134671694Y-75480213D01*
X134515218Y-75400484D01*
X134464423Y-75352510D01*
X134447628Y-75284689D01*
X134470165Y-75218554D01*
X134515218Y-75179515D01*
X134671694Y-75099787D01*
X134832464Y-74982981D01*
X134972981Y-74842464D01*
X135089787Y-74681694D01*
X135180005Y-74504632D01*
X135241413Y-74315636D01*
X135272500Y-74119361D01*
X135272500Y-73920639D01*
X135241413Y-73724364D01*
X135180005Y-73535368D01*
X135180005Y-73535367D01*
X135089786Y-73358305D01*
X134972981Y-73197536D01*
X134832464Y-73057019D01*
X134671694Y-72940213D01*
X134515218Y-72860484D01*
X134464423Y-72812510D01*
X134447628Y-72744689D01*
X134470165Y-72678554D01*
X134515218Y-72639515D01*
X134671694Y-72559787D01*
X134832464Y-72442981D01*
X134972981Y-72302464D01*
X135089787Y-72141694D01*
X135180005Y-71964632D01*
X135241413Y-71775636D01*
X135272500Y-71579361D01*
X135272500Y-71380639D01*
X135241413Y-71184364D01*
X135180005Y-70995368D01*
X135180005Y-70995367D01*
X135117849Y-70873380D01*
X135089787Y-70818306D01*
X134972981Y-70657536D01*
X134832464Y-70517019D01*
X134671694Y-70400213D01*
X134515218Y-70320484D01*
X134464423Y-70272510D01*
X134447628Y-70204689D01*
X134470165Y-70138554D01*
X134515218Y-70099515D01*
X134671694Y-70019787D01*
X134832464Y-69902981D01*
X134972981Y-69762464D01*
X135089787Y-69601694D01*
X135180005Y-69424632D01*
X135241413Y-69235636D01*
X135272500Y-69039361D01*
X135272500Y-68840639D01*
X135241413Y-68644364D01*
X135180005Y-68455368D01*
X135180005Y-68455367D01*
X135117751Y-68333188D01*
X135089787Y-68278306D01*
X134972981Y-68117536D01*
X134832464Y-67977019D01*
X134671694Y-67860213D01*
X134515218Y-67780484D01*
X134464423Y-67732510D01*
X134447628Y-67664689D01*
X134470165Y-67598554D01*
X134515218Y-67559515D01*
X134671694Y-67479787D01*
X134832464Y-67362981D01*
X134972981Y-67222464D01*
X135089787Y-67061694D01*
X135180005Y-66884632D01*
X135241413Y-66695636D01*
X135272500Y-66499361D01*
X135272500Y-66300639D01*
X135241413Y-66104364D01*
X135180005Y-65915368D01*
X135180005Y-65915367D01*
X135089786Y-65738305D01*
X134972981Y-65577536D01*
X134832464Y-65437019D01*
X134671694Y-65320213D01*
X134494632Y-65229994D01*
X134494629Y-65229993D01*
X134305637Y-65168587D01*
X134207498Y-65153043D01*
X134109361Y-65137500D01*
X133910639Y-65137500D01*
X133845214Y-65147862D01*
X133714362Y-65168587D01*
X133525370Y-65229993D01*
X133525367Y-65229994D01*
X133348305Y-65320213D01*
X133187533Y-65437021D01*
X133047021Y-65577533D01*
X132930213Y-65738305D01*
X132839994Y-65915367D01*
X132839993Y-65915370D01*
X132778587Y-66104362D01*
X132747500Y-66300639D01*
X132747500Y-66499360D01*
X132778587Y-66695637D01*
X132839993Y-66884629D01*
X132839994Y-66884632D01*
X132930213Y-67061694D01*
X133047019Y-67222464D01*
X133187536Y-67362981D01*
X133348306Y-67479787D01*
X133466832Y-67540179D01*
X133504780Y-67559515D01*
X133555576Y-67607490D01*
X133572371Y-67675311D01*
X133549833Y-67741446D01*
X133504780Y-67780485D01*
X133348305Y-67860213D01*
X133187533Y-67977021D01*
X133047021Y-68117533D01*
X132930213Y-68278305D01*
X132839994Y-68455367D01*
X132839993Y-68455370D01*
X132778587Y-68644362D01*
X132747500Y-68840639D01*
X132747500Y-69039361D01*
X132749549Y-69052299D01*
X132778587Y-69235637D01*
X132839993Y-69424629D01*
X132839994Y-69424632D01*
X132930213Y-69601694D01*
X133047019Y-69762464D01*
X133187536Y-69902981D01*
X133348306Y-70019787D01*
X133466832Y-70080179D01*
X133504780Y-70099515D01*
X133555576Y-70147490D01*
X133572371Y-70215311D01*
X133549833Y-70281446D01*
X133504780Y-70320485D01*
X133348305Y-70400213D01*
X133187533Y-70517021D01*
X133047021Y-70657533D01*
X132930213Y-70818305D01*
X132839994Y-70995367D01*
X132839993Y-70995370D01*
X132778587Y-71184362D01*
X132747500Y-71380639D01*
X132747500Y-71579360D01*
X132778587Y-71775637D01*
X132839993Y-71964629D01*
X132839994Y-71964632D01*
X132930076Y-72141425D01*
X132930213Y-72141694D01*
X133047019Y-72302464D01*
X133187536Y-72442981D01*
X133348306Y-72559787D01*
X133466832Y-72620179D01*
X133504780Y-72639515D01*
X133555576Y-72687490D01*
X133572371Y-72755311D01*
X133549833Y-72821446D01*
X133504780Y-72860485D01*
X133348305Y-72940213D01*
X133187533Y-73057021D01*
X133047021Y-73197533D01*
X132930213Y-73358305D01*
X132839994Y-73535367D01*
X132839993Y-73535370D01*
X132778587Y-73724362D01*
X132747500Y-73920639D01*
X132747500Y-74119360D01*
X132778587Y-74315637D01*
X132839993Y-74504629D01*
X132839994Y-74504632D01*
X132930213Y-74681694D01*
X133047019Y-74842464D01*
X133187536Y-74982981D01*
X133348306Y-75099787D01*
X133466832Y-75160179D01*
X133504780Y-75179515D01*
X133555576Y-75227490D01*
X133572371Y-75295311D01*
X133549833Y-75361446D01*
X133504780Y-75400485D01*
X133348305Y-75480213D01*
X133187533Y-75597021D01*
X133047021Y-75737533D01*
X132930213Y-75898305D01*
X132839994Y-76075367D01*
X132839993Y-76075370D01*
X132778587Y-76264362D01*
X132747500Y-76460639D01*
X132747500Y-76659360D01*
X132778587Y-76855637D01*
X132839993Y-77044629D01*
X132839994Y-77044632D01*
X132930213Y-77221694D01*
X133047019Y-77382464D01*
X133187536Y-77522981D01*
X133348306Y-77639787D01*
X133466832Y-77700179D01*
X133504780Y-77719515D01*
X133555576Y-77767490D01*
X133572371Y-77835311D01*
X133549833Y-77901446D01*
X133504780Y-77940485D01*
X133348305Y-78020213D01*
X133187533Y-78137021D01*
X133047021Y-78277533D01*
X132930213Y-78438305D01*
X132839994Y-78615367D01*
X132839993Y-78615370D01*
X132778587Y-78804362D01*
X132747500Y-79000639D01*
X132747500Y-79199360D01*
X132778587Y-79395637D01*
X132839993Y-79584629D01*
X132839994Y-79584632D01*
X132923990Y-79749480D01*
X132930213Y-79761694D01*
X133047019Y-79922464D01*
X133187536Y-80062981D01*
X133348306Y-80179787D01*
X133466832Y-80240179D01*
X133504780Y-80259515D01*
X133555576Y-80307490D01*
X133572371Y-80375311D01*
X133549833Y-80441446D01*
X133504780Y-80480485D01*
X133348305Y-80560213D01*
X133187533Y-80677021D01*
X133047021Y-80817533D01*
X132930213Y-80978305D01*
X132839994Y-81155367D01*
X132839993Y-81155370D01*
X132778587Y-81344362D01*
X132747500Y-81540639D01*
X132747500Y-81739360D01*
X132778587Y-81935637D01*
X132839993Y-82124629D01*
X132839994Y-82124632D01*
X132930213Y-82301694D01*
X133047019Y-82462464D01*
X133187536Y-82602981D01*
X133348306Y-82719787D01*
X133466832Y-82780179D01*
X133504780Y-82799515D01*
X133555576Y-82847490D01*
X133572371Y-82915311D01*
X133549833Y-82981446D01*
X133504780Y-83020485D01*
X133348305Y-83100213D01*
X133187533Y-83217021D01*
X133047021Y-83357533D01*
X132930213Y-83518305D01*
X132839994Y-83695367D01*
X132839993Y-83695370D01*
X132778587Y-83884362D01*
X132754170Y-84038526D01*
X132747500Y-84080639D01*
X132747500Y-84279361D01*
X132749696Y-84293230D01*
X132740741Y-84362522D01*
X132695744Y-84415974D01*
X132628992Y-84436612D01*
X132561678Y-84417886D01*
X132539542Y-84400306D01*
X120657590Y-72518355D01*
X120657588Y-72518352D01*
X120538717Y-72399481D01*
X120538709Y-72399475D01*
X120414258Y-72327624D01*
X120414255Y-72327623D01*
X120401785Y-72320423D01*
X120249057Y-72279499D01*
X120090943Y-72279499D01*
X120083347Y-72279499D01*
X120083331Y-72279500D01*
X105329490Y-72279500D01*
X105262451Y-72259815D01*
X105219005Y-72211795D01*
X105188407Y-72151743D01*
X105180147Y-72140374D01*
X105059857Y-71974806D01*
X104905199Y-71820148D01*
X104843933Y-71775636D01*
X104754028Y-71710316D01*
X104711364Y-71654989D01*
X104705385Y-71585376D01*
X104737990Y-71523580D01*
X104754023Y-71509686D01*
X104905199Y-71399852D01*
X105059852Y-71245199D01*
X105059854Y-71245195D01*
X105059857Y-71245193D01*
X105116229Y-71167601D01*
X105188407Y-71068257D01*
X105287701Y-70873383D01*
X105355286Y-70665375D01*
X105378783Y-70517021D01*
X105389500Y-70449361D01*
X105389500Y-70230638D01*
X105368731Y-70099515D01*
X105355286Y-70014625D01*
X105287701Y-69806617D01*
X105287701Y-69806616D01*
X105253315Y-69739132D01*
X105188407Y-69611743D01*
X105180147Y-69600374D01*
X105059857Y-69434806D01*
X104905197Y-69280146D01*
X104905192Y-69280142D01*
X104753605Y-69170008D01*
X104710939Y-69114678D01*
X104704960Y-69045065D01*
X104737565Y-68983270D01*
X104753605Y-68969371D01*
X104904873Y-68859469D01*
X105059471Y-68704871D01*
X105059475Y-68704866D01*
X105187976Y-68527998D01*
X105287237Y-68333191D01*
X105287238Y-68333188D01*
X105354798Y-68125258D01*
X105366718Y-68050000D01*
X104433012Y-68050000D01*
X104465925Y-67992993D01*
X104500000Y-67865826D01*
X104500000Y-67734174D01*
X104465925Y-67607007D01*
X104433012Y-67550000D01*
X105366718Y-67550000D01*
X105354798Y-67474741D01*
X105287238Y-67266811D01*
X105287237Y-67266808D01*
X105187976Y-67072001D01*
X105059475Y-66895133D01*
X105059471Y-66895128D01*
X104904871Y-66740528D01*
X104904866Y-66740524D01*
X104727998Y-66612023D01*
X104533191Y-66512762D01*
X104533188Y-66512761D01*
X104325258Y-66445201D01*
X104250000Y-66433281D01*
X104250000Y-67366988D01*
X104192993Y-67334075D01*
X104065826Y-67300000D01*
X103934174Y-67300000D01*
X103807007Y-67334075D01*
X103750000Y-67366988D01*
X103750000Y-66433281D01*
X103674741Y-66445201D01*
X103466811Y-66512761D01*
X103466808Y-66512762D01*
X103272001Y-66612023D01*
X103095133Y-66740524D01*
X103095128Y-66740528D01*
X102940528Y-66895128D01*
X102940524Y-66895133D01*
X102812023Y-67072001D01*
X102712762Y-67266808D01*
X102712761Y-67266811D01*
X102645201Y-67474741D01*
X102633282Y-67550000D01*
X103566988Y-67550000D01*
X103534075Y-67607007D01*
X103500000Y-67734174D01*
X103500000Y-67865826D01*
X103534075Y-67992993D01*
X103566988Y-68050000D01*
X102633282Y-68050000D01*
X102645201Y-68125258D01*
X102712761Y-68333188D01*
X102712762Y-68333191D01*
X102812023Y-68527998D01*
X102940524Y-68704866D01*
X102940528Y-68704871D01*
X103095128Y-68859471D01*
X103095133Y-68859475D01*
X103246394Y-68969372D01*
X103289060Y-69024701D01*
X103295039Y-69094315D01*
X103262434Y-69156110D01*
X103246394Y-69170008D01*
X103094807Y-69280142D01*
X103094802Y-69280146D01*
X102940142Y-69434806D01*
X102811595Y-69611739D01*
X102712298Y-69806616D01*
X102712297Y-69806619D01*
X102644714Y-70014623D01*
X102610500Y-70230638D01*
X99000500Y-70230638D01*
X99000500Y-64124500D01*
X99020185Y-64057461D01*
X99072989Y-64011706D01*
X99124500Y-64000500D01*
X167625500Y-64000500D01*
X167692539Y-64020185D01*
G37*
%TD.AperFunction*%
%TD*%
M02*
