%TF.GenerationSoftware,KiCad,Pcbnew,10.0.5*%
%TF.CreationDate,2026-09-25T17:59:38-04:00*%
%TF.ProjectId,DAQBoardFront,44415142-6f61-4726-9446-726f6e742e6b,rev?*%
%TF.SameCoordinates,Original*%
%TF.FileFunction,Copper,L1,Top*%
%TF.FilePolarity,Positive*%
%FSLAX46Y46*%
G04 Gerber Fmt 4.6, Leading zero omitted, Abs format (unit mm)*
G04 Created by KiCad (PCBNEW 10.0.5) date 2026-09-25 17:59:38*
%MOMM*%
%LPD*%
G01*
G04 APERTURE LIST*
%TA.AperFunction,ComponentPad*%
%ADD10C,1.600200*%
%TD*%
%TA.AperFunction,ComponentPad*%
%ADD11C,1.524000*%
%TD*%
%TA.AperFunction,ComponentPad*%
%ADD12R,1.508000X1.508000*%
%TD*%
%TA.AperFunction,ComponentPad*%
%ADD13C,1.508000*%
%TD*%
%TA.AperFunction,ComponentPad*%
%ADD14C,3.516000*%
%TD*%
%TA.AperFunction,ComponentPad*%
%ADD15C,1.650000*%
%TD*%
%TA.AperFunction,ViaPad*%
%ADD16C,0.600000*%
%TD*%
%TA.AperFunction,Conductor*%
%ADD17C,0.200000*%
%TD*%
%TA.AperFunction,Conductor*%
%ADD18C,0.250000*%
%TD*%
%TA.AperFunction,Conductor*%
%ADD19C,0.350000*%
%TD*%
G04 APERTURE END LIST*
D10*
%TO.P,J1,1,1_1*%
%TO.N,/FRSus*%
X104000000Y-122250000D03*
%TO.P,J1,2,2_2*%
%TO.N,/FLSus*%
X104000000Y-119750000D03*
%TO.P,J1,3,3_3*%
%TO.N,/SteeringAngle*%
X104000000Y-117250000D03*
%TO.P,J1,4,4_4*%
%TO.N,/ExtraAnalog*%
X104000000Y-114750000D03*
%TO.P,J1,5,5_5*%
%TO.N,/ExtraDigital*%
X104000000Y-112250000D03*
%TO.P,J1,6,6_6*%
%TO.N,/FRHallEffect*%
X104000000Y-109750000D03*
%TO.P,J1,7,7_7*%
%TO.N,/FLHallEffect*%
X104000000Y-107250000D03*
%TO.P,J1,8,8_8*%
%TO.N,/Brake P Input (12V)*%
X104000000Y-104750000D03*
%TO.P,J1,9,9_9*%
%TO.N,/+3.3V*%
X104000000Y-102250000D03*
%TO.P,J1,10,10_10*%
%TO.N,+5V*%
X104000000Y-99750000D03*
%TD*%
D11*
%TO.P,U3,1,B12_1*%
%TO.N,unconnected-(U3-B12-Pad1)*%
X134000000Y-71460000D03*
%TO.P,U3,2,B13_2*%
%TO.N,unconnected-(U3-B13-Pad2)*%
X134000000Y-74000000D03*
%TO.P,U3,3,B14_3*%
%TO.N,unconnected-(U3-B14-Pad3)*%
X134000000Y-76540000D03*
%TO.P,U3,4,B15_4*%
%TO.N,unconnected-(U3-B15-Pad4)*%
X134000000Y-79080000D03*
%TO.P,U3,5,A8_5*%
%TO.N,unconnected-(U3-A8-Pad5)*%
X134000000Y-81620000D03*
%TO.P,U3,6,A9_6*%
%TO.N,unconnected-(U3-A9-Pad6)*%
X134000000Y-84160000D03*
%TO.P,U3,7,A10_7*%
%TO.N,unconnected-(U3-A10-Pad7)*%
X134000000Y-86700000D03*
%TO.P,U3,8,A11_8*%
%TO.N,/CANRx*%
X134000000Y-89240000D03*
%TO.P,U3,9,A12_9*%
%TO.N,/CANTx*%
X134000000Y-91780000D03*
%TO.P,U3,10,A15_10*%
%TO.N,unconnected-(U3-A15-Pad10)*%
X134000000Y-94320000D03*
%TO.P,U3,11,B3_11*%
%TO.N,unconnected-(U3-B3-Pad11)*%
X134000000Y-96860000D03*
%TO.P,U3,12,B4_12*%
%TO.N,unconnected-(U3-B4-Pad12)*%
X134000000Y-99400000D03*
%TO.P,U3,13,1B5_13*%
%TO.N,unconnected-(U3-1B5-Pad13)*%
X134000000Y-101940000D03*
%TO.P,U3,14,B6_14*%
%TO.N,/Acc SCL*%
X134000000Y-104480000D03*
%TO.P,U3,15,B7_15*%
%TO.N,/Acc SDA*%
X134000000Y-107020000D03*
%TO.P,U3,16,B8_16*%
%TO.N,unconnected-(U3-B8-Pad16)*%
X134000000Y-109560000D03*
%TO.P,U3,17,B9_17*%
%TO.N,unconnected-(U3-B9-Pad17)*%
X134000000Y-112100000D03*
%TO.P,U3,18,5V_18*%
%TO.N,+5V*%
X134000000Y-114640000D03*
%TO.P,U3,19,G_19*%
%TO.N,/GND*%
X134000000Y-117180000D03*
%TO.P,U3,20,3V3_20*%
%TO.N,unconnected-(U3-3V3-Pad20)*%
X134000000Y-119720000D03*
%TO.P,U3,21,VB_21*%
%TO.N,unconnected-(U3-VB-Pad21)*%
X149240000Y-119720000D03*
%TO.P,U3,22,C13_22*%
%TO.N,unconnected-(U3-C13-Pad22)*%
X149240000Y-117180000D03*
%TO.P,U3,23,C14_23*%
%TO.N,unconnected-(U3-C14-Pad23)*%
X149240000Y-114640000D03*
%TO.P,U3,24,C15_24*%
%TO.N,unconnected-(U3-C15-Pad24)*%
X149240000Y-112100000D03*
%TO.P,U3,25,A0_25*%
%TO.N,Net-(U3-A0)*%
X149240000Y-109560000D03*
%TO.P,U3,26,A1_26*%
%TO.N,Net-(U3-A1)*%
X149240000Y-107020000D03*
%TO.P,U3,27,A2_27*%
%TO.N,Net-(U3-A2)*%
X149240000Y-104480000D03*
%TO.P,U3,28,A3_28*%
%TO.N,Net-(U3-A3)*%
X149240000Y-101940000D03*
%TO.P,U3,29,A4_29*%
%TO.N,/Current_0-3V3*%
X149240000Y-99400000D03*
%TO.P,U3,30,A5_30*%
%TO.N,unconnected-(U3-A5-Pad30)*%
X149240000Y-96860000D03*
%TO.P,U3,31,A6_31*%
%TO.N,unconnected-(U3-A6-Pad31)*%
X149240000Y-94320000D03*
%TO.P,U3,32,A7_32*%
%TO.N,/ExtraDigital*%
X149240000Y-91780000D03*
%TO.P,U3,33,B0_33*%
%TO.N,Net-(D4-A)*%
X149240000Y-89240000D03*
%TO.P,U3,34,B1_34*%
%TO.N,Net-(D3-A)*%
X149240000Y-86700000D03*
%TO.P,U3,35,B10_35*%
%TO.N,Net-(D2-A)*%
X149240000Y-84160000D03*
%TO.P,U3,36,B11_36*%
%TO.N,unconnected-(U3-B11-Pad36)*%
X149240000Y-81620000D03*
%TO.P,U3,37,R_37*%
%TO.N,unconnected-(U3-R-Pad37)*%
X149240000Y-79080000D03*
%TO.P,U3,38,3V3_38*%
%TO.N,/+3.3V*%
X149240000Y-76540000D03*
%TO.P,U3,39,G_39*%
%TO.N,/GND*%
X149240000Y-74000000D03*
%TO.P,U3,40,G_40*%
X149240000Y-71460000D03*
%TD*%
D12*
%TO.P,U1,1,Vin_1*%
%TO.N,/+3.3V*%
X110870000Y-108550000D03*
D13*
%TO.P,U1,2,GND_2*%
%TO.N,/GND*%
X113410000Y-108550000D03*
%TO.P,U1,3,3Vo_3*%
%TO.N,unconnected-(U1-3Vo-Pad3)*%
X115950000Y-108550000D03*
%TO.P,U1,4,I2_4*%
%TO.N,unconnected-(U1-I2-Pad4)*%
X118490000Y-108550000D03*
%TO.P,U1,5,I1_5*%
%TO.N,unconnected-(U1-I1-Pad5)*%
X121030000Y-108550000D03*
%TO.P,U1,6,SCL_6*%
%TO.N,/Acc SCL*%
X123570000Y-108550000D03*
%TO.P,U1,7,SDA_7*%
%TO.N,/Acc SDA*%
X126110000Y-108550000D03*
%TO.P,U1,8,A_8*%
%TO.N,unconnected-(U1-A-Pad8)*%
X128650000Y-108550000D03*
D14*
%TO.P,U1,P1*%
%TO.N,N/C*%
X127380000Y-121250000D03*
%TO.P,U1,P2*%
X112140000Y-121250000D03*
%TD*%
D15*
%TO.P,J2,1,1_1*%
%TO.N,/CAN Lo*%
X103950000Y-85400000D03*
%TO.P,J2,2,2_2*%
%TO.N,/CAN Hi*%
X103950000Y-87900000D03*
%TO.P,J2,3,3_3*%
%TO.N,/GND*%
X103950000Y-90400000D03*
%TO.P,J2,4,4_4*%
%TO.N,/CurrentSense*%
X103950000Y-92900000D03*
%TD*%
D16*
%TO.N,/FRHallEffect*%
X145940000Y-92860000D03*
%TO.N,/FLHallEffect*%
X143190000Y-90460000D03*
%TO.N,/Brake P Input (12V)*%
X140390000Y-88160000D03*
%TO.N,/+3.3V*%
X111525850Y-77605000D03*
%TO.N,/GND*%
X127050000Y-87650000D03*
X113650000Y-92700000D03*
X145890000Y-117672500D03*
X124350000Y-102000000D03*
X143890000Y-110522500D03*
X113400000Y-112050000D03*
X124900000Y-76650000D03*
X127950000Y-79450000D03*
X109600000Y-83600000D03*
X116200000Y-102000000D03*
X130650000Y-82500000D03*
X144690000Y-99960000D03*
X117650000Y-86950000D03*
X110550000Y-90750000D03*
X126150000Y-111900000D03*
X119050000Y-76400000D03*
X130650000Y-76650000D03*
X141240000Y-104972500D03*
%TO.N,/Current_0-3V3*%
X119250000Y-103200000D03*
%TO.N,Net-(IC2-FB)*%
X113100000Y-85800000D03*
X113875000Y-89500000D03*
%TD*%
%TO.N,/ExtraDigital*%
D17*
X149240000Y-91780000D02*
X140360000Y-100660000D01*
X115590000Y-100660000D02*
X140360000Y-100660000D01*
X104000000Y-112250000D02*
X115590000Y-100660000D01*
%TO.N,/FRHallEffect*%
X104000000Y-109750000D02*
X115590000Y-98160000D01*
X115590000Y-98160000D02*
X140640000Y-98160000D01*
X140640000Y-98160000D02*
X145940000Y-92860000D01*
%TO.N,/FLHallEffect*%
X115650000Y-95600000D02*
X138050000Y-95600000D01*
X138050000Y-95600000D02*
X143190000Y-90460000D01*
X104000000Y-107250000D02*
X115650000Y-95600000D01*
%TO.N,/Brake P Input (12V)*%
X104000000Y-104750000D02*
X115700000Y-93050000D01*
X140390000Y-90110000D02*
X140390000Y-88160000D01*
X137450000Y-93050000D02*
X140390000Y-90110000D01*
X115700000Y-93050000D02*
X137450000Y-93050000D01*
%TO.N,/+3.3V*%
D18*
X111525850Y-77605000D02*
X111525850Y-94724150D01*
D19*
X148000000Y-75300000D02*
X149240000Y-76540000D01*
X113830850Y-75300000D02*
X148000000Y-75300000D01*
X111525850Y-77605000D02*
X113830850Y-75300000D01*
D18*
X111525850Y-94724150D02*
X104000000Y-102250000D01*
%TO.N,/Acc SCL*%
D17*
X123600000Y-108550000D02*
X127670000Y-104480000D01*
X123570000Y-108550000D02*
X123600000Y-108550000D01*
X127670000Y-104480000D02*
X134000000Y-104480000D01*
%TO.N,/Acc SDA*%
X131530000Y-107020000D02*
X134000000Y-107020000D01*
X127580000Y-107020000D02*
X131750000Y-107020000D01*
X126110000Y-108550000D02*
X126110000Y-108490000D01*
X126110000Y-108490000D02*
X127580000Y-107020000D01*
%TO.N,/Current_0-3V3*%
X145440000Y-103200000D02*
X119250000Y-103200000D01*
X149240000Y-99400000D02*
X145440000Y-103200000D01*
%TO.N,Net-(IC2-FB)*%
X113100000Y-88725000D02*
X113875000Y-89500000D01*
X113100000Y-85800000D02*
X113100000Y-88725000D01*
%TD*%
%TA.AperFunction,Conductor*%
%TO.N,/GND*%
G36*
X132793974Y-101280185D02*
G01*
X132839729Y-101332989D01*
X132849673Y-101402147D01*
X132837420Y-101440794D01*
X132829997Y-101455361D01*
X132829993Y-101455370D01*
X132768587Y-101644362D01*
X132737500Y-101840639D01*
X132737500Y-102039360D01*
X132768587Y-102235637D01*
X132829993Y-102424628D01*
X132831411Y-102428051D01*
X132838877Y-102497521D01*
X132807600Y-102559999D01*
X132747510Y-102595649D01*
X132716848Y-102599500D01*
X119829766Y-102599500D01*
X119762727Y-102579815D01*
X119760875Y-102578602D01*
X119629185Y-102490609D01*
X119629172Y-102490602D01*
X119483501Y-102430264D01*
X119483489Y-102430261D01*
X119328845Y-102399500D01*
X119328842Y-102399500D01*
X119171158Y-102399500D01*
X119171155Y-102399500D01*
X119016510Y-102430261D01*
X119016498Y-102430264D01*
X118870827Y-102490602D01*
X118870814Y-102490609D01*
X118739711Y-102578210D01*
X118739707Y-102578213D01*
X118628213Y-102689707D01*
X118628210Y-102689711D01*
X118540609Y-102820814D01*
X118540602Y-102820827D01*
X118480264Y-102966498D01*
X118480261Y-102966510D01*
X118449500Y-103121153D01*
X118449500Y-103278846D01*
X118480261Y-103433489D01*
X118480264Y-103433501D01*
X118540602Y-103579172D01*
X118540609Y-103579185D01*
X118628210Y-103710288D01*
X118628213Y-103710292D01*
X118739707Y-103821786D01*
X118739711Y-103821789D01*
X118870814Y-103909390D01*
X118870827Y-103909397D01*
X118949894Y-103942147D01*
X119016503Y-103969737D01*
X119145323Y-103995361D01*
X119171153Y-104000499D01*
X119171156Y-104000500D01*
X119171158Y-104000500D01*
X119328844Y-104000500D01*
X119328845Y-104000499D01*
X119483497Y-103969737D01*
X119629179Y-103909394D01*
X119639178Y-103902713D01*
X119760875Y-103821398D01*
X119827553Y-103800520D01*
X119829766Y-103800500D01*
X127200902Y-103800500D01*
X127267941Y-103820185D01*
X127313696Y-103872989D01*
X127323640Y-103942147D01*
X127294615Y-104005703D01*
X127288583Y-104012181D01*
X127189478Y-104111286D01*
X124000979Y-107299784D01*
X123939656Y-107333269D01*
X123874980Y-107330034D01*
X123863765Y-107326390D01*
X123668736Y-107295500D01*
X123668731Y-107295500D01*
X123471269Y-107295500D01*
X123471264Y-107295500D01*
X123276236Y-107326389D01*
X123088441Y-107387408D01*
X122912495Y-107477058D01*
X122752753Y-107593115D01*
X122613115Y-107732753D01*
X122497058Y-107892495D01*
X122497056Y-107892499D01*
X122416805Y-108050000D01*
X122410485Y-108062403D01*
X122362510Y-108113199D01*
X122294689Y-108129994D01*
X122228554Y-108107456D01*
X122189515Y-108062403D01*
X122102944Y-107892499D01*
X122077159Y-107857009D01*
X121986884Y-107732753D01*
X121847246Y-107593115D01*
X121687504Y-107477058D01*
X121687503Y-107477057D01*
X121687501Y-107477056D01*
X121511561Y-107387409D01*
X121473715Y-107375112D01*
X121323763Y-107326389D01*
X121128736Y-107295500D01*
X121128731Y-107295500D01*
X120931269Y-107295500D01*
X120931264Y-107295500D01*
X120736236Y-107326389D01*
X120548441Y-107387408D01*
X120372495Y-107477058D01*
X120212753Y-107593115D01*
X120073115Y-107732753D01*
X119957058Y-107892495D01*
X119957056Y-107892499D01*
X119876805Y-108050000D01*
X119870485Y-108062403D01*
X119822510Y-108113199D01*
X119754689Y-108129994D01*
X119688554Y-108107456D01*
X119649515Y-108062403D01*
X119562944Y-107892499D01*
X119537159Y-107857009D01*
X119446884Y-107732753D01*
X119307246Y-107593115D01*
X119147504Y-107477058D01*
X119147503Y-107477057D01*
X119147501Y-107477056D01*
X118971561Y-107387409D01*
X118933715Y-107375112D01*
X118783763Y-107326389D01*
X118588736Y-107295500D01*
X118588731Y-107295500D01*
X118391269Y-107295500D01*
X118391264Y-107295500D01*
X118196236Y-107326389D01*
X118008441Y-107387408D01*
X117832495Y-107477058D01*
X117672753Y-107593115D01*
X117533115Y-107732753D01*
X117417058Y-107892495D01*
X117417056Y-107892499D01*
X117336805Y-108050000D01*
X117330485Y-108062403D01*
X117282510Y-108113199D01*
X117214689Y-108129994D01*
X117148554Y-108107456D01*
X117109515Y-108062403D01*
X117022944Y-107892499D01*
X116997159Y-107857009D01*
X116906884Y-107732753D01*
X116767246Y-107593115D01*
X116607504Y-107477058D01*
X116607503Y-107477057D01*
X116607501Y-107477056D01*
X116431561Y-107387409D01*
X116393715Y-107375112D01*
X116243763Y-107326389D01*
X116048736Y-107295500D01*
X116048731Y-107295500D01*
X115851269Y-107295500D01*
X115851264Y-107295500D01*
X115656236Y-107326389D01*
X115468441Y-107387408D01*
X115292495Y-107477058D01*
X115132753Y-107593115D01*
X114993115Y-107732753D01*
X114877058Y-107892495D01*
X114877056Y-107892499D01*
X114790203Y-108062954D01*
X114742230Y-108113749D01*
X114674409Y-108130544D01*
X114608274Y-108108006D01*
X114569235Y-108062953D01*
X114482520Y-107892768D01*
X114482512Y-107892755D01*
X114456542Y-107857010D01*
X114456541Y-107857009D01*
X113892962Y-108420589D01*
X113875925Y-108357007D01*
X113810099Y-108242993D01*
X113717007Y-108149901D01*
X113602993Y-108084075D01*
X113539409Y-108067037D01*
X114102989Y-107503457D01*
X114067239Y-107477483D01*
X113891373Y-107387873D01*
X113703646Y-107326876D01*
X113508697Y-107296000D01*
X113311303Y-107296000D01*
X113116353Y-107326876D01*
X112928626Y-107387873D01*
X112752762Y-107477482D01*
X112752760Y-107477483D01*
X112717010Y-107503456D01*
X112717010Y-107503457D01*
X113280591Y-108067037D01*
X113217007Y-108084075D01*
X113102993Y-108149901D01*
X113009901Y-108242993D01*
X112944075Y-108357007D01*
X112927037Y-108420590D01*
X112363457Y-107857010D01*
X112363456Y-107857010D01*
X112348818Y-107877159D01*
X112293489Y-107919826D01*
X112223875Y-107925806D01*
X112162080Y-107893200D01*
X112127722Y-107832362D01*
X112124499Y-107804275D01*
X112124499Y-107748129D01*
X112124498Y-107748123D01*
X112122845Y-107732748D01*
X112118091Y-107688517D01*
X112115546Y-107681694D01*
X112082857Y-107594049D01*
X112067797Y-107553671D01*
X112067793Y-107553664D01*
X111981547Y-107438455D01*
X111981544Y-107438452D01*
X111866335Y-107352206D01*
X111866328Y-107352202D01*
X111731482Y-107301908D01*
X111731483Y-107301908D01*
X111671883Y-107295501D01*
X111671881Y-107295500D01*
X111671873Y-107295500D01*
X111671865Y-107295500D01*
X110103095Y-107295500D01*
X110036056Y-107275815D01*
X109990301Y-107223011D01*
X109980357Y-107153853D01*
X110009382Y-107090297D01*
X110015394Y-107083840D01*
X115802416Y-101296819D01*
X115863739Y-101263334D01*
X115890097Y-101260500D01*
X132726935Y-101260500D01*
X132793974Y-101280185D01*
G37*
%TD.AperFunction*%
%TA.AperFunction,Conductor*%
G36*
X132788879Y-93670185D02*
G01*
X132834634Y-93722989D01*
X132844578Y-93792147D01*
X132832324Y-93830796D01*
X132829996Y-93835363D01*
X132829993Y-93835370D01*
X132768587Y-94024362D01*
X132737500Y-94220639D01*
X132737500Y-94419360D01*
X132768587Y-94615637D01*
X132829993Y-94804629D01*
X132829997Y-94804638D01*
X132837420Y-94819206D01*
X132850316Y-94887875D01*
X132824039Y-94952615D01*
X132766932Y-94992872D01*
X132726935Y-94999500D01*
X115736669Y-94999500D01*
X115736653Y-94999499D01*
X115729057Y-94999499D01*
X115570943Y-94999499D01*
X115463587Y-95028265D01*
X115418210Y-95040424D01*
X115418209Y-95040425D01*
X115368096Y-95069359D01*
X115368095Y-95069360D01*
X115364110Y-95071661D01*
X115281285Y-95119479D01*
X115281282Y-95119481D01*
X105512281Y-104888483D01*
X105450958Y-104921968D01*
X105381266Y-104916984D01*
X105325333Y-104875112D01*
X105300916Y-104809648D01*
X105300600Y-104800802D01*
X105300600Y-104647635D01*
X105268575Y-104445443D01*
X105263907Y-104431076D01*
X105261911Y-104361235D01*
X105294155Y-104305078D01*
X115912417Y-93686819D01*
X115973740Y-93653334D01*
X116000098Y-93650500D01*
X132721840Y-93650500D01*
X132788879Y-93670185D01*
G37*
%TD.AperFunction*%
%TA.AperFunction,Conductor*%
G36*
X132752313Y-75995185D02*
G01*
X132798068Y-76047989D01*
X132808012Y-76117147D01*
X132803205Y-76137818D01*
X132768587Y-76244362D01*
X132737500Y-76440639D01*
X132737500Y-76639360D01*
X132768587Y-76835637D01*
X132829993Y-77024629D01*
X132829994Y-77024632D01*
X132865700Y-77094707D01*
X132920213Y-77201694D01*
X133037019Y-77362464D01*
X133177536Y-77502981D01*
X133338306Y-77619787D01*
X133456832Y-77680179D01*
X133494780Y-77699515D01*
X133545576Y-77747490D01*
X133562371Y-77815311D01*
X133539833Y-77881446D01*
X133494780Y-77920485D01*
X133338305Y-78000213D01*
X133177533Y-78117021D01*
X133037021Y-78257533D01*
X132920213Y-78418305D01*
X132829994Y-78595367D01*
X132829993Y-78595370D01*
X132768587Y-78784362D01*
X132737500Y-78980639D01*
X132737500Y-79179360D01*
X132768587Y-79375637D01*
X132829993Y-79564629D01*
X132829994Y-79564632D01*
X132920213Y-79741694D01*
X133037019Y-79902464D01*
X133177536Y-80042981D01*
X133338306Y-80159787D01*
X133456832Y-80220179D01*
X133494780Y-80239515D01*
X133545576Y-80287490D01*
X133562371Y-80355311D01*
X133539833Y-80421446D01*
X133494780Y-80460485D01*
X133338305Y-80540213D01*
X133177533Y-80657021D01*
X133037021Y-80797533D01*
X132920213Y-80958305D01*
X132829994Y-81135367D01*
X132829993Y-81135370D01*
X132768587Y-81324362D01*
X132737500Y-81520639D01*
X132737500Y-81719360D01*
X132768587Y-81915637D01*
X132829993Y-82104629D01*
X132829994Y-82104632D01*
X132920213Y-82281694D01*
X133037019Y-82442464D01*
X133177536Y-82582981D01*
X133338306Y-82699787D01*
X133456832Y-82760179D01*
X133494780Y-82779515D01*
X133545576Y-82827490D01*
X133562371Y-82895311D01*
X133539833Y-82961446D01*
X133494780Y-83000485D01*
X133338305Y-83080213D01*
X133177533Y-83197021D01*
X133037021Y-83337533D01*
X132920213Y-83498305D01*
X132829994Y-83675367D01*
X132829993Y-83675370D01*
X132768587Y-83864362D01*
X132737500Y-84060639D01*
X132737500Y-84259360D01*
X132768587Y-84455637D01*
X132829993Y-84644629D01*
X132829994Y-84644632D01*
X132920213Y-84821694D01*
X133037019Y-84982464D01*
X133177536Y-85122981D01*
X133338306Y-85239787D01*
X133436279Y-85289707D01*
X133494780Y-85319515D01*
X133545576Y-85367490D01*
X133562371Y-85435311D01*
X133539833Y-85501446D01*
X133494780Y-85540485D01*
X133338305Y-85620213D01*
X133177533Y-85737021D01*
X133037021Y-85877533D01*
X132920213Y-86038305D01*
X132829994Y-86215367D01*
X132829993Y-86215370D01*
X132768587Y-86404362D01*
X132737500Y-86600639D01*
X132737500Y-86799360D01*
X132768587Y-86995637D01*
X132829993Y-87184629D01*
X132829994Y-87184632D01*
X132919095Y-87359500D01*
X132920213Y-87361694D01*
X133037019Y-87522464D01*
X133177536Y-87662981D01*
X133338306Y-87779787D01*
X133369500Y-87795681D01*
X133494780Y-87859515D01*
X133545576Y-87907490D01*
X133562371Y-87975311D01*
X133539833Y-88041446D01*
X133494780Y-88080485D01*
X133338305Y-88160213D01*
X133177533Y-88277021D01*
X133037021Y-88417533D01*
X132920213Y-88578305D01*
X132829994Y-88755367D01*
X132829993Y-88755370D01*
X132768587Y-88944362D01*
X132737500Y-89140639D01*
X132737500Y-89339360D01*
X132768587Y-89535637D01*
X132829993Y-89724629D01*
X132829994Y-89724632D01*
X132893873Y-89850000D01*
X132920213Y-89901694D01*
X133037019Y-90062464D01*
X133177536Y-90202981D01*
X133338306Y-90319787D01*
X133456832Y-90380179D01*
X133494780Y-90399515D01*
X133545576Y-90447490D01*
X133562371Y-90515311D01*
X133539833Y-90581446D01*
X133494780Y-90620485D01*
X133338305Y-90700213D01*
X133177533Y-90817021D01*
X133037021Y-90957533D01*
X132920213Y-91118305D01*
X132829994Y-91295367D01*
X132829993Y-91295370D01*
X132768587Y-91484362D01*
X132737500Y-91680639D01*
X132737500Y-91879360D01*
X132768587Y-92075637D01*
X132829993Y-92264629D01*
X132829996Y-92264636D01*
X132832324Y-92269204D01*
X132845221Y-92337873D01*
X132818945Y-92402614D01*
X132761839Y-92442872D01*
X132721840Y-92449500D01*
X115786670Y-92449500D01*
X115786654Y-92449499D01*
X115779058Y-92449499D01*
X115620943Y-92449499D01*
X115544579Y-92469961D01*
X115468214Y-92490423D01*
X115468209Y-92490426D01*
X115331290Y-92569475D01*
X115331282Y-92569481D01*
X105512281Y-102388483D01*
X105450958Y-102421968D01*
X105381266Y-102416984D01*
X105325333Y-102375112D01*
X105300916Y-102309648D01*
X105300600Y-102300802D01*
X105300600Y-102147635D01*
X105267813Y-101940630D01*
X105269849Y-101940307D01*
X105272882Y-101879180D01*
X105302299Y-101832289D01*
X111924579Y-95210010D01*
X111924583Y-95210008D01*
X112011708Y-95122883D01*
X112045934Y-95071659D01*
X112080162Y-95020436D01*
X112127313Y-94906601D01*
X112151350Y-94785757D01*
X112151350Y-94662543D01*
X112151350Y-86224954D01*
X112171035Y-86157915D01*
X112223839Y-86112160D01*
X112292997Y-86102216D01*
X112356553Y-86131241D01*
X112387383Y-86173997D01*
X112387736Y-86173809D01*
X112389136Y-86176430D01*
X112389912Y-86177505D01*
X112390602Y-86179172D01*
X112390609Y-86179185D01*
X112478602Y-86310874D01*
X112499480Y-86377551D01*
X112499500Y-86379765D01*
X112499500Y-88638330D01*
X112499499Y-88638348D01*
X112499499Y-88804054D01*
X112499498Y-88804054D01*
X112499499Y-88804057D01*
X112540423Y-88956785D01*
X112542562Y-88960490D01*
X112542565Y-88960501D01*
X112542568Y-88960500D01*
X112619477Y-89093712D01*
X112619481Y-89093717D01*
X112738349Y-89212585D01*
X112738355Y-89212590D01*
X113040425Y-89514660D01*
X113073910Y-89575983D01*
X113074361Y-89578149D01*
X113105261Y-89733491D01*
X113105264Y-89733501D01*
X113165602Y-89879172D01*
X113165609Y-89879185D01*
X113253210Y-90010288D01*
X113253213Y-90010292D01*
X113364707Y-90121786D01*
X113364711Y-90121789D01*
X113495814Y-90209390D01*
X113495827Y-90209397D01*
X113641498Y-90269735D01*
X113641503Y-90269737D01*
X113796153Y-90300499D01*
X113796156Y-90300500D01*
X113796158Y-90300500D01*
X113953844Y-90300500D01*
X113953845Y-90300499D01*
X114108497Y-90269737D01*
X114254179Y-90209394D01*
X114385289Y-90121789D01*
X114496789Y-90010289D01*
X114584394Y-89879179D01*
X114644737Y-89733497D01*
X114675500Y-89578842D01*
X114675500Y-89421158D01*
X114675500Y-89421155D01*
X114675499Y-89421153D01*
X114659229Y-89339360D01*
X114644737Y-89266503D01*
X114627753Y-89225500D01*
X114584397Y-89120827D01*
X114584390Y-89120814D01*
X114496789Y-88989711D01*
X114496786Y-88989707D01*
X114385292Y-88878213D01*
X114385288Y-88878210D01*
X114254185Y-88790609D01*
X114254172Y-88790602D01*
X114108501Y-88730264D01*
X114108491Y-88730261D01*
X113953151Y-88699362D01*
X113891241Y-88666977D01*
X113889662Y-88665426D01*
X113736819Y-88512583D01*
X113703334Y-88451260D01*
X113700500Y-88424902D01*
X113700500Y-86379765D01*
X113720185Y-86312726D01*
X113721398Y-86310874D01*
X113809390Y-86179185D01*
X113809390Y-86179184D01*
X113809394Y-86179179D01*
X113811541Y-86173997D01*
X113869735Y-86033501D01*
X113869737Y-86033497D01*
X113900500Y-85878842D01*
X113900500Y-85721158D01*
X113900500Y-85721155D01*
X113900499Y-85721153D01*
X113898358Y-85710389D01*
X113869737Y-85566503D01*
X113842790Y-85501446D01*
X113809397Y-85420827D01*
X113809390Y-85420814D01*
X113721789Y-85289711D01*
X113721786Y-85289707D01*
X113610292Y-85178213D01*
X113610288Y-85178210D01*
X113479185Y-85090609D01*
X113479172Y-85090602D01*
X113333501Y-85030264D01*
X113333489Y-85030261D01*
X113178845Y-84999500D01*
X113178842Y-84999500D01*
X113021158Y-84999500D01*
X113021155Y-84999500D01*
X112866510Y-85030261D01*
X112866498Y-85030264D01*
X112720827Y-85090602D01*
X112720814Y-85090609D01*
X112589711Y-85178210D01*
X112589707Y-85178213D01*
X112478213Y-85289707D01*
X112478210Y-85289711D01*
X112390609Y-85420814D01*
X112390603Y-85420826D01*
X112389910Y-85422500D01*
X112389312Y-85423241D01*
X112387736Y-85426191D01*
X112387176Y-85425891D01*
X112346068Y-85476903D01*
X112279773Y-85498966D01*
X112212074Y-85481686D01*
X112164465Y-85430547D01*
X112151350Y-85375045D01*
X112151350Y-78147350D01*
X112171035Y-78080311D01*
X112172248Y-78078459D01*
X112224530Y-78000213D01*
X112235244Y-77984179D01*
X112295587Y-77838497D01*
X112300150Y-77815552D01*
X112332534Y-77753642D01*
X112334028Y-77752121D01*
X114074332Y-76011819D01*
X114135655Y-75978334D01*
X114162013Y-75975500D01*
X132685274Y-75975500D01*
X132752313Y-75995185D01*
G37*
%TD.AperFunction*%
%TA.AperFunction,Conductor*%
G36*
X147735876Y-75995185D02*
G01*
X147756518Y-76011819D01*
X147961241Y-76216542D01*
X147994726Y-76277865D01*
X147996033Y-76323621D01*
X147977500Y-76440633D01*
X147977500Y-76639360D01*
X148008587Y-76835637D01*
X148069993Y-77024629D01*
X148069994Y-77024632D01*
X148105700Y-77094707D01*
X148160213Y-77201694D01*
X148277019Y-77362464D01*
X148417536Y-77502981D01*
X148578306Y-77619787D01*
X148696832Y-77680179D01*
X148734780Y-77699515D01*
X148785576Y-77747490D01*
X148802371Y-77815311D01*
X148779833Y-77881446D01*
X148734780Y-77920485D01*
X148578305Y-78000213D01*
X148417533Y-78117021D01*
X148277021Y-78257533D01*
X148160213Y-78418305D01*
X148069994Y-78595367D01*
X148069993Y-78595370D01*
X148008587Y-78784362D01*
X147977500Y-78980639D01*
X147977500Y-79179360D01*
X148008587Y-79375637D01*
X148069993Y-79564629D01*
X148069994Y-79564632D01*
X148160213Y-79741694D01*
X148277019Y-79902464D01*
X148417536Y-80042981D01*
X148578306Y-80159787D01*
X148696832Y-80220179D01*
X148734780Y-80239515D01*
X148785576Y-80287490D01*
X148802371Y-80355311D01*
X148779833Y-80421446D01*
X148734780Y-80460485D01*
X148578305Y-80540213D01*
X148417533Y-80657021D01*
X148277021Y-80797533D01*
X148160213Y-80958305D01*
X148069994Y-81135367D01*
X148069993Y-81135370D01*
X148008587Y-81324362D01*
X147977500Y-81520639D01*
X147977500Y-81719360D01*
X148008587Y-81915637D01*
X148069993Y-82104629D01*
X148069994Y-82104632D01*
X148160213Y-82281694D01*
X148277019Y-82442464D01*
X148417536Y-82582981D01*
X148578306Y-82699787D01*
X148696832Y-82760179D01*
X148734780Y-82779515D01*
X148785576Y-82827490D01*
X148802371Y-82895311D01*
X148779833Y-82961446D01*
X148734780Y-83000485D01*
X148578305Y-83080213D01*
X148417533Y-83197021D01*
X148277021Y-83337533D01*
X148160213Y-83498305D01*
X148069994Y-83675367D01*
X148069993Y-83675370D01*
X148008587Y-83864362D01*
X147977500Y-84060639D01*
X147977500Y-84259360D01*
X148008587Y-84455637D01*
X148069993Y-84644629D01*
X148069994Y-84644632D01*
X148160213Y-84821694D01*
X148277019Y-84982464D01*
X148417536Y-85122981D01*
X148578306Y-85239787D01*
X148676279Y-85289707D01*
X148734780Y-85319515D01*
X148785576Y-85367490D01*
X148802371Y-85435311D01*
X148779833Y-85501446D01*
X148734780Y-85540485D01*
X148578305Y-85620213D01*
X148417533Y-85737021D01*
X148277021Y-85877533D01*
X148160213Y-86038305D01*
X148069994Y-86215367D01*
X148069993Y-86215370D01*
X148008587Y-86404362D01*
X147977500Y-86600639D01*
X147977500Y-86799360D01*
X148008587Y-86995637D01*
X148069993Y-87184629D01*
X148069994Y-87184632D01*
X148159095Y-87359500D01*
X148160213Y-87361694D01*
X148277019Y-87522464D01*
X148417536Y-87662981D01*
X148578306Y-87779787D01*
X148609500Y-87795681D01*
X148734780Y-87859515D01*
X148785576Y-87907490D01*
X148802371Y-87975311D01*
X148779833Y-88041446D01*
X148734780Y-88080485D01*
X148578305Y-88160213D01*
X148417533Y-88277021D01*
X148277021Y-88417533D01*
X148160213Y-88578305D01*
X148069994Y-88755367D01*
X148069993Y-88755370D01*
X148008587Y-88944362D01*
X147977500Y-89140639D01*
X147977500Y-89339360D01*
X148008587Y-89535637D01*
X148069993Y-89724629D01*
X148069994Y-89724632D01*
X148133873Y-89850000D01*
X148160213Y-89901694D01*
X148277019Y-90062464D01*
X148417536Y-90202981D01*
X148578306Y-90319787D01*
X148696832Y-90380179D01*
X148734780Y-90399515D01*
X148785576Y-90447490D01*
X148802371Y-90515311D01*
X148779833Y-90581446D01*
X148734780Y-90620485D01*
X148578305Y-90700213D01*
X148417533Y-90817021D01*
X148277021Y-90957533D01*
X148160213Y-91118305D01*
X148069994Y-91295367D01*
X148069993Y-91295370D01*
X148008587Y-91484362D01*
X147977500Y-91680639D01*
X147977500Y-91879360D01*
X148008586Y-92075636D01*
X148009131Y-92077903D01*
X148009086Y-92078790D01*
X148009349Y-92080448D01*
X148009000Y-92080503D01*
X148005638Y-92147685D01*
X147976237Y-92194526D01*
X146890656Y-93280107D01*
X146829333Y-93313592D01*
X146759641Y-93308608D01*
X146703708Y-93266736D01*
X146679291Y-93201272D01*
X146688413Y-93144978D01*
X146709737Y-93093497D01*
X146740500Y-92938842D01*
X146740500Y-92781158D01*
X146740500Y-92781155D01*
X146740499Y-92781153D01*
X146709738Y-92626510D01*
X146709738Y-92626508D01*
X146709737Y-92626503D01*
X146686118Y-92569481D01*
X146649397Y-92480827D01*
X146649390Y-92480814D01*
X146561789Y-92349711D01*
X146561786Y-92349707D01*
X146450292Y-92238213D01*
X146450288Y-92238210D01*
X146319185Y-92150609D01*
X146319172Y-92150602D01*
X146173501Y-92090264D01*
X146173489Y-92090261D01*
X146018845Y-92059500D01*
X146018842Y-92059500D01*
X145861158Y-92059500D01*
X145861155Y-92059500D01*
X145706510Y-92090261D01*
X145706498Y-92090264D01*
X145560827Y-92150602D01*
X145560814Y-92150609D01*
X145429711Y-92238210D01*
X145429707Y-92238213D01*
X145318213Y-92349707D01*
X145318210Y-92349711D01*
X145230609Y-92480814D01*
X145230602Y-92480827D01*
X145170264Y-92626498D01*
X145170261Y-92626508D01*
X145139361Y-92781850D01*
X145106976Y-92843761D01*
X145105425Y-92845339D01*
X140427584Y-97523181D01*
X140366261Y-97556666D01*
X140339903Y-97559500D01*
X135262874Y-97559500D01*
X135195835Y-97539815D01*
X135150080Y-97487011D01*
X135140136Y-97417853D01*
X135152390Y-97379204D01*
X135170003Y-97344637D01*
X135170006Y-97344629D01*
X135172219Y-97337815D01*
X135231413Y-97155636D01*
X135262500Y-96959361D01*
X135262500Y-96760639D01*
X135231413Y-96564364D01*
X135170005Y-96375368D01*
X135170003Y-96375365D01*
X135168589Y-96371949D01*
X135161123Y-96302479D01*
X135192400Y-96240001D01*
X135252490Y-96204351D01*
X135283152Y-96200500D01*
X137963331Y-96200500D01*
X137963347Y-96200501D01*
X137970943Y-96200501D01*
X138129054Y-96200501D01*
X138129057Y-96200501D01*
X138281785Y-96159577D01*
X138331904Y-96130639D01*
X138418716Y-96080520D01*
X138530520Y-95968716D01*
X138530520Y-95968714D01*
X138540728Y-95958507D01*
X138540729Y-95958504D01*
X143204664Y-91294571D01*
X143265985Y-91261088D01*
X143268152Y-91260637D01*
X143268841Y-91260500D01*
X143268842Y-91260500D01*
X143423497Y-91229737D01*
X143569179Y-91169394D01*
X143700289Y-91081789D01*
X143811789Y-90970289D01*
X143899394Y-90839179D01*
X143959737Y-90693497D01*
X143990500Y-90538842D01*
X143990500Y-90381158D01*
X143990500Y-90381155D01*
X143990499Y-90381153D01*
X143959738Y-90226510D01*
X143959738Y-90226508D01*
X143959737Y-90226503D01*
X143949993Y-90202978D01*
X143899397Y-90080827D01*
X143899390Y-90080814D01*
X143811789Y-89949711D01*
X143811786Y-89949707D01*
X143700292Y-89838213D01*
X143700288Y-89838210D01*
X143569185Y-89750609D01*
X143569172Y-89750602D01*
X143423501Y-89690264D01*
X143423489Y-89690261D01*
X143268845Y-89659500D01*
X143268842Y-89659500D01*
X143111158Y-89659500D01*
X143111155Y-89659500D01*
X142956510Y-89690261D01*
X142956498Y-89690264D01*
X142810827Y-89750602D01*
X142810814Y-89750609D01*
X142679711Y-89838210D01*
X142679707Y-89838213D01*
X142568213Y-89949707D01*
X142568210Y-89949711D01*
X142480609Y-90080814D01*
X142480602Y-90080827D01*
X142420264Y-90226498D01*
X142420261Y-90226508D01*
X142389362Y-90381848D01*
X142356977Y-90443759D01*
X142355426Y-90445337D01*
X137837584Y-94963181D01*
X137776261Y-94996666D01*
X137749903Y-94999500D01*
X135273065Y-94999500D01*
X135206026Y-94979815D01*
X135160271Y-94927011D01*
X135150327Y-94857853D01*
X135162580Y-94819206D01*
X135170002Y-94804638D01*
X135170006Y-94804629D01*
X135172219Y-94797815D01*
X135231413Y-94615636D01*
X135262500Y-94419361D01*
X135262500Y-94220639D01*
X135231413Y-94024364D01*
X135200709Y-93929866D01*
X135170006Y-93835370D01*
X135170003Y-93835363D01*
X135167676Y-93830796D01*
X135154779Y-93762127D01*
X135181055Y-93697386D01*
X135238161Y-93657128D01*
X135278160Y-93650500D01*
X137363331Y-93650500D01*
X137363347Y-93650501D01*
X137370943Y-93650501D01*
X137529054Y-93650501D01*
X137529057Y-93650501D01*
X137681785Y-93609577D01*
X137731904Y-93580639D01*
X137818716Y-93530520D01*
X137930520Y-93418716D01*
X137930520Y-93418714D01*
X137940728Y-93408507D01*
X137940730Y-93408504D01*
X140748506Y-90600728D01*
X140748511Y-90600724D01*
X140758714Y-90590520D01*
X140758716Y-90590520D01*
X140870520Y-90478716D01*
X140926969Y-90380942D01*
X140949577Y-90341785D01*
X140990501Y-90189057D01*
X140990501Y-90030943D01*
X140990501Y-90023348D01*
X140990500Y-90023330D01*
X140990500Y-88739765D01*
X141010185Y-88672726D01*
X141011398Y-88670874D01*
X141099390Y-88539185D01*
X141099390Y-88539184D01*
X141099394Y-88539179D01*
X141159737Y-88393497D01*
X141190500Y-88238842D01*
X141190500Y-88081158D01*
X141190500Y-88081155D01*
X141190499Y-88081153D01*
X141190366Y-88080485D01*
X141159737Y-87926503D01*
X141131990Y-87859515D01*
X141099397Y-87780827D01*
X141099390Y-87780814D01*
X141011789Y-87649711D01*
X141011786Y-87649707D01*
X140900292Y-87538213D01*
X140900288Y-87538210D01*
X140769185Y-87450609D01*
X140769172Y-87450602D01*
X140623501Y-87390264D01*
X140623489Y-87390261D01*
X140468845Y-87359500D01*
X140468842Y-87359500D01*
X140311158Y-87359500D01*
X140311155Y-87359500D01*
X140156510Y-87390261D01*
X140156498Y-87390264D01*
X140010827Y-87450602D01*
X140010814Y-87450609D01*
X139879711Y-87538210D01*
X139879707Y-87538213D01*
X139768213Y-87649707D01*
X139768210Y-87649711D01*
X139680609Y-87780814D01*
X139680602Y-87780827D01*
X139620264Y-87926498D01*
X139620261Y-87926510D01*
X139589500Y-88081153D01*
X139589500Y-88238846D01*
X139620261Y-88393489D01*
X139620264Y-88393501D01*
X139680602Y-88539172D01*
X139680609Y-88539185D01*
X139768602Y-88670874D01*
X139789480Y-88737551D01*
X139789500Y-88739765D01*
X139789500Y-89809903D01*
X139769815Y-89876942D01*
X139753181Y-89897584D01*
X137237584Y-92413181D01*
X137176261Y-92446666D01*
X137149903Y-92449500D01*
X135278160Y-92449500D01*
X135211121Y-92429815D01*
X135165366Y-92377011D01*
X135155422Y-92307853D01*
X135167676Y-92269204D01*
X135170003Y-92264636D01*
X135170006Y-92264629D01*
X135178590Y-92238210D01*
X135231413Y-92075636D01*
X135262500Y-91879361D01*
X135262500Y-91680639D01*
X135231413Y-91484364D01*
X135170005Y-91295368D01*
X135170005Y-91295367D01*
X135105816Y-91169390D01*
X135079787Y-91118306D01*
X134962981Y-90957536D01*
X134822464Y-90817019D01*
X134661694Y-90700213D01*
X134505218Y-90620484D01*
X134454423Y-90572510D01*
X134437628Y-90504689D01*
X134460165Y-90438554D01*
X134505218Y-90399515D01*
X134661694Y-90319787D01*
X134822464Y-90202981D01*
X134962981Y-90062464D01*
X135079787Y-89901694D01*
X135170005Y-89724632D01*
X135231413Y-89535636D01*
X135262500Y-89339361D01*
X135262500Y-89140639D01*
X135231413Y-88944364D01*
X135185824Y-88804054D01*
X135170006Y-88755370D01*
X135170005Y-88755367D01*
X135079786Y-88578305D01*
X135051364Y-88539185D01*
X134962981Y-88417536D01*
X134822464Y-88277019D01*
X134661694Y-88160213D01*
X134505218Y-88080484D01*
X134454423Y-88032510D01*
X134437628Y-87964689D01*
X134460165Y-87898554D01*
X134505218Y-87859515D01*
X134661694Y-87779787D01*
X134822464Y-87662981D01*
X134962981Y-87522464D01*
X135079787Y-87361694D01*
X135170005Y-87184632D01*
X135231413Y-86995636D01*
X135262500Y-86799361D01*
X135262500Y-86600639D01*
X135231413Y-86404364D01*
X135170005Y-86215368D01*
X135170005Y-86215367D01*
X135079786Y-86038305D01*
X135076287Y-86033489D01*
X134962981Y-85877536D01*
X134822464Y-85737019D01*
X134661694Y-85620213D01*
X134505218Y-85540484D01*
X134454423Y-85492510D01*
X134437628Y-85424689D01*
X134460165Y-85358554D01*
X134505218Y-85319515D01*
X134661694Y-85239787D01*
X134822464Y-85122981D01*
X134962981Y-84982464D01*
X135079787Y-84821694D01*
X135170005Y-84644632D01*
X135231413Y-84455636D01*
X135262500Y-84259361D01*
X135262500Y-84060639D01*
X135231413Y-83864364D01*
X135170005Y-83675368D01*
X135170005Y-83675367D01*
X135079786Y-83498305D01*
X134997684Y-83385301D01*
X134962981Y-83337536D01*
X134822464Y-83197019D01*
X134661694Y-83080213D01*
X134505218Y-83000484D01*
X134454423Y-82952510D01*
X134437628Y-82884689D01*
X134460165Y-82818554D01*
X134505218Y-82779515D01*
X134661694Y-82699787D01*
X134822464Y-82582981D01*
X134962981Y-82442464D01*
X135079787Y-82281694D01*
X135170005Y-82104632D01*
X135231413Y-81915636D01*
X135262500Y-81719361D01*
X135262500Y-81520639D01*
X135231413Y-81324364D01*
X135170005Y-81135368D01*
X135170005Y-81135367D01*
X135079786Y-80958305D01*
X134962981Y-80797536D01*
X134822464Y-80657019D01*
X134661694Y-80540213D01*
X134505218Y-80460484D01*
X134454423Y-80412510D01*
X134437628Y-80344689D01*
X134460165Y-80278554D01*
X134505218Y-80239515D01*
X134661694Y-80159787D01*
X134822464Y-80042981D01*
X134962981Y-79902464D01*
X135079787Y-79741694D01*
X135170005Y-79564632D01*
X135231413Y-79375636D01*
X135262500Y-79179361D01*
X135262500Y-78980639D01*
X135231413Y-78784364D01*
X135170005Y-78595368D01*
X135170005Y-78595367D01*
X135079786Y-78418305D01*
X134962981Y-78257536D01*
X134822464Y-78117019D01*
X134661694Y-78000213D01*
X134505218Y-77920484D01*
X134454423Y-77872510D01*
X134437628Y-77804689D01*
X134460165Y-77738554D01*
X134505218Y-77699515D01*
X134661694Y-77619787D01*
X134822464Y-77502981D01*
X134962981Y-77362464D01*
X135079787Y-77201694D01*
X135170005Y-77024632D01*
X135231413Y-76835636D01*
X135262500Y-76639361D01*
X135262500Y-76440639D01*
X135231413Y-76244364D01*
X135218643Y-76205062D01*
X135196795Y-76137818D01*
X135194800Y-76067976D01*
X135230881Y-76008144D01*
X135293582Y-75977316D01*
X135314726Y-75975500D01*
X147668837Y-75975500D01*
X147735876Y-75995185D01*
G37*
%TD.AperFunction*%
%TA.AperFunction,Conductor*%
G36*
X157892539Y-68420185D02*
G01*
X157938294Y-68472989D01*
X157949500Y-68524500D01*
X157949500Y-127425500D01*
X157929815Y-127492539D01*
X157877011Y-127538294D01*
X157825500Y-127549500D01*
X99124500Y-127549500D01*
X99057461Y-127529815D01*
X99011706Y-127477011D01*
X99000500Y-127425500D01*
X99000500Y-123764032D01*
X100927306Y-123764032D01*
X100927306Y-123935967D01*
X100960845Y-124104578D01*
X100960847Y-124104586D01*
X101026641Y-124263427D01*
X101026641Y-124263428D01*
X101122154Y-124406373D01*
X101122160Y-124406381D01*
X101243724Y-124527945D01*
X101243732Y-124527951D01*
X101386677Y-124623464D01*
X101433201Y-124642735D01*
X101545520Y-124689259D01*
X101714138Y-124722799D01*
X101714142Y-124722800D01*
X101714143Y-124722800D01*
X101886070Y-124722800D01*
X101886071Y-124722799D01*
X102054692Y-124689259D01*
X102213532Y-124623465D01*
X102213533Y-124623464D01*
X102213534Y-124623464D01*
X102284528Y-124576026D01*
X102356484Y-124527948D01*
X102478054Y-124406378D01*
X102482835Y-124399223D01*
X152699500Y-124399223D01*
X152699500Y-124700776D01*
X152699501Y-124700793D01*
X152738861Y-124999766D01*
X152816913Y-125291060D01*
X152932314Y-125569661D01*
X152932318Y-125569671D01*
X153083099Y-125830831D01*
X153266679Y-126070078D01*
X153266685Y-126070085D01*
X153479914Y-126283314D01*
X153479921Y-126283320D01*
X153719168Y-126466900D01*
X153980328Y-126617681D01*
X153980329Y-126617681D01*
X153980332Y-126617683D01*
X154166072Y-126694619D01*
X154258939Y-126733086D01*
X154258940Y-126733086D01*
X154258942Y-126733087D01*
X154550232Y-126811138D01*
X154849217Y-126850500D01*
X154849224Y-126850500D01*
X155150776Y-126850500D01*
X155150783Y-126850500D01*
X155449768Y-126811138D01*
X155741058Y-126733087D01*
X156019668Y-126617683D01*
X156280832Y-126466900D01*
X156520080Y-126283319D01*
X156733319Y-126070080D01*
X156916900Y-125830832D01*
X157067683Y-125569668D01*
X157183087Y-125291058D01*
X157261138Y-124999768D01*
X157300500Y-124700783D01*
X157300500Y-124399217D01*
X157261138Y-124100232D01*
X157183087Y-123808942D01*
X157067683Y-123530332D01*
X157055078Y-123508500D01*
X156916900Y-123269168D01*
X156733320Y-123029921D01*
X156733314Y-123029914D01*
X156520085Y-122816685D01*
X156520078Y-122816679D01*
X156280831Y-122633099D01*
X156019671Y-122482318D01*
X156019661Y-122482314D01*
X155741060Y-122366913D01*
X155449766Y-122288861D01*
X155150793Y-122249501D01*
X155150788Y-122249500D01*
X155150783Y-122249500D01*
X154849217Y-122249500D01*
X154849211Y-122249500D01*
X154849206Y-122249501D01*
X154550233Y-122288861D01*
X154258939Y-122366913D01*
X153980338Y-122482314D01*
X153980328Y-122482318D01*
X153719168Y-122633099D01*
X153479921Y-122816679D01*
X153479914Y-122816685D01*
X153266685Y-123029914D01*
X153266679Y-123029921D01*
X153083099Y-123269168D01*
X152932318Y-123530328D01*
X152932314Y-123530338D01*
X152816913Y-123808939D01*
X152738861Y-124100233D01*
X152699501Y-124399206D01*
X152699500Y-124399223D01*
X102482835Y-124399223D01*
X102573571Y-124263426D01*
X102639365Y-124104586D01*
X102672906Y-123935963D01*
X102672906Y-123764037D01*
X102639365Y-123595414D01*
X102573571Y-123436574D01*
X102573570Y-123436572D01*
X102573570Y-123436571D01*
X102478057Y-123293626D01*
X102478051Y-123293618D01*
X102356487Y-123172054D01*
X102356479Y-123172048D01*
X102213534Y-123076535D01*
X102054692Y-123010741D01*
X102054684Y-123010739D01*
X101886073Y-122977200D01*
X101886069Y-122977200D01*
X101714143Y-122977200D01*
X101714138Y-122977200D01*
X101545527Y-123010739D01*
X101545519Y-123010741D01*
X101386678Y-123076535D01*
X101386677Y-123076535D01*
X101243732Y-123172048D01*
X101243724Y-123172054D01*
X101122160Y-123293618D01*
X101122154Y-123293626D01*
X101026641Y-123436571D01*
X101026641Y-123436572D01*
X100960847Y-123595413D01*
X100960845Y-123595421D01*
X100927306Y-123764032D01*
X99000500Y-123764032D01*
X99000500Y-99647635D01*
X102699400Y-99647635D01*
X102699400Y-99852364D01*
X102731425Y-100054559D01*
X102794684Y-100249254D01*
X102794685Y-100249257D01*
X102887627Y-100431663D01*
X103007958Y-100597284D01*
X103152716Y-100742042D01*
X103318337Y-100862373D01*
X103318339Y-100862374D01*
X103371606Y-100889516D01*
X103422401Y-100937491D01*
X103439196Y-101005312D01*
X103416658Y-101071446D01*
X103371606Y-101110484D01*
X103318339Y-101137625D01*
X103245372Y-101190639D01*
X103152716Y-101257958D01*
X103152714Y-101257960D01*
X103152713Y-101257960D01*
X103007960Y-101402713D01*
X103007960Y-101402714D01*
X103007958Y-101402716D01*
X102980293Y-101440794D01*
X102887627Y-101568336D01*
X102794685Y-101750742D01*
X102794684Y-101750745D01*
X102731425Y-101945440D01*
X102699400Y-102147635D01*
X102699400Y-102352364D01*
X102731425Y-102554559D01*
X102794684Y-102749254D01*
X102794685Y-102749257D01*
X102873011Y-102902978D01*
X102887627Y-102931663D01*
X103007958Y-103097284D01*
X103152716Y-103242042D01*
X103318337Y-103362373D01*
X103318339Y-103362374D01*
X103371606Y-103389516D01*
X103422401Y-103437491D01*
X103439196Y-103505312D01*
X103416658Y-103571446D01*
X103371606Y-103610484D01*
X103318339Y-103637625D01*
X103259301Y-103680519D01*
X103152716Y-103757958D01*
X103152714Y-103757960D01*
X103152713Y-103757960D01*
X103007960Y-103902713D01*
X103007960Y-103902714D01*
X103007958Y-103902716D01*
X103003104Y-103909397D01*
X102887627Y-104068336D01*
X102794685Y-104250742D01*
X102794684Y-104250745D01*
X102731425Y-104445440D01*
X102699400Y-104647635D01*
X102699400Y-104852364D01*
X102731425Y-105054559D01*
X102794684Y-105249254D01*
X102794685Y-105249257D01*
X102821796Y-105302464D01*
X102887627Y-105431663D01*
X103007958Y-105597284D01*
X103152716Y-105742042D01*
X103318337Y-105862373D01*
X103318339Y-105862374D01*
X103371606Y-105889516D01*
X103422401Y-105937491D01*
X103439196Y-106005312D01*
X103416658Y-106071446D01*
X103371606Y-106110484D01*
X103318339Y-106137625D01*
X103235884Y-106197533D01*
X103152716Y-106257958D01*
X103152714Y-106257960D01*
X103152713Y-106257960D01*
X103007960Y-106402713D01*
X103007960Y-106402714D01*
X103007958Y-106402716D01*
X102995764Y-106419500D01*
X102887627Y-106568336D01*
X102794685Y-106750742D01*
X102794684Y-106750745D01*
X102731425Y-106945440D01*
X102699400Y-107147635D01*
X102699400Y-107352364D01*
X102731425Y-107554559D01*
X102794684Y-107749254D01*
X102794685Y-107749257D01*
X102867670Y-107892495D01*
X102887627Y-107931663D01*
X103007958Y-108097284D01*
X103152716Y-108242042D01*
X103318337Y-108362373D01*
X103318339Y-108362374D01*
X103371606Y-108389516D01*
X103422401Y-108437491D01*
X103439196Y-108505312D01*
X103416658Y-108571446D01*
X103371606Y-108610484D01*
X103318339Y-108637625D01*
X103235526Y-108697792D01*
X103152716Y-108757958D01*
X103152714Y-108757960D01*
X103152713Y-108757960D01*
X103007960Y-108902713D01*
X103007960Y-108902714D01*
X103007958Y-108902716D01*
X103007350Y-108903553D01*
X102887627Y-109068336D01*
X102794685Y-109250742D01*
X102794684Y-109250745D01*
X102731425Y-109445440D01*
X102699400Y-109647635D01*
X102699400Y-109852364D01*
X102731425Y-110054559D01*
X102794684Y-110249254D01*
X102794685Y-110249257D01*
X102887627Y-110431663D01*
X103007958Y-110597284D01*
X103152716Y-110742042D01*
X103318337Y-110862373D01*
X103318339Y-110862374D01*
X103371606Y-110889516D01*
X103422401Y-110937491D01*
X103439196Y-111005312D01*
X103416658Y-111071446D01*
X103371606Y-111110484D01*
X103318339Y-111137625D01*
X103235526Y-111197792D01*
X103152716Y-111257958D01*
X103152714Y-111257960D01*
X103152713Y-111257960D01*
X103007960Y-111402713D01*
X103007960Y-111402714D01*
X103007958Y-111402716D01*
X102956280Y-111473843D01*
X102887627Y-111568336D01*
X102794685Y-111750742D01*
X102794684Y-111750745D01*
X102731425Y-111945440D01*
X102699400Y-112147635D01*
X102699400Y-112352364D01*
X102731425Y-112554559D01*
X102794684Y-112749254D01*
X102794685Y-112749257D01*
X102882940Y-112922464D01*
X102887627Y-112931663D01*
X103007958Y-113097284D01*
X103152716Y-113242042D01*
X103318337Y-113362373D01*
X103318339Y-113362374D01*
X103371606Y-113389516D01*
X103422401Y-113437491D01*
X103439196Y-113505312D01*
X103416658Y-113571446D01*
X103371606Y-113610484D01*
X103318339Y-113637625D01*
X103264116Y-113677021D01*
X103152716Y-113757958D01*
X103152714Y-113757960D01*
X103152713Y-113757960D01*
X103007960Y-113902713D01*
X103007960Y-113902714D01*
X103007958Y-113902716D01*
X102956280Y-113973843D01*
X102887627Y-114068336D01*
X102794685Y-114250742D01*
X102794684Y-114250745D01*
X102731425Y-114445440D01*
X102699400Y-114647635D01*
X102699400Y-114852364D01*
X102731425Y-115054559D01*
X102794684Y-115249254D01*
X102794685Y-115249257D01*
X102887627Y-115431663D01*
X103007958Y-115597284D01*
X103152716Y-115742042D01*
X103318337Y-115862373D01*
X103318339Y-115862374D01*
X103371606Y-115889516D01*
X103422401Y-115937491D01*
X103439196Y-116005312D01*
X103416658Y-116071446D01*
X103371606Y-116110484D01*
X103318339Y-116137625D01*
X103235526Y-116197792D01*
X103152716Y-116257958D01*
X103152714Y-116257960D01*
X103152713Y-116257960D01*
X103007960Y-116402713D01*
X103007960Y-116402714D01*
X103007958Y-116402716D01*
X102956280Y-116473843D01*
X102887627Y-116568336D01*
X102794685Y-116750742D01*
X102794684Y-116750745D01*
X102731425Y-116945440D01*
X102699400Y-117147635D01*
X102699400Y-117352364D01*
X102731425Y-117554559D01*
X102794684Y-117749254D01*
X102794685Y-117749257D01*
X102860649Y-117878716D01*
X102887627Y-117931663D01*
X103007958Y-118097284D01*
X103152716Y-118242042D01*
X103318337Y-118362373D01*
X103318339Y-118362374D01*
X103371606Y-118389516D01*
X103422401Y-118437491D01*
X103439196Y-118505312D01*
X103416658Y-118571446D01*
X103371606Y-118610484D01*
X103318339Y-118637625D01*
X103235526Y-118697792D01*
X103152716Y-118757958D01*
X103152714Y-118757960D01*
X103152713Y-118757960D01*
X103007960Y-118902713D01*
X103007960Y-118902714D01*
X103007958Y-118902716D01*
X102956280Y-118973843D01*
X102887627Y-119068336D01*
X102794685Y-119250742D01*
X102794684Y-119250745D01*
X102731425Y-119445440D01*
X102699400Y-119647635D01*
X102699400Y-119852364D01*
X102731425Y-120054559D01*
X102794684Y-120249254D01*
X102794685Y-120249257D01*
X102862166Y-120381694D01*
X102887627Y-120431663D01*
X103007958Y-120597284D01*
X103152716Y-120742042D01*
X103318337Y-120862373D01*
X103318339Y-120862374D01*
X103371606Y-120889516D01*
X103422401Y-120937491D01*
X103439196Y-121005312D01*
X103416658Y-121071446D01*
X103371606Y-121110484D01*
X103318339Y-121137625D01*
X103235526Y-121197792D01*
X103152716Y-121257958D01*
X103152714Y-121257960D01*
X103152713Y-121257960D01*
X103007960Y-121402713D01*
X103007960Y-121402714D01*
X103007958Y-121402716D01*
X102956280Y-121473843D01*
X102887627Y-121568336D01*
X102794685Y-121750742D01*
X102794684Y-121750745D01*
X102731425Y-121945440D01*
X102699400Y-122147635D01*
X102699400Y-122352364D01*
X102731425Y-122554559D01*
X102794684Y-122749254D01*
X102794685Y-122749257D01*
X102829039Y-122816679D01*
X102887627Y-122931663D01*
X103007958Y-123097284D01*
X103152716Y-123242042D01*
X103318337Y-123362373D01*
X103378891Y-123393227D01*
X103500742Y-123455314D01*
X103500745Y-123455315D01*
X103598092Y-123486944D01*
X103695442Y-123518575D01*
X103789089Y-123533407D01*
X103897636Y-123550600D01*
X103897641Y-123550600D01*
X104102364Y-123550600D01*
X104200385Y-123535074D01*
X104304558Y-123518575D01*
X104499257Y-123455314D01*
X104681663Y-123362373D01*
X104847284Y-123242042D01*
X104992042Y-123097284D01*
X105112373Y-122931663D01*
X105205314Y-122749257D01*
X105268575Y-122554558D01*
X105285074Y-122450385D01*
X105300600Y-122352364D01*
X105300600Y-122147635D01*
X105273656Y-121977522D01*
X105268575Y-121945442D01*
X105205314Y-121750743D01*
X105205314Y-121750742D01*
X105112372Y-121568336D01*
X104992042Y-121402716D01*
X104847284Y-121257958D01*
X104681663Y-121137627D01*
X104623023Y-121107748D01*
X104617935Y-121104498D01*
X104615725Y-121101962D01*
X109881500Y-121101962D01*
X109881500Y-121398037D01*
X109913685Y-121642503D01*
X109920144Y-121691557D01*
X109996769Y-121977529D01*
X110109424Y-122249500D01*
X110110070Y-122251059D01*
X110110071Y-122251060D01*
X110258096Y-122507447D01*
X110438324Y-122742326D01*
X110438330Y-122742333D01*
X110647666Y-122951669D01*
X110647673Y-122951675D01*
X110882552Y-123131903D01*
X111138939Y-123279928D01*
X111138940Y-123279929D01*
X111138943Y-123279930D01*
X111138948Y-123279933D01*
X111412471Y-123393231D01*
X111698443Y-123469856D01*
X111991970Y-123508500D01*
X111991977Y-123508500D01*
X112288023Y-123508500D01*
X112288030Y-123508500D01*
X112581557Y-123469856D01*
X112867529Y-123393231D01*
X113141052Y-123279933D01*
X113397448Y-123131903D01*
X113632328Y-122951674D01*
X113841674Y-122742328D01*
X114021903Y-122507448D01*
X114169933Y-122251052D01*
X114283231Y-121977529D01*
X114359856Y-121691557D01*
X114398500Y-121398030D01*
X114398500Y-121101970D01*
X114398499Y-121101962D01*
X125121500Y-121101962D01*
X125121500Y-121398037D01*
X125153685Y-121642503D01*
X125160144Y-121691557D01*
X125236769Y-121977529D01*
X125349424Y-122249500D01*
X125350070Y-122251059D01*
X125350071Y-122251060D01*
X125498096Y-122507447D01*
X125678324Y-122742326D01*
X125678330Y-122742333D01*
X125887666Y-122951669D01*
X125887673Y-122951675D01*
X126122552Y-123131903D01*
X126378939Y-123279928D01*
X126378940Y-123279929D01*
X126378943Y-123279930D01*
X126378948Y-123279933D01*
X126652471Y-123393231D01*
X126938443Y-123469856D01*
X127231970Y-123508500D01*
X127231977Y-123508500D01*
X127528023Y-123508500D01*
X127528030Y-123508500D01*
X127821557Y-123469856D01*
X128107529Y-123393231D01*
X128381052Y-123279933D01*
X128637448Y-123131903D01*
X128872328Y-122951674D01*
X129081674Y-122742328D01*
X129261903Y-122507448D01*
X129409933Y-122251052D01*
X129523231Y-121977529D01*
X129599856Y-121691557D01*
X129638500Y-121398030D01*
X129638500Y-121101970D01*
X129599856Y-120808443D01*
X129523231Y-120522471D01*
X129409933Y-120248948D01*
X129409930Y-120248943D01*
X129409929Y-120248940D01*
X129409928Y-120248939D01*
X129261903Y-119992552D01*
X129081675Y-119757673D01*
X129081669Y-119757666D01*
X128872333Y-119548330D01*
X128872326Y-119548324D01*
X128637447Y-119368096D01*
X128381060Y-119220071D01*
X128381059Y-119220070D01*
X128381052Y-119220067D01*
X128107529Y-119106769D01*
X127821557Y-119030144D01*
X127772503Y-119023685D01*
X127528037Y-118991500D01*
X127528030Y-118991500D01*
X127231970Y-118991500D01*
X127231962Y-118991500D01*
X126952571Y-119028283D01*
X126938443Y-119030144D01*
X126843119Y-119055685D01*
X126652477Y-119106767D01*
X126652473Y-119106768D01*
X126652471Y-119106769D01*
X126652464Y-119106772D01*
X126378940Y-119220070D01*
X126378939Y-119220071D01*
X126122552Y-119368096D01*
X125887673Y-119548324D01*
X125887666Y-119548330D01*
X125678330Y-119757666D01*
X125678324Y-119757673D01*
X125498096Y-119992552D01*
X125350071Y-120248939D01*
X125350070Y-120248940D01*
X125236772Y-120522464D01*
X125236767Y-120522477D01*
X125193762Y-120682978D01*
X125162464Y-120799787D01*
X125160145Y-120808440D01*
X125160143Y-120808451D01*
X125121500Y-121101962D01*
X114398499Y-121101962D01*
X114359856Y-120808443D01*
X114283231Y-120522471D01*
X114169933Y-120248948D01*
X114169930Y-120248943D01*
X114169929Y-120248940D01*
X114169928Y-120248939D01*
X114021903Y-119992552D01*
X113841675Y-119757673D01*
X113841669Y-119757666D01*
X113632333Y-119548330D01*
X113632326Y-119548324D01*
X113397447Y-119368096D01*
X113141060Y-119220071D01*
X113141059Y-119220070D01*
X113141052Y-119220067D01*
X112867529Y-119106769D01*
X112581557Y-119030144D01*
X112532503Y-119023685D01*
X112288037Y-118991500D01*
X112288030Y-118991500D01*
X111991970Y-118991500D01*
X111991962Y-118991500D01*
X111712571Y-119028283D01*
X111698443Y-119030144D01*
X111603119Y-119055685D01*
X111412477Y-119106767D01*
X111412473Y-119106768D01*
X111412471Y-119106769D01*
X111412464Y-119106772D01*
X111138940Y-119220070D01*
X111138939Y-119220071D01*
X110882552Y-119368096D01*
X110647673Y-119548324D01*
X110647666Y-119548330D01*
X110438330Y-119757666D01*
X110438324Y-119757673D01*
X110258096Y-119992552D01*
X110110071Y-120248939D01*
X110110070Y-120248940D01*
X109996772Y-120522464D01*
X109996767Y-120522477D01*
X109953762Y-120682978D01*
X109922464Y-120799787D01*
X109920145Y-120808440D01*
X109920143Y-120808451D01*
X109881500Y-121101962D01*
X104615725Y-121101962D01*
X104598790Y-121082525D01*
X104577598Y-121062510D01*
X104576107Y-121056492D01*
X104572036Y-121051819D01*
X104567808Y-121022979D01*
X104560803Y-120994689D01*
X104562802Y-120988822D01*
X104561903Y-120982688D01*
X104573940Y-120956138D01*
X104583341Y-120928554D01*
X104588457Y-120924120D01*
X104590755Y-120919053D01*
X104604740Y-120910011D01*
X104628394Y-120889515D01*
X104681663Y-120862373D01*
X104847284Y-120742042D01*
X104992042Y-120597284D01*
X105112373Y-120431663D01*
X105205314Y-120249257D01*
X105268575Y-120054558D01*
X105285074Y-119950385D01*
X105300600Y-119852364D01*
X105300600Y-119647635D01*
X105281969Y-119530008D01*
X105268575Y-119445442D01*
X105205314Y-119250743D01*
X105205314Y-119250742D01*
X105157957Y-119157801D01*
X105112373Y-119068337D01*
X104992042Y-118902716D01*
X104847284Y-118757958D01*
X104681663Y-118637627D01*
X104628393Y-118610484D01*
X104577598Y-118562510D01*
X104560803Y-118494689D01*
X104583341Y-118428554D01*
X104628394Y-118389515D01*
X104632920Y-118387209D01*
X104681663Y-118362373D01*
X104847284Y-118242042D01*
X104992042Y-118097284D01*
X105112373Y-117931663D01*
X105205314Y-117749257D01*
X105268575Y-117554558D01*
X105290847Y-117413940D01*
X105300600Y-117352364D01*
X105300600Y-117147634D01*
X105292296Y-117095203D01*
X105276673Y-116996575D01*
X105268575Y-116945442D01*
X105205314Y-116750743D01*
X105205314Y-116750742D01*
X105112372Y-116568336D01*
X104992042Y-116402716D01*
X104847284Y-116257958D01*
X104681663Y-116137627D01*
X104628393Y-116110484D01*
X104577598Y-116062510D01*
X104560803Y-115994689D01*
X104583341Y-115928554D01*
X104628394Y-115889515D01*
X104681663Y-115862373D01*
X104847284Y-115742042D01*
X104992042Y-115597284D01*
X105112373Y-115431663D01*
X105205314Y-115249257D01*
X105268575Y-115054558D01*
X105287410Y-114935636D01*
X105300600Y-114852364D01*
X105300600Y-114647635D01*
X105281969Y-114530008D01*
X105268575Y-114445442D01*
X105205314Y-114250743D01*
X105205314Y-114250742D01*
X105112372Y-114068336D01*
X105046961Y-113978306D01*
X104992042Y-113902716D01*
X104847284Y-113757958D01*
X104681663Y-113637627D01*
X104628393Y-113610484D01*
X104577598Y-113562510D01*
X104560803Y-113494689D01*
X104583341Y-113428554D01*
X104628394Y-113389515D01*
X104681663Y-113362373D01*
X104847284Y-113242042D01*
X104992042Y-113097284D01*
X105112373Y-112931663D01*
X105205314Y-112749257D01*
X105268575Y-112554558D01*
X105285074Y-112450385D01*
X105300600Y-112352364D01*
X105300600Y-112147635D01*
X105268575Y-111945443D01*
X105263907Y-111931076D01*
X105261911Y-111861235D01*
X105294155Y-111805078D01*
X109403819Y-107695414D01*
X109465142Y-107661930D01*
X109534834Y-107666914D01*
X109590767Y-107708786D01*
X109615184Y-107774250D01*
X109615500Y-107783096D01*
X109615500Y-109351870D01*
X109615501Y-109351876D01*
X109621908Y-109411483D01*
X109672202Y-109546328D01*
X109672206Y-109546335D01*
X109758452Y-109661544D01*
X109758455Y-109661547D01*
X109873664Y-109747793D01*
X109873671Y-109747797D01*
X110008517Y-109798091D01*
X110008516Y-109798091D01*
X110015444Y-109798835D01*
X110068127Y-109804500D01*
X111671872Y-109804499D01*
X111731483Y-109798091D01*
X111866331Y-109747796D01*
X111981546Y-109661546D01*
X112067796Y-109546331D01*
X112082511Y-109506879D01*
X112082858Y-109505949D01*
X112118091Y-109411482D01*
X112124500Y-109351873D01*
X112124499Y-109295723D01*
X112144182Y-109228687D01*
X112196986Y-109182931D01*
X112266144Y-109172987D01*
X112329700Y-109202011D01*
X112348817Y-109222839D01*
X112363457Y-109242988D01*
X112363457Y-109242989D01*
X112927037Y-108679409D01*
X112944075Y-108742993D01*
X113009901Y-108857007D01*
X113102993Y-108950099D01*
X113217007Y-109015925D01*
X113280590Y-109032962D01*
X112717009Y-109596541D01*
X112717010Y-109596542D01*
X112752755Y-109622512D01*
X112752768Y-109622520D01*
X112928626Y-109712126D01*
X113116353Y-109773123D01*
X113311303Y-109804000D01*
X113508697Y-109804000D01*
X113703646Y-109773123D01*
X113891373Y-109712126D01*
X114067241Y-109622516D01*
X114102988Y-109596543D01*
X114102988Y-109596541D01*
X113539410Y-109032962D01*
X113602993Y-109015925D01*
X113717007Y-108950099D01*
X113810099Y-108857007D01*
X113875925Y-108742993D01*
X113892962Y-108679409D01*
X114456541Y-109242988D01*
X114456543Y-109242988D01*
X114482516Y-109207241D01*
X114569235Y-109037046D01*
X114617210Y-108986250D01*
X114685031Y-108969455D01*
X114751165Y-108991992D01*
X114790202Y-109037042D01*
X114859470Y-109172987D01*
X114877058Y-109207505D01*
X114993115Y-109367246D01*
X115132753Y-109506884D01*
X115256158Y-109596541D01*
X115292499Y-109622944D01*
X115468439Y-109712591D01*
X115593637Y-109753270D01*
X115656236Y-109773610D01*
X115851264Y-109804500D01*
X115851269Y-109804500D01*
X116048736Y-109804500D01*
X116243763Y-109773610D01*
X116245262Y-109773123D01*
X116431561Y-109712591D01*
X116607501Y-109622944D01*
X116712955Y-109546328D01*
X116767246Y-109506884D01*
X116767248Y-109506881D01*
X116767252Y-109506879D01*
X116906879Y-109367252D01*
X116906881Y-109367248D01*
X116906884Y-109367246D01*
X117022941Y-109207505D01*
X117022942Y-109207504D01*
X117022944Y-109207501D01*
X117109517Y-109037593D01*
X117157490Y-108986800D01*
X117225311Y-108970005D01*
X117291446Y-108992542D01*
X117330482Y-109037593D01*
X117399470Y-109172987D01*
X117417058Y-109207505D01*
X117533115Y-109367246D01*
X117672753Y-109506884D01*
X117796158Y-109596541D01*
X117832499Y-109622944D01*
X118008439Y-109712591D01*
X118133637Y-109753270D01*
X118196236Y-109773610D01*
X118391264Y-109804500D01*
X118391269Y-109804500D01*
X118588736Y-109804500D01*
X118783763Y-109773610D01*
X118785262Y-109773123D01*
X118971561Y-109712591D01*
X119147501Y-109622944D01*
X119252955Y-109546328D01*
X119307246Y-109506884D01*
X119307248Y-109506881D01*
X119307252Y-109506879D01*
X119446879Y-109367252D01*
X119446881Y-109367248D01*
X119446884Y-109367246D01*
X119562941Y-109207505D01*
X119562942Y-109207504D01*
X119562944Y-109207501D01*
X119649517Y-109037593D01*
X119697490Y-108986800D01*
X119765311Y-108970005D01*
X119831446Y-108992542D01*
X119870482Y-109037593D01*
X119939470Y-109172987D01*
X119957058Y-109207505D01*
X120073115Y-109367246D01*
X120212753Y-109506884D01*
X120336158Y-109596541D01*
X120372499Y-109622944D01*
X120548439Y-109712591D01*
X120673637Y-109753270D01*
X120736236Y-109773610D01*
X120931264Y-109804500D01*
X120931269Y-109804500D01*
X121128736Y-109804500D01*
X121323763Y-109773610D01*
X121325262Y-109773123D01*
X121511561Y-109712591D01*
X121687501Y-109622944D01*
X121792955Y-109546328D01*
X121847246Y-109506884D01*
X121847248Y-109506881D01*
X121847252Y-109506879D01*
X121986879Y-109367252D01*
X121986881Y-109367248D01*
X121986884Y-109367246D01*
X122102941Y-109207505D01*
X122102942Y-109207504D01*
X122102944Y-109207501D01*
X122189517Y-109037593D01*
X122237490Y-108986800D01*
X122305311Y-108970005D01*
X122371446Y-108992542D01*
X122410482Y-109037593D01*
X122479470Y-109172987D01*
X122497058Y-109207505D01*
X122613115Y-109367246D01*
X122752753Y-109506884D01*
X122876158Y-109596541D01*
X122912499Y-109622944D01*
X123088439Y-109712591D01*
X123213637Y-109753270D01*
X123276236Y-109773610D01*
X123471264Y-109804500D01*
X123471269Y-109804500D01*
X123668736Y-109804500D01*
X123863763Y-109773610D01*
X123865262Y-109773123D01*
X124051561Y-109712591D01*
X124227501Y-109622944D01*
X124332955Y-109546328D01*
X124387246Y-109506884D01*
X124387248Y-109506881D01*
X124387252Y-109506879D01*
X124526879Y-109367252D01*
X124526881Y-109367248D01*
X124526884Y-109367246D01*
X124642941Y-109207505D01*
X124642942Y-109207504D01*
X124642944Y-109207501D01*
X124729517Y-109037593D01*
X124777490Y-108986800D01*
X124845311Y-108970005D01*
X124911446Y-108992542D01*
X124950482Y-109037593D01*
X125019470Y-109172987D01*
X125037058Y-109207505D01*
X125153115Y-109367246D01*
X125292753Y-109506884D01*
X125416158Y-109596541D01*
X125452499Y-109622944D01*
X125628439Y-109712591D01*
X125753637Y-109753270D01*
X125816236Y-109773610D01*
X126011264Y-109804500D01*
X126011269Y-109804500D01*
X126208736Y-109804500D01*
X126403763Y-109773610D01*
X126405262Y-109773123D01*
X126591561Y-109712591D01*
X126767501Y-109622944D01*
X126872955Y-109546328D01*
X126927246Y-109506884D01*
X126927248Y-109506881D01*
X126927252Y-109506879D01*
X127066879Y-109367252D01*
X127066881Y-109367248D01*
X127066884Y-109367246D01*
X127182941Y-109207505D01*
X127182942Y-109207504D01*
X127182944Y-109207501D01*
X127269517Y-109037593D01*
X127317490Y-108986800D01*
X127385311Y-108970005D01*
X127451446Y-108992542D01*
X127490482Y-109037593D01*
X127559470Y-109172987D01*
X127577058Y-109207505D01*
X127693115Y-109367246D01*
X127832753Y-109506884D01*
X127956158Y-109596541D01*
X127992499Y-109622944D01*
X128168439Y-109712591D01*
X128293637Y-109753270D01*
X128356236Y-109773610D01*
X128551264Y-109804500D01*
X128551269Y-109804500D01*
X128748736Y-109804500D01*
X128943763Y-109773610D01*
X128945262Y-109773123D01*
X129131561Y-109712591D01*
X129307501Y-109622944D01*
X129412955Y-109546328D01*
X129467246Y-109506884D01*
X129467248Y-109506881D01*
X129467252Y-109506879D01*
X129606879Y-109367252D01*
X129606881Y-109367248D01*
X129606884Y-109367246D01*
X129681632Y-109264362D01*
X129722944Y-109207501D01*
X129812591Y-109031561D01*
X129873610Y-108843763D01*
X129887200Y-108757960D01*
X129904500Y-108648736D01*
X129904500Y-108451263D01*
X129873610Y-108256236D01*
X129825268Y-108107456D01*
X129812591Y-108068439D01*
X129722944Y-107892499D01*
X129668371Y-107817385D01*
X129644892Y-107751578D01*
X129660718Y-107683524D01*
X129710824Y-107634830D01*
X129768690Y-107620500D01*
X131450943Y-107620500D01*
X132813270Y-107620500D01*
X132880309Y-107640185D01*
X132917191Y-107677866D01*
X132917349Y-107677752D01*
X132918127Y-107678823D01*
X132919000Y-107679715D01*
X132920210Y-107681690D01*
X132925169Y-107688516D01*
X133037019Y-107842464D01*
X133177536Y-107982981D01*
X133338306Y-108099787D01*
X133398670Y-108130544D01*
X133494780Y-108179515D01*
X133545576Y-108227490D01*
X133562371Y-108295311D01*
X133539833Y-108361446D01*
X133494780Y-108400485D01*
X133338305Y-108480213D01*
X133177533Y-108597021D01*
X133037021Y-108737533D01*
X132920213Y-108898305D01*
X132829994Y-109075367D01*
X132829993Y-109075370D01*
X132768587Y-109264362D01*
X132737500Y-109460639D01*
X132737500Y-109659360D01*
X132768587Y-109855637D01*
X132829993Y-110044629D01*
X132829994Y-110044632D01*
X132893646Y-110169554D01*
X132920213Y-110221694D01*
X133037019Y-110382464D01*
X133177536Y-110522981D01*
X133338306Y-110639787D01*
X133456832Y-110700179D01*
X133494780Y-110719515D01*
X133545576Y-110767490D01*
X133562371Y-110835311D01*
X133539833Y-110901446D01*
X133494780Y-110940485D01*
X133338305Y-111020213D01*
X133177533Y-111137021D01*
X133037021Y-111277533D01*
X132920213Y-111438305D01*
X132829994Y-111615367D01*
X132829993Y-111615370D01*
X132768587Y-111804362D01*
X132737500Y-112000639D01*
X132737500Y-112199360D01*
X132768587Y-112395637D01*
X132829993Y-112584629D01*
X132829994Y-112584632D01*
X132913874Y-112749254D01*
X132920213Y-112761694D01*
X133037019Y-112922464D01*
X133177536Y-113062981D01*
X133338306Y-113179787D01*
X133456832Y-113240179D01*
X133494780Y-113259515D01*
X133545576Y-113307490D01*
X133562371Y-113375311D01*
X133539833Y-113441446D01*
X133494780Y-113480485D01*
X133338305Y-113560213D01*
X133177533Y-113677021D01*
X133037021Y-113817533D01*
X132920213Y-113978305D01*
X132829994Y-114155367D01*
X132829993Y-114155370D01*
X132768587Y-114344362D01*
X132737500Y-114540639D01*
X132737500Y-114739360D01*
X132768587Y-114935637D01*
X132829993Y-115124629D01*
X132829994Y-115124632D01*
X132893493Y-115249254D01*
X132920213Y-115301694D01*
X133037019Y-115462464D01*
X133177536Y-115602981D01*
X133338306Y-115719787D01*
X133495332Y-115799796D01*
X133546127Y-115847769D01*
X133562922Y-115915590D01*
X133540385Y-115981725D01*
X133495332Y-116020764D01*
X133338566Y-116100641D01*
X133301283Y-116127729D01*
X133301282Y-116127730D01*
X133972554Y-116799000D01*
X133949840Y-116799000D01*
X133852939Y-116824964D01*
X133766060Y-116875124D01*
X133695124Y-116946060D01*
X133644964Y-117032939D01*
X133619000Y-117129840D01*
X133619000Y-117152552D01*
X132947730Y-116481282D01*
X132947729Y-116481283D01*
X132920643Y-116518564D01*
X132830457Y-116695562D01*
X132769075Y-116884476D01*
X132769075Y-116884479D01*
X132738000Y-117080678D01*
X132738000Y-117279321D01*
X132769075Y-117475520D01*
X132769075Y-117475523D01*
X132830457Y-117664437D01*
X132920641Y-117841432D01*
X132947730Y-117878715D01*
X132947731Y-117878716D01*
X133619000Y-117207447D01*
X133619000Y-117230160D01*
X133644964Y-117327061D01*
X133695124Y-117413940D01*
X133766060Y-117484876D01*
X133852939Y-117535036D01*
X133949840Y-117561000D01*
X133972553Y-117561000D01*
X133301283Y-118232268D01*
X133301283Y-118232269D01*
X133338567Y-118259358D01*
X133495331Y-118339234D01*
X133546127Y-118387209D01*
X133562922Y-118455030D01*
X133540384Y-118521165D01*
X133495331Y-118560204D01*
X133338305Y-118640213D01*
X133177533Y-118757021D01*
X133037021Y-118897533D01*
X132920213Y-119058305D01*
X132829994Y-119235367D01*
X132829993Y-119235370D01*
X132768587Y-119424362D01*
X132737500Y-119620639D01*
X132737500Y-119819360D01*
X132768587Y-120015637D01*
X132829993Y-120204629D01*
X132829994Y-120204632D01*
X132920213Y-120381694D01*
X133037019Y-120542464D01*
X133177536Y-120682981D01*
X133338306Y-120799787D01*
X133425149Y-120844035D01*
X133515367Y-120890005D01*
X133515370Y-120890006D01*
X133604769Y-120919053D01*
X133704364Y-120951413D01*
X133900639Y-120982500D01*
X133900640Y-120982500D01*
X134099360Y-120982500D01*
X134099361Y-120982500D01*
X134295636Y-120951413D01*
X134484632Y-120890005D01*
X134661694Y-120799787D01*
X134822464Y-120682981D01*
X134962981Y-120542464D01*
X135079787Y-120381694D01*
X135170005Y-120204632D01*
X135231413Y-120015636D01*
X135262500Y-119819361D01*
X135262500Y-119620639D01*
X135231413Y-119424364D01*
X135200709Y-119329866D01*
X135170006Y-119235370D01*
X135170005Y-119235367D01*
X135084898Y-119068337D01*
X135079787Y-119058306D01*
X134962981Y-118897536D01*
X134822464Y-118757019D01*
X134661694Y-118640213D01*
X134504667Y-118560203D01*
X134453872Y-118512229D01*
X134437077Y-118444408D01*
X134459614Y-118378273D01*
X134504669Y-118339234D01*
X134661422Y-118259364D01*
X134698716Y-118232268D01*
X134027448Y-117561000D01*
X134050160Y-117561000D01*
X134147061Y-117535036D01*
X134233940Y-117484876D01*
X134304876Y-117413940D01*
X134355036Y-117327061D01*
X134381000Y-117230160D01*
X134381000Y-117207447D01*
X135052268Y-117878715D01*
X135079362Y-117841425D01*
X135169542Y-117664437D01*
X135230924Y-117475523D01*
X135230924Y-117475520D01*
X135262000Y-117279321D01*
X135262000Y-117080678D01*
X135230924Y-116884479D01*
X135230924Y-116884476D01*
X135169542Y-116695562D01*
X135079358Y-116518567D01*
X135052268Y-116481283D01*
X134381000Y-117152551D01*
X134381000Y-117129840D01*
X134355036Y-117032939D01*
X134304876Y-116946060D01*
X134233940Y-116875124D01*
X134147061Y-116824964D01*
X134050160Y-116799000D01*
X134027447Y-116799000D01*
X134698716Y-116127731D01*
X134698715Y-116127730D01*
X134661432Y-116100641D01*
X134504668Y-116020765D01*
X134453872Y-115972790D01*
X134437077Y-115904969D01*
X134459615Y-115838834D01*
X134504667Y-115799796D01*
X134661694Y-115719787D01*
X134822464Y-115602981D01*
X134962981Y-115462464D01*
X135079787Y-115301694D01*
X135170005Y-115124632D01*
X135231413Y-114935636D01*
X135262500Y-114739361D01*
X135262500Y-114540639D01*
X135231413Y-114344364D01*
X135170005Y-114155368D01*
X135170005Y-114155367D01*
X135079786Y-113978305D01*
X134962981Y-113817536D01*
X134822464Y-113677019D01*
X134661694Y-113560213D01*
X134505218Y-113480484D01*
X134454423Y-113432510D01*
X134437628Y-113364689D01*
X134460165Y-113298554D01*
X134505218Y-113259515D01*
X134661694Y-113179787D01*
X134822464Y-113062981D01*
X134962981Y-112922464D01*
X135079787Y-112761694D01*
X135170005Y-112584632D01*
X135231413Y-112395636D01*
X135262500Y-112199361D01*
X135262500Y-112000639D01*
X135231413Y-111804364D01*
X135170005Y-111615368D01*
X135170005Y-111615367D01*
X135079786Y-111438305D01*
X135053927Y-111402713D01*
X134962981Y-111277536D01*
X134822464Y-111137019D01*
X134661694Y-111020213D01*
X134505218Y-110940484D01*
X134454423Y-110892510D01*
X134437628Y-110824689D01*
X134460165Y-110758554D01*
X134505218Y-110719515D01*
X134661694Y-110639787D01*
X134822464Y-110522981D01*
X134962981Y-110382464D01*
X135079787Y-110221694D01*
X135170005Y-110044632D01*
X135231413Y-109855636D01*
X135262500Y-109659361D01*
X135262500Y-109460639D01*
X135231413Y-109264364D01*
X135170005Y-109075368D01*
X135170005Y-109075367D01*
X135079786Y-108898305D01*
X134962981Y-108737536D01*
X134822464Y-108597019D01*
X134661694Y-108480213D01*
X134505218Y-108400484D01*
X134454423Y-108352510D01*
X134437628Y-108284689D01*
X134460165Y-108218554D01*
X134505218Y-108179515D01*
X134661694Y-108099787D01*
X134822464Y-107982981D01*
X134962981Y-107842464D01*
X135079787Y-107681694D01*
X135170005Y-107504632D01*
X135231413Y-107315636D01*
X135262500Y-107119361D01*
X135262500Y-106920639D01*
X135231413Y-106724364D01*
X135180717Y-106568336D01*
X135170006Y-106535370D01*
X135170005Y-106535367D01*
X135110967Y-106419500D01*
X135079787Y-106358306D01*
X134962981Y-106197536D01*
X134822464Y-106057019D01*
X134661694Y-105940213D01*
X134505218Y-105860484D01*
X134454423Y-105812510D01*
X134437628Y-105744689D01*
X134460165Y-105678554D01*
X134505218Y-105639515D01*
X134661694Y-105559787D01*
X134822464Y-105442981D01*
X134962981Y-105302464D01*
X135079787Y-105141694D01*
X135170005Y-104964632D01*
X135231413Y-104775636D01*
X135262500Y-104579361D01*
X135262500Y-104380639D01*
X135231413Y-104184364D01*
X135173363Y-104005703D01*
X135170006Y-103995370D01*
X135170002Y-103995361D01*
X135162580Y-103980794D01*
X135149684Y-103912125D01*
X135175961Y-103847385D01*
X135233068Y-103807128D01*
X135273065Y-103800500D01*
X145353331Y-103800500D01*
X145353347Y-103800501D01*
X145360943Y-103800501D01*
X145519054Y-103800501D01*
X145519057Y-103800501D01*
X145671785Y-103759577D01*
X145721904Y-103730639D01*
X145808716Y-103680520D01*
X145920520Y-103568716D01*
X145920520Y-103568714D01*
X145930728Y-103558507D01*
X145930729Y-103558504D01*
X147769543Y-101719690D01*
X147830865Y-101686207D01*
X147900557Y-101691191D01*
X147956490Y-101733063D01*
X147980907Y-101798527D01*
X147979697Y-101826767D01*
X147977500Y-101840641D01*
X147977500Y-102039360D01*
X148008587Y-102235637D01*
X148069993Y-102424629D01*
X148069994Y-102424632D01*
X148148247Y-102578210D01*
X148160213Y-102601694D01*
X148277019Y-102762464D01*
X148417536Y-102902981D01*
X148578306Y-103019787D01*
X148696832Y-103080179D01*
X148734780Y-103099515D01*
X148785576Y-103147490D01*
X148802371Y-103215311D01*
X148779833Y-103281446D01*
X148734780Y-103320485D01*
X148578305Y-103400213D01*
X148417533Y-103517021D01*
X148277021Y-103657533D01*
X148160213Y-103818305D01*
X148069994Y-103995367D01*
X148069993Y-103995370D01*
X148008587Y-104184362D01*
X147977500Y-104380639D01*
X147977500Y-104579360D01*
X148008587Y-104775637D01*
X148069993Y-104964629D01*
X148069994Y-104964632D01*
X148115815Y-105054559D01*
X148160213Y-105141694D01*
X148277019Y-105302464D01*
X148417536Y-105442981D01*
X148578306Y-105559787D01*
X148651898Y-105597284D01*
X148734780Y-105639515D01*
X148785576Y-105687490D01*
X148802371Y-105755311D01*
X148779833Y-105821446D01*
X148734780Y-105860485D01*
X148578305Y-105940213D01*
X148417533Y-106057021D01*
X148277021Y-106197533D01*
X148160213Y-106358305D01*
X148069994Y-106535367D01*
X148069993Y-106535370D01*
X148008587Y-106724362D01*
X147977500Y-106920639D01*
X147977500Y-107119360D01*
X148008587Y-107315637D01*
X148069993Y-107504629D01*
X148069994Y-107504632D01*
X148115555Y-107594049D01*
X148160213Y-107681694D01*
X148277019Y-107842464D01*
X148417536Y-107982981D01*
X148578306Y-108099787D01*
X148638670Y-108130544D01*
X148734780Y-108179515D01*
X148785576Y-108227490D01*
X148802371Y-108295311D01*
X148779833Y-108361446D01*
X148734780Y-108400485D01*
X148578305Y-108480213D01*
X148417533Y-108597021D01*
X148277021Y-108737533D01*
X148160213Y-108898305D01*
X148069994Y-109075367D01*
X148069993Y-109075370D01*
X148008587Y-109264362D01*
X147977500Y-109460639D01*
X147977500Y-109659360D01*
X148008587Y-109855637D01*
X148069993Y-110044629D01*
X148069994Y-110044632D01*
X148133646Y-110169554D01*
X148160213Y-110221694D01*
X148277019Y-110382464D01*
X148417536Y-110522981D01*
X148578306Y-110639787D01*
X148696832Y-110700179D01*
X148734780Y-110719515D01*
X148785576Y-110767490D01*
X148802371Y-110835311D01*
X148779833Y-110901446D01*
X148734780Y-110940485D01*
X148578305Y-111020213D01*
X148417533Y-111137021D01*
X148277021Y-111277533D01*
X148160213Y-111438305D01*
X148069994Y-111615367D01*
X148069993Y-111615370D01*
X148008587Y-111804362D01*
X147977500Y-112000639D01*
X147977500Y-112199360D01*
X148008587Y-112395637D01*
X148069993Y-112584629D01*
X148069994Y-112584632D01*
X148153874Y-112749254D01*
X148160213Y-112761694D01*
X148277019Y-112922464D01*
X148417536Y-113062981D01*
X148578306Y-113179787D01*
X148696832Y-113240179D01*
X148734780Y-113259515D01*
X148785576Y-113307490D01*
X148802371Y-113375311D01*
X148779833Y-113441446D01*
X148734780Y-113480485D01*
X148578305Y-113560213D01*
X148417533Y-113677021D01*
X148277021Y-113817533D01*
X148160213Y-113978305D01*
X148069994Y-114155367D01*
X148069993Y-114155370D01*
X148008587Y-114344362D01*
X147977500Y-114540639D01*
X147977500Y-114739360D01*
X148008587Y-114935637D01*
X148069993Y-115124629D01*
X148069994Y-115124632D01*
X148133493Y-115249254D01*
X148160213Y-115301694D01*
X148277019Y-115462464D01*
X148417536Y-115602981D01*
X148578306Y-115719787D01*
X148621978Y-115742039D01*
X148734780Y-115799515D01*
X148785576Y-115847490D01*
X148802371Y-115915311D01*
X148779833Y-115981446D01*
X148734780Y-116020485D01*
X148578305Y-116100213D01*
X148417533Y-116217021D01*
X148277021Y-116357533D01*
X148160213Y-116518305D01*
X148069994Y-116695367D01*
X148069993Y-116695370D01*
X148008587Y-116884362D01*
X147977500Y-117080639D01*
X147977500Y-117279360D01*
X148008587Y-117475637D01*
X148069993Y-117664629D01*
X148069994Y-117664632D01*
X148160076Y-117841425D01*
X148160213Y-117841694D01*
X148277019Y-118002464D01*
X148417536Y-118142981D01*
X148578306Y-118259787D01*
X148696832Y-118320179D01*
X148734780Y-118339515D01*
X148785576Y-118387490D01*
X148802371Y-118455311D01*
X148779833Y-118521446D01*
X148734780Y-118560485D01*
X148578305Y-118640213D01*
X148417533Y-118757021D01*
X148277021Y-118897533D01*
X148160213Y-119058305D01*
X148069994Y-119235367D01*
X148069993Y-119235370D01*
X148008587Y-119424362D01*
X147977500Y-119620639D01*
X147977500Y-119819360D01*
X148008587Y-120015637D01*
X148069993Y-120204629D01*
X148069994Y-120204632D01*
X148160213Y-120381694D01*
X148277019Y-120542464D01*
X148417536Y-120682981D01*
X148578306Y-120799787D01*
X148665149Y-120844035D01*
X148755367Y-120890005D01*
X148755370Y-120890006D01*
X148844769Y-120919053D01*
X148944364Y-120951413D01*
X149140639Y-120982500D01*
X149140640Y-120982500D01*
X149339360Y-120982500D01*
X149339361Y-120982500D01*
X149535636Y-120951413D01*
X149724632Y-120890005D01*
X149901694Y-120799787D01*
X150062464Y-120682981D01*
X150202981Y-120542464D01*
X150319787Y-120381694D01*
X150410005Y-120204632D01*
X150471413Y-120015636D01*
X150502500Y-119819361D01*
X150502500Y-119620639D01*
X150471413Y-119424364D01*
X150440709Y-119329866D01*
X150410006Y-119235370D01*
X150410005Y-119235367D01*
X150324898Y-119068337D01*
X150319787Y-119058306D01*
X150202981Y-118897536D01*
X150062464Y-118757019D01*
X149901694Y-118640213D01*
X149745218Y-118560484D01*
X149694423Y-118512510D01*
X149677628Y-118444689D01*
X149700165Y-118378554D01*
X149745218Y-118339515D01*
X149901694Y-118259787D01*
X150062464Y-118142981D01*
X150202981Y-118002464D01*
X150319787Y-117841694D01*
X150410005Y-117664632D01*
X150471413Y-117475636D01*
X150502500Y-117279361D01*
X150502500Y-117080639D01*
X150471413Y-116884364D01*
X150410005Y-116695368D01*
X150410005Y-116695367D01*
X150345279Y-116568337D01*
X150319787Y-116518306D01*
X150202981Y-116357536D01*
X150062464Y-116217019D01*
X149901694Y-116100213D01*
X149745218Y-116020484D01*
X149694423Y-115972510D01*
X149677628Y-115904689D01*
X149700165Y-115838554D01*
X149745218Y-115799515D01*
X149901694Y-115719787D01*
X150062464Y-115602981D01*
X150202981Y-115462464D01*
X150319787Y-115301694D01*
X150410005Y-115124632D01*
X150471413Y-114935636D01*
X150502500Y-114739361D01*
X150502500Y-114540639D01*
X150471413Y-114344364D01*
X150410005Y-114155368D01*
X150410005Y-114155367D01*
X150319786Y-113978305D01*
X150202981Y-113817536D01*
X150062464Y-113677019D01*
X149901694Y-113560213D01*
X149745218Y-113480484D01*
X149694423Y-113432510D01*
X149677628Y-113364689D01*
X149700165Y-113298554D01*
X149745218Y-113259515D01*
X149901694Y-113179787D01*
X150062464Y-113062981D01*
X150202981Y-112922464D01*
X150319787Y-112761694D01*
X150410005Y-112584632D01*
X150471413Y-112395636D01*
X150502500Y-112199361D01*
X150502500Y-112000639D01*
X150471413Y-111804364D01*
X150410005Y-111615368D01*
X150410005Y-111615367D01*
X150319786Y-111438305D01*
X150293927Y-111402713D01*
X150202981Y-111277536D01*
X150062464Y-111137019D01*
X149901694Y-111020213D01*
X149745218Y-110940484D01*
X149694423Y-110892510D01*
X149677628Y-110824689D01*
X149700165Y-110758554D01*
X149745218Y-110719515D01*
X149901694Y-110639787D01*
X150062464Y-110522981D01*
X150202981Y-110382464D01*
X150319787Y-110221694D01*
X150410005Y-110044632D01*
X150471413Y-109855636D01*
X150502500Y-109659361D01*
X150502500Y-109460639D01*
X150471413Y-109264364D01*
X150410005Y-109075368D01*
X150410005Y-109075367D01*
X150319786Y-108898305D01*
X150202981Y-108737536D01*
X150062464Y-108597019D01*
X149901694Y-108480213D01*
X149745218Y-108400484D01*
X149694423Y-108352510D01*
X149677628Y-108284689D01*
X149700165Y-108218554D01*
X149745218Y-108179515D01*
X149901694Y-108099787D01*
X150062464Y-107982981D01*
X150202981Y-107842464D01*
X150319787Y-107681694D01*
X150410005Y-107504632D01*
X150471413Y-107315636D01*
X150502500Y-107119361D01*
X150502500Y-106920639D01*
X150471413Y-106724364D01*
X150420717Y-106568336D01*
X150410006Y-106535370D01*
X150410005Y-106535367D01*
X150350967Y-106419500D01*
X150319787Y-106358306D01*
X150202981Y-106197536D01*
X150062464Y-106057019D01*
X149901694Y-105940213D01*
X149745218Y-105860484D01*
X149694423Y-105812510D01*
X149677628Y-105744689D01*
X149700165Y-105678554D01*
X149745218Y-105639515D01*
X149901694Y-105559787D01*
X150062464Y-105442981D01*
X150202981Y-105302464D01*
X150319787Y-105141694D01*
X150410005Y-104964632D01*
X150471413Y-104775636D01*
X150502500Y-104579361D01*
X150502500Y-104380639D01*
X150471413Y-104184364D01*
X150413363Y-104005703D01*
X150410006Y-103995370D01*
X150410005Y-103995367D01*
X150350967Y-103879500D01*
X150319787Y-103818306D01*
X150202981Y-103657536D01*
X150062464Y-103517019D01*
X149901694Y-103400213D01*
X149745218Y-103320484D01*
X149694423Y-103272510D01*
X149677628Y-103204689D01*
X149700165Y-103138554D01*
X149745218Y-103099515D01*
X149901694Y-103019787D01*
X150062464Y-102902981D01*
X150202981Y-102762464D01*
X150319787Y-102601694D01*
X150410005Y-102424632D01*
X150471413Y-102235636D01*
X150502500Y-102039361D01*
X150502500Y-101840639D01*
X150471413Y-101644364D01*
X150410005Y-101455368D01*
X150410005Y-101455367D01*
X150364035Y-101365149D01*
X150319787Y-101278306D01*
X150202981Y-101117536D01*
X150062464Y-100977019D01*
X149901694Y-100860213D01*
X149745218Y-100780484D01*
X149694423Y-100732510D01*
X149677628Y-100664689D01*
X149700165Y-100598554D01*
X149745218Y-100559515D01*
X149901694Y-100479787D01*
X150062464Y-100362981D01*
X150202981Y-100222464D01*
X150319787Y-100061694D01*
X150410005Y-99884632D01*
X150471413Y-99695636D01*
X150502500Y-99499361D01*
X150502500Y-99300639D01*
X150471413Y-99104364D01*
X150410005Y-98915368D01*
X150410005Y-98915367D01*
X150347728Y-98793144D01*
X150319787Y-98738306D01*
X150202981Y-98577536D01*
X150062464Y-98437019D01*
X149901694Y-98320213D01*
X149745218Y-98240484D01*
X149694423Y-98192510D01*
X149677628Y-98124689D01*
X149700165Y-98058554D01*
X149745218Y-98019515D01*
X149901694Y-97939787D01*
X150062464Y-97822981D01*
X150202981Y-97682464D01*
X150319787Y-97521694D01*
X150410005Y-97344632D01*
X150471413Y-97155636D01*
X150502500Y-96959361D01*
X150502500Y-96760639D01*
X150471413Y-96564364D01*
X150410005Y-96375368D01*
X150410005Y-96375367D01*
X150322867Y-96204351D01*
X150319787Y-96198306D01*
X150202981Y-96037536D01*
X150062464Y-95897019D01*
X149901694Y-95780213D01*
X149745218Y-95700484D01*
X149694423Y-95652510D01*
X149677628Y-95584689D01*
X149700165Y-95518554D01*
X149745218Y-95479515D01*
X149901694Y-95399787D01*
X150062464Y-95282981D01*
X150202981Y-95142464D01*
X150319787Y-94981694D01*
X150410005Y-94804632D01*
X150471413Y-94615636D01*
X150502500Y-94419361D01*
X150502500Y-94220639D01*
X150471413Y-94024364D01*
X150440709Y-93929866D01*
X150410006Y-93835370D01*
X150410005Y-93835367D01*
X150339699Y-93697386D01*
X150319787Y-93658306D01*
X150202981Y-93497536D01*
X150062464Y-93357019D01*
X149901694Y-93240213D01*
X149745218Y-93160484D01*
X149694423Y-93112510D01*
X149677628Y-93044689D01*
X149700165Y-92978554D01*
X149745218Y-92939515D01*
X149901694Y-92859787D01*
X150062464Y-92742981D01*
X150202981Y-92602464D01*
X150319787Y-92441694D01*
X150410005Y-92264632D01*
X150471413Y-92075636D01*
X150502500Y-91879361D01*
X150502500Y-91680639D01*
X150471413Y-91484364D01*
X150410005Y-91295368D01*
X150410005Y-91295367D01*
X150345816Y-91169390D01*
X150319787Y-91118306D01*
X150202981Y-90957536D01*
X150062464Y-90817019D01*
X149901694Y-90700213D01*
X149745218Y-90620484D01*
X149694423Y-90572510D01*
X149677628Y-90504689D01*
X149700165Y-90438554D01*
X149745218Y-90399515D01*
X149901694Y-90319787D01*
X150062464Y-90202981D01*
X150202981Y-90062464D01*
X150319787Y-89901694D01*
X150410005Y-89724632D01*
X150471413Y-89535636D01*
X150502500Y-89339361D01*
X150502500Y-89140639D01*
X150471413Y-88944364D01*
X150425824Y-88804054D01*
X150410006Y-88755370D01*
X150410005Y-88755367D01*
X150319786Y-88578305D01*
X150291364Y-88539185D01*
X150202981Y-88417536D01*
X150062464Y-88277019D01*
X149901694Y-88160213D01*
X149745218Y-88080484D01*
X149694423Y-88032510D01*
X149677628Y-87964689D01*
X149700165Y-87898554D01*
X149745218Y-87859515D01*
X149901694Y-87779787D01*
X150062464Y-87662981D01*
X150202981Y-87522464D01*
X150319787Y-87361694D01*
X150410005Y-87184632D01*
X150471413Y-86995636D01*
X150502500Y-86799361D01*
X150502500Y-86600639D01*
X150471413Y-86404364D01*
X150410005Y-86215368D01*
X150410005Y-86215367D01*
X150319786Y-86038305D01*
X150316287Y-86033489D01*
X150202981Y-85877536D01*
X150062464Y-85737019D01*
X149901694Y-85620213D01*
X149745218Y-85540484D01*
X149694423Y-85492510D01*
X149677628Y-85424689D01*
X149700165Y-85358554D01*
X149745218Y-85319515D01*
X149901694Y-85239787D01*
X150062464Y-85122981D01*
X150202981Y-84982464D01*
X150319787Y-84821694D01*
X150410005Y-84644632D01*
X150471413Y-84455636D01*
X150502500Y-84259361D01*
X150502500Y-84060639D01*
X150471413Y-83864364D01*
X150410005Y-83675368D01*
X150410005Y-83675367D01*
X150319786Y-83498305D01*
X150237684Y-83385301D01*
X150202981Y-83337536D01*
X150062464Y-83197019D01*
X149901694Y-83080213D01*
X149745218Y-83000484D01*
X149694423Y-82952510D01*
X149677628Y-82884689D01*
X149700165Y-82818554D01*
X149745218Y-82779515D01*
X149901694Y-82699787D01*
X150062464Y-82582981D01*
X150202981Y-82442464D01*
X150319787Y-82281694D01*
X150410005Y-82104632D01*
X150471413Y-81915636D01*
X150502500Y-81719361D01*
X150502500Y-81520639D01*
X150471413Y-81324364D01*
X150410005Y-81135368D01*
X150410005Y-81135367D01*
X150319786Y-80958305D01*
X150202981Y-80797536D01*
X150062464Y-80657019D01*
X149901694Y-80540213D01*
X149745218Y-80460484D01*
X149694423Y-80412510D01*
X149677628Y-80344689D01*
X149700165Y-80278554D01*
X149745218Y-80239515D01*
X149901694Y-80159787D01*
X150062464Y-80042981D01*
X150202981Y-79902464D01*
X150319787Y-79741694D01*
X150410005Y-79564632D01*
X150471413Y-79375636D01*
X150502500Y-79179361D01*
X150502500Y-78980639D01*
X150471413Y-78784364D01*
X150410005Y-78595368D01*
X150410005Y-78595367D01*
X150319786Y-78418305D01*
X150202981Y-78257536D01*
X150062464Y-78117019D01*
X149901694Y-78000213D01*
X149745218Y-77920484D01*
X149694423Y-77872510D01*
X149677628Y-77804689D01*
X149700165Y-77738554D01*
X149745218Y-77699515D01*
X149901694Y-77619787D01*
X150062464Y-77502981D01*
X150202981Y-77362464D01*
X150319787Y-77201694D01*
X150410005Y-77024632D01*
X150471413Y-76835636D01*
X150502500Y-76639361D01*
X150502500Y-76440639D01*
X150471413Y-76244364D01*
X150410005Y-76055368D01*
X150410005Y-76055367D01*
X150319786Y-75878305D01*
X150202981Y-75717536D01*
X150062464Y-75577019D01*
X149901694Y-75460213D01*
X149744667Y-75380203D01*
X149693872Y-75332229D01*
X149677077Y-75264408D01*
X149699614Y-75198273D01*
X149744669Y-75159234D01*
X149901422Y-75079364D01*
X149938715Y-75052268D01*
X149267446Y-74381000D01*
X149290160Y-74381000D01*
X149387061Y-74355036D01*
X149473940Y-74304876D01*
X149544876Y-74233940D01*
X149595036Y-74147061D01*
X149621000Y-74050160D01*
X149621000Y-74027447D01*
X150292268Y-74698715D01*
X150319362Y-74661425D01*
X150409542Y-74484437D01*
X150470924Y-74295523D01*
X150470924Y-74295520D01*
X150502000Y-74099321D01*
X150502000Y-73900678D01*
X150470924Y-73704479D01*
X150470924Y-73704476D01*
X150409542Y-73515562D01*
X150319358Y-73338567D01*
X150292268Y-73301283D01*
X149621000Y-73972551D01*
X149621000Y-73949840D01*
X149595036Y-73852939D01*
X149544876Y-73766060D01*
X149473940Y-73695124D01*
X149387061Y-73644964D01*
X149290160Y-73619000D01*
X149267447Y-73619000D01*
X149938716Y-72947731D01*
X149938715Y-72947730D01*
X149901432Y-72920641D01*
X149744117Y-72840485D01*
X149693321Y-72792510D01*
X149676526Y-72724689D01*
X149699063Y-72658554D01*
X149744117Y-72619515D01*
X149901425Y-72539362D01*
X149938716Y-72512268D01*
X149267448Y-71841000D01*
X149290160Y-71841000D01*
X149387061Y-71815036D01*
X149473940Y-71764876D01*
X149544876Y-71693940D01*
X149595036Y-71607061D01*
X149621000Y-71510160D01*
X149621000Y-71487447D01*
X150292268Y-72158715D01*
X150319362Y-72121425D01*
X150409542Y-71944437D01*
X150470924Y-71755523D01*
X150470924Y-71755520D01*
X150502000Y-71559321D01*
X150502000Y-71360678D01*
X150470937Y-71164556D01*
X150470937Y-71164555D01*
X150470925Y-71164480D01*
X150470924Y-71164476D01*
X150465968Y-71149223D01*
X152699500Y-71149223D01*
X152699500Y-71450776D01*
X152699501Y-71450793D01*
X152738861Y-71749766D01*
X152816913Y-72041060D01*
X152932314Y-72319661D01*
X152932318Y-72319671D01*
X153083099Y-72580831D01*
X153266679Y-72820078D01*
X153266685Y-72820085D01*
X153479914Y-73033314D01*
X153479921Y-73033320D01*
X153719168Y-73216900D01*
X153980328Y-73367681D01*
X153980329Y-73367681D01*
X153980332Y-73367683D01*
X154166072Y-73444619D01*
X154258939Y-73483086D01*
X154258940Y-73483086D01*
X154258942Y-73483087D01*
X154550232Y-73561138D01*
X154849217Y-73600500D01*
X154849224Y-73600500D01*
X155150776Y-73600500D01*
X155150783Y-73600500D01*
X155449768Y-73561138D01*
X155741058Y-73483087D01*
X156019668Y-73367683D01*
X156280832Y-73216900D01*
X156520080Y-73033319D01*
X156733319Y-72820080D01*
X156916900Y-72580832D01*
X157067683Y-72319668D01*
X157183087Y-72041058D01*
X157261138Y-71749768D01*
X157300500Y-71450783D01*
X157300500Y-71149217D01*
X157261138Y-70850232D01*
X157183087Y-70558942D01*
X157157438Y-70497021D01*
X157120453Y-70407730D01*
X157067683Y-70280332D01*
X156916900Y-70019168D01*
X156733319Y-69779920D01*
X156733314Y-69779914D01*
X156520085Y-69566685D01*
X156520078Y-69566679D01*
X156280831Y-69383099D01*
X156019671Y-69232318D01*
X156019661Y-69232314D01*
X155741060Y-69116913D01*
X155449766Y-69038861D01*
X155150793Y-68999501D01*
X155150788Y-68999500D01*
X155150783Y-68999500D01*
X154849217Y-68999500D01*
X154849211Y-68999500D01*
X154849206Y-68999501D01*
X154550233Y-69038861D01*
X154258939Y-69116913D01*
X153980338Y-69232314D01*
X153980328Y-69232318D01*
X153719168Y-69383099D01*
X153479921Y-69566679D01*
X153479914Y-69566685D01*
X153266685Y-69779914D01*
X153266679Y-69779921D01*
X153083099Y-70019168D01*
X152932318Y-70280328D01*
X152932314Y-70280338D01*
X152816913Y-70558939D01*
X152738861Y-70850233D01*
X152699501Y-71149206D01*
X152699500Y-71149223D01*
X150465968Y-71149223D01*
X150409542Y-70975562D01*
X150319358Y-70798567D01*
X150292268Y-70761283D01*
X149621000Y-71432551D01*
X149621000Y-71409840D01*
X149595036Y-71312939D01*
X149544876Y-71226060D01*
X149473940Y-71155124D01*
X149387061Y-71104964D01*
X149290160Y-71079000D01*
X149267447Y-71079000D01*
X149938716Y-70407731D01*
X149938715Y-70407730D01*
X149901432Y-70380641D01*
X149724437Y-70290457D01*
X149535522Y-70229075D01*
X149339321Y-70198000D01*
X149140679Y-70198000D01*
X148944479Y-70229075D01*
X148944476Y-70229075D01*
X148755562Y-70290457D01*
X148578564Y-70380643D01*
X148541283Y-70407729D01*
X148541282Y-70407730D01*
X149212554Y-71079000D01*
X149189840Y-71079000D01*
X149092939Y-71104964D01*
X149006060Y-71155124D01*
X148935124Y-71226060D01*
X148884964Y-71312939D01*
X148859000Y-71409840D01*
X148859000Y-71432552D01*
X148187730Y-70761282D01*
X148187729Y-70761283D01*
X148160643Y-70798564D01*
X148070457Y-70975562D01*
X148009075Y-71164476D01*
X148009075Y-71164479D01*
X147978000Y-71360678D01*
X147978000Y-71559321D01*
X148009075Y-71755520D01*
X148009075Y-71755523D01*
X148070457Y-71944437D01*
X148160641Y-72121432D01*
X148187730Y-72158715D01*
X148187731Y-72158716D01*
X148859000Y-71487447D01*
X148859000Y-71510160D01*
X148884964Y-71607061D01*
X148935124Y-71693940D01*
X149006060Y-71764876D01*
X149092939Y-71815036D01*
X149189840Y-71841000D01*
X149212553Y-71841000D01*
X148541283Y-72512268D01*
X148541283Y-72512269D01*
X148578567Y-72539358D01*
X148735882Y-72619515D01*
X148786678Y-72667490D01*
X148803473Y-72735311D01*
X148780935Y-72801446D01*
X148735882Y-72840485D01*
X148578564Y-72920643D01*
X148541283Y-72947729D01*
X148541282Y-72947730D01*
X149212554Y-73619000D01*
X149189840Y-73619000D01*
X149092939Y-73644964D01*
X149006060Y-73695124D01*
X148935124Y-73766060D01*
X148884964Y-73852939D01*
X148859000Y-73949840D01*
X148859000Y-73972553D01*
X148187730Y-73301282D01*
X148187729Y-73301283D01*
X148160643Y-73338564D01*
X148070457Y-73515562D01*
X148009075Y-73704476D01*
X148009075Y-73704479D01*
X147978000Y-73900678D01*
X147978000Y-74099321D01*
X148009075Y-74295520D01*
X148009075Y-74295523D01*
X148063226Y-74462182D01*
X148065221Y-74532023D01*
X148029140Y-74591856D01*
X147966439Y-74622684D01*
X147945295Y-74624500D01*
X135295231Y-74624500D01*
X135228192Y-74604815D01*
X135182437Y-74552011D01*
X135172493Y-74482853D01*
X135177300Y-74462182D01*
X135212113Y-74355036D01*
X135231413Y-74295636D01*
X135262500Y-74099361D01*
X135262500Y-73900639D01*
X135231413Y-73704364D01*
X135197665Y-73600498D01*
X135170006Y-73515370D01*
X135170005Y-73515367D01*
X135094754Y-73367681D01*
X135079787Y-73338306D01*
X134962981Y-73177536D01*
X134822464Y-73037019D01*
X134661694Y-72920213D01*
X134505218Y-72840484D01*
X134454423Y-72792510D01*
X134437628Y-72724689D01*
X134460165Y-72658554D01*
X134505218Y-72619515D01*
X134661694Y-72539787D01*
X134822464Y-72422981D01*
X134962981Y-72282464D01*
X135079787Y-72121694D01*
X135170005Y-71944632D01*
X135231413Y-71755636D01*
X135262500Y-71559361D01*
X135262500Y-71360639D01*
X135231413Y-71164364D01*
X135170005Y-70975368D01*
X135170005Y-70975367D01*
X135082027Y-70802703D01*
X135079787Y-70798306D01*
X134962981Y-70637536D01*
X134822464Y-70497019D01*
X134661694Y-70380213D01*
X134484632Y-70289994D01*
X134484629Y-70289993D01*
X134295637Y-70228587D01*
X134197498Y-70213043D01*
X134099361Y-70197500D01*
X133900639Y-70197500D01*
X133835214Y-70207862D01*
X133704362Y-70228587D01*
X133515370Y-70289993D01*
X133515367Y-70289994D01*
X133338305Y-70380213D01*
X133177533Y-70497021D01*
X133037021Y-70637533D01*
X132920213Y-70798305D01*
X132829994Y-70975367D01*
X132829993Y-70975370D01*
X132768587Y-71164362D01*
X132737500Y-71360639D01*
X132737500Y-71559360D01*
X132768587Y-71755637D01*
X132829993Y-71944629D01*
X132829994Y-71944632D01*
X132920076Y-72121425D01*
X132920213Y-72121694D01*
X133037019Y-72282464D01*
X133177536Y-72422981D01*
X133338306Y-72539787D01*
X133385032Y-72563595D01*
X133494780Y-72619515D01*
X133545576Y-72667490D01*
X133562371Y-72735311D01*
X133539833Y-72801446D01*
X133494780Y-72840485D01*
X133338305Y-72920213D01*
X133177533Y-73037021D01*
X133037021Y-73177533D01*
X132920213Y-73338305D01*
X132829994Y-73515367D01*
X132829993Y-73515370D01*
X132768587Y-73704362D01*
X132737500Y-73900639D01*
X132737500Y-74099360D01*
X132768587Y-74295637D01*
X132822700Y-74462182D01*
X132824695Y-74532024D01*
X132788614Y-74591856D01*
X132725913Y-74622684D01*
X132704769Y-74624500D01*
X113764317Y-74624500D01*
X113633819Y-74650458D01*
X113633809Y-74650461D01*
X113510888Y-74701376D01*
X113510870Y-74701386D01*
X113400248Y-74775301D01*
X113400240Y-74775307D01*
X111378785Y-76796762D01*
X111317462Y-76830247D01*
X111315299Y-76830698D01*
X111292353Y-76835262D01*
X111292350Y-76835263D01*
X111146677Y-76895602D01*
X111146664Y-76895609D01*
X111015561Y-76983210D01*
X111015557Y-76983213D01*
X110904063Y-77094707D01*
X110904060Y-77094711D01*
X110816459Y-77225814D01*
X110816452Y-77225827D01*
X110756114Y-77371498D01*
X110756111Y-77371510D01*
X110725350Y-77526153D01*
X110725350Y-77683846D01*
X110756111Y-77838489D01*
X110756114Y-77838501D01*
X110816452Y-77984172D01*
X110816459Y-77984184D01*
X110879452Y-78078459D01*
X110900330Y-78145136D01*
X110900350Y-78147350D01*
X110900350Y-94413697D01*
X110880665Y-94480736D01*
X110864031Y-94501378D01*
X105512281Y-99853128D01*
X105450958Y-99886613D01*
X105381266Y-99881629D01*
X105325333Y-99839757D01*
X105300916Y-99774293D01*
X105300600Y-99765447D01*
X105300600Y-99647635D01*
X105277115Y-99499361D01*
X105268575Y-99445442D01*
X105205314Y-99250743D01*
X105205314Y-99250742D01*
X105157957Y-99157801D01*
X105112373Y-99068337D01*
X104992042Y-98902716D01*
X104847284Y-98757958D01*
X104681663Y-98637627D01*
X104499257Y-98544685D01*
X104499254Y-98544684D01*
X104304559Y-98481425D01*
X104102364Y-98449400D01*
X104102359Y-98449400D01*
X103897641Y-98449400D01*
X103897636Y-98449400D01*
X103695440Y-98481425D01*
X103500745Y-98544684D01*
X103500742Y-98544685D01*
X103318336Y-98637627D01*
X103245372Y-98690639D01*
X103152716Y-98757958D01*
X103152714Y-98757960D01*
X103152713Y-98757960D01*
X103007960Y-98902713D01*
X103007960Y-98902714D01*
X103007958Y-98902716D01*
X102993353Y-98922818D01*
X102887627Y-99068336D01*
X102794685Y-99250742D01*
X102794684Y-99250745D01*
X102731425Y-99445440D01*
X102699400Y-99647635D01*
X99000500Y-99647635D01*
X99000500Y-85295675D01*
X102624500Y-85295675D01*
X102624500Y-85504324D01*
X102657137Y-85710389D01*
X102721612Y-85908820D01*
X102787588Y-86038305D01*
X102816330Y-86094714D01*
X102938965Y-86263505D01*
X103086495Y-86411035D01*
X103255286Y-86533670D01*
X103264380Y-86538303D01*
X103266759Y-86539516D01*
X103317554Y-86587492D01*
X103334348Y-86655313D01*
X103311809Y-86721447D01*
X103266759Y-86760484D01*
X103255286Y-86766330D01*
X103086493Y-86888966D01*
X102938966Y-87036493D01*
X102816330Y-87205285D01*
X102721612Y-87391179D01*
X102657137Y-87589610D01*
X102624500Y-87795675D01*
X102624500Y-88004324D01*
X102657137Y-88210389D01*
X102721612Y-88408820D01*
X102807969Y-88578305D01*
X102816330Y-88594714D01*
X102938965Y-88763505D01*
X103086495Y-88911035D01*
X103255286Y-89033670D01*
X103267309Y-89039796D01*
X103318105Y-89087769D01*
X103334901Y-89155589D01*
X103312365Y-89221725D01*
X103267313Y-89260764D01*
X103255556Y-89266754D01*
X103255555Y-89266755D01*
X103206180Y-89302627D01*
X103779766Y-89876212D01*
X103737708Y-89887482D01*
X103612292Y-89959890D01*
X103509890Y-90062292D01*
X103437482Y-90187708D01*
X103426212Y-90229765D01*
X102852627Y-89656180D01*
X102816757Y-89705552D01*
X102722075Y-89891372D01*
X102657626Y-90089727D01*
X102625000Y-90295720D01*
X102625000Y-90504279D01*
X102657626Y-90710272D01*
X102722075Y-90908627D01*
X102816759Y-91094451D01*
X102852627Y-91143818D01*
X102852627Y-91143819D01*
X103426212Y-90570234D01*
X103437482Y-90612292D01*
X103509890Y-90737708D01*
X103612292Y-90840110D01*
X103737708Y-90912518D01*
X103779765Y-90923787D01*
X103206179Y-91497371D01*
X103206180Y-91497372D01*
X103255543Y-91533236D01*
X103255555Y-91533244D01*
X103267308Y-91539232D01*
X103318105Y-91587206D01*
X103334901Y-91655026D01*
X103312365Y-91721162D01*
X103267313Y-91760201D01*
X103255288Y-91766328D01*
X103086493Y-91888966D01*
X102938966Y-92036493D01*
X102816330Y-92205285D01*
X102721612Y-92391179D01*
X102657137Y-92589610D01*
X102624500Y-92795675D01*
X102624500Y-93004324D01*
X102657137Y-93210389D01*
X102721612Y-93408820D01*
X102803429Y-93569394D01*
X102816330Y-93594714D01*
X102938965Y-93763505D01*
X103086495Y-93911035D01*
X103255286Y-94033670D01*
X103319142Y-94066206D01*
X103441179Y-94128387D01*
X103441181Y-94128387D01*
X103441184Y-94128389D01*
X103547545Y-94162948D01*
X103639610Y-94192862D01*
X103845676Y-94225500D01*
X103845681Y-94225500D01*
X104054324Y-94225500D01*
X104260389Y-94192862D01*
X104458816Y-94128389D01*
X104644714Y-94033670D01*
X104813505Y-93911035D01*
X104961035Y-93763505D01*
X105083670Y-93594714D01*
X105178389Y-93408816D01*
X105242862Y-93210389D01*
X105250766Y-93160485D01*
X105275500Y-93004324D01*
X105275500Y-92795675D01*
X105242862Y-92589610D01*
X105178387Y-92391179D01*
X105128421Y-92293116D01*
X105083670Y-92205286D01*
X104961035Y-92036495D01*
X104813505Y-91888965D01*
X104644714Y-91766330D01*
X104632689Y-91760203D01*
X104581893Y-91712228D01*
X104565098Y-91644407D01*
X104587636Y-91578272D01*
X104632694Y-91539231D01*
X104644449Y-91533241D01*
X104693818Y-91497372D01*
X104693818Y-91497371D01*
X104120234Y-90923787D01*
X104162292Y-90912518D01*
X104287708Y-90840110D01*
X104390110Y-90737708D01*
X104462518Y-90612292D01*
X104473787Y-90570234D01*
X105047371Y-91143818D01*
X105047372Y-91143818D01*
X105083240Y-91094451D01*
X105177924Y-90908627D01*
X105242373Y-90710272D01*
X105275000Y-90504279D01*
X105275000Y-90295720D01*
X105242373Y-90089727D01*
X105177924Y-89891372D01*
X105083244Y-89705556D01*
X105083236Y-89705543D01*
X105047372Y-89656180D01*
X105047371Y-89656179D01*
X104473787Y-90229764D01*
X104462518Y-90187708D01*
X104390110Y-90062292D01*
X104287708Y-89959890D01*
X104162292Y-89887482D01*
X104120233Y-89876212D01*
X104693819Y-89302627D01*
X104644446Y-89266755D01*
X104632689Y-89260765D01*
X104581893Y-89212791D01*
X104565098Y-89144970D01*
X104587636Y-89078835D01*
X104632692Y-89039795D01*
X104644714Y-89033670D01*
X104813505Y-88911035D01*
X104961035Y-88763505D01*
X105083670Y-88594714D01*
X105178389Y-88408816D01*
X105242862Y-88210389D01*
X105263330Y-88081158D01*
X105275500Y-88004324D01*
X105275500Y-87795675D01*
X105242862Y-87589610D01*
X105178387Y-87391179D01*
X105083669Y-87205285D01*
X105068664Y-87184632D01*
X104961035Y-87036495D01*
X104813505Y-86888965D01*
X104690177Y-86799361D01*
X104644712Y-86766328D01*
X104633243Y-86760485D01*
X104582447Y-86712511D01*
X104565651Y-86644690D01*
X104588188Y-86578555D01*
X104633243Y-86539515D01*
X104644712Y-86533671D01*
X104644711Y-86533671D01*
X104644714Y-86533670D01*
X104813505Y-86411035D01*
X104961035Y-86263505D01*
X105083670Y-86094714D01*
X105178389Y-85908816D01*
X105242862Y-85710389D01*
X105275500Y-85504324D01*
X105275500Y-85295675D01*
X105242862Y-85089610D01*
X105178387Y-84891179D01*
X105083669Y-84705285D01*
X105039602Y-84644632D01*
X104961035Y-84536495D01*
X104813505Y-84388965D01*
X104644714Y-84266330D01*
X104458820Y-84171612D01*
X104260389Y-84107137D01*
X104054324Y-84074500D01*
X104054319Y-84074500D01*
X103845681Y-84074500D01*
X103845676Y-84074500D01*
X103639610Y-84107137D01*
X103441179Y-84171612D01*
X103255285Y-84266330D01*
X103086493Y-84388966D01*
X102938966Y-84536493D01*
X102816330Y-84705285D01*
X102721612Y-84891179D01*
X102657137Y-85089610D01*
X102624500Y-85295675D01*
X99000500Y-85295675D01*
X99000500Y-83713766D01*
X105274500Y-83713766D01*
X105274500Y-83886233D01*
X105308143Y-84055366D01*
X105308146Y-84055378D01*
X105374138Y-84214698D01*
X105374145Y-84214711D01*
X105469954Y-84358098D01*
X105469957Y-84358102D01*
X105591897Y-84480042D01*
X105591901Y-84480045D01*
X105735288Y-84575854D01*
X105735301Y-84575861D01*
X105894621Y-84641853D01*
X105894626Y-84641855D01*
X106063766Y-84675499D01*
X106063769Y-84675500D01*
X106063771Y-84675500D01*
X106236231Y-84675500D01*
X106236232Y-84675499D01*
X106405374Y-84641855D01*
X106564705Y-84575858D01*
X106708099Y-84480045D01*
X106830045Y-84358099D01*
X106925858Y-84214705D01*
X106991855Y-84055374D01*
X107025500Y-83886229D01*
X107025500Y-83713771D01*
X107025500Y-83713768D01*
X107025499Y-83713766D01*
X106991855Y-83544626D01*
X106972668Y-83498305D01*
X106925861Y-83385301D01*
X106925854Y-83385288D01*
X106830045Y-83241901D01*
X106830042Y-83241897D01*
X106708102Y-83119957D01*
X106708098Y-83119954D01*
X106564711Y-83024145D01*
X106564698Y-83024138D01*
X106405378Y-82958146D01*
X106405366Y-82958143D01*
X106236232Y-82924500D01*
X106236229Y-82924500D01*
X106063771Y-82924500D01*
X106063768Y-82924500D01*
X105894633Y-82958143D01*
X105894621Y-82958146D01*
X105735301Y-83024138D01*
X105735288Y-83024145D01*
X105591901Y-83119954D01*
X105591897Y-83119957D01*
X105469957Y-83241897D01*
X105469954Y-83241901D01*
X105374145Y-83385288D01*
X105374138Y-83385301D01*
X105308146Y-83544621D01*
X105308143Y-83544633D01*
X105274500Y-83713766D01*
X99000500Y-83713766D01*
X99000500Y-71149223D01*
X99649500Y-71149223D01*
X99649500Y-71450776D01*
X99649501Y-71450793D01*
X99688861Y-71749766D01*
X99766913Y-72041060D01*
X99882314Y-72319661D01*
X99882318Y-72319671D01*
X100033099Y-72580831D01*
X100216679Y-72820078D01*
X100216685Y-72820085D01*
X100429914Y-73033314D01*
X100429921Y-73033320D01*
X100669168Y-73216900D01*
X100930328Y-73367681D01*
X100930329Y-73367681D01*
X100930332Y-73367683D01*
X101116072Y-73444619D01*
X101208939Y-73483086D01*
X101208940Y-73483086D01*
X101208942Y-73483087D01*
X101500232Y-73561138D01*
X101799217Y-73600500D01*
X101799224Y-73600500D01*
X102100776Y-73600500D01*
X102100783Y-73600500D01*
X102399768Y-73561138D01*
X102691058Y-73483087D01*
X102969668Y-73367683D01*
X103230832Y-73216900D01*
X103470080Y-73033319D01*
X103683319Y-72820080D01*
X103866900Y-72580832D01*
X104017683Y-72319668D01*
X104133087Y-72041058D01*
X104211138Y-71749768D01*
X104250500Y-71450783D01*
X104250500Y-71149217D01*
X104211138Y-70850232D01*
X104133087Y-70558942D01*
X104107438Y-70497021D01*
X104070453Y-70407730D01*
X104017683Y-70280332D01*
X103866900Y-70019168D01*
X103683319Y-69779920D01*
X103683314Y-69779914D01*
X103470085Y-69566685D01*
X103470078Y-69566679D01*
X103230831Y-69383099D01*
X102969671Y-69232318D01*
X102969661Y-69232314D01*
X102691060Y-69116913D01*
X102399766Y-69038861D01*
X102100793Y-68999501D01*
X102100788Y-68999500D01*
X102100783Y-68999500D01*
X101799217Y-68999500D01*
X101799211Y-68999500D01*
X101799206Y-68999501D01*
X101500233Y-69038861D01*
X101208939Y-69116913D01*
X100930338Y-69232314D01*
X100930328Y-69232318D01*
X100669168Y-69383099D01*
X100429921Y-69566679D01*
X100429914Y-69566685D01*
X100216685Y-69779914D01*
X100216679Y-69779921D01*
X100033099Y-70019168D01*
X99882318Y-70280328D01*
X99882314Y-70280338D01*
X99766913Y-70558939D01*
X99688861Y-70850233D01*
X99649501Y-71149206D01*
X99649500Y-71149223D01*
X99000500Y-71149223D01*
X99000500Y-68524500D01*
X99020185Y-68457461D01*
X99072989Y-68411706D01*
X99124500Y-68400500D01*
X157825500Y-68400500D01*
X157892539Y-68420185D01*
G37*
%TD.AperFunction*%
%TD*%
%TA.AperFunction,NonConductor*%
G36*
X147900557Y-94071190D02*
G01*
X147956490Y-94113062D01*
X147980907Y-94178526D01*
X147979697Y-94206765D01*
X147977500Y-94220639D01*
X147977500Y-94419360D01*
X148008587Y-94615637D01*
X148069993Y-94804629D01*
X148069994Y-94804632D01*
X148121947Y-94906594D01*
X148160213Y-94981694D01*
X148277019Y-95142464D01*
X148417536Y-95282981D01*
X148578306Y-95399787D01*
X148696832Y-95460179D01*
X148734780Y-95479515D01*
X148785576Y-95527490D01*
X148802371Y-95595311D01*
X148779833Y-95661446D01*
X148734780Y-95700485D01*
X148578305Y-95780213D01*
X148417533Y-95897021D01*
X148277021Y-96037533D01*
X148160213Y-96198305D01*
X148069994Y-96375367D01*
X148069993Y-96375370D01*
X148008587Y-96564362D01*
X147977500Y-96760639D01*
X147977500Y-96959360D01*
X148008587Y-97155637D01*
X148069993Y-97344629D01*
X148069994Y-97344632D01*
X148142541Y-97487011D01*
X148160213Y-97521694D01*
X148277019Y-97682464D01*
X148417536Y-97822981D01*
X148578306Y-97939787D01*
X148696832Y-98000179D01*
X148734780Y-98019515D01*
X148785576Y-98067490D01*
X148802371Y-98135311D01*
X148779833Y-98201446D01*
X148734780Y-98240485D01*
X148578305Y-98320213D01*
X148417533Y-98437021D01*
X148277021Y-98577533D01*
X148160213Y-98738305D01*
X148069994Y-98915367D01*
X148069993Y-98915370D01*
X148008587Y-99104362D01*
X147977500Y-99300639D01*
X147977500Y-99499360D01*
X148008586Y-99695635D01*
X148009131Y-99697902D01*
X148009086Y-99698789D01*
X148009349Y-99700447D01*
X148009000Y-99700502D01*
X148005638Y-99767684D01*
X147976237Y-99814525D01*
X145227584Y-102563181D01*
X145166261Y-102596666D01*
X145139903Y-102599500D01*
X135283152Y-102599500D01*
X135216113Y-102579815D01*
X135170358Y-102527011D01*
X135160414Y-102457853D01*
X135168589Y-102428051D01*
X135170001Y-102424638D01*
X135170005Y-102424632D01*
X135231413Y-102235636D01*
X135262500Y-102039361D01*
X135262500Y-101840639D01*
X135231413Y-101644364D01*
X135170005Y-101455368D01*
X135170002Y-101455361D01*
X135162580Y-101440794D01*
X135149684Y-101372125D01*
X135175961Y-101307385D01*
X135233068Y-101267128D01*
X135273065Y-101260500D01*
X140273331Y-101260500D01*
X140273347Y-101260501D01*
X140280943Y-101260501D01*
X140439054Y-101260501D01*
X140439057Y-101260501D01*
X140591785Y-101219577D01*
X140641904Y-101190639D01*
X140728716Y-101140520D01*
X140840520Y-101028716D01*
X140840520Y-101028714D01*
X140850728Y-101018507D01*
X140850730Y-101018504D01*
X147769544Y-94099689D01*
X147830865Y-94066206D01*
X147900557Y-94071190D01*
G37*
%TD.AperFunction*%
%TA.AperFunction,NonConductor*%
G36*
X132783887Y-96220185D02*
G01*
X132829642Y-96272989D01*
X132839586Y-96342147D01*
X132831411Y-96371949D01*
X132829993Y-96375371D01*
X132768587Y-96564362D01*
X132737500Y-96760639D01*
X132737500Y-96959360D01*
X132768587Y-97155637D01*
X132829993Y-97344629D01*
X132829996Y-97344637D01*
X132847610Y-97379204D01*
X132860507Y-97447874D01*
X132834231Y-97512614D01*
X132777125Y-97552872D01*
X132737126Y-97559500D01*
X115669057Y-97559500D01*
X115510943Y-97559500D01*
X115358215Y-97600423D01*
X115358214Y-97600423D01*
X115358212Y-97600424D01*
X115358209Y-97600425D01*
X115308096Y-97629359D01*
X115308095Y-97629360D01*
X115264689Y-97654420D01*
X115221285Y-97679479D01*
X115221282Y-97679481D01*
X105512281Y-107388483D01*
X105450958Y-107421968D01*
X105381266Y-107416984D01*
X105325333Y-107375112D01*
X105300916Y-107309648D01*
X105300600Y-107300802D01*
X105300600Y-107147635D01*
X105268575Y-106945443D01*
X105263907Y-106931076D01*
X105261911Y-106861235D01*
X105294155Y-106805078D01*
X115862416Y-96236819D01*
X115923739Y-96203334D01*
X115950097Y-96200500D01*
X132716848Y-96200500D01*
X132783887Y-96220185D01*
G37*
%TD.AperFunction*%
%TA.AperFunction,NonConductor*%
G36*
X132776682Y-98780185D02*
G01*
X132822437Y-98832989D01*
X132832381Y-98902147D01*
X132827574Y-98922818D01*
X132768587Y-99104362D01*
X132737500Y-99300639D01*
X132737500Y-99499360D01*
X132768587Y-99695637D01*
X132829993Y-99884628D01*
X132831411Y-99888051D01*
X132838877Y-99957521D01*
X132807600Y-100019999D01*
X132747510Y-100055649D01*
X132716848Y-100059500D01*
X115669057Y-100059500D01*
X115510943Y-100059500D01*
X115358215Y-100100423D01*
X115358214Y-100100423D01*
X115358212Y-100100424D01*
X115358209Y-100100425D01*
X115308096Y-100129359D01*
X115308095Y-100129360D01*
X115264689Y-100154420D01*
X115221285Y-100179479D01*
X115221282Y-100179481D01*
X105512281Y-109888483D01*
X105450958Y-109921968D01*
X105381266Y-109916984D01*
X105325333Y-109875112D01*
X105300916Y-109809648D01*
X105300600Y-109800802D01*
X105300600Y-109647635D01*
X105268575Y-109445443D01*
X105263907Y-109431076D01*
X105261911Y-109361235D01*
X105294155Y-109305078D01*
X115802416Y-98796819D01*
X115863739Y-98763334D01*
X115890097Y-98760500D01*
X132709643Y-98760500D01*
X132776682Y-98780185D01*
G37*
%TD.AperFunction*%
M02*
