M48
; DRILL file KiCad 10.0.5 date 2026-09-30T19:24:28
; FORMAT={-:-/ absolute / metric / decimal}
; #@! TF.CreationDate,2026-09-30T19:24:28-04:00
; #@! TF.GenerationSoftware,Kicad,Pcbnew,10.0.5
; #@! TF.FileFunction,Plated,1,2,PTH
FMAT,2
METRIC
; #@! TA.AperFunction,Plated,PTH,ViaDrill
T1C0.300
; #@! TA.AperFunction,Plated,PTH,ComponentDrill
T2C0.762
; #@! TA.AperFunction,Plated,PTH,ComponentDrill
T3C1.000
; #@! TA.AperFunction,Plated,PTH,ComponentDrill
T4C1.092
; #@! TA.AperFunction,Plated,PTH,ComponentDrill
T5C1.100
; #@! TA.AperFunction,Plated,PTH,ComponentDrill
T6C2.500
%
G90
G05
T1
X109.6Y-83.6
X110.55Y-90.75
X111.526Y-77.605
X113.1Y-85.8
X113.4Y-112.05
X113.65Y-92.7
X113.875Y-89.5
X116.2Y-102.0
X117.65Y-86.95
X119.05Y-76.4
X119.25Y-103.2
X124.35Y-102.0
X124.9Y-76.65
X126.15Y-111.9
X127.05Y-87.65
X127.95Y-79.45
X130.65Y-76.65
X130.65Y-82.5
X140.39Y-88.16
X141.24Y-104.972
X143.19Y-90.46
X143.89Y-110.522
X144.69Y-99.96
X145.89Y-117.672
X145.94Y-92.86
T2
X134.0Y-71.46
X134.0Y-74.0
X134.0Y-76.54
X134.0Y-79.08
X134.0Y-81.62
X134.0Y-84.16
X134.0Y-86.7
X134.0Y-89.24
X134.0Y-91.78
X134.0Y-94.32
X134.0Y-96.86
X134.0Y-99.4
X134.0Y-101.94
X134.0Y-104.48
X134.0Y-107.02
X134.0Y-109.56
X134.0Y-112.1
X134.0Y-114.64
X134.0Y-117.18
X134.0Y-119.72
X149.24Y-71.46
X149.24Y-74.0
X149.24Y-76.54
X149.24Y-79.08
X149.24Y-81.62
X149.24Y-84.16
X149.24Y-86.7
X149.24Y-89.24
X149.24Y-91.78
X149.24Y-94.32
X149.24Y-96.86
X149.24Y-99.4
X149.24Y-101.94
X149.24Y-104.48
X149.24Y-107.02
X149.24Y-109.56
X149.24Y-112.1
X149.24Y-114.64
X149.24Y-117.18
X149.24Y-119.72
T3
X110.87Y-108.55
X113.41Y-108.55
X115.95Y-108.55
X118.49Y-108.55
X121.03Y-108.55
X123.57Y-108.55
X126.11Y-108.55
X128.65Y-108.55
T4
X104.0Y-99.75
X104.0Y-102.25
X104.0Y-104.75
X104.0Y-107.25
X104.0Y-109.75
X104.0Y-112.25
X104.0Y-114.75
X104.0Y-117.25
X104.0Y-119.75
X104.0Y-122.25
T5
X103.95Y-85.4
X103.95Y-87.9
X103.95Y-90.4
X103.95Y-92.9
T6
X112.14Y-121.25
X127.38Y-121.25
M30
