M48
; DRILL file KiCad 10.0.5 date 2026-08-04T20:24:04
; FORMAT={-:-/ absolute / metric / decimal}
; #@! TF.CreationDate,2026-08-04T20:24:04-04:00
; #@! TF.GenerationSoftware,Kicad,Pcbnew,10.0.5
; #@! TF.FileFunction,Plated,1,2,PTH
FMAT,2
METRIC
; #@! TA.AperFunction,Plated,PTH,ViaDrill
T1C0.300
; #@! TA.AperFunction,Plated,PTH,ComponentDrill
T2C0.762
; #@! TA.AperFunction,Plated,PTH,ComponentDrill
T3C1.000
; #@! TA.AperFunction,Plated,PTH,ComponentDrill
T4C1.092
; #@! TA.AperFunction,Plated,PTH,ComponentDrill
T5C1.100
; #@! TA.AperFunction,Plated,PTH,ComponentDrill
T6C2.500
%
G90
G05
T1
X151.55Y-80.35
T2
X134.01Y-66.4
X134.01Y-68.94
X134.01Y-71.48
X134.01Y-74.02
X134.01Y-76.56
X134.01Y-79.1
X134.01Y-81.64
X134.01Y-84.18
X134.01Y-86.72
X134.01Y-89.26
X134.01Y-91.8
X134.01Y-94.34
X134.01Y-96.88
X134.01Y-99.42
X134.01Y-101.96
X134.01Y-104.5
X134.01Y-107.04
X134.01Y-109.58
X134.01Y-112.12
X134.01Y-114.66
X149.25Y-66.4
X149.25Y-68.94
X149.25Y-71.48
X149.25Y-74.02
X149.25Y-76.56
X149.25Y-79.1
X149.25Y-81.64
X149.25Y-84.18
X149.25Y-86.72
X149.25Y-89.26
X149.25Y-91.8
X149.25Y-94.34
X149.25Y-96.88
X149.25Y-99.42
X149.25Y-101.96
X149.25Y-104.5
X149.25Y-107.04
X149.25Y-109.58
X149.25Y-112.12
X149.25Y-114.66
T3
X104.0Y-67.8
X104.0Y-70.34
X104.0Y-72.88
X104.0Y-75.42
X104.0Y-77.96
X104.0Y-80.5
X104.0Y-83.04
X110.86Y-110.4
X113.4Y-110.4
X115.94Y-110.4
X118.48Y-110.4
X121.02Y-110.4
X123.56Y-110.4
X126.1Y-110.4
X128.64Y-110.4
T4
X104.0Y-104.75
X104.0Y-107.25
X104.0Y-109.75
X104.0Y-112.25
X104.0Y-114.75
X104.0Y-117.25
X104.0Y-119.75
X104.0Y-122.25
T5
X104.0Y-90.0
X104.0Y-92.5
X104.0Y-95.0
X104.0Y-97.5
T6
X112.13Y-123.1
X127.37Y-123.1
M30
