%TF.GenerationSoftware,KiCad,Pcbnew,10.0.5*%
%TF.CreationDate,2026-09-25T17:59:38-04:00*%
%TF.ProjectId,DAQBoardFront,44415142-6f61-4726-9446-726f6e742e6b,rev?*%
%TF.SameCoordinates,Original*%
%TF.FileFunction,Legend,Bot*%
%TF.FilePolarity,Positive*%
%FSLAX46Y46*%
G04 Gerber Fmt 4.6, Leading zero omitted, Abs format (unit mm)*
G04 Created by KiCad (PCBNEW 10.0.5) date 2026-09-25 17:59:38*
%MOMM*%
%LPD*%
G01*
G04 APERTURE LIST*
%ADD10C,0.125000*%
%ADD11C,0.150000*%
%ADD12C,0.254000*%
%ADD13C,0.100000*%
%ADD14C,0.508000*%
%ADD15C,0.120000*%
%ADD16C,0.200000*%
%ADD17C,0.152400*%
G04 APERTURE END LIST*
D10*
X123546335Y-102547309D02*
X123403478Y-102594928D01*
X123403478Y-102594928D02*
X123355859Y-102642547D01*
X123355859Y-102642547D02*
X123308240Y-102737785D01*
X123308240Y-102737785D02*
X123308240Y-102880642D01*
X123308240Y-102880642D02*
X123355859Y-102975880D01*
X123355859Y-102975880D02*
X123403478Y-103023500D01*
X123403478Y-103023500D02*
X123498716Y-103071119D01*
X123498716Y-103071119D02*
X123879668Y-103071119D01*
X123879668Y-103071119D02*
X123879668Y-102071119D01*
X123879668Y-102071119D02*
X123546335Y-102071119D01*
X123546335Y-102071119D02*
X123451097Y-102118738D01*
X123451097Y-102118738D02*
X123403478Y-102166357D01*
X123403478Y-102166357D02*
X123355859Y-102261595D01*
X123355859Y-102261595D02*
X123355859Y-102356833D01*
X123355859Y-102356833D02*
X123403478Y-102452071D01*
X123403478Y-102452071D02*
X123451097Y-102499690D01*
X123451097Y-102499690D02*
X123546335Y-102547309D01*
X123546335Y-102547309D02*
X123879668Y-102547309D01*
X122879668Y-102071119D02*
X122879668Y-102880642D01*
X122879668Y-102880642D02*
X122832049Y-102975880D01*
X122832049Y-102975880D02*
X122784430Y-103023500D01*
X122784430Y-103023500D02*
X122689192Y-103071119D01*
X122689192Y-103071119D02*
X122498716Y-103071119D01*
X122498716Y-103071119D02*
X122403478Y-103023500D01*
X122403478Y-103023500D02*
X122355859Y-102975880D01*
X122355859Y-102975880D02*
X122308240Y-102880642D01*
X122308240Y-102880642D02*
X122308240Y-102071119D01*
X121260621Y-102975880D02*
X121308240Y-103023500D01*
X121308240Y-103023500D02*
X121451097Y-103071119D01*
X121451097Y-103071119D02*
X121546335Y-103071119D01*
X121546335Y-103071119D02*
X121689192Y-103023500D01*
X121689192Y-103023500D02*
X121784430Y-102928261D01*
X121784430Y-102928261D02*
X121832049Y-102833023D01*
X121832049Y-102833023D02*
X121879668Y-102642547D01*
X121879668Y-102642547D02*
X121879668Y-102499690D01*
X121879668Y-102499690D02*
X121832049Y-102309214D01*
X121832049Y-102309214D02*
X121784430Y-102213976D01*
X121784430Y-102213976D02*
X121689192Y-102118738D01*
X121689192Y-102118738D02*
X121546335Y-102071119D01*
X121546335Y-102071119D02*
X121451097Y-102071119D01*
X121451097Y-102071119D02*
X121308240Y-102118738D01*
X121308240Y-102118738D02*
X121260621Y-102166357D01*
X120832049Y-103071119D02*
X120832049Y-102071119D01*
X120260621Y-103071119D02*
X120689192Y-102499690D01*
X120260621Y-102071119D02*
X120832049Y-102642547D01*
X118546335Y-103071119D02*
X119117763Y-103071119D01*
X118832049Y-103071119D02*
X118832049Y-102071119D01*
X118832049Y-102071119D02*
X118927287Y-102213976D01*
X118927287Y-102213976D02*
X119022525Y-102309214D01*
X119022525Y-102309214D02*
X119117763Y-102356833D01*
X118165382Y-102166357D02*
X118117763Y-102118738D01*
X118117763Y-102118738D02*
X118022525Y-102071119D01*
X118022525Y-102071119D02*
X117784430Y-102071119D01*
X117784430Y-102071119D02*
X117689192Y-102118738D01*
X117689192Y-102118738D02*
X117641573Y-102166357D01*
X117641573Y-102166357D02*
X117593954Y-102261595D01*
X117593954Y-102261595D02*
X117593954Y-102356833D01*
X117593954Y-102356833D02*
X117641573Y-102499690D01*
X117641573Y-102499690D02*
X118213001Y-103071119D01*
X118213001Y-103071119D02*
X117593954Y-103071119D01*
X117308239Y-102071119D02*
X116974906Y-103071119D01*
X116974906Y-103071119D02*
X116641573Y-102071119D01*
X116308239Y-102690166D02*
X115546335Y-102690166D01*
X115070144Y-102404452D02*
X114308240Y-102690166D01*
X114308240Y-102690166D02*
X115070144Y-102975880D01*
X113355859Y-102071119D02*
X113832049Y-102071119D01*
X113832049Y-102071119D02*
X113879668Y-102547309D01*
X113879668Y-102547309D02*
X113832049Y-102499690D01*
X113832049Y-102499690D02*
X113736811Y-102452071D01*
X113736811Y-102452071D02*
X113498716Y-102452071D01*
X113498716Y-102452071D02*
X113403478Y-102499690D01*
X113403478Y-102499690D02*
X113355859Y-102547309D01*
X113355859Y-102547309D02*
X113308240Y-102642547D01*
X113308240Y-102642547D02*
X113308240Y-102880642D01*
X113308240Y-102880642D02*
X113355859Y-102975880D01*
X113355859Y-102975880D02*
X113403478Y-103023500D01*
X113403478Y-103023500D02*
X113498716Y-103071119D01*
X113498716Y-103071119D02*
X113736811Y-103071119D01*
X113736811Y-103071119D02*
X113832049Y-103023500D01*
X113832049Y-103023500D02*
X113879668Y-102975880D01*
X113022525Y-102071119D02*
X112689192Y-103071119D01*
X112689192Y-103071119D02*
X112355859Y-102071119D01*
D11*
X117159580Y-97583333D02*
X117207200Y-97535714D01*
X117207200Y-97535714D02*
X117254819Y-97392857D01*
X117254819Y-97392857D02*
X117254819Y-97297619D01*
X117254819Y-97297619D02*
X117207200Y-97154762D01*
X117207200Y-97154762D02*
X117111961Y-97059524D01*
X117111961Y-97059524D02*
X117016723Y-97011905D01*
X117016723Y-97011905D02*
X116826247Y-96964286D01*
X116826247Y-96964286D02*
X116683390Y-96964286D01*
X116683390Y-96964286D02*
X116492914Y-97011905D01*
X116492914Y-97011905D02*
X116397676Y-97059524D01*
X116397676Y-97059524D02*
X116302438Y-97154762D01*
X116302438Y-97154762D02*
X116254819Y-97297619D01*
X116254819Y-97297619D02*
X116254819Y-97392857D01*
X116254819Y-97392857D02*
X116302438Y-97535714D01*
X116302438Y-97535714D02*
X116350057Y-97583333D01*
X116254819Y-97916667D02*
X116254819Y-98583333D01*
X116254819Y-98583333D02*
X117254819Y-98154762D01*
X117834819Y-88557142D02*
X117358628Y-88223809D01*
X117834819Y-87985714D02*
X116834819Y-87985714D01*
X116834819Y-87985714D02*
X116834819Y-88366666D01*
X116834819Y-88366666D02*
X116882438Y-88461904D01*
X116882438Y-88461904D02*
X116930057Y-88509523D01*
X116930057Y-88509523D02*
X117025295Y-88557142D01*
X117025295Y-88557142D02*
X117168152Y-88557142D01*
X117168152Y-88557142D02*
X117263390Y-88509523D01*
X117263390Y-88509523D02*
X117311009Y-88461904D01*
X117311009Y-88461904D02*
X117358628Y-88366666D01*
X117358628Y-88366666D02*
X117358628Y-87985714D01*
X117834819Y-89509523D02*
X117834819Y-88938095D01*
X117834819Y-89223809D02*
X116834819Y-89223809D01*
X116834819Y-89223809D02*
X116977676Y-89128571D01*
X116977676Y-89128571D02*
X117072914Y-89033333D01*
X117072914Y-89033333D02*
X117120533Y-88938095D01*
X117834819Y-90461904D02*
X117834819Y-89890476D01*
X117834819Y-90176190D02*
X116834819Y-90176190D01*
X116834819Y-90176190D02*
X116977676Y-90080952D01*
X116977676Y-90080952D02*
X117072914Y-89985714D01*
X117072914Y-89985714D02*
X117120533Y-89890476D01*
X140074819Y-90493333D02*
X139598628Y-90160000D01*
X140074819Y-89921905D02*
X139074819Y-89921905D01*
X139074819Y-89921905D02*
X139074819Y-90302857D01*
X139074819Y-90302857D02*
X139122438Y-90398095D01*
X139122438Y-90398095D02*
X139170057Y-90445714D01*
X139170057Y-90445714D02*
X139265295Y-90493333D01*
X139265295Y-90493333D02*
X139408152Y-90493333D01*
X139408152Y-90493333D02*
X139503390Y-90445714D01*
X139503390Y-90445714D02*
X139551009Y-90398095D01*
X139551009Y-90398095D02*
X139598628Y-90302857D01*
X139598628Y-90302857D02*
X139598628Y-89921905D01*
X139074819Y-91398095D02*
X139074819Y-90921905D01*
X139074819Y-90921905D02*
X139551009Y-90874286D01*
X139551009Y-90874286D02*
X139503390Y-90921905D01*
X139503390Y-90921905D02*
X139455771Y-91017143D01*
X139455771Y-91017143D02*
X139455771Y-91255238D01*
X139455771Y-91255238D02*
X139503390Y-91350476D01*
X139503390Y-91350476D02*
X139551009Y-91398095D01*
X139551009Y-91398095D02*
X139646247Y-91445714D01*
X139646247Y-91445714D02*
X139884342Y-91445714D01*
X139884342Y-91445714D02*
X139979580Y-91398095D01*
X139979580Y-91398095D02*
X140027200Y-91350476D01*
X140027200Y-91350476D02*
X140074819Y-91255238D01*
X140074819Y-91255238D02*
X140074819Y-91017143D01*
X140074819Y-91017143D02*
X140027200Y-90921905D01*
X140027200Y-90921905D02*
X139979580Y-90874286D01*
X105734819Y-94907142D02*
X105258628Y-94573809D01*
X105734819Y-94335714D02*
X104734819Y-94335714D01*
X104734819Y-94335714D02*
X104734819Y-94716666D01*
X104734819Y-94716666D02*
X104782438Y-94811904D01*
X104782438Y-94811904D02*
X104830057Y-94859523D01*
X104830057Y-94859523D02*
X104925295Y-94907142D01*
X104925295Y-94907142D02*
X105068152Y-94907142D01*
X105068152Y-94907142D02*
X105163390Y-94859523D01*
X105163390Y-94859523D02*
X105211009Y-94811904D01*
X105211009Y-94811904D02*
X105258628Y-94716666D01*
X105258628Y-94716666D02*
X105258628Y-94335714D01*
X105734819Y-95859523D02*
X105734819Y-95288095D01*
X105734819Y-95573809D02*
X104734819Y-95573809D01*
X104734819Y-95573809D02*
X104877676Y-95478571D01*
X104877676Y-95478571D02*
X104972914Y-95383333D01*
X104972914Y-95383333D02*
X105020533Y-95288095D01*
X104734819Y-96716666D02*
X104734819Y-96526190D01*
X104734819Y-96526190D02*
X104782438Y-96430952D01*
X104782438Y-96430952D02*
X104830057Y-96383333D01*
X104830057Y-96383333D02*
X104972914Y-96288095D01*
X104972914Y-96288095D02*
X105163390Y-96240476D01*
X105163390Y-96240476D02*
X105544342Y-96240476D01*
X105544342Y-96240476D02*
X105639580Y-96288095D01*
X105639580Y-96288095D02*
X105687200Y-96335714D01*
X105687200Y-96335714D02*
X105734819Y-96430952D01*
X105734819Y-96430952D02*
X105734819Y-96621428D01*
X105734819Y-96621428D02*
X105687200Y-96716666D01*
X105687200Y-96716666D02*
X105639580Y-96764285D01*
X105639580Y-96764285D02*
X105544342Y-96811904D01*
X105544342Y-96811904D02*
X105306247Y-96811904D01*
X105306247Y-96811904D02*
X105211009Y-96764285D01*
X105211009Y-96764285D02*
X105163390Y-96716666D01*
X105163390Y-96716666D02*
X105115771Y-96621428D01*
X105115771Y-96621428D02*
X105115771Y-96430952D01*
X105115771Y-96430952D02*
X105163390Y-96335714D01*
X105163390Y-96335714D02*
X105211009Y-96288095D01*
X105211009Y-96288095D02*
X105306247Y-96240476D01*
X110334819Y-73157142D02*
X109858628Y-72823809D01*
X110334819Y-72585714D02*
X109334819Y-72585714D01*
X109334819Y-72585714D02*
X109334819Y-72966666D01*
X109334819Y-72966666D02*
X109382438Y-73061904D01*
X109382438Y-73061904D02*
X109430057Y-73109523D01*
X109430057Y-73109523D02*
X109525295Y-73157142D01*
X109525295Y-73157142D02*
X109668152Y-73157142D01*
X109668152Y-73157142D02*
X109763390Y-73109523D01*
X109763390Y-73109523D02*
X109811009Y-73061904D01*
X109811009Y-73061904D02*
X109858628Y-72966666D01*
X109858628Y-72966666D02*
X109858628Y-72585714D01*
X110334819Y-74109523D02*
X110334819Y-73538095D01*
X110334819Y-73823809D02*
X109334819Y-73823809D01*
X109334819Y-73823809D02*
X109477676Y-73728571D01*
X109477676Y-73728571D02*
X109572914Y-73633333D01*
X109572914Y-73633333D02*
X109620533Y-73538095D01*
X109334819Y-74442857D02*
X109334819Y-75061904D01*
X109334819Y-75061904D02*
X109715771Y-74728571D01*
X109715771Y-74728571D02*
X109715771Y-74871428D01*
X109715771Y-74871428D02*
X109763390Y-74966666D01*
X109763390Y-74966666D02*
X109811009Y-75014285D01*
X109811009Y-75014285D02*
X109906247Y-75061904D01*
X109906247Y-75061904D02*
X110144342Y-75061904D01*
X110144342Y-75061904D02*
X110239580Y-75014285D01*
X110239580Y-75014285D02*
X110287200Y-74966666D01*
X110287200Y-74966666D02*
X110334819Y-74871428D01*
X110334819Y-74871428D02*
X110334819Y-74585714D01*
X110334819Y-74585714D02*
X110287200Y-74490476D01*
X110287200Y-74490476D02*
X110239580Y-74442857D01*
X109509580Y-88333333D02*
X109557200Y-88285714D01*
X109557200Y-88285714D02*
X109604819Y-88142857D01*
X109604819Y-88142857D02*
X109604819Y-88047619D01*
X109604819Y-88047619D02*
X109557200Y-87904762D01*
X109557200Y-87904762D02*
X109461961Y-87809524D01*
X109461961Y-87809524D02*
X109366723Y-87761905D01*
X109366723Y-87761905D02*
X109176247Y-87714286D01*
X109176247Y-87714286D02*
X109033390Y-87714286D01*
X109033390Y-87714286D02*
X108842914Y-87761905D01*
X108842914Y-87761905D02*
X108747676Y-87809524D01*
X108747676Y-87809524D02*
X108652438Y-87904762D01*
X108652438Y-87904762D02*
X108604819Y-88047619D01*
X108604819Y-88047619D02*
X108604819Y-88142857D01*
X108604819Y-88142857D02*
X108652438Y-88285714D01*
X108652438Y-88285714D02*
X108700057Y-88333333D01*
X109033390Y-88904762D02*
X108985771Y-88809524D01*
X108985771Y-88809524D02*
X108938152Y-88761905D01*
X108938152Y-88761905D02*
X108842914Y-88714286D01*
X108842914Y-88714286D02*
X108795295Y-88714286D01*
X108795295Y-88714286D02*
X108700057Y-88761905D01*
X108700057Y-88761905D02*
X108652438Y-88809524D01*
X108652438Y-88809524D02*
X108604819Y-88904762D01*
X108604819Y-88904762D02*
X108604819Y-89095238D01*
X108604819Y-89095238D02*
X108652438Y-89190476D01*
X108652438Y-89190476D02*
X108700057Y-89238095D01*
X108700057Y-89238095D02*
X108795295Y-89285714D01*
X108795295Y-89285714D02*
X108842914Y-89285714D01*
X108842914Y-89285714D02*
X108938152Y-89238095D01*
X108938152Y-89238095D02*
X108985771Y-89190476D01*
X108985771Y-89190476D02*
X109033390Y-89095238D01*
X109033390Y-89095238D02*
X109033390Y-88904762D01*
X109033390Y-88904762D02*
X109081009Y-88809524D01*
X109081009Y-88809524D02*
X109128628Y-88761905D01*
X109128628Y-88761905D02*
X109223866Y-88714286D01*
X109223866Y-88714286D02*
X109414342Y-88714286D01*
X109414342Y-88714286D02*
X109509580Y-88761905D01*
X109509580Y-88761905D02*
X109557200Y-88809524D01*
X109557200Y-88809524D02*
X109604819Y-88904762D01*
X109604819Y-88904762D02*
X109604819Y-89095238D01*
X109604819Y-89095238D02*
X109557200Y-89190476D01*
X109557200Y-89190476D02*
X109509580Y-89238095D01*
X109509580Y-89238095D02*
X109414342Y-89285714D01*
X109414342Y-89285714D02*
X109223866Y-89285714D01*
X109223866Y-89285714D02*
X109128628Y-89238095D01*
X109128628Y-89238095D02*
X109081009Y-89190476D01*
X109081009Y-89190476D02*
X109033390Y-89095238D01*
D12*
X143764318Y-88372618D02*
X142494318Y-88372618D01*
X142494318Y-88372618D02*
X142494318Y-88674999D01*
X142494318Y-88674999D02*
X142554794Y-88856428D01*
X142554794Y-88856428D02*
X142675746Y-88977380D01*
X142675746Y-88977380D02*
X142796699Y-89037857D01*
X142796699Y-89037857D02*
X143038603Y-89098333D01*
X143038603Y-89098333D02*
X143220032Y-89098333D01*
X143220032Y-89098333D02*
X143461937Y-89037857D01*
X143461937Y-89037857D02*
X143582889Y-88977380D01*
X143582889Y-88977380D02*
X143703842Y-88856428D01*
X143703842Y-88856428D02*
X143764318Y-88674999D01*
X143764318Y-88674999D02*
X143764318Y-88372618D01*
X142494318Y-89521666D02*
X142494318Y-90307857D01*
X142494318Y-90307857D02*
X142978127Y-89884523D01*
X142978127Y-89884523D02*
X142978127Y-90065952D01*
X142978127Y-90065952D02*
X143038603Y-90186904D01*
X143038603Y-90186904D02*
X143099080Y-90247380D01*
X143099080Y-90247380D02*
X143220032Y-90307857D01*
X143220032Y-90307857D02*
X143522413Y-90307857D01*
X143522413Y-90307857D02*
X143643365Y-90247380D01*
X143643365Y-90247380D02*
X143703842Y-90186904D01*
X143703842Y-90186904D02*
X143764318Y-90065952D01*
X143764318Y-90065952D02*
X143764318Y-89703095D01*
X143764318Y-89703095D02*
X143703842Y-89582142D01*
X143703842Y-89582142D02*
X143643365Y-89521666D01*
D11*
X144819580Y-116643333D02*
X144867200Y-116595714D01*
X144867200Y-116595714D02*
X144914819Y-116452857D01*
X144914819Y-116452857D02*
X144914819Y-116357619D01*
X144914819Y-116357619D02*
X144867200Y-116214762D01*
X144867200Y-116214762D02*
X144771961Y-116119524D01*
X144771961Y-116119524D02*
X144676723Y-116071905D01*
X144676723Y-116071905D02*
X144486247Y-116024286D01*
X144486247Y-116024286D02*
X144343390Y-116024286D01*
X144343390Y-116024286D02*
X144152914Y-116071905D01*
X144152914Y-116071905D02*
X144057676Y-116119524D01*
X144057676Y-116119524D02*
X143962438Y-116214762D01*
X143962438Y-116214762D02*
X143914819Y-116357619D01*
X143914819Y-116357619D02*
X143914819Y-116452857D01*
X143914819Y-116452857D02*
X143962438Y-116595714D01*
X143962438Y-116595714D02*
X144010057Y-116643333D01*
X143914819Y-116976667D02*
X143914819Y-117595714D01*
X143914819Y-117595714D02*
X144295771Y-117262381D01*
X144295771Y-117262381D02*
X144295771Y-117405238D01*
X144295771Y-117405238D02*
X144343390Y-117500476D01*
X144343390Y-117500476D02*
X144391009Y-117548095D01*
X144391009Y-117548095D02*
X144486247Y-117595714D01*
X144486247Y-117595714D02*
X144724342Y-117595714D01*
X144724342Y-117595714D02*
X144819580Y-117548095D01*
X144819580Y-117548095D02*
X144867200Y-117500476D01*
X144867200Y-117500476D02*
X144914819Y-117405238D01*
X144914819Y-117405238D02*
X144914819Y-117119524D01*
X144914819Y-117119524D02*
X144867200Y-117024286D01*
X144867200Y-117024286D02*
X144819580Y-116976667D01*
X142644819Y-120943333D02*
X142644819Y-120467143D01*
X142644819Y-120467143D02*
X141644819Y-120467143D01*
X141740057Y-121229048D02*
X141692438Y-121276667D01*
X141692438Y-121276667D02*
X141644819Y-121371905D01*
X141644819Y-121371905D02*
X141644819Y-121610000D01*
X141644819Y-121610000D02*
X141692438Y-121705238D01*
X141692438Y-121705238D02*
X141740057Y-121752857D01*
X141740057Y-121752857D02*
X141835295Y-121800476D01*
X141835295Y-121800476D02*
X141930533Y-121800476D01*
X141930533Y-121800476D02*
X142073390Y-121752857D01*
X142073390Y-121752857D02*
X142644819Y-121181429D01*
X142644819Y-121181429D02*
X142644819Y-121800476D01*
X151924819Y-113983333D02*
X151448628Y-113650000D01*
X151924819Y-113411905D02*
X150924819Y-113411905D01*
X150924819Y-113411905D02*
X150924819Y-113792857D01*
X150924819Y-113792857D02*
X150972438Y-113888095D01*
X150972438Y-113888095D02*
X151020057Y-113935714D01*
X151020057Y-113935714D02*
X151115295Y-113983333D01*
X151115295Y-113983333D02*
X151258152Y-113983333D01*
X151258152Y-113983333D02*
X151353390Y-113935714D01*
X151353390Y-113935714D02*
X151401009Y-113888095D01*
X151401009Y-113888095D02*
X151448628Y-113792857D01*
X151448628Y-113792857D02*
X151448628Y-113411905D01*
X151924819Y-114935714D02*
X151924819Y-114364286D01*
X151924819Y-114650000D02*
X150924819Y-114650000D01*
X150924819Y-114650000D02*
X151067676Y-114554762D01*
X151067676Y-114554762D02*
X151162914Y-114459524D01*
X151162914Y-114459524D02*
X151210533Y-114364286D01*
D12*
X115589762Y-85424318D02*
X115589762Y-84154318D01*
X114259285Y-85303365D02*
X114319761Y-85363842D01*
X114319761Y-85363842D02*
X114501190Y-85424318D01*
X114501190Y-85424318D02*
X114622142Y-85424318D01*
X114622142Y-85424318D02*
X114803571Y-85363842D01*
X114803571Y-85363842D02*
X114924523Y-85242889D01*
X114924523Y-85242889D02*
X114985000Y-85121937D01*
X114985000Y-85121937D02*
X115045476Y-84880032D01*
X115045476Y-84880032D02*
X115045476Y-84698603D01*
X115045476Y-84698603D02*
X114985000Y-84456699D01*
X114985000Y-84456699D02*
X114924523Y-84335746D01*
X114924523Y-84335746D02*
X114803571Y-84214794D01*
X114803571Y-84214794D02*
X114622142Y-84154318D01*
X114622142Y-84154318D02*
X114501190Y-84154318D01*
X114501190Y-84154318D02*
X114319761Y-84214794D01*
X114319761Y-84214794D02*
X114259285Y-84275270D01*
X113775476Y-84275270D02*
X113715000Y-84214794D01*
X113715000Y-84214794D02*
X113594047Y-84154318D01*
X113594047Y-84154318D02*
X113291666Y-84154318D01*
X113291666Y-84154318D02*
X113170714Y-84214794D01*
X113170714Y-84214794D02*
X113110238Y-84275270D01*
X113110238Y-84275270D02*
X113049761Y-84396222D01*
X113049761Y-84396222D02*
X113049761Y-84517175D01*
X113049761Y-84517175D02*
X113110238Y-84698603D01*
X113110238Y-84698603D02*
X113835952Y-85424318D01*
X113835952Y-85424318D02*
X113049761Y-85424318D01*
D11*
X142819580Y-109493333D02*
X142867200Y-109445714D01*
X142867200Y-109445714D02*
X142914819Y-109302857D01*
X142914819Y-109302857D02*
X142914819Y-109207619D01*
X142914819Y-109207619D02*
X142867200Y-109064762D01*
X142867200Y-109064762D02*
X142771961Y-108969524D01*
X142771961Y-108969524D02*
X142676723Y-108921905D01*
X142676723Y-108921905D02*
X142486247Y-108874286D01*
X142486247Y-108874286D02*
X142343390Y-108874286D01*
X142343390Y-108874286D02*
X142152914Y-108921905D01*
X142152914Y-108921905D02*
X142057676Y-108969524D01*
X142057676Y-108969524D02*
X141962438Y-109064762D01*
X141962438Y-109064762D02*
X141914819Y-109207619D01*
X141914819Y-109207619D02*
X141914819Y-109302857D01*
X141914819Y-109302857D02*
X141962438Y-109445714D01*
X141962438Y-109445714D02*
X142010057Y-109493333D01*
X142248152Y-110350476D02*
X142914819Y-110350476D01*
X141867200Y-110112381D02*
X142581485Y-109874286D01*
X142581485Y-109874286D02*
X142581485Y-110493333D01*
X155874819Y-82893333D02*
X155398628Y-82560000D01*
X155874819Y-82321905D02*
X154874819Y-82321905D01*
X154874819Y-82321905D02*
X154874819Y-82702857D01*
X154874819Y-82702857D02*
X154922438Y-82798095D01*
X154922438Y-82798095D02*
X154970057Y-82845714D01*
X154970057Y-82845714D02*
X155065295Y-82893333D01*
X155065295Y-82893333D02*
X155208152Y-82893333D01*
X155208152Y-82893333D02*
X155303390Y-82845714D01*
X155303390Y-82845714D02*
X155351009Y-82798095D01*
X155351009Y-82798095D02*
X155398628Y-82702857D01*
X155398628Y-82702857D02*
X155398628Y-82321905D01*
X154874819Y-83226667D02*
X154874819Y-83893333D01*
X154874819Y-83893333D02*
X155874819Y-83464762D01*
D13*
X99157419Y-78413095D02*
X99157419Y-78984523D01*
X100157419Y-78698809D02*
X99157419Y-78698809D01*
X100157419Y-79841666D02*
X100157419Y-79270238D01*
X100157419Y-79555952D02*
X99157419Y-79555952D01*
X99157419Y-79555952D02*
X99300276Y-79460714D01*
X99300276Y-79460714D02*
X99395514Y-79365476D01*
X99395514Y-79365476D02*
X99443133Y-79270238D01*
D11*
X110334819Y-76907142D02*
X109858628Y-76573809D01*
X110334819Y-76335714D02*
X109334819Y-76335714D01*
X109334819Y-76335714D02*
X109334819Y-76716666D01*
X109334819Y-76716666D02*
X109382438Y-76811904D01*
X109382438Y-76811904D02*
X109430057Y-76859523D01*
X109430057Y-76859523D02*
X109525295Y-76907142D01*
X109525295Y-76907142D02*
X109668152Y-76907142D01*
X109668152Y-76907142D02*
X109763390Y-76859523D01*
X109763390Y-76859523D02*
X109811009Y-76811904D01*
X109811009Y-76811904D02*
X109858628Y-76716666D01*
X109858628Y-76716666D02*
X109858628Y-76335714D01*
X110334819Y-77859523D02*
X110334819Y-77288095D01*
X110334819Y-77573809D02*
X109334819Y-77573809D01*
X109334819Y-77573809D02*
X109477676Y-77478571D01*
X109477676Y-77478571D02*
X109572914Y-77383333D01*
X109572914Y-77383333D02*
X109620533Y-77288095D01*
X109668152Y-78716666D02*
X110334819Y-78716666D01*
X109287200Y-78478571D02*
X110001485Y-78240476D01*
X110001485Y-78240476D02*
X110001485Y-78859523D01*
X140169580Y-103943333D02*
X140217200Y-103895714D01*
X140217200Y-103895714D02*
X140264819Y-103752857D01*
X140264819Y-103752857D02*
X140264819Y-103657619D01*
X140264819Y-103657619D02*
X140217200Y-103514762D01*
X140217200Y-103514762D02*
X140121961Y-103419524D01*
X140121961Y-103419524D02*
X140026723Y-103371905D01*
X140026723Y-103371905D02*
X139836247Y-103324286D01*
X139836247Y-103324286D02*
X139693390Y-103324286D01*
X139693390Y-103324286D02*
X139502914Y-103371905D01*
X139502914Y-103371905D02*
X139407676Y-103419524D01*
X139407676Y-103419524D02*
X139312438Y-103514762D01*
X139312438Y-103514762D02*
X139264819Y-103657619D01*
X139264819Y-103657619D02*
X139264819Y-103752857D01*
X139264819Y-103752857D02*
X139312438Y-103895714D01*
X139312438Y-103895714D02*
X139360057Y-103943333D01*
X139264819Y-104848095D02*
X139264819Y-104371905D01*
X139264819Y-104371905D02*
X139741009Y-104324286D01*
X139741009Y-104324286D02*
X139693390Y-104371905D01*
X139693390Y-104371905D02*
X139645771Y-104467143D01*
X139645771Y-104467143D02*
X139645771Y-104705238D01*
X139645771Y-104705238D02*
X139693390Y-104800476D01*
X139693390Y-104800476D02*
X139741009Y-104848095D01*
X139741009Y-104848095D02*
X139836247Y-104895714D01*
X139836247Y-104895714D02*
X140074342Y-104895714D01*
X140074342Y-104895714D02*
X140169580Y-104848095D01*
X140169580Y-104848095D02*
X140217200Y-104800476D01*
X140217200Y-104800476D02*
X140264819Y-104705238D01*
X140264819Y-104705238D02*
X140264819Y-104467143D01*
X140264819Y-104467143D02*
X140217200Y-104371905D01*
X140217200Y-104371905D02*
X140169580Y-104324286D01*
X154529580Y-113943333D02*
X154577200Y-113895714D01*
X154577200Y-113895714D02*
X154624819Y-113752857D01*
X154624819Y-113752857D02*
X154624819Y-113657619D01*
X154624819Y-113657619D02*
X154577200Y-113514762D01*
X154577200Y-113514762D02*
X154481961Y-113419524D01*
X154481961Y-113419524D02*
X154386723Y-113371905D01*
X154386723Y-113371905D02*
X154196247Y-113324286D01*
X154196247Y-113324286D02*
X154053390Y-113324286D01*
X154053390Y-113324286D02*
X153862914Y-113371905D01*
X153862914Y-113371905D02*
X153767676Y-113419524D01*
X153767676Y-113419524D02*
X153672438Y-113514762D01*
X153672438Y-113514762D02*
X153624819Y-113657619D01*
X153624819Y-113657619D02*
X153624819Y-113752857D01*
X153624819Y-113752857D02*
X153672438Y-113895714D01*
X153672438Y-113895714D02*
X153720057Y-113943333D01*
X153720057Y-114324286D02*
X153672438Y-114371905D01*
X153672438Y-114371905D02*
X153624819Y-114467143D01*
X153624819Y-114467143D02*
X153624819Y-114705238D01*
X153624819Y-114705238D02*
X153672438Y-114800476D01*
X153672438Y-114800476D02*
X153720057Y-114848095D01*
X153720057Y-114848095D02*
X153815295Y-114895714D01*
X153815295Y-114895714D02*
X153910533Y-114895714D01*
X153910533Y-114895714D02*
X154053390Y-114848095D01*
X154053390Y-114848095D02*
X154624819Y-114276667D01*
X154624819Y-114276667D02*
X154624819Y-114895714D01*
X108634819Y-94907142D02*
X108158628Y-94573809D01*
X108634819Y-94335714D02*
X107634819Y-94335714D01*
X107634819Y-94335714D02*
X107634819Y-94716666D01*
X107634819Y-94716666D02*
X107682438Y-94811904D01*
X107682438Y-94811904D02*
X107730057Y-94859523D01*
X107730057Y-94859523D02*
X107825295Y-94907142D01*
X107825295Y-94907142D02*
X107968152Y-94907142D01*
X107968152Y-94907142D02*
X108063390Y-94859523D01*
X108063390Y-94859523D02*
X108111009Y-94811904D01*
X108111009Y-94811904D02*
X108158628Y-94716666D01*
X108158628Y-94716666D02*
X108158628Y-94335714D01*
X108634819Y-95859523D02*
X108634819Y-95288095D01*
X108634819Y-95573809D02*
X107634819Y-95573809D01*
X107634819Y-95573809D02*
X107777676Y-95478571D01*
X107777676Y-95478571D02*
X107872914Y-95383333D01*
X107872914Y-95383333D02*
X107920533Y-95288095D01*
X107634819Y-96192857D02*
X107634819Y-96859523D01*
X107634819Y-96859523D02*
X108634819Y-96430952D01*
X140464819Y-109493333D02*
X139988628Y-109160000D01*
X140464819Y-108921905D02*
X139464819Y-108921905D01*
X139464819Y-108921905D02*
X139464819Y-109302857D01*
X139464819Y-109302857D02*
X139512438Y-109398095D01*
X139512438Y-109398095D02*
X139560057Y-109445714D01*
X139560057Y-109445714D02*
X139655295Y-109493333D01*
X139655295Y-109493333D02*
X139798152Y-109493333D01*
X139798152Y-109493333D02*
X139893390Y-109445714D01*
X139893390Y-109445714D02*
X139941009Y-109398095D01*
X139941009Y-109398095D02*
X139988628Y-109302857D01*
X139988628Y-109302857D02*
X139988628Y-108921905D01*
X139464819Y-109826667D02*
X139464819Y-110445714D01*
X139464819Y-110445714D02*
X139845771Y-110112381D01*
X139845771Y-110112381D02*
X139845771Y-110255238D01*
X139845771Y-110255238D02*
X139893390Y-110350476D01*
X139893390Y-110350476D02*
X139941009Y-110398095D01*
X139941009Y-110398095D02*
X140036247Y-110445714D01*
X140036247Y-110445714D02*
X140274342Y-110445714D01*
X140274342Y-110445714D02*
X140369580Y-110398095D01*
X140369580Y-110398095D02*
X140417200Y-110350476D01*
X140417200Y-110350476D02*
X140464819Y-110255238D01*
X140464819Y-110255238D02*
X140464819Y-109969524D01*
X140464819Y-109969524D02*
X140417200Y-109874286D01*
X140417200Y-109874286D02*
X140369580Y-109826667D01*
D13*
X106507419Y-97238095D02*
X106507419Y-97809523D01*
X107507419Y-97523809D02*
X106507419Y-97523809D01*
X106602657Y-98095238D02*
X106555038Y-98142857D01*
X106555038Y-98142857D02*
X106507419Y-98238095D01*
X106507419Y-98238095D02*
X106507419Y-98476190D01*
X106507419Y-98476190D02*
X106555038Y-98571428D01*
X106555038Y-98571428D02*
X106602657Y-98619047D01*
X106602657Y-98619047D02*
X106697895Y-98666666D01*
X106697895Y-98666666D02*
X106793133Y-98666666D01*
X106793133Y-98666666D02*
X106935990Y-98619047D01*
X106935990Y-98619047D02*
X107507419Y-98047619D01*
X107507419Y-98047619D02*
X107507419Y-98666666D01*
X107722419Y-100646741D02*
X107960514Y-100646741D01*
X107865276Y-100408646D02*
X107960514Y-100646741D01*
X107960514Y-100646741D02*
X107865276Y-100884836D01*
X108150990Y-100503884D02*
X107960514Y-100646741D01*
X107960514Y-100646741D02*
X108150990Y-100789598D01*
D11*
X113816666Y-95359580D02*
X113864285Y-95407200D01*
X113864285Y-95407200D02*
X114007142Y-95454819D01*
X114007142Y-95454819D02*
X114102380Y-95454819D01*
X114102380Y-95454819D02*
X114245237Y-95407200D01*
X114245237Y-95407200D02*
X114340475Y-95311961D01*
X114340475Y-95311961D02*
X114388094Y-95216723D01*
X114388094Y-95216723D02*
X114435713Y-95026247D01*
X114435713Y-95026247D02*
X114435713Y-94883390D01*
X114435713Y-94883390D02*
X114388094Y-94692914D01*
X114388094Y-94692914D02*
X114340475Y-94597676D01*
X114340475Y-94597676D02*
X114245237Y-94502438D01*
X114245237Y-94502438D02*
X114102380Y-94454819D01*
X114102380Y-94454819D02*
X114007142Y-94454819D01*
X114007142Y-94454819D02*
X113864285Y-94502438D01*
X113864285Y-94502438D02*
X113816666Y-94550057D01*
X112959523Y-94454819D02*
X113149999Y-94454819D01*
X113149999Y-94454819D02*
X113245237Y-94502438D01*
X113245237Y-94502438D02*
X113292856Y-94550057D01*
X113292856Y-94550057D02*
X113388094Y-94692914D01*
X113388094Y-94692914D02*
X113435713Y-94883390D01*
X113435713Y-94883390D02*
X113435713Y-95264342D01*
X113435713Y-95264342D02*
X113388094Y-95359580D01*
X113388094Y-95359580D02*
X113340475Y-95407200D01*
X113340475Y-95407200D02*
X113245237Y-95454819D01*
X113245237Y-95454819D02*
X113054761Y-95454819D01*
X113054761Y-95454819D02*
X112959523Y-95407200D01*
X112959523Y-95407200D02*
X112911904Y-95359580D01*
X112911904Y-95359580D02*
X112864285Y-95264342D01*
X112864285Y-95264342D02*
X112864285Y-95026247D01*
X112864285Y-95026247D02*
X112911904Y-94931009D01*
X112911904Y-94931009D02*
X112959523Y-94883390D01*
X112959523Y-94883390D02*
X113054761Y-94835771D01*
X113054761Y-94835771D02*
X113245237Y-94835771D01*
X113245237Y-94835771D02*
X113340475Y-94883390D01*
X113340475Y-94883390D02*
X113388094Y-94931009D01*
X113388094Y-94931009D02*
X113435713Y-95026247D01*
X108542857Y-95184819D02*
X108876190Y-94708628D01*
X109114285Y-95184819D02*
X109114285Y-94184819D01*
X109114285Y-94184819D02*
X108733333Y-94184819D01*
X108733333Y-94184819D02*
X108638095Y-94232438D01*
X108638095Y-94232438D02*
X108590476Y-94280057D01*
X108590476Y-94280057D02*
X108542857Y-94375295D01*
X108542857Y-94375295D02*
X108542857Y-94518152D01*
X108542857Y-94518152D02*
X108590476Y-94613390D01*
X108590476Y-94613390D02*
X108638095Y-94661009D01*
X108638095Y-94661009D02*
X108733333Y-94708628D01*
X108733333Y-94708628D02*
X109114285Y-94708628D01*
X107590476Y-95184819D02*
X108161904Y-95184819D01*
X107876190Y-95184819D02*
X107876190Y-94184819D01*
X107876190Y-94184819D02*
X107971428Y-94327676D01*
X107971428Y-94327676D02*
X108066666Y-94422914D01*
X108066666Y-94422914D02*
X108161904Y-94470533D01*
X106685714Y-94184819D02*
X107161904Y-94184819D01*
X107161904Y-94184819D02*
X107209523Y-94661009D01*
X107209523Y-94661009D02*
X107161904Y-94613390D01*
X107161904Y-94613390D02*
X107066666Y-94565771D01*
X107066666Y-94565771D02*
X106828571Y-94565771D01*
X106828571Y-94565771D02*
X106733333Y-94613390D01*
X106733333Y-94613390D02*
X106685714Y-94661009D01*
X106685714Y-94661009D02*
X106638095Y-94756247D01*
X106638095Y-94756247D02*
X106638095Y-94994342D01*
X106638095Y-94994342D02*
X106685714Y-95089580D01*
X106685714Y-95089580D02*
X106733333Y-95137200D01*
X106733333Y-95137200D02*
X106828571Y-95184819D01*
X106828571Y-95184819D02*
X107066666Y-95184819D01*
X107066666Y-95184819D02*
X107161904Y-95137200D01*
X107161904Y-95137200D02*
X107209523Y-95089580D01*
X142924819Y-92743333D02*
X142448628Y-92410000D01*
X142924819Y-92171905D02*
X141924819Y-92171905D01*
X141924819Y-92171905D02*
X141924819Y-92552857D01*
X141924819Y-92552857D02*
X141972438Y-92648095D01*
X141972438Y-92648095D02*
X142020057Y-92695714D01*
X142020057Y-92695714D02*
X142115295Y-92743333D01*
X142115295Y-92743333D02*
X142258152Y-92743333D01*
X142258152Y-92743333D02*
X142353390Y-92695714D01*
X142353390Y-92695714D02*
X142401009Y-92648095D01*
X142401009Y-92648095D02*
X142448628Y-92552857D01*
X142448628Y-92552857D02*
X142448628Y-92171905D01*
X142353390Y-93314762D02*
X142305771Y-93219524D01*
X142305771Y-93219524D02*
X142258152Y-93171905D01*
X142258152Y-93171905D02*
X142162914Y-93124286D01*
X142162914Y-93124286D02*
X142115295Y-93124286D01*
X142115295Y-93124286D02*
X142020057Y-93171905D01*
X142020057Y-93171905D02*
X141972438Y-93219524D01*
X141972438Y-93219524D02*
X141924819Y-93314762D01*
X141924819Y-93314762D02*
X141924819Y-93505238D01*
X141924819Y-93505238D02*
X141972438Y-93600476D01*
X141972438Y-93600476D02*
X142020057Y-93648095D01*
X142020057Y-93648095D02*
X142115295Y-93695714D01*
X142115295Y-93695714D02*
X142162914Y-93695714D01*
X142162914Y-93695714D02*
X142258152Y-93648095D01*
X142258152Y-93648095D02*
X142305771Y-93600476D01*
X142305771Y-93600476D02*
X142353390Y-93505238D01*
X142353390Y-93505238D02*
X142353390Y-93314762D01*
X142353390Y-93314762D02*
X142401009Y-93219524D01*
X142401009Y-93219524D02*
X142448628Y-93171905D01*
X142448628Y-93171905D02*
X142543866Y-93124286D01*
X142543866Y-93124286D02*
X142734342Y-93124286D01*
X142734342Y-93124286D02*
X142829580Y-93171905D01*
X142829580Y-93171905D02*
X142877200Y-93219524D01*
X142877200Y-93219524D02*
X142924819Y-93314762D01*
X142924819Y-93314762D02*
X142924819Y-93505238D01*
X142924819Y-93505238D02*
X142877200Y-93600476D01*
X142877200Y-93600476D02*
X142829580Y-93648095D01*
X142829580Y-93648095D02*
X142734342Y-93695714D01*
X142734342Y-93695714D02*
X142543866Y-93695714D01*
X142543866Y-93695714D02*
X142448628Y-93648095D01*
X142448628Y-93648095D02*
X142401009Y-93600476D01*
X142401009Y-93600476D02*
X142353390Y-93505238D01*
X110292857Y-100784819D02*
X110626190Y-100308628D01*
X110864285Y-100784819D02*
X110864285Y-99784819D01*
X110864285Y-99784819D02*
X110483333Y-99784819D01*
X110483333Y-99784819D02*
X110388095Y-99832438D01*
X110388095Y-99832438D02*
X110340476Y-99880057D01*
X110340476Y-99880057D02*
X110292857Y-99975295D01*
X110292857Y-99975295D02*
X110292857Y-100118152D01*
X110292857Y-100118152D02*
X110340476Y-100213390D01*
X110340476Y-100213390D02*
X110388095Y-100261009D01*
X110388095Y-100261009D02*
X110483333Y-100308628D01*
X110483333Y-100308628D02*
X110864285Y-100308628D01*
X109340476Y-100784819D02*
X109911904Y-100784819D01*
X109626190Y-100784819D02*
X109626190Y-99784819D01*
X109626190Y-99784819D02*
X109721428Y-99927676D01*
X109721428Y-99927676D02*
X109816666Y-100022914D01*
X109816666Y-100022914D02*
X109911904Y-100070533D01*
X108769047Y-100213390D02*
X108864285Y-100165771D01*
X108864285Y-100165771D02*
X108911904Y-100118152D01*
X108911904Y-100118152D02*
X108959523Y-100022914D01*
X108959523Y-100022914D02*
X108959523Y-99975295D01*
X108959523Y-99975295D02*
X108911904Y-99880057D01*
X108911904Y-99880057D02*
X108864285Y-99832438D01*
X108864285Y-99832438D02*
X108769047Y-99784819D01*
X108769047Y-99784819D02*
X108578571Y-99784819D01*
X108578571Y-99784819D02*
X108483333Y-99832438D01*
X108483333Y-99832438D02*
X108435714Y-99880057D01*
X108435714Y-99880057D02*
X108388095Y-99975295D01*
X108388095Y-99975295D02*
X108388095Y-100022914D01*
X108388095Y-100022914D02*
X108435714Y-100118152D01*
X108435714Y-100118152D02*
X108483333Y-100165771D01*
X108483333Y-100165771D02*
X108578571Y-100213390D01*
X108578571Y-100213390D02*
X108769047Y-100213390D01*
X108769047Y-100213390D02*
X108864285Y-100261009D01*
X108864285Y-100261009D02*
X108911904Y-100308628D01*
X108911904Y-100308628D02*
X108959523Y-100403866D01*
X108959523Y-100403866D02*
X108959523Y-100594342D01*
X108959523Y-100594342D02*
X108911904Y-100689580D01*
X108911904Y-100689580D02*
X108864285Y-100737200D01*
X108864285Y-100737200D02*
X108769047Y-100784819D01*
X108769047Y-100784819D02*
X108578571Y-100784819D01*
X108578571Y-100784819D02*
X108483333Y-100737200D01*
X108483333Y-100737200D02*
X108435714Y-100689580D01*
X108435714Y-100689580D02*
X108388095Y-100594342D01*
X108388095Y-100594342D02*
X108388095Y-100403866D01*
X108388095Y-100403866D02*
X108435714Y-100308628D01*
X108435714Y-100308628D02*
X108483333Y-100261009D01*
X108483333Y-100261009D02*
X108578571Y-100213390D01*
X157224819Y-86893333D02*
X156748628Y-86560000D01*
X157224819Y-86321905D02*
X156224819Y-86321905D01*
X156224819Y-86321905D02*
X156224819Y-86702857D01*
X156224819Y-86702857D02*
X156272438Y-86798095D01*
X156272438Y-86798095D02*
X156320057Y-86845714D01*
X156320057Y-86845714D02*
X156415295Y-86893333D01*
X156415295Y-86893333D02*
X156558152Y-86893333D01*
X156558152Y-86893333D02*
X156653390Y-86845714D01*
X156653390Y-86845714D02*
X156701009Y-86798095D01*
X156701009Y-86798095D02*
X156748628Y-86702857D01*
X156748628Y-86702857D02*
X156748628Y-86321905D01*
X157224819Y-87369524D02*
X157224819Y-87560000D01*
X157224819Y-87560000D02*
X157177200Y-87655238D01*
X157177200Y-87655238D02*
X157129580Y-87702857D01*
X157129580Y-87702857D02*
X156986723Y-87798095D01*
X156986723Y-87798095D02*
X156796247Y-87845714D01*
X156796247Y-87845714D02*
X156415295Y-87845714D01*
X156415295Y-87845714D02*
X156320057Y-87798095D01*
X156320057Y-87798095D02*
X156272438Y-87750476D01*
X156272438Y-87750476D02*
X156224819Y-87655238D01*
X156224819Y-87655238D02*
X156224819Y-87464762D01*
X156224819Y-87464762D02*
X156272438Y-87369524D01*
X156272438Y-87369524D02*
X156320057Y-87321905D01*
X156320057Y-87321905D02*
X156415295Y-87274286D01*
X156415295Y-87274286D02*
X156653390Y-87274286D01*
X156653390Y-87274286D02*
X156748628Y-87321905D01*
X156748628Y-87321905D02*
X156796247Y-87369524D01*
X156796247Y-87369524D02*
X156843866Y-87464762D01*
X156843866Y-87464762D02*
X156843866Y-87655238D01*
X156843866Y-87655238D02*
X156796247Y-87750476D01*
X156796247Y-87750476D02*
X156748628Y-87798095D01*
X156748628Y-87798095D02*
X156653390Y-87845714D01*
X145674819Y-94717142D02*
X145198628Y-94383809D01*
X145674819Y-94145714D02*
X144674819Y-94145714D01*
X144674819Y-94145714D02*
X144674819Y-94526666D01*
X144674819Y-94526666D02*
X144722438Y-94621904D01*
X144722438Y-94621904D02*
X144770057Y-94669523D01*
X144770057Y-94669523D02*
X144865295Y-94717142D01*
X144865295Y-94717142D02*
X145008152Y-94717142D01*
X145008152Y-94717142D02*
X145103390Y-94669523D01*
X145103390Y-94669523D02*
X145151009Y-94621904D01*
X145151009Y-94621904D02*
X145198628Y-94526666D01*
X145198628Y-94526666D02*
X145198628Y-94145714D01*
X145674819Y-95669523D02*
X145674819Y-95098095D01*
X145674819Y-95383809D02*
X144674819Y-95383809D01*
X144674819Y-95383809D02*
X144817676Y-95288571D01*
X144817676Y-95288571D02*
X144912914Y-95193333D01*
X144912914Y-95193333D02*
X144960533Y-95098095D01*
X144674819Y-96288571D02*
X144674819Y-96383809D01*
X144674819Y-96383809D02*
X144722438Y-96479047D01*
X144722438Y-96479047D02*
X144770057Y-96526666D01*
X144770057Y-96526666D02*
X144865295Y-96574285D01*
X144865295Y-96574285D02*
X145055771Y-96621904D01*
X145055771Y-96621904D02*
X145293866Y-96621904D01*
X145293866Y-96621904D02*
X145484342Y-96574285D01*
X145484342Y-96574285D02*
X145579580Y-96526666D01*
X145579580Y-96526666D02*
X145627200Y-96479047D01*
X145627200Y-96479047D02*
X145674819Y-96383809D01*
X145674819Y-96383809D02*
X145674819Y-96288571D01*
X145674819Y-96288571D02*
X145627200Y-96193333D01*
X145627200Y-96193333D02*
X145579580Y-96145714D01*
X145579580Y-96145714D02*
X145484342Y-96098095D01*
X145484342Y-96098095D02*
X145293866Y-96050476D01*
X145293866Y-96050476D02*
X145055771Y-96050476D01*
X145055771Y-96050476D02*
X144865295Y-96098095D01*
X144865295Y-96098095D02*
X144770057Y-96145714D01*
X144770057Y-96145714D02*
X144722438Y-96193333D01*
X144722438Y-96193333D02*
X144674819Y-96288571D01*
D12*
X140964318Y-86072618D02*
X139694318Y-86072618D01*
X139694318Y-86072618D02*
X139694318Y-86374999D01*
X139694318Y-86374999D02*
X139754794Y-86556428D01*
X139754794Y-86556428D02*
X139875746Y-86677380D01*
X139875746Y-86677380D02*
X139996699Y-86737857D01*
X139996699Y-86737857D02*
X140238603Y-86798333D01*
X140238603Y-86798333D02*
X140420032Y-86798333D01*
X140420032Y-86798333D02*
X140661937Y-86737857D01*
X140661937Y-86737857D02*
X140782889Y-86677380D01*
X140782889Y-86677380D02*
X140903842Y-86556428D01*
X140903842Y-86556428D02*
X140964318Y-86374999D01*
X140964318Y-86374999D02*
X140964318Y-86072618D01*
X139815270Y-87282142D02*
X139754794Y-87342618D01*
X139754794Y-87342618D02*
X139694318Y-87463571D01*
X139694318Y-87463571D02*
X139694318Y-87765952D01*
X139694318Y-87765952D02*
X139754794Y-87886904D01*
X139754794Y-87886904D02*
X139815270Y-87947380D01*
X139815270Y-87947380D02*
X139936222Y-88007857D01*
X139936222Y-88007857D02*
X140057175Y-88007857D01*
X140057175Y-88007857D02*
X140238603Y-87947380D01*
X140238603Y-87947380D02*
X140964318Y-87221666D01*
X140964318Y-87221666D02*
X140964318Y-88007857D01*
X121124318Y-94188333D02*
X121124318Y-93583571D01*
X121124318Y-93583571D02*
X119854318Y-93583571D01*
X120277651Y-95155952D02*
X121124318Y-95155952D01*
X119793842Y-94853571D02*
X120700984Y-94551190D01*
X120700984Y-94551190D02*
X120700984Y-95337381D01*
D11*
X151804819Y-118233333D02*
X151804819Y-117757143D01*
X151804819Y-117757143D02*
X150804819Y-117757143D01*
X151804819Y-119090476D02*
X151804819Y-118519048D01*
X151804819Y-118804762D02*
X150804819Y-118804762D01*
X150804819Y-118804762D02*
X150947676Y-118709524D01*
X150947676Y-118709524D02*
X151042914Y-118614286D01*
X151042914Y-118614286D02*
X151090533Y-118519048D01*
X113316666Y-80759580D02*
X113364285Y-80807200D01*
X113364285Y-80807200D02*
X113507142Y-80854819D01*
X113507142Y-80854819D02*
X113602380Y-80854819D01*
X113602380Y-80854819D02*
X113745237Y-80807200D01*
X113745237Y-80807200D02*
X113840475Y-80711961D01*
X113840475Y-80711961D02*
X113888094Y-80616723D01*
X113888094Y-80616723D02*
X113935713Y-80426247D01*
X113935713Y-80426247D02*
X113935713Y-80283390D01*
X113935713Y-80283390D02*
X113888094Y-80092914D01*
X113888094Y-80092914D02*
X113840475Y-79997676D01*
X113840475Y-79997676D02*
X113745237Y-79902438D01*
X113745237Y-79902438D02*
X113602380Y-79854819D01*
X113602380Y-79854819D02*
X113507142Y-79854819D01*
X113507142Y-79854819D02*
X113364285Y-79902438D01*
X113364285Y-79902438D02*
X113316666Y-79950057D01*
X112364285Y-80854819D02*
X112935713Y-80854819D01*
X112649999Y-80854819D02*
X112649999Y-79854819D01*
X112649999Y-79854819D02*
X112745237Y-79997676D01*
X112745237Y-79997676D02*
X112840475Y-80092914D01*
X112840475Y-80092914D02*
X112935713Y-80140533D01*
X142764819Y-116693333D02*
X142288628Y-116360000D01*
X142764819Y-116121905D02*
X141764819Y-116121905D01*
X141764819Y-116121905D02*
X141764819Y-116502857D01*
X141764819Y-116502857D02*
X141812438Y-116598095D01*
X141812438Y-116598095D02*
X141860057Y-116645714D01*
X141860057Y-116645714D02*
X141955295Y-116693333D01*
X141955295Y-116693333D02*
X142098152Y-116693333D01*
X142098152Y-116693333D02*
X142193390Y-116645714D01*
X142193390Y-116645714D02*
X142241009Y-116598095D01*
X142241009Y-116598095D02*
X142288628Y-116502857D01*
X142288628Y-116502857D02*
X142288628Y-116121905D01*
X141860057Y-117074286D02*
X141812438Y-117121905D01*
X141812438Y-117121905D02*
X141764819Y-117217143D01*
X141764819Y-117217143D02*
X141764819Y-117455238D01*
X141764819Y-117455238D02*
X141812438Y-117550476D01*
X141812438Y-117550476D02*
X141860057Y-117598095D01*
X141860057Y-117598095D02*
X141955295Y-117645714D01*
X141955295Y-117645714D02*
X142050533Y-117645714D01*
X142050533Y-117645714D02*
X142193390Y-117598095D01*
X142193390Y-117598095D02*
X142764819Y-117026667D01*
X142764819Y-117026667D02*
X142764819Y-117645714D01*
X154524819Y-78793333D02*
X154048628Y-78460000D01*
X154524819Y-78221905D02*
X153524819Y-78221905D01*
X153524819Y-78221905D02*
X153524819Y-78602857D01*
X153524819Y-78602857D02*
X153572438Y-78698095D01*
X153572438Y-78698095D02*
X153620057Y-78745714D01*
X153620057Y-78745714D02*
X153715295Y-78793333D01*
X153715295Y-78793333D02*
X153858152Y-78793333D01*
X153858152Y-78793333D02*
X153953390Y-78745714D01*
X153953390Y-78745714D02*
X154001009Y-78698095D01*
X154001009Y-78698095D02*
X154048628Y-78602857D01*
X154048628Y-78602857D02*
X154048628Y-78221905D01*
X153858152Y-79650476D02*
X154524819Y-79650476D01*
X153477200Y-79412381D02*
X154191485Y-79174286D01*
X154191485Y-79174286D02*
X154191485Y-79793333D01*
D12*
X146514318Y-90772618D02*
X145244318Y-90772618D01*
X145244318Y-90772618D02*
X145244318Y-91074999D01*
X145244318Y-91074999D02*
X145304794Y-91256428D01*
X145304794Y-91256428D02*
X145425746Y-91377380D01*
X145425746Y-91377380D02*
X145546699Y-91437857D01*
X145546699Y-91437857D02*
X145788603Y-91498333D01*
X145788603Y-91498333D02*
X145970032Y-91498333D01*
X145970032Y-91498333D02*
X146211937Y-91437857D01*
X146211937Y-91437857D02*
X146332889Y-91377380D01*
X146332889Y-91377380D02*
X146453842Y-91256428D01*
X146453842Y-91256428D02*
X146514318Y-91074999D01*
X146514318Y-91074999D02*
X146514318Y-90772618D01*
X145667651Y-92586904D02*
X146514318Y-92586904D01*
X145183842Y-92284523D02*
X146090984Y-91982142D01*
X146090984Y-91982142D02*
X146090984Y-92768333D01*
D11*
X113692857Y-88524819D02*
X114026190Y-88048628D01*
X114264285Y-88524819D02*
X114264285Y-87524819D01*
X114264285Y-87524819D02*
X113883333Y-87524819D01*
X113883333Y-87524819D02*
X113788095Y-87572438D01*
X113788095Y-87572438D02*
X113740476Y-87620057D01*
X113740476Y-87620057D02*
X113692857Y-87715295D01*
X113692857Y-87715295D02*
X113692857Y-87858152D01*
X113692857Y-87858152D02*
X113740476Y-87953390D01*
X113740476Y-87953390D02*
X113788095Y-88001009D01*
X113788095Y-88001009D02*
X113883333Y-88048628D01*
X113883333Y-88048628D02*
X114264285Y-88048628D01*
X112740476Y-88524819D02*
X113311904Y-88524819D01*
X113026190Y-88524819D02*
X113026190Y-87524819D01*
X113026190Y-87524819D02*
X113121428Y-87667676D01*
X113121428Y-87667676D02*
X113216666Y-87762914D01*
X113216666Y-87762914D02*
X113311904Y-87810533D01*
X112359523Y-87620057D02*
X112311904Y-87572438D01*
X112311904Y-87572438D02*
X112216666Y-87524819D01*
X112216666Y-87524819D02*
X111978571Y-87524819D01*
X111978571Y-87524819D02*
X111883333Y-87572438D01*
X111883333Y-87572438D02*
X111835714Y-87620057D01*
X111835714Y-87620057D02*
X111788095Y-87715295D01*
X111788095Y-87715295D02*
X111788095Y-87810533D01*
X111788095Y-87810533D02*
X111835714Y-87953390D01*
X111835714Y-87953390D02*
X112407142Y-88524819D01*
X112407142Y-88524819D02*
X111788095Y-88524819D01*
X115011904Y-75154819D02*
X115011904Y-75964342D01*
X115011904Y-75964342D02*
X114964285Y-76059580D01*
X114964285Y-76059580D02*
X114916666Y-76107200D01*
X114916666Y-76107200D02*
X114821428Y-76154819D01*
X114821428Y-76154819D02*
X114630952Y-76154819D01*
X114630952Y-76154819D02*
X114535714Y-76107200D01*
X114535714Y-76107200D02*
X114488095Y-76059580D01*
X114488095Y-76059580D02*
X114440476Y-75964342D01*
X114440476Y-75964342D02*
X114440476Y-75154819D01*
X113488095Y-75154819D02*
X113964285Y-75154819D01*
X113964285Y-75154819D02*
X114011904Y-75631009D01*
X114011904Y-75631009D02*
X113964285Y-75583390D01*
X113964285Y-75583390D02*
X113869047Y-75535771D01*
X113869047Y-75535771D02*
X113630952Y-75535771D01*
X113630952Y-75535771D02*
X113535714Y-75583390D01*
X113535714Y-75583390D02*
X113488095Y-75631009D01*
X113488095Y-75631009D02*
X113440476Y-75726247D01*
X113440476Y-75726247D02*
X113440476Y-75964342D01*
X113440476Y-75964342D02*
X113488095Y-76059580D01*
X113488095Y-76059580D02*
X113535714Y-76107200D01*
X113535714Y-76107200D02*
X113630952Y-76154819D01*
X113630952Y-76154819D02*
X113869047Y-76154819D01*
X113869047Y-76154819D02*
X113964285Y-76107200D01*
X113964285Y-76107200D02*
X114011904Y-76059580D01*
X117228149Y-71548019D02*
X117228149Y-71786114D01*
X117466244Y-71690876D02*
X117228149Y-71786114D01*
X117228149Y-71786114D02*
X116990054Y-71690876D01*
X117371006Y-71976590D02*
X117228149Y-71786114D01*
X117228149Y-71786114D02*
X117085292Y-71976590D01*
X117228149Y-71548019D02*
X117228149Y-71786114D01*
X117466244Y-71690876D02*
X117228149Y-71786114D01*
X117228149Y-71786114D02*
X116990054Y-71690876D01*
X117371006Y-71976590D02*
X117228149Y-71786114D01*
X117228149Y-71786114D02*
X117085292Y-71976590D01*
X105734819Y-97757142D02*
X105258628Y-97423809D01*
X105734819Y-97185714D02*
X104734819Y-97185714D01*
X104734819Y-97185714D02*
X104734819Y-97566666D01*
X104734819Y-97566666D02*
X104782438Y-97661904D01*
X104782438Y-97661904D02*
X104830057Y-97709523D01*
X104830057Y-97709523D02*
X104925295Y-97757142D01*
X104925295Y-97757142D02*
X105068152Y-97757142D01*
X105068152Y-97757142D02*
X105163390Y-97709523D01*
X105163390Y-97709523D02*
X105211009Y-97661904D01*
X105211009Y-97661904D02*
X105258628Y-97566666D01*
X105258628Y-97566666D02*
X105258628Y-97185714D01*
X105734819Y-98709523D02*
X105734819Y-98138095D01*
X105734819Y-98423809D02*
X104734819Y-98423809D01*
X104734819Y-98423809D02*
X104877676Y-98328571D01*
X104877676Y-98328571D02*
X104972914Y-98233333D01*
X104972914Y-98233333D02*
X105020533Y-98138095D01*
X105734819Y-99185714D02*
X105734819Y-99376190D01*
X105734819Y-99376190D02*
X105687200Y-99471428D01*
X105687200Y-99471428D02*
X105639580Y-99519047D01*
X105639580Y-99519047D02*
X105496723Y-99614285D01*
X105496723Y-99614285D02*
X105306247Y-99661904D01*
X105306247Y-99661904D02*
X104925295Y-99661904D01*
X104925295Y-99661904D02*
X104830057Y-99614285D01*
X104830057Y-99614285D02*
X104782438Y-99566666D01*
X104782438Y-99566666D02*
X104734819Y-99471428D01*
X104734819Y-99471428D02*
X104734819Y-99280952D01*
X104734819Y-99280952D02*
X104782438Y-99185714D01*
X104782438Y-99185714D02*
X104830057Y-99138095D01*
X104830057Y-99138095D02*
X104925295Y-99090476D01*
X104925295Y-99090476D02*
X105163390Y-99090476D01*
X105163390Y-99090476D02*
X105258628Y-99138095D01*
X105258628Y-99138095D02*
X105306247Y-99185714D01*
X105306247Y-99185714D02*
X105353866Y-99280952D01*
X105353866Y-99280952D02*
X105353866Y-99471428D01*
X105353866Y-99471428D02*
X105306247Y-99566666D01*
X105306247Y-99566666D02*
X105258628Y-99614285D01*
X105258628Y-99614285D02*
X105163390Y-99661904D01*
X140344819Y-113743333D02*
X140344819Y-113267143D01*
X140344819Y-113267143D02*
X139344819Y-113267143D01*
X139344819Y-113981429D02*
X139344819Y-114600476D01*
X139344819Y-114600476D02*
X139725771Y-114267143D01*
X139725771Y-114267143D02*
X139725771Y-114410000D01*
X139725771Y-114410000D02*
X139773390Y-114505238D01*
X139773390Y-114505238D02*
X139821009Y-114552857D01*
X139821009Y-114552857D02*
X139916247Y-114600476D01*
X139916247Y-114600476D02*
X140154342Y-114600476D01*
X140154342Y-114600476D02*
X140249580Y-114552857D01*
X140249580Y-114552857D02*
X140297200Y-114505238D01*
X140297200Y-114505238D02*
X140344819Y-114410000D01*
X140344819Y-114410000D02*
X140344819Y-114124286D01*
X140344819Y-114124286D02*
X140297200Y-114029048D01*
X140297200Y-114029048D02*
X140249580Y-113981429D01*
X137614819Y-103943333D02*
X137138628Y-103610000D01*
X137614819Y-103371905D02*
X136614819Y-103371905D01*
X136614819Y-103371905D02*
X136614819Y-103752857D01*
X136614819Y-103752857D02*
X136662438Y-103848095D01*
X136662438Y-103848095D02*
X136710057Y-103895714D01*
X136710057Y-103895714D02*
X136805295Y-103943333D01*
X136805295Y-103943333D02*
X136948152Y-103943333D01*
X136948152Y-103943333D02*
X137043390Y-103895714D01*
X137043390Y-103895714D02*
X137091009Y-103848095D01*
X137091009Y-103848095D02*
X137138628Y-103752857D01*
X137138628Y-103752857D02*
X137138628Y-103371905D01*
X136614819Y-104800476D02*
X136614819Y-104610000D01*
X136614819Y-104610000D02*
X136662438Y-104514762D01*
X136662438Y-104514762D02*
X136710057Y-104467143D01*
X136710057Y-104467143D02*
X136852914Y-104371905D01*
X136852914Y-104371905D02*
X137043390Y-104324286D01*
X137043390Y-104324286D02*
X137424342Y-104324286D01*
X137424342Y-104324286D02*
X137519580Y-104371905D01*
X137519580Y-104371905D02*
X137567200Y-104419524D01*
X137567200Y-104419524D02*
X137614819Y-104514762D01*
X137614819Y-104514762D02*
X137614819Y-104705238D01*
X137614819Y-104705238D02*
X137567200Y-104800476D01*
X137567200Y-104800476D02*
X137519580Y-104848095D01*
X137519580Y-104848095D02*
X137424342Y-104895714D01*
X137424342Y-104895714D02*
X137186247Y-104895714D01*
X137186247Y-104895714D02*
X137091009Y-104848095D01*
X137091009Y-104848095D02*
X137043390Y-104800476D01*
X137043390Y-104800476D02*
X136995771Y-104705238D01*
X136995771Y-104705238D02*
X136995771Y-104514762D01*
X136995771Y-104514762D02*
X137043390Y-104419524D01*
X137043390Y-104419524D02*
X137091009Y-104371905D01*
X137091009Y-104371905D02*
X137186247Y-104324286D01*
%TO.C,J1*%
D14*
X104381000Y-125719300D02*
G75*
G02*
X103619000Y-125719300I-381000J0D01*
G01*
X103619000Y-125719300D02*
G75*
G02*
X104381000Y-125719300I381000J0D01*
G01*
%TO.C,C7*%
D15*
X113140000Y-97038748D02*
X113140000Y-98461252D01*
X115860000Y-97038748D02*
X115860000Y-98461252D01*
%TO.C,R11*%
X115427500Y-89437258D02*
X115427500Y-88962742D01*
X116472500Y-89437258D02*
X116472500Y-88962742D01*
%TO.C,R5*%
X137667500Y-90914724D02*
X137667500Y-90405276D01*
X138712500Y-90914724D02*
X138712500Y-90405276D01*
%TO.C,R16*%
X106070000Y-95396359D02*
X106070000Y-95703641D01*
X106830000Y-95396359D02*
X106830000Y-95703641D01*
%TO.C,R13*%
X107927500Y-74037258D02*
X107927500Y-73562742D01*
X108972500Y-74037258D02*
X108972500Y-73562742D01*
%TO.C,C8*%
X106390000Y-89211252D02*
X106390000Y-87788748D01*
X108210000Y-89211252D02*
X108210000Y-87788748D01*
%TO.C,D3*%
D16*
X142565000Y-90160000D02*
X142565000Y-88460000D01*
X143815000Y-90870000D02*
X143815000Y-88460000D01*
%TO.C,C3*%
D15*
X145380000Y-116663733D02*
X145380000Y-116956267D01*
X146400000Y-116663733D02*
X146400000Y-116956267D01*
%TO.C,L2*%
X143180000Y-120699758D02*
X143180000Y-121520242D01*
X144300000Y-120699758D02*
X144300000Y-121520242D01*
%TO.C,R1*%
X152377500Y-113895276D02*
X152377500Y-114404724D01*
X153422500Y-113895276D02*
X153422500Y-114404724D01*
%TO.C,IC2*%
D16*
X114075000Y-83400000D02*
X114075000Y-86300000D01*
X114075000Y-86300000D02*
X114625000Y-86300000D01*
X114625000Y-83400000D02*
X114075000Y-83400000D01*
X114625000Y-86300000D02*
X114625000Y-83400000D01*
X116225000Y-83250000D02*
X114975000Y-83250000D01*
%TO.C,C4*%
D15*
X143380000Y-109513733D02*
X143380000Y-109806267D01*
X144400000Y-109513733D02*
X144400000Y-109806267D01*
%TO.C,R7*%
X153255000Y-84720000D02*
X153255000Y-82260000D01*
X154725000Y-82260000D02*
X154725000Y-84720000D01*
X154725000Y-84720000D02*
X153255000Y-84720000D01*
%TO.C,T1*%
D13*
X100750000Y-77500000D02*
X103250000Y-77500000D01*
X103250000Y-80700000D01*
X100750000Y-80700000D01*
X100750000Y-77500000D01*
%TO.C,R14*%
D15*
X107927500Y-77787258D02*
X107927500Y-77312742D01*
X108972500Y-77787258D02*
X108972500Y-77312742D01*
%TO.C,C5*%
X140730000Y-103963733D02*
X140730000Y-104256267D01*
X141750000Y-103963733D02*
X141750000Y-104256267D01*
%TO.C,C2*%
X155090000Y-113963733D02*
X155090000Y-114256267D01*
X156110000Y-113963733D02*
X156110000Y-114256267D01*
%TO.C,R17*%
X108970000Y-95396359D02*
X108970000Y-95703641D01*
X109730000Y-95396359D02*
X109730000Y-95703641D01*
%TO.C,R3*%
X140917500Y-109405276D02*
X140917500Y-109914724D01*
X141962500Y-109405276D02*
X141962500Y-109914724D01*
%TO.C,T2*%
D13*
X108050000Y-97400000D02*
X111650000Y-97400000D01*
X111650000Y-100400000D01*
X108050000Y-100400000D01*
X108050000Y-97400000D01*
%TO.C,C6*%
D15*
X114361252Y-91340000D02*
X112938748Y-91340000D01*
X114361252Y-94060000D02*
X112938748Y-94060000D01*
%TO.C,R15*%
X107172936Y-91990000D02*
X108627064Y-91990000D01*
X107172936Y-93810000D02*
X108627064Y-93810000D01*
%TO.C,R8*%
X140517500Y-93164724D02*
X140517500Y-92655276D01*
X141562500Y-93164724D02*
X141562500Y-92655276D01*
%TO.C,R18*%
X109803641Y-101120000D02*
X109496359Y-101120000D01*
X109803641Y-101880000D02*
X109496359Y-101880000D01*
%TO.C,R9*%
X154605000Y-88720000D02*
X154605000Y-86260000D01*
X156075000Y-86260000D02*
X156075000Y-88720000D01*
X156075000Y-88720000D02*
X154605000Y-88720000D01*
%TO.C,R10*%
X143267500Y-95614724D02*
X143267500Y-95105276D01*
X144312500Y-95614724D02*
X144312500Y-95105276D01*
%TO.C,D2*%
D16*
X139765000Y-87860000D02*
X139765000Y-86160000D01*
X141015000Y-88570000D02*
X141015000Y-86160000D01*
%TO.C,L4*%
X117250000Y-97950000D02*
X117250000Y-90850000D01*
X123850000Y-90850000D02*
X123850000Y-97950000D01*
%TO.C,L1*%
D15*
X152340000Y-117989758D02*
X152340000Y-118810242D01*
X153460000Y-117989758D02*
X153460000Y-118810242D01*
%TO.C,C1*%
X113059420Y-81390000D02*
X113340580Y-81390000D01*
X113059420Y-82410000D02*
X113340580Y-82410000D01*
%TO.C,R2*%
X143217500Y-116605276D02*
X143217500Y-117114724D01*
X144262500Y-116605276D02*
X144262500Y-117114724D01*
%TO.C,R4*%
X151905000Y-80620000D02*
X151905000Y-78160000D01*
X153375000Y-78160000D02*
X153375000Y-80620000D01*
X153375000Y-80620000D02*
X151905000Y-80620000D01*
%TO.C,D4*%
D16*
X145315000Y-92560000D02*
X145315000Y-90860000D01*
X146565000Y-93270000D02*
X146565000Y-90860000D01*
%TO.C,R12*%
D15*
X113287258Y-88977500D02*
X112812742Y-88977500D01*
X113287258Y-90022500D02*
X112812742Y-90022500D01*
%TO.C,U5*%
D17*
X112129100Y-73071100D02*
X116370900Y-73071100D01*
X116370900Y-78328900D02*
X112129100Y-78328900D01*
%TO.C,R19*%
D15*
X106070000Y-98246359D02*
X106070000Y-98553641D01*
X106830000Y-98246359D02*
X106830000Y-98553641D01*
%TO.C,L3*%
X140880000Y-113499758D02*
X140880000Y-114320242D01*
X142000000Y-113499758D02*
X142000000Y-114320242D01*
%TO.C,R6*%
X138067500Y-103855276D02*
X138067500Y-104364724D01*
X139112500Y-103855276D02*
X139112500Y-104364724D01*
%TD*%
M02*
