%TF.GenerationSoftware,KiCad,Pcbnew,10.0.5*%
%TF.CreationDate,2026-08-04T20:24:02-04:00*%
%TF.ProjectId,DAQBoardFront,44415142-6f61-4726-9446-726f6e742e6b,rev?*%
%TF.SameCoordinates,Original*%
%TF.FileFunction,Copper,L2,Bot*%
%TF.FilePolarity,Positive*%
%FSLAX46Y46*%
G04 Gerber Fmt 4.6, Leading zero omitted, Abs format (unit mm)*
G04 Created by KiCad (PCBNEW 10.0.5) date 2026-08-04 20:24:02*
%MOMM*%
%LPD*%
G01*
G04 APERTURE LIST*
G04 Aperture macros list*
%AMRoundRect*
0 Rectangle with rounded corners*
0 $1 Rounding radius*
0 $2 $3 $4 $5 $6 $7 $8 $9 X,Y pos of 4 corners*
0 Add a 4 corners polygon primitive as box body*
4,1,4,$2,$3,$4,$5,$6,$7,$8,$9,$2,$3,0*
0 Add four circle primitives for the rounded corners*
1,1,$1+$1,$2,$3*
1,1,$1+$1,$4,$5*
1,1,$1+$1,$6,$7*
1,1,$1+$1,$8,$9*
0 Add four rect primitives between the rounded corners*
20,1,$1+$1,$2,$3,$4,$5,0*
20,1,$1+$1,$4,$5,$6,$7,0*
20,1,$1+$1,$6,$7,$8,$9,0*
20,1,$1+$1,$8,$9,$2,$3,0*%
G04 Aperture macros list end*
%TA.AperFunction,ComponentPad*%
%ADD10C,1.524000*%
%TD*%
%TA.AperFunction,ComponentPad*%
%ADD11C,1.778000*%
%TD*%
%TA.AperFunction,ComponentPad*%
%ADD12C,1.600200*%
%TD*%
%TA.AperFunction,ComponentPad*%
%ADD13R,1.508000X1.508000*%
%TD*%
%TA.AperFunction,ComponentPad*%
%ADD14C,1.508000*%
%TD*%
%TA.AperFunction,ComponentPad*%
%ADD15C,3.516000*%
%TD*%
%TA.AperFunction,ComponentPad*%
%ADD16C,1.650000*%
%TD*%
%TA.AperFunction,SMDPad,CuDef*%
%ADD17RoundRect,0.237500X0.237500X-0.300000X0.237500X0.300000X-0.237500X0.300000X-0.237500X-0.300000X0*%
%TD*%
%TA.AperFunction,SMDPad,CuDef*%
%ADD18RoundRect,0.237500X0.237500X-0.250000X0.237500X0.250000X-0.237500X0.250000X-0.237500X-0.250000X0*%
%TD*%
%TA.AperFunction,SMDPad,CuDef*%
%ADD19RoundRect,0.237500X-0.237500X0.300000X-0.237500X-0.300000X0.237500X-0.300000X0.237500X0.300000X0*%
%TD*%
%TA.AperFunction,SMDPad,CuDef*%
%ADD20RoundRect,0.250000X-0.350000X0.275000X-0.350000X-0.275000X0.350000X-0.275000X0.350000X0.275000X0*%
%TD*%
%TA.AperFunction,SMDPad,CuDef*%
%ADD21RoundRect,0.237500X-0.237500X0.250000X-0.237500X-0.250000X0.237500X-0.250000X0.237500X0.250000X0*%
%TD*%
%TA.AperFunction,SMDPad,CuDef*%
%ADD22R,0.820000X0.420000*%
%TD*%
%TA.AperFunction,SMDPad,CuDef*%
%ADD23RoundRect,0.237500X0.237500X-0.287500X0.237500X0.287500X-0.237500X0.287500X-0.237500X-0.287500X0*%
%TD*%
%TA.AperFunction,ViaPad*%
%ADD24C,0.600000*%
%TD*%
%TA.AperFunction,Conductor*%
%ADD25C,0.200000*%
%TD*%
G04 APERTURE END LIST*
D10*
%TO.P,U3,1,B12_1*%
%TO.N,unconnected-(U3-B12-Pad1)*%
X134010000Y-66400000D03*
%TO.P,U3,2,B13_2*%
%TO.N,unconnected-(U3-B13-Pad2)*%
X134010000Y-68940000D03*
%TO.P,U3,3,B14_3*%
%TO.N,unconnected-(U3-B14-Pad3)*%
X134010000Y-71480000D03*
%TO.P,U3,4,B15_4*%
%TO.N,unconnected-(U3-B15-Pad4)*%
X134010000Y-74020000D03*
%TO.P,U3,5,A8_5*%
%TO.N,unconnected-(U3-A8-Pad5)*%
X134010000Y-76560000D03*
%TO.P,U3,6,A9_6*%
%TO.N,unconnected-(U3-A9-Pad6)*%
X134010000Y-79100000D03*
%TO.P,U3,7,A10_7*%
%TO.N,unconnected-(U3-A10-Pad7)*%
X134010000Y-81640000D03*
%TO.P,U3,8,A11_8*%
%TO.N,/CANRx*%
X134010000Y-84180000D03*
%TO.P,U3,9,A12_9*%
%TO.N,/CANTx*%
X134010000Y-86720000D03*
%TO.P,U3,10,A15_10*%
%TO.N,unconnected-(U3-A15-Pad10)*%
X134010000Y-89260000D03*
%TO.P,U3,11,B3_11*%
%TO.N,unconnected-(U3-B3-Pad11)*%
X134010000Y-91800000D03*
%TO.P,U3,12,B4_12*%
%TO.N,unconnected-(U3-B4-Pad12)*%
X134010000Y-94340000D03*
%TO.P,U3,13,1B5_13*%
%TO.N,unconnected-(U3-1B5-Pad13)*%
X134010000Y-96880000D03*
%TO.P,U3,14,B6_14*%
%TO.N,/Acc SCL*%
X134010000Y-99420000D03*
%TO.P,U3,15,B7_15*%
%TO.N,/Acc SDA*%
X134010000Y-101960000D03*
%TO.P,U3,16,B8_16*%
%TO.N,unconnected-(U3-B8-Pad16)*%
X134010000Y-104500000D03*
%TO.P,U3,17,B9_17*%
%TO.N,unconnected-(U3-B9-Pad17)*%
X134010000Y-107040000D03*
%TO.P,U3,18,5V_18*%
%TO.N,unconnected-(U3-5V-Pad18)*%
X134010000Y-109580000D03*
%TO.P,U3,19,G_19*%
%TO.N,unconnected-(U3-G-Pad19)*%
X134010000Y-112120000D03*
%TO.P,U3,20,3V3_20*%
%TO.N,unconnected-(U3-3V3-Pad20)*%
X134010000Y-114660000D03*
%TO.P,U3,21,VB_21*%
%TO.N,unconnected-(U3-VB-Pad21)*%
X149250000Y-114660000D03*
%TO.P,U3,22,C13_22*%
%TO.N,unconnected-(U3-C13-Pad22)*%
X149250000Y-112120000D03*
%TO.P,U3,23,C14_23*%
%TO.N,unconnected-(U3-C14-Pad23)*%
X149250000Y-109580000D03*
%TO.P,U3,24,C15_24*%
%TO.N,unconnected-(U3-C15-Pad24)*%
X149250000Y-107040000D03*
%TO.P,U3,25,A0_25*%
%TO.N,Net-(U3-A0)*%
X149250000Y-104500000D03*
%TO.P,U3,26,A1_26*%
%TO.N,Net-(U3-A1)*%
X149250000Y-101960000D03*
%TO.P,U3,27,A2_27*%
%TO.N,Net-(U3-A2)*%
X149250000Y-99420000D03*
%TO.P,U3,28,A3_28*%
%TO.N,Net-(U3-A3)*%
X149250000Y-96880000D03*
%TO.P,U3,29,A4_29*%
%TO.N,unconnected-(U3-A4-Pad29)*%
X149250000Y-94340000D03*
%TO.P,U3,30,A5_30*%
%TO.N,unconnected-(U3-A5-Pad30)*%
X149250000Y-91800000D03*
%TO.P,U3,31,A6_31*%
%TO.N,unconnected-(U3-A6-Pad31)*%
X149250000Y-89260000D03*
%TO.P,U3,32,A7_32*%
%TO.N,/ExtraDigital*%
X149250000Y-86720000D03*
%TO.P,U3,33,B0_33*%
%TO.N,/FRHallEffect*%
X149250000Y-84180000D03*
%TO.P,U3,34,B1_34*%
%TO.N,/FLHallEffect*%
X149250000Y-81640000D03*
%TO.P,U3,35,B10_35*%
%TO.N,Net-(D2-A)*%
X149250000Y-79100000D03*
%TO.P,U3,36,B11_36*%
%TO.N,unconnected-(U3-B11-Pad36)*%
X149250000Y-76560000D03*
%TO.P,U3,37,R_37*%
%TO.N,unconnected-(U3-R-Pad37)*%
X149250000Y-74020000D03*
%TO.P,U3,38,3V3_38*%
%TO.N,/+3.3V*%
X149250000Y-71480000D03*
%TO.P,U3,39,G_39*%
%TO.N,/GND*%
X149250000Y-68940000D03*
%TO.P,U3,40,G_40*%
X149250000Y-66400000D03*
%TD*%
D11*
%TO.P,U2,1,Vcc_1*%
%TO.N,/+3.3V*%
X104000000Y-67800000D03*
%TO.P,U2,2,GND_2*%
%TO.N,/GND*%
X104000000Y-70340000D03*
%TO.P,U2,3,RX_3*%
%TO.N,/CANTx*%
X104000000Y-72880000D03*
%TO.P,U2,4,TX_4*%
%TO.N,/CANRx*%
X104000000Y-75420000D03*
%TO.P,U2,5,SLNT_5*%
%TO.N,unconnected-(U2-SLNT-Pad5)*%
X104000000Y-77960000D03*
%TO.P,U2,6,CANHi_6*%
%TO.N,/CAN Hi*%
X104000000Y-80500000D03*
%TO.P,U2,7,CANLo_7*%
%TO.N,/CAN Lo*%
X104000000Y-83040000D03*
%TD*%
D12*
%TO.P,U4,1,1_1*%
%TO.N,/ExtraAnalog*%
X104000000Y-122250000D03*
%TO.P,U4,2,2_2*%
%TO.N,/SteeringAngle*%
X104000000Y-119750000D03*
%TO.P,U4,3,3_3*%
%TO.N,/FLSus*%
X104000000Y-117250000D03*
%TO.P,U4,4,4_4*%
%TO.N,/FRSus*%
X104000000Y-114750000D03*
%TO.P,U4,5,1_5*%
%TO.N,/ExtraDigital*%
X104000000Y-112250000D03*
%TO.P,U4,6,2_6*%
%TO.N,/FRHallEffect*%
X104000000Y-109750000D03*
%TO.P,U4,7,3_7*%
%TO.N,/FLHallEffect*%
X104000000Y-107250000D03*
%TO.P,U4,8,4_8*%
%TO.N,/Brake P Input*%
X104000000Y-104750000D03*
%TD*%
D13*
%TO.P,U1,1,Vin_1*%
%TO.N,/+3.3V*%
X110860000Y-110400000D03*
D14*
%TO.P,U1,2,GND_2*%
%TO.N,/GND*%
X113400000Y-110400000D03*
%TO.P,U1,3,3Vo_3*%
%TO.N,unconnected-(U1-3Vo-Pad3)*%
X115940000Y-110400000D03*
%TO.P,U1,4,I2_4*%
%TO.N,unconnected-(U1-I2-Pad4)*%
X118480000Y-110400000D03*
%TO.P,U1,5,I1_5*%
%TO.N,unconnected-(U1-I1-Pad5)*%
X121020000Y-110400000D03*
%TO.P,U1,6,SCL_6*%
%TO.N,/Acc SCL*%
X123560000Y-110400000D03*
%TO.P,U1,7,SDA_7*%
%TO.N,/Acc SDA*%
X126100000Y-110400000D03*
%TO.P,U1,8,A_8*%
%TO.N,unconnected-(U1-A-Pad8)*%
X128640000Y-110400000D03*
D15*
%TO.P,U1,P1*%
%TO.N,N/C*%
X127370000Y-123100000D03*
%TO.P,U1,P2*%
X112130000Y-123100000D03*
%TD*%
D16*
%TO.P,J2,1,1_1*%
%TO.N,/CAN Lo*%
X104000000Y-90000000D03*
%TO.P,J2,2,2_2*%
%TO.N,/CAN Hi*%
X104000000Y-92500000D03*
%TO.P,J2,3,3_3*%
%TO.N,/GND*%
X104000000Y-95000000D03*
%TO.P,J2,4,4_4*%
%TO.N,/+3.3V*%
X104000000Y-97500000D03*
%TD*%
D17*
%TO.P,C1,1*%
%TO.N,/+3.3V*%
X110700000Y-93162500D03*
%TO.P,C1,2*%
%TO.N,/GND*%
X110700000Y-91437500D03*
%TD*%
D18*
%TO.P,R5,1*%
%TO.N,/GND*%
X152850000Y-83112500D03*
%TO.P,R5,2*%
%TO.N,/Brake P Input*%
X152850000Y-81287500D03*
%TD*%
D19*
%TO.P,C3,1*%
%TO.N,Net-(U3-A1)*%
X156460000Y-101987500D03*
%TO.P,C3,2*%
%TO.N,/GND*%
X156460000Y-103712500D03*
%TD*%
D20*
%TO.P,L2,1,1_1*%
%TO.N,Net-(L2-Pad1)*%
X158210000Y-109700000D03*
%TO.P,L2,2,2_2*%
%TO.N,/FLSus*%
X158210000Y-112000000D03*
%TD*%
D21*
%TO.P,R1,1*%
%TO.N,Net-(U3-A0)*%
X155210000Y-108187500D03*
%TO.P,R1,2*%
%TO.N,Net-(L1-Pad1)*%
X155210000Y-110012500D03*
%TD*%
D19*
%TO.P,C4,1*%
%TO.N,Net-(U3-A2)*%
X159460000Y-99487500D03*
%TO.P,C4,2*%
%TO.N,/GND*%
X159460000Y-101212500D03*
%TD*%
%TO.P,C5,1*%
%TO.N,Net-(U3-A3)*%
X162460000Y-96987500D03*
%TO.P,C5,2*%
%TO.N,/GND*%
X162460000Y-98712500D03*
%TD*%
%TO.P,C2,1*%
%TO.N,Net-(U3-A0)*%
X153460000Y-104487500D03*
%TO.P,C2,2*%
%TO.N,/GND*%
X153460000Y-106212500D03*
%TD*%
D21*
%TO.P,R3,1*%
%TO.N,Net-(U3-A2)*%
X161210000Y-103187500D03*
%TO.P,R3,2*%
%TO.N,Net-(L3-Pad1)*%
X161210000Y-105012500D03*
%TD*%
D22*
%TO.P,D2,1,K_1*%
%TO.N,/Brake P Input*%
X155150000Y-79100000D03*
%TO.P,D2,2,A_2*%
%TO.N,Net-(D2-A)*%
X152850000Y-79100000D03*
%TD*%
D20*
%TO.P,L1,1,1_1*%
%TO.N,Net-(L1-Pad1)*%
X155210000Y-112200000D03*
%TO.P,L1,2,2_2*%
%TO.N,/FRSus*%
X155210000Y-114500000D03*
%TD*%
D21*
%TO.P,R2,1*%
%TO.N,Net-(U3-A1)*%
X158210000Y-105687500D03*
%TO.P,R2,2*%
%TO.N,Net-(L2-Pad1)*%
X158210000Y-107512500D03*
%TD*%
D23*
%TO.P,R4,1*%
%TO.N,Net-(D2-A)*%
X152900000Y-76875000D03*
%TO.P,R4,2*%
%TO.N,/+3.3V*%
X152900000Y-75125000D03*
%TD*%
D20*
%TO.P,L3,1,1_1*%
%TO.N,Net-(L3-Pad1)*%
X161210000Y-107200000D03*
%TO.P,L3,2,2_2*%
%TO.N,/SteeringAngle*%
X161210000Y-109500000D03*
%TD*%
D21*
%TO.P,R6,1*%
%TO.N,Net-(U3-A3)*%
X164210000Y-100687500D03*
%TO.P,R6,2*%
%TO.N,/ExtraAnalog*%
X164210000Y-102512500D03*
%TD*%
D24*
%TO.N,/Brake P Input*%
X151550000Y-80350000D03*
%TD*%
%TO.N,/CANRx*%
D25*
X125250000Y-75420000D02*
X134010000Y-84180000D01*
X104000000Y-75420000D02*
X125250000Y-75420000D01*
%TO.N,Net-(U3-A0)*%
X153447500Y-104500000D02*
X153460000Y-104487500D01*
X155210000Y-106237500D02*
X155210000Y-108187500D01*
X153460000Y-104487500D02*
X155210000Y-106237500D01*
X149250000Y-104500000D02*
X153447500Y-104500000D01*
%TO.N,Net-(U3-A1)*%
X149250000Y-101960000D02*
X156432500Y-101960000D01*
X156432500Y-101960000D02*
X156460000Y-101987500D01*
X156460000Y-101987500D02*
X158210000Y-103737500D01*
X158210000Y-103737500D02*
X158210000Y-105687500D01*
%TO.N,Net-(U3-A2)*%
X161210000Y-101237500D02*
X161210000Y-103187500D01*
X159392500Y-99420000D02*
X159460000Y-99487500D01*
X159460000Y-99487500D02*
X161210000Y-101237500D01*
X149250000Y-99420000D02*
X159392500Y-99420000D01*
%TO.N,Net-(U3-A3)*%
X162460000Y-96987500D02*
X164210000Y-98737500D01*
X149250000Y-96880000D02*
X162352500Y-96880000D01*
X162352500Y-96880000D02*
X162460000Y-96987500D01*
X164210000Y-98737500D02*
X164210000Y-100687500D01*
%TO.N,Net-(D2-A)*%
X152850000Y-79100000D02*
X149250000Y-79100000D01*
X152850000Y-79100000D02*
X152850000Y-76925000D01*
X152850000Y-76925000D02*
X152900000Y-76875000D01*
%TO.N,/+3.3V*%
X106250000Y-97612500D02*
X104112500Y-97612500D01*
X152900000Y-75125000D02*
X152895000Y-75125000D01*
X110700000Y-93162500D02*
X106250000Y-97612500D01*
X104112500Y-97612500D02*
X104000000Y-97500000D01*
X152895000Y-75125000D02*
X149250000Y-71480000D01*
%TO.N,/GND*%
X148675000Y-98150000D02*
X149825000Y-98150000D01*
X148675000Y-103250000D02*
X149825000Y-103250000D01*
X148650000Y-100700000D02*
X149800000Y-100700000D01*
%TO.N,/CAN Hi*%
X102250000Y-82250000D02*
X102250000Y-90750000D01*
X102250000Y-90750000D02*
X104000000Y-92500000D01*
X104000000Y-80500000D02*
X102250000Y-82250000D01*
%TO.N,/CAN Lo*%
X104000000Y-83040000D02*
X104000000Y-90000000D01*
%TO.N,/ExtraAnalog*%
X164210000Y-102512500D02*
X164210000Y-112540000D01*
X164210000Y-112540000D02*
X157500000Y-119250000D01*
X157500000Y-119250000D02*
X107000000Y-119250000D01*
X107000000Y-119250000D02*
X104000000Y-122250000D01*
%TO.N,/SteeringAngle*%
X161210000Y-113290000D02*
X155750000Y-118750000D01*
X161210000Y-109500000D02*
X161210000Y-113290000D01*
X155750000Y-118750000D02*
X105000000Y-118750000D01*
X105000000Y-118750000D02*
X104000000Y-119750000D01*
%TO.N,/FLSus*%
X158210000Y-114040000D02*
X154000000Y-118250000D01*
X105000000Y-118250000D02*
X104000000Y-117250000D01*
X154000000Y-118250000D02*
X105000000Y-118250000D01*
X158210000Y-112000000D02*
X158210000Y-114040000D01*
%TO.N,/FRSus*%
X107000000Y-117750000D02*
X104000000Y-114750000D01*
X151960000Y-117750000D02*
X107000000Y-117750000D01*
X155210000Y-114500000D02*
X151960000Y-117750000D01*
%TO.N,/Brake P Input*%
X151550000Y-80350000D02*
X152412500Y-80350000D01*
X151550000Y-80350000D02*
X151912500Y-80350000D01*
X152412500Y-80350000D02*
X153900000Y-80350000D01*
X151912500Y-80350000D02*
X152850000Y-81287500D01*
X153900000Y-80350000D02*
X155150000Y-79100000D01*
%TO.N,Net-(L2-Pad1)*%
X158210000Y-107512500D02*
X158210000Y-109700000D01*
%TO.N,Net-(L1-Pad1)*%
X155210000Y-112200000D02*
X155210000Y-110012500D01*
%TO.N,Net-(L3-Pad1)*%
X161210000Y-107200000D02*
X161210000Y-105012500D01*
%TD*%
%TA.AperFunction,Conductor*%
%TO.N,/GND*%
G36*
X167692539Y-64020185D02*
G01*
X167738294Y-64072989D01*
X167749500Y-64124500D01*
X167749500Y-127125500D01*
X167729815Y-127192539D01*
X167677011Y-127238294D01*
X167625500Y-127249500D01*
X99124500Y-127249500D01*
X99057461Y-127229815D01*
X99011706Y-127177011D01*
X99000500Y-127125500D01*
X99000500Y-123764032D01*
X100927306Y-123764032D01*
X100927306Y-123935967D01*
X100960845Y-124104578D01*
X100960847Y-124104586D01*
X101026641Y-124263427D01*
X101026641Y-124263428D01*
X101122154Y-124406373D01*
X101122160Y-124406381D01*
X101243724Y-124527945D01*
X101243732Y-124527951D01*
X101386677Y-124623464D01*
X101433201Y-124642735D01*
X101545520Y-124689259D01*
X101714138Y-124722799D01*
X101714142Y-124722800D01*
X101714143Y-124722800D01*
X101886070Y-124722800D01*
X101886071Y-124722799D01*
X102054692Y-124689259D01*
X102213532Y-124623465D01*
X102213533Y-124623464D01*
X102213534Y-124623464D01*
X102284528Y-124576026D01*
X102356484Y-124527948D01*
X102478054Y-124406378D01*
X102573571Y-124263426D01*
X102639365Y-124104586D01*
X102672906Y-123935963D01*
X102672906Y-123764037D01*
X102639365Y-123595414D01*
X102573571Y-123436574D01*
X102573570Y-123436572D01*
X102573570Y-123436571D01*
X102478057Y-123293626D01*
X102478051Y-123293618D01*
X102356487Y-123172054D01*
X102356479Y-123172048D01*
X102213534Y-123076535D01*
X102054692Y-123010741D01*
X102054684Y-123010739D01*
X101886073Y-122977200D01*
X101886069Y-122977200D01*
X101714143Y-122977200D01*
X101714138Y-122977200D01*
X101545527Y-123010739D01*
X101545519Y-123010741D01*
X101386678Y-123076535D01*
X101386677Y-123076535D01*
X101243732Y-123172048D01*
X101243724Y-123172054D01*
X101122160Y-123293618D01*
X101122154Y-123293626D01*
X101026641Y-123436571D01*
X101026641Y-123436572D01*
X100960847Y-123595413D01*
X100960845Y-123595421D01*
X100927306Y-123764032D01*
X99000500Y-123764032D01*
X99000500Y-104647635D01*
X102699400Y-104647635D01*
X102699400Y-104852364D01*
X102731425Y-105054559D01*
X102794684Y-105249254D01*
X102794685Y-105249257D01*
X102868277Y-105393687D01*
X102887627Y-105431663D01*
X103007958Y-105597284D01*
X103152716Y-105742042D01*
X103318337Y-105862373D01*
X103318339Y-105862374D01*
X103371606Y-105889516D01*
X103422401Y-105937491D01*
X103439196Y-106005312D01*
X103416658Y-106071446D01*
X103371606Y-106110484D01*
X103318339Y-106137625D01*
X103238971Y-106195290D01*
X103152716Y-106257958D01*
X103152714Y-106257960D01*
X103152713Y-106257960D01*
X103007960Y-106402713D01*
X103007960Y-106402714D01*
X103007958Y-106402716D01*
X102968996Y-106456342D01*
X102887627Y-106568336D01*
X102794685Y-106750742D01*
X102794684Y-106750745D01*
X102731425Y-106945440D01*
X102699400Y-107147635D01*
X102699400Y-107352364D01*
X102731425Y-107554559D01*
X102794684Y-107749254D01*
X102794685Y-107749257D01*
X102877991Y-107912751D01*
X102887627Y-107931663D01*
X103007958Y-108097284D01*
X103152716Y-108242042D01*
X103318337Y-108362373D01*
X103318339Y-108362374D01*
X103371606Y-108389516D01*
X103422401Y-108437491D01*
X103439196Y-108505312D01*
X103416658Y-108571446D01*
X103371606Y-108610484D01*
X103318339Y-108637625D01*
X103238971Y-108695290D01*
X103152716Y-108757958D01*
X103152714Y-108757960D01*
X103152713Y-108757960D01*
X103007960Y-108902713D01*
X103007960Y-108902714D01*
X103007958Y-108902716D01*
X102968996Y-108956342D01*
X102887627Y-109068336D01*
X102794685Y-109250742D01*
X102794684Y-109250745D01*
X102731425Y-109445440D01*
X102699400Y-109647635D01*
X102699400Y-109852364D01*
X102731425Y-110054559D01*
X102794684Y-110249254D01*
X102794685Y-110249257D01*
X102855041Y-110367710D01*
X102887627Y-110431663D01*
X103007958Y-110597284D01*
X103152716Y-110742042D01*
X103318337Y-110862373D01*
X103318339Y-110862374D01*
X103371606Y-110889516D01*
X103422401Y-110937491D01*
X103439196Y-111005312D01*
X103416658Y-111071446D01*
X103371606Y-111110484D01*
X103318339Y-111137625D01*
X103238971Y-111195290D01*
X103152716Y-111257958D01*
X103152714Y-111257960D01*
X103152713Y-111257960D01*
X103007960Y-111402713D01*
X103007960Y-111402714D01*
X103007958Y-111402716D01*
X102957248Y-111472512D01*
X102887627Y-111568336D01*
X102794685Y-111750742D01*
X102794684Y-111750745D01*
X102731425Y-111945440D01*
X102699400Y-112147635D01*
X102699400Y-112352364D01*
X102731425Y-112554559D01*
X102794684Y-112749254D01*
X102794685Y-112749257D01*
X102855041Y-112867710D01*
X102887627Y-112931663D01*
X103007958Y-113097284D01*
X103152716Y-113242042D01*
X103318337Y-113362373D01*
X103318339Y-113362374D01*
X103371606Y-113389516D01*
X103422401Y-113437491D01*
X103439196Y-113505312D01*
X103416658Y-113571446D01*
X103371606Y-113610484D01*
X103318339Y-113637625D01*
X103236591Y-113697019D01*
X103152716Y-113757958D01*
X103152714Y-113757960D01*
X103152713Y-113757960D01*
X103007960Y-113902713D01*
X103007960Y-113902714D01*
X103007958Y-113902716D01*
X102965654Y-113960943D01*
X102887627Y-114068336D01*
X102794685Y-114250742D01*
X102794684Y-114250745D01*
X102731425Y-114445440D01*
X102699400Y-114647635D01*
X102699400Y-114852364D01*
X102731425Y-115054559D01*
X102794684Y-115249254D01*
X102794685Y-115249257D01*
X102855042Y-115367712D01*
X102887627Y-115431663D01*
X103007958Y-115597284D01*
X103152716Y-115742042D01*
X103318337Y-115862373D01*
X103318339Y-115862374D01*
X103371606Y-115889516D01*
X103422401Y-115937491D01*
X103439196Y-116005312D01*
X103416658Y-116071446D01*
X103371606Y-116110484D01*
X103318339Y-116137625D01*
X103235526Y-116197792D01*
X103152716Y-116257958D01*
X103152714Y-116257960D01*
X103152713Y-116257960D01*
X103007960Y-116402713D01*
X103007960Y-116402714D01*
X103007958Y-116402716D01*
X102956280Y-116473843D01*
X102887627Y-116568336D01*
X102794685Y-116750742D01*
X102794684Y-116750745D01*
X102731425Y-116945440D01*
X102699400Y-117147635D01*
X102699400Y-117352364D01*
X102731425Y-117554559D01*
X102794684Y-117749254D01*
X102794685Y-117749257D01*
X102887627Y-117931663D01*
X103007958Y-118097284D01*
X103152716Y-118242042D01*
X103318337Y-118362373D01*
X103318339Y-118362374D01*
X103371606Y-118389516D01*
X103422401Y-118437491D01*
X103439196Y-118505312D01*
X103416658Y-118571446D01*
X103371606Y-118610484D01*
X103318339Y-118637625D01*
X103301995Y-118649500D01*
X103152716Y-118757958D01*
X103152714Y-118757960D01*
X103152713Y-118757960D01*
X103007960Y-118902713D01*
X103007960Y-118902714D01*
X103007958Y-118902716D01*
X102956280Y-118973843D01*
X102887627Y-119068336D01*
X102794685Y-119250742D01*
X102794684Y-119250745D01*
X102731425Y-119445440D01*
X102699400Y-119647635D01*
X102699400Y-119852364D01*
X102731425Y-120054559D01*
X102794684Y-120249254D01*
X102794685Y-120249257D01*
X102887627Y-120431663D01*
X103007958Y-120597284D01*
X103152716Y-120742042D01*
X103318337Y-120862373D01*
X103318339Y-120862374D01*
X103371606Y-120889516D01*
X103422401Y-120937491D01*
X103439196Y-121005312D01*
X103416658Y-121071446D01*
X103371606Y-121110484D01*
X103318339Y-121137625D01*
X103235526Y-121197792D01*
X103152716Y-121257958D01*
X103152714Y-121257960D01*
X103152713Y-121257960D01*
X103007960Y-121402713D01*
X103007960Y-121402714D01*
X103007958Y-121402716D01*
X102956280Y-121473843D01*
X102887627Y-121568336D01*
X102794685Y-121750742D01*
X102794684Y-121750745D01*
X102731425Y-121945440D01*
X102699400Y-122147635D01*
X102699400Y-122352364D01*
X102731425Y-122554559D01*
X102794684Y-122749254D01*
X102794685Y-122749257D01*
X102867222Y-122891616D01*
X102887627Y-122931663D01*
X103007958Y-123097284D01*
X103152716Y-123242042D01*
X103318337Y-123362373D01*
X103407801Y-123407957D01*
X103500742Y-123455314D01*
X103500745Y-123455315D01*
X103598092Y-123486944D01*
X103695442Y-123518575D01*
X103789089Y-123533407D01*
X103897636Y-123550600D01*
X103897641Y-123550600D01*
X104102364Y-123550600D01*
X104200385Y-123535074D01*
X104304558Y-123518575D01*
X104499257Y-123455314D01*
X104681663Y-123362373D01*
X104847284Y-123242042D01*
X104992042Y-123097284D01*
X105097625Y-122951962D01*
X109871500Y-122951962D01*
X109871500Y-123248037D01*
X109898790Y-123455314D01*
X109910144Y-123541557D01*
X109986769Y-123827529D01*
X110031685Y-123935964D01*
X110100070Y-124101059D01*
X110100071Y-124101060D01*
X110248096Y-124357447D01*
X110428324Y-124592326D01*
X110428330Y-124592333D01*
X110637666Y-124801669D01*
X110637673Y-124801675D01*
X110872552Y-124981903D01*
X111128939Y-125129928D01*
X111128940Y-125129929D01*
X111128943Y-125129930D01*
X111128948Y-125129933D01*
X111402471Y-125243231D01*
X111688443Y-125319856D01*
X111981970Y-125358500D01*
X111981977Y-125358500D01*
X112278023Y-125358500D01*
X112278030Y-125358500D01*
X112571557Y-125319856D01*
X112857529Y-125243231D01*
X113131052Y-125129933D01*
X113387448Y-124981903D01*
X113622328Y-124801674D01*
X113831674Y-124592328D01*
X114011903Y-124357448D01*
X114159933Y-124101052D01*
X114273231Y-123827529D01*
X114349856Y-123541557D01*
X114388500Y-123248030D01*
X114388500Y-122951970D01*
X114388499Y-122951962D01*
X125111500Y-122951962D01*
X125111500Y-123248037D01*
X125138790Y-123455314D01*
X125150144Y-123541557D01*
X125226769Y-123827529D01*
X125271685Y-123935964D01*
X125340070Y-124101059D01*
X125340071Y-124101060D01*
X125488096Y-124357447D01*
X125668324Y-124592326D01*
X125668330Y-124592333D01*
X125877666Y-124801669D01*
X125877673Y-124801675D01*
X126112552Y-124981903D01*
X126368939Y-125129928D01*
X126368940Y-125129929D01*
X126368943Y-125129930D01*
X126368948Y-125129933D01*
X126642471Y-125243231D01*
X126928443Y-125319856D01*
X127221970Y-125358500D01*
X127221977Y-125358500D01*
X127518023Y-125358500D01*
X127518030Y-125358500D01*
X127811557Y-125319856D01*
X128097529Y-125243231D01*
X128371052Y-125129933D01*
X128627448Y-124981903D01*
X128862328Y-124801674D01*
X129071674Y-124592328D01*
X129251903Y-124357448D01*
X129399933Y-124101052D01*
X129513231Y-123827529D01*
X129589856Y-123541557D01*
X129628500Y-123248030D01*
X129628500Y-122951970D01*
X129589856Y-122658443D01*
X129513231Y-122372471D01*
X129399933Y-122098948D01*
X129399930Y-122098943D01*
X129399929Y-122098940D01*
X129399928Y-122098939D01*
X129251903Y-121842552D01*
X129071675Y-121607673D01*
X129071669Y-121607666D01*
X128862333Y-121398330D01*
X128862326Y-121398324D01*
X128627447Y-121218096D01*
X128371060Y-121070071D01*
X128371059Y-121070070D01*
X128309777Y-121044686D01*
X128097529Y-120956769D01*
X127811557Y-120880144D01*
X127762503Y-120873685D01*
X127518037Y-120841500D01*
X127518030Y-120841500D01*
X127221970Y-120841500D01*
X127221962Y-120841500D01*
X126942571Y-120878283D01*
X126928443Y-120880144D01*
X126893466Y-120889516D01*
X126642477Y-120956767D01*
X126642473Y-120956768D01*
X126642471Y-120956769D01*
X126642464Y-120956772D01*
X126368940Y-121070070D01*
X126368939Y-121070071D01*
X126112552Y-121218096D01*
X125877673Y-121398324D01*
X125877666Y-121398330D01*
X125668330Y-121607666D01*
X125668324Y-121607673D01*
X125488096Y-121842552D01*
X125340071Y-122098939D01*
X125340070Y-122098940D01*
X125226772Y-122372464D01*
X125226767Y-122372477D01*
X125150145Y-122658440D01*
X125150143Y-122658451D01*
X125111500Y-122951962D01*
X114388499Y-122951962D01*
X114349856Y-122658443D01*
X114273231Y-122372471D01*
X114159933Y-122098948D01*
X114159930Y-122098943D01*
X114159929Y-122098940D01*
X114159928Y-122098939D01*
X114011903Y-121842552D01*
X113831675Y-121607673D01*
X113831669Y-121607666D01*
X113622333Y-121398330D01*
X113622326Y-121398324D01*
X113387447Y-121218096D01*
X113131060Y-121070071D01*
X113131059Y-121070070D01*
X113069777Y-121044686D01*
X112857529Y-120956769D01*
X112571557Y-120880144D01*
X112522503Y-120873685D01*
X112278037Y-120841500D01*
X112278030Y-120841500D01*
X111981970Y-120841500D01*
X111981962Y-120841500D01*
X111702571Y-120878283D01*
X111688443Y-120880144D01*
X111653466Y-120889516D01*
X111402477Y-120956767D01*
X111402473Y-120956768D01*
X111402471Y-120956769D01*
X111402464Y-120956772D01*
X111128940Y-121070070D01*
X111128939Y-121070071D01*
X110872552Y-121218096D01*
X110637673Y-121398324D01*
X110637666Y-121398330D01*
X110428330Y-121607666D01*
X110428324Y-121607673D01*
X110248096Y-121842552D01*
X110100071Y-122098939D01*
X110100070Y-122098940D01*
X109986772Y-122372464D01*
X109986767Y-122372477D01*
X109910145Y-122658440D01*
X109910143Y-122658451D01*
X109871500Y-122951962D01*
X105097625Y-122951962D01*
X105112373Y-122931663D01*
X105205314Y-122749257D01*
X105268575Y-122554558D01*
X105297416Y-122372464D01*
X105300600Y-122352364D01*
X105300600Y-122147635D01*
X105268575Y-121945443D01*
X105263907Y-121931076D01*
X105261911Y-121861235D01*
X105294155Y-121805078D01*
X107212417Y-119886819D01*
X107273740Y-119853334D01*
X107300098Y-119850500D01*
X157413331Y-119850500D01*
X157413347Y-119850501D01*
X157420943Y-119850501D01*
X157579054Y-119850501D01*
X157579057Y-119850501D01*
X157731785Y-119809577D01*
X157781904Y-119780639D01*
X157868716Y-119730520D01*
X157980520Y-119618716D01*
X157980520Y-119618714D01*
X157990728Y-119608507D01*
X157990730Y-119608504D01*
X164568506Y-113030728D01*
X164568511Y-113030724D01*
X164578714Y-113020520D01*
X164578716Y-113020520D01*
X164690520Y-112908716D01*
X164763856Y-112781694D01*
X164769577Y-112771785D01*
X164810501Y-112619057D01*
X164810501Y-112460943D01*
X164810501Y-112453348D01*
X164810500Y-112453330D01*
X164810500Y-103474900D01*
X164830185Y-103407861D01*
X164869401Y-103369363D01*
X164908350Y-103345340D01*
X165030340Y-103223350D01*
X165120908Y-103076516D01*
X165175174Y-102912753D01*
X165185500Y-102811677D01*
X165185499Y-102213324D01*
X165182651Y-102185448D01*
X165175174Y-102112247D01*
X165167391Y-102088759D01*
X165120908Y-101948484D01*
X165030340Y-101801650D01*
X164916371Y-101687681D01*
X164882886Y-101626358D01*
X164887870Y-101556666D01*
X164916371Y-101512319D01*
X164966190Y-101462500D01*
X165030340Y-101398350D01*
X165120908Y-101251516D01*
X165175174Y-101087753D01*
X165185500Y-100986677D01*
X165185499Y-100388324D01*
X165175174Y-100287247D01*
X165120908Y-100123484D01*
X165030340Y-99976650D01*
X164908350Y-99854660D01*
X164908349Y-99854659D01*
X164869402Y-99830636D01*
X164822678Y-99778687D01*
X164810500Y-99725098D01*
X164810500Y-98826560D01*
X164810501Y-98826547D01*
X164810501Y-98658444D01*
X164803863Y-98633670D01*
X164769577Y-98505716D01*
X164769573Y-98505709D01*
X164690524Y-98368790D01*
X164690518Y-98368782D01*
X163471818Y-97150082D01*
X163438333Y-97088759D01*
X163435499Y-97062401D01*
X163435499Y-96638330D01*
X163435498Y-96638313D01*
X163425174Y-96537247D01*
X163409175Y-96488965D01*
X163370908Y-96373484D01*
X163280340Y-96226650D01*
X163158350Y-96104660D01*
X163011516Y-96014092D01*
X162847753Y-95959826D01*
X162847751Y-95959825D01*
X162746678Y-95949500D01*
X162173330Y-95949500D01*
X162173312Y-95949501D01*
X162072247Y-95959825D01*
X161908484Y-96014092D01*
X161908481Y-96014093D01*
X161761648Y-96104661D01*
X161639660Y-96226649D01*
X161635179Y-96232317D01*
X161632618Y-96230292D01*
X161591428Y-96267330D01*
X161537855Y-96279500D01*
X150436730Y-96279500D01*
X150369691Y-96259815D01*
X150332808Y-96222133D01*
X150332651Y-96222248D01*
X150331872Y-96221176D01*
X150331000Y-96220285D01*
X150329789Y-96218309D01*
X150321673Y-96207138D01*
X150212981Y-96057536D01*
X150072464Y-95917019D01*
X149911694Y-95800213D01*
X149755218Y-95720484D01*
X149704423Y-95672510D01*
X149687628Y-95604689D01*
X149710165Y-95538554D01*
X149755218Y-95499515D01*
X149911694Y-95419787D01*
X150072464Y-95302981D01*
X150212981Y-95162464D01*
X150329787Y-95001694D01*
X150420005Y-94824632D01*
X150481413Y-94635636D01*
X150512500Y-94439361D01*
X150512500Y-94240639D01*
X150481413Y-94044364D01*
X150421759Y-93860765D01*
X150420006Y-93855370D01*
X150420005Y-93855367D01*
X150363754Y-93744970D01*
X150329787Y-93678306D01*
X150212981Y-93517536D01*
X150072464Y-93377019D01*
X149911694Y-93260213D01*
X149755218Y-93180484D01*
X149704423Y-93132510D01*
X149687628Y-93064689D01*
X149710165Y-92998554D01*
X149755218Y-92959515D01*
X149911694Y-92879787D01*
X150072464Y-92762981D01*
X150212981Y-92622464D01*
X150329787Y-92461694D01*
X150420005Y-92284632D01*
X150481413Y-92095636D01*
X150512500Y-91899361D01*
X150512500Y-91700639D01*
X150481413Y-91504364D01*
X150450709Y-91409866D01*
X150420006Y-91315370D01*
X150420005Y-91315367D01*
X150374035Y-91225149D01*
X150329787Y-91138306D01*
X150212981Y-90977536D01*
X150072464Y-90837019D01*
X149911694Y-90720213D01*
X149755218Y-90640484D01*
X149704423Y-90592510D01*
X149687628Y-90524689D01*
X149710165Y-90458554D01*
X149755218Y-90419515D01*
X149911694Y-90339787D01*
X150072464Y-90222981D01*
X150212981Y-90082464D01*
X150329787Y-89921694D01*
X150420005Y-89744632D01*
X150481413Y-89555636D01*
X150512500Y-89359361D01*
X150512500Y-89160639D01*
X150481413Y-88964364D01*
X150449560Y-88866330D01*
X150420006Y-88775370D01*
X150420005Y-88775367D01*
X150358865Y-88655374D01*
X150329787Y-88598306D01*
X150212981Y-88437536D01*
X150072464Y-88297019D01*
X149911694Y-88180213D01*
X149755218Y-88100484D01*
X149704423Y-88052510D01*
X149687628Y-87984689D01*
X149710165Y-87918554D01*
X149755218Y-87879515D01*
X149911694Y-87799787D01*
X150072464Y-87682981D01*
X150212981Y-87542464D01*
X150329787Y-87381694D01*
X150420005Y-87204632D01*
X150481413Y-87015636D01*
X150512500Y-86819361D01*
X150512500Y-86620639D01*
X150481413Y-86424364D01*
X150420005Y-86235368D01*
X150420005Y-86235367D01*
X150329786Y-86058305D01*
X150212981Y-85897536D01*
X150072464Y-85757019D01*
X149911694Y-85640213D01*
X149755218Y-85560484D01*
X149704423Y-85512510D01*
X149687628Y-85444689D01*
X149710165Y-85378554D01*
X149755218Y-85339515D01*
X149911694Y-85259787D01*
X150072464Y-85142981D01*
X150212981Y-85002464D01*
X150329787Y-84841694D01*
X150420005Y-84664632D01*
X150481413Y-84475636D01*
X150512500Y-84279361D01*
X150512500Y-84080639D01*
X150481413Y-83884364D01*
X150420005Y-83695368D01*
X150420005Y-83695367D01*
X150329786Y-83518305D01*
X150325679Y-83512652D01*
X150252300Y-83411654D01*
X151875001Y-83411654D01*
X151885319Y-83512652D01*
X151939546Y-83676300D01*
X151939551Y-83676311D01*
X152030052Y-83823034D01*
X152030055Y-83823038D01*
X152151961Y-83944944D01*
X152151965Y-83944947D01*
X152298688Y-84035448D01*
X152298699Y-84035453D01*
X152462347Y-84089680D01*
X152563352Y-84099999D01*
X152600000Y-84099999D01*
X153100000Y-84099999D01*
X153136640Y-84099999D01*
X153136654Y-84099998D01*
X153237652Y-84089680D01*
X153401300Y-84035453D01*
X153401311Y-84035448D01*
X153548034Y-83944947D01*
X153548038Y-83944944D01*
X153669944Y-83823038D01*
X153669947Y-83823034D01*
X153760448Y-83676311D01*
X153760453Y-83676300D01*
X153814680Y-83512652D01*
X153824999Y-83411654D01*
X153825000Y-83411641D01*
X153825000Y-83362500D01*
X153100000Y-83362500D01*
X153100000Y-84099999D01*
X152600000Y-84099999D01*
X152600000Y-83362500D01*
X151875001Y-83362500D01*
X151875001Y-83411654D01*
X150252300Y-83411654D01*
X150212981Y-83357536D01*
X150072464Y-83217019D01*
X149911694Y-83100213D01*
X149755218Y-83020484D01*
X149704423Y-82972510D01*
X149687628Y-82904689D01*
X149710165Y-82838554D01*
X149755218Y-82799515D01*
X149911694Y-82719787D01*
X150072464Y-82602981D01*
X150212981Y-82462464D01*
X150329787Y-82301694D01*
X150420005Y-82124632D01*
X150481413Y-81935636D01*
X150512500Y-81739361D01*
X150512500Y-81540639D01*
X150481413Y-81344364D01*
X150443688Y-81228257D01*
X150420006Y-81155370D01*
X150420005Y-81155367D01*
X150348724Y-81015472D01*
X150329787Y-80978306D01*
X150212981Y-80817536D01*
X150072464Y-80677019D01*
X149911694Y-80560213D01*
X149755218Y-80480484D01*
X149704423Y-80432510D01*
X149687628Y-80364689D01*
X149710165Y-80298554D01*
X149755218Y-80259515D01*
X149911694Y-80179787D01*
X150072464Y-80062981D01*
X150212981Y-79922464D01*
X150329787Y-79761694D01*
X150329789Y-79761689D01*
X150331000Y-79759715D01*
X150331656Y-79759121D01*
X150332651Y-79757752D01*
X150332938Y-79757960D01*
X150382810Y-79712837D01*
X150436730Y-79700500D01*
X150789241Y-79700500D01*
X150856280Y-79720185D01*
X150902035Y-79772989D01*
X150911979Y-79842147D01*
X150892343Y-79893391D01*
X150840609Y-79970815D01*
X150840602Y-79970827D01*
X150780264Y-80116498D01*
X150780261Y-80116510D01*
X150749500Y-80271153D01*
X150749500Y-80428846D01*
X150780261Y-80583489D01*
X150780264Y-80583501D01*
X150840602Y-80729172D01*
X150840609Y-80729185D01*
X150928210Y-80860288D01*
X150928213Y-80860292D01*
X151039707Y-80971786D01*
X151039711Y-80971789D01*
X151170814Y-81059390D01*
X151170827Y-81059397D01*
X151316498Y-81119735D01*
X151316503Y-81119737D01*
X151471153Y-81150499D01*
X151471156Y-81150500D01*
X151471158Y-81150500D01*
X151628844Y-81150500D01*
X151726308Y-81131113D01*
X151795900Y-81137340D01*
X151851077Y-81180203D01*
X151874322Y-81246093D01*
X151874500Y-81252730D01*
X151874500Y-81586668D01*
X151874501Y-81586687D01*
X151884825Y-81687752D01*
X151939092Y-81851515D01*
X151939093Y-81851518D01*
X152029661Y-81998351D01*
X152143982Y-82112672D01*
X152177467Y-82173995D01*
X152172483Y-82243687D01*
X152143983Y-82288034D01*
X152030052Y-82401965D01*
X151939551Y-82548688D01*
X151939546Y-82548699D01*
X151885319Y-82712347D01*
X151875000Y-82813345D01*
X151875000Y-82862500D01*
X153824999Y-82862500D01*
X153824999Y-82813360D01*
X153824998Y-82813345D01*
X153814680Y-82712347D01*
X153760453Y-82548699D01*
X153760448Y-82548688D01*
X153669947Y-82401965D01*
X153669944Y-82401961D01*
X153556017Y-82288034D01*
X153522532Y-82226711D01*
X153527516Y-82157019D01*
X153556013Y-82112676D01*
X153670340Y-81998350D01*
X153760908Y-81851516D01*
X153815174Y-81687753D01*
X153825500Y-81586677D01*
X153825499Y-81074500D01*
X153845183Y-81007462D01*
X153897987Y-80961707D01*
X153949499Y-80950501D01*
X153979054Y-80950501D01*
X153979057Y-80950501D01*
X154131785Y-80909577D01*
X154202558Y-80868716D01*
X154268716Y-80830520D01*
X154380520Y-80718716D01*
X154380520Y-80718714D01*
X154390724Y-80708511D01*
X154390728Y-80708506D01*
X155252416Y-79846818D01*
X155313739Y-79813333D01*
X155340097Y-79810499D01*
X155607871Y-79810499D01*
X155607872Y-79810499D01*
X155667483Y-79804091D01*
X155802331Y-79753796D01*
X155917546Y-79667546D01*
X156003796Y-79552331D01*
X156054091Y-79417483D01*
X156060500Y-79357873D01*
X156060499Y-78842128D01*
X156054091Y-78782517D01*
X156018935Y-78688260D01*
X156003797Y-78647671D01*
X156003793Y-78647664D01*
X155917547Y-78532455D01*
X155917544Y-78532452D01*
X155802335Y-78446206D01*
X155802328Y-78446202D01*
X155667482Y-78395908D01*
X155667483Y-78395908D01*
X155607883Y-78389501D01*
X155607881Y-78389500D01*
X155607873Y-78389500D01*
X155607864Y-78389500D01*
X154692129Y-78389500D01*
X154692123Y-78389501D01*
X154632516Y-78395908D01*
X154497671Y-78446202D01*
X154497664Y-78446206D01*
X154382455Y-78532452D01*
X154382452Y-78532455D01*
X154296206Y-78647664D01*
X154296202Y-78647671D01*
X154245908Y-78782517D01*
X154239501Y-78842116D01*
X154239501Y-78842123D01*
X154239500Y-78842135D01*
X154239500Y-79109902D01*
X154219815Y-79176941D01*
X154203181Y-79197583D01*
X153972180Y-79428583D01*
X153910857Y-79462068D01*
X153841165Y-79457084D01*
X153785232Y-79415212D01*
X153760815Y-79349748D01*
X153760499Y-79340929D01*
X153760499Y-78842128D01*
X153754091Y-78782517D01*
X153718935Y-78688260D01*
X153703797Y-78647671D01*
X153703793Y-78647664D01*
X153617547Y-78532455D01*
X153500188Y-78444599D01*
X153458318Y-78388665D01*
X153450500Y-78345333D01*
X153450500Y-77905741D01*
X153470185Y-77838702D01*
X153509402Y-77800202D01*
X153598350Y-77745340D01*
X153720340Y-77623350D01*
X153810908Y-77476516D01*
X153865174Y-77312753D01*
X153875500Y-77211677D01*
X153875499Y-76538324D01*
X153867563Y-76460639D01*
X153865174Y-76437247D01*
X153810908Y-76273484D01*
X153720340Y-76126650D01*
X153681371Y-76087681D01*
X153647886Y-76026358D01*
X153652870Y-75956666D01*
X153681371Y-75912319D01*
X153695385Y-75898305D01*
X153720340Y-75873350D01*
X153810908Y-75726516D01*
X153865174Y-75562753D01*
X153875500Y-75461677D01*
X153875499Y-74788324D01*
X153865174Y-74687247D01*
X153810908Y-74523484D01*
X153720340Y-74376650D01*
X153598350Y-74254660D01*
X153451516Y-74164092D01*
X153287753Y-74109826D01*
X153287751Y-74109825D01*
X153186684Y-74099500D01*
X153186677Y-74099500D01*
X152770097Y-74099500D01*
X152703058Y-74079815D01*
X152682416Y-74063181D01*
X150513762Y-71894527D01*
X150480277Y-71833204D01*
X150480843Y-71780478D01*
X150480651Y-71780448D01*
X150480857Y-71779143D01*
X150480871Y-71777891D01*
X150481409Y-71775646D01*
X150481413Y-71775636D01*
X150512500Y-71579361D01*
X150512500Y-71380639D01*
X150481413Y-71184364D01*
X150420005Y-70995368D01*
X150420005Y-70995367D01*
X150357751Y-70873188D01*
X150329787Y-70818306D01*
X150212981Y-70657536D01*
X150072464Y-70517019D01*
X149911694Y-70400213D01*
X149754667Y-70320203D01*
X149703872Y-70272229D01*
X149687077Y-70204408D01*
X149709614Y-70138273D01*
X149754669Y-70099234D01*
X149911422Y-70019364D01*
X149948716Y-69992268D01*
X149277448Y-69321000D01*
X149300160Y-69321000D01*
X149397061Y-69295036D01*
X149483940Y-69244876D01*
X149554876Y-69173940D01*
X149605036Y-69087061D01*
X149631000Y-68990160D01*
X149631000Y-68967447D01*
X150302268Y-69638715D01*
X150329362Y-69601425D01*
X150419542Y-69424437D01*
X150480924Y-69235523D01*
X150480924Y-69235520D01*
X150512000Y-69039321D01*
X150512000Y-68840678D01*
X150480924Y-68644479D01*
X150480924Y-68644476D01*
X150419542Y-68455562D01*
X150329358Y-68278567D01*
X150302268Y-68241283D01*
X149631000Y-68912551D01*
X149631000Y-68889840D01*
X149605036Y-68792939D01*
X149554876Y-68706060D01*
X149483940Y-68635124D01*
X149397061Y-68584964D01*
X149300160Y-68559000D01*
X149277447Y-68559000D01*
X149948716Y-67887731D01*
X149948715Y-67887730D01*
X149911432Y-67860641D01*
X149754117Y-67780485D01*
X149703321Y-67732510D01*
X149686526Y-67664689D01*
X149709063Y-67598554D01*
X149754117Y-67559515D01*
X149911425Y-67479362D01*
X149948716Y-67452268D01*
X149277448Y-66781000D01*
X149300160Y-66781000D01*
X149397061Y-66755036D01*
X149483940Y-66704876D01*
X149554876Y-66633940D01*
X149605036Y-66547061D01*
X149631000Y-66450160D01*
X149631000Y-66427447D01*
X150302268Y-67098715D01*
X150329362Y-67061425D01*
X150419542Y-66884437D01*
X150480924Y-66695523D01*
X150480924Y-66695520D01*
X150512000Y-66499321D01*
X150512000Y-66300678D01*
X150480924Y-66104479D01*
X150480924Y-66104476D01*
X150419542Y-65915562D01*
X150329358Y-65738567D01*
X150302268Y-65701283D01*
X149631000Y-66372551D01*
X149631000Y-66349840D01*
X149605036Y-66252939D01*
X149554876Y-66166060D01*
X149483940Y-66095124D01*
X149397061Y-66044964D01*
X149300160Y-66019000D01*
X149277447Y-66019000D01*
X149948716Y-65347731D01*
X149948715Y-65347730D01*
X149911432Y-65320641D01*
X149734437Y-65230457D01*
X149545522Y-65169075D01*
X149349321Y-65138000D01*
X149150679Y-65138000D01*
X148954479Y-65169075D01*
X148954476Y-65169075D01*
X148765562Y-65230457D01*
X148588564Y-65320643D01*
X148551283Y-65347729D01*
X148551282Y-65347730D01*
X149222554Y-66019000D01*
X149199840Y-66019000D01*
X149102939Y-66044964D01*
X149016060Y-66095124D01*
X148945124Y-66166060D01*
X148894964Y-66252939D01*
X148869000Y-66349840D01*
X148869000Y-66372552D01*
X148197730Y-65701282D01*
X148197729Y-65701283D01*
X148170643Y-65738564D01*
X148080457Y-65915562D01*
X148019075Y-66104476D01*
X148019075Y-66104479D01*
X147988000Y-66300678D01*
X147988000Y-66499321D01*
X148019075Y-66695520D01*
X148019075Y-66695523D01*
X148080457Y-66884437D01*
X148170641Y-67061432D01*
X148197730Y-67098715D01*
X148197731Y-67098716D01*
X148869000Y-66427447D01*
X148869000Y-66450160D01*
X148894964Y-66547061D01*
X148945124Y-66633940D01*
X149016060Y-66704876D01*
X149102939Y-66755036D01*
X149199840Y-66781000D01*
X149222553Y-66781000D01*
X148551283Y-67452268D01*
X148551283Y-67452269D01*
X148588567Y-67479358D01*
X148745882Y-67559515D01*
X148796678Y-67607490D01*
X148813473Y-67675311D01*
X148790935Y-67741446D01*
X148745882Y-67780485D01*
X148588564Y-67860643D01*
X148551283Y-67887729D01*
X148551282Y-67887730D01*
X149222554Y-68559000D01*
X149199840Y-68559000D01*
X149102939Y-68584964D01*
X149016060Y-68635124D01*
X148945124Y-68706060D01*
X148894964Y-68792939D01*
X148869000Y-68889840D01*
X148869000Y-68912552D01*
X148197730Y-68241282D01*
X148197729Y-68241283D01*
X148170643Y-68278564D01*
X148080457Y-68455562D01*
X148019075Y-68644476D01*
X148019075Y-68644479D01*
X147988000Y-68840678D01*
X147988000Y-69039321D01*
X148019075Y-69235520D01*
X148019075Y-69235523D01*
X148080457Y-69424437D01*
X148170641Y-69601432D01*
X148197730Y-69638715D01*
X148197731Y-69638716D01*
X148869000Y-68967447D01*
X148869000Y-68990160D01*
X148894964Y-69087061D01*
X148945124Y-69173940D01*
X149016060Y-69244876D01*
X149102939Y-69295036D01*
X149199840Y-69321000D01*
X149222553Y-69321000D01*
X148551283Y-69992268D01*
X148551283Y-69992269D01*
X148588567Y-70019358D01*
X148745331Y-70099234D01*
X148796127Y-70147209D01*
X148812922Y-70215030D01*
X148790384Y-70281165D01*
X148745331Y-70320204D01*
X148588305Y-70400213D01*
X148427533Y-70517021D01*
X148287021Y-70657533D01*
X148170213Y-70818305D01*
X148079994Y-70995367D01*
X148079993Y-70995370D01*
X148018587Y-71184362D01*
X147987500Y-71380639D01*
X147987500Y-71579361D01*
X147989549Y-71592299D01*
X148018587Y-71775637D01*
X148079993Y-71964629D01*
X148079994Y-71964632D01*
X148170213Y-72141694D01*
X148287019Y-72302464D01*
X148427536Y-72442981D01*
X148588306Y-72559787D01*
X148706832Y-72620179D01*
X148744780Y-72639515D01*
X148795576Y-72687490D01*
X148812371Y-72755311D01*
X148789833Y-72821446D01*
X148744780Y-72860485D01*
X148588305Y-72940213D01*
X148427533Y-73057021D01*
X148287021Y-73197533D01*
X148170213Y-73358305D01*
X148079994Y-73535367D01*
X148079993Y-73535370D01*
X148018587Y-73724362D01*
X147987500Y-73920639D01*
X147987500Y-74119360D01*
X148018587Y-74315637D01*
X148079993Y-74504629D01*
X148079994Y-74504632D01*
X148170213Y-74681694D01*
X148287019Y-74842464D01*
X148427536Y-74982981D01*
X148588306Y-75099787D01*
X148706832Y-75160179D01*
X148744780Y-75179515D01*
X148795576Y-75227490D01*
X148812371Y-75295311D01*
X148789833Y-75361446D01*
X148744780Y-75400485D01*
X148588305Y-75480213D01*
X148427533Y-75597021D01*
X148287021Y-75737533D01*
X148170213Y-75898305D01*
X148079994Y-76075367D01*
X148079993Y-76075370D01*
X148018587Y-76264362D01*
X147987500Y-76460639D01*
X147987500Y-76659360D01*
X148018587Y-76855637D01*
X148079993Y-77044629D01*
X148079994Y-77044632D01*
X148165109Y-77211677D01*
X148170213Y-77221694D01*
X148287019Y-77382464D01*
X148427536Y-77522981D01*
X148588306Y-77639787D01*
X148706832Y-77700179D01*
X148744780Y-77719515D01*
X148795576Y-77767490D01*
X148812371Y-77835311D01*
X148789833Y-77901446D01*
X148744780Y-77940485D01*
X148588305Y-78020213D01*
X148427533Y-78137021D01*
X148287021Y-78277533D01*
X148170213Y-78438305D01*
X148079994Y-78615367D01*
X148079993Y-78615370D01*
X148018587Y-78804362D01*
X147987500Y-79000639D01*
X147987500Y-79199360D01*
X148018587Y-79395637D01*
X148079993Y-79584629D01*
X148079994Y-79584632D01*
X148122242Y-79667547D01*
X148170213Y-79761694D01*
X148287019Y-79922464D01*
X148427536Y-80062981D01*
X148588306Y-80179787D01*
X148706832Y-80240179D01*
X148744780Y-80259515D01*
X148795576Y-80307490D01*
X148812371Y-80375311D01*
X148789833Y-80441446D01*
X148744780Y-80480485D01*
X148588305Y-80560213D01*
X148427533Y-80677021D01*
X148287021Y-80817533D01*
X148170213Y-80978305D01*
X148079994Y-81155367D01*
X148079993Y-81155370D01*
X148018587Y-81344362D01*
X147987500Y-81540639D01*
X147987500Y-81739361D01*
X147992353Y-81770000D01*
X148018587Y-81935637D01*
X148079993Y-82124629D01*
X148079994Y-82124632D01*
X148151605Y-82265174D01*
X148170213Y-82301694D01*
X148287019Y-82462464D01*
X148427536Y-82602981D01*
X148588306Y-82719787D01*
X148691708Y-82772473D01*
X148744780Y-82799515D01*
X148795576Y-82847490D01*
X148812371Y-82915311D01*
X148789833Y-82981446D01*
X148744780Y-83020485D01*
X148588305Y-83100213D01*
X148427533Y-83217021D01*
X148287021Y-83357533D01*
X148170213Y-83518305D01*
X148079994Y-83695367D01*
X148079993Y-83695370D01*
X148018587Y-83884362D01*
X147987500Y-84080639D01*
X147987500Y-84279360D01*
X148018587Y-84475637D01*
X148079993Y-84664629D01*
X148079994Y-84664632D01*
X148170213Y-84841694D01*
X148287019Y-85002464D01*
X148427536Y-85142981D01*
X148588306Y-85259787D01*
X148706832Y-85320179D01*
X148744780Y-85339515D01*
X148795576Y-85387490D01*
X148812371Y-85455311D01*
X148789833Y-85521446D01*
X148744780Y-85560485D01*
X148588305Y-85640213D01*
X148427533Y-85757021D01*
X148287021Y-85897533D01*
X148170213Y-86058305D01*
X148079994Y-86235367D01*
X148079993Y-86235370D01*
X148018587Y-86424362D01*
X147987500Y-86620639D01*
X147987500Y-86819360D01*
X148018587Y-87015637D01*
X148079993Y-87204629D01*
X148079994Y-87204632D01*
X148170213Y-87381694D01*
X148287019Y-87542464D01*
X148427536Y-87682981D01*
X148588306Y-87799787D01*
X148670951Y-87841897D01*
X148744780Y-87879515D01*
X148795576Y-87927490D01*
X148812371Y-87995311D01*
X148789833Y-88061446D01*
X148744780Y-88100485D01*
X148588305Y-88180213D01*
X148427533Y-88297021D01*
X148287021Y-88437533D01*
X148170213Y-88598305D01*
X148079994Y-88775367D01*
X148079993Y-88775370D01*
X148018587Y-88964362D01*
X147987500Y-89160639D01*
X147987500Y-89359360D01*
X148018587Y-89555637D01*
X148079993Y-89744629D01*
X148079994Y-89744632D01*
X148156959Y-89895681D01*
X148170213Y-89921694D01*
X148287019Y-90082464D01*
X148427536Y-90222981D01*
X148588306Y-90339787D01*
X148706480Y-90400000D01*
X148744780Y-90419515D01*
X148795576Y-90467490D01*
X148812371Y-90535311D01*
X148789833Y-90601446D01*
X148744780Y-90640485D01*
X148588305Y-90720213D01*
X148427533Y-90837021D01*
X148287021Y-90977533D01*
X148170213Y-91138305D01*
X148079994Y-91315367D01*
X148079993Y-91315370D01*
X148018587Y-91504362D01*
X147987500Y-91700639D01*
X147987500Y-91899360D01*
X148018587Y-92095637D01*
X148079993Y-92284629D01*
X148079994Y-92284632D01*
X148139618Y-92401648D01*
X148170213Y-92461694D01*
X148287019Y-92622464D01*
X148427536Y-92762981D01*
X148588306Y-92879787D01*
X148706832Y-92940179D01*
X148744780Y-92959515D01*
X148795576Y-93007490D01*
X148812371Y-93075311D01*
X148789833Y-93141446D01*
X148744780Y-93180485D01*
X148588305Y-93260213D01*
X148427533Y-93377021D01*
X148287021Y-93517533D01*
X148170213Y-93678305D01*
X148079994Y-93855367D01*
X148079993Y-93855370D01*
X148018587Y-94044362D01*
X147987500Y-94240639D01*
X147987500Y-94439360D01*
X148018587Y-94635637D01*
X148079993Y-94824629D01*
X148079994Y-94824632D01*
X148116216Y-94895720D01*
X148170213Y-95001694D01*
X148287019Y-95162464D01*
X148427536Y-95302981D01*
X148588306Y-95419787D01*
X148706832Y-95480179D01*
X148744780Y-95499515D01*
X148795576Y-95547490D01*
X148812371Y-95615311D01*
X148789833Y-95681446D01*
X148744780Y-95720485D01*
X148588305Y-95800213D01*
X148427533Y-95917021D01*
X148287021Y-96057533D01*
X148170213Y-96218305D01*
X148079994Y-96395367D01*
X148079993Y-96395370D01*
X148018587Y-96584362D01*
X147987500Y-96780639D01*
X147987500Y-96979360D01*
X148018587Y-97175637D01*
X148079993Y-97364629D01*
X148079994Y-97364632D01*
X148095815Y-97395681D01*
X148170213Y-97541694D01*
X148287019Y-97702464D01*
X148427536Y-97842981D01*
X148588306Y-97959787D01*
X148684538Y-98008820D01*
X148744780Y-98039515D01*
X148795576Y-98087490D01*
X148812371Y-98155311D01*
X148789833Y-98221446D01*
X148744780Y-98260485D01*
X148588305Y-98340213D01*
X148427533Y-98457021D01*
X148287021Y-98597533D01*
X148170213Y-98758305D01*
X148079994Y-98935367D01*
X148079993Y-98935370D01*
X148018587Y-99124362D01*
X147987500Y-99320639D01*
X147987500Y-99519360D01*
X148018587Y-99715637D01*
X148079993Y-99904629D01*
X148079994Y-99904632D01*
X148116689Y-99976648D01*
X148170213Y-100081694D01*
X148287019Y-100242464D01*
X148427536Y-100382981D01*
X148588306Y-100499787D01*
X148706832Y-100560179D01*
X148744780Y-100579515D01*
X148795576Y-100627490D01*
X148812371Y-100695311D01*
X148789833Y-100761446D01*
X148744780Y-100800485D01*
X148588305Y-100880213D01*
X148427533Y-100997021D01*
X148287021Y-101137533D01*
X148170213Y-101298305D01*
X148079994Y-101475367D01*
X148079993Y-101475370D01*
X148018587Y-101664362D01*
X148018587Y-101664364D01*
X147987500Y-101860639D01*
X147987500Y-102059361D01*
X147992156Y-102088759D01*
X148018587Y-102255637D01*
X148079993Y-102444629D01*
X148079994Y-102444632D01*
X148139033Y-102560500D01*
X148170213Y-102621694D01*
X148287019Y-102782464D01*
X148427536Y-102922981D01*
X148588306Y-103039787D01*
X148703905Y-103098688D01*
X148744780Y-103119515D01*
X148795576Y-103167490D01*
X148812371Y-103235311D01*
X148789833Y-103301446D01*
X148744780Y-103340485D01*
X148588305Y-103420213D01*
X148427533Y-103537021D01*
X148287021Y-103677533D01*
X148170213Y-103838305D01*
X148079994Y-104015367D01*
X148079993Y-104015370D01*
X148018587Y-104204362D01*
X148018587Y-104204364D01*
X147987500Y-104400639D01*
X147987500Y-104599361D01*
X148001135Y-104685448D01*
X148018587Y-104795637D01*
X148079993Y-104984629D01*
X148079994Y-104984632D01*
X148145319Y-105112837D01*
X148170213Y-105161694D01*
X148287019Y-105322464D01*
X148427536Y-105462981D01*
X148588306Y-105579787D01*
X148625423Y-105598699D01*
X148744780Y-105659515D01*
X148795576Y-105707490D01*
X148812371Y-105775311D01*
X148789833Y-105841446D01*
X148744780Y-105880485D01*
X148588305Y-105960213D01*
X148427533Y-106077021D01*
X148287021Y-106217533D01*
X148170213Y-106378305D01*
X148079994Y-106555367D01*
X148079993Y-106555370D01*
X148018587Y-106744362D01*
X147987500Y-106940639D01*
X147987500Y-107139361D01*
X147999215Y-107213324D01*
X148018587Y-107335637D01*
X148079993Y-107524629D01*
X148079994Y-107524632D01*
X148132559Y-107627795D01*
X148170213Y-107701694D01*
X148287019Y-107862464D01*
X148427536Y-108002981D01*
X148588306Y-108119787D01*
X148666859Y-108159812D01*
X148744780Y-108199515D01*
X148795576Y-108247490D01*
X148812371Y-108315311D01*
X148789833Y-108381446D01*
X148744780Y-108420485D01*
X148588305Y-108500213D01*
X148427533Y-108617021D01*
X148287021Y-108757533D01*
X148170213Y-108918305D01*
X148079994Y-109095367D01*
X148079993Y-109095370D01*
X148018587Y-109284362D01*
X147987500Y-109480639D01*
X147987500Y-109679361D01*
X147997500Y-109742499D01*
X148018587Y-109875637D01*
X148079993Y-110064629D01*
X148079994Y-110064632D01*
X148112179Y-110127797D01*
X148170213Y-110241694D01*
X148287019Y-110402464D01*
X148427536Y-110542981D01*
X148588306Y-110659787D01*
X148680980Y-110707007D01*
X148744780Y-110739515D01*
X148795576Y-110787490D01*
X148812371Y-110855311D01*
X148789833Y-110921446D01*
X148744780Y-110960485D01*
X148588305Y-111040213D01*
X148427533Y-111157021D01*
X148287021Y-111297533D01*
X148170213Y-111458305D01*
X148079994Y-111635367D01*
X148079993Y-111635370D01*
X148018587Y-111824362D01*
X147987500Y-112020639D01*
X147987500Y-112219360D01*
X148018587Y-112415637D01*
X148079993Y-112604629D01*
X148079994Y-112604632D01*
X148150832Y-112743657D01*
X148170213Y-112781694D01*
X148287019Y-112942464D01*
X148427536Y-113082981D01*
X148588306Y-113199787D01*
X148671230Y-113242039D01*
X148744780Y-113279515D01*
X148795576Y-113327490D01*
X148812371Y-113395311D01*
X148789833Y-113461446D01*
X148744780Y-113500485D01*
X148588305Y-113580213D01*
X148427533Y-113697021D01*
X148287021Y-113837533D01*
X148170213Y-113998305D01*
X148079994Y-114175367D01*
X148079993Y-114175370D01*
X148018587Y-114364362D01*
X147987500Y-114560639D01*
X147987500Y-114759360D01*
X148018587Y-114955637D01*
X148079993Y-115144629D01*
X148079994Y-115144632D01*
X148133304Y-115249257D01*
X148170213Y-115321694D01*
X148287019Y-115482464D01*
X148427536Y-115622981D01*
X148588306Y-115739787D01*
X148675149Y-115784035D01*
X148765367Y-115830005D01*
X148765370Y-115830006D01*
X148859866Y-115860709D01*
X148954364Y-115891413D01*
X149150639Y-115922500D01*
X149150640Y-115922500D01*
X149349360Y-115922500D01*
X149349361Y-115922500D01*
X149545636Y-115891413D01*
X149734632Y-115830005D01*
X149911694Y-115739787D01*
X150072464Y-115622981D01*
X150212981Y-115482464D01*
X150329787Y-115321694D01*
X150420005Y-115144632D01*
X150481413Y-114955636D01*
X150512500Y-114759361D01*
X150512500Y-114560639D01*
X150481413Y-114364364D01*
X150420005Y-114175368D01*
X150420005Y-114175367D01*
X150367440Y-114072204D01*
X150329787Y-113998306D01*
X150212981Y-113837536D01*
X150072464Y-113697019D01*
X149911694Y-113580213D01*
X149755218Y-113500484D01*
X149704423Y-113452510D01*
X149687628Y-113384689D01*
X149710165Y-113318554D01*
X149755218Y-113279515D01*
X149911694Y-113199787D01*
X150072464Y-113082981D01*
X150212981Y-112942464D01*
X150329787Y-112781694D01*
X150420005Y-112604632D01*
X150481413Y-112415636D01*
X150512500Y-112219361D01*
X150512500Y-112020639D01*
X150481413Y-111824364D01*
X150450709Y-111729866D01*
X150420006Y-111635370D01*
X150420005Y-111635367D01*
X150329786Y-111458305D01*
X150212981Y-111297536D01*
X150072464Y-111157019D01*
X149911694Y-111040213D01*
X149755218Y-110960484D01*
X149704423Y-110912510D01*
X149687628Y-110844689D01*
X149710165Y-110778554D01*
X149755218Y-110739515D01*
X149911694Y-110659787D01*
X150072464Y-110542981D01*
X150212981Y-110402464D01*
X150329787Y-110241694D01*
X150420005Y-110064632D01*
X150481413Y-109875636D01*
X150512500Y-109679361D01*
X150512500Y-109480639D01*
X150481413Y-109284364D01*
X150420005Y-109095368D01*
X150420005Y-109095367D01*
X150329786Y-108918305D01*
X150320605Y-108905668D01*
X150212981Y-108757536D01*
X150072464Y-108617019D01*
X149911694Y-108500213D01*
X149755218Y-108420484D01*
X149704423Y-108372510D01*
X149687628Y-108304689D01*
X149710165Y-108238554D01*
X149755218Y-108199515D01*
X149911694Y-108119787D01*
X150072464Y-108002981D01*
X150212981Y-107862464D01*
X150329787Y-107701694D01*
X150420005Y-107524632D01*
X150481413Y-107335636D01*
X150512500Y-107139361D01*
X150512500Y-106940639D01*
X150481413Y-106744364D01*
X150424219Y-106568336D01*
X150422048Y-106561654D01*
X152485001Y-106561654D01*
X152495319Y-106662652D01*
X152549546Y-106826300D01*
X152549551Y-106826311D01*
X152640052Y-106973034D01*
X152640055Y-106973038D01*
X152761961Y-107094944D01*
X152761965Y-107094947D01*
X152908688Y-107185448D01*
X152908699Y-107185453D01*
X153072347Y-107239680D01*
X153173352Y-107249999D01*
X153210000Y-107249999D01*
X153210000Y-106462500D01*
X152485001Y-106462500D01*
X152485001Y-106561654D01*
X150422048Y-106561654D01*
X150420006Y-106555370D01*
X150420005Y-106555367D01*
X150375200Y-106467433D01*
X150375199Y-106467429D01*
X150329790Y-106378310D01*
X150292182Y-106326547D01*
X150212981Y-106217536D01*
X150072464Y-106077019D01*
X149911694Y-105960213D01*
X149755218Y-105880484D01*
X149704423Y-105832510D01*
X149687628Y-105764689D01*
X149710165Y-105698554D01*
X149755218Y-105659515D01*
X149911694Y-105579787D01*
X150072464Y-105462981D01*
X150212981Y-105322464D01*
X150329787Y-105161694D01*
X150329789Y-105161689D01*
X150331000Y-105159715D01*
X150331656Y-105159121D01*
X150332651Y-105157752D01*
X150332938Y-105157960D01*
X150382810Y-105112837D01*
X150436730Y-105100500D01*
X152479259Y-105100500D01*
X152546298Y-105120185D01*
X152584797Y-105159402D01*
X152586208Y-105161690D01*
X152639659Y-105248349D01*
X152653982Y-105262672D01*
X152687467Y-105323995D01*
X152682483Y-105393687D01*
X152653985Y-105438032D01*
X152640052Y-105451965D01*
X152549551Y-105598688D01*
X152549546Y-105598699D01*
X152495319Y-105762347D01*
X152485000Y-105863345D01*
X152485000Y-105962500D01*
X153336000Y-105962500D01*
X153403039Y-105982185D01*
X153448794Y-106034989D01*
X153460000Y-106086500D01*
X153460000Y-106212500D01*
X153586000Y-106212500D01*
X153653039Y-106232185D01*
X153698794Y-106284989D01*
X153710000Y-106336500D01*
X153710000Y-107249999D01*
X153746640Y-107249999D01*
X153746654Y-107249998D01*
X153847652Y-107239680D01*
X154011300Y-107185453D01*
X154011311Y-107185448D01*
X154158034Y-107094947D01*
X154158038Y-107094944D01*
X154279944Y-106973038D01*
X154279947Y-106973034D01*
X154370450Y-106826307D01*
X154373115Y-106820593D01*
X154419284Y-106768151D01*
X154486477Y-106748995D01*
X154553359Y-106769207D01*
X154598697Y-106822369D01*
X154609500Y-106872991D01*
X154609500Y-107225098D01*
X154589815Y-107292137D01*
X154550598Y-107330636D01*
X154511650Y-107354659D01*
X154389661Y-107476648D01*
X154299093Y-107623481D01*
X154299091Y-107623486D01*
X154297662Y-107627799D01*
X154244826Y-107787247D01*
X154244826Y-107787248D01*
X154244825Y-107787248D01*
X154234500Y-107888315D01*
X154234500Y-108486669D01*
X154234501Y-108486687D01*
X154244825Y-108587752D01*
X154280460Y-108695290D01*
X154294081Y-108736395D01*
X154299092Y-108751515D01*
X154299093Y-108751518D01*
X154389661Y-108898351D01*
X154503629Y-109012319D01*
X154537114Y-109073642D01*
X154532130Y-109143334D01*
X154503629Y-109187681D01*
X154389661Y-109301648D01*
X154299093Y-109448481D01*
X154299092Y-109448484D01*
X154244826Y-109612247D01*
X154244826Y-109612248D01*
X154244825Y-109612248D01*
X154234500Y-109713315D01*
X154234500Y-110311669D01*
X154234501Y-110311687D01*
X154244825Y-110412752D01*
X154267979Y-110482623D01*
X154299092Y-110576516D01*
X154389660Y-110723350D01*
X154511650Y-110845340D01*
X154550597Y-110869362D01*
X154597320Y-110921307D01*
X154609500Y-110974900D01*
X154609500Y-111129091D01*
X154589815Y-111196130D01*
X154545731Y-111234641D01*
X154546813Y-111236395D01*
X154540667Y-111240185D01*
X154540666Y-111240186D01*
X154506138Y-111261483D01*
X154391342Y-111332289D01*
X154267289Y-111456342D01*
X154175187Y-111605663D01*
X154175185Y-111605668D01*
X154165343Y-111635370D01*
X154120001Y-111772203D01*
X154120001Y-111772204D01*
X154120000Y-111772204D01*
X154109500Y-111874983D01*
X154109500Y-112525001D01*
X154109501Y-112525019D01*
X154120000Y-112627796D01*
X154120001Y-112627799D01*
X154175185Y-112794331D01*
X154175186Y-112794334D01*
X154267288Y-112943656D01*
X154391344Y-113067712D01*
X154540666Y-113159814D01*
X154707203Y-113214999D01*
X154809991Y-113225500D01*
X155610008Y-113225499D01*
X155610016Y-113225498D01*
X155610019Y-113225498D01*
X155666302Y-113219748D01*
X155712797Y-113214999D01*
X155879334Y-113159814D01*
X156028656Y-113067712D01*
X156152712Y-112943656D01*
X156244814Y-112794334D01*
X156299999Y-112627797D01*
X156310500Y-112525009D01*
X156310499Y-111874992D01*
X156299999Y-111772203D01*
X156244814Y-111605666D01*
X156152712Y-111456344D01*
X156028656Y-111332288D01*
X155879334Y-111240186D01*
X155879332Y-111240185D01*
X155873187Y-111236395D01*
X155874290Y-111234605D01*
X155829649Y-111195290D01*
X155810500Y-111129091D01*
X155810500Y-110974900D01*
X155830185Y-110907861D01*
X155869401Y-110869363D01*
X155908350Y-110845340D01*
X156030340Y-110723350D01*
X156120908Y-110576516D01*
X156175174Y-110412753D01*
X156185500Y-110311677D01*
X156185499Y-109713324D01*
X156178789Y-109647641D01*
X156175174Y-109612247D01*
X156170491Y-109598116D01*
X156120908Y-109448484D01*
X156030340Y-109301650D01*
X155916371Y-109187681D01*
X155882886Y-109126358D01*
X155887870Y-109056666D01*
X155916371Y-109012319D01*
X155972348Y-108956342D01*
X156030340Y-108898350D01*
X156120908Y-108751516D01*
X156175174Y-108587753D01*
X156185500Y-108486677D01*
X156185499Y-107888324D01*
X156182857Y-107862464D01*
X156175174Y-107787247D01*
X156146824Y-107701694D01*
X156120908Y-107623484D01*
X156030340Y-107476650D01*
X155908350Y-107354660D01*
X155908349Y-107354659D01*
X155869402Y-107330636D01*
X155822678Y-107278687D01*
X155810500Y-107225098D01*
X155810500Y-106326560D01*
X155810501Y-106326547D01*
X155810501Y-106158444D01*
X155804923Y-106137627D01*
X155769577Y-106005716D01*
X155758580Y-105986669D01*
X155690524Y-105868790D01*
X155690518Y-105868782D01*
X154471818Y-104650082D01*
X154438333Y-104588759D01*
X154435499Y-104562401D01*
X154435499Y-104138330D01*
X154435498Y-104138313D01*
X154427667Y-104061654D01*
X155485001Y-104061654D01*
X155495319Y-104162652D01*
X155549546Y-104326300D01*
X155549551Y-104326311D01*
X155640052Y-104473034D01*
X155640055Y-104473038D01*
X155761961Y-104594944D01*
X155761965Y-104594947D01*
X155908688Y-104685448D01*
X155908699Y-104685453D01*
X156072347Y-104739680D01*
X156173352Y-104749999D01*
X156210000Y-104749999D01*
X156210000Y-103962500D01*
X155485001Y-103962500D01*
X155485001Y-104061654D01*
X154427667Y-104061654D01*
X154425174Y-104037247D01*
X154370908Y-103873484D01*
X154280340Y-103726650D01*
X154158350Y-103604660D01*
X154061115Y-103544685D01*
X154011518Y-103514093D01*
X154011513Y-103514091D01*
X153986218Y-103505709D01*
X153847753Y-103459826D01*
X153847751Y-103459825D01*
X153746678Y-103449500D01*
X153173330Y-103449500D01*
X153173312Y-103449501D01*
X153072247Y-103459825D01*
X152908484Y-103514092D01*
X152908481Y-103514093D01*
X152761648Y-103604661D01*
X152639660Y-103726649D01*
X152639657Y-103726653D01*
X152569376Y-103840597D01*
X152517429Y-103887322D01*
X152463838Y-103899500D01*
X150436730Y-103899500D01*
X150369691Y-103879815D01*
X150332808Y-103842133D01*
X150332651Y-103842248D01*
X150331872Y-103841176D01*
X150331000Y-103840285D01*
X150329789Y-103838309D01*
X150321253Y-103826560D01*
X150212981Y-103677536D01*
X150072464Y-103537019D01*
X149911694Y-103420213D01*
X149755218Y-103340484D01*
X149704423Y-103292510D01*
X149687628Y-103224689D01*
X149710165Y-103158554D01*
X149755218Y-103119515D01*
X149911694Y-103039787D01*
X150072464Y-102922981D01*
X150212981Y-102782464D01*
X150329787Y-102621694D01*
X150329789Y-102621689D01*
X150331000Y-102619715D01*
X150331656Y-102619121D01*
X150332651Y-102617752D01*
X150332938Y-102617960D01*
X150382810Y-102572837D01*
X150436730Y-102560500D01*
X155454586Y-102560500D01*
X155521625Y-102580185D01*
X155560124Y-102619402D01*
X155561535Y-102621690D01*
X155639661Y-102748351D01*
X155653982Y-102762672D01*
X155687467Y-102823995D01*
X155682483Y-102893687D01*
X155653985Y-102938032D01*
X155640052Y-102951965D01*
X155549551Y-103098688D01*
X155549546Y-103098699D01*
X155495319Y-103262347D01*
X155485000Y-103363345D01*
X155485000Y-103462500D01*
X156336000Y-103462500D01*
X156403039Y-103482185D01*
X156448794Y-103534989D01*
X156460000Y-103586500D01*
X156460000Y-103712500D01*
X156586000Y-103712500D01*
X156653039Y-103732185D01*
X156698794Y-103784989D01*
X156710000Y-103836500D01*
X156710000Y-104749999D01*
X156746640Y-104749999D01*
X156746654Y-104749998D01*
X156847652Y-104739680D01*
X157011300Y-104685453D01*
X157011311Y-104685448D01*
X157158034Y-104594947D01*
X157158038Y-104594944D01*
X157279944Y-104473038D01*
X157279947Y-104473034D01*
X157370450Y-104326307D01*
X157373115Y-104320593D01*
X157419284Y-104268151D01*
X157486477Y-104248995D01*
X157553359Y-104269207D01*
X157598697Y-104322369D01*
X157609500Y-104372991D01*
X157609500Y-104725098D01*
X157589815Y-104792137D01*
X157550598Y-104830636D01*
X157511650Y-104854659D01*
X157389661Y-104976648D01*
X157299093Y-105123481D01*
X157299091Y-105123486D01*
X157287668Y-105157960D01*
X157244826Y-105287247D01*
X157244826Y-105287248D01*
X157244825Y-105287248D01*
X157234500Y-105388315D01*
X157234500Y-105986669D01*
X157234501Y-105986687D01*
X157244825Y-106087752D01*
X157268250Y-106158443D01*
X157294081Y-106236395D01*
X157299092Y-106251515D01*
X157299093Y-106251518D01*
X157319738Y-106284989D01*
X157377299Y-106378310D01*
X157389661Y-106398351D01*
X157503629Y-106512319D01*
X157537114Y-106573642D01*
X157532130Y-106643334D01*
X157503629Y-106687681D01*
X157389661Y-106801648D01*
X157299093Y-106948481D01*
X157299091Y-106948486D01*
X157271719Y-107031088D01*
X157244826Y-107112247D01*
X157244826Y-107112248D01*
X157244825Y-107112248D01*
X157234500Y-107213315D01*
X157234500Y-107811669D01*
X157234501Y-107811687D01*
X157244825Y-107912752D01*
X157274724Y-108002978D01*
X157299092Y-108076516D01*
X157389660Y-108223350D01*
X157511650Y-108345340D01*
X157550597Y-108369362D01*
X157597320Y-108421307D01*
X157609500Y-108474900D01*
X157609500Y-108629091D01*
X157589815Y-108696130D01*
X157545731Y-108734641D01*
X157546813Y-108736395D01*
X157540667Y-108740185D01*
X157540666Y-108740186D01*
X157511853Y-108757958D01*
X157391342Y-108832289D01*
X157267289Y-108956342D01*
X157175187Y-109105663D01*
X157175185Y-109105668D01*
X157152218Y-109174980D01*
X157120001Y-109272203D01*
X157120001Y-109272204D01*
X157120000Y-109272204D01*
X157109500Y-109374983D01*
X157109500Y-110025001D01*
X157109501Y-110025019D01*
X157120000Y-110127796D01*
X157120001Y-110127799D01*
X157175185Y-110294331D01*
X157175187Y-110294336D01*
X157185889Y-110311687D01*
X157267288Y-110443656D01*
X157391344Y-110567712D01*
X157540666Y-110659814D01*
X157707203Y-110714999D01*
X157809991Y-110725500D01*
X158610008Y-110725499D01*
X158610016Y-110725498D01*
X158610019Y-110725498D01*
X158666302Y-110719748D01*
X158712797Y-110714999D01*
X158879334Y-110659814D01*
X159028656Y-110567712D01*
X159152712Y-110443656D01*
X159244814Y-110294334D01*
X159299999Y-110127797D01*
X159310500Y-110025009D01*
X159310499Y-109374992D01*
X159305602Y-109327058D01*
X159299999Y-109272203D01*
X159299998Y-109272200D01*
X159244814Y-109105666D01*
X159152712Y-108956344D01*
X159028656Y-108832288D01*
X158879334Y-108740186D01*
X158879332Y-108740185D01*
X158873187Y-108736395D01*
X158874290Y-108734605D01*
X158829649Y-108695290D01*
X158810500Y-108629091D01*
X158810500Y-108474900D01*
X158830185Y-108407861D01*
X158869401Y-108369363D01*
X158908350Y-108345340D01*
X159030340Y-108223350D01*
X159120908Y-108076516D01*
X159175174Y-107912753D01*
X159185500Y-107811677D01*
X159185499Y-107213324D01*
X159182651Y-107185448D01*
X159175174Y-107112247D01*
X159129044Y-106973038D01*
X159120908Y-106948484D01*
X159030340Y-106801650D01*
X158916371Y-106687681D01*
X158882886Y-106626358D01*
X158887870Y-106556666D01*
X158916371Y-106512319D01*
X158972348Y-106456342D01*
X159030340Y-106398350D01*
X159120908Y-106251516D01*
X159175174Y-106087753D01*
X159185500Y-105986677D01*
X159185499Y-105388324D01*
X159175174Y-105287247D01*
X159120908Y-105123484D01*
X159030340Y-104976650D01*
X158908350Y-104854660D01*
X158908349Y-104854659D01*
X158869402Y-104830636D01*
X158822678Y-104778687D01*
X158810500Y-104725098D01*
X158810500Y-103826560D01*
X158810501Y-103826547D01*
X158810501Y-103658444D01*
X158804923Y-103637627D01*
X158769577Y-103505716D01*
X158758580Y-103486669D01*
X158690524Y-103368790D01*
X158690518Y-103368782D01*
X157471818Y-102150082D01*
X157438333Y-102088759D01*
X157435499Y-102062401D01*
X157435499Y-101638330D01*
X157435498Y-101638313D01*
X157427667Y-101561654D01*
X158485001Y-101561654D01*
X158495319Y-101662652D01*
X158549546Y-101826300D01*
X158549551Y-101826311D01*
X158640052Y-101973034D01*
X158640055Y-101973038D01*
X158761961Y-102094944D01*
X158761965Y-102094947D01*
X158908688Y-102185448D01*
X158908699Y-102185453D01*
X159072347Y-102239680D01*
X159173352Y-102249999D01*
X159210000Y-102249999D01*
X159210000Y-101462500D01*
X158485001Y-101462500D01*
X158485001Y-101561654D01*
X157427667Y-101561654D01*
X157425174Y-101537247D01*
X157370908Y-101373484D01*
X157280340Y-101226650D01*
X157158350Y-101104660D01*
X157067129Y-101048395D01*
X157011518Y-101014093D01*
X157011513Y-101014091D01*
X156959993Y-100997019D01*
X156847753Y-100959826D01*
X156847751Y-100959825D01*
X156746678Y-100949500D01*
X156173330Y-100949500D01*
X156173312Y-100949501D01*
X156072247Y-100959825D01*
X155908484Y-101014092D01*
X155908481Y-101014093D01*
X155761648Y-101104661D01*
X155639660Y-101226649D01*
X155639657Y-101226653D01*
X155594048Y-101300597D01*
X155542100Y-101347322D01*
X155488510Y-101359500D01*
X150436730Y-101359500D01*
X150369691Y-101339815D01*
X150332808Y-101302133D01*
X150332651Y-101302248D01*
X150331872Y-101301176D01*
X150331000Y-101300285D01*
X150329789Y-101298309D01*
X150329786Y-101298305D01*
X150212981Y-101137536D01*
X150072464Y-100997019D01*
X149911694Y-100880213D01*
X149755218Y-100800484D01*
X149704423Y-100752510D01*
X149687628Y-100684689D01*
X149710165Y-100618554D01*
X149755218Y-100579515D01*
X149911694Y-100499787D01*
X150072464Y-100382981D01*
X150212981Y-100242464D01*
X150329787Y-100081694D01*
X150329789Y-100081689D01*
X150331000Y-100079715D01*
X150331656Y-100079121D01*
X150332651Y-100077752D01*
X150332938Y-100077960D01*
X150382810Y-100032837D01*
X150436730Y-100020500D01*
X158432705Y-100020500D01*
X158499744Y-100040185D01*
X158545499Y-100092989D01*
X158547541Y-100098189D01*
X158549091Y-100101515D01*
X158549092Y-100101516D01*
X158636029Y-100242464D01*
X158639661Y-100248351D01*
X158653982Y-100262672D01*
X158687467Y-100323995D01*
X158682483Y-100393687D01*
X158653985Y-100438032D01*
X158640052Y-100451965D01*
X158549551Y-100598688D01*
X158549546Y-100598699D01*
X158495319Y-100762347D01*
X158485000Y-100863345D01*
X158485000Y-100962500D01*
X159336000Y-100962500D01*
X159403039Y-100982185D01*
X159448794Y-101034989D01*
X159460000Y-101086500D01*
X159460000Y-101212500D01*
X159586000Y-101212500D01*
X159653039Y-101232185D01*
X159698794Y-101284989D01*
X159710000Y-101336500D01*
X159710000Y-102249999D01*
X159746640Y-102249999D01*
X159746654Y-102249998D01*
X159847652Y-102239680D01*
X160011300Y-102185453D01*
X160011311Y-102185448D01*
X160158034Y-102094947D01*
X160158038Y-102094944D01*
X160279944Y-101973038D01*
X160279947Y-101973034D01*
X160370450Y-101826307D01*
X160373115Y-101820593D01*
X160419284Y-101768151D01*
X160486477Y-101748995D01*
X160553359Y-101769207D01*
X160598697Y-101822369D01*
X160609500Y-101872991D01*
X160609500Y-102225098D01*
X160589815Y-102292137D01*
X160550598Y-102330636D01*
X160511650Y-102354659D01*
X160389661Y-102476648D01*
X160299093Y-102623481D01*
X160299092Y-102623484D01*
X160244826Y-102787247D01*
X160244826Y-102787248D01*
X160244825Y-102787248D01*
X160234500Y-102888315D01*
X160234500Y-103486669D01*
X160234501Y-103486687D01*
X160244825Y-103587752D01*
X160268250Y-103658443D01*
X160292686Y-103732185D01*
X160299092Y-103751515D01*
X160299093Y-103751518D01*
X160319738Y-103784989D01*
X160352626Y-103838309D01*
X160389661Y-103898351D01*
X160503629Y-104012319D01*
X160537114Y-104073642D01*
X160532130Y-104143334D01*
X160503629Y-104187681D01*
X160389661Y-104301648D01*
X160299093Y-104448481D01*
X160299091Y-104448486D01*
X160271719Y-104531088D01*
X160244826Y-104612247D01*
X160244826Y-104612248D01*
X160244825Y-104612248D01*
X160234500Y-104713315D01*
X160234500Y-105311669D01*
X160234501Y-105311687D01*
X160244825Y-105412752D01*
X160299092Y-105576515D01*
X160299093Y-105576518D01*
X160333395Y-105632129D01*
X160389660Y-105723350D01*
X160511650Y-105845340D01*
X160550597Y-105869362D01*
X160597320Y-105921307D01*
X160609500Y-105974900D01*
X160609500Y-106129091D01*
X160589815Y-106196130D01*
X160545731Y-106234641D01*
X160546813Y-106236395D01*
X160540667Y-106240185D01*
X160540666Y-106240186D01*
X160442419Y-106300784D01*
X160391342Y-106332289D01*
X160267289Y-106456342D01*
X160175187Y-106605663D01*
X160175186Y-106605666D01*
X160120001Y-106772203D01*
X160120001Y-106772204D01*
X160120000Y-106772204D01*
X160109500Y-106874983D01*
X160109500Y-107525001D01*
X160109501Y-107525019D01*
X160120000Y-107627796D01*
X160120001Y-107627799D01*
X160175185Y-107794331D01*
X160175187Y-107794336D01*
X160185889Y-107811687D01*
X160267288Y-107943656D01*
X160391344Y-108067712D01*
X160540666Y-108159814D01*
X160707203Y-108214999D01*
X160809991Y-108225500D01*
X161610008Y-108225499D01*
X161610016Y-108225498D01*
X161610019Y-108225498D01*
X161666302Y-108219748D01*
X161712797Y-108214999D01*
X161879334Y-108159814D01*
X162028656Y-108067712D01*
X162152712Y-107943656D01*
X162244814Y-107794334D01*
X162299999Y-107627797D01*
X162310500Y-107525009D01*
X162310499Y-106874992D01*
X162299999Y-106772203D01*
X162244814Y-106605666D01*
X162152712Y-106456344D01*
X162028656Y-106332288D01*
X161879334Y-106240186D01*
X161879332Y-106240185D01*
X161873187Y-106236395D01*
X161874290Y-106234605D01*
X161829649Y-106195290D01*
X161810500Y-106129091D01*
X161810500Y-105974900D01*
X161830185Y-105907861D01*
X161869401Y-105869363D01*
X161908350Y-105845340D01*
X162030340Y-105723350D01*
X162120908Y-105576516D01*
X162175174Y-105412753D01*
X162185500Y-105311677D01*
X162185499Y-104713324D01*
X162182651Y-104685448D01*
X162175174Y-104612247D01*
X162167391Y-104588759D01*
X162120908Y-104448484D01*
X162030340Y-104301650D01*
X161916371Y-104187681D01*
X161882886Y-104126358D01*
X161887870Y-104056666D01*
X161916371Y-104012319D01*
X161966190Y-103962500D01*
X162030340Y-103898350D01*
X162120908Y-103751516D01*
X162175174Y-103587753D01*
X162185500Y-103486677D01*
X162185499Y-102888324D01*
X162175174Y-102787247D01*
X162120908Y-102623484D01*
X162030340Y-102476650D01*
X161908350Y-102354660D01*
X161908349Y-102354659D01*
X161869402Y-102330636D01*
X161822678Y-102278687D01*
X161810500Y-102225098D01*
X161810500Y-101326560D01*
X161810501Y-101326547D01*
X161810501Y-101158444D01*
X161804898Y-101137533D01*
X161769577Y-101005716D01*
X161758580Y-100986669D01*
X161690524Y-100868790D01*
X161690518Y-100868782D01*
X160471818Y-99650082D01*
X160438333Y-99588759D01*
X160435499Y-99562401D01*
X160435499Y-99138330D01*
X160435498Y-99138313D01*
X160427667Y-99061654D01*
X161485001Y-99061654D01*
X161495319Y-99162652D01*
X161549546Y-99326300D01*
X161549551Y-99326311D01*
X161640052Y-99473034D01*
X161640055Y-99473038D01*
X161761961Y-99594944D01*
X161761965Y-99594947D01*
X161908688Y-99685448D01*
X161908699Y-99685453D01*
X162072347Y-99739680D01*
X162173352Y-99749999D01*
X162210000Y-99749999D01*
X162210000Y-98962500D01*
X161485001Y-98962500D01*
X161485001Y-99061654D01*
X160427667Y-99061654D01*
X160425174Y-99037247D01*
X160396310Y-98950143D01*
X160391414Y-98935367D01*
X160370908Y-98873484D01*
X160280340Y-98726650D01*
X160158350Y-98604660D01*
X160067129Y-98548395D01*
X160011518Y-98514093D01*
X160011513Y-98514091D01*
X159986218Y-98505709D01*
X159847753Y-98459826D01*
X159847751Y-98459825D01*
X159746678Y-98449500D01*
X159173330Y-98449500D01*
X159173312Y-98449501D01*
X159072247Y-98459825D01*
X158908484Y-98514092D01*
X158908481Y-98514093D01*
X158761648Y-98604661D01*
X158639659Y-98726650D01*
X158618722Y-98760596D01*
X158566774Y-98807321D01*
X158513183Y-98819500D01*
X150436730Y-98819500D01*
X150369691Y-98799815D01*
X150332808Y-98762133D01*
X150332651Y-98762248D01*
X150331872Y-98761176D01*
X150331000Y-98760285D01*
X150329789Y-98758309D01*
X150308051Y-98728389D01*
X150212981Y-98597536D01*
X150072464Y-98457019D01*
X149911694Y-98340213D01*
X149755218Y-98260484D01*
X149704423Y-98212510D01*
X149687628Y-98144689D01*
X149710165Y-98078554D01*
X149755218Y-98039515D01*
X149911694Y-97959787D01*
X150072464Y-97842981D01*
X150212981Y-97702464D01*
X150329787Y-97541694D01*
X150329789Y-97541689D01*
X150331000Y-97539715D01*
X150331656Y-97539121D01*
X150332651Y-97537752D01*
X150332938Y-97537960D01*
X150382810Y-97492837D01*
X150436730Y-97480500D01*
X161419450Y-97480500D01*
X161486489Y-97500185D01*
X161532244Y-97552989D01*
X161537155Y-97565495D01*
X161549088Y-97601507D01*
X161549093Y-97601518D01*
X161639661Y-97748351D01*
X161653982Y-97762672D01*
X161687467Y-97823995D01*
X161682483Y-97893687D01*
X161653985Y-97938032D01*
X161640052Y-97951965D01*
X161549551Y-98098688D01*
X161549546Y-98098699D01*
X161495319Y-98262347D01*
X161485000Y-98363345D01*
X161485000Y-98462500D01*
X162336000Y-98462500D01*
X162403039Y-98482185D01*
X162448794Y-98534989D01*
X162460000Y-98586500D01*
X162460000Y-98712500D01*
X162586000Y-98712500D01*
X162653039Y-98732185D01*
X162698794Y-98784989D01*
X162710000Y-98836500D01*
X162710000Y-99749999D01*
X162746640Y-99749999D01*
X162746654Y-99749998D01*
X162847652Y-99739680D01*
X163011300Y-99685453D01*
X163011311Y-99685448D01*
X163158034Y-99594947D01*
X163158038Y-99594944D01*
X163279944Y-99473038D01*
X163279947Y-99473034D01*
X163370450Y-99326307D01*
X163373115Y-99320593D01*
X163419284Y-99268151D01*
X163486477Y-99248995D01*
X163553359Y-99269207D01*
X163598697Y-99322369D01*
X163609500Y-99372991D01*
X163609500Y-99725098D01*
X163589815Y-99792137D01*
X163550598Y-99830636D01*
X163511650Y-99854659D01*
X163389661Y-99976648D01*
X163299093Y-100123481D01*
X163299092Y-100123484D01*
X163244826Y-100287247D01*
X163244826Y-100287248D01*
X163244825Y-100287248D01*
X163234500Y-100388315D01*
X163234500Y-100986669D01*
X163234501Y-100986687D01*
X163244825Y-101087752D01*
X163268250Y-101158443D01*
X163292686Y-101232185D01*
X163299092Y-101251515D01*
X163299093Y-101251518D01*
X163389661Y-101398351D01*
X163503629Y-101512319D01*
X163537114Y-101573642D01*
X163532130Y-101643334D01*
X163503629Y-101687681D01*
X163389661Y-101801648D01*
X163299093Y-101948481D01*
X163299091Y-101948486D01*
X163271719Y-102031088D01*
X163244826Y-102112247D01*
X163244826Y-102112248D01*
X163244825Y-102112248D01*
X163234500Y-102213315D01*
X163234500Y-102811669D01*
X163234501Y-102811687D01*
X163244825Y-102912752D01*
X163299092Y-103076515D01*
X163299093Y-103076518D01*
X163325614Y-103119515D01*
X163389660Y-103223350D01*
X163511650Y-103345340D01*
X163550597Y-103369362D01*
X163597320Y-103421307D01*
X163609500Y-103474900D01*
X163609500Y-112239903D01*
X163589815Y-112306942D01*
X163573181Y-112327584D01*
X157287584Y-118613181D01*
X157226261Y-118646666D01*
X157199903Y-118649500D01*
X156999097Y-118649500D01*
X156932058Y-118629815D01*
X156886303Y-118577011D01*
X156876359Y-118507853D01*
X156905384Y-118444297D01*
X156911416Y-118437819D01*
X157996876Y-117352359D01*
X161568506Y-113780727D01*
X161568511Y-113780724D01*
X161578714Y-113770520D01*
X161578716Y-113770520D01*
X161690520Y-113658716D01*
X161758953Y-113540186D01*
X161769577Y-113521785D01*
X161810500Y-113369057D01*
X161810500Y-113210943D01*
X161810500Y-110570908D01*
X161830185Y-110503869D01*
X161874271Y-110465363D01*
X161873187Y-110463605D01*
X161879332Y-110459814D01*
X161879334Y-110459814D01*
X162028656Y-110367712D01*
X162152712Y-110243656D01*
X162244814Y-110094334D01*
X162299999Y-109927797D01*
X162310500Y-109825009D01*
X162310499Y-109174992D01*
X162307537Y-109146000D01*
X162299999Y-109072203D01*
X162299998Y-109072200D01*
X162298718Y-109068336D01*
X162244814Y-108905666D01*
X162152712Y-108756344D01*
X162028656Y-108632288D01*
X161879334Y-108540186D01*
X161712797Y-108485001D01*
X161712795Y-108485000D01*
X161610010Y-108474500D01*
X160809998Y-108474500D01*
X160809980Y-108474501D01*
X160707203Y-108485000D01*
X160707200Y-108485001D01*
X160540668Y-108540185D01*
X160540663Y-108540187D01*
X160391342Y-108632289D01*
X160267289Y-108756342D01*
X160175187Y-108905663D01*
X160175185Y-108905668D01*
X160158393Y-108956344D01*
X160120001Y-109072203D01*
X160120001Y-109072204D01*
X160120000Y-109072204D01*
X160109500Y-109174983D01*
X160109500Y-109825001D01*
X160109501Y-109825019D01*
X160120000Y-109927796D01*
X160120001Y-109927799D01*
X160162006Y-110054559D01*
X160175186Y-110094334D01*
X160267288Y-110243656D01*
X160391344Y-110367712D01*
X160540666Y-110459814D01*
X160540667Y-110459814D01*
X160546813Y-110463605D01*
X160545706Y-110465399D01*
X160590337Y-110504687D01*
X160609500Y-110570908D01*
X160609500Y-112989903D01*
X160589815Y-113056942D01*
X160573181Y-113077584D01*
X155537584Y-118113181D01*
X155476261Y-118146666D01*
X155449903Y-118149500D01*
X155249097Y-118149500D01*
X155182058Y-118129815D01*
X155136303Y-118077011D01*
X155126359Y-118007853D01*
X155155384Y-117944297D01*
X155161416Y-117937819D01*
X156012832Y-117086403D01*
X158578713Y-114520521D01*
X158578716Y-114520520D01*
X158690520Y-114408716D01*
X158740639Y-114321904D01*
X158769577Y-114271785D01*
X158810500Y-114119057D01*
X158810500Y-113960943D01*
X158810500Y-113070908D01*
X158830185Y-113003869D01*
X158874271Y-112965363D01*
X158873187Y-112963605D01*
X158879332Y-112959814D01*
X158879334Y-112959814D01*
X159028656Y-112867712D01*
X159152712Y-112743656D01*
X159244814Y-112594334D01*
X159299999Y-112427797D01*
X159310500Y-112325009D01*
X159310499Y-111674992D01*
X159306451Y-111635368D01*
X159299999Y-111572203D01*
X159299998Y-111572200D01*
X159296660Y-111562126D01*
X159244814Y-111405666D01*
X159152712Y-111256344D01*
X159028656Y-111132288D01*
X158906985Y-111057241D01*
X158879336Y-111040187D01*
X158879331Y-111040185D01*
X158857440Y-111032931D01*
X158712797Y-110985001D01*
X158712795Y-110985000D01*
X158610010Y-110974500D01*
X157809998Y-110974500D01*
X157809980Y-110974501D01*
X157707203Y-110985000D01*
X157707200Y-110985001D01*
X157540668Y-111040185D01*
X157540663Y-111040187D01*
X157391342Y-111132289D01*
X157267289Y-111256342D01*
X157175187Y-111405663D01*
X157175185Y-111405668D01*
X157158393Y-111456344D01*
X157120001Y-111572203D01*
X157120001Y-111572204D01*
X157120000Y-111572204D01*
X157109500Y-111674983D01*
X157109500Y-112325001D01*
X157109501Y-112325019D01*
X157120000Y-112427796D01*
X157120001Y-112427799D01*
X157162006Y-112554559D01*
X157175186Y-112594334D01*
X157267288Y-112743656D01*
X157391344Y-112867712D01*
X157540666Y-112959814D01*
X157540667Y-112959814D01*
X157546813Y-112963605D01*
X157545706Y-112965399D01*
X157590337Y-113004687D01*
X157609500Y-113070908D01*
X157609500Y-113739903D01*
X157589815Y-113806942D01*
X157573181Y-113827584D01*
X156522180Y-114878584D01*
X156460857Y-114912069D01*
X156391165Y-114907085D01*
X156335232Y-114865213D01*
X156310815Y-114799749D01*
X156310499Y-114790929D01*
X156310499Y-114174992D01*
X156299999Y-114072203D01*
X156244814Y-113905666D01*
X156152712Y-113756344D01*
X156028656Y-113632288D01*
X155879334Y-113540186D01*
X155712797Y-113485001D01*
X155712795Y-113485000D01*
X155610010Y-113474500D01*
X154809998Y-113474500D01*
X154809980Y-113474501D01*
X154707203Y-113485000D01*
X154707200Y-113485001D01*
X154540668Y-113540185D01*
X154540663Y-113540187D01*
X154391342Y-113632289D01*
X154267289Y-113756342D01*
X154175187Y-113905663D01*
X154175186Y-113905666D01*
X154120001Y-114072203D01*
X154120001Y-114072204D01*
X154120000Y-114072204D01*
X154109500Y-114174983D01*
X154109500Y-114699902D01*
X154089815Y-114766941D01*
X154073181Y-114787583D01*
X151747584Y-117113181D01*
X151686261Y-117146666D01*
X151659903Y-117149500D01*
X107300098Y-117149500D01*
X107233059Y-117129815D01*
X107212417Y-117113181D01*
X105294157Y-115194922D01*
X105260672Y-115133599D01*
X105263906Y-115068924D01*
X105268575Y-115054558D01*
X105291143Y-114912069D01*
X105300600Y-114852364D01*
X105300600Y-114647635D01*
X105280466Y-114520520D01*
X105268575Y-114445442D01*
X105228439Y-114321915D01*
X105205315Y-114250745D01*
X105205314Y-114250742D01*
X105114343Y-114072204D01*
X105112373Y-114068337D01*
X104992042Y-113902716D01*
X104847284Y-113757958D01*
X104681663Y-113637627D01*
X104628393Y-113610484D01*
X104577598Y-113562510D01*
X104560803Y-113494689D01*
X104583341Y-113428554D01*
X104628394Y-113389515D01*
X104681663Y-113362373D01*
X104847284Y-113242042D01*
X104992042Y-113097284D01*
X105112373Y-112931663D01*
X105205314Y-112749257D01*
X105268575Y-112554558D01*
X105290578Y-112415636D01*
X105300600Y-112352364D01*
X105300600Y-112147635D01*
X105280485Y-112020639D01*
X105268575Y-111945442D01*
X105205314Y-111750743D01*
X105205314Y-111750742D01*
X105131393Y-111605666D01*
X105112373Y-111568337D01*
X104992042Y-111402716D01*
X104847284Y-111257958D01*
X104681663Y-111137627D01*
X104628393Y-111110484D01*
X104577598Y-111062510D01*
X104560803Y-110994689D01*
X104583341Y-110928554D01*
X104628394Y-110889515D01*
X104632160Y-110887596D01*
X104681663Y-110862373D01*
X104847284Y-110742042D01*
X104992042Y-110597284D01*
X105112373Y-110431663D01*
X105205314Y-110249257D01*
X105268575Y-110054558D01*
X105291090Y-109912403D01*
X105300600Y-109852364D01*
X105300600Y-109647635D01*
X105295305Y-109614204D01*
X105292760Y-109598135D01*
X109605500Y-109598135D01*
X109605500Y-111201870D01*
X109605501Y-111201876D01*
X109611908Y-111261483D01*
X109662202Y-111396328D01*
X109662206Y-111396335D01*
X109748452Y-111511544D01*
X109748455Y-111511547D01*
X109863664Y-111597793D01*
X109863671Y-111597797D01*
X109998517Y-111648091D01*
X109998516Y-111648091D01*
X110005444Y-111648835D01*
X110058127Y-111654500D01*
X111661872Y-111654499D01*
X111721483Y-111648091D01*
X111856331Y-111597796D01*
X111971546Y-111511546D01*
X112057796Y-111396331D01*
X112072511Y-111356879D01*
X112072858Y-111355949D01*
X112108091Y-111261482D01*
X112108470Y-111257958D01*
X112114500Y-111201873D01*
X112114499Y-111145723D01*
X112134182Y-111078687D01*
X112186986Y-111032931D01*
X112256144Y-111022987D01*
X112319700Y-111052011D01*
X112338817Y-111072839D01*
X112353457Y-111092988D01*
X112353457Y-111092989D01*
X112917037Y-110529409D01*
X112934075Y-110592993D01*
X112999901Y-110707007D01*
X113092993Y-110800099D01*
X113207007Y-110865925D01*
X113270590Y-110882962D01*
X112707009Y-111446541D01*
X112707010Y-111446542D01*
X112742755Y-111472512D01*
X112742768Y-111472520D01*
X112918626Y-111562126D01*
X113106353Y-111623123D01*
X113301303Y-111654000D01*
X113498697Y-111654000D01*
X113693646Y-111623123D01*
X113881373Y-111562126D01*
X114057241Y-111472516D01*
X114092988Y-111446543D01*
X114092988Y-111446541D01*
X113529410Y-110882962D01*
X113592993Y-110865925D01*
X113707007Y-110800099D01*
X113800099Y-110707007D01*
X113865925Y-110592993D01*
X113882962Y-110529409D01*
X114446541Y-111092988D01*
X114446543Y-111092988D01*
X114472516Y-111057241D01*
X114559235Y-110887046D01*
X114607210Y-110836250D01*
X114675031Y-110819455D01*
X114741165Y-110841992D01*
X114780202Y-110887042D01*
X114858234Y-111040187D01*
X114867058Y-111057505D01*
X114983115Y-111217246D01*
X115122753Y-111356884D01*
X115246158Y-111446541D01*
X115282499Y-111472944D01*
X115458439Y-111562591D01*
X115583637Y-111603270D01*
X115646236Y-111623610D01*
X115841264Y-111654500D01*
X115841269Y-111654500D01*
X116038736Y-111654500D01*
X116233763Y-111623610D01*
X116235262Y-111623123D01*
X116421561Y-111562591D01*
X116597501Y-111472944D01*
X116694165Y-111402714D01*
X116757246Y-111356884D01*
X116757248Y-111356881D01*
X116757252Y-111356879D01*
X116896879Y-111217252D01*
X116896881Y-111217248D01*
X116896884Y-111217246D01*
X117012941Y-111057505D01*
X117012942Y-111057504D01*
X117012944Y-111057501D01*
X117099517Y-110887593D01*
X117147490Y-110836800D01*
X117215311Y-110820005D01*
X117281446Y-110842542D01*
X117320482Y-110887593D01*
X117398234Y-111040187D01*
X117407058Y-111057505D01*
X117523115Y-111217246D01*
X117662753Y-111356884D01*
X117786158Y-111446541D01*
X117822499Y-111472944D01*
X117998439Y-111562591D01*
X118123637Y-111603270D01*
X118186236Y-111623610D01*
X118381264Y-111654500D01*
X118381269Y-111654500D01*
X118578736Y-111654500D01*
X118773763Y-111623610D01*
X118775262Y-111623123D01*
X118961561Y-111562591D01*
X119137501Y-111472944D01*
X119234165Y-111402714D01*
X119297246Y-111356884D01*
X119297248Y-111356881D01*
X119297252Y-111356879D01*
X119436879Y-111217252D01*
X119436881Y-111217248D01*
X119436884Y-111217246D01*
X119552941Y-111057505D01*
X119552942Y-111057504D01*
X119552944Y-111057501D01*
X119639517Y-110887593D01*
X119687490Y-110836800D01*
X119755311Y-110820005D01*
X119821446Y-110842542D01*
X119860482Y-110887593D01*
X119938234Y-111040187D01*
X119947058Y-111057505D01*
X120063115Y-111217246D01*
X120202753Y-111356884D01*
X120326158Y-111446541D01*
X120362499Y-111472944D01*
X120538439Y-111562591D01*
X120663637Y-111603270D01*
X120726236Y-111623610D01*
X120921264Y-111654500D01*
X120921269Y-111654500D01*
X121118736Y-111654500D01*
X121313763Y-111623610D01*
X121315262Y-111623123D01*
X121501561Y-111562591D01*
X121677501Y-111472944D01*
X121774165Y-111402714D01*
X121837246Y-111356884D01*
X121837248Y-111356881D01*
X121837252Y-111356879D01*
X121976879Y-111217252D01*
X121976881Y-111217248D01*
X121976884Y-111217246D01*
X122092941Y-111057505D01*
X122092942Y-111057504D01*
X122092944Y-111057501D01*
X122179517Y-110887593D01*
X122227490Y-110836800D01*
X122295311Y-110820005D01*
X122361446Y-110842542D01*
X122400482Y-110887593D01*
X122478234Y-111040187D01*
X122487058Y-111057505D01*
X122603115Y-111217246D01*
X122742753Y-111356884D01*
X122866158Y-111446541D01*
X122902499Y-111472944D01*
X123078439Y-111562591D01*
X123203637Y-111603270D01*
X123266236Y-111623610D01*
X123461264Y-111654500D01*
X123461269Y-111654500D01*
X123658736Y-111654500D01*
X123853763Y-111623610D01*
X123855262Y-111623123D01*
X124041561Y-111562591D01*
X124217501Y-111472944D01*
X124314165Y-111402714D01*
X124377246Y-111356884D01*
X124377248Y-111356881D01*
X124377252Y-111356879D01*
X124516879Y-111217252D01*
X124516881Y-111217248D01*
X124516884Y-111217246D01*
X124632941Y-111057505D01*
X124632942Y-111057504D01*
X124632944Y-111057501D01*
X124719517Y-110887593D01*
X124767490Y-110836800D01*
X124835311Y-110820005D01*
X124901446Y-110842542D01*
X124940482Y-110887593D01*
X125018234Y-111040187D01*
X125027058Y-111057505D01*
X125143115Y-111217246D01*
X125282753Y-111356884D01*
X125406158Y-111446541D01*
X125442499Y-111472944D01*
X125618439Y-111562591D01*
X125743637Y-111603270D01*
X125806236Y-111623610D01*
X126001264Y-111654500D01*
X126001269Y-111654500D01*
X126198736Y-111654500D01*
X126393763Y-111623610D01*
X126395262Y-111623123D01*
X126581561Y-111562591D01*
X126757501Y-111472944D01*
X126854165Y-111402714D01*
X126917246Y-111356884D01*
X126917248Y-111356881D01*
X126917252Y-111356879D01*
X127056879Y-111217252D01*
X127056881Y-111217248D01*
X127056884Y-111217246D01*
X127172941Y-111057505D01*
X127172942Y-111057504D01*
X127172944Y-111057501D01*
X127259517Y-110887593D01*
X127307490Y-110836800D01*
X127375311Y-110820005D01*
X127441446Y-110842542D01*
X127480482Y-110887593D01*
X127558234Y-111040187D01*
X127567058Y-111057505D01*
X127683115Y-111217246D01*
X127822753Y-111356884D01*
X127946158Y-111446541D01*
X127982499Y-111472944D01*
X128158439Y-111562591D01*
X128283637Y-111603270D01*
X128346236Y-111623610D01*
X128541264Y-111654500D01*
X128541269Y-111654500D01*
X128738736Y-111654500D01*
X128933763Y-111623610D01*
X128935262Y-111623123D01*
X129121561Y-111562591D01*
X129297501Y-111472944D01*
X129394165Y-111402714D01*
X129457246Y-111356884D01*
X129457248Y-111356881D01*
X129457252Y-111356879D01*
X129596879Y-111217252D01*
X129596881Y-111217248D01*
X129596884Y-111217246D01*
X129648845Y-111145727D01*
X129712944Y-111057501D01*
X129802591Y-110881561D01*
X129863610Y-110693763D01*
X129868991Y-110659787D01*
X129894500Y-110498736D01*
X129894500Y-110301263D01*
X129863610Y-110106236D01*
X129837220Y-110025016D01*
X129802591Y-109918439D01*
X129712944Y-109742499D01*
X129687159Y-109707009D01*
X129596884Y-109582753D01*
X129457246Y-109443115D01*
X129297504Y-109327058D01*
X129297503Y-109327057D01*
X129297501Y-109327056D01*
X129121561Y-109237409D01*
X129121558Y-109237408D01*
X128933763Y-109176389D01*
X128738736Y-109145500D01*
X128738731Y-109145500D01*
X128541269Y-109145500D01*
X128541264Y-109145500D01*
X128346236Y-109176389D01*
X128158441Y-109237408D01*
X127982495Y-109327058D01*
X127822753Y-109443115D01*
X127683115Y-109582753D01*
X127567058Y-109742495D01*
X127567056Y-109742499D01*
X127486805Y-109900000D01*
X127480485Y-109912403D01*
X127432510Y-109963199D01*
X127364689Y-109979994D01*
X127298554Y-109957456D01*
X127259515Y-109912403D01*
X127172944Y-109742499D01*
X127147159Y-109707009D01*
X127056884Y-109582753D01*
X126917246Y-109443115D01*
X126757504Y-109327058D01*
X126757503Y-109327057D01*
X126757501Y-109327056D01*
X126581561Y-109237409D01*
X126581558Y-109237408D01*
X126393763Y-109176389D01*
X126198736Y-109145500D01*
X126198731Y-109145500D01*
X126001269Y-109145500D01*
X126001264Y-109145500D01*
X125806236Y-109176389D01*
X125618441Y-109237408D01*
X125442495Y-109327058D01*
X125282753Y-109443115D01*
X125143115Y-109582753D01*
X125027058Y-109742495D01*
X125027056Y-109742499D01*
X124946805Y-109900000D01*
X124940485Y-109912403D01*
X124892510Y-109963199D01*
X124824689Y-109979994D01*
X124758554Y-109957456D01*
X124719515Y-109912403D01*
X124632944Y-109742499D01*
X124607159Y-109707009D01*
X124516884Y-109582753D01*
X124377246Y-109443115D01*
X124217504Y-109327058D01*
X124217503Y-109327057D01*
X124217501Y-109327056D01*
X124041561Y-109237409D01*
X124041558Y-109237408D01*
X123853763Y-109176389D01*
X123658736Y-109145500D01*
X123658731Y-109145500D01*
X123461269Y-109145500D01*
X123461264Y-109145500D01*
X123266236Y-109176389D01*
X123078441Y-109237408D01*
X122902495Y-109327058D01*
X122742753Y-109443115D01*
X122603115Y-109582753D01*
X122487058Y-109742495D01*
X122487056Y-109742499D01*
X122406805Y-109900000D01*
X122400485Y-109912403D01*
X122352510Y-109963199D01*
X122284689Y-109979994D01*
X122218554Y-109957456D01*
X122179515Y-109912403D01*
X122092944Y-109742499D01*
X122067159Y-109707009D01*
X121976884Y-109582753D01*
X121837246Y-109443115D01*
X121677504Y-109327058D01*
X121677503Y-109327057D01*
X121677501Y-109327056D01*
X121501561Y-109237409D01*
X121501558Y-109237408D01*
X121313763Y-109176389D01*
X121118736Y-109145500D01*
X121118731Y-109145500D01*
X120921269Y-109145500D01*
X120921264Y-109145500D01*
X120726236Y-109176389D01*
X120538441Y-109237408D01*
X120362495Y-109327058D01*
X120202753Y-109443115D01*
X120063115Y-109582753D01*
X119947058Y-109742495D01*
X119947056Y-109742499D01*
X119866805Y-109900000D01*
X119860485Y-109912403D01*
X119812510Y-109963199D01*
X119744689Y-109979994D01*
X119678554Y-109957456D01*
X119639515Y-109912403D01*
X119552944Y-109742499D01*
X119527159Y-109707009D01*
X119436884Y-109582753D01*
X119297246Y-109443115D01*
X119137504Y-109327058D01*
X119137503Y-109327057D01*
X119137501Y-109327056D01*
X118961561Y-109237409D01*
X118961558Y-109237408D01*
X118773763Y-109176389D01*
X118578736Y-109145500D01*
X118578731Y-109145500D01*
X118381269Y-109145500D01*
X118381264Y-109145500D01*
X118186236Y-109176389D01*
X117998441Y-109237408D01*
X117822495Y-109327058D01*
X117662753Y-109443115D01*
X117523115Y-109582753D01*
X117407058Y-109742495D01*
X117407056Y-109742499D01*
X117326805Y-109900000D01*
X117320485Y-109912403D01*
X117272510Y-109963199D01*
X117204689Y-109979994D01*
X117138554Y-109957456D01*
X117099515Y-109912403D01*
X117012944Y-109742499D01*
X116987159Y-109707009D01*
X116896884Y-109582753D01*
X116757246Y-109443115D01*
X116597504Y-109327058D01*
X116597503Y-109327057D01*
X116597501Y-109327056D01*
X116421561Y-109237409D01*
X116421558Y-109237408D01*
X116233763Y-109176389D01*
X116038736Y-109145500D01*
X116038731Y-109145500D01*
X115841269Y-109145500D01*
X115841264Y-109145500D01*
X115646236Y-109176389D01*
X115458441Y-109237408D01*
X115282495Y-109327058D01*
X115122753Y-109443115D01*
X114983115Y-109582753D01*
X114867058Y-109742495D01*
X114867056Y-109742499D01*
X114780203Y-109912954D01*
X114732230Y-109963749D01*
X114664409Y-109980544D01*
X114598274Y-109958006D01*
X114559235Y-109912953D01*
X114472520Y-109742768D01*
X114472512Y-109742755D01*
X114446542Y-109707010D01*
X114446541Y-109707009D01*
X113882962Y-110270589D01*
X113865925Y-110207007D01*
X113800099Y-110092993D01*
X113707007Y-109999901D01*
X113592993Y-109934075D01*
X113529409Y-109917037D01*
X114092989Y-109353457D01*
X114057239Y-109327483D01*
X113881373Y-109237873D01*
X113693646Y-109176876D01*
X113498697Y-109146000D01*
X113301303Y-109146000D01*
X113106353Y-109176876D01*
X112918626Y-109237873D01*
X112742762Y-109327482D01*
X112742760Y-109327483D01*
X112707010Y-109353456D01*
X112707010Y-109353457D01*
X113270591Y-109917037D01*
X113207007Y-109934075D01*
X113092993Y-109999901D01*
X112999901Y-110092993D01*
X112934075Y-110207007D01*
X112917037Y-110270590D01*
X112353457Y-109707010D01*
X112353456Y-109707010D01*
X112338818Y-109727159D01*
X112283489Y-109769826D01*
X112213875Y-109775806D01*
X112152080Y-109743200D01*
X112117722Y-109682362D01*
X112114499Y-109654275D01*
X112114499Y-109598129D01*
X112114498Y-109598123D01*
X112114497Y-109598116D01*
X112108091Y-109538517D01*
X112073376Y-109445442D01*
X112072857Y-109444049D01*
X112057797Y-109403671D01*
X112057793Y-109403664D01*
X111971547Y-109288455D01*
X111971544Y-109288452D01*
X111856335Y-109202206D01*
X111856328Y-109202202D01*
X111721482Y-109151908D01*
X111721483Y-109151908D01*
X111661883Y-109145501D01*
X111661881Y-109145500D01*
X111661873Y-109145500D01*
X111661864Y-109145500D01*
X110058129Y-109145500D01*
X110058123Y-109145501D01*
X109998516Y-109151908D01*
X109863671Y-109202202D01*
X109863664Y-109202206D01*
X109748455Y-109288452D01*
X109748452Y-109288455D01*
X109662206Y-109403664D01*
X109662202Y-109403671D01*
X109611908Y-109538517D01*
X109607153Y-109582748D01*
X109605501Y-109598123D01*
X109605500Y-109598135D01*
X105292760Y-109598135D01*
X105280320Y-109519603D01*
X105268575Y-109445442D01*
X105217567Y-109288454D01*
X105205315Y-109250745D01*
X105205314Y-109250742D01*
X105131393Y-109105666D01*
X105112373Y-109068337D01*
X104992042Y-108902716D01*
X104847284Y-108757958D01*
X104681663Y-108637627D01*
X104628393Y-108610484D01*
X104577598Y-108562510D01*
X104560803Y-108494689D01*
X104583341Y-108428554D01*
X104628394Y-108389515D01*
X104644230Y-108381446D01*
X104681663Y-108362373D01*
X104847284Y-108242042D01*
X104992042Y-108097284D01*
X105112373Y-107931663D01*
X105205314Y-107749257D01*
X105268575Y-107554558D01*
X105300236Y-107354659D01*
X105300600Y-107352364D01*
X105300600Y-107147635D01*
X105281969Y-107030008D01*
X105268575Y-106945442D01*
X105229864Y-106826300D01*
X105205315Y-106750745D01*
X105205314Y-106750742D01*
X105131393Y-106605666D01*
X105112373Y-106568337D01*
X104992042Y-106402716D01*
X104847284Y-106257958D01*
X104681663Y-106137627D01*
X104628393Y-106110484D01*
X104577598Y-106062510D01*
X104560803Y-105994689D01*
X104583341Y-105928554D01*
X104628394Y-105889515D01*
X104646116Y-105880485D01*
X104681663Y-105862373D01*
X104847284Y-105742042D01*
X104992042Y-105597284D01*
X105112373Y-105431663D01*
X105205314Y-105249257D01*
X105268575Y-105054558D01*
X105300236Y-104854659D01*
X105300600Y-104852364D01*
X105300600Y-104647635D01*
X105281969Y-104530008D01*
X105268575Y-104445442D01*
X105229864Y-104326300D01*
X105205315Y-104250745D01*
X105205314Y-104250742D01*
X105112372Y-104068336D01*
X104992042Y-103902716D01*
X104847284Y-103757958D01*
X104681663Y-103637627D01*
X104499257Y-103544685D01*
X104499254Y-103544684D01*
X104304559Y-103481425D01*
X104102364Y-103449400D01*
X104102359Y-103449400D01*
X103897641Y-103449400D01*
X103897636Y-103449400D01*
X103695440Y-103481425D01*
X103500745Y-103544684D01*
X103500742Y-103544685D01*
X103318336Y-103637627D01*
X103263411Y-103677533D01*
X103152716Y-103757958D01*
X103152714Y-103757960D01*
X103152713Y-103757960D01*
X103007960Y-103902713D01*
X103007960Y-103902714D01*
X103007958Y-103902716D01*
X102973500Y-103950143D01*
X102887627Y-104068336D01*
X102794685Y-104250742D01*
X102794684Y-104250745D01*
X102731425Y-104445440D01*
X102699400Y-104647635D01*
X99000500Y-104647635D01*
X99000500Y-90829054D01*
X101649498Y-90829054D01*
X101690424Y-90981789D01*
X101690425Y-90981790D01*
X101706787Y-91010129D01*
X101706788Y-91010130D01*
X101769477Y-91118712D01*
X101769481Y-91118717D01*
X101888349Y-91237585D01*
X101888355Y-91237590D01*
X102686081Y-92035317D01*
X102719566Y-92096640D01*
X102716331Y-92161315D01*
X102707139Y-92189603D01*
X102707138Y-92189610D01*
X102674500Y-92395675D01*
X102674500Y-92604324D01*
X102707137Y-92810389D01*
X102771612Y-93008820D01*
X102839189Y-93141446D01*
X102866330Y-93194714D01*
X102988965Y-93363505D01*
X103136495Y-93511035D01*
X103305286Y-93633670D01*
X103317309Y-93639796D01*
X103368105Y-93687769D01*
X103384901Y-93755589D01*
X103362365Y-93821725D01*
X103317313Y-93860764D01*
X103305556Y-93866754D01*
X103305555Y-93866755D01*
X103256180Y-93902627D01*
X103829766Y-94476212D01*
X103787708Y-94487482D01*
X103662292Y-94559890D01*
X103559890Y-94662292D01*
X103487482Y-94787708D01*
X103476212Y-94829765D01*
X102902627Y-94256180D01*
X102866757Y-94305552D01*
X102772075Y-94491372D01*
X102707626Y-94689727D01*
X102675000Y-94895720D01*
X102675000Y-95104279D01*
X102707626Y-95310272D01*
X102772075Y-95508627D01*
X102866759Y-95694451D01*
X102902627Y-95743818D01*
X102902627Y-95743819D01*
X103476212Y-95170234D01*
X103487482Y-95212292D01*
X103559890Y-95337708D01*
X103662292Y-95440110D01*
X103787708Y-95512518D01*
X103829765Y-95523787D01*
X103256179Y-96097371D01*
X103256180Y-96097372D01*
X103305543Y-96133236D01*
X103305555Y-96133244D01*
X103317308Y-96139232D01*
X103368105Y-96187206D01*
X103384901Y-96255026D01*
X103362365Y-96321162D01*
X103317313Y-96360201D01*
X103305288Y-96366328D01*
X103136493Y-96488966D01*
X102988966Y-96636493D01*
X102866330Y-96805285D01*
X102771612Y-96991179D01*
X102707137Y-97189610D01*
X102674500Y-97395675D01*
X102674500Y-97604324D01*
X102707137Y-97810389D01*
X102771612Y-98008820D01*
X102854796Y-98172077D01*
X102866330Y-98194714D01*
X102988965Y-98363505D01*
X103136495Y-98511035D01*
X103305286Y-98633670D01*
X103393116Y-98678421D01*
X103491179Y-98728387D01*
X103491181Y-98728387D01*
X103491184Y-98728389D01*
X103583256Y-98758305D01*
X103689610Y-98792862D01*
X103895676Y-98825500D01*
X103895681Y-98825500D01*
X104104324Y-98825500D01*
X104310389Y-98792862D01*
X104508816Y-98728389D01*
X104694714Y-98633670D01*
X104863505Y-98511035D01*
X105011035Y-98363505D01*
X105083247Y-98264113D01*
X105138578Y-98221449D01*
X105183565Y-98213000D01*
X106163331Y-98213000D01*
X106163347Y-98213001D01*
X106170943Y-98213001D01*
X106329054Y-98213001D01*
X106329057Y-98213001D01*
X106481785Y-98172077D01*
X106533013Y-98142500D01*
X106618716Y-98093020D01*
X106730520Y-97981216D01*
X106730520Y-97981214D01*
X106740724Y-97971011D01*
X106740728Y-97971006D01*
X110474916Y-94236818D01*
X110536239Y-94203333D01*
X110562597Y-94200499D01*
X110986670Y-94200499D01*
X110986676Y-94200499D01*
X111087753Y-94190174D01*
X111251516Y-94135908D01*
X111398350Y-94045340D01*
X111520340Y-93923350D01*
X111610908Y-93776516D01*
X111665174Y-93612753D01*
X111675500Y-93511677D01*
X111675499Y-92813324D01*
X111670356Y-92762981D01*
X111665174Y-92712247D01*
X111635423Y-92622466D01*
X111610908Y-92548484D01*
X111520340Y-92401650D01*
X111506017Y-92387327D01*
X111472532Y-92326004D01*
X111477516Y-92256312D01*
X111506021Y-92211960D01*
X111519947Y-92198035D01*
X111610448Y-92051311D01*
X111610453Y-92051300D01*
X111664680Y-91887652D01*
X111674999Y-91786654D01*
X111675000Y-91786641D01*
X111675000Y-91687500D01*
X109725001Y-91687500D01*
X109725001Y-91786654D01*
X109735319Y-91887652D01*
X109789546Y-92051300D01*
X109789551Y-92051311D01*
X109880052Y-92198034D01*
X109880055Y-92198038D01*
X109893982Y-92211965D01*
X109927467Y-92273288D01*
X109922483Y-92342980D01*
X109893984Y-92387325D01*
X109879661Y-92401648D01*
X109789093Y-92548481D01*
X109789092Y-92548484D01*
X109734826Y-92712247D01*
X109734826Y-92712248D01*
X109734825Y-92712248D01*
X109724500Y-92813315D01*
X109724500Y-93237402D01*
X109704815Y-93304441D01*
X109688181Y-93325083D01*
X106037584Y-96975681D01*
X105976261Y-97009166D01*
X105949903Y-97012000D01*
X105314982Y-97012000D01*
X105247943Y-96992315D01*
X105204498Y-96944295D01*
X105133670Y-96805286D01*
X105133669Y-96805285D01*
X105012368Y-96638330D01*
X105011035Y-96636495D01*
X104863505Y-96488965D01*
X104694714Y-96366330D01*
X104682689Y-96360203D01*
X104631893Y-96312228D01*
X104615098Y-96244407D01*
X104637636Y-96178272D01*
X104682694Y-96139231D01*
X104694449Y-96133241D01*
X104743818Y-96097372D01*
X104743818Y-96097371D01*
X104170234Y-95523787D01*
X104212292Y-95512518D01*
X104337708Y-95440110D01*
X104440110Y-95337708D01*
X104512518Y-95212292D01*
X104523787Y-95170234D01*
X105097371Y-95743818D01*
X105097372Y-95743818D01*
X105133240Y-95694451D01*
X105227924Y-95508627D01*
X105292373Y-95310272D01*
X105325000Y-95104279D01*
X105325000Y-94895720D01*
X105292373Y-94689727D01*
X105227924Y-94491372D01*
X105133244Y-94305556D01*
X105133236Y-94305543D01*
X105097372Y-94256180D01*
X105097371Y-94256179D01*
X104523787Y-94829764D01*
X104512518Y-94787708D01*
X104440110Y-94662292D01*
X104337708Y-94559890D01*
X104212292Y-94487482D01*
X104170233Y-94476212D01*
X104743819Y-93902627D01*
X104694446Y-93866755D01*
X104682689Y-93860765D01*
X104631893Y-93812791D01*
X104615098Y-93744970D01*
X104637636Y-93678835D01*
X104682692Y-93639795D01*
X104694714Y-93633670D01*
X104863505Y-93511035D01*
X105011035Y-93363505D01*
X105133670Y-93194714D01*
X105228389Y-93008816D01*
X105292862Y-92810389D01*
X105308406Y-92712247D01*
X105325500Y-92604324D01*
X105325500Y-92395675D01*
X105292862Y-92189610D01*
X105247922Y-92051300D01*
X105228389Y-91991184D01*
X105228387Y-91991181D01*
X105228387Y-91991179D01*
X105133669Y-91805285D01*
X105120123Y-91786641D01*
X105011035Y-91636495D01*
X104863505Y-91488965D01*
X104807241Y-91448086D01*
X104694712Y-91366328D01*
X104683243Y-91360485D01*
X104632447Y-91312511D01*
X104615651Y-91244690D01*
X104638188Y-91178555D01*
X104683243Y-91139515D01*
X104694712Y-91133671D01*
X104694711Y-91133671D01*
X104694714Y-91133670D01*
X104757098Y-91088345D01*
X109725000Y-91088345D01*
X109725000Y-91187500D01*
X110450000Y-91187500D01*
X110950000Y-91187500D01*
X111674999Y-91187500D01*
X111674999Y-91088360D01*
X111674998Y-91088345D01*
X111664680Y-90987347D01*
X111610453Y-90823699D01*
X111610448Y-90823688D01*
X111519947Y-90676965D01*
X111519944Y-90676961D01*
X111398038Y-90555055D01*
X111398034Y-90555052D01*
X111251311Y-90464551D01*
X111251300Y-90464546D01*
X111087652Y-90410319D01*
X110986654Y-90400000D01*
X110950000Y-90400000D01*
X110950000Y-91187500D01*
X110450000Y-91187500D01*
X110450000Y-90400000D01*
X110413361Y-90400000D01*
X110413343Y-90400001D01*
X110312347Y-90410319D01*
X110148699Y-90464546D01*
X110148688Y-90464551D01*
X110001965Y-90555052D01*
X110001961Y-90555055D01*
X109880055Y-90676961D01*
X109880052Y-90676965D01*
X109789551Y-90823688D01*
X109789546Y-90823699D01*
X109735319Y-90987347D01*
X109725000Y-91088345D01*
X104757098Y-91088345D01*
X104863505Y-91011035D01*
X105011035Y-90863505D01*
X105133670Y-90694714D01*
X105228389Y-90508816D01*
X105292862Y-90310389D01*
X105306706Y-90222981D01*
X105325500Y-90104324D01*
X105325500Y-89895675D01*
X105292862Y-89689610D01*
X105228387Y-89491179D01*
X105161222Y-89359360D01*
X105133670Y-89305286D01*
X105011035Y-89136495D01*
X104863505Y-88988965D01*
X104694714Y-88866330D01*
X104694705Y-88866325D01*
X104694700Y-88866322D01*
X104668202Y-88852820D01*
X104617407Y-88804844D01*
X104600500Y-88742337D01*
X104600500Y-88313766D01*
X105324500Y-88313766D01*
X105324500Y-88486233D01*
X105358143Y-88655366D01*
X105358146Y-88655378D01*
X105424138Y-88814698D01*
X105424145Y-88814711D01*
X105519954Y-88958098D01*
X105519957Y-88958102D01*
X105641897Y-89080042D01*
X105641901Y-89080045D01*
X105785288Y-89175854D01*
X105785301Y-89175861D01*
X105944621Y-89241853D01*
X105944626Y-89241855D01*
X106113766Y-89275499D01*
X106113769Y-89275500D01*
X106113771Y-89275500D01*
X106286231Y-89275500D01*
X106286232Y-89275499D01*
X106455374Y-89241855D01*
X106614705Y-89175858D01*
X106758099Y-89080045D01*
X106880045Y-88958099D01*
X106975858Y-88814705D01*
X107041855Y-88655374D01*
X107075500Y-88486229D01*
X107075500Y-88313771D01*
X107075500Y-88313768D01*
X107075499Y-88313766D01*
X107072168Y-88297019D01*
X107041855Y-88144626D01*
X107007401Y-88061446D01*
X106975861Y-87985301D01*
X106975854Y-87985288D01*
X106880045Y-87841901D01*
X106880042Y-87841897D01*
X106758102Y-87719957D01*
X106758098Y-87719954D01*
X106614711Y-87624145D01*
X106614698Y-87624138D01*
X106455378Y-87558146D01*
X106455366Y-87558143D01*
X106286232Y-87524500D01*
X106286229Y-87524500D01*
X106113771Y-87524500D01*
X106113768Y-87524500D01*
X105944633Y-87558143D01*
X105944621Y-87558146D01*
X105785301Y-87624138D01*
X105785288Y-87624145D01*
X105641901Y-87719954D01*
X105641897Y-87719957D01*
X105519957Y-87841897D01*
X105519954Y-87841901D01*
X105424145Y-87985288D01*
X105424138Y-87985301D01*
X105358146Y-88144621D01*
X105358143Y-88144633D01*
X105324500Y-88313766D01*
X104600500Y-88313766D01*
X104600500Y-84369489D01*
X104620185Y-84302450D01*
X104668205Y-84259004D01*
X104728257Y-84228407D01*
X104829414Y-84154913D01*
X104905193Y-84099857D01*
X104905195Y-84099854D01*
X104905199Y-84099852D01*
X105059852Y-83945199D01*
X105059854Y-83945195D01*
X105059857Y-83945193D01*
X105145877Y-83826795D01*
X105188407Y-83768257D01*
X105287701Y-83573383D01*
X105355286Y-83365375D01*
X105378783Y-83217021D01*
X105389500Y-83149361D01*
X105389500Y-82930638D01*
X105364448Y-82772473D01*
X105355286Y-82714625D01*
X105287701Y-82506617D01*
X105287701Y-82506616D01*
X105253315Y-82439132D01*
X105188407Y-82311743D01*
X105162075Y-82275500D01*
X105059857Y-82134806D01*
X104905199Y-81980148D01*
X104843933Y-81935636D01*
X104754028Y-81870316D01*
X104711364Y-81814989D01*
X104705385Y-81745376D01*
X104737990Y-81683580D01*
X104754023Y-81669686D01*
X104905199Y-81559852D01*
X105059852Y-81405199D01*
X105059854Y-81405195D01*
X105059857Y-81405193D01*
X105175448Y-81246093D01*
X105188407Y-81228257D01*
X105287701Y-81033383D01*
X105355286Y-80825375D01*
X105378783Y-80677021D01*
X105389500Y-80609361D01*
X105389500Y-80390638D01*
X105368731Y-80259515D01*
X105355286Y-80174625D01*
X105287701Y-79966617D01*
X105287701Y-79966616D01*
X105226660Y-79846818D01*
X105188407Y-79771743D01*
X105172247Y-79749500D01*
X105059857Y-79594806D01*
X104905199Y-79440148D01*
X104843933Y-79395636D01*
X104754028Y-79330316D01*
X104711364Y-79274989D01*
X104705385Y-79205376D01*
X104737990Y-79143580D01*
X104754023Y-79129686D01*
X104905199Y-79019852D01*
X105059852Y-78865199D01*
X105059854Y-78865195D01*
X105059857Y-78865193D01*
X105119924Y-78782516D01*
X105188407Y-78688257D01*
X105287701Y-78493383D01*
X105355286Y-78285375D01*
X105378783Y-78137021D01*
X105389500Y-78069361D01*
X105389500Y-77850638D01*
X105368731Y-77719515D01*
X105355286Y-77634625D01*
X105287701Y-77426617D01*
X105287701Y-77426616D01*
X105229683Y-77312751D01*
X105188407Y-77231743D01*
X105173828Y-77211676D01*
X105059857Y-77054806D01*
X104905199Y-76900148D01*
X104843933Y-76855636D01*
X104754028Y-76790316D01*
X104711364Y-76734989D01*
X104705385Y-76665376D01*
X104737990Y-76603580D01*
X104754023Y-76589686D01*
X104905199Y-76479852D01*
X105059852Y-76325199D01*
X105059854Y-76325195D01*
X105059857Y-76325193D01*
X105116229Y-76247601D01*
X105188407Y-76148257D01*
X105219005Y-76088204D01*
X105266980Y-76037409D01*
X105329490Y-76020500D01*
X124949903Y-76020500D01*
X125016942Y-76040185D01*
X125037584Y-76056819D01*
X132746237Y-83765472D01*
X132779722Y-83826795D01*
X132779160Y-83879522D01*
X132779349Y-83879552D01*
X132779146Y-83880831D01*
X132779133Y-83882087D01*
X132778587Y-83884360D01*
X132747500Y-84080639D01*
X132747500Y-84279360D01*
X132778587Y-84475637D01*
X132839993Y-84664629D01*
X132839994Y-84664632D01*
X132930213Y-84841694D01*
X133047019Y-85002464D01*
X133187536Y-85142981D01*
X133348306Y-85259787D01*
X133466832Y-85320179D01*
X133504780Y-85339515D01*
X133555576Y-85387490D01*
X133572371Y-85455311D01*
X133549833Y-85521446D01*
X133504780Y-85560485D01*
X133348305Y-85640213D01*
X133187533Y-85757021D01*
X133047021Y-85897533D01*
X132930213Y-86058305D01*
X132839994Y-86235367D01*
X132839993Y-86235370D01*
X132778587Y-86424362D01*
X132747500Y-86620639D01*
X132747500Y-86819360D01*
X132778587Y-87015637D01*
X132839993Y-87204629D01*
X132839994Y-87204632D01*
X132930213Y-87381694D01*
X133047019Y-87542464D01*
X133187536Y-87682981D01*
X133348306Y-87799787D01*
X133430951Y-87841897D01*
X133504780Y-87879515D01*
X133555576Y-87927490D01*
X133572371Y-87995311D01*
X133549833Y-88061446D01*
X133504780Y-88100485D01*
X133348305Y-88180213D01*
X133187533Y-88297021D01*
X133047021Y-88437533D01*
X132930213Y-88598305D01*
X132839994Y-88775367D01*
X132839993Y-88775370D01*
X132778587Y-88964362D01*
X132747500Y-89160639D01*
X132747500Y-89359360D01*
X132778587Y-89555637D01*
X132839993Y-89744629D01*
X132839994Y-89744632D01*
X132916959Y-89895681D01*
X132930213Y-89921694D01*
X133047019Y-90082464D01*
X133187536Y-90222981D01*
X133348306Y-90339787D01*
X133466480Y-90400000D01*
X133504780Y-90419515D01*
X133555576Y-90467490D01*
X133572371Y-90535311D01*
X133549833Y-90601446D01*
X133504780Y-90640485D01*
X133348305Y-90720213D01*
X133187533Y-90837021D01*
X133047021Y-90977533D01*
X132930213Y-91138305D01*
X132839994Y-91315367D01*
X132839993Y-91315370D01*
X132778587Y-91504362D01*
X132747500Y-91700639D01*
X132747500Y-91899360D01*
X132778587Y-92095637D01*
X132839993Y-92284629D01*
X132839994Y-92284632D01*
X132899618Y-92401648D01*
X132930213Y-92461694D01*
X133047019Y-92622464D01*
X133187536Y-92762981D01*
X133348306Y-92879787D01*
X133466832Y-92940179D01*
X133504780Y-92959515D01*
X133555576Y-93007490D01*
X133572371Y-93075311D01*
X133549833Y-93141446D01*
X133504780Y-93180485D01*
X133348305Y-93260213D01*
X133187533Y-93377021D01*
X133047021Y-93517533D01*
X132930213Y-93678305D01*
X132839994Y-93855367D01*
X132839993Y-93855370D01*
X132778587Y-94044362D01*
X132747500Y-94240639D01*
X132747500Y-94439360D01*
X132778587Y-94635637D01*
X132839993Y-94824629D01*
X132839994Y-94824632D01*
X132876216Y-94895720D01*
X132930213Y-95001694D01*
X133047019Y-95162464D01*
X133187536Y-95302981D01*
X133348306Y-95419787D01*
X133466832Y-95480179D01*
X133504780Y-95499515D01*
X133555576Y-95547490D01*
X133572371Y-95615311D01*
X133549833Y-95681446D01*
X133504780Y-95720485D01*
X133348305Y-95800213D01*
X133187533Y-95917021D01*
X133047021Y-96057533D01*
X132930213Y-96218305D01*
X132839994Y-96395367D01*
X132839993Y-96395370D01*
X132778587Y-96584362D01*
X132747500Y-96780639D01*
X132747500Y-96979360D01*
X132778587Y-97175637D01*
X132839993Y-97364629D01*
X132839994Y-97364632D01*
X132855815Y-97395681D01*
X132930213Y-97541694D01*
X133047019Y-97702464D01*
X133187536Y-97842981D01*
X133348306Y-97959787D01*
X133444538Y-98008820D01*
X133504780Y-98039515D01*
X133555576Y-98087490D01*
X133572371Y-98155311D01*
X133549833Y-98221446D01*
X133504780Y-98260485D01*
X133348305Y-98340213D01*
X133187533Y-98457021D01*
X133047021Y-98597533D01*
X132930213Y-98758305D01*
X132839994Y-98935367D01*
X132839993Y-98935370D01*
X132778587Y-99124362D01*
X132747500Y-99320639D01*
X132747500Y-99519360D01*
X132778587Y-99715637D01*
X132839993Y-99904629D01*
X132839994Y-99904632D01*
X132876689Y-99976648D01*
X132930213Y-100081694D01*
X133047019Y-100242464D01*
X133187536Y-100382981D01*
X133348306Y-100499787D01*
X133466832Y-100560179D01*
X133504780Y-100579515D01*
X133555576Y-100627490D01*
X133572371Y-100695311D01*
X133549833Y-100761446D01*
X133504780Y-100800485D01*
X133348305Y-100880213D01*
X133187533Y-100997021D01*
X133047021Y-101137533D01*
X132930213Y-101298305D01*
X132839994Y-101475367D01*
X132839993Y-101475370D01*
X132778587Y-101664362D01*
X132778587Y-101664364D01*
X132747500Y-101860639D01*
X132747500Y-102059361D01*
X132752156Y-102088759D01*
X132778587Y-102255637D01*
X132839993Y-102444629D01*
X132839994Y-102444632D01*
X132899033Y-102560500D01*
X132930213Y-102621694D01*
X133047019Y-102782464D01*
X133187536Y-102922981D01*
X133348306Y-103039787D01*
X133463905Y-103098688D01*
X133504780Y-103119515D01*
X133555576Y-103167490D01*
X133572371Y-103235311D01*
X133549833Y-103301446D01*
X133504780Y-103340485D01*
X133348305Y-103420213D01*
X133187533Y-103537021D01*
X133047021Y-103677533D01*
X132930213Y-103838305D01*
X132839994Y-104015367D01*
X132839993Y-104015370D01*
X132778587Y-104204362D01*
X132778587Y-104204364D01*
X132747500Y-104400639D01*
X132747500Y-104599361D01*
X132761135Y-104685448D01*
X132778587Y-104795637D01*
X132839993Y-104984629D01*
X132839994Y-104984632D01*
X132905319Y-105112837D01*
X132930213Y-105161694D01*
X133047019Y-105322464D01*
X133187536Y-105462981D01*
X133348306Y-105579787D01*
X133385423Y-105598699D01*
X133504780Y-105659515D01*
X133555576Y-105707490D01*
X133572371Y-105775311D01*
X133549833Y-105841446D01*
X133504780Y-105880485D01*
X133348305Y-105960213D01*
X133187533Y-106077021D01*
X133047021Y-106217533D01*
X132930213Y-106378305D01*
X132839994Y-106555367D01*
X132839993Y-106555370D01*
X132778587Y-106744362D01*
X132747500Y-106940639D01*
X132747500Y-107139361D01*
X132759215Y-107213324D01*
X132778587Y-107335637D01*
X132839993Y-107524629D01*
X132839994Y-107524632D01*
X132892559Y-107627795D01*
X132930213Y-107701694D01*
X133047019Y-107862464D01*
X133187536Y-108002981D01*
X133348306Y-108119787D01*
X133426859Y-108159812D01*
X133504780Y-108199515D01*
X133555576Y-108247490D01*
X133572371Y-108315311D01*
X133549833Y-108381446D01*
X133504780Y-108420485D01*
X133348305Y-108500213D01*
X133187533Y-108617021D01*
X133047021Y-108757533D01*
X132930213Y-108918305D01*
X132839994Y-109095367D01*
X132839993Y-109095370D01*
X132778587Y-109284362D01*
X132747500Y-109480639D01*
X132747500Y-109679361D01*
X132757500Y-109742499D01*
X132778587Y-109875637D01*
X132839993Y-110064629D01*
X132839994Y-110064632D01*
X132872179Y-110127797D01*
X132930213Y-110241694D01*
X133047019Y-110402464D01*
X133187536Y-110542981D01*
X133348306Y-110659787D01*
X133440980Y-110707007D01*
X133504780Y-110739515D01*
X133555576Y-110787490D01*
X133572371Y-110855311D01*
X133549833Y-110921446D01*
X133504780Y-110960485D01*
X133348305Y-111040213D01*
X133187533Y-111157021D01*
X133047021Y-111297533D01*
X132930213Y-111458305D01*
X132839994Y-111635367D01*
X132839993Y-111635370D01*
X132778587Y-111824362D01*
X132747500Y-112020639D01*
X132747500Y-112219360D01*
X132778587Y-112415637D01*
X132839993Y-112604629D01*
X132839994Y-112604632D01*
X132910832Y-112743657D01*
X132930213Y-112781694D01*
X133047019Y-112942464D01*
X133187536Y-113082981D01*
X133348306Y-113199787D01*
X133431230Y-113242039D01*
X133504780Y-113279515D01*
X133555576Y-113327490D01*
X133572371Y-113395311D01*
X133549833Y-113461446D01*
X133504780Y-113500485D01*
X133348305Y-113580213D01*
X133187533Y-113697021D01*
X133047021Y-113837533D01*
X132930213Y-113998305D01*
X132839994Y-114175367D01*
X132839993Y-114175370D01*
X132778587Y-114364362D01*
X132747500Y-114560639D01*
X132747500Y-114759360D01*
X132778587Y-114955637D01*
X132839993Y-115144629D01*
X132839994Y-115144632D01*
X132893304Y-115249257D01*
X132930213Y-115321694D01*
X133047019Y-115482464D01*
X133187536Y-115622981D01*
X133348306Y-115739787D01*
X133435149Y-115784035D01*
X133525367Y-115830005D01*
X133525370Y-115830006D01*
X133619866Y-115860709D01*
X133714364Y-115891413D01*
X133910639Y-115922500D01*
X133910640Y-115922500D01*
X134109360Y-115922500D01*
X134109361Y-115922500D01*
X134305636Y-115891413D01*
X134494632Y-115830005D01*
X134671694Y-115739787D01*
X134832464Y-115622981D01*
X134972981Y-115482464D01*
X135089787Y-115321694D01*
X135180005Y-115144632D01*
X135241413Y-114955636D01*
X135272500Y-114759361D01*
X135272500Y-114560639D01*
X135241413Y-114364364D01*
X135180005Y-114175368D01*
X135180005Y-114175367D01*
X135127440Y-114072204D01*
X135089787Y-113998306D01*
X134972981Y-113837536D01*
X134832464Y-113697019D01*
X134671694Y-113580213D01*
X134515218Y-113500484D01*
X134464423Y-113452510D01*
X134447628Y-113384689D01*
X134470165Y-113318554D01*
X134515218Y-113279515D01*
X134671694Y-113199787D01*
X134832464Y-113082981D01*
X134972981Y-112942464D01*
X135089787Y-112781694D01*
X135180005Y-112604632D01*
X135241413Y-112415636D01*
X135272500Y-112219361D01*
X135272500Y-112020639D01*
X135241413Y-111824364D01*
X135210709Y-111729866D01*
X135180006Y-111635370D01*
X135180005Y-111635367D01*
X135089786Y-111458305D01*
X134972981Y-111297536D01*
X134832464Y-111157019D01*
X134671694Y-111040213D01*
X134515218Y-110960484D01*
X134464423Y-110912510D01*
X134447628Y-110844689D01*
X134470165Y-110778554D01*
X134515218Y-110739515D01*
X134671694Y-110659787D01*
X134832464Y-110542981D01*
X134972981Y-110402464D01*
X135089787Y-110241694D01*
X135180005Y-110064632D01*
X135241413Y-109875636D01*
X135272500Y-109679361D01*
X135272500Y-109480639D01*
X135241413Y-109284364D01*
X135180005Y-109095368D01*
X135180005Y-109095367D01*
X135089786Y-108918305D01*
X135080605Y-108905668D01*
X134972981Y-108757536D01*
X134832464Y-108617019D01*
X134671694Y-108500213D01*
X134515218Y-108420484D01*
X134464423Y-108372510D01*
X134447628Y-108304689D01*
X134470165Y-108238554D01*
X134515218Y-108199515D01*
X134671694Y-108119787D01*
X134832464Y-108002981D01*
X134972981Y-107862464D01*
X135089787Y-107701694D01*
X135180005Y-107524632D01*
X135241413Y-107335636D01*
X135272500Y-107139361D01*
X135272500Y-106940639D01*
X135241413Y-106744364D01*
X135184219Y-106568336D01*
X135180006Y-106555370D01*
X135180005Y-106555367D01*
X135132686Y-106462500D01*
X135089787Y-106378306D01*
X134972981Y-106217536D01*
X134832464Y-106077019D01*
X134671694Y-105960213D01*
X134515218Y-105880484D01*
X134464423Y-105832510D01*
X134447628Y-105764689D01*
X134470165Y-105698554D01*
X134515218Y-105659515D01*
X134671694Y-105579787D01*
X134832464Y-105462981D01*
X134972981Y-105322464D01*
X135089787Y-105161694D01*
X135180005Y-104984632D01*
X135241413Y-104795636D01*
X135272500Y-104599361D01*
X135272500Y-104400639D01*
X135241413Y-104204364D01*
X135195044Y-104061654D01*
X135180006Y-104015370D01*
X135180005Y-104015367D01*
X135120967Y-103899500D01*
X135089787Y-103838306D01*
X134972981Y-103677536D01*
X134832464Y-103537019D01*
X134671694Y-103420213D01*
X134515218Y-103340484D01*
X134464423Y-103292510D01*
X134447628Y-103224689D01*
X134470165Y-103158554D01*
X134515218Y-103119515D01*
X134671694Y-103039787D01*
X134832464Y-102922981D01*
X134972981Y-102782464D01*
X135089787Y-102621694D01*
X135180005Y-102444632D01*
X135241413Y-102255636D01*
X135272500Y-102059361D01*
X135272500Y-101860639D01*
X135241413Y-101664364D01*
X135180005Y-101475368D01*
X135180005Y-101475367D01*
X135104183Y-101326560D01*
X135089787Y-101298306D01*
X134972981Y-101137536D01*
X134832464Y-100997019D01*
X134671694Y-100880213D01*
X134515218Y-100800484D01*
X134464423Y-100752510D01*
X134447628Y-100684689D01*
X134470165Y-100618554D01*
X134515218Y-100579515D01*
X134671694Y-100499787D01*
X134832464Y-100382981D01*
X134972981Y-100242464D01*
X135089787Y-100081694D01*
X135180005Y-99904632D01*
X135241413Y-99715636D01*
X135272500Y-99519361D01*
X135272500Y-99320639D01*
X135241413Y-99124364D01*
X135180005Y-98935368D01*
X135180005Y-98935367D01*
X135120967Y-98819500D01*
X135089787Y-98758306D01*
X134972981Y-98597536D01*
X134832464Y-98457019D01*
X134671694Y-98340213D01*
X134515218Y-98260484D01*
X134464423Y-98212510D01*
X134447628Y-98144689D01*
X134470165Y-98078554D01*
X134515218Y-98039515D01*
X134671694Y-97959787D01*
X134832464Y-97842981D01*
X134972981Y-97702464D01*
X135089787Y-97541694D01*
X135180005Y-97364632D01*
X135241413Y-97175636D01*
X135272500Y-96979361D01*
X135272500Y-96780639D01*
X135241413Y-96584364D01*
X135180005Y-96395368D01*
X135180005Y-96395367D01*
X135094037Y-96226648D01*
X135089787Y-96218306D01*
X134972981Y-96057536D01*
X134832464Y-95917019D01*
X134671694Y-95800213D01*
X134515218Y-95720484D01*
X134464423Y-95672510D01*
X134447628Y-95604689D01*
X134470165Y-95538554D01*
X134515218Y-95499515D01*
X134671694Y-95419787D01*
X134832464Y-95302981D01*
X134972981Y-95162464D01*
X135089787Y-95001694D01*
X135180005Y-94824632D01*
X135241413Y-94635636D01*
X135272500Y-94439361D01*
X135272500Y-94240639D01*
X135241413Y-94044364D01*
X135181759Y-93860765D01*
X135180006Y-93855370D01*
X135180005Y-93855367D01*
X135123754Y-93744970D01*
X135089787Y-93678306D01*
X134972981Y-93517536D01*
X134832464Y-93377019D01*
X134671694Y-93260213D01*
X134515218Y-93180484D01*
X134464423Y-93132510D01*
X134447628Y-93064689D01*
X134470165Y-92998554D01*
X134515218Y-92959515D01*
X134671694Y-92879787D01*
X134832464Y-92762981D01*
X134972981Y-92622464D01*
X135089787Y-92461694D01*
X135180005Y-92284632D01*
X135241413Y-92095636D01*
X135272500Y-91899361D01*
X135272500Y-91700639D01*
X135241413Y-91504364D01*
X135210709Y-91409866D01*
X135180006Y-91315370D01*
X135180005Y-91315367D01*
X135134035Y-91225149D01*
X135089787Y-91138306D01*
X134972981Y-90977536D01*
X134832464Y-90837019D01*
X134671694Y-90720213D01*
X134515218Y-90640484D01*
X134464423Y-90592510D01*
X134447628Y-90524689D01*
X134470165Y-90458554D01*
X134515218Y-90419515D01*
X134671694Y-90339787D01*
X134832464Y-90222981D01*
X134972981Y-90082464D01*
X135089787Y-89921694D01*
X135180005Y-89744632D01*
X135241413Y-89555636D01*
X135272500Y-89359361D01*
X135272500Y-89160639D01*
X135241413Y-88964364D01*
X135209560Y-88866330D01*
X135180006Y-88775370D01*
X135180005Y-88775367D01*
X135118865Y-88655374D01*
X135089787Y-88598306D01*
X134972981Y-88437536D01*
X134832464Y-88297019D01*
X134671694Y-88180213D01*
X134515218Y-88100484D01*
X134464423Y-88052510D01*
X134447628Y-87984689D01*
X134470165Y-87918554D01*
X134515218Y-87879515D01*
X134671694Y-87799787D01*
X134832464Y-87682981D01*
X134972981Y-87542464D01*
X135089787Y-87381694D01*
X135180005Y-87204632D01*
X135241413Y-87015636D01*
X135272500Y-86819361D01*
X135272500Y-86620639D01*
X135241413Y-86424364D01*
X135180005Y-86235368D01*
X135180005Y-86235367D01*
X135089786Y-86058305D01*
X134972981Y-85897536D01*
X134832464Y-85757019D01*
X134671694Y-85640213D01*
X134515218Y-85560484D01*
X134464423Y-85512510D01*
X134447628Y-85444689D01*
X134470165Y-85378554D01*
X134515218Y-85339515D01*
X134671694Y-85259787D01*
X134832464Y-85142981D01*
X134972981Y-85002464D01*
X135089787Y-84841694D01*
X135180005Y-84664632D01*
X135241413Y-84475636D01*
X135272500Y-84279361D01*
X135272500Y-84080639D01*
X135241413Y-83884364D01*
X135180005Y-83695368D01*
X135180005Y-83695367D01*
X135089786Y-83518305D01*
X135085679Y-83512652D01*
X134972981Y-83357536D01*
X134832464Y-83217019D01*
X134671694Y-83100213D01*
X134515218Y-83020484D01*
X134464423Y-82972510D01*
X134447628Y-82904689D01*
X134470165Y-82838554D01*
X134515218Y-82799515D01*
X134671694Y-82719787D01*
X134832464Y-82602981D01*
X134972981Y-82462464D01*
X135089787Y-82301694D01*
X135180005Y-82124632D01*
X135241413Y-81935636D01*
X135272500Y-81739361D01*
X135272500Y-81540639D01*
X135241413Y-81344364D01*
X135203688Y-81228257D01*
X135180006Y-81155370D01*
X135180005Y-81155367D01*
X135108724Y-81015472D01*
X135089787Y-80978306D01*
X134972981Y-80817536D01*
X134832464Y-80677019D01*
X134671694Y-80560213D01*
X134515218Y-80480484D01*
X134464423Y-80432510D01*
X134447628Y-80364689D01*
X134470165Y-80298554D01*
X134515218Y-80259515D01*
X134671694Y-80179787D01*
X134832464Y-80062981D01*
X134972981Y-79922464D01*
X135089787Y-79761694D01*
X135180005Y-79584632D01*
X135241413Y-79395636D01*
X135272500Y-79199361D01*
X135272500Y-79000639D01*
X135241413Y-78804364D01*
X135180005Y-78615368D01*
X135180005Y-78615367D01*
X135092993Y-78444599D01*
X135089787Y-78438306D01*
X134972981Y-78277536D01*
X134832464Y-78137019D01*
X134671694Y-78020213D01*
X134515218Y-77940484D01*
X134464423Y-77892510D01*
X134447628Y-77824689D01*
X134470165Y-77758554D01*
X134515218Y-77719515D01*
X134671694Y-77639787D01*
X134832464Y-77522981D01*
X134972981Y-77382464D01*
X135089787Y-77221694D01*
X135180005Y-77044632D01*
X135241413Y-76855636D01*
X135272500Y-76659361D01*
X135272500Y-76460639D01*
X135241413Y-76264364D01*
X135203688Y-76148257D01*
X135180006Y-76075370D01*
X135180005Y-76075367D01*
X135089786Y-75898305D01*
X135071655Y-75873350D01*
X134972981Y-75737536D01*
X134832464Y-75597019D01*
X134671694Y-75480213D01*
X134515218Y-75400484D01*
X134464423Y-75352510D01*
X134447628Y-75284689D01*
X134470165Y-75218554D01*
X134515218Y-75179515D01*
X134671694Y-75099787D01*
X134832464Y-74982981D01*
X134972981Y-74842464D01*
X135089787Y-74681694D01*
X135180005Y-74504632D01*
X135241413Y-74315636D01*
X135272500Y-74119361D01*
X135272500Y-73920639D01*
X135241413Y-73724364D01*
X135180005Y-73535368D01*
X135180005Y-73535367D01*
X135089786Y-73358305D01*
X134972981Y-73197536D01*
X134832464Y-73057019D01*
X134671694Y-72940213D01*
X134515218Y-72860484D01*
X134464423Y-72812510D01*
X134447628Y-72744689D01*
X134470165Y-72678554D01*
X134515218Y-72639515D01*
X134671694Y-72559787D01*
X134832464Y-72442981D01*
X134972981Y-72302464D01*
X135089787Y-72141694D01*
X135180005Y-71964632D01*
X135241413Y-71775636D01*
X135272500Y-71579361D01*
X135272500Y-71380639D01*
X135241413Y-71184364D01*
X135180005Y-70995368D01*
X135180005Y-70995367D01*
X135117751Y-70873188D01*
X135089787Y-70818306D01*
X134972981Y-70657536D01*
X134832464Y-70517019D01*
X134671694Y-70400213D01*
X134515218Y-70320484D01*
X134464423Y-70272510D01*
X134447628Y-70204689D01*
X134470165Y-70138554D01*
X134515218Y-70099515D01*
X134671694Y-70019787D01*
X134832464Y-69902981D01*
X134972981Y-69762464D01*
X135089787Y-69601694D01*
X135180005Y-69424632D01*
X135241413Y-69235636D01*
X135272500Y-69039361D01*
X135272500Y-68840639D01*
X135241413Y-68644364D01*
X135180005Y-68455368D01*
X135180005Y-68455367D01*
X135117849Y-68333380D01*
X135089787Y-68278306D01*
X134972981Y-68117536D01*
X134832464Y-67977019D01*
X134671694Y-67860213D01*
X134515218Y-67780484D01*
X134464423Y-67732510D01*
X134447628Y-67664689D01*
X134470165Y-67598554D01*
X134515218Y-67559515D01*
X134671694Y-67479787D01*
X134832464Y-67362981D01*
X134972981Y-67222464D01*
X135089787Y-67061694D01*
X135180005Y-66884632D01*
X135241413Y-66695636D01*
X135272500Y-66499361D01*
X135272500Y-66300639D01*
X135241413Y-66104364D01*
X135180005Y-65915368D01*
X135180005Y-65915367D01*
X135134035Y-65825149D01*
X135089787Y-65738306D01*
X134972981Y-65577536D01*
X134832464Y-65437019D01*
X134671694Y-65320213D01*
X134494632Y-65229994D01*
X134494629Y-65229993D01*
X134305637Y-65168587D01*
X134207498Y-65153043D01*
X134109361Y-65137500D01*
X133910639Y-65137500D01*
X133845214Y-65147862D01*
X133714362Y-65168587D01*
X133525370Y-65229993D01*
X133525367Y-65229994D01*
X133348305Y-65320213D01*
X133187533Y-65437021D01*
X133047021Y-65577533D01*
X132930213Y-65738305D01*
X132839994Y-65915367D01*
X132839993Y-65915370D01*
X132778587Y-66104362D01*
X132747500Y-66300639D01*
X132747500Y-66499360D01*
X132778587Y-66695637D01*
X132839993Y-66884629D01*
X132839994Y-66884632D01*
X132930076Y-67061425D01*
X132930213Y-67061694D01*
X133047019Y-67222464D01*
X133187536Y-67362981D01*
X133348306Y-67479787D01*
X133466832Y-67540179D01*
X133504780Y-67559515D01*
X133555576Y-67607490D01*
X133572371Y-67675311D01*
X133549833Y-67741446D01*
X133504780Y-67780485D01*
X133348305Y-67860213D01*
X133187533Y-67977021D01*
X133047021Y-68117533D01*
X132930213Y-68278305D01*
X132839994Y-68455367D01*
X132839993Y-68455370D01*
X132778587Y-68644362D01*
X132768815Y-68706060D01*
X132747500Y-68840639D01*
X132747500Y-69039361D01*
X132755055Y-69087061D01*
X132778587Y-69235637D01*
X132839993Y-69424629D01*
X132839994Y-69424632D01*
X132930076Y-69601425D01*
X132930213Y-69601694D01*
X133047019Y-69762464D01*
X133187536Y-69902981D01*
X133348306Y-70019787D01*
X133466832Y-70080179D01*
X133504780Y-70099515D01*
X133555576Y-70147490D01*
X133572371Y-70215311D01*
X133549833Y-70281446D01*
X133504780Y-70320485D01*
X133348305Y-70400213D01*
X133187533Y-70517021D01*
X133047021Y-70657533D01*
X132930213Y-70818305D01*
X132839994Y-70995367D01*
X132839993Y-70995370D01*
X132778587Y-71184362D01*
X132747500Y-71380639D01*
X132747500Y-71579361D01*
X132749549Y-71592299D01*
X132778587Y-71775637D01*
X132839993Y-71964629D01*
X132839994Y-71964632D01*
X132930213Y-72141694D01*
X133047019Y-72302464D01*
X133187536Y-72442981D01*
X133348306Y-72559787D01*
X133466832Y-72620179D01*
X133504780Y-72639515D01*
X133555576Y-72687490D01*
X133572371Y-72755311D01*
X133549833Y-72821446D01*
X133504780Y-72860485D01*
X133348305Y-72940213D01*
X133187533Y-73057021D01*
X133047021Y-73197533D01*
X132930213Y-73358305D01*
X132839994Y-73535367D01*
X132839993Y-73535370D01*
X132778587Y-73724362D01*
X132747500Y-73920639D01*
X132747500Y-74119360D01*
X132778587Y-74315637D01*
X132839993Y-74504629D01*
X132839994Y-74504632D01*
X132930213Y-74681694D01*
X133047019Y-74842464D01*
X133187536Y-74982981D01*
X133348306Y-75099787D01*
X133466832Y-75160179D01*
X133504780Y-75179515D01*
X133555576Y-75227490D01*
X133572371Y-75295311D01*
X133549833Y-75361446D01*
X133504780Y-75400485D01*
X133348305Y-75480213D01*
X133187533Y-75597021D01*
X133047021Y-75737533D01*
X132930213Y-75898305D01*
X132839994Y-76075367D01*
X132839993Y-76075370D01*
X132778587Y-76264362D01*
X132747500Y-76460639D01*
X132747500Y-76659360D01*
X132778587Y-76855637D01*
X132839993Y-77044629D01*
X132839994Y-77044632D01*
X132925109Y-77211677D01*
X132930213Y-77221694D01*
X133047019Y-77382464D01*
X133187536Y-77522981D01*
X133348306Y-77639787D01*
X133466832Y-77700179D01*
X133504780Y-77719515D01*
X133555576Y-77767490D01*
X133572371Y-77835311D01*
X133549833Y-77901446D01*
X133504780Y-77940485D01*
X133348305Y-78020213D01*
X133187533Y-78137021D01*
X133047021Y-78277533D01*
X132930213Y-78438305D01*
X132839994Y-78615367D01*
X132839993Y-78615370D01*
X132778587Y-78804362D01*
X132747500Y-79000639D01*
X132747500Y-79199360D01*
X132778587Y-79395637D01*
X132839993Y-79584629D01*
X132839994Y-79584632D01*
X132882242Y-79667547D01*
X132930213Y-79761694D01*
X133047019Y-79922464D01*
X133187536Y-80062981D01*
X133348306Y-80179787D01*
X133466832Y-80240179D01*
X133504780Y-80259515D01*
X133555576Y-80307490D01*
X133572371Y-80375311D01*
X133549833Y-80441446D01*
X133504780Y-80480485D01*
X133348305Y-80560213D01*
X133187533Y-80677021D01*
X133047021Y-80817533D01*
X132930213Y-80978305D01*
X132839994Y-81155367D01*
X132839993Y-81155370D01*
X132778587Y-81344362D01*
X132747500Y-81540639D01*
X132747500Y-81739361D01*
X132748453Y-81745376D01*
X132749697Y-81753231D01*
X132740740Y-81822524D01*
X132695743Y-81875975D01*
X132628991Y-81896613D01*
X132561677Y-81877887D01*
X132539542Y-81860307D01*
X125737590Y-75058355D01*
X125737588Y-75058352D01*
X125618717Y-74939481D01*
X125618709Y-74939475D01*
X125494258Y-74867624D01*
X125494255Y-74867623D01*
X125481785Y-74860423D01*
X125329057Y-74819499D01*
X125170943Y-74819499D01*
X125163347Y-74819499D01*
X125163331Y-74819500D01*
X105329490Y-74819500D01*
X105262451Y-74799815D01*
X105219005Y-74751795D01*
X105188407Y-74691743D01*
X105180147Y-74680374D01*
X105059857Y-74514806D01*
X104905199Y-74360148D01*
X104843933Y-74315636D01*
X104754028Y-74250316D01*
X104711364Y-74194989D01*
X104705385Y-74125376D01*
X104737990Y-74063580D01*
X104754023Y-74049686D01*
X104905199Y-73939852D01*
X105059852Y-73785199D01*
X105059854Y-73785195D01*
X105059857Y-73785193D01*
X105116229Y-73707601D01*
X105188407Y-73608257D01*
X105287701Y-73413383D01*
X105355286Y-73205375D01*
X105378783Y-73057021D01*
X105389500Y-72989361D01*
X105389500Y-72770638D01*
X105368731Y-72639515D01*
X105355286Y-72554625D01*
X105287701Y-72346617D01*
X105287701Y-72346616D01*
X105253315Y-72279132D01*
X105188407Y-72151743D01*
X105180147Y-72140374D01*
X105059857Y-71974806D01*
X104905197Y-71820146D01*
X104905192Y-71820142D01*
X104753605Y-71710008D01*
X104710939Y-71654678D01*
X104704960Y-71585065D01*
X104737565Y-71523270D01*
X104753605Y-71509371D01*
X104904873Y-71399469D01*
X105059471Y-71244871D01*
X105059475Y-71244866D01*
X105187976Y-71067998D01*
X105287237Y-70873191D01*
X105287238Y-70873188D01*
X105354798Y-70665258D01*
X105366718Y-70590000D01*
X104433012Y-70590000D01*
X104465925Y-70532993D01*
X104500000Y-70405826D01*
X104500000Y-70274174D01*
X104465925Y-70147007D01*
X104433012Y-70090000D01*
X105366718Y-70090000D01*
X105354798Y-70014741D01*
X105287238Y-69806811D01*
X105287237Y-69806808D01*
X105187976Y-69612001D01*
X105059475Y-69435133D01*
X105059471Y-69435128D01*
X104904871Y-69280528D01*
X104904866Y-69280524D01*
X104753605Y-69170627D01*
X104710939Y-69115297D01*
X104704960Y-69045684D01*
X104737565Y-68983889D01*
X104753599Y-68969994D01*
X104905199Y-68859852D01*
X105059852Y-68705199D01*
X105059854Y-68705195D01*
X105059857Y-68705193D01*
X105116229Y-68627601D01*
X105188407Y-68528257D01*
X105287701Y-68333383D01*
X105355286Y-68125375D01*
X105378783Y-67977021D01*
X105389500Y-67909361D01*
X105389500Y-67690638D01*
X105368731Y-67559515D01*
X105355286Y-67474625D01*
X105287701Y-67266617D01*
X105287701Y-67266616D01*
X105253315Y-67199132D01*
X105188407Y-67071743D01*
X105180147Y-67060374D01*
X105059857Y-66894806D01*
X104905193Y-66740142D01*
X104728260Y-66611595D01*
X104728259Y-66611594D01*
X104728257Y-66611593D01*
X104665825Y-66579782D01*
X104533383Y-66512298D01*
X104533380Y-66512297D01*
X104325376Y-66444714D01*
X104109361Y-66410500D01*
X104109356Y-66410500D01*
X103890644Y-66410500D01*
X103890639Y-66410500D01*
X103674623Y-66444714D01*
X103466619Y-66512297D01*
X103466616Y-66512298D01*
X103271739Y-66611595D01*
X103094806Y-66740142D01*
X102940142Y-66894806D01*
X102811595Y-67071739D01*
X102712298Y-67266616D01*
X102712297Y-67266619D01*
X102644714Y-67474623D01*
X102610500Y-67690638D01*
X102610500Y-67909361D01*
X102644714Y-68125376D01*
X102712297Y-68333380D01*
X102712298Y-68333383D01*
X102811595Y-68528260D01*
X102940142Y-68705193D01*
X103094802Y-68859853D01*
X103094807Y-68859857D01*
X103246394Y-68969991D01*
X103289060Y-69025320D01*
X103295039Y-69094934D01*
X103262434Y-69156729D01*
X103246394Y-69170627D01*
X103095133Y-69280524D01*
X103095128Y-69280528D01*
X102940528Y-69435128D01*
X102940524Y-69435133D01*
X102812023Y-69612001D01*
X102712762Y-69806808D01*
X102712761Y-69806811D01*
X102645201Y-70014741D01*
X102633282Y-70090000D01*
X103566988Y-70090000D01*
X103534075Y-70147007D01*
X103500000Y-70274174D01*
X103500000Y-70405826D01*
X103534075Y-70532993D01*
X103566988Y-70590000D01*
X102633282Y-70590000D01*
X102645201Y-70665258D01*
X102712761Y-70873188D01*
X102712762Y-70873191D01*
X102812023Y-71067998D01*
X102940524Y-71244866D01*
X102940528Y-71244871D01*
X103095128Y-71399471D01*
X103095133Y-71399475D01*
X103246394Y-71509372D01*
X103289060Y-71564701D01*
X103295039Y-71634315D01*
X103262434Y-71696110D01*
X103246394Y-71710008D01*
X103094807Y-71820142D01*
X103094802Y-71820146D01*
X102940142Y-71974806D01*
X102811595Y-72151739D01*
X102712298Y-72346616D01*
X102712297Y-72346619D01*
X102644714Y-72554623D01*
X102610500Y-72770638D01*
X102610500Y-72989361D01*
X102644714Y-73205376D01*
X102712297Y-73413380D01*
X102712298Y-73413383D01*
X102811595Y-73608260D01*
X102940142Y-73785193D01*
X103094806Y-73939857D01*
X103245969Y-74049682D01*
X103288635Y-74105011D01*
X103294614Y-74174625D01*
X103262009Y-74236420D01*
X103245969Y-74250318D01*
X103094806Y-74360142D01*
X102940142Y-74514806D01*
X102811595Y-74691739D01*
X102712298Y-74886616D01*
X102712297Y-74886619D01*
X102644714Y-75094623D01*
X102610500Y-75310638D01*
X102610500Y-75529361D01*
X102644714Y-75745376D01*
X102712297Y-75953380D01*
X102712298Y-75953383D01*
X102811595Y-76148260D01*
X102940142Y-76325193D01*
X103094806Y-76479857D01*
X103245969Y-76589682D01*
X103288635Y-76645011D01*
X103294614Y-76714625D01*
X103262009Y-76776420D01*
X103245969Y-76790318D01*
X103094806Y-76900142D01*
X102940142Y-77054806D01*
X102811595Y-77231739D01*
X102712298Y-77426616D01*
X102712297Y-77426619D01*
X102644714Y-77634623D01*
X102610500Y-77850638D01*
X102610500Y-78069361D01*
X102644714Y-78285376D01*
X102712297Y-78493380D01*
X102712298Y-78493383D01*
X102811595Y-78688260D01*
X102940142Y-78865193D01*
X103094806Y-79019857D01*
X103245969Y-79129682D01*
X103288635Y-79185011D01*
X103294614Y-79254625D01*
X103262009Y-79316420D01*
X103245969Y-79330318D01*
X103094806Y-79440142D01*
X102940142Y-79594806D01*
X102811595Y-79771739D01*
X102712298Y-79966616D01*
X102712297Y-79966619D01*
X102644714Y-80174623D01*
X102610500Y-80390638D01*
X102610500Y-80609361D01*
X102644714Y-80825376D01*
X102665540Y-80889473D01*
X102667535Y-80959315D01*
X102635290Y-81015472D01*
X101881286Y-81769478D01*
X101769481Y-81881282D01*
X101769479Y-81881285D01*
X101719361Y-81968094D01*
X101719359Y-81968096D01*
X101690425Y-82018209D01*
X101690424Y-82018210D01*
X101690423Y-82018215D01*
X101649499Y-82170943D01*
X101649499Y-82170945D01*
X101649499Y-82339046D01*
X101649500Y-82339059D01*
X101649500Y-90663330D01*
X101649499Y-90663348D01*
X101649499Y-90829054D01*
X101649498Y-90829054D01*
X99000500Y-90829054D01*
X99000500Y-64124500D01*
X99020185Y-64057461D01*
X99072989Y-64011706D01*
X99124500Y-64000500D01*
X167625500Y-64000500D01*
X167692539Y-64020185D01*
G37*
%TD.AperFunction*%
%TD*%
M02*
