%TF.GenerationSoftware,KiCad,Pcbnew,10.0.5*%
%TF.CreationDate,2026-09-30T19:24:23-04:00*%
%TF.ProjectId,DAQBoardFront,44415142-6f61-4726-9446-726f6e742e6b,rev?*%
%TF.SameCoordinates,Original*%
%TF.FileFunction,Legend,Top*%
%TF.FilePolarity,Positive*%
%FSLAX46Y46*%
G04 Gerber Fmt 4.6, Leading zero omitted, Abs format (unit mm)*
G04 Created by KiCad (PCBNEW 10.0.5) date 2026-09-30 19:24:23*
%MOMM*%
%LPD*%
G01*
G04 APERTURE LIST*
%ADD10C,0.150000*%
%ADD11C,0.100000*%
%ADD12C,0.254000*%
%ADD13C,0.152400*%
%ADD14C,0.508000*%
%ADD15C,0.127000*%
%ADD16C,0.200000*%
%ADD17C,0.069000*%
G04 APERTURE END LIST*
D10*
X104545180Y-110666666D02*
X103830895Y-110666666D01*
X103830895Y-110666666D02*
X103688038Y-110619047D01*
X103688038Y-110619047D02*
X103592800Y-110523809D01*
X103592800Y-110523809D02*
X103545180Y-110380952D01*
X103545180Y-110380952D02*
X103545180Y-110285714D01*
X103545180Y-111666666D02*
X103545180Y-111095238D01*
X103545180Y-111380952D02*
X104545180Y-111380952D01*
X104545180Y-111380952D02*
X104402323Y-111285714D01*
X104402323Y-111285714D02*
X104307085Y-111190476D01*
X104307085Y-111190476D02*
X104259466Y-111095238D01*
D11*
X140878095Y-74617419D02*
X140878095Y-75426942D01*
X140878095Y-75426942D02*
X140925714Y-75522180D01*
X140925714Y-75522180D02*
X140973333Y-75569800D01*
X140973333Y-75569800D02*
X141068571Y-75617419D01*
X141068571Y-75617419D02*
X141259047Y-75617419D01*
X141259047Y-75617419D02*
X141354285Y-75569800D01*
X141354285Y-75569800D02*
X141401904Y-75522180D01*
X141401904Y-75522180D02*
X141449523Y-75426942D01*
X141449523Y-75426942D02*
X141449523Y-74617419D01*
X141830476Y-74617419D02*
X142449523Y-74617419D01*
X142449523Y-74617419D02*
X142116190Y-74998371D01*
X142116190Y-74998371D02*
X142259047Y-74998371D01*
X142259047Y-74998371D02*
X142354285Y-75045990D01*
X142354285Y-75045990D02*
X142401904Y-75093609D01*
X142401904Y-75093609D02*
X142449523Y-75188847D01*
X142449523Y-75188847D02*
X142449523Y-75426942D01*
X142449523Y-75426942D02*
X142401904Y-75522180D01*
X142401904Y-75522180D02*
X142354285Y-75569800D01*
X142354285Y-75569800D02*
X142259047Y-75617419D01*
X142259047Y-75617419D02*
X141973333Y-75617419D01*
X141973333Y-75617419D02*
X141878095Y-75569800D01*
X141878095Y-75569800D02*
X141830476Y-75522180D01*
D10*
X130898095Y-121104819D02*
X130898095Y-121914342D01*
X130898095Y-121914342D02*
X130945714Y-122009580D01*
X130945714Y-122009580D02*
X130993333Y-122057200D01*
X130993333Y-122057200D02*
X131088571Y-122104819D01*
X131088571Y-122104819D02*
X131279047Y-122104819D01*
X131279047Y-122104819D02*
X131374285Y-122057200D01*
X131374285Y-122057200D02*
X131421904Y-122009580D01*
X131421904Y-122009580D02*
X131469523Y-121914342D01*
X131469523Y-121914342D02*
X131469523Y-121104819D01*
X132469523Y-122104819D02*
X131898095Y-122104819D01*
X132183809Y-122104819D02*
X132183809Y-121104819D01*
X132183809Y-121104819D02*
X132088571Y-121247676D01*
X132088571Y-121247676D02*
X131993333Y-121342914D01*
X131993333Y-121342914D02*
X131898095Y-121390533D01*
D12*
X102917318Y-89573332D02*
X103824461Y-89573332D01*
X103824461Y-89573332D02*
X104005889Y-89633809D01*
X104005889Y-89633809D02*
X104126842Y-89754761D01*
X104126842Y-89754761D02*
X104187318Y-89936190D01*
X104187318Y-89936190D02*
X104187318Y-90057142D01*
X103038270Y-89029047D02*
X102977794Y-88968571D01*
X102977794Y-88968571D02*
X102917318Y-88847618D01*
X102917318Y-88847618D02*
X102917318Y-88545237D01*
X102917318Y-88545237D02*
X102977794Y-88424285D01*
X102977794Y-88424285D02*
X103038270Y-88363809D01*
X103038270Y-88363809D02*
X103159222Y-88303332D01*
X103159222Y-88303332D02*
X103280175Y-88303332D01*
X103280175Y-88303332D02*
X103461603Y-88363809D01*
X103461603Y-88363809D02*
X104187318Y-89089523D01*
X104187318Y-89089523D02*
X104187318Y-88303332D01*
%TO.C,J1*%
D13*
X100465801Y-97169700D02*
X100465801Y-124830300D01*
X100465801Y-124830300D02*
X107527001Y-124830300D01*
X107527001Y-97169700D02*
X100465801Y-97169700D01*
X107527001Y-124830300D02*
X107527001Y-97169700D01*
D14*
X104381000Y-125719300D02*
G75*
G02*
X103619000Y-125719300I-381000J0D01*
G01*
X103619000Y-125719300D02*
G75*
G02*
X104381000Y-125719300I381000J0D01*
G01*
%TO.C,U3*%
D11*
X132000000Y-69960000D02*
X151000000Y-69960000D01*
X151000000Y-121460000D01*
X132000000Y-121460000D01*
X132000000Y-69960000D01*
X137000000Y-69960000D02*
X146000000Y-69960000D01*
X146000000Y-73460000D01*
X137000000Y-73460000D01*
X137000000Y-69960000D01*
%TO.C,U1*%
D15*
X109600000Y-121250000D02*
X109600000Y-108550000D01*
X112140000Y-106010000D02*
X127380000Y-106010000D01*
X127380000Y-123790000D02*
X112140000Y-123790000D01*
X129920000Y-108550000D02*
X129920000Y-121250000D01*
X109600000Y-108550000D02*
G75*
G02*
X112140000Y-106010000I2540000J0D01*
G01*
X112140000Y-123790000D02*
G75*
G02*
X109600000Y-121250000I0J2540000D01*
G01*
X127380000Y-106010000D02*
G75*
G02*
X129920000Y-108550000I-1J-2540001D01*
G01*
X129920000Y-121250000D02*
G75*
G02*
X127380000Y-123790000I-2540001J1D01*
G01*
D16*
X109020000Y-108550000D02*
G75*
G02*
X108820000Y-108550000I-100000J0D01*
G01*
X108820000Y-108550000D02*
G75*
G02*
X109020000Y-108550000I100000J0D01*
G01*
%TO.C,J2*%
D17*
X99911000Y-85454000D02*
X99911000Y-85454000D01*
X99911000Y-85523000D02*
X99911000Y-85523000D01*
D16*
X100550000Y-82950000D02*
X107350000Y-82950000D01*
X100550000Y-95350000D02*
X100550000Y-82950000D01*
X107350000Y-82950000D02*
X107350000Y-95350000D01*
X107350000Y-95350000D02*
X100550000Y-95350000D01*
D17*
X99910000Y-85454000D02*
G75*
G02*
X99911000Y-85523000I500J-34500D01*
G01*
X99910000Y-85523000D02*
G75*
G02*
X99911000Y-85454000I500J34500D01*
G01*
%TD*%
M02*
