%TF.GenerationSoftware,KiCad,Pcbnew,10.0.5*%
%TF.CreationDate,2026-08-04T20:24:02-04:00*%
%TF.ProjectId,DAQBoardFront,44415142-6f61-4726-9446-726f6e742e6b,rev?*%
%TF.SameCoordinates,Original*%
%TF.FileFunction,Legend,Bot*%
%TF.FilePolarity,Positive*%
%FSLAX46Y46*%
G04 Gerber Fmt 4.6, Leading zero omitted, Abs format (unit mm)*
G04 Created by KiCad (PCBNEW 10.0.5) date 2026-08-04 20:24:02*
%MOMM*%
%LPD*%
G01*
G04 APERTURE LIST*
%ADD10C,0.150000*%
%ADD11C,0.254000*%
%ADD12C,0.508000*%
%ADD13C,0.120000*%
%ADD14C,0.200000*%
G04 APERTURE END LIST*
D10*
X112489580Y-92133333D02*
X112537200Y-92085714D01*
X112537200Y-92085714D02*
X112584819Y-91942857D01*
X112584819Y-91942857D02*
X112584819Y-91847619D01*
X112584819Y-91847619D02*
X112537200Y-91704762D01*
X112537200Y-91704762D02*
X112441961Y-91609524D01*
X112441961Y-91609524D02*
X112346723Y-91561905D01*
X112346723Y-91561905D02*
X112156247Y-91514286D01*
X112156247Y-91514286D02*
X112013390Y-91514286D01*
X112013390Y-91514286D02*
X111822914Y-91561905D01*
X111822914Y-91561905D02*
X111727676Y-91609524D01*
X111727676Y-91609524D02*
X111632438Y-91704762D01*
X111632438Y-91704762D02*
X111584819Y-91847619D01*
X111584819Y-91847619D02*
X111584819Y-91942857D01*
X111584819Y-91942857D02*
X111632438Y-92085714D01*
X111632438Y-92085714D02*
X111680057Y-92133333D01*
X112584819Y-93085714D02*
X112584819Y-92514286D01*
X112584819Y-92800000D02*
X111584819Y-92800000D01*
X111584819Y-92800000D02*
X111727676Y-92704762D01*
X111727676Y-92704762D02*
X111822914Y-92609524D01*
X111822914Y-92609524D02*
X111870533Y-92514286D01*
X154734819Y-82033333D02*
X154258628Y-81700000D01*
X154734819Y-81461905D02*
X153734819Y-81461905D01*
X153734819Y-81461905D02*
X153734819Y-81842857D01*
X153734819Y-81842857D02*
X153782438Y-81938095D01*
X153782438Y-81938095D02*
X153830057Y-81985714D01*
X153830057Y-81985714D02*
X153925295Y-82033333D01*
X153925295Y-82033333D02*
X154068152Y-82033333D01*
X154068152Y-82033333D02*
X154163390Y-81985714D01*
X154163390Y-81985714D02*
X154211009Y-81938095D01*
X154211009Y-81938095D02*
X154258628Y-81842857D01*
X154258628Y-81842857D02*
X154258628Y-81461905D01*
X153734819Y-82938095D02*
X153734819Y-82461905D01*
X153734819Y-82461905D02*
X154211009Y-82414286D01*
X154211009Y-82414286D02*
X154163390Y-82461905D01*
X154163390Y-82461905D02*
X154115771Y-82557143D01*
X154115771Y-82557143D02*
X154115771Y-82795238D01*
X154115771Y-82795238D02*
X154163390Y-82890476D01*
X154163390Y-82890476D02*
X154211009Y-82938095D01*
X154211009Y-82938095D02*
X154306247Y-82985714D01*
X154306247Y-82985714D02*
X154544342Y-82985714D01*
X154544342Y-82985714D02*
X154639580Y-82938095D01*
X154639580Y-82938095D02*
X154687200Y-82890476D01*
X154687200Y-82890476D02*
X154734819Y-82795238D01*
X154734819Y-82795238D02*
X154734819Y-82557143D01*
X154734819Y-82557143D02*
X154687200Y-82461905D01*
X154687200Y-82461905D02*
X154639580Y-82414286D01*
X155389580Y-102683333D02*
X155437200Y-102635714D01*
X155437200Y-102635714D02*
X155484819Y-102492857D01*
X155484819Y-102492857D02*
X155484819Y-102397619D01*
X155484819Y-102397619D02*
X155437200Y-102254762D01*
X155437200Y-102254762D02*
X155341961Y-102159524D01*
X155341961Y-102159524D02*
X155246723Y-102111905D01*
X155246723Y-102111905D02*
X155056247Y-102064286D01*
X155056247Y-102064286D02*
X154913390Y-102064286D01*
X154913390Y-102064286D02*
X154722914Y-102111905D01*
X154722914Y-102111905D02*
X154627676Y-102159524D01*
X154627676Y-102159524D02*
X154532438Y-102254762D01*
X154532438Y-102254762D02*
X154484819Y-102397619D01*
X154484819Y-102397619D02*
X154484819Y-102492857D01*
X154484819Y-102492857D02*
X154532438Y-102635714D01*
X154532438Y-102635714D02*
X154580057Y-102683333D01*
X154484819Y-103016667D02*
X154484819Y-103635714D01*
X154484819Y-103635714D02*
X154865771Y-103302381D01*
X154865771Y-103302381D02*
X154865771Y-103445238D01*
X154865771Y-103445238D02*
X154913390Y-103540476D01*
X154913390Y-103540476D02*
X154961009Y-103588095D01*
X154961009Y-103588095D02*
X155056247Y-103635714D01*
X155056247Y-103635714D02*
X155294342Y-103635714D01*
X155294342Y-103635714D02*
X155389580Y-103588095D01*
X155389580Y-103588095D02*
X155437200Y-103540476D01*
X155437200Y-103540476D02*
X155484819Y-103445238D01*
X155484819Y-103445238D02*
X155484819Y-103159524D01*
X155484819Y-103159524D02*
X155437200Y-103064286D01*
X155437200Y-103064286D02*
X155389580Y-103016667D01*
X157114819Y-110683333D02*
X157114819Y-110207143D01*
X157114819Y-110207143D02*
X156114819Y-110207143D01*
X156210057Y-110969048D02*
X156162438Y-111016667D01*
X156162438Y-111016667D02*
X156114819Y-111111905D01*
X156114819Y-111111905D02*
X156114819Y-111350000D01*
X156114819Y-111350000D02*
X156162438Y-111445238D01*
X156162438Y-111445238D02*
X156210057Y-111492857D01*
X156210057Y-111492857D02*
X156305295Y-111540476D01*
X156305295Y-111540476D02*
X156400533Y-111540476D01*
X156400533Y-111540476D02*
X156543390Y-111492857D01*
X156543390Y-111492857D02*
X157114819Y-110921429D01*
X157114819Y-110921429D02*
X157114819Y-111540476D01*
X154234819Y-108933333D02*
X153758628Y-108600000D01*
X154234819Y-108361905D02*
X153234819Y-108361905D01*
X153234819Y-108361905D02*
X153234819Y-108742857D01*
X153234819Y-108742857D02*
X153282438Y-108838095D01*
X153282438Y-108838095D02*
X153330057Y-108885714D01*
X153330057Y-108885714D02*
X153425295Y-108933333D01*
X153425295Y-108933333D02*
X153568152Y-108933333D01*
X153568152Y-108933333D02*
X153663390Y-108885714D01*
X153663390Y-108885714D02*
X153711009Y-108838095D01*
X153711009Y-108838095D02*
X153758628Y-108742857D01*
X153758628Y-108742857D02*
X153758628Y-108361905D01*
X154234819Y-109885714D02*
X154234819Y-109314286D01*
X154234819Y-109600000D02*
X153234819Y-109600000D01*
X153234819Y-109600000D02*
X153377676Y-109504762D01*
X153377676Y-109504762D02*
X153472914Y-109409524D01*
X153472914Y-109409524D02*
X153520533Y-109314286D01*
X158389580Y-100183333D02*
X158437200Y-100135714D01*
X158437200Y-100135714D02*
X158484819Y-99992857D01*
X158484819Y-99992857D02*
X158484819Y-99897619D01*
X158484819Y-99897619D02*
X158437200Y-99754762D01*
X158437200Y-99754762D02*
X158341961Y-99659524D01*
X158341961Y-99659524D02*
X158246723Y-99611905D01*
X158246723Y-99611905D02*
X158056247Y-99564286D01*
X158056247Y-99564286D02*
X157913390Y-99564286D01*
X157913390Y-99564286D02*
X157722914Y-99611905D01*
X157722914Y-99611905D02*
X157627676Y-99659524D01*
X157627676Y-99659524D02*
X157532438Y-99754762D01*
X157532438Y-99754762D02*
X157484819Y-99897619D01*
X157484819Y-99897619D02*
X157484819Y-99992857D01*
X157484819Y-99992857D02*
X157532438Y-100135714D01*
X157532438Y-100135714D02*
X157580057Y-100183333D01*
X157818152Y-101040476D02*
X158484819Y-101040476D01*
X157437200Y-100802381D02*
X158151485Y-100564286D01*
X158151485Y-100564286D02*
X158151485Y-101183333D01*
X161389580Y-97683333D02*
X161437200Y-97635714D01*
X161437200Y-97635714D02*
X161484819Y-97492857D01*
X161484819Y-97492857D02*
X161484819Y-97397619D01*
X161484819Y-97397619D02*
X161437200Y-97254762D01*
X161437200Y-97254762D02*
X161341961Y-97159524D01*
X161341961Y-97159524D02*
X161246723Y-97111905D01*
X161246723Y-97111905D02*
X161056247Y-97064286D01*
X161056247Y-97064286D02*
X160913390Y-97064286D01*
X160913390Y-97064286D02*
X160722914Y-97111905D01*
X160722914Y-97111905D02*
X160627676Y-97159524D01*
X160627676Y-97159524D02*
X160532438Y-97254762D01*
X160532438Y-97254762D02*
X160484819Y-97397619D01*
X160484819Y-97397619D02*
X160484819Y-97492857D01*
X160484819Y-97492857D02*
X160532438Y-97635714D01*
X160532438Y-97635714D02*
X160580057Y-97683333D01*
X160484819Y-98588095D02*
X160484819Y-98111905D01*
X160484819Y-98111905D02*
X160961009Y-98064286D01*
X160961009Y-98064286D02*
X160913390Y-98111905D01*
X160913390Y-98111905D02*
X160865771Y-98207143D01*
X160865771Y-98207143D02*
X160865771Y-98445238D01*
X160865771Y-98445238D02*
X160913390Y-98540476D01*
X160913390Y-98540476D02*
X160961009Y-98588095D01*
X160961009Y-98588095D02*
X161056247Y-98635714D01*
X161056247Y-98635714D02*
X161294342Y-98635714D01*
X161294342Y-98635714D02*
X161389580Y-98588095D01*
X161389580Y-98588095D02*
X161437200Y-98540476D01*
X161437200Y-98540476D02*
X161484819Y-98445238D01*
X161484819Y-98445238D02*
X161484819Y-98207143D01*
X161484819Y-98207143D02*
X161437200Y-98111905D01*
X161437200Y-98111905D02*
X161389580Y-98064286D01*
X152389580Y-105183333D02*
X152437200Y-105135714D01*
X152437200Y-105135714D02*
X152484819Y-104992857D01*
X152484819Y-104992857D02*
X152484819Y-104897619D01*
X152484819Y-104897619D02*
X152437200Y-104754762D01*
X152437200Y-104754762D02*
X152341961Y-104659524D01*
X152341961Y-104659524D02*
X152246723Y-104611905D01*
X152246723Y-104611905D02*
X152056247Y-104564286D01*
X152056247Y-104564286D02*
X151913390Y-104564286D01*
X151913390Y-104564286D02*
X151722914Y-104611905D01*
X151722914Y-104611905D02*
X151627676Y-104659524D01*
X151627676Y-104659524D02*
X151532438Y-104754762D01*
X151532438Y-104754762D02*
X151484819Y-104897619D01*
X151484819Y-104897619D02*
X151484819Y-104992857D01*
X151484819Y-104992857D02*
X151532438Y-105135714D01*
X151532438Y-105135714D02*
X151580057Y-105183333D01*
X151580057Y-105564286D02*
X151532438Y-105611905D01*
X151532438Y-105611905D02*
X151484819Y-105707143D01*
X151484819Y-105707143D02*
X151484819Y-105945238D01*
X151484819Y-105945238D02*
X151532438Y-106040476D01*
X151532438Y-106040476D02*
X151580057Y-106088095D01*
X151580057Y-106088095D02*
X151675295Y-106135714D01*
X151675295Y-106135714D02*
X151770533Y-106135714D01*
X151770533Y-106135714D02*
X151913390Y-106088095D01*
X151913390Y-106088095D02*
X152484819Y-105516667D01*
X152484819Y-105516667D02*
X152484819Y-106135714D01*
X160234819Y-103933333D02*
X159758628Y-103600000D01*
X160234819Y-103361905D02*
X159234819Y-103361905D01*
X159234819Y-103361905D02*
X159234819Y-103742857D01*
X159234819Y-103742857D02*
X159282438Y-103838095D01*
X159282438Y-103838095D02*
X159330057Y-103885714D01*
X159330057Y-103885714D02*
X159425295Y-103933333D01*
X159425295Y-103933333D02*
X159568152Y-103933333D01*
X159568152Y-103933333D02*
X159663390Y-103885714D01*
X159663390Y-103885714D02*
X159711009Y-103838095D01*
X159711009Y-103838095D02*
X159758628Y-103742857D01*
X159758628Y-103742857D02*
X159758628Y-103361905D01*
X159234819Y-104266667D02*
X159234819Y-104885714D01*
X159234819Y-104885714D02*
X159615771Y-104552381D01*
X159615771Y-104552381D02*
X159615771Y-104695238D01*
X159615771Y-104695238D02*
X159663390Y-104790476D01*
X159663390Y-104790476D02*
X159711009Y-104838095D01*
X159711009Y-104838095D02*
X159806247Y-104885714D01*
X159806247Y-104885714D02*
X160044342Y-104885714D01*
X160044342Y-104885714D02*
X160139580Y-104838095D01*
X160139580Y-104838095D02*
X160187200Y-104790476D01*
X160187200Y-104790476D02*
X160234819Y-104695238D01*
X160234819Y-104695238D02*
X160234819Y-104409524D01*
X160234819Y-104409524D02*
X160187200Y-104314286D01*
X160187200Y-104314286D02*
X160139580Y-104266667D01*
D11*
X154937381Y-79674318D02*
X154937381Y-78404318D01*
X154937381Y-78404318D02*
X154635000Y-78404318D01*
X154635000Y-78404318D02*
X154453571Y-78464794D01*
X154453571Y-78464794D02*
X154332619Y-78585746D01*
X154332619Y-78585746D02*
X154272142Y-78706699D01*
X154272142Y-78706699D02*
X154211666Y-78948603D01*
X154211666Y-78948603D02*
X154211666Y-79130032D01*
X154211666Y-79130032D02*
X154272142Y-79371937D01*
X154272142Y-79371937D02*
X154332619Y-79492889D01*
X154332619Y-79492889D02*
X154453571Y-79613842D01*
X154453571Y-79613842D02*
X154635000Y-79674318D01*
X154635000Y-79674318D02*
X154937381Y-79674318D01*
X153727857Y-78525270D02*
X153667381Y-78464794D01*
X153667381Y-78464794D02*
X153546428Y-78404318D01*
X153546428Y-78404318D02*
X153244047Y-78404318D01*
X153244047Y-78404318D02*
X153123095Y-78464794D01*
X153123095Y-78464794D02*
X153062619Y-78525270D01*
X153062619Y-78525270D02*
X153002142Y-78646222D01*
X153002142Y-78646222D02*
X153002142Y-78767175D01*
X153002142Y-78767175D02*
X153062619Y-78948603D01*
X153062619Y-78948603D02*
X153788333Y-79674318D01*
X153788333Y-79674318D02*
X153002142Y-79674318D01*
D10*
X154114819Y-113183333D02*
X154114819Y-112707143D01*
X154114819Y-112707143D02*
X153114819Y-112707143D01*
X154114819Y-114040476D02*
X154114819Y-113469048D01*
X154114819Y-113754762D02*
X153114819Y-113754762D01*
X153114819Y-113754762D02*
X153257676Y-113659524D01*
X153257676Y-113659524D02*
X153352914Y-113564286D01*
X153352914Y-113564286D02*
X153400533Y-113469048D01*
X157234819Y-106433333D02*
X156758628Y-106100000D01*
X157234819Y-105861905D02*
X156234819Y-105861905D01*
X156234819Y-105861905D02*
X156234819Y-106242857D01*
X156234819Y-106242857D02*
X156282438Y-106338095D01*
X156282438Y-106338095D02*
X156330057Y-106385714D01*
X156330057Y-106385714D02*
X156425295Y-106433333D01*
X156425295Y-106433333D02*
X156568152Y-106433333D01*
X156568152Y-106433333D02*
X156663390Y-106385714D01*
X156663390Y-106385714D02*
X156711009Y-106338095D01*
X156711009Y-106338095D02*
X156758628Y-106242857D01*
X156758628Y-106242857D02*
X156758628Y-105861905D01*
X156330057Y-106814286D02*
X156282438Y-106861905D01*
X156282438Y-106861905D02*
X156234819Y-106957143D01*
X156234819Y-106957143D02*
X156234819Y-107195238D01*
X156234819Y-107195238D02*
X156282438Y-107290476D01*
X156282438Y-107290476D02*
X156330057Y-107338095D01*
X156330057Y-107338095D02*
X156425295Y-107385714D01*
X156425295Y-107385714D02*
X156520533Y-107385714D01*
X156520533Y-107385714D02*
X156663390Y-107338095D01*
X156663390Y-107338095D02*
X157234819Y-106766667D01*
X157234819Y-106766667D02*
X157234819Y-107385714D01*
X154784819Y-75833333D02*
X154308628Y-75500000D01*
X154784819Y-75261905D02*
X153784819Y-75261905D01*
X153784819Y-75261905D02*
X153784819Y-75642857D01*
X153784819Y-75642857D02*
X153832438Y-75738095D01*
X153832438Y-75738095D02*
X153880057Y-75785714D01*
X153880057Y-75785714D02*
X153975295Y-75833333D01*
X153975295Y-75833333D02*
X154118152Y-75833333D01*
X154118152Y-75833333D02*
X154213390Y-75785714D01*
X154213390Y-75785714D02*
X154261009Y-75738095D01*
X154261009Y-75738095D02*
X154308628Y-75642857D01*
X154308628Y-75642857D02*
X154308628Y-75261905D01*
X154118152Y-76690476D02*
X154784819Y-76690476D01*
X153737200Y-76452381D02*
X154451485Y-76214286D01*
X154451485Y-76214286D02*
X154451485Y-76833333D01*
X160114819Y-108183333D02*
X160114819Y-107707143D01*
X160114819Y-107707143D02*
X159114819Y-107707143D01*
X159114819Y-108421429D02*
X159114819Y-109040476D01*
X159114819Y-109040476D02*
X159495771Y-108707143D01*
X159495771Y-108707143D02*
X159495771Y-108850000D01*
X159495771Y-108850000D02*
X159543390Y-108945238D01*
X159543390Y-108945238D02*
X159591009Y-108992857D01*
X159591009Y-108992857D02*
X159686247Y-109040476D01*
X159686247Y-109040476D02*
X159924342Y-109040476D01*
X159924342Y-109040476D02*
X160019580Y-108992857D01*
X160019580Y-108992857D02*
X160067200Y-108945238D01*
X160067200Y-108945238D02*
X160114819Y-108850000D01*
X160114819Y-108850000D02*
X160114819Y-108564286D01*
X160114819Y-108564286D02*
X160067200Y-108469048D01*
X160067200Y-108469048D02*
X160019580Y-108421429D01*
X163234819Y-101433333D02*
X162758628Y-101100000D01*
X163234819Y-100861905D02*
X162234819Y-100861905D01*
X162234819Y-100861905D02*
X162234819Y-101242857D01*
X162234819Y-101242857D02*
X162282438Y-101338095D01*
X162282438Y-101338095D02*
X162330057Y-101385714D01*
X162330057Y-101385714D02*
X162425295Y-101433333D01*
X162425295Y-101433333D02*
X162568152Y-101433333D01*
X162568152Y-101433333D02*
X162663390Y-101385714D01*
X162663390Y-101385714D02*
X162711009Y-101338095D01*
X162711009Y-101338095D02*
X162758628Y-101242857D01*
X162758628Y-101242857D02*
X162758628Y-100861905D01*
X162234819Y-102290476D02*
X162234819Y-102100000D01*
X162234819Y-102100000D02*
X162282438Y-102004762D01*
X162282438Y-102004762D02*
X162330057Y-101957143D01*
X162330057Y-101957143D02*
X162472914Y-101861905D01*
X162472914Y-101861905D02*
X162663390Y-101814286D01*
X162663390Y-101814286D02*
X163044342Y-101814286D01*
X163044342Y-101814286D02*
X163139580Y-101861905D01*
X163139580Y-101861905D02*
X163187200Y-101909524D01*
X163187200Y-101909524D02*
X163234819Y-102004762D01*
X163234819Y-102004762D02*
X163234819Y-102195238D01*
X163234819Y-102195238D02*
X163187200Y-102290476D01*
X163187200Y-102290476D02*
X163139580Y-102338095D01*
X163139580Y-102338095D02*
X163044342Y-102385714D01*
X163044342Y-102385714D02*
X162806247Y-102385714D01*
X162806247Y-102385714D02*
X162711009Y-102338095D01*
X162711009Y-102338095D02*
X162663390Y-102290476D01*
X162663390Y-102290476D02*
X162615771Y-102195238D01*
X162615771Y-102195238D02*
X162615771Y-102004762D01*
X162615771Y-102004762D02*
X162663390Y-101909524D01*
X162663390Y-101909524D02*
X162711009Y-101861905D01*
X162711009Y-101861905D02*
X162806247Y-101814286D01*
%TO.C,U4*%
D12*
X104381000Y-125717400D02*
G75*
G02*
X103619000Y-125717400I-381000J0D01*
G01*
X103619000Y-125717400D02*
G75*
G02*
X104381000Y-125717400I381000J0D01*
G01*
%TO.C,C1*%
D13*
X110190000Y-92446267D02*
X110190000Y-92153733D01*
X111210000Y-92446267D02*
X111210000Y-92153733D01*
%TO.C,R5*%
X152327500Y-82454724D02*
X152327500Y-81945276D01*
X153372500Y-82454724D02*
X153372500Y-81945276D01*
%TO.C,C3*%
X155950000Y-102703733D02*
X155950000Y-102996267D01*
X156970000Y-102703733D02*
X156970000Y-102996267D01*
%TO.C,L2*%
X157650000Y-110439758D02*
X157650000Y-111260242D01*
X158770000Y-110439758D02*
X158770000Y-111260242D01*
%TO.C,R1*%
X154687500Y-108845276D02*
X154687500Y-109354724D01*
X155732500Y-108845276D02*
X155732500Y-109354724D01*
%TO.C,C4*%
X158950000Y-100203733D02*
X158950000Y-100496267D01*
X159970000Y-100203733D02*
X159970000Y-100496267D01*
%TO.C,C5*%
X161950000Y-97703733D02*
X161950000Y-97996267D01*
X162970000Y-97703733D02*
X162970000Y-97996267D01*
%TO.C,C2*%
X152950000Y-105203733D02*
X152950000Y-105496267D01*
X153970000Y-105203733D02*
X153970000Y-105496267D01*
%TO.C,R3*%
X160687500Y-103845276D02*
X160687500Y-104354724D01*
X161732500Y-103845276D02*
X161732500Y-104354724D01*
%TO.C,D2*%
D14*
X154850000Y-79725000D02*
X153150000Y-79725000D01*
X155560000Y-78475000D02*
X153150000Y-78475000D01*
%TO.C,L1*%
D13*
X154650000Y-112939758D02*
X154650000Y-113760242D01*
X155770000Y-112939758D02*
X155770000Y-113760242D01*
%TO.C,R2*%
X157687500Y-106345276D02*
X157687500Y-106854724D01*
X158732500Y-106345276D02*
X158732500Y-106854724D01*
%TO.C,R4*%
X152165000Y-77660000D02*
X152165000Y-75200000D01*
X153635000Y-75200000D02*
X153635000Y-77660000D01*
X153635000Y-77660000D02*
X152165000Y-77660000D01*
%TO.C,L3*%
X160650000Y-107939758D02*
X160650000Y-108760242D01*
X161770000Y-107939758D02*
X161770000Y-108760242D01*
%TO.C,R6*%
X163687500Y-101345276D02*
X163687500Y-101854724D01*
X164732500Y-101345276D02*
X164732500Y-101854724D01*
%TD*%
M02*
