%TF.GenerationSoftware,KiCad,Pcbnew,10.0.5*%
%TF.CreationDate,2026-08-04T20:24:02-04:00*%
%TF.ProjectId,DAQBoardFront,44415142-6f61-4726-9446-726f6e742e6b,rev?*%
%TF.SameCoordinates,Original*%
%TF.FileFunction,Legend,Top*%
%TF.FilePolarity,Positive*%
%FSLAX46Y46*%
G04 Gerber Fmt 4.6, Leading zero omitted, Abs format (unit mm)*
G04 Created by KiCad (PCBNEW 10.0.5) date 2026-08-04 20:24:02*
%MOMM*%
%LPD*%
G01*
G04 APERTURE LIST*
%ADD10C,0.100000*%
%ADD11C,0.150000*%
%ADD12C,0.254000*%
%ADD13C,0.152400*%
%ADD14C,0.508000*%
%ADD15C,0.127000*%
%ADD16C,0.200000*%
%ADD17C,0.069000*%
G04 APERTURE END LIST*
D10*
X140888095Y-69557419D02*
X140888095Y-70366942D01*
X140888095Y-70366942D02*
X140935714Y-70462180D01*
X140935714Y-70462180D02*
X140983333Y-70509800D01*
X140983333Y-70509800D02*
X141078571Y-70557419D01*
X141078571Y-70557419D02*
X141269047Y-70557419D01*
X141269047Y-70557419D02*
X141364285Y-70509800D01*
X141364285Y-70509800D02*
X141411904Y-70462180D01*
X141411904Y-70462180D02*
X141459523Y-70366942D01*
X141459523Y-70366942D02*
X141459523Y-69557419D01*
X141840476Y-69557419D02*
X142459523Y-69557419D01*
X142459523Y-69557419D02*
X142126190Y-69938371D01*
X142126190Y-69938371D02*
X142269047Y-69938371D01*
X142269047Y-69938371D02*
X142364285Y-69985990D01*
X142364285Y-69985990D02*
X142411904Y-70033609D01*
X142411904Y-70033609D02*
X142459523Y-70128847D01*
X142459523Y-70128847D02*
X142459523Y-70366942D01*
X142459523Y-70366942D02*
X142411904Y-70462180D01*
X142411904Y-70462180D02*
X142364285Y-70509800D01*
X142364285Y-70509800D02*
X142269047Y-70557419D01*
X142269047Y-70557419D02*
X141983333Y-70557419D01*
X141983333Y-70557419D02*
X141888095Y-70509800D01*
X141888095Y-70509800D02*
X141840476Y-70462180D01*
X112162580Y-74658095D02*
X111353057Y-74658095D01*
X111353057Y-74658095D02*
X111257819Y-74705714D01*
X111257819Y-74705714D02*
X111210200Y-74753333D01*
X111210200Y-74753333D02*
X111162580Y-74848571D01*
X111162580Y-74848571D02*
X111162580Y-75039047D01*
X111162580Y-75039047D02*
X111210200Y-75134285D01*
X111210200Y-75134285D02*
X111257819Y-75181904D01*
X111257819Y-75181904D02*
X111353057Y-75229523D01*
X111353057Y-75229523D02*
X112162580Y-75229523D01*
X112067342Y-75658095D02*
X112114961Y-75705714D01*
X112114961Y-75705714D02*
X112162580Y-75800952D01*
X112162580Y-75800952D02*
X112162580Y-76039047D01*
X112162580Y-76039047D02*
X112114961Y-76134285D01*
X112114961Y-76134285D02*
X112067342Y-76181904D01*
X112067342Y-76181904D02*
X111972104Y-76229523D01*
X111972104Y-76229523D02*
X111876866Y-76229523D01*
X111876866Y-76229523D02*
X111734009Y-76181904D01*
X111734009Y-76181904D02*
X111162580Y-75610476D01*
X111162580Y-75610476D02*
X111162580Y-76229523D01*
D11*
X104545180Y-112738095D02*
X103735657Y-112738095D01*
X103735657Y-112738095D02*
X103640419Y-112785714D01*
X103640419Y-112785714D02*
X103592800Y-112833333D01*
X103592800Y-112833333D02*
X103545180Y-112928571D01*
X103545180Y-112928571D02*
X103545180Y-113119047D01*
X103545180Y-113119047D02*
X103592800Y-113214285D01*
X103592800Y-113214285D02*
X103640419Y-113261904D01*
X103640419Y-113261904D02*
X103735657Y-113309523D01*
X103735657Y-113309523D02*
X104545180Y-113309523D01*
X104211847Y-114214285D02*
X103545180Y-114214285D01*
X104592800Y-113976190D02*
X103878514Y-113738095D01*
X103878514Y-113738095D02*
X103878514Y-114357142D01*
X130888095Y-122954819D02*
X130888095Y-123764342D01*
X130888095Y-123764342D02*
X130935714Y-123859580D01*
X130935714Y-123859580D02*
X130983333Y-123907200D01*
X130983333Y-123907200D02*
X131078571Y-123954819D01*
X131078571Y-123954819D02*
X131269047Y-123954819D01*
X131269047Y-123954819D02*
X131364285Y-123907200D01*
X131364285Y-123907200D02*
X131411904Y-123859580D01*
X131411904Y-123859580D02*
X131459523Y-123764342D01*
X131459523Y-123764342D02*
X131459523Y-122954819D01*
X132459523Y-123954819D02*
X131888095Y-123954819D01*
X132173809Y-123954819D02*
X132173809Y-122954819D01*
X132173809Y-122954819D02*
X132078571Y-123097676D01*
X132078571Y-123097676D02*
X131983333Y-123192914D01*
X131983333Y-123192914D02*
X131888095Y-123240533D01*
D12*
X102967318Y-94173332D02*
X103874461Y-94173332D01*
X103874461Y-94173332D02*
X104055889Y-94233809D01*
X104055889Y-94233809D02*
X104176842Y-94354761D01*
X104176842Y-94354761D02*
X104237318Y-94536190D01*
X104237318Y-94536190D02*
X104237318Y-94657142D01*
X103088270Y-93629047D02*
X103027794Y-93568571D01*
X103027794Y-93568571D02*
X102967318Y-93447618D01*
X102967318Y-93447618D02*
X102967318Y-93145237D01*
X102967318Y-93145237D02*
X103027794Y-93024285D01*
X103027794Y-93024285D02*
X103088270Y-92963809D01*
X103088270Y-92963809D02*
X103209222Y-92903332D01*
X103209222Y-92903332D02*
X103330175Y-92903332D01*
X103330175Y-92903332D02*
X103511603Y-92963809D01*
X103511603Y-92963809D02*
X104237318Y-93689523D01*
X104237318Y-93689523D02*
X104237318Y-92903332D01*
%TO.C,U3*%
D10*
X132010000Y-64900000D02*
X151010000Y-64900000D01*
X151010000Y-116400000D01*
X132010000Y-116400000D01*
X132010000Y-64900000D01*
X137010000Y-64900000D02*
X146010000Y-64900000D01*
X146010000Y-68400000D01*
X137010000Y-68400000D01*
X137010000Y-64900000D01*
%TO.C,U2*%
X101460000Y-65260000D02*
X121780000Y-65260000D01*
X121780000Y-85580000D01*
X101460000Y-85580000D01*
X101460000Y-65260000D01*
%TO.C,U4*%
D13*
X100465801Y-102171600D02*
X100465801Y-124828400D01*
X100465801Y-124828400D02*
X107527001Y-124828400D01*
X107527001Y-102171600D02*
X100465801Y-102171600D01*
X107527001Y-124828400D02*
X107527001Y-102171600D01*
D14*
X104381000Y-125717400D02*
G75*
G02*
X103619000Y-125717400I-381000J0D01*
G01*
X103619000Y-125717400D02*
G75*
G02*
X104381000Y-125717400I381000J0D01*
G01*
%TO.C,U1*%
D15*
X109590000Y-123100000D02*
X109590000Y-110400000D01*
X112130000Y-107860000D02*
X127370000Y-107860000D01*
X127370000Y-125640000D02*
X112130000Y-125640000D01*
X129910000Y-110400000D02*
X129910000Y-123100000D01*
X109590000Y-110400000D02*
G75*
G02*
X112130000Y-107860000I2540000J0D01*
G01*
X112130000Y-125640000D02*
G75*
G02*
X109590000Y-123100000I0J2540000D01*
G01*
X127370000Y-107860000D02*
G75*
G02*
X129910000Y-110400000I-1J-2540001D01*
G01*
X129910000Y-123100000D02*
G75*
G02*
X127370000Y-125640000I-2540001J1D01*
G01*
D16*
X109010000Y-110400000D02*
G75*
G02*
X108810000Y-110400000I-100000J0D01*
G01*
X108810000Y-110400000D02*
G75*
G02*
X109010000Y-110400000I100000J0D01*
G01*
%TO.C,J2*%
D17*
X99961000Y-90054000D02*
X99961000Y-90054000D01*
X99961000Y-90123000D02*
X99961000Y-90123000D01*
D16*
X100600000Y-87550000D02*
X107400000Y-87550000D01*
X100600000Y-99950000D02*
X100600000Y-87550000D01*
X107400000Y-87550000D02*
X107400000Y-99950000D01*
X107400000Y-99950000D02*
X100600000Y-99950000D01*
D17*
X99960000Y-90054000D02*
G75*
G02*
X99961000Y-90123000I500J-34500D01*
G01*
X99960000Y-90123000D02*
G75*
G02*
X99961000Y-90054000I500J34500D01*
G01*
%TD*%
M02*
